<svg width="164" height="44" viewBox="0 0 164 44" fill="none" xmlns="http://www.w3.org/2000/svg">
<path d="M95.1001 12.23L104.5 8.72998L95.1001 5.12998V0.22998L111.2 6.72998V10.73L95.1001 17.23V12.23Z" fill="#91A7BC"/>
<path d="M6.2 43.2301C2.8 43.2301 0 41.5301 0 37.7301V37.5301C0 32.9301 4 31.3301 8.9 31.3301H11.2V30.4301C11.2 28.5301 10.4 27.4301 8.4 27.4301C6.6 27.4301 5.7 28.4301 5.6 29.8301H0.6C1 25.6301 4.3 23.6301 8.7 23.6301C13.2 23.6301 16.5 25.5301 16.5 30.2301V42.8301H11.4V40.6301C10.4 42.0301 8.7 43.2301 6.2 43.2301ZM11.2 36.6301V34.8301H9.1C6.5 34.8301 5.2 35.5301 5.2 37.2301V37.4301C5.2 38.7301 6 39.6301 7.8 39.6301C9.6 39.5301 11.2 38.5301 11.2 36.6301ZM28.4 43.2301C23.2 43.2301 19.4 40.0301 19.4 33.6301V33.3301C19.4 26.9301 23.4 23.5301 28.4 23.5301C32.7 23.5301 36.2 25.7301 36.6 30.6301H31.6C31.3 28.8301 30.3 27.6301 28.5 27.6301C26.3 27.6301 24.7 29.4301 24.7 33.1301V33.7301C24.7 37.5301 26.1 39.2301 28.5 39.2301C30.3 39.2301 31.6 37.9301 31.9 35.8301H36.7C36.4 40.2301 33.5 43.2301 28.4 43.2301ZM48 43.2301C42.8 43.2301 39 40.0301 39 33.6301V33.3301C39 26.9301 43 23.5301 48 23.5301C52.3 23.5301 55.8 25.7301 56.2 30.6301H51.2C50.9 28.8301 49.9 27.6301 48.1 27.6301C45.9 27.6301 44.3 29.4301 44.3 33.1301V33.7301C44.3 37.5301 45.7 39.2301 48.1 39.2301C49.9 39.2301 51.2 37.9301 51.5 35.8301H56.3C56 40.2301 53.1 43.2301 48 43.2301ZM67.7 43.2301C62.3 43.2301 58.6 40.0301 58.6 33.7301V33.3301C58.6 27.0301 62.5 23.5301 67.6 23.5301C72.3 23.5301 76.2 26.1301 76.2 32.4301V34.7301H63.9C64.1 38.1301 65.6 39.4301 67.8 39.4301C69.8 39.4301 70.9 38.3301 71.3 37.0301H76.2C75.6 40.5301 72.6 43.2301 67.7 43.2301ZM64 31.2301H71C70.9 28.4301 69.6 27.2301 67.5 27.2301C65.9 27.3301 64.4 28.2301 64 31.2301ZM79.4 24.0301H84.7V26.8301C85.6 25.0301 87.5 23.6301 90.4 23.6301C93.8 23.6301 96.1 25.7301 96.1 30.2301V42.8301H90.8V31.0301C90.8 28.8301 89.9 27.8301 88 27.8301C86.2 27.8301 84.7 28.9301 84.7 31.3301V42.8301H79.4V24.0301V24.0301ZM105.8 18.3301V24.0301H109.4V27.9301H105.8V36.8301C105.8 38.2301 106.4 38.9301 107.7 38.9301C108.5 38.9301 109 38.8301 109.5 38.6301V42.7301C108.9 42.9301 107.8 43.1301 106.5 43.1301C102.4 43.1301 100.5 41.2301 100.5 37.4301V27.9301H98.3V24.0301H100.5V20.5301L105.8 18.3301ZM129.2 42.8301H124V40.0301C123.1 41.8301 121.3 43.2301 118.5 43.2301C115.1 43.2301 112.6 41.1301 112.6 36.7301V24.0301H117.9V36.0301C117.9 38.2301 118.8 39.2301 120.6 39.2301C122.4 39.2301 123.9 38.0301 123.9 35.7301V24.0301H129.2V42.8301ZM133.1 24.0301H138.4V27.5301C139.5 25.0301 141.3 23.8301 144.1 23.8301V29.0301C140.5 29.0301 138.4 30.1301 138.4 33.2301V42.9301H133.1V24.0301ZM154.8 43.2301C149.4 43.2301 145.7 40.0301 145.7 33.7301V33.3301C145.7 27.0301 149.6 23.5301 154.7 23.5301C159.4 23.5301 163.3 26.1301 163.3 32.4301V34.7301H151.1C151.3 38.1301 152.8 39.4301 155 39.4301C157 39.4301 158.1 38.3301 158.5 37.0301H163.4C162.6 40.5301 159.7 43.2301 154.8 43.2301ZM151 31.2301H158.1C158 28.4301 156.7 27.2301 154.6 27.2301C153 27.3301 151.5 28.2301 151 31.2301Z" fill="#91A7BC"/>
</svg>
