<svg width="184" height="39" viewBox="0 0 184 39" fill="none" xmlns="http://www.w3.org/2000/svg">
<path d="M63.5617 18.899C62.5198 18.8972 61.4804 18.9943 60.4568 19.1889C59.619 19.3247 58.8086 19.5949 58.0566 19.989L58.3539 22.9874C59.1419 22.7563 59.9434 22.5749 60.7541 22.4442C61.4646 22.3368 62.1825 22.2828 62.9011 22.2827C65.6342 22.2827 67.0005 23.3287 67.0005 25.4206V26.1253C66.1116 25.9783 65.211 25.9144 64.3104 25.9344C61.9175 25.9344 60.0274 26.4678 58.6402 27.5346C57.2687 28.5744 56.4917 30.2188 56.5592 31.9386C56.5592 35.7824 59.1859 37.7043 64.4388 37.7043C66.6926 37.687 68.9335 37.3637 71.1 36.7427V25.7326C71.1121 21.1768 68.5996 18.899 63.5617 18.899V18.899ZM67.0189 34.2728C66.1616 34.4975 65.2774 34.605 64.3911 34.5921C61.9149 34.5921 60.677 33.6954 60.677 31.9019C60.677 30.0229 62.0434 29.0833 64.7765 29.0833C65.5292 29.0466 66.2834 29.1107 67.0189 29.2742V34.2728Z" fill="#91A7BC"/>
<path d="M72.9751 19.3462H77.5223L81.941 33.1823L86.4258 19.3462H90.7822L83.9926 37.2817H79.7647L72.9751 19.3462" fill="#91A7BC"/>
<path d="M98.7242 18.8989C97.6823 18.8972 96.643 18.9943 95.6194 19.1889C94.7815 19.3247 93.9712 19.5949 93.2192 19.989L93.5385 22.9984C94.3264 22.7673 95.128 22.5859 95.9387 22.4552C96.6492 22.3478 97.3671 22.2939 98.0857 22.2937C100.819 22.2937 102.185 23.3397 102.185 25.4316V26.1363C101.296 25.9893 100.396 25.9254 99.495 25.9454C97.1021 25.9454 95.212 26.4788 93.8247 27.5456C92.4532 28.5854 91.6763 30.2298 91.7438 31.9496C91.7438 35.7934 94.3705 37.7153 99.6234 37.7153C101.877 37.698 104.118 37.3747 106.285 36.7537V25.7436C106.282 21.1805 103.762 18.8989 98.7242 18.8989ZM102.181 34.2728C101.324 34.4975 100.44 34.605 99.5537 34.5921C97.0775 34.5921 95.8396 33.6954 95.8396 31.9019C95.8396 30.0229 97.2059 29.0833 99.939 29.0833C100.692 29.0466 101.446 29.1107 102.181 29.2742V34.2728" fill="#91A7BC"/>
<path d="M122.139 26.712C122.139 25.0898 121.83 23.9693 121.211 23.3502C120.591 22.7312 119.49 22.4217 117.908 22.4217C117.446 22.4289 116.986 22.4719 116.531 22.5502C116.024 22.6299 115.522 22.7365 115.027 22.8695V37.2817H110.865V20.2454C112.04 19.7881 113.261 19.4548 114.505 19.2508C115.816 19.0161 117.145 18.8933 118.476 18.8838C123.685 18.8838 126.29 21.2326 126.29 25.9303V37.2671H122.139V26.712" fill="#91A7BC"/>
<path d="M136.547 18.8989C135.506 18.8972 134.466 18.9943 133.443 19.1889C132.605 19.3247 131.794 19.5949 131.042 19.989L131.362 22.9984C132.15 22.7673 132.951 22.5859 133.762 22.4552C134.472 22.3478 135.19 22.2939 135.909 22.2937C138.642 22.2937 140.008 23.3397 140.008 25.4316V26.1363C139.119 25.9893 138.219 25.9254 137.318 25.9454C134.925 25.9454 133.035 26.4788 131.648 27.5456C130.276 28.5853 129.5 30.2298 129.567 31.9496C129.567 35.7934 132.194 37.7153 137.447 37.7153C139.7 37.698 141.941 37.3747 144.108 36.7537V25.7436C144.108 21.1805 141.588 18.8989 136.547 18.8989V18.8989ZM140.005 34.2728C139.147 34.4975 138.263 34.605 137.377 34.5921C134.901 34.5921 133.663 33.6954 133.663 31.9019C133.663 30.0229 135.029 29.0833 137.762 29.0833C138.515 29.0466 139.269 29.1107 140.005 29.2742V34.2728" fill="#91A7BC"/>
<path d="M159.607 12.4282V19.2839C158.629 19.0052 157.614 18.8814 156.597 18.9169C153.864 18.9169 151.644 19.8026 149.936 21.574C148.229 23.3454 147.372 25.6624 147.367 28.525C147.367 31.5149 148.2 33.7989 149.866 35.377C151.533 36.9551 153.967 37.7453 157.17 37.7479C159.404 37.7163 161.625 37.3933 163.776 36.7863V12.4282H159.607V12.4282ZM159.607 34.0118C158.768 34.2264 157.902 34.313 157.038 34.2687C153.492 34.2687 151.72 32.326 151.72 28.4406C151.72 26.4833 152.179 24.9676 153.096 23.8934C154.014 22.8193 155.305 22.286 156.972 22.2933C157.868 22.2704 158.761 22.4225 159.599 22.7411L159.607 34.0118Z" fill="#91A7BC"/>
<path d="M183.113 27.3547C183.113 24.7514 182.431 22.6913 181.066 21.1744C179.7 19.6574 177.843 18.8989 175.494 18.8989C172.933 18.8989 170.893 19.7553 169.377 21.468C167.86 23.1807 167.101 25.505 167.101 28.441C167.101 31.3771 167.912 33.6611 169.534 35.293C171.156 36.925 173.462 37.7362 176.452 37.7263C178.361 37.7395 180.254 37.3934 182.034 36.706L181.587 33.5681C180.039 34.0885 178.415 34.3478 176.783 34.3351C173.274 34.3351 171.477 32.7546 171.391 29.5934H183.113V27.3547ZM171.391 26.4556C171.442 25.2792 171.881 24.1527 172.639 23.2516C173.334 22.4867 174.33 22.0654 175.362 22.0992C176.386 22.062 177.373 22.4847 178.052 23.2516C178.735 24.0199 179.076 25.0878 179.076 26.4556H171.391Z" fill="#91A7BC"/>
<path d="M12.0341 11.6835C10.6199 14.4385 9.4736 16.6405 8.59525 18.2896C7.87199 19.671 7.06301 21.0059 6.17302 22.2863C5.51395 23.2308 4.72581 24.0782 3.83153 24.8039C2.82895 25.5775 1.78379 26.2943 0.700979 26.9509L0 25.8646C0.802518 25.2749 1.52185 24.6914 2.15799 24.114C2.92618 23.3866 3.61623 22.5809 4.21688 21.7101C5.13942 20.3836 5.99084 19.0091 6.76757 17.5923C7.73158 15.8796 8.9231 13.5552 10.3422 10.6192C11.1853 8.82399 12.1528 7.08993 13.2379 5.42974C13.9914 4.26847 14.8783 3.19935 15.8803 2.24414C16.5976 1.56353 17.4351 1.02218 18.3502 0.647673C19.1191 0.3483 19.9405 0.207243 20.7651 0.232958C21.5704 0.266862 22.3605 0.462836 23.0883 0.809155C24.0608 1.33312 24.9172 2.04846 25.6059 2.91209C26.7608 4.31339 27.7819 5.8198 28.6557 7.41157C29.7812 9.36892 31.111 11.9379 32.6451 15.1187C33.4836 16.8842 34.4235 18.5997 35.46 20.2567C36.2261 21.4966 37.135 22.6421 38.1685 23.6699C39.0673 24.5437 40.0916 25.2785 41.2073 25.8499C42.4177 26.4527 43.6805 26.9441 44.9801 27.3179L45.8756 28.8263C44.3114 28.6768 42.7704 28.343 41.2844 27.8317C39.911 27.333 38.6412 26.5866 37.5372 25.6297C36.2574 24.5051 35.1297 23.2182 34.1828 21.8018C32.9277 19.928 31.8102 17.9655 30.8394 15.9297C29.4179 13.0769 28.2129 10.7525 27.2244 8.95666C26.4481 7.50736 25.5674 6.11641 24.5893 4.79483C24.0326 4.00037 23.3348 3.31492 22.5304 2.77263C21.9748 2.43674 21.344 2.24498 20.6954 2.21478C20.0309 2.19316 19.3707 2.32898 18.7686 2.61115C18.0192 2.99255 17.3511 3.51608 16.8015 4.15257C15.9833 5.06524 15.2465 6.04767 14.5994 7.08861C13.8165 8.32908 12.9614 9.8607 12.0341 11.6835Z" fill="#91A7BC"/>
<path d="M33.0596 29.7401C35.1248 29.8154 37.1925 29.7122 39.24 29.4318C41.0827 29.1949 42.8965 28.7707 44.6533 28.1656L44.8625 29.285C42.0439 31.0833 38.0876 31.8932 32.9936 31.7145C30.9844 31.6744 28.9862 31.4073 27.0371 30.9181C25.508 30.5207 24.0189 29.9826 22.589 29.3107C21.6103 28.8654 20.6806 28.4005 19.7997 27.9161C18.9189 27.4316 18.0186 26.9875 17.0986 26.5838C16.1933 26.1813 15.2628 25.838 14.313 25.5562C13.3241 25.2703 12.3032 25.11 11.2742 25.0791C9.6473 25.0288 8.01963 25.1518 6.41876 25.4461C4.76437 25.74 3.1412 26.1884 1.57062 26.7857L0.862305 25.9562L2.17985 25.3213C3.53829 24.5438 5.00362 23.97 6.52886 23.6184C8.0981 23.2291 9.71321 23.0562 11.3293 23.1046C12.4797 23.1365 13.6226 23.3015 14.7351 23.5964C15.7467 23.8703 16.7346 24.225 17.6895 24.657C18.6192 25.0828 19.549 25.5477 20.4787 26.0517C21.4084 26.5557 22.3786 27.0328 23.3891 27.483C24.7305 28.0826 26.1127 28.5867 27.5252 28.9914C29.3333 29.4621 31.1915 29.7134 33.0596 29.7401Z" fill="#91A7BC"/>
<path d="M36.0582 14.6269C35.3186 14.6008 34.586 14.7785 33.9406 15.1407C33.0583 15.6916 32.2733 16.3848 31.6175 17.1922C30.5064 18.5023 29.4792 19.8814 28.542 21.321C27.3749 23.0753 25.9179 25.3434 24.1709 28.1253C21.8172 31.9226 19.6323 34.6628 17.6162 36.3462C15.6002 38.0296 13.4862 38.837 11.2744 38.7684C8.93289 38.6877 6.73087 37.518 4.6683 35.2599C2.60573 33.0016 1.04963 29.8698 0 25.8645L1.9598 26.2315C3.04125 29.4123 4.41261 31.9446 6.07393 33.8285C7.73525 35.7125 9.49074 36.6912 11.3404 36.7646C13.0654 36.8257 14.8086 36.1027 16.5703 34.5956C18.3319 33.0884 20.2795 30.6246 22.413 27.2041C24.3312 24.1482 25.9399 21.6574 27.2391 19.7319C28.2723 18.1669 29.4179 16.679 30.6669 15.2801C31.4243 14.3909 32.3529 13.6633 33.3974 13.1405C34.2592 12.7737 35.1924 12.6056 36.1279 12.6487C38.3472 12.727 40.3166 14.0531 42.0367 16.627C43.7569 19.2009 45.281 23.1316 46.6096 28.4189L44.481 27.5417C43.1524 23.1646 41.8066 19.9313 40.4439 17.8418C39.0812 15.7523 37.6191 14.6807 36.0582 14.6269" fill="#91A7BC"/>
</svg>
