<svg width="84" height="35" viewBox="0 0 84 35" fill="none" xmlns="http://www.w3.org/2000/svg">
<path fill-rule="evenodd" clip-rule="evenodd" d="M25.1333 7.08187C30.4179 -0.327392 41.6167 -2.09496 49.0923 2.94758C47.8394 4.79372 46.671 6.70058 45.4605 8.57711C41.804 5.94391 36.5196 5.87133 32.8937 8.59532C28.5535 11.5432 27.0944 17.9174 29.9639 22.3724C32.9965 27.6269 40.7448 29.2675 45.4846 25.3388C49.5343 22.3724 49.5099 16.955 50.8598 12.5784C52.4822 7.06384 56.9496 2.34218 62.5427 0.798588C67.5793 -0.611897 73.2814 0.0600838 77.6337 3.05654C76.405 4.91485 75.2427 6.80954 74.0503 8.68607C71.4594 6.82776 68.0271 6.08925 64.9339 6.96692C60.3214 8.12928 56.9556 12.8146 57.2825 17.5542C57.3914 22.8206 61.9979 27.5725 67.325 27.5663C71.6894 27.8085 75.509 24.5516 76.7923 20.5143C73.4145 20.4719 70.0429 20.5325 66.6712 20.4839C67.8152 18.3047 69.268 16.3133 70.5696 14.231C74.9886 14.249 79.4135 14.1764 83.8323 14.2794C84.6678 20.3811 82.3614 26.9249 77.3674 30.6597C70.0731 36.4892 58.2995 34.5094 53.1118 26.8158C50.3392 30.6174 46.0596 33.3534 41.3564 33.8862C35.7752 34.7336 29.9337 32.615 26.1078 28.4864C24.2738 31.2833 21.132 33.2382 17.7421 33.2808C11.8342 33.4198 5.90786 33.4865 0 33.2564C0.0543588 22.4392 0.036199 11.628 0.0119857 0.810752C5.32698 0.792592 10.6415 0.76838 15.9563 0.816807C19.8669 0.895621 23.8378 3.28051 25.1333 7.08193V7.08187ZM7.07621 6.92455C7.15497 9.24909 7.12476 11.5736 7.11859 13.9042C9.85457 13.8919 12.591 13.9525 15.327 13.8919C17.2093 13.9525 18.9346 12.203 18.7773 10.3145C18.8437 8.46815 17.1489 6.80354 15.315 6.86395C12.5666 6.81559 9.81837 6.80954 7.07621 6.92455V6.92455ZM7.14298 19.8666C7.1066 22.3546 7.11278 24.8365 7.14298 27.3242C10.2663 27.3002 13.3899 27.3606 16.5073 27.3181C18.3657 27.4209 20.2605 26.1012 20.5387 24.2185C21.005 22.1181 19.2131 20.0176 17.1127 19.9331C13.7955 19.8119 10.4661 19.9571 7.14298 19.8663V19.8666Z" fill="#91A7BC"/>
</svg>
