<svg width="380" height="101" viewBox="0 0 380 101" fill="none" xmlns="http://www.w3.org/2000/svg">
<path d="M57.357 77.1252C55.301 79.0958 52.4544 80.2958 49.2997 80.2958H35.1037H20.909V69.3918V58.4892H35.1037H49.2997C52.4544 58.4892 55.301 59.6558 57.357 61.5918C59.4144 63.5292 60.6824 66.2385 60.6824 69.3225C60.6824 72.4105 59.4144 75.1532 57.357 77.1252ZM20.909 30.4398V19.9492H32.773H44.637C47.653 19.9492 50.329 21.0465 52.2477 22.8972C54.169 24.7492 55.3344 27.3558 55.3344 30.3718C55.3344 33.3905 54.169 36.0305 52.2477 37.9145C50.329 39.8025 47.653 40.9332 44.637 40.9332H32.773H20.909V30.4398ZM246.801 41.7558H227.392H207.986L202.089 51.0145L196.19 60.2705H211.138H226.09C224.308 66.3065 220.912 71.5185 216.284 75.2212C211.653 78.9252 205.79 81.1198 199.07 81.1198C190.634 81.1198 183.057 77.5865 177.589 71.9292C172.12 66.2718 168.761 58.4892 168.761 49.9852C168.761 41.6185 172.154 33.9385 177.673 28.3505C183.194 22.7598 190.84 19.2625 199.345 19.2625C203.048 19.2625 206.477 19.8465 209.63 20.9092C212.786 21.9732 215.665 23.5145 218.272 25.4345L223.482 17.1385L228.696 8.8385C224.718 6.02783 220.225 3.83315 215.322 2.34249C210.418 0.850486 205.105 0.0611542 199.484 0.0611542C192.006 0.0611542 185.218 1.43316 179.184 3.91849C173.148 6.40516 167.866 10.0052 163.409 14.4638C152.781 25.0918 149.798 35.8252 147.672 45.6972C145.546 55.5732 144.277 64.5932 137.077 71.7918C134.06 74.8105 130.734 77.1078 127.1 78.6505C123.466 80.1932 119.522 80.9825 115.27 80.9825C106.56 80.9825 98.709 77.4158 93.0344 71.7572C87.3597 66.1012 83.861 58.3532 83.861 49.9852C83.861 41.7558 87.3597 34.0758 93.0344 28.4358C98.709 22.7945 106.56 19.1945 115.27 19.1252C118.904 19.1945 122.3 19.7438 125.42 20.7558C128.54 21.7652 131.385 23.2412 133.922 25.1598L139.204 16.8612L144.484 8.56516C140.506 5.7545 136.014 3.62782 131.112 2.20516C126.208 0.78249 120.893 0.0611542 115.27 0.0611542C106.63 0.0611542 98.5717 2.15315 91.541 5.80515C84.513 9.45849 78.513 14.6692 73.9864 20.9092C72.205 15.4225 68.5357 10.7265 63.5117 7.39983C58.489 4.07183 52.1104 2.11983 44.9104 2.11983H22.4864H0.0610352V50.1225V98.1252H24.8184H49.573C55.813 98.1252 61.369 96.6518 65.9984 94.0972C70.6264 91.5425 74.329 87.9078 76.8664 83.5878C81.4624 88.6625 87.0837 92.8105 93.4637 95.6905C99.841 98.5718 106.972 100.182 114.584 100.182C123.569 100.182 131.762 98.0905 138.86 94.3532C145.957 90.6158 151.957 85.2332 156.553 78.6505C160.941 85.1652 166.944 90.5478 174.092 94.3025C181.241 98.0558 189.538 100.182 198.522 100.182C212.306 100.182 224.546 94.5612 233.341 85.4905C242.137 76.4212 247.486 63.9052 247.486 50.1225C247.486 48.6825 247.416 47.2772 247.297 45.8892C247.176 44.4998 247.005 43.1265 246.801 41.7558Z" fill="#91A7BC"/>
<path d="M284.746 1.45561H264.468L292.666 45.7623C294.359 48.4223 294.359 51.8223 292.666 54.4823L264.468 98.7889H284.746C288.563 98.7889 292.116 96.8383 294.166 93.6183L321.847 50.1223L294.166 6.62628C292.116 3.40628 288.563 1.45561 284.746 1.45561Z" fill="#91A7BC"/>
<path d="M351.03 45.7623L379.227 1.45561H358.95C355.132 1.45561 351.579 3.40628 349.53 6.62628L321.847 50.1223L349.53 93.6183C351.579 96.8383 355.132 98.7889 358.95 98.7889H379.227L351.03 54.4823C349.336 51.8223 349.336 48.4223 351.03 45.7623Z" fill="#91A7BC"/>
</svg>
