<svg width="600" height="115" viewBox="0 0 600 115" fill="none" xmlns="http://www.w3.org/2000/svg">
<path d="M300.8 0L300.9 66.7V69.7H600V0.100006L300.8 0ZM369.7 30.8C366.5 27.4 363 27.4 359.4 29C355.9 30.4 353.6 33.7 353.5 37.4C352.9 43.7 358.2 46 362.9 44.7C364.6 44 366.3 43.3 368 42.4C367.5 45.5 367.1 48.4 366.6 51.2C366.6 51.4 366.1 51.7 365.8 51.8C356.2 55.6 346.9 50.8 345 42.7C343.1 34.3 348.5 25.2 357.3 21.6C361.8 20.1 366.8 20.4 371.1 22.5L369.7 30.8ZM427.5 52C427.4 51.9 425.8 46.1 425.8 46.1H415.1L412.2 52.1H403.3L410.2 39.5C413.2 33.9 417.1 26.6 420.1 21H429C429 21 430.4 26.4 430.7 27.5C432.3 34.9 433.9 42.3 435.5 49.6C435.7 50.3 435.8 51.1 435.9 52H427.5ZM487.8 32.3C489.7 32.9 491.6 33.7 493.4 34.5C495.7 35.7 497.1 38.2 496.7 40.8C495.9 53.1 482.2 55.5 474.3 50.8C473.7 50.4 473.1 49.9 472.3 49.4L476.7 43.1C478.1 44 479.6 44.8 481.1 45.5C482.8 46.1 484.6 46 486.2 45.2C487.1 44.7 487.7 43.7 487.8 42.6C487.8 41.7 486.9 40.9 486.1 40.5C484.6 39.9 483.1 39.3 481.6 38.9C477.1 37.3 475.5 34.8 476.5 29.9C478.6 22.2 485.5 18.5 493.9 20.9C495.4 21.3 496.8 22 498.5 22.7L494.6 28.5C491.8 27.7 491 27.2 488.6 27.3C487.2 27.5 486.1 28.4 485.6 29.6C484.8 31.3 486.5 31.8 487.8 32.3ZM556.5 28.1H549.9C548.6 36 547.3 43.9 546 52H537.8C539 44.1 540.2 36.3 541.5 28.1H534.9C535.3 25.9 536.2 20.9 536.2 20.9H557.5C557.3 23.1 556.5 28.1 556.5 28.1ZM201.4 69.6H274.3V66.5C274.3 44.2 274.3 22.3 274.4 0H201.4V69.6ZM177.1 0H132V69.7H177.2C177.2 68.9 177.3 68.4 177.3 67.8C177.3 45.7 177.3 23.9 177.3 1.79999C177.2 1.19999 177.2 0.6 177.1 0ZM92.2 1.70001C92.2 23.8 92.2 45.6 92.2 67.7C92.2 68.3 92.3 69 92.4 69.6H113.6V66.5C113.6 44.2 113.6 22.3 113.7 0H92.4C92.3 0.6 92.3 1.20001 92.2 1.70001ZM70.1 0H60.5V69.7H70.2C70.2 68.9 70.3 68.4 70.3 67.8V1.79999C70.3 1.09999 70.2 0.5 70.1 0ZM28.1 69.7H33.6V66.3C33.6 44.1 33.6 22.2 33.7 0H28.1V69.7ZM0.200001 69.9H4.3V0H0.200001V69.9ZM422.8 31.6L418.6 40.3H424.9C424.4 37.3 423.9 34.5 423.4 31.7L422.8 31.6ZM8.6 109.8C7 109.8 5.5 109.5 4 109C2.5 108.4 1.1 107.6 0 106.5L2.2 103.9C3.1 104.7 4.1 105.4 5.2 105.9C6.3 106.4 7.5 106.6 8.7 106.6C9.6 106.7 10.6 106.4 11.4 105.9C12 105.5 12.4 104.8 12.4 104C12.4 103.7 12.3 103.3 12.2 103C12 102.7 11.8 102.4 11.5 102.2C11.1 101.9 10.6 101.7 10.1 101.5C9.3 101.2 8.5 101 7.7 100.8C6.7 100.6 5.7 100.3 4.8 99.9C4 99.6 3.3 99.2 2.6 98.7C2 98.2 1.6 97.7 1.3 97C1 96.2 0.800001 95.4 0.800001 94.6V94.5C0.800001 93.7 1 92.9 1.3 92.1C1.6 91.4 2.1 90.7 2.8 90.2C3.5 89.7 4.2 89.3 5 89C5.9 88.7 6.9 88.5 7.8 88.6C9.2 88.6 10.6 88.8 11.9 89.3C13.1 89.8 14.3 90.4 15.3 91.2L13.3 94C12.4 93.4 11.5 92.8 10.5 92.4C9.6 92 8.7 91.8 7.7 91.8C6.8 91.8 5.9 92 5.2 92.5C4.6 92.9 4.3 93.6 4.3 94.3V94.4C4.3 94.8 4.4 95.1 4.5 95.4C4.7 95.7 4.9 96 5.3 96.2C5.8 96.5 6.3 96.7 6.8 96.9C7.4 97.1 8.3 97.3 9.2 97.6C10.2 97.8 11.2 98.2 12.1 98.5C12.9 98.8 13.6 99.2 14.2 99.7C14.7 100.2 15.2 100.7 15.5 101.4C15.8 102.1 15.9 102.9 15.9 103.6V103.7C15.9 104.6 15.7 105.5 15.4 106.3C15 107.1 14.5 107.7 13.9 108.3C13.2 108.8 12.4 109.3 11.6 109.5C10.6 109.7 9.6 109.8 8.6 109.8ZM27.3 109.8C26.2 109.8 25 109.6 24 109.2C23 108.8 22.1 108.2 21.4 107.5C20.7 106.8 20.1 105.9 19.7 104.9C19.3 103.9 19.1 102.8 19.1 101.8V101.7C19.1 100.6 19.3 99.5 19.7 98.5C20.5 96.5 22.1 95 24.1 94.2C25.2 93.8 26.3 93.5 27.4 93.6C28.5 93.6 29.7 93.8 30.7 94.2C31.7 94.6 32.6 95.2 33.3 95.9C34.8 97.4 35.7 99.5 35.7 101.6V101.7C35.7 102.8 35.5 103.8 35.1 104.8C34.7 105.8 34.1 106.6 33.4 107.4C32.6 108.2 31.7 108.8 30.7 109.2C29.6 109.6 28.4 109.8 27.3 109.8ZM27.3 106.7C28 106.7 28.6 106.6 29.2 106.3C29.8 106 30.3 105.7 30.7 105.2C31.1 104.7 31.4 104.2 31.6 103.6C31.8 103 31.9 102.3 31.9 101.7V101.6C31.9 100.9 31.8 100.3 31.6 99.6C31.4 99 31 98.5 30.6 98C30.2 97.5 29.7 97.2 29.1 96.9C28.5 96.6 27.8 96.5 27.2 96.5C26.5 96.5 25.9 96.6 25.3 96.9C24.7 97.2 24.2 97.5 23.8 98C23.4 98.5 23.1 99 22.9 99.6C22.7 100.2 22.6 100.9 22.6 101.5V101.6C22.6 102.3 22.7 102.9 22.9 103.5C23.1 104.1 23.5 104.6 23.9 105.1C24.8 106.2 26 106.7 27.3 106.7ZM40.1 96.9H38.1V93.9H40.1V92.8C40 91.4 40.5 90 41.4 88.9C42.4 88 43.6 87.6 44.9 87.7C45.4 87.7 46 87.7 46.5 87.8C46.9 87.9 47.4 88 47.8 88.1V91.1C47.4 91 47.1 90.9 46.8 90.8C46.4 90.7 46.1 90.7 45.7 90.7C44.3 90.7 43.6 91.5 43.6 93.1V94H47.7V97H43.6V109.5H40.1V96.9ZM55.7 109.7C55.1 109.7 54.5 109.6 53.9 109.5C53.4 109.4 52.9 109.1 52.5 108.7C52.1 108.3 51.8 107.8 51.6 107.3C51.4 106.6 51.2 105.9 51.3 105.1V96.9H49.3V93.8H51.3V89.5H54.9V93.8H59.1V96.9H54.9V104.6C54.8 105.1 55 105.7 55.4 106.1C55.8 106.4 56.3 106.6 56.8 106.6C57.6 106.6 58.3 106.4 59 106.1V109C58.5 109.3 58.1 109.5 57.5 109.6C56.9 109.7 56.3 109.7 55.7 109.7ZM61.2 93.8H64.9L68 104.5L71.5 93.7H74.5L78 104.5L81.2 93.8H84.8L79.7 109.5H76.5L73 98.8L69.5 109.5H66.3L61.2 93.8ZM97.6 109.5V107.5C97 108.2 96.3 108.7 95.6 109.1C94.7 109.6 93.6 109.8 92.6 109.7C91.9 109.7 91.2 109.6 90.5 109.4C89.9 109.2 89.3 108.9 88.7 108.5C88.2 108.1 87.8 107.6 87.5 107C87.2 106.3 87 105.6 87 104.9V104.8C87 104 87.1 103.2 87.5 102.5C87.8 101.9 88.3 101.3 88.8 100.9C89.4 100.5 90.1 100.1 90.8 100C91.6 99.8 92.5 99.7 93.3 99.7C94.1 99.7 94.9 99.7 95.7 99.9C96.3 100 97 100.2 97.6 100.4V100.2C97.7 99.3 97.3 98.3 96.6 97.7C95.8 97.1 94.8 96.8 93.8 96.8C93 96.8 92.2 96.9 91.4 97.1C90.7 97.3 90 97.5 89.3 97.8L88.3 94.9C89.2 94.5 90 94.2 91 94C92.1 93.7 93.2 93.6 94.3 93.6C96.2 93.4 98.1 94.1 99.5 95.3C100.7 96.6 101.3 98.4 101.2 100.2V109.4L97.6 109.5ZM97.7 102.9C97.2 102.7 96.6 102.6 96.1 102.5C95.5 102.4 94.8 102.3 94.1 102.3C93.2 102.2 92.3 102.5 91.5 103C90.9 103.4 90.5 104 90.6 104.8C90.6 105.5 90.9 106.1 91.5 106.5C92.1 106.9 92.9 107.1 93.6 107.1C94.2 107.1 94.7 107 95.2 106.9C95.7 106.8 96.1 106.5 96.5 106.2C96.9 105.9 97.2 105.6 97.4 105.2C97.6 104.8 97.7 104.3 97.7 103.9V102.9ZM105.3 93.8H108.9V97.3C109.3 96.2 110.1 95.2 111 94.5C112 93.8 113.2 93.4 114.4 93.5V97.3H114.2C113.5 97.3 112.7 97.4 112.1 97.7C111.4 98 110.9 98.4 110.4 98.9C109.9 99.5 109.5 100.1 109.3 100.8C109 101.7 108.9 102.6 108.9 103.5V109.4H105.3V93.8ZM124.7 109.8C123.6 109.8 122.5 109.6 121.5 109.2C119.6 108.4 118 106.9 117.3 105C116.9 104 116.7 102.8 116.7 101.7V101.6C116.7 100.5 116.9 99.5 117.3 98.4C117.7 97.4 118.2 96.6 118.9 95.8C119.6 95.1 120.4 94.5 121.3 94.1C123.3 93.2 125.6 93.2 127.6 94.1C128.5 94.5 129.3 95.1 129.9 95.9C130.5 96.7 131 97.6 131.3 98.6C131.6 99.6 131.8 100.7 131.8 101.8C131.8 102 131.8 102.1 131.8 102.3C131.8 102.5 131.8 102.6 131.8 102.8H120.3C120.4 103.9 121 105 121.8 105.7C122.6 106.4 123.7 106.8 124.8 106.7C125.6 106.7 126.4 106.6 127.1 106.2C127.8 105.8 128.5 105.4 129 104.8L131.1 106.7C130.4 107.6 129.4 108.3 128.4 108.8C127.3 109.5 126 109.8 124.7 109.8ZM128.2 100.5C128.1 99.9 128 99.4 127.8 98.9C127.6 98.4 127.4 98 127 97.6C126.7 97.2 126.3 96.9 125.8 96.7C125.3 96.5 124.8 96.4 124.2 96.4C123.2 96.4 122.2 96.8 121.5 97.5C120.8 98.3 120.3 99.4 120.2 100.5H128.2ZM144.9 88.8H148.5V109.5H144.9V88.8ZM153.6 93.8H157.2V96.2C157.5 95.8 157.7 95.5 158 95.1C158.3 94.8 158.7 94.5 159.1 94.2C159.5 93.9 160 93.7 160.4 93.6C160.9 93.4 161.5 93.4 162 93.4C163.5 93.3 165 93.9 166.1 95C167.1 96.2 167.6 97.8 167.5 99.4V109.3H164.1V100.5C164.2 99.5 163.9 98.5 163.2 97.7C162.6 97 161.7 96.7 160.8 96.7C159.9 96.7 158.9 97 158.3 97.7C157.6 98.5 157.3 99.5 157.3 100.5V109.3H153.7L153.6 93.8ZM177.2 109.7C176.6 109.7 176 109.6 175.4 109.5C174.9 109.4 174.4 109.1 174 108.7C173.6 108.3 173.3 107.8 173.1 107.3C172.9 106.6 172.7 105.9 172.8 105.1V96.9H170.8V93.8H172.8V89.5H176.4V93.8H180.6V96.9H176.4V104.6C176.3 105.1 176.5 105.7 176.9 106.1C177.3 106.4 177.8 106.6 178.3 106.6C179.1 106.6 179.8 106.4 180.5 106.1V109C180 109.3 179.6 109.5 179 109.6C178.4 109.7 177.8 109.7 177.2 109.7ZM191.2 109.8C190.1 109.8 189 109.6 188 109.2C187.1 108.8 186.2 108.3 185.5 107.5C184.8 106.8 184.2 105.9 183.8 104.9C183.4 103.9 183.2 102.7 183.2 101.6V101.5C183.2 100.4 183.4 99.4 183.8 98.3C184.2 97.3 184.7 96.5 185.4 95.7C187.7 93.3 191.2 92.7 194.2 94C195.1 94.4 195.9 95 196.5 95.8C197.1 96.6 197.6 97.5 197.9 98.5C198.2 99.5 198.4 100.6 198.4 101.7C198.4 101.9 198.4 102 198.4 102.2C198.4 102.4 198.4 102.5 198.4 102.7H186.9C187 103.8 187.6 104.9 188.4 105.6C189.2 106.3 190.3 106.6 191.4 106.6C192.2 106.6 193 106.5 193.7 106.1C194.4 105.7 195.1 105.3 195.6 104.7L197.7 106.6C197 107.5 196 108.2 195 108.7C193.8 109.6 192.5 109.8 191.2 109.8ZM194.8 100.5C194.7 99.9 194.6 99.4 194.4 98.9C194.2 98.4 193.9 98 193.6 97.6C193.3 97.2 192.9 96.9 192.4 96.7C191.9 96.5 191.4 96.4 190.8 96.4C189.8 96.4 188.8 96.8 188.1 97.5C187.4 98.3 186.9 99.4 186.8 100.5H194.8ZM202.2 87.9H205.8V109.5H202.2V87.9ZM210.6 87.9H214.2V109.5H210.6V87.9ZM218.9 88H222.8V91.4H218.9V88ZM219.1 93.8H222.7V109.5H219.1V93.8ZM234.3 114.2C231.9 114.2 229.4 113.6 227.3 112.4L228.6 109.7C229.4 110.2 230.3 110.6 231.2 110.9C232.2 111.2 233.2 111.3 234.2 111.3C235.5 111.4 236.8 111 237.9 110.1C238.8 109.1 239.3 107.8 239.2 106.5V105.3C238.6 106.1 237.8 106.8 236.9 107.4C235.9 108 234.8 108.2 233.7 108.2C231.9 108.2 230.1 107.5 228.8 106.3C228.1 105.6 227.6 104.9 227.2 104C226.8 103 226.6 102 226.6 100.9V100.8C226.6 99.7 226.8 98.7 227.2 97.7C227.6 96.8 228.1 96 228.8 95.4C230.1 94.2 231.9 93.5 233.7 93.5C234.8 93.5 236 93.7 237 94.3C237.8 94.8 238.6 95.4 239.2 96.2V93.9H242.8V106.3C243 108.5 242.2 110.6 240.8 112.2C240.1 112.9 239.1 113.5 238.1 113.8C236.8 114.1 235.5 114.3 234.3 114.2ZM234.6 105.2C235.2 105.2 235.8 105.1 236.4 104.9C236.9 104.7 237.4 104.4 237.9 104C238.3 103.6 238.6 103.2 238.9 102.6C239.1 102.1 239.3 101.5 239.3 100.9V100.8C239.3 100.2 239.2 99.6 238.9 99C238.7 98.5 238.3 98 237.9 97.6C237.5 97.2 237 96.9 236.4 96.7C235.8 96.5 235.2 96.4 234.6 96.4C234 96.4 233.4 96.5 232.8 96.7C232.3 96.9 231.8 97.2 231.4 97.6C231 98 230.7 98.4 230.5 98.9C230.3 99.5 230.2 100.1 230.2 100.7C230.2 101.3 230.3 101.9 230.6 102.5C230.8 103 231.1 103.5 231.5 103.9C231.9 104.3 232.4 104.6 232.9 104.8C233.4 105.1 234 105.2 234.6 105.2ZM254.3 109.8C253.2 109.8 252.2 109.6 251.2 109.2C250.3 108.8 249.4 108.3 248.7 107.5C248 106.8 247.4 105.9 247 104.9C246.6 103.9 246.4 102.7 246.4 101.6V101.5C246.4 100.4 246.6 99.4 247 98.3C247.4 97.3 247.9 96.5 248.6 95.7C249.3 95 250.1 94.4 251 94C253 93.1 255.3 93.1 257.3 94C258.2 94.4 259 95 259.6 95.8C260.2 96.6 260.7 97.5 261 98.5C261.3 99.5 261.5 100.6 261.5 101.7C261.5 101.9 261.5 102 261.5 102.2C261.5 102.4 261.5 102.5 261.5 102.7H250C250.1 103.8 250.7 104.9 251.5 105.6C252.3 106.3 253.4 106.7 254.5 106.6C255.3 106.6 256.1 106.5 256.8 106.1C257.5 105.7 258.2 105.3 258.7 104.7L260.8 106.6C260.1 107.5 259.2 108.2 258.1 108.7C256.9 109.5 255.6 109.8 254.3 109.8ZM257.9 100.5C257.8 99.9 257.7 99.4 257.5 98.9C257.3 98.4 257 98 256.7 97.6C256.4 97.2 256 96.9 255.5 96.7C255 96.5 254.5 96.4 253.9 96.4C252.9 96.4 251.9 96.8 251.2 97.5C250.5 98.3 250 99.4 249.9 100.5H257.9ZM265 93.8H268.6V96.2C268.9 95.8 269.1 95.5 269.4 95.1C269.7 94.8 270.1 94.5 270.5 94.2C270.9 93.9 271.4 93.7 271.8 93.6C272.3 93.4 272.9 93.4 273.4 93.4C274.9 93.3 276.4 93.9 277.5 95C278.5 96.2 279 97.8 278.9 99.4V109.3H275.3V100.5C275.4 99.5 275.1 98.5 274.4 97.7C273.8 97 272.9 96.7 272 96.7C271.1 96.7 270.1 97 269.5 97.7C268.8 98.5 268.5 99.5 268.5 100.5V109.3H264.9L265 93.8ZM290.6 109.8C289.5 109.8 288.4 109.6 287.4 109.2C285.5 108.4 283.9 106.8 283.1 104.9C282.7 103.9 282.5 102.8 282.5 101.8V101.7C282.5 100.6 282.7 99.5 283.1 98.5C283.5 97.5 284.1 96.6 284.8 95.9C285.5 95.1 286.4 94.5 287.4 94.1C289.6 93.2 292.1 93.2 294.3 94.2C295.3 94.7 296.1 95.4 296.9 96.2L294.7 98.6C294.2 98.1 293.6 97.6 292.9 97.2C292.2 96.8 291.4 96.6 290.6 96.6C290 96.6 289.4 96.7 288.8 97C288.3 97.3 287.8 97.6 287.4 98.1C287 98.6 286.7 99.1 286.5 99.7C286.3 100.3 286.2 101 286.2 101.6V101.7C286.2 102.4 286.3 103 286.5 103.6C286.7 104.2 287 104.7 287.5 105.2C287.9 105.7 288.4 106 289 106.3C290.3 106.9 291.8 106.8 293.1 106.2C293.8 105.8 294.4 105.3 294.9 104.8L297.1 106.9C296.4 107.7 295.5 108.5 294.5 109C293.2 109.6 291.9 109.8 290.6 109.8ZM307.4 109.8C306.3 109.8 305.3 109.6 304.3 109.2C303.3 108.8 302.5 108.3 301.8 107.5C301.1 106.8 300.5 105.9 300.1 104.9C299.7 103.9 299.5 102.7 299.5 101.6V101.5C299.5 100.4 299.7 99.4 300.1 98.3C300.5 97.3 301 96.5 301.7 95.7C302.4 95 303.2 94.4 304.1 94C306.1 93.1 308.4 93.1 310.4 94C311.3 94.4 312.1 95 312.7 95.8C313.3 96.6 313.8 97.5 314.1 98.5C314.4 99.5 314.6 100.6 314.6 101.7C314.6 101.9 314.6 102 314.6 102.2C314.6 102.4 314.6 102.5 314.6 102.7H303.1C303.3 105 305.3 106.8 307.6 106.7C308.4 106.7 309.2 106.6 309.9 106.2C310.6 105.8 311.3 105.4 311.8 104.8L313.9 106.7C313.2 107.6 312.2 108.3 311.2 108.8C310 109.5 308.7 109.8 307.4 109.8ZM311 100.5C310.9 99.9 310.8 99.4 310.6 98.9C310.4 98.4 310.1 98 309.8 97.6C309.5 97.2 309.1 96.9 308.6 96.7C308.1 96.5 307.6 96.4 307 96.4C306 96.4 305 96.8 304.3 97.5C303.5 98.3 303.1 99.4 303 100.5H311ZM327.7 96.9H325.7V93.9H327.7V92.8C327.6 91.4 328.1 90 329 88.9C330 88 331.2 87.6 332.5 87.7C333 87.7 333.6 87.7 334.1 87.8C334.5 87.9 335 88 335.4 88.1V91.1C335 91 334.7 90.9 334.4 90.8C334 90.7 333.7 90.7 333.3 90.7C331.9 90.7 331.2 91.5 331.2 93.1V94H335.3V97H331.2V109.5H327.6V96.9H327.7ZM345.5 109.8C344.4 109.8 343.2 109.6 342.2 109.2C341.2 108.8 340.3 108.2 339.6 107.5C338.9 106.8 338.3 105.9 337.9 104.9C337.5 103.9 337.3 102.8 337.3 101.8V101.7C337.3 100.6 337.5 99.5 337.9 98.5C338.3 97.5 338.9 96.7 339.6 95.9C340.4 95.1 341.2 94.5 342.2 94.1C343.3 93.7 344.4 93.4 345.5 93.5C346.6 93.5 347.8 93.7 348.8 94.1C349.8 94.5 350.7 95.1 351.4 95.8C352.1 96.5 352.7 97.4 353.1 98.4C353.5 99.4 353.7 100.5 353.7 101.6V101.7C353.7 102.8 353.5 103.8 353.1 104.8C352.7 105.8 352.1 106.6 351.3 107.4C350.5 108.2 349.6 108.8 348.7 109.2C347.8 109.6 346.6 109.8 345.5 109.8ZM345.5 106.7C346.2 106.7 346.8 106.6 347.4 106.3C348 106 348.5 105.7 348.9 105.2C349.3 104.7 349.6 104.2 349.8 103.6C350 103 350.1 102.3 350.1 101.7V101.6C350.1 100.9 350 100.3 349.8 99.6C349.6 99 349.2 98.5 348.8 98C348.4 97.5 347.9 97.2 347.3 96.9C345.5 96.1 343.3 96.5 342 98C341.6 98.5 341.3 99 341.1 99.6C340.9 100.2 340.8 100.9 340.8 101.5V101.6C340.8 102.3 340.9 102.9 341.2 103.5C341.4 104.1 341.8 104.6 342.2 105.1C342.6 105.6 343.1 105.9 343.7 106.2C344.2 106.6 344.9 106.7 345.5 106.7ZM357.5 93.8H361.1V97.3C361.5 96.2 362.3 95.2 363.2 94.5C364.2 93.8 365.4 93.4 366.6 93.5V97.3H366.4C365.7 97.3 364.9 97.4 364.3 97.7C363.6 98 363.1 98.4 362.6 98.9C362.1 99.5 361.7 100.1 361.5 100.8C361.2 101.7 361.1 102.6 361.1 103.5V109.4H357.5V93.8ZM379 88.8H386.7C388.2 88.8 389.7 89.1 391.1 89.6C392.4 90.1 393.6 90.8 394.6 91.8C395.6 92.7 396.3 93.8 396.9 95.1C397.4 96.4 397.7 97.8 397.7 99.2V99.3C397.7 100.7 397.4 102.1 396.9 103.4C396.4 104.6 395.6 105.8 394.6 106.7C393.6 107.7 392.4 108.4 391.1 108.9C389.7 109.4 388.2 109.7 386.7 109.7H379V88.8ZM386.7 106.2C387.7 106.2 388.7 106 389.7 105.7C391.4 105.1 392.8 103.7 393.4 102C393.7 101.1 393.9 100.2 393.9 99.2V99.1C393.9 98.1 393.7 97.2 393.4 96.3C393.1 95.5 392.6 94.7 391.9 94.1C391.3 93.5 390.5 93 389.6 92.6C388.7 92.2 387.6 92.1 386.6 92.1H382.5V106.3L386.7 106.2ZM401.7 88H405.6V91.4H401.7V88ZM401.9 93.8H405.5V109.5H401.9V93.8ZM417.1 114.2C414.6 114.2 412.2 113.6 410.1 112.4L411.4 109.7C412.2 110.2 413.1 110.6 414 110.9C415 111.2 416 111.3 417 111.3C418.3 111.4 419.7 111 420.7 110.1C421.6 109.1 422.1 107.8 422 106.5V105.3C421.4 106.1 420.6 106.8 419.7 107.4C418.7 108 417.6 108.2 416.5 108.2C415.6 108.2 414.7 108 413.8 107.7C413 107.4 412.2 106.9 411.5 106.3C410.8 105.7 410.3 104.9 409.9 104C409.5 103 409.3 102 409.3 100.9V100.8C409.3 99.7 409.5 98.7 409.9 97.7C410.3 96.8 410.8 96 411.5 95.4C412.2 94.8 412.9 94.3 413.8 94C414.6 93.7 415.5 93.5 416.4 93.5C417.5 93.5 418.7 93.7 419.7 94.3C420.5 94.8 421.3 95.4 421.9 96.2V93.9H425.5V106.3C425.7 108.5 424.9 110.6 423.5 112.2C422.8 112.9 421.8 113.5 420.8 113.8C419.6 114.1 418.4 114.3 417.1 114.2ZM417.4 105.2C418 105.2 418.6 105.1 419.2 104.9C419.7 104.7 420.2 104.4 420.7 104C421.1 103.6 421.4 103.2 421.7 102.6C422 102.1 422.1 101.5 422.1 100.9V100.8C422.1 100.2 422 99.6 421.7 99C421.5 98.5 421.1 98 420.7 97.6C420.3 97.2 419.8 96.9 419.2 96.7C418.6 96.5 418 96.4 417.4 96.4C416.8 96.4 416.2 96.5 415.7 96.7C415.2 96.9 414.7 97.2 414.3 97.6C413.9 98 413.6 98.4 413.4 98.9C413.2 99.5 413.1 100.1 413.1 100.7C413.1 101.3 413.2 101.9 413.4 102.5C413.6 103 414 103.5 414.3 103.9C414.7 104.3 415.2 104.6 415.7 104.8C416.2 105.1 416.8 105.2 417.4 105.2ZM430 88H433.9V91.4H430V88ZM430.1 93.8H433.7V109.5H430.1V93.8ZM443.7 109.7C443.1 109.7 442.5 109.6 441.9 109.5C441.4 109.4 440.9 109.1 440.4 108.7C440 108.3 439.7 107.8 439.5 107.3C439.3 106.6 439.2 105.9 439.2 105.1V96.9H437.2V93.8H439.2V89.5H442.8V93.8H447V96.9H442.8V104.6C442.7 105.1 442.9 105.7 443.3 106.1C443.7 106.4 444.2 106.6 444.7 106.6C445.5 106.6 446.2 106.4 446.9 106.1V109C446.4 109.3 446 109.5 445.4 109.6C444.9 109.7 444.3 109.7 443.7 109.7ZM460.1 109.5V107.5C459.5 108.2 458.8 108.7 458.1 109.1C457.2 109.6 456.1 109.8 455.1 109.7C454.4 109.7 453.7 109.6 453 109.4C452.4 109.2 451.8 108.9 451.2 108.5C450.1 107.6 449.5 106.3 449.5 104.9V104.8C449.5 104 449.6 103.2 450 102.5C450.3 101.9 450.8 101.3 451.3 100.9C451.9 100.5 452.6 100.1 453.3 100C454.1 99.8 455 99.7 455.8 99.7C456.6 99.7 457.4 99.7 458.2 99.9C458.8 100 459.5 100.2 460.1 100.4V100.2C460.2 99.3 459.8 98.3 459.1 97.7C458.3 97.1 457.3 96.8 456.3 96.8C455.5 96.8 454.7 96.9 453.9 97.1C453.2 97.3 452.5 97.5 451.8 97.8L450.8 94.9C451.7 94.5 452.5 94.2 453.5 94C454.6 93.7 455.7 93.6 456.8 93.6C458.7 93.4 460.6 94.1 462 95.3C463.2 96.6 463.8 98.4 463.7 100.2V109.4L460.1 109.5ZM460.2 102.9C459.7 102.7 459.1 102.6 458.6 102.5C458 102.4 457.3 102.3 456.6 102.3C455.7 102.2 454.8 102.5 454 103C453.4 103.4 453 104 453.1 104.8C453.1 105.5 453.4 106.1 454 106.5C454.6 106.9 455.4 107.1 456.1 107.1C456.7 107.1 457.2 107 457.7 106.9C458.2 106.8 458.6 106.5 459 106.2C459.4 105.9 459.7 105.6 459.9 105.2C460.1 104.8 460.2 104.3 460.2 103.9V102.9ZM468.1 87.9H471.7V109.5H468.1V87.9ZM485.6 88.8H489.2V106.2H500.1V109.5H485.6V88.8ZM510.7 109.8C509.6 109.8 508.6 109.6 507.6 109.2C506.7 108.8 505.8 108.3 505.1 107.5C504.4 106.8 503.8 105.9 503.4 104.9C503 103.9 502.8 102.7 502.8 101.6V101.5C502.8 100.4 503 99.4 503.4 98.3C503.8 97.3 504.3 96.5 505 95.7C505.7 95 506.5 94.4 507.4 94C509.4 93.1 511.7 93.1 513.7 94C514.6 94.4 515.5 95 516.1 95.8C516.7 96.6 517.2 97.5 517.5 98.5C517.8 99.5 518 100.6 518 101.7C518 101.9 518 102 518 102.2V102.7H506.5C506.6 103.8 507.2 104.9 508 105.6C508.8 106.3 509.9 106.7 511 106.6C511.8 106.6 512.6 106.5 513.3 106.1C514 105.7 514.7 105.3 515.2 104.7L517.3 106.6C516.6 107.5 515.7 108.2 514.6 108.7C513.3 109.5 512 109.8 510.7 109.8ZM514.3 100.5C514.2 99.9 514.1 99.4 513.9 98.9C513.7 98.4 513.4 98 513.1 97.6C512.8 97.2 512.4 96.9 511.9 96.7C511.4 96.5 510.9 96.4 510.3 96.4C509.3 96.4 508.3 96.8 507.6 97.5C506.9 98.3 506.4 99.4 506.3 100.5H514.3ZM531 109.5V107.5C530.4 108.2 529.7 108.7 529 109.1C528.1 109.6 527 109.8 526 109.7C525.3 109.7 524.6 109.6 523.9 109.4C523.3 109.2 522.7 108.9 522.1 108.5C521.6 108.1 521.2 107.6 520.9 107C520.6 106.3 520.4 105.6 520.4 104.9V104.8C520.4 104 520.5 103.2 520.9 102.5C521.2 101.9 521.6 101.3 522.2 100.9C522.8 100.5 523.5 100.1 524.2 100C525 99.8 525.9 99.7 526.7 99.7C527.5 99.7 528.3 99.7 529.1 99.9C529.7 100 530.4 100.2 531 100.4V100.2C531.1 99.3 530.7 98.3 530 97.7C529.2 97.1 528.2 96.8 527.2 96.8C526.4 96.8 525.6 96.9 524.8 97.1C524.1 97.3 523.4 97.5 522.7 97.8L521.7 94.9C522.6 94.5 523.4 94.2 524.4 94C525.5 93.7 526.6 93.6 527.7 93.6C529.6 93.4 531.5 94.1 532.9 95.3C534.1 96.6 534.7 98.4 534.6 100.2V109.4L531 109.5ZM531.1 102.9C530.6 102.7 530 102.6 529.5 102.5C528.9 102.4 528.2 102.3 527.5 102.3C526.6 102.2 525.7 102.5 524.9 103C524.3 103.4 523.9 104 524 104.8C524 105.5 524.3 106.1 524.9 106.5C525.5 106.9 526.3 107.1 527 107.1C527.6 107.1 528.1 107 528.6 106.9C529.1 106.8 529.5 106.5 529.9 106.2C530.3 105.9 530.6 105.6 530.8 105.2C531 104.8 531.1 104.3 531.1 103.9V102.9ZM545.2 109.8C544.3 109.8 543.4 109.6 542.5 109.3C541.6 108.9 540.8 108.4 540.2 107.7C539.5 107 538.9 106.1 538.6 105.2C538.2 104.1 538 102.9 538 101.7V101.6C538 100.4 538.2 99.2 538.6 98.1C539 97.2 539.5 96.3 540.2 95.6C540.9 94.9 541.6 94.4 542.5 94C543.4 93.7 544.3 93.5 545.2 93.5C546.3 93.5 547.4 93.7 548.4 94.3C549.2 94.8 549.9 95.5 550.5 96.2V87.8H554.1V109.5H550.5V106.9C549.9 107.7 549.2 108.4 548.4 109C547.4 109.6 546.3 109.8 545.2 109.8ZM546 106.7C546.6 106.7 547.2 106.6 547.7 106.3C548.2 106.1 548.7 105.7 549.1 105.3C549.5 104.8 549.9 104.3 550.1 103.7C550.3 103 550.5 102.4 550.5 101.7V101.6C550.5 100.9 550.4 100.2 550.1 99.5C549.9 98.9 549.5 98.4 549.1 97.9C548.7 97.5 548.2 97.1 547.7 96.9C547.2 96.7 546.6 96.5 546 96.6C545.4 96.6 544.8 96.7 544.3 96.9C543.8 97.1 543.3 97.5 542.9 97.9C542.5 98.4 542.1 98.9 541.9 99.5C541.7 100.2 541.5 100.9 541.6 101.6V101.7C541.6 102.4 541.7 103.1 541.9 103.8C542.1 104.4 542.5 104.9 542.9 105.4C543.7 106.2 544.8 106.7 546 106.7ZM565.7 109.8C564.6 109.8 563.5 109.6 562.5 109.2C560.6 108.4 559 106.9 558.3 105C557.9 104 557.7 102.8 557.7 101.7V101.6C557.7 100.5 557.9 99.5 558.3 98.4C558.7 97.4 559.2 96.6 559.9 95.8C562.2 93.4 565.7 92.8 568.7 94.1C569.6 94.5 570.4 95.1 571 95.9C571.6 96.7 572.1 97.6 572.4 98.6C572.7 99.6 572.9 100.7 572.9 101.8C572.9 102 572.9 102.1 572.9 102.3C572.9 102.5 572.9 102.6 572.9 102.8H561.4C561.5 103.9 562.1 105 562.9 105.7C563.7 106.4 564.8 106.8 565.9 106.7C566.7 106.7 567.5 106.6 568.2 106.2C568.9 105.8 569.6 105.4 570.1 104.8L572.2 106.7C571.5 107.6 570.5 108.3 569.5 108.8C568.3 109.6 567 109.8 565.7 109.8ZM569.2 100.5C569.1 99.9 569 99.4 568.8 98.9C568.6 98.4 568.4 98 568 97.6C567.7 97.2 567.3 96.9 566.8 96.7C566.3 96.5 565.8 96.4 565.2 96.4C564.2 96.4 563.2 96.8 562.5 97.5C561.8 98.3 561.3 99.4 561.2 100.5H569.2ZM576.4 93.8H580V97.3C580.4 96.2 581.2 95.2 582.1 94.5C583.1 93.8 584.3 93.4 585.5 93.5V97.3H585.3C584.6 97.3 583.8 97.4 583.1 97.7C582.5 98 581.9 98.4 581.4 98.9C580.9 99.5 580.5 100.1 580.3 100.8C580 101.7 579.9 102.6 579.9 103.5V109.4H576.3L576.4 93.8ZM593.9 109.8C592.7 109.8 591.6 109.6 590.5 109.2C589.3 108.8 588.2 108.2 587.3 107.4L588.9 105C589.7 105.6 590.6 106.1 591.5 106.4C592.3 106.7 593.2 106.9 594 106.9C594.6 106.9 595.3 106.8 595.8 106.4C596.2 106.1 596.4 105.7 596.4 105.2V105.1C596.4 104.8 596.3 104.5 596.1 104.3C595.9 104.1 595.6 103.9 595.3 103.7C594.9 103.5 594.6 103.4 594.2 103.3L592.9 102.9C592.3 102.7 591.7 102.6 591.2 102.3C590.6 102.1 590.1 101.8 589.6 101.5C589.1 101.1 588.8 100.7 588.5 100.2C588.2 99.6 588 99 588.1 98.3V98.2C588.1 96.9 588.7 95.6 589.7 94.7C590.2 94.3 590.8 94 591.5 93.8C592.2 93.6 592.9 93.5 593.7 93.5C594.7 93.5 595.7 93.7 596.7 94C597.7 94.3 598.6 94.7 599.5 95.2L598.1 97.8C597.4 97.4 596.6 97 595.8 96.7C595.1 96.5 594.4 96.3 593.7 96.3C593.1 96.3 592.6 96.4 592.1 96.7C591.7 97 591.5 97.4 591.5 97.8C591.5 98.1 591.6 98.3 591.8 98.5C592 98.7 592.3 98.9 592.6 99.1C593 99.3 593.3 99.4 593.7 99.6L595 100C595.6 100.2 596.1 100.4 596.7 100.6C597.2 100.8 597.8 101.1 598.2 101.5C598.7 101.8 599 102.2 599.3 102.7C599.6 103.2 599.8 103.9 599.7 104.5V104.6C599.7 105.3 599.6 106.1 599.3 106.8C599 107.4 598.6 107.9 598.1 108.3C597.5 108.7 596.9 109 596.3 109.2C595.5 109.6 594.7 109.8 593.9 109.8Z" fill="#91A7BC"/>
</svg>
