<svg width="125" height="25" viewBox="0 0 125 25" fill="none" xmlns="http://www.w3.org/2000/svg">
<path d="M9.9 22.5C3.8 22.5 0 17.3 0 11.7C0 5.8 3.4 1 9.9 1C14.7 1 18.4 3.8 18.7 7.9H14.5C14.3 6 12.3 4.5 10 4.5C6.6 4.5 4.4 7.1 4.4 11.9C4.4 15.2 6.1 18.9 10 18.9C13.6 18.9 14.9 17.1 14.9 14.3H10.4V11H18.8V14.4C18.7 19.1 16.6 22.5 9.9 22.5Z" fill="#91A7BC"/>
<path d="M21.1 21.8V1.5H25V21.8H21.1Z" fill="#91A7BC"/>
<path d="M26.9 13.2001C27.2 9.90007 30.2 6.90007 33.5 6.60007C38.7 6.10007 42.1 9.30007 42.1 14.4001C42.1 19.1001 39.2 22.2001 34.5 22.2001C29.3 22.2001 26.4 18.4001 26.9 13.2001ZM38.1 14.4001C38.1 11.4001 36.9 9.90007 34.5 9.90007C32.1 9.90007 30.9 11.4001 30.9 14.4001C30.9 17.4001 32.1 18.9001 34.5 18.9001C36.9 18.9001 38.1 17.4001 38.1 14.4001Z" fill="#91A7BC"/>
<path d="M43.9 21.8V1.5H47.8V8.9C48.9 7.3 50.4 6.6 52.2 6.6C56 6.6 58.3 9.8 58.3 14.3C58.3 19.3 55.6 22.3 51.9 22.3C50.1 22.3 48.7 21.6 47.8 20.1V21.9H43.9V21.8ZM54.3 14.5C54.3 11.5 53.2 9.9 50.9 9.9C48.7 9.9 47.6 11.5 47.6 14.7C47.6 17.2 49.1 19 50.9 19C52.9 19 54.3 17.1 54.3 14.5Z" fill="#91A7BC"/>
<path d="M69.9 21.8001C69.8 21.4001 69.6999 20.9001 69.6999 20.5001C68.7999 21.5001 67.1999 22.2001 65.1999 22.2001C61.7999 22.2001 60.2 20.5001 60.2 18.1001C60.2 13.8001 63.1 13.3001 67 12.8001C69 12.5001 69.5 12.1001 69.5 11.1001C69.5 10.1001 68.5 9.6001 67 9.6001C65.2 9.6001 64.5 10.5001 64.3 11.8001H60.5999C60.6999 8.7001 62.3999 6.6001 67.0999 6.6001C71.7999 6.6001 73.4 8.7001 73.4 12.5001V21.9001H69.9V21.8001ZM69.6999 14.5001C69.2999 14.9001 68.5999 15.1001 67.1999 15.4001C64.9999 15.8001 64.1999 16.5001 64.1999 17.7001C64.1999 18.8001 64.8999 19.4001 66.0999 19.4001C68.0999 19.4001 69.5999 17.9001 69.6999 16.2001V14.5001Z" fill="#91A7BC"/>
<path d="M85.8 21.8V12.8C85.8 10.5 85.1 9.9 83.3 9.9C81.2 9.9 80.3 11 80.3 13.3V21.8H76.4V6.9H80V9.1C80.9 7.4 82.4 6.5 84.8 6.5C87.6 6.5 89.7 8.2 89.7 11.5V21.8H85.8Z" fill="#91A7BC"/>
<path d="M101.1 16.2C101 17.8 100.3 18.8 98.8 18.8C97.2 18.8 96.5 17.7 96.5 15.8V9.70002H102.6V6.60002H96.5V2.90002H92.6V16.2C92.6 19.4 94.3 22.2 98.7 22.2C102.9 22.2 104.7 19.4 104.7 16.2H101.1Z" fill="#91A7BC"/>
<path d="M109.5 0.40006C109.1 0.10006 108.5 0.30006 108.2 0.70006C108.1 0.90006 108 1.20006 108.1 1.40006L109.9 4.00006C113.3 9.10006 113.3 15.8001 109.9 20.9001L108.1 23.5001C108 24.0001 108.2 24.5001 108.7 24.6001C108.9 24.7001 109.2 24.6001 109.4 24.5001L124.1 13.3001C124.6 12.9001 124.7 12.2001 124.3 11.7001C124.2 11.6001 124.2 11.5001 124.1 11.5001L109.5 0.40006Z" fill="#91A7BC"/>
</svg>
