<svg width="142" height="36" viewBox="0 0 142 36" fill="none" xmlns="http://www.w3.org/2000/svg">
<g clip-path="url(#clip0_43_1265)">
<path d="M66.39 0.195101H64.635V7.4351H66.39V0.195101ZM72.547 7.4351L69.635 2.6981H69.605L69.647 7.4351H67.947V0.195101H69.94L72.844 4.9181H72.874L72.837 0.195101H74.533V7.4351H72.547ZM77.924 1.6901V3.1811H80.727V4.6211H77.924V7.4351H76.198V0.195101H80.962V1.6901H77.924ZM87.68 3.7821C87.68 3.4691 87.632 3.1791 87.525 2.9001C87.4362 2.64318 87.2947 2.40765 87.1096 2.20858C86.9245 2.00952 86.6998 1.85131 86.45 1.7441C86.1825 1.6286 85.8933 1.57166 85.602 1.5771C85.3133 1.57178 85.0268 1.62874 84.762 1.7441C84.5147 1.8492 84.293 2.00645 84.112 2.2051C83.9212 2.40292 83.7762 2.64016 83.687 2.9001C83.5879 3.18354 83.5378 3.48182 83.539 3.7821C83.539 4.1121 83.594 4.4101 83.695 4.6891C83.799 4.9601 83.936 5.2021 84.119 5.4031C84.301 5.6001 84.516 5.7531 84.766 5.8681C85.018 5.9791 85.301 6.0351 85.606 6.0351C85.911 6.0351 86.19 5.9791 86.45 5.8681C86.7016 5.75697 86.9273 5.59479 87.1128 5.39183C87.2984 5.18888 87.4398 4.94957 87.528 4.6891C87.6369 4.39934 87.6902 4.09162 87.685 3.7821M89.555 3.7821C89.555 4.3581 89.458 4.8791 89.257 5.3551C89.069 5.81181 88.7896 6.22528 88.436 6.5701C88.082 6.9091 87.666 7.1651 87.183 7.3511C86.6784 7.53779 86.144 7.6313 85.606 7.6271C85.041 7.6271 84.516 7.5341 84.04 7.3511C83.5754 7.17551 83.1497 6.91051 82.787 6.5711C82.4357 6.224 82.1566 5.8107 81.966 5.3551C81.765 4.85536 81.665 4.32071 81.672 3.7821C81.672 3.2051 81.769 2.6811 81.966 2.2161C82.166 1.7481 82.438 1.3501 82.787 1.0261C83.144 0.692101 83.557 0.442101 84.04 0.264101C84.542 0.0832091 85.0724 -0.00620555 85.606 0.000100555C86.168 0.000100555 86.699 0.0861005 87.183 0.264101C87.663 0.442101 88.083 0.692101 88.436 1.0261C88.786 1.3501 89.06 1.7481 89.257 2.2161C89.458 2.6811 89.555 3.2061 89.555 3.7821ZM95.924 7.3031C95.456 7.5191 94.913 7.6271 94.304 7.6271C93.7745 7.63167 93.2487 7.53844 92.753 7.3521C92.2945 7.1769 91.8758 6.91131 91.522 6.5711C91.1696 6.22554 90.8912 5.81179 90.704 5.3551C90.4999 4.86419 90.3985 4.33669 90.406 3.8051C90.406 3.2391 90.506 2.7001 90.707 2.2311C90.8991 1.77784 91.1831 1.36936 91.5411 1.03147C91.8992 0.693589 92.3234 0.433655 92.787 0.268101C93.2809 0.0880209 93.8033 -0.00141328 94.329 0.00410056C94.842 0.00410056 95.344 0.0941006 95.839 0.275101C96.334 0.454101 96.735 0.718101 97.04 1.0641L95.854 2.2541C95.6924 2.02797 95.4687 1.85359 95.21 1.7521C94.9515 1.64133 94.6732 1.58417 94.392 1.5841C94.088 1.5841 93.805 1.6441 93.556 1.7551C93.3065 1.86038 93.0822 2.01752 92.898 2.2161C92.708 2.4171 92.567 2.6511 92.466 2.9191C92.3595 3.20185 92.3066 3.50197 92.31 3.8041C92.31 4.1241 92.362 4.4291 92.466 4.7041C92.566 4.9751 92.708 5.2101 92.89 5.4071C93.0803 5.60513 93.3092 5.76205 93.5626 5.86817C93.8159 5.97429 94.0883 6.02736 94.363 6.0241C94.709 6.0241 95.013 5.9541 95.27 5.8161C95.5189 5.69282 95.7335 5.5101 95.895 5.2841L97.115 6.4291C96.795 6.7941 96.405 7.0881 95.928 7.3031M103.447 3.7821C103.451 3.48092 103.398 3.18171 103.291 2.9001C103.202 2.64312 103.061 2.40754 102.876 2.20846C102.691 2.00938 102.466 1.85121 102.216 1.7441C101.95 1.62892 101.662 1.57198 101.372 1.5771C101.093 1.56944 100.816 1.62152 100.559 1.72984C100.302 1.83816 100.071 2.0002 99.882 2.2051C99.699 2.3951 99.558 2.6291 99.457 2.9001C99.3561 3.18309 99.306 3.48168 99.309 3.7821C99.309 4.1121 99.361 4.4101 99.457 4.6891C99.562 4.9601 99.699 5.2021 99.881 5.4031C100.063 5.6001 100.279 5.7531 100.525 5.8681C100.785 5.9791 101.064 6.0351 101.369 6.0351C101.674 6.0351 101.956 5.9791 102.205 5.8681C102.452 5.75875 102.675 5.60059 102.86 5.4031C103.046 5.2031 103.187 4.9641 103.287 4.6891C103.395 4.39897 103.448 4.09151 103.444 3.7821M105.314 3.7821C105.314 4.3581 105.214 4.8791 105.016 5.3551C104.829 5.8126 104.55 6.22635 104.195 6.5701C103.845 6.9091 103.429 7.1651 102.942 7.3511C102.44 7.53775 101.908 7.63128 101.372 7.6271C100.837 7.63158 100.305 7.53804 99.803 7.3511C99.323 7.1651 98.903 6.9051 98.553 6.5711C98.2032 6.22294 97.9247 5.8099 97.733 5.3551C97.5323 4.85513 97.4311 4.32082 97.435 3.7821C97.435 3.2051 97.539 2.6811 97.732 2.2161C97.932 1.7481 98.208 1.3501 98.554 1.0261C98.9151 0.690468 99.3402 0.431278 99.804 0.264101C100.306 0.0828805 100.837 -0.00654239 101.371 0.000100555C101.937 0.000100555 102.461 0.0861005 102.941 0.264101C103.428 0.442101 103.844 0.692101 104.194 1.0261C104.547 1.3501 104.822 1.7481 105.015 2.2161C105.213 2.6811 105.314 3.2061 105.314 3.7821ZM112.84 7.4351L112.881 2.3111H112.848L110.97 7.4351H109.743L107.91 2.3111H107.88L107.921 7.4351H106.273V0.195101H108.761L110.412 4.8351H110.449L112.026 0.195101H114.554V7.4351H112.84ZM122.698 7.4351L122.739 2.3111H122.709L120.827 7.4351H119.6L117.771 2.3111H117.737L117.778 7.4351H116.135V0.195101H118.622L120.266 4.8351H120.307L121.887 0.195101H124.416V7.4351H122.698ZM71.198 16.7991L71.235 11.6791H71.205L69.327 16.7991H68.097L66.271 11.6791H66.237L66.275 16.7991H64.635V9.5631H67.122L68.766 14.1991H68.806L70.387 9.5631H72.916V16.7991H71.198ZM74.213 16.7991V9.5631H79.08V11.0351H75.901V12.4031H78.909V13.8051H75.901V15.3071H79.263V16.8001L74.213 16.7991ZM85.28 13.1661C85.28 12.7531 85.208 12.4181 85.075 12.1471C84.9533 11.891 84.769 11.6699 84.539 11.5041C84.3157 11.3388 84.0602 11.2223 83.789 11.1621C83.5012 11.093 83.206 11.0594 82.91 11.0621H82.044V15.2921H82.87C83.186 15.2921 83.483 15.2521 83.777 15.1821C84.067 15.1111 84.323 14.9921 84.539 14.8321C84.762 14.6641 84.941 14.4491 85.075 14.1741C85.208 13.9061 85.28 13.5681 85.28 13.1661ZM87.094 13.1661C87.094 13.7941 86.974 14.3481 86.737 14.8061C86.519 15.2487 86.2022 15.6354 85.811 15.9361C85.421 16.2301 84.985 16.4531 84.502 16.5911C84.019 16.7311 83.532 16.8021 83.03 16.8021H80.326V9.5661H82.948C83.458 9.5661 83.963 9.6221 84.458 9.7451C84.959 9.8641 85.402 10.0611 85.788 10.3361C86.175 10.6111 86.491 10.9831 86.729 11.4481C86.967 11.9091 87.086 12.4821 87.086 13.1661M89.79 9.5631H88.034V16.7991H89.789L89.79 9.5631ZM94.437 11.5001L93.515 13.9801H95.337L94.437 11.5001ZM96.374 16.7991L95.817 15.3741H93.017L92.485 16.7991H90.58L93.618 9.5631H95.314L98.318 16.7991H96.374ZM69.569 22.5301C69.569 22.1171 69.502 21.7781 69.368 21.5101C69.2487 21.2537 69.0642 21.033 68.833 20.8701C68.6085 20.703 68.3512 20.5855 68.078 20.5251C67.793 20.4567 67.5011 20.4218 67.208 20.4211H66.338V24.6531H67.163C67.479 24.6531 67.78 24.6191 68.067 24.5491C68.3426 24.483 68.6018 24.3615 68.829 24.1921C69.0576 24.0202 69.2412 23.7955 69.364 23.5371C69.498 23.2691 69.565 22.9271 69.565 22.5331M71.383 22.5331C71.383 23.1651 71.268 23.7121 71.033 24.1731C70.803 24.6341 70.487 25.0061 70.1 25.3071C69.7114 25.6061 69.2701 25.8293 68.799 25.9651C68.3203 26.1016 67.8248 26.1706 67.327 26.1701H64.627V18.9341H67.241C67.751 18.9341 68.26 18.9891 68.758 19.1121C69.253 19.2321 69.695 19.4281 70.082 19.7071C70.469 19.9821 70.788 20.3541 71.022 20.8191C71.257 21.2791 71.38 21.8561 71.38 22.5371M72.405 26.1701V18.9341H77.273V20.4061H74.093V21.7751H77.094V23.1761H74.094V24.6791H77.455V26.1691L72.405 26.1701ZM82.594 26.1701H80.842L78.106 18.9341H80.066L81.738 24.0651H81.787L83.453 18.9341H85.383L82.594 26.1701ZM86.26 26.1701V18.9341H91.124V20.4061H87.95V21.7751H90.954V23.1761H87.95V24.6791H91.311V26.1691H86.261L86.26 26.1701ZM92.444 26.1701V18.9341H94.211V24.6491H97.011V26.1691L92.444 26.1701ZM103.589 22.5281C103.589 22.2121 103.541 21.9181 103.436 21.6501C103.345 21.3902 103.201 21.1522 103.013 20.9511C102.826 20.7549 102.602 20.5981 102.354 20.4901C102.089 20.3736 101.803 20.3153 101.514 20.3191C101.209 20.3191 100.93 20.3751 100.677 20.4901C100.429 20.5981 100.205 20.7549 100.019 20.9511C99.8293 21.1515 99.6848 21.3902 99.595 21.6511C99.4908 21.9316 99.4393 22.2289 99.443 22.5281C99.443 22.8401 99.499 23.1601 99.599 23.4351C99.699 23.7101 99.841 23.9481 100.027 24.1421C100.201 24.3421 100.421 24.4951 100.674 24.6101C100.923 24.7181 101.205 24.7811 101.51 24.7811C101.815 24.7811 102.094 24.7211 102.351 24.6111C102.599 24.5033 102.821 24.3429 103.001 24.1411C103.187 23.9451 103.329 23.7111 103.433 23.4351C103.537 23.1641 103.585 22.8591 103.585 22.5281M105.456 22.5281C105.456 23.0971 105.359 23.6251 105.158 24.0971C104.972 24.5556 104.692 24.9699 104.336 25.3131C103.977 25.6563 103.552 25.9233 103.087 26.0981C102.582 26.2841 102.048 26.3772 101.51 26.3731C100.973 26.3754 100.441 26.2819 99.937 26.0971C99.4743 25.9223 99.0518 25.6556 98.695 25.3131C98.3393 24.9697 98.0596 24.5554 97.874 24.0971C97.673 23.6251 97.576 23.0971 97.576 22.5271C97.576 21.9591 97.673 21.4271 97.874 20.9591C98.074 20.4901 98.342 20.0961 98.695 19.7691C99.0527 19.4337 99.4754 19.1754 99.937 19.0101C100.442 18.8295 100.974 18.7401 101.51 18.7461C102.075 18.7461 102.6 18.8281 103.087 19.0101C103.55 19.1713 103.973 19.4281 104.33 19.7639C104.687 20.0998 104.969 20.507 105.158 20.9591C105.359 21.4231 105.456 21.9481 105.456 22.5281ZM110.204 21.1801C110.21 21.0334 110.175 20.888 110.103 20.7601C110.037 20.6492 109.941 20.5599 109.825 20.5031C109.702 20.4423 109.57 20.4008 109.434 20.3801C109.283 20.3623 109.132 20.3523 108.98 20.3501H108.214V22.0611H108.947C109.114 22.0611 109.27 22.0461 109.419 22.0211C109.56 21.9957 109.696 21.9463 109.821 21.8751C109.939 21.8121 110.038 21.7185 110.107 21.6041C110.178 21.4759 110.213 21.3307 110.208 21.1841M111.959 21.1721C111.959 21.5961 111.877 21.9501 111.725 22.2431C111.576 22.5266 111.357 22.7674 111.089 22.9431C110.808 23.1262 110.497 23.2583 110.17 23.3331C109.814 23.4122 109.45 23.4521 109.085 23.4521H108.214V26.1771H106.467V18.9411H109.125C109.52 18.9411 109.888 18.9791 110.234 19.0571C110.576 19.1391 110.877 19.2651 111.137 19.4361C111.39 19.6111 111.591 19.8411 111.736 20.1201C111.888 20.4031 111.959 20.7521 111.959 21.1691M119.284 26.1701L119.325 21.0501H119.291L117.413 26.1701H116.19L114.357 21.0501H114.323L114.364 26.1701H112.721V18.9341H115.208L116.856 23.5701H116.893L118.473 18.9341H121.005V26.1701H119.284ZM122.538 26.1701V18.9341H127.406V20.4061H124.223V21.7751H127.231V23.1761H124.223V24.6791H127.588V26.1691L122.538 26.1701ZM133.329 26.1701L130.418 21.4401H130.388L130.429 26.1701H128.729V18.9341H130.723L133.623 23.6561H133.656L133.616 18.9341H135.315V26.1701H133.329ZM139.955 20.4251V26.1701H138.211V20.4251H136.162V18.9341H142V20.4241L139.955 20.4251ZM68.49 30.2381L67.576 32.7221H69.398L68.49 30.2381ZM70.436 35.5451L69.874 34.1251H67.07L66.539 35.5451H64.635L67.673 28.3091H69.368L72.373 35.5451H70.428H70.436ZM78.637 33.9931C78.4975 34.3439 78.2816 34.6592 78.005 34.9161C77.7208 35.179 77.387 35.3823 77.023 35.5141C76.6114 35.6611 76.177 35.7342 75.74 35.7301C75.272 35.7301 74.833 35.6561 74.45 35.5141C74.0884 35.3848 73.758 35.181 73.48 34.9161C73.21 34.6577 73.0003 34.3429 72.866 33.9941C72.7193 33.6147 72.646 33.2109 72.65 32.8041V28.2971H74.39V32.6621C74.39 32.8591 74.417 33.0491 74.465 33.2241C74.517 33.3991 74.595 33.5621 74.703 33.7041C74.807 33.8411 74.948 33.9491 75.123 34.0341C75.294 34.1121 75.506 34.1571 75.752 34.1571C75.997 34.1571 76.205 34.1171 76.376 34.0341C76.551 33.9491 76.692 33.8411 76.8 33.7041C76.908 33.5621 76.986 33.3991 77.038 33.2241C77.087 33.0491 77.108 32.8561 77.108 32.6621V28.2971H78.853V32.8041C78.853 33.2421 78.778 33.6361 78.637 33.9931ZM83.48 29.8001V35.5451H81.732V29.8001H79.69V28.3091H85.528V29.7991L83.48 29.8001ZM90.882 35.5451V32.5181H88.064V35.5451H86.313V28.3091H88.063V31.0491H90.883V28.3091H92.633V35.5451H90.882ZM99.483 31.8981C99.4878 31.5975 99.4348 31.2988 99.327 31.0181C99.2331 30.758 99.089 30.5188 98.903 30.3141C98.7208 30.1178 98.4993 29.9621 98.253 29.8571C97.9859 29.7436 97.6982 29.6868 97.408 29.6901C97.103 29.6901 96.818 29.7451 96.564 29.8571C96.3193 29.9651 96.0984 30.1204 95.914 30.3141C95.7242 30.5156 95.5796 30.7552 95.49 31.0171C95.3894 31.2999 95.3386 31.598 95.34 31.8981C95.34 32.2151 95.393 32.5231 95.497 32.7981C95.597 33.0781 95.743 33.3121 95.921 33.5051C96.099 33.7021 96.315 33.8621 96.564 33.9731C96.817 34.0851 97.096 34.1411 97.408 34.1411C97.721 34.1411 97.992 34.0811 98.248 33.9731C98.502 33.8621 98.718 33.7061 98.899 33.5051C99.0871 33.3001 99.2326 33.0598 99.327 32.7981C99.431 32.5231 99.483 32.2221 99.483 31.8981ZM101.354 31.8981C101.359 32.4347 101.258 32.967 101.056 33.4641C100.866 33.9223 100.586 34.3373 100.231 34.6841C99.8705 35.0263 99.4442 35.2916 98.978 35.4641C98.4757 35.6545 97.9422 35.7495 97.405 35.7441C96.835 35.7441 96.315 35.6501 95.835 35.4641C95.3717 35.2907 94.9482 35.0254 94.59 34.6841C94.2354 34.338 93.9556 33.9228 93.768 33.4641C93.5613 32.9683 93.4589 32.4352 93.467 31.8981C93.467 31.3301 93.564 30.7901 93.768 30.3261C93.9541 29.8742 94.2343 29.4672 94.59 29.1321C94.94 28.8051 95.356 28.5521 95.835 28.3771C96.315 28.1991 96.835 28.1091 97.405 28.1091C97.974 28.1091 98.498 28.1991 98.978 28.3771C99.461 28.5521 99.881 28.8051 100.231 29.1321C100.584 29.4591 100.855 29.8571 101.056 30.3261C101.253 30.7901 101.354 31.3151 101.354 31.8981ZM106.102 30.5291C106.109 30.3824 106.071 30.2369 105.994 30.1121C105.923 30.007 105.826 29.9225 105.712 29.8671C105.592 29.8078 105.464 29.7673 105.332 29.7471C105.199 29.7297 105.065 29.7214 104.931 29.7221H103.997V31.4101H104.827C104.972 31.4101 105.117 31.3991 105.269 31.3731C105.422 31.3471 105.555 31.3061 105.674 31.2461C105.798 31.1868 105.905 31.0957 105.983 30.9821C106.066 30.8472 106.108 30.6906 106.102 30.5321M106.176 35.5491L104.604 32.6741H104.012V35.5491H102.302V28.3131H105.065C105.41 28.3131 105.752 28.3501 106.083 28.4171C106.414 28.4871 106.716 28.6101 106.972 28.7811C107.234 28.9516 107.45 29.1841 107.601 29.4581C107.76 29.7371 107.839 30.0831 107.839 30.4981C107.839 30.9901 107.701 31.4021 107.441 31.7381C107.173 32.0721 106.801 32.3101 106.336 32.4511L108.229 35.5451H106.184L106.176 35.5491ZM110.836 28.3091H109.077V35.5451H110.836V28.3091ZM115.428 29.8001V35.5451H113.677V29.8001H111.628V28.3091H117.47V29.7991L115.428 29.8001ZM122.497 32.4771V35.5451H120.746V32.4771L118.031 28.3091H120.143L121.69 30.9861L123.23 28.3091H125.275L122.497 32.4771ZM16.67 31.4301V4.4121L24.486 0.195101V35.5471L16.67 31.4301ZM0 35.5471V0.195101L7.812 4.4121V31.4301L0 35.5471ZM42.386 35.5401H33.332V12.8331L42.386 35.5421V35.5401ZM46.69 35.5401H55.74V12.8331L46.69 35.5421V35.5401ZM36.645 0.200101H52.43L44.54 17.8501L36.645 0.200101Z" fill="#91A7BC"/>
</g>
<defs>
<clipPath id="clip0_43_1265">
<rect width="142" height="36" fill="white"/>
</clipPath>
</defs>
</svg>
