<svg width="41" height="25" viewBox="0 0 41 25" fill="none" xmlns="http://www.w3.org/2000/svg">
<g clip-path="url(#clip0_35_611)">
<path d="M25.6927 2.67261H14.7552V22.3276H25.6927V2.67261Z" fill="#A3B3C2"/>
<path d="M15.4498 12.5C15.4498 8.51257 17.3167 4.96128 20.224 2.6725C18.0978 0.99868 15.415 0 12.4991 0C5.59604 0 0 5.59642 0 12.5C0 19.4036 5.59604 25 12.4991 25C15.415 25 18.0978 24.0013 20.224 22.3275C17.3167 20.0386 15.4498 16.4874 15.4498 12.5Z" fill="#91A7BC"/>
<path d="M40.448 12.5C40.448 19.4035 34.852 25 27.9489 25C25.033 25 22.3502 24.0013 20.224 22.3275C23.1314 20.0386 24.9982 16.4874 24.9982 12.5C24.9982 8.51257 23.1314 4.96128 20.224 2.6725C22.3502 0.99868 25.033 0 27.9489 0C34.852 0 40.448 5.59642 40.448 12.5Z" fill="#B2C3D4"/>
</g>
<defs>
<clipPath id="clip0_35_611">
<rect width="40.4481" height="25" fill="white"/>
</clipPath>
</defs>
</svg>
