<svg width="212" height="46" viewBox="0 0 212 46" fill="none" xmlns="http://www.w3.org/2000/svg">
<g clip-path="url(#clip0_52_563)">
<path d="M88.25 9.98145V36.9814H83.5625V15.7939H83.5L75.125 36.9814H72L63.4375 15.7939H63.375V36.9814H59.0625V9.98145H65.8125L73.5625 29.9814H73.6875L81.875 9.98145H88.25ZM92.125 12.0439C92.125 11.2939 92.375 10.6689 92.9375 10.1689C93.5 9.66895 94.125 9.41895 94.875 9.41895C95.6875 9.41895 96.375 9.66895 96.875 10.1689C97.375 10.6689 97.6875 11.2939 97.6875 12.0439C97.6875 12.7939 97.4375 13.4189 96.875 13.9189C96.3125 14.4189 95.6875 14.6689 94.875 14.6689C94.0625 14.6689 93.4375 14.4189 92.9375 13.9189C92.4375 13.3564 92.125 12.7314 92.125 12.0439ZM97.1875 17.6064V36.9814H92.625V17.6064H97.1875ZM111 33.6689C111.688 33.6689 112.438 33.5439 113.25 33.1689C114.063 32.8564 114.813 32.4189 115.5 31.9189V36.1689C114.75 36.6064 113.938 36.9189 113 37.1064C112.063 37.2939 111.063 37.4189 109.938 37.4189C107.063 37.4189 104.75 36.5439 103 34.7314C101.188 32.9189 100.313 30.6064 100.313 27.8564C100.313 24.7314 101.25 22.1689 103.063 20.1689C104.875 18.1689 107.438 17.1689 110.813 17.1689C111.688 17.1689 112.563 17.2939 113.375 17.4814C114.25 17.6689 114.938 17.9814 115.438 18.2314V22.6064C114.75 22.1064 114 21.6689 113.313 21.4189C112.563 21.1689 111.813 20.9814 111.063 20.9814C109.25 20.9814 107.813 21.5439 106.688 22.7314C105.563 23.9189 105.063 25.4814 105.063 27.4814C105.063 29.4189 105.625 30.9814 106.688 32.0439C107.75 33.1064 109.188 33.6689 111 33.6689ZM128.438 17.2939C128.813 17.2939 129.125 17.2939 129.438 17.3564C129.75 17.4189 130 17.4814 130.188 17.5439V22.1689C129.938 21.9814 129.625 21.7939 129.125 21.6689C128.625 21.5439 128.125 21.4189 127.438 21.4189C126.313 21.4189 125.375 21.9189 124.625 22.8564C123.875 23.7939 123.438 25.2314 123.438 27.2314V36.9814H118.875V17.6064H123.438V20.6689H123.5C123.938 19.6064 124.563 18.7939 125.375 18.1689C126.25 17.6064 127.25 17.2939 128.438 17.2939ZM130.438 27.6064C130.438 24.4189 131.375 21.8564 133.125 19.9814C134.938 18.1064 137.438 17.1689 140.625 17.1689C143.625 17.1689 146 18.0439 147.688 19.8564C149.375 21.6689 150.25 24.1064 150.25 27.1689C150.25 30.2939 149.313 32.7939 147.563 34.6689C145.75 36.5439 143.313 37.4814 140.188 37.4814C137.188 37.4814 134.813 36.6064 133.063 34.8564C131.313 33.0439 130.438 30.6064 130.438 27.6064ZM135.188 27.4189C135.188 29.4189 135.625 30.9814 136.563 32.0439C137.5 33.1064 138.813 33.6689 140.5 33.6689C142.125 33.6689 143.438 33.1689 144.313 32.0439C145.188 30.9814 145.625 29.4189 145.625 27.2939C145.625 25.2314 145.188 23.6689 144.313 22.5439C143.438 21.4814 142.125 20.9189 140.563 20.9189C138.875 20.9189 137.625 21.4814 136.688 22.6064C135.625 23.7939 135.188 25.3564 135.188 27.4189ZM157.063 22.7314C157.063 23.3564 157.25 23.9189 157.688 24.2939C158.125 24.6689 159 25.1064 160.438 25.6689C162.25 26.4189 163.563 27.2314 164.25 28.1064C165 29.0439 165.375 30.1064 165.375 31.4189C165.375 33.2314 164.688 34.6689 163.25 35.7939C161.875 36.9189 159.938 37.4189 157.563 37.4189C156.75 37.4189 155.875 37.2939 154.875 37.1064C153.875 36.9189 153.063 36.6689 152.375 36.3564V31.8564C153.188 32.4189 154.125 32.9189 155.063 33.2314C156 33.5439 156.875 33.7314 157.688 33.7314C158.688 33.7314 159.5 33.6064 159.938 33.2939C160.438 32.9814 160.688 32.5439 160.688 31.8564C160.688 31.2314 160.438 30.7314 159.938 30.2314C159.438 29.7939 158.438 29.2939 157.063 28.7314C155.375 28.0439 154.188 27.2314 153.5 26.3564C152.813 25.4814 152.438 24.3564 152.438 22.9814C152.438 21.2314 153.125 19.7939 154.5 18.6689C155.875 17.5439 157.688 16.9814 159.875 16.9814C160.563 16.9814 161.313 17.0439 162.125 17.2314C162.938 17.4189 163.688 17.6064 164.25 17.7939V22.2314C163.625 21.8564 162.938 21.4814 162.125 21.1689C161.313 20.8564 160.5 20.7314 159.75 20.7314C158.875 20.7314 158.188 20.9189 157.75 21.2314C157.313 21.6689 157.063 22.1064 157.063 22.7314ZM167.313 27.6064C167.313 24.4189 168.25 21.8564 170 19.9814C171.813 18.1064 174.313 17.1689 177.5 17.1689C180.5 17.1689 182.875 18.0439 184.563 19.8564C186.25 21.6689 187.125 24.1064 187.125 27.1689C187.125 30.2939 186.188 32.7939 184.438 34.6689C182.625 36.5439 180.188 37.4814 177.063 37.4814C174.063 37.4814 171.688 36.6064 169.938 34.8564C168.25 33.0439 167.313 30.6064 167.313 27.6064ZM172.063 27.4189C172.063 29.4189 172.5 30.9814 173.438 32.0439C174.375 33.1064 175.688 33.6689 177.375 33.6689C179 33.6689 180.313 33.1689 181.188 32.0439C182.063 30.9814 182.5 29.4189 182.5 27.2939C182.5 25.2314 182.063 23.6689 181.188 22.5439C180.313 21.4814 179 20.9189 177.438 20.9189C175.75 20.9189 174.5 21.4814 173.563 22.6064C172.563 23.7939 172.063 25.3564 172.063 27.4189ZM202.313 21.3564H195.5V36.9814H190.875V21.3564H187.625V17.6064H190.875V14.9189C190.875 12.9189 191.563 11.2314 192.875 9.91895C194.188 8.60645 195.875 7.98145 197.938 7.98145C198.5 7.98145 199 8.04395 199.438 8.04395C199.875 8.04395 200.25 8.16895 200.563 8.29395V12.2314C200.438 12.1689 200.125 12.0439 199.75 11.9189C199.375 11.7939 198.938 11.7314 198.438 11.7314C197.5 11.7314 196.75 12.0439 196.25 12.6064C195.75 13.1689 195.5 14.1064 195.5 15.2314V17.5439H202.313V13.1689L206.875 11.7939V17.5439H211.5V21.2939H206.875V30.3564C206.875 31.5439 207.125 32.3564 207.5 32.8564C207.938 33.3564 208.625 33.6064 209.563 33.6064C209.813 33.6064 210.125 33.5439 210.5 33.4189C210.875 33.2939 211.188 33.1689 211.438 32.9814V36.7314C211.125 36.9189 210.688 37.0439 210 37.1689C209.313 37.2939 208.688 37.3564 208 37.3564C206.063 37.3564 204.625 36.8564 203.688 35.8564C202.75 34.8564 202.25 33.2939 202.25 31.2314L202.313 21.3564Z" fill="#91A7BC"/>
<path d="M21.875 0.981445H0.5V22.3564H21.875V0.981445Z" fill="#91A7BC"/>
<path d="M45.5 0.981445H24.125V22.3564H45.5V0.981445Z" fill="#91A7BC"/>
<path d="M21.875 24.6064H0.5V45.9814H21.875V24.6064Z" fill="#91A7BC"/>
<path d="M45.5 24.6064H24.125V45.9814H45.5V24.6064Z" fill="#91A7BC"/>
</g>
<defs>
<clipPath id="clip0_52_563">
<rect width="212" height="46" fill="white"/>
</clipPath>
</defs>
</svg>
