<svg width="76" height="71" viewBox="0 0 76 71" fill="none" xmlns="http://www.w3.org/2000/svg">
<path fill-rule="evenodd" clip-rule="evenodd" d="M38.3449 70.2941C35.6514 70.2941 34.2671 68.5376 34.2671 68.5376C32.0535 68.4414 14.7536 68.4895 14.7536 68.4895L13.0693 54.273C13.0693 54.273 2.41383 46.7623 1.54763 45.8961C-3.56709 22.6928 14.9202 0.572266 38.3456 0.572266C61.7709 0.572266 80.2583 22.6928 75.1435 45.8961C74.2773 46.7623 63.6219 54.273 63.6219 54.273L61.9376 68.4895C61.9376 68.4895 44.6377 68.4414 42.4241 68.5376C42.4241 68.5376 41.0397 70.2941 38.3449 70.2941Z" fill="#91A7BC"/>
<path fill-rule="evenodd" clip-rule="evenodd" d="M38.3697 48.6731L36.7351 7.63578C34.7637 7.23345 29.7346 7.71625 27.039 9.72788L34.8844 48.834L24.1825 11.3372C21.617 11.3057 16.4401 15.6436 16.0555 16.9295L31.6658 50.2019L14.1243 19.786C12.3943 20.4298 8.61247 27.39 9.21596 28.1987L28.769 52.1331L8.6527 31.6949C8.6527 31.6949 6.03758 35.6779 7.74298 42.4245L19.1056 50.6301L20.5281 61.8406H34.4592C34.4592 61.8406 36.7383 64.001 38.3555 64.001C39.9726 64.001 42.2518 61.8406 42.2518 61.8406H56.1828L57.6053 50.6301L68.968 42.4245C70.6734 35.6779 68.0582 31.6949 68.0582 31.6949L47.9419 52.1331L67.495 28.1987C68.0985 27.39 64.3166 20.4298 62.5866 19.786L45.0452 50.2019L60.6554 16.9295C60.2709 15.6436 55.0939 11.3057 52.5284 11.3372L41.8265 48.834L49.6719 9.72788C46.9763 7.71625 41.9472 7.23345 39.9758 7.63578L38.3697 48.6731Z" fill="#11283C"/>
</svg>
