<svg width="1313" height="269" viewBox="0 0 1313 269" fill="none" xmlns="http://www.w3.org/2000/svg">
<path fill-rule="evenodd" clip-rule="evenodd" d="M176.3 0.5C163.5 0.5 150.9 3.3 142 6.9C133.1 3.3 120.5 0.5 107.7 0.5C51.3 0.5 0.300049 53.9 0.300049 127.1C0.300049 206.9 65.5 268.7 142 268.7C218.5 268.7 283.7 207 283.7 127.1C283.7 53.9 232.7 0.5 176.3 0.5ZM142 44C152.9 50.5 167.2 69.2 167.2 90.4C167.2 105.9 157 118.1 142 118.1C127 118.1 116.8 105.9 116.8 90.4C116.7 69.2 131.1 50.5 142 44ZM142 233.8C83.5 233.8 35.1001 186.7 35.1001 126.4C35.1001 71.3 74.9001 33.7 106.1 35.1C91.3001 49.8 82.3 71.3 82.3 92.1C82.3 127.9 110.7 153 142 153C173.3 153 201.7 127.9 201.7 92.1C201.7 71.3 192.7 49.8 177.9 35.1C209.1 33.7 248.9 71.3 248.9 126.4C248.9 186.8 200.5 233.8 142 233.8Z" fill="#91A7BC"/>
<path d="M487.8 61.6001V90.8001C487.8 90.8001 529.1 90.8001 532.3 90.8001C532.3 94.0001 532.3 200.3 532.3 200.3H563.8C563.8 200.3 563.8 94.1001 563.8 90.8001C566.9 90.8001 608.3 90.8001 608.3 90.8001V61.6001H487.8Z" fill="#91A7BC"/>
<path d="M1006.1 61.6001H926.8V91.0001H1004C1015.3 91.0001 1019.7 96.2001 1019.7 109.4C1019.7 109.5 1019.7 113.2 1019.7 114.3C1016.5 114.3 955.7 114.3 955.7 114.3C931.4 114.3 919.3 126.5 919.3 154V160.5C919.3 188.8 931.8 200.1 957.1 200.1H1050.9V109C1051 74.2001 1039.4 61.6001 1006.1 61.6001ZM960.4 170.6C955.6 170.6 950.3 168.2 950.3 156.3C950.3 144.4 955.6 142.3 960.4 142.3C960.4 142.3 1016.6 142.3 1019.8 142.3V170.6C1016.6 170.6 960.4 170.6 960.4 170.6Z" fill="#91A7BC"/>
<path d="M1267.6 61.6001H1188.3V91.0001H1265.5C1276.8 91.0001 1281.2 96.2001 1281.2 109.4C1281.2 109.5 1281.2 113.2 1281.2 114.3C1278 114.3 1217.2 114.3 1217.2 114.3C1192.9 114.3 1180.8 126.5 1180.8 154V160.5C1180.8 188.8 1193.3 200.1 1218.6 200.1H1312.4V109C1312.4 74.2001 1300.9 61.6001 1267.6 61.6001ZM1221.9 170.6C1217.1 170.6 1211.8 168.2 1211.8 156.3C1211.8 144.4 1217.1 142.3 1221.9 142.3C1221.9 142.3 1278.1 142.3 1281.3 142.3V170.6C1278.1 170.6 1221.9 170.6 1221.9 170.6Z" fill="#91A7BC"/>
<path d="M618.2 61.6001V90.8001C618.2 90.8001 659.6 90.8001 662.7 90.8001C662.7 94.0001 662.7 200.3 662.7 200.3H694.2C694.2 200.3 694.2 94.1001 694.2 90.8001C697.3 90.8001 738.7 90.8001 738.7 90.8001V61.6001H618.2Z" fill="#91A7BC"/>
<path d="M1057.3 61.6001V90.8001C1057.3 90.8001 1098.6 90.8001 1101.8 90.8001C1101.8 94.0001 1101.8 200.3 1101.8 200.3H1133.3C1133.3 200.3 1133.3 94.1001 1133.3 90.8001C1136.4 90.8001 1177.8 90.8001 1177.8 90.8001V61.6001H1057.3Z" fill="#91A7BC"/>
<path d="M907.2 151.7V110.2C907.2 73.9001 893.1 61.6001 861.3 61.6001H777V200.2H862.8C896.5 200.2 907.2 183.5 907.2 151.7ZM875 152.3C875 165.6 870.5 170.7 859.2 170.7C859.2 170.7 811.6 170.7 808.5 170.7V91.1001C811.6 91.1001 859.2 91.1001 859.2 91.1001C870.5 91.1001 875 96.3001 875 109.5C875 109.7 875 152.3 875 152.3Z" fill="#91A7BC"/>
<path d="M443.4 167.2C442.7 165.9 400.6 83.9001 395.5 75.9001C389.6 66.6001 382.3 60.1001 368.5 60.1001C355.6 60.1001 340.4 65.8001 340.4 96.7001V200.4H371.5C371.5 200.4 371.5 120.2 371.5 113.9C371.5 107.7 371.1 98.5001 371 96.7001C370.9 95.2001 371 93.7001 371.8 93.3001C372.7 92.8001 373.6 93.6001 374.2 94.8001C374.8 96.0001 413.8 173.1 422.1 186.1C428 195.4 435.3 201.9 449.1 201.9C461.9 201.9 477.2 196.2 477.2 165.3V61.6001H446.2C446.2 61.6001 446.2 141.8 446.2 148.1C446.2 154.3 446.6 163.5 446.7 165.4C446.8 166.9 446.7 168.4 445.9 168.8C444.9 169.2 444 168.4 443.4 167.2Z" fill="#91A7BC"/>
</svg>
