<svg width="606" height="87" viewBox="0 0 606 87" fill="none" xmlns="http://www.w3.org/2000/svg">
<g clip-path="url(#clip0_52_536)">
<mask id="mask0_52_536" style="mask-type:luminance" maskUnits="userSpaceOnUse" x="0" y="0" width="606" height="87">
<path d="M605.217 0H0V87H605.217V0Z" fill="white"/>
</mask>
<g mask="url(#mask0_52_536)">
<path d="M93.7109 0V18.0896H121.109V85.9692H140.5V18.0896H167.899V0H93.7109Z" fill="#91A7BC"/>
<path d="M384.808 67.6009C381.828 67.6009 378.503 66.0924 378.503 58.7242C378.503 51.3561 381.801 50.0534 384.808 50.0534H421.806V67.5971L384.808 67.6009ZM413.299 0H363.878V18.2476H411.986C419.049 18.2476 421.802 21.4398 421.802 29.6829C421.802 29.7218 421.802 32.0158 421.802 32.7196H381.93C366.768 32.7196 359.226 40.2704 359.226 57.3285V61.3914C359.226 78.951 367.038 85.9692 382.754 85.9692H441.222V29.4496C441.222 7.78816 434.031 0 413.299 0Z" fill="#91A7BC"/>
<path d="M548.803 67.6009C545.838 67.6009 542.498 66.0924 542.498 58.7242C542.498 51.3561 545.8 50.0534 548.803 50.0534H585.831V67.5971L548.803 67.6009ZM577.29 0H527.867V18.2476H576.008C583.04 18.2476 585.824 21.4398 585.824 29.6829V32.7196H545.94C530.772 32.7196 523.222 40.2704 523.222 57.3285V61.3914C523.222 78.951 531.052 85.9692 546.753 85.9692H605.217V29.4496C605.217 7.78816 598.068 0 577.279 0" fill="#91A7BC"/>
<path d="M171.803 0V18.0896H199.192V85.9692H218.602V18.0896H245.991V0H171.803Z" fill="#91A7BC"/>
<path d="M445.126 0V18.0896H472.527V85.9692H491.917V18.0896H519.314V0H445.126Z" fill="#91A7BC"/>
<path d="M335.072 56.25C335.072 64.509 332.257 67.6898 325.128 67.6898H293.15V18.3067H325.128C332.262 18.3067 335.072 21.5069 335.072 29.7581V56.25ZM355.321 55.8612V30.1391C355.321 7.58629 346.442 0 326.442 0H273.324V85.9692H327.362C348.621 85.9692 355.321 75.5871 355.321 55.8612Z" fill="#91A7BC"/>
<path d="M64.6989 64.9587C64.2779 64.1984 37.834 14.4843 34.5977 9.59001C32.9996 6.60852 30.5579 4.1258 27.5561 2.43013C24.5543 0.734446 21.1157 -0.104621 17.6395 0.0104257C9.56788 0.0104257 0 3.45695 0 22.1715V84.9956H19.5058V32.5985C19.5058 28.8403 19.2578 23.2697 19.2184 22.1525C19.1751 21.2177 19.2183 20.34 19.7026 20.0702C20.2617 19.7586 20.8248 20.2792 21.2068 20.9745C21.5887 21.6699 46.0949 68.4471 51.2963 76.3546C52.8983 79.3349 55.3399 81.8175 58.3403 83.517C61.3407 85.2165 64.7772 86.0638 68.2545 85.9605C76.3259 85.9605 85.9019 82.4722 85.9019 63.7653V0.922427H66.3844V53.331C66.3844 57.0928 66.6322 62.6861 66.6794 63.7918C66.7267 64.7269 66.6794 65.5742 66.1911 65.8745C65.64 66.1745 65.073 65.6502 64.6989 64.9587Z" fill="#91A7BC"/>
</g>
</g>
<defs>
<clipPath id="clip0_52_536">
<rect width="606" height="87" fill="white"/>
</clipPath>
</defs>
</svg>
