<svg width="137" height="60" viewBox="0 0 137 60" fill="none" xmlns="http://www.w3.org/2000/svg">
<path d="M11.938 14.9574H19.9671V28.1089C17.2861 28.6521 15.2329 28.9273 12.9822 28.9273C4.17693 28.9273 1.07251 23.8826 1.07251 15.5783C1.07251 6.65308 5.37637 1.6084 13.9559 1.6084C15.0424 1.6084 17.0956 1.68601 19.6567 2.07406V10.4913H17.794L16.7428 7.27397C15.7338 4.21188 14.5344 2.69495 12.6294 2.69495C9.3345 2.69495 7.58474 7.15402 7.58474 15.5007C7.58474 23.8826 8.28323 27.8408 12.5871 27.8408C13.1727 27.8408 13.8641 27.7632 14.5274 27.5727V17.7867L11.9309 16.0016V14.9574H11.938ZM19.8119 50.2631C19.8119 55.5407 16.2066 58.5675 9.8425 58.5675C8.09979 58.5675 5.53864 58.2994 3.13272 57.9043V47.5891H4.99537L5.77147 50.0303C7.51418 55.6536 8.75595 57.5162 10.9714 57.5162C13.2997 57.5162 14.9648 55.4631 14.9648 52.7467C14.9648 50.5383 13.9206 48.9861 11.6699 47.7796L7.78935 45.6841C4.79782 44.0966 3.16799 41.6131 3.16799 38.5863C3.16799 34.0073 6.92858 31.2556 13.1021 31.2556C14.4991 31.2556 16.129 31.3756 18.7254 31.7213V40.1385H16.8627L15.8185 36.9212C14.7672 33.5063 13.6454 32.2646 11.5923 32.2646C9.29923 32.2646 7.94457 33.7392 7.94457 35.8699C7.94457 37.7679 8.99584 39.1296 11.049 40.2937L14.9648 42.5021C18.2597 44.3647 19.8119 46.8483 19.8119 50.2631ZM36.9639 56.3591L37.74 57.5233V58.1089H31.8063L31.5311 55.8582C30.9102 57.5656 29.2804 58.5745 27.1849 58.5745C24.0805 58.5745 22.1402 56.6343 22.1402 53.4522C22.1402 50.3478 23.8829 48.2947 29.2381 46.1992L31.5241 45.3102V42.4033C31.5241 39.8422 31.0584 38.798 29.6261 38.798C28.462 38.798 27.8058 39.4188 26.6769 42.2481L25.3999 45.416H23.6572V39.0872C25.9432 38.3887 28.2362 37.9231 30.2117 37.9231C34.5932 37.9231 36.9639 40.0186 36.9639 43.8215V56.3591ZM39.2075 18.6051C39.2075 25.202 35.6798 28.9273 31.136 28.9273C26.5993 28.9273 23.0716 25.202 23.0716 18.6051C23.0716 12.0082 26.5993 8.2829 31.1431 8.2829C35.6797 8.2829 39.2075 12.0082 39.2075 18.6051ZM31.5311 53.0995V46.3897L30.7973 46.7001C28.5043 47.6314 27.6506 49.7269 27.6506 52.789C27.6506 55.0821 28.1939 56.3944 29.4709 56.3944C30.748 56.3944 31.5311 55.1526 31.5311 53.0995ZM33.5067 18.6051C33.5067 11.1545 32.8858 9.17895 31.1431 9.17895C29.4004 9.17895 28.7795 11.1545 28.7795 18.6051C28.7795 26.0557 29.4004 28.0313 31.1431 28.0313C32.8858 28.0313 33.5067 26.0557 33.5067 18.6051ZM52.9869 53.29L53.6854 53.6427C52.4436 57.2128 50.8561 58.5675 47.787 58.5675C42.7846 58.5675 39.9907 54.8069 39.9907 48.2453C39.9907 41.6907 43.2503 37.9231 48.5631 37.9231C49.9954 37.9231 51.9004 38.1559 53.5302 38.8121V45.409H51.7099L50.9761 42.9254C50.0024 39.6305 49.4662 38.7768 48.4925 38.7768C46.9403 38.7768 45.6986 40.7947 45.6986 48.4781C45.6986 54.6446 46.6299 56.8953 48.9935 56.8953C50.581 56.9024 51.9356 55.8934 52.9869 53.29ZM48.676 28.4616H41.691V27.8831L42.4671 26.7189V5.06559L41.691 3.90144V3.31583L47.8999 2.85017V26.7119L48.676 27.876V28.4616ZM58.2221 28.9273C53.9535 28.9273 51.3924 25.0468 51.3924 18.4146C51.3924 11.8177 54.0664 8.28996 58.1797 8.28996C60.2752 8.28996 61.4394 9.10134 61.9403 10.7312V5.06559L61.1642 3.90144V3.31583L67.3731 2.85017V26.7119L68.1492 27.876V28.4546H62.6388L62.2155 25.5054C61.6017 28.0313 60.4375 28.9273 58.2221 28.9273ZM71.8392 56.3591L72.6153 57.5233V58.1089H65.6304V57.5233L66.4065 56.3591V42.3892C66.4065 40.7241 65.9055 39.7152 64.699 39.7152C63.2597 39.7152 62.2155 40.9217 62.2155 43.2853V56.3591L62.9916 57.5233V58.1089H56.0067V57.5233L56.7828 56.3591V34.7058L56.0067 33.5416V32.9631L62.2155 32.4974V40.5266C62.914 38.8615 64.5015 37.9301 66.7522 37.9301C69.9342 37.9301 71.8321 39.948 71.8321 43.8638V56.3591H71.8392ZM57.1003 18.4852C57.1003 25.4701 57.7211 27.6009 59.4286 27.6009C61.5593 27.6009 61.9474 24.5388 61.9474 18.4076C61.9474 12.4739 61.5241 9.52467 59.4639 9.52467C57.7211 9.52467 57.1003 11.6202 57.1003 18.4852ZM96.0537 26.7119L96.8298 27.876V28.4546H89.8448V27.876L90.621 26.7119V12.3187C90.621 10.9217 90.1553 10.0679 89.0687 10.0679C87.7141 10.0679 86.6275 11.2744 86.6275 13.5957V26.7119L87.4036 27.876V28.4546H80.4187V27.876L81.1948 26.7119V12.3187C81.1948 10.9217 80.7291 10.0679 79.6426 10.0679C78.2879 10.0679 77.2014 11.2744 77.2014 13.5957V26.7119L77.9775 27.876V28.4546H70.9925V27.876L71.7686 26.7119V10.9217L70.9925 9.99034V9.41179L76.5805 8.74857H77.0462L77.2014 10.9217C77.8575 9.21423 79.4874 8.2829 81.7028 8.2829C84.0664 8.2829 85.6186 9.44706 86.3171 11.5425C86.8956 9.52467 88.723 8.2829 91.0513 8.2829C94.1134 8.2829 96.0537 10.3008 96.0537 14.2166V26.7119V26.7119ZM88.8006 52.401C88.8006 55.7735 86.6275 58.5675 81.3924 58.5675C80.0377 58.5675 78.2103 58.4123 75.3811 57.9043V50.6935H76.9686L77.4695 52.2457C78.7113 56.2039 79.9107 57.6785 81.8157 57.6785C83.6007 57.6785 84.7649 56.3944 84.7649 54.4188C84.7649 52.789 83.9464 51.6672 82.0132 50.6159L78.676 48.8309C76.5452 47.6667 75.3811 45.8464 75.3811 43.5957C75.3811 40.0679 78.1398 37.9301 82.7117 37.9301C84.0311 37.9301 85.7385 38.1206 87.6012 38.5087V44.1743H86.0137L85.1953 42.114C84.2639 39.6305 83.375 38.8191 81.9004 38.8191C80.3129 38.8191 79.3815 39.7504 79.3815 41.3027C79.3815 42.622 80.1576 43.511 82.0556 44.5976L85.3505 46.4602C87.5941 47.7443 88.8006 49.5647 88.8006 52.401ZM113.904 26.7119L114.68 27.876V28.4546H108.747L108.478 26.2039C107.858 27.9113 106.228 28.9203 104.132 28.9203C101.028 28.9203 99.0875 26.98 99.0875 23.798C99.0875 20.6935 100.83 18.6404 106.185 16.5449L108.471 15.6559V12.749C108.471 10.1879 108.006 9.14368 106.573 9.14368C105.409 9.14368 104.753 9.76456 103.624 12.5938L102.347 15.7758H100.597V9.45412C102.89 8.75562 105.176 8.28996 107.152 8.28996C111.533 8.28996 113.904 10.3854 113.904 14.1884V26.7119ZM108.471 23.4522V16.7425L107.738 17.0529C105.452 17.9842 104.598 20.0797 104.598 23.1418C104.598 25.4348 105.141 26.7542 106.418 26.7542C107.695 26.7542 108.471 25.5124 108.471 23.4522ZM133.843 27.876V28.4546H126.858V27.876L127.634 26.7119V12.742C127.634 11.0698 127.133 10.0679 125.927 10.0679C124.487 10.0679 123.443 11.2744 123.443 13.638V26.7119L124.219 27.876V28.4546H117.234V27.876L118.01 26.7119V10.9217L117.234 9.99034V9.41179L122.822 8.74857H123.288L123.443 10.9217C124.099 9.21423 125.694 8.2829 127.98 8.2829C131.162 8.2829 133.06 10.3008 133.06 14.2166V26.7119L133.843 27.876Z" fill="#91A7BC"/>
</svg>
