<svg width="613" height="145" viewBox="0 0 613 145" fill="none" xmlns="http://www.w3.org/2000/svg">
<g clip-path="url(#clip0_143_332)">
<path d="M127.47 83.49C139.98 83.49 158.08 80.91 158.08 66.03C158.117 64.8816 158.013 63.733 157.77 62.61L150.32 30.25C148.6 23.13 147.09 19.9 134.59 13.65C124.89 8.69 103.76 0.5 97.51 0.5C91.69 0.5 90 8 83.06 8C76.38 8 71.42 2.4 65.17 2.4C59.17 2.4 55.26 6.49 52.24 14.9C52.24 14.9 43.83 38.62 42.75 42.06C42.5783 42.6917 42.5042 43.3459 42.53 44C42.53 53.22 78.83 83.45 127.47 83.45M160 72.07C161.73 80.26 161.73 81.12 161.73 82.2C161.73 96.2 145.99 103.97 125.3 103.97C78.54 104 37.58 76.6 37.58 58.49C37.5773 55.9692 38.0912 53.4745 39.09 51.16C22.27 52 0.5 55 0.5 74.22C0.5 105.7 75.09 144.5 134.15 144.5C179.43 144.5 190.85 124.02 190.85 107.85C190.85 95.13 179.85 80.69 160.02 72.07" fill="#91A7BC"/>
<path d="M579.74 92.7999C579.74 104.69 586.89 110.47 599.93 110.47C603.945 110.37 607.935 109.806 611.82 108.79V94.9999C609.337 95.7869 606.745 96.1784 604.14 96.1599C598.77 96.1599 596.78 94.4799 596.78 89.4299V68.2999H612.34V54.0999H596.78V36.0999L579.78 39.7799V54.0999H568.49V68.2999H579.74V92.7999ZM526.74 93.1199C526.74 89.4399 530.43 87.6499 536 87.6499C539.405 87.6697 542.795 88.0927 546.1 88.9099V96.0599C542.843 97.839 539.181 98.745 535.47 98.6899C530.01 98.6899 526.74 96.5899 526.74 93.1199ZM531.94 110.68C537.94 110.68 542.78 109.42 547.3 106.37V109.74H564.12V74.0799C564.12 60.5199 554.98 53.0799 539.73 53.0799C531.21 53.0799 522.79 55.0799 513.73 59.1799L519.83 71.6999C526.35 68.9599 531.83 67.2799 536.66 67.2799C543.66 67.2799 547.28 70.0099 547.28 75.5899V78.3199C543.159 77.2531 538.917 76.7221 534.66 76.7399C520.35 76.7399 511.73 82.7399 511.73 93.4699C511.73 103.25 519.51 110.71 531.92 110.71L531.94 110.68ZM439.48 109.77H457.57V80.9199H487.86V109.74H506V36.1199H487.93V64.4099H457.64V36.1199H439.55L439.48 109.77ZM370.62 81.8699C370.62 73.8699 376.93 67.7699 385.24 67.7699C389.563 67.6823 393.761 69.2244 397 72.0899V91.5399C395.431 93.0224 393.584 94.1797 391.566 94.9452C389.547 95.7107 387.397 96.0691 385.24 95.9999C377.04 95.9999 370.62 89.8999 370.62 81.9099V81.8699ZM397.23 109.78H414.06V32.4399L397.06 36.1199V57.0499C392.732 54.5965 387.834 53.3272 382.86 53.3699C366.67 53.3699 353.94 65.8799 353.94 81.8699C353.893 85.6218 354.595 89.3453 356.003 92.8232C357.411 96.301 359.498 99.4634 362.142 102.126C364.786 104.788 367.934 106.897 371.402 108.33C374.869 109.763 378.588 110.49 382.34 110.47C387.705 110.496 392.937 108.803 397.27 105.64L397.23 109.78ZM320 66.9999C325.36 66.9999 329.88 70.4699 331.67 75.8299H308.47C310.15 70.2999 314.36 66.9999 320 66.9999ZM291.33 81.9999C291.33 98.1999 304.58 110.82 321.61 110.82C330.97 110.82 337.81 108.29 344.86 102.4L333.6 92.3999C330.97 95.1399 327.08 96.6099 322.46 96.6099C319.555 96.6918 316.693 95.892 314.251 94.3158C311.809 92.7397 309.902 90.4611 308.78 87.7799H348.43V83.5499C348.43 65.8799 336.55 53.1599 320.35 53.1599C316.542 53.1025 312.761 53.807 309.229 55.2321C305.697 56.6572 302.485 58.7741 299.783 61.4584C297.081 64.1426 294.944 67.34 293.495 70.8625C292.047 74.3849 291.318 78.1615 291.35 81.9699L291.33 81.9999ZM262 51.5799C268 51.5799 271.36 55.3599 271.36 59.8899C271.36 64.4199 268 68.1999 262 68.1999H244.11V51.5799H262ZM226 109.74H244.09V82.9199H257.86L271.75 109.74H292L275.8 80.2899C279.917 78.6156 283.439 75.7476 285.912 72.0551C288.386 68.3626 289.698 64.0144 289.68 59.5699C289.68 46.3199 279.27 36.1199 263.68 36.1199H226V109.74Z" fill="#91A7BC"/>
</g>
<defs>
<clipPath id="clip0_143_332">
<rect width="613" height="145" fill="white"/>
</clipPath>
</defs>
</svg>
