<svg width="179" height="27" viewBox="0 0 179 27" fill="none" xmlns="http://www.w3.org/2000/svg">
<path d="M27.144 0.502047V5.88599H35.3331V26.0356H41.1315V5.88599H49.3205V0.502047H27.144Z" fill="#91A7BC"/>
<path d="M122.598 0.502074H107.994V5.9298H122.203C124.296 5.9298 125.108 6.88468 125.108 9.31722V10.2271H113.323C108.838 10.2271 106.612 12.4636 106.612 17.5296V18.7366C106.612 23.9429 108.925 26.0356 113.576 26.0356H130.852V9.25376C130.852 2.82946 128.725 0.502047 122.598 0.502047V0.502074ZM114.179 20.5773C113.301 20.5773 112.315 20.1399 112.315 17.9452C112.315 15.7526 113.278 15.3689 114.179 15.3689H125.108V20.5774L114.179 20.5773Z" fill="#91A7BC"/>
<path d="M170.746 0.502074H156.145V5.9298H170.362C172.444 5.9298 173.255 6.88468 173.255 9.31722V10.2271H161.482C156.997 10.2271 154.763 12.4636 154.763 17.5296V18.7366C154.763 23.9429 157.076 26.0356 161.724 26.0356H179V9.25376C179 2.82946 176.873 0.502047 170.746 0.502047V0.502074ZM162.326 20.5773C161.448 20.5773 160.464 20.1399 160.464 17.9452C160.464 15.7526 161.429 15.3689 162.326 15.3689H173.255V20.5774L162.326 20.5773Z" fill="#91A7BC"/>
<path d="M51.1616 0.502047V5.88599H59.3506V26.0356H65.1631V5.88599H73.3524V0.502047H51.1616Z" fill="#91A7BC"/>
<path d="M132.014 0.502047V5.88599H140.203V26.0356H146.001V5.88599H154.19V0.502047H132.014Z" fill="#91A7BC"/>
<path d="M104.367 17.092V9.44993C104.367 2.77249 101.78 0.514114 95.926 0.514114H80.3916V26.0356H96.1979C102.403 26.0356 104.367 22.9463 104.367 17.0922V17.092ZM98.4462 17.2128C98.4462 19.6455 97.6242 20.6002 95.5412 20.6002H86.2007V5.94201H95.5412C97.6242 5.94201 98.4462 6.89576 98.4462 9.35131V17.2128Z" fill="#91A7BC"/>
<path d="M18.9547 19.9509C18.834 19.7207 11.0943 4.62498 10.1395 3.13503C9.04527 1.42588 7.71781 0.230042 5.17542 0.230042C2.80648 0.230042 0 1.27125 0 6.95997V26.0474H5.71174V10.1282C5.71174 8.98917 5.64705 7.28889 5.63498 6.94903C5.62404 6.6651 5.63498 6.40199 5.77859 6.32526C5.92989 6.2244 6.09544 6.37897 6.21601 6.58727C6.32566 6.8087 13.5053 21.0142 15.0398 23.4141C16.1263 25.1374 17.4648 26.3213 20.007 26.3213C22.3761 26.3213 25.1715 25.2689 25.1715 19.5891V0.501709H19.4598V16.4209C19.4598 17.5709 19.5245 19.2602 19.5464 19.6001C19.5464 19.8752 19.5464 20.1471 19.4039 20.226C19.2383 20.3247 19.075 20.1701 18.9544 19.9509" fill="#91A7BC"/>
</svg>
