<svg width="253" height="41" viewBox="0 0 253 41" fill="none" xmlns="http://www.w3.org/2000/svg">
<path d="M0 33.2571C0.445503 32.5164 0.803677 31.7301 1.19539 30.9615C4.38985 24.6951 7.57545 18.4243 10.7642 12.1553C12.7861 8.18063 14.8092 4.20531 16.8323 0.22998C19.4268 0.22998 22.0214 0.22998 24.6153 0.22998C24.6432 0.358708 24.5558 0.449387 24.5052 0.549579C20.6798 8.07029 16.8544 15.5904 13.0272 23.1098C11.3382 26.4276 9.64539 29.7434 7.96084 33.0637C7.86085 33.2609 7.74694 33.3262 7.52799 33.3256C5.01887 33.3173 2.50912 33.3205 0 33.3205C0 33.2996 0 33.2786 0 33.2571Z" fill="#91A7BC"/>
<path d="M125.132 16.2232C125.267 16.2029 125.287 16.0957 125.336 16.0228C126.751 13.8864 128.78 12.9403 131.292 12.9511C132.458 12.9562 133.601 13.1077 134.685 13.5827C136.024 14.1699 136.974 15.1318 137.521 16.4914C137.543 16.5459 137.571 16.5973 137.616 16.6912C137.859 16.2187 138.085 15.7818 138.309 15.343C138.587 14.7989 138.872 14.2587 139.134 13.707C139.221 13.525 139.325 13.4723 139.518 13.4755C140.256 13.4869 140.995 13.4698 141.732 13.4863C141.963 13.4914 142.004 13.4172 142.003 13.2035C141.994 11.4184 142.003 9.63272 141.992 7.84766C141.991 7.59718 142.032 7.51094 142.308 7.51411C143.911 7.52996 145.514 7.52806 147.117 7.51538C147.372 7.51348 147.449 7.56357 147.447 7.83561C147.433 9.62067 147.444 11.4064 147.434 13.1914C147.432 13.4248 147.484 13.4888 147.724 13.4863C149.158 13.4736 150.592 13.48 152.023 13.48C152.083 13.5827 152.001 13.6455 151.967 13.712C151.435 14.7647 150.893 15.8129 150.368 16.8693C150.278 17.0501 150.176 17.1014 149.983 17.0983C149.224 17.0869 148.464 17.0983 147.706 17.09C147.518 17.0881 147.433 17.1097 147.434 17.3373C147.442 20.6544 147.437 23.9715 147.442 27.2886C147.443 27.5296 147.477 27.7744 147.527 28.0103C147.692 28.7852 148.083 29.1003 148.945 29.2024C149.685 29.2899 150.419 29.2532 151.15 29.1346C151.366 29.0991 151.434 29.1409 151.432 29.3756C151.42 30.5798 151.415 31.7846 151.434 32.9882C151.439 33.2596 151.358 33.3496 151.102 33.3756C149.798 33.5056 148.493 33.5544 147.185 33.4777C146.449 33.4346 145.715 33.3655 145.002 33.1549C143.037 32.5747 141.999 31.1898 141.998 29.1397C141.996 25.2417 141.994 21.3431 142.004 17.4451C142.005 17.1604 141.939 17.0818 141.648 17.0862C140.457 17.1046 139.265 17.0938 138.074 17.0938C137.972 17.0938 137.87 17.0938 137.735 17.0938C138.225 18.6855 138.208 20.2898 138.203 21.8954C138.193 25.593 138.196 29.2906 138.207 32.9875C138.208 33.2659 138.142 33.3319 137.865 33.3293C136.262 33.3141 134.659 33.3154 133.057 33.3287C132.802 33.3306 132.752 33.257 132.752 33.0161C132.76 29.1282 132.761 25.2411 132.755 21.3532C132.753 20.5669 132.609 19.8022 132.329 19.0641C131.961 18.0932 131.273 17.5168 130.253 17.3304C129.365 17.1687 128.486 17.2092 127.629 17.4857C126.302 17.9131 125.667 18.9353 125.362 20.2188C125.186 20.9607 125.101 21.7153 125.101 22.4788C125.101 25.9862 125.098 29.4935 125.107 33.0008C125.108 33.2596 125.053 33.3319 124.785 33.3293C123.172 33.3147 121.558 33.3166 119.945 33.3281C119.707 33.33 119.652 33.271 119.653 33.0351C119.66 24.0977 119.66 15.1604 119.653 6.22367C119.653 5.98587 119.71 5.92943 119.945 5.93134C121.569 5.94275 123.193 5.94339 124.817 5.9307C125.06 5.9288 125.106 5.99665 125.106 6.22747C125.098 9.44946 125.1 12.6714 125.101 15.8934C125.103 16.0012 125.079 16.1173 125.132 16.2232Z" fill="#91A7BC"/>
<path d="M112.371 16.1751C112.805 15.3216 113.215 14.5391 113.601 13.7452C113.704 13.5327 113.825 13.47 114.056 13.4725C115.142 13.4865 116.228 13.4833 117.314 13.4744C117.515 13.4725 117.577 13.5175 117.577 13.7306C117.571 19.985 117.596 26.2393 117.56 32.4937C117.547 34.7081 116.874 36.7151 115.227 38.2928C113.993 39.4741 112.482 40.1228 110.835 40.4551C108.644 40.8971 106.444 40.984 104.253 40.4215C103.102 40.126 102.025 39.6612 101.061 38.9529C100.972 38.8876 100.826 38.8514 100.922 38.6656C101.563 37.4208 102.195 36.1716 102.844 34.8964C103.518 35.6916 104.315 36.2782 105.262 36.6466C106.529 37.1387 107.84 37.2769 109.175 37.0499C110.811 36.7721 111.919 35.5806 112.26 33.8209C112.391 33.1399 112.384 32.4563 112.383 31.7702C112.382 31.0885 112.383 30.4068 112.383 29.7181C112.335 29.7289 112.307 29.727 112.301 29.7378C111.392 31.3022 109.979 32.164 108.261 32.5203C105.728 33.046 103.328 32.7334 101.212 31.1221C99.763 30.0187 98.9011 28.512 98.4398 26.7745C97.6874 23.9406 97.6494 21.1143 98.7233 18.3476C99.6909 15.8536 101.376 14.0578 103.988 13.2734C105.557 12.8029 107.152 12.8194 108.733 13.2391C110.208 13.6304 111.325 14.515 112.131 15.8035C112.199 15.9088 112.267 16.0134 112.371 16.1751ZM112.394 22.843C112.403 22.3185 112.33 21.6159 112.189 20.9216C111.966 19.8252 111.552 18.8175 110.694 18.0585C108.508 16.125 105.022 16.9342 103.917 19.6825C103.071 21.7865 103.139 23.9482 103.969 26.0434C104.563 27.5418 105.676 28.4911 107.345 28.616C109.08 28.746 110.485 28.1316 111.453 26.6464C112.168 25.5494 112.408 24.3205 112.394 22.843Z" fill="#91A7BC"/>
<path d="M164.609 19.9949C164.429 20.7032 164.254 21.3906 164.08 22.0786C163.151 25.7457 162.221 29.4122 161.297 33.0807C161.251 33.2633 161.179 33.3273 160.983 33.3261C159.264 33.3172 157.544 33.3185 155.826 33.3248C155.649 33.3254 155.575 33.276 155.52 33.1003C154.211 28.9519 152.895 24.8066 151.578 20.6607C151.535 20.5244 151.526 20.4064 151.597 20.2688C152.728 18.0551 153.853 15.8388 154.981 13.6238C154.994 13.5978 155.021 13.5794 155.071 13.5243C156.285 18.0132 157.492 22.4743 158.698 26.9354C158.723 26.9341 158.747 26.9335 158.772 26.9322C158.938 26.2594 159.106 25.5872 159.27 24.9144C160.181 21.1883 161.093 17.4622 161.998 13.7348C162.046 13.5376 162.122 13.4723 162.33 13.4742C163.923 13.4843 165.515 13.4849 167.108 13.4735C167.322 13.4723 167.388 13.5458 167.436 13.7399C168.506 18.0234 169.582 22.3056 170.657 26.5872C170.682 26.6887 170.711 26.7901 170.739 26.8929C170.86 26.8669 170.841 26.7673 170.861 26.6944C172.018 22.4343 173.18 18.1756 174.322 13.9111C174.417 13.5566 174.551 13.4634 174.91 13.4685C176.523 13.4919 178.136 13.483 179.75 13.4735C179.992 13.4723 180.05 13.5027 179.969 13.7589C177.935 20.1965 175.908 26.6367 173.886 33.0775C173.825 33.2734 173.736 33.3267 173.535 33.3254C171.848 33.3159 170.16 33.3134 168.473 33.328C168.236 33.3299 168.178 33.2386 168.126 33.0426C167.01 28.8041 165.888 24.5675 164.762 20.3316C164.735 20.2282 164.747 20.0982 164.609 19.9949Z" fill="#91A7BC"/>
<path d="M41.242 16.2225C41.3666 16.192 41.3907 16.0766 41.4457 15.9942C42.8462 13.8953 44.8503 12.9599 47.3233 12.9498C48.4358 12.9453 49.5325 13.0804 50.5766 13.4945C52.4574 14.2408 53.5237 15.6714 53.9692 17.6061C54.185 18.544 54.2976 19.4952 54.2963 20.4616C54.2894 24.6348 54.2906 28.8079 54.2995 32.9811C54.3001 33.2475 54.2539 33.3324 53.9641 33.3293C52.3612 33.3121 50.7583 33.3153 49.1553 33.3267C48.9117 33.3286 48.8446 33.2716 48.8453 33.0198C48.8541 29.132 48.8535 25.2442 48.8491 21.3564C48.8484 20.6233 48.713 19.9112 48.4801 19.2143C48.1137 18.1166 47.3632 17.4774 46.2267 17.303C45.3818 17.1737 44.5421 17.2174 43.7264 17.4825C42.3867 17.9181 41.7526 18.9486 41.4502 20.2454C41.2793 20.9778 41.1951 21.7222 41.1951 22.4743C41.1939 25.9817 41.192 29.4896 41.2008 32.997C41.2015 33.2519 41.1534 33.3305 40.8813 33.328C39.2676 33.3128 37.6539 33.3153 36.0408 33.3267C35.8073 33.3286 35.7466 33.2754 35.7466 33.0357C35.7535 24.0977 35.7535 15.1597 35.7466 6.22171C35.7466 5.98328 35.8042 5.92811 36.0396 5.92938C37.6634 5.9408 39.2878 5.94143 40.9116 5.92875C41.1565 5.92685 41.2002 5.99723 41.1996 6.22615C41.192 9.44814 41.1939 12.6708 41.1964 15.8934C41.197 16.0012 41.1508 16.1223 41.242 16.2225Z" fill="#91A7BC"/>
<path d="M222.046 20.5622C223.012 19.5577 223.925 18.6097 224.837 17.661C226.116 16.3294 227.397 14.9983 228.675 13.6654C228.778 13.5576 228.871 13.4739 229.045 13.4745C231.069 13.4822 233.094 13.4796 235.119 13.4796C235.157 13.4796 235.195 13.4841 235.304 13.4904C235.163 13.6242 235.066 13.7136 234.972 13.8056C232.675 16.0453 230.381 18.2869 228.078 20.5209C227.888 20.7055 227.857 20.8234 228.014 21.0599C230.655 25.0264 233.285 29.0004 235.917 32.9732C235.981 33.069 236.043 33.1654 236.107 33.2649C236.016 33.3689 235.905 33.3188 235.809 33.3188C233.816 33.3226 231.824 33.3169 229.83 33.3277C229.607 33.329 229.497 33.2453 229.389 33.069C227.69 30.2909 225.981 27.5179 224.284 24.7379C224.148 24.5146 224.08 24.4614 223.872 24.6738C223.349 25.2096 222.805 25.7252 222.256 26.2344C222.093 26.3853 222.04 26.5394 222.041 26.7563C222.049 28.8476 222.042 30.9396 222.051 33.0309C222.052 33.2605 222.007 33.3302 221.763 33.3283C220.139 33.3157 218.516 33.3163 216.892 33.3277C216.658 33.3296 216.598 33.2763 216.598 33.0366C216.605 24.0999 216.605 15.1638 216.599 6.22714C216.599 5.99758 216.643 5.92783 216.887 5.92973C218.5 5.94241 220.113 5.94305 221.726 5.92973C221.987 5.92783 222.053 5.98807 222.052 6.25377C222.043 10.8803 222.046 15.5069 222.046 20.1335C222.046 20.2476 222.046 20.363 222.046 20.5622Z" fill="#91A7BC"/>
<path d="M66.1455 12.9439C67.9199 12.9382 69.6216 13.268 71.2137 14.0758C73.428 15.1995 74.9366 16.9605 75.7232 19.3004C76.6528 22.0671 76.6743 24.8699 75.6783 27.622C74.4835 30.9226 72.0718 32.8681 68.6685 33.565C66.3967 34.0305 64.1293 33.9423 61.9474 33.104C58.7194 31.8637 56.8418 29.44 56.1451 26.102C55.6351 23.6581 55.7521 21.2237 56.695 18.8831C57.9771 15.6998 60.3837 13.8678 63.6952 13.164C64.5021 12.9921 65.3222 12.9446 66.1455 12.9439ZM70.9347 23.8027C70.9429 22.5877 70.8518 21.7608 70.6796 20.9428C70.1044 18.2065 68.061 16.729 65.3108 17.1069C63.5326 17.3517 62.398 18.4488 61.8411 20.093C61.0994 22.2833 61.0906 24.5224 61.8398 26.7127C62.4802 28.5852 63.806 29.6385 65.8392 29.7463C67.9288 29.8573 69.5298 28.8909 70.3347 26.9562C70.8049 25.8268 70.9163 24.6327 70.9347 23.8027Z" fill="#91A7BC"/>
<path d="M189.285 12.9439C190.851 12.9382 192.37 13.1893 193.812 13.8171C196.137 14.8292 197.806 16.5045 198.711 18.8787C199.836 21.8312 199.874 24.8306 198.763 27.7882C197.555 31.0038 195.153 32.8757 191.831 33.5657C189.755 33.9969 187.674 33.9417 185.644 33.2955C182.662 32.3456 180.632 30.3678 179.65 27.3912C178.718 24.5624 178.751 21.7094 179.834 18.9256C181.083 15.7144 183.512 13.878 186.834 13.1659C187.641 12.9928 188.462 12.9446 189.285 12.9439ZM194.086 23.4343C194.1 22.575 194 21.7272 193.819 20.8895C193.206 18.055 190.92 16.5521 188.098 17.1729C186.483 17.5287 185.472 18.6168 184.973 20.1432C184.265 22.3081 184.258 24.5097 184.975 26.6746C185.635 28.6709 187.085 29.6905 189.171 29.7476C191.22 29.8034 192.742 28.8104 193.507 26.9067C193.954 25.7932 194.073 24.6213 194.086 23.4343Z" fill="#91A7BC"/>
<path d="M91.2486 30.5341C91.0904 30.5665 91.0587 30.6648 91.0106 30.7421C89.8621 32.5798 88.1275 33.4644 86.0512 33.751C84.7654 33.9286 83.4788 33.8252 82.2259 33.491C79.937 32.8798 78.6372 31.3312 78.1499 29.0496C77.9354 28.0452 77.8316 27.0287 77.8322 26.0008C77.8348 21.9341 77.836 17.8675 77.8272 13.8009C77.8265 13.5434 77.879 13.4692 78.148 13.4717C79.7503 13.4863 81.3532 13.4857 82.9555 13.4724C83.2169 13.4705 83.282 13.5307 83.2814 13.7964C83.2713 17.5251 83.2732 21.2537 83.2757 24.9824C83.2763 25.8518 83.382 26.7072 83.6529 27.5385C84.0186 28.6597 84.7736 29.3242 85.9399 29.4942C86.784 29.6172 87.6244 29.5766 88.4401 29.3084C89.7108 28.8905 90.3544 27.9241 90.667 26.6888C90.841 26.002 90.934 25.3032 90.9334 24.5911C90.929 20.9893 90.934 17.3875 90.9265 13.7856C90.9258 13.5453 90.9758 13.4705 91.2308 13.4724C92.8547 13.4857 94.4785 13.4838 96.1016 13.4736C96.3212 13.4724 96.3794 13.5237 96.3794 13.7489C96.3731 20.1814 96.3731 26.614 96.3788 33.0465C96.3788 33.2634 96.3339 33.3287 96.1067 33.3268C94.5778 33.316 93.0489 33.316 91.52 33.3262C91.3005 33.3274 91.2384 33.2761 91.2422 33.051C91.2574 32.2196 91.2486 31.3883 91.2486 30.5341Z" fill="#91A7BC"/>
<path d="M249.853 19.2472C249.073 19.2472 248.293 19.2459 247.513 19.2484C247.382 19.2491 247.265 19.2617 247.249 19.0734C247.135 17.6866 246.268 17.029 245.005 16.7513C243.969 16.5242 242.93 16.5039 241.907 16.7842C240.853 17.0728 240.364 17.8591 240.582 18.8198C240.662 19.1755 240.862 19.4501 241.142 19.6746C241.812 20.2085 242.613 20.4355 243.42 20.6397C244.949 21.0272 246.51 21.2852 248.027 21.7228C248.867 21.965 249.694 22.2377 250.458 22.6771C252.403 23.7951 253.184 25.4869 252.964 27.6924C252.681 30.5371 251.047 32.3215 248.436 33.1554C245.357 34.1389 242.22 34.1022 239.149 33.0514C237.24 32.3989 235.814 31.1503 235.061 29.2245C234.793 28.5409 234.688 27.8218 234.633 27.0925C234.618 26.889 234.682 26.849 234.874 26.8503C236.434 26.8579 237.995 26.856 239.556 26.8529C239.705 26.8529 239.809 26.8516 239.82 27.0577C239.901 28.5561 240.76 29.4515 242.114 29.9106C243.393 30.3443 244.686 30.3336 245.949 29.8307C246.75 29.5117 247.356 28.9873 247.513 28.0761C247.64 27.338 247.404 26.7463 246.803 26.3031C246.258 25.9017 245.615 25.726 244.985 25.5212C243.421 25.0126 241.798 24.7431 240.213 24.3176C239.247 24.0583 238.294 23.764 237.42 23.2555C235.639 22.2187 234.932 20.6657 235.104 18.6346C235.323 16.0556 236.745 14.417 239.11 13.6383C242.101 12.6529 245.155 12.6269 248.148 13.632C250.389 14.3847 251.849 15.9453 252.328 18.329C252.512 19.2484 252.518 19.2472 251.592 19.2472C251.013 19.2472 250.433 19.2472 249.853 19.2472Z" fill="#91A7BC"/>
<path d="M34.7043 13.4789C34.1006 14.6678 33.5203 15.801 32.9514 16.9393C32.878 17.0858 32.7793 17.094 32.6483 17.0934C31.8788 17.0908 31.1087 17.1042 30.3392 17.0851C30.0917 17.0788 30.0519 17.1568 30.0525 17.3838C30.0601 20.6584 30.0582 23.933 30.0557 27.2077C30.0557 27.474 30.0873 27.7359 30.1398 27.9933C30.2987 28.7695 30.6923 29.0948 31.5466 29.1988C32.2857 29.2889 33.021 29.2572 33.7513 29.1329C33.988 29.0929 34.0532 29.136 34.05 29.3884C34.0355 30.5818 34.0329 31.7759 34.0513 32.9693C34.0557 33.249 33.9722 33.3492 33.7045 33.3752C32.38 33.5039 31.0543 33.5552 29.7253 33.4696C28.8723 33.4145 28.0262 33.3238 27.2169 33.0194C25.5374 32.3885 24.6179 31.046 24.616 29.1861C24.6122 25.2672 24.6115 21.3477 24.621 17.4288C24.6217 17.1581 24.5691 17.0794 24.2837 17.0832C22.8833 17.101 21.4823 17.0915 20.0356 17.0915C20.178 16.8106 20.304 16.5601 20.4312 16.3102C20.871 15.4466 21.319 14.5873 21.7443 13.7167C21.8398 13.5201 21.9499 13.4694 22.1531 13.4732C22.8593 13.4852 23.5668 13.4598 24.2724 13.4865C24.5774 13.4979 24.6229 13.392 24.621 13.1199C24.6096 11.3558 24.6191 9.59168 24.6096 7.82754C24.6084 7.59228 24.6514 7.50985 24.9115 7.51175C26.5245 7.5257 28.1382 7.5238 29.7513 7.51302C29.9918 7.51112 30.0652 7.56312 30.0633 7.81803C30.0506 9.60309 30.062 11.3888 30.0506 13.1738C30.0493 13.4199 30.1095 13.4858 30.3582 13.4839C31.7909 13.4725 33.2235 13.4789 34.7043 13.4789Z" fill="#91A7BC"/>
<path d="M205.91 17.13C206.343 16.4064 206.801 15.7292 207.362 15.1223C209.459 12.849 212.796 12.2757 215.386 13.733C215.641 13.8763 215.69 13.9784 215.546 14.2536C214.846 15.5865 214.169 16.9321 213.495 18.2784C213.399 18.4692 213.326 18.4959 213.12 18.4147C211.515 17.7787 209.916 17.8744 208.375 18.6018C207.312 19.1027 206.83 20.0818 206.545 21.1687C206.257 22.2689 206.18 23.3995 206.171 24.5276C206.148 27.3584 206.16 30.1891 206.169 33.0198C206.17 33.2691 206.106 33.3299 205.86 33.328C204.237 33.3166 202.613 33.3172 200.99 33.328C200.764 33.3293 200.716 33.2665 200.716 33.0484C200.723 26.6158 200.723 20.1839 200.716 13.7513C200.716 13.5288 200.77 13.4736 200.992 13.4749C202.542 13.485 204.092 13.4856 205.642 13.4749C205.867 13.4736 205.918 13.5345 205.916 13.7539C205.903 14.8775 205.91 16.0038 205.91 17.13Z" fill="#91A7BC"/>
</svg>
