<svg width="458" height="176" viewBox="0 0 458 176" fill="none" xmlns="http://www.w3.org/2000/svg">
<path d="M414.456 143.755C407.591 143.247 400.186 141.522 394.308 139.06C392.978 138.504 392.038 133.442 391.369 133.187L389.993 126.41C389.814 120.371 389.587 113.699 389.488 111.585L389.308 107.74H394.232L394.858 112.469C397.197 130.139 406.53 139.032 422.733 139.032C433.493 139.032 440.165 134.996 443.524 126.452C444.573 123.787 444.734 122.413 444.755 115.954C444.779 108.603 444.761 108.484 443.046 104.976C440.038 98.8218 436.997 96.7809 421.843 90.7467C417.347 88.9566 412.008 86.6553 409.977 85.6318C396.743 78.9626 390.186 69.5003 390.213 57.1092C390.247 41.2568 399.072 29.815 414.46 25.6732C419.816 24.2323 432.867 24.3894 438.452 25.9635C443.689 27.4385 450.614 30.1803 451.348 31.0715C451.662 31.4513 452.02 35.9379 452.182 41.4958C452.337 46.8625 452.551 52.5065 452.658 54.0379L452.852 56.8224H447.863L446.768 51.2372C444.217 38.2324 438.231 31.3779 427.922 29.6596C419.577 28.2682 409.464 31.4897 405.482 36.806C402.454 40.8479 401.541 44.0139 401.541 50.4579C401.541 55.5813 401.667 56.2752 403.107 59.1348C404.978 62.8489 407.637 65.2783 412.614 67.8212C416.101 69.6027 427.877 74.3257 428.832 74.3257C429.759 74.3257 440.337 79.5993 443.07 81.4244C450.676 86.5017 454.911 93.3152 456.421 102.899C457.158 107.583 457.192 109.145 456.649 113.486C455.418 123.321 452.551 129.414 446.501 135.056C438.746 142.288 429.3 144.852 414.456 143.754V143.755ZM227.334 143.038C210.548 139.823 202.611 130.988 200.402 113.058C200.06 110.288 199.848 93.6421 199.848 69.6983V30.8333H187.193V26.0608H228.849V30.8026L222.126 30.9511L215.403 31.0996L215.25 65.5745C215.048 110.434 215.555 117.658 219.463 125.642C223.318 133.519 230.766 137.442 241.866 137.442C254.454 137.442 261.471 132.735 265.256 121.752C267.678 114.728 267.864 111.017 267.867 69.6855L267.87 30.8342H255.215V26.0608H285.798V30.8342H274.24L274.075 73.1324C273.912 114.985 273.898 115.476 272.737 119.674C269.305 132.077 262.521 139.026 250.733 142.212C245.228 143.7 233.033 144.131 227.335 143.04L227.334 143.038ZM292.753 139.986L292.916 137.706L299.244 137.622L305.572 137.538L305.706 84.202L305.841 30.8666L299.379 30.7172L292.917 30.5687L292.755 28.3143L292.593 26.0608H318.491C334.87 26.0608 345.784 26.2767 348.183 26.6498C357.339 28.0736 363.593 32.118 366.956 38.789C369.856 44.5423 370.749 51.7477 369.396 58.4784C367.945 65.6974 364.951 70.1473 358.949 74.0073C354.893 76.6151 352.28 77.6949 347.229 78.8507C344.909 79.3808 342.814 79.9826 342.575 80.1866C342.336 80.3915 343.759 80.7227 345.739 80.9233C366.108 82.9933 375.03 91.969 375.03 110.392C375.03 120.534 372.635 127.016 366.699 132.944C363.06 136.578 358.644 138.992 352.418 140.747C348.44 141.87 347.231 141.92 320.437 142.091L292.59 142.267L292.753 139.986ZM340.799 136.65C349.8 134.292 355.821 128.053 357.821 119.011C359.079 113.324 358.649 102.9 356.974 98.4582C354.937 93.0574 351.502 88.7339 347.316 86.3002C343.132 83.8674 340.098 83.3416 330.259 83.3416H321.127V137.441H329.453C335.133 137.441 338.739 137.19 340.799 136.65ZM340.77 77.3108C349.489 74.4785 354.575 65.77 354.487 53.8228C354.395 41.3618 348.097 32.3954 338.443 30.9801C336.894 30.7539 332.365 30.6413 328.378 30.73L321.127 30.8914V54.3751C321.127 67.292 321.305 78.0458 321.523 78.2728C322.21 78.9899 338.037 78.1986 340.77 77.3108Z" fill="#91A7BC"/>
<path d="M77.1179 175.227C75.4576 174.745 75.4039 174.64 75.4039 171.87C75.4039 169.066 75.3706 169.003 73.6907 168.675C70.5553 168.064 65.1528 165.583 62.6296 163.594C53.3337 156.27 50.1489 144.816 54.3341 133.769C57.0102 126.704 64.394 120.388 72.3795 118.333C76.2378 117.34 76.0552 116.229 71.9766 115.887L68.8131 115.622V110.318L72.1081 110.16L75.4039 110.002V96.5025C75.4039 89.0778 75.2929 83.0026 75.1589 83.0026C75.0231 83.0026 71.047 86.1652 66.3214 90.0304C61.5958 93.8955 57.0794 97.5695 56.2846 98.1952C55.4899 98.8209 54.8429 99.5371 54.8472 99.7863C54.8514 100.036 55.659 101.195 56.6423 102.362C58.3769 104.421 58.405 104.526 57.5838 105.927C57.1195 106.721 56.0849 107.6 55.2868 107.879C53.9551 108.346 53.6589 108.182 51.7392 105.906C50.23 104.117 49.4822 103.582 49.0631 103.994C48.6414 104.409 48.9453 105.561 50.1694 108.193C51.6325 111.337 51.8885 112.54 52.0968 117.25C52.294 121.72 52.1421 123.32 51.2372 126.311C48.7481 134.531 42.7899 140.523 34.6157 143.027C31.6451 143.937 30.0958 144.086 25.9148 143.868C20.0966 143.563 16.7402 142.432 12.0018 139.18C10.3372 138.037 8.79562 137.112 8.57454 137.124C8.35345 137.136 7.36668 137.84 6.38075 138.687C4.68377 140.147 4.50707 140.188 3.09435 139.453C1.6415 138.697 0 136.269 0 134.875C0 134.495 0.87666 133.445 1.94794 132.54L3.89674 130.895L2.49169 127.635C-3.68334 113.314 2.60608 97.6736 16.6489 92.429C19.1926 91.479 20.8025 91.2732 25.3105 91.3228C31.8269 91.3936 35.0237 92.3932 40.4638 96.0629C44.7686 98.9651 45.8339 98.4811 42.9444 94.9344C40.9888 92.5323 40.958 92.4299 41.7818 91.0505C42.2478 90.2703 43.2688 89.3979 44.0507 89.1102C45.3516 88.6322 45.6597 88.8029 47.6521 91.0957L49.8296 93.6028L61.1673 84.3539C67.4021 79.2672 72.5033 74.8566 72.5033 74.5518C72.5033 74.2479 67.5208 69.9551 61.4311 65.0127L50.3572 56.0267L48.9069 57.4147C47.0443 59.1988 47.0767 60.2444 49.0392 61.7033C50.9701 63.1399 50.9829 63.3951 49.2287 65.4916L47.8373 67.1561L46.1719 65.5326C44.1813 63.5914 43.9645 63.565 42.655 65.1023C40.5184 67.612 40.5022 67.9474 42.457 69.2859C43.4634 69.9748 44.288 70.8053 44.2897 71.1297C44.294 71.8237 42.2726 74.5185 41.7502 74.5151C41.2713 74.5117 31.4164 66.5893 31.2192 66.0473C31.1338 65.8134 33.5649 64.2436 36.6234 62.5586C39.6819 60.8744 42.1838 59.3123 42.1838 59.0869C42.1838 58.8616 41.4984 58.1864 40.6601 57.5863L39.1364 56.4945L33.9977 59.4224C31.1705 61.0323 28.771 62.2624 28.6643 62.1557C28.5585 62.049 29.2764 59.413 30.2589 56.2973L32.0463 50.6319L30.6985 49.5657C29.9575 48.9793 29.1253 48.5755 28.8495 48.6677C28.573 48.7599 27.5367 51.4403 26.5465 54.6234C25.5563 57.8074 24.6515 60.5056 24.5362 60.6217C24.3228 60.8351 13.7099 52.2649 13.7099 51.879C13.7099 51.372 16.0616 48.5277 16.4807 48.5277C16.7359 48.5277 17.7782 49.168 18.7965 49.949L20.6489 51.3703L22.1888 49.7126C23.0356 48.8009 23.7287 47.8884 23.7287 47.6844C23.7287 47.4804 22.8495 46.5499 21.7757 45.6161L19.8226 43.9174L21.1167 42.2742C22.7027 40.2597 22.9178 40.2383 24.8794 41.8986C25.7415 42.6276 26.6259 43.2242 26.8461 43.2242C27.3549 43.2242 30.0642 40.1845 30.0326 39.6485C30.019 39.4265 28.013 37.6945 25.5742 35.7987C20.6386 31.9617 20.2503 31.0526 22.4329 28.4422C25.173 25.1669 22.5712 23.4657 53.7844 48.9332C70.6586 62.7003 74.8089 66.0311 75.0931 66.0311C75.2639 66.0311 75.4039 59.9448 75.4039 52.5056V38.9809H70.1311V44.2844H65.385V38.9809H60.1122V44.2844H55.3662V29.9796L57.8715 30.9741C59.2492 31.5204 61.9006 32.5908 63.7623 33.3531C65.624 34.1154 67.3458 34.7376 67.5856 34.7376C67.8255 34.7376 68.021 33.843 68.0184 32.7487L68.015 30.7598L62.1447 28.4286L56.2736 26.0965L62.1481 23.732L68.0218 21.3675V19.3018C68.0218 18.1647 67.9083 17.2352 67.7692 17.2352C67.63 17.2352 65.0786 18.216 62.1012 19.4144L56.026 21.8583C55.5181 22.0615 55.367 20.4661 55.367 14.9048V7.68836H60.1131V12.9919H65.385V7.68836H70.1311V12.9919H75.4039V0.833848L77.4355 0.284122C78.8695 -0.104272 79.957 -0.094882 81.1273 0.314852L82.7868 0.897016V33.5204C82.7868 61.1091 82.8994 66.1002 83.5174 65.8621C84.1653 65.6119 98.5666 53.9943 123.4 33.6868C127.902 30.0061 131.879 26.8118 132.237 26.5882C133.241 25.9651 134.857 26.6949 135.961 28.2724C138.153 31.4034 138.043 31.6919 133.164 35.5938C130.688 37.5742 128.662 39.3949 128.662 39.6399C128.662 40.3194 130.907 43.2242 131.432 43.2242C131.688 43.2242 132.737 42.5789 133.764 41.7902L135.633 40.357L137.127 42.188L138.622 44.0198L136.545 45.8756L134.467 47.7322L136.115 49.5418C137.244 50.7813 137.968 51.1995 138.412 50.8683C141.979 48.2051 141.808 48.2486 143.166 49.6366C143.853 50.34 144.489 51.1902 144.58 51.5256C144.76 52.1966 134.499 60.8129 133.937 60.463C133.745 60.3434 132.798 57.6093 131.833 54.3869C130.867 51.1646 129.818 48.5354 129.502 48.5457C129.185 48.5551 128.375 49.0237 127.703 49.5879L126.48 50.6131L128.3 56.4655C129.301 59.6836 130.005 62.3179 129.865 62.3179C129.725 62.3179 127.241 60.9802 124.345 59.3456L119.08 56.3724L117.547 57.8492L116.014 59.3268L119.306 61.1569C121.116 62.1642 123.746 63.6375 125.15 64.4323L127.701 65.8774L122.198 70.3973L116.694 74.9172L115.219 73.058L113.744 71.198L115.758 69.4967L117.773 67.7955L116.3 65.8527C115.49 64.7839 114.711 63.909 114.569 63.909C114.428 63.909 113.415 64.6235 112.319 65.4967L110.326 67.0844L108.897 65.1996L107.467 63.3149L109.46 61.582L111.452 59.8501L109.918 57.9175C108.607 56.264 108.253 56.0779 107.477 56.6319C105.241 58.2256 85.4791 74.2804 85.4534 74.5237C85.4364 74.6739 86.7876 75.8672 88.4547 77.1758C90.1227 78.4844 95.3511 82.7175 100.073 86.5826C104.795 90.4478 108.756 93.6104 108.873 93.6104C108.99 93.6104 109.853 92.5366 110.79 91.2237C112.806 88.4 113.909 88.2378 116.102 90.4435L117.7 92.05L116.313 93.759C114.513 95.9749 113.63 97.7624 114.101 98.2353C114.306 98.4419 114.778 98.3813 115.148 98.1004C118.654 95.4346 122.902 92.9933 125.146 92.3556C138.165 88.6561 150.001 93.619 155.688 105.161L157.927 109.708V116.377C157.927 123.268 157.887 123.442 154.72 130.493C154.583 130.796 155.429 131.751 156.599 132.615C158.366 133.919 158.674 134.411 158.419 135.511C158.088 136.941 156.392 139.01 154.879 139.83C154.145 140.228 153.47 139.936 151.799 138.496L149.658 136.652L147.253 138.499C142.326 142.282 137.234 144.006 131.055 143.985C123.745 143.959 118.447 141.793 113.633 136.865C109.894 133.035 107.892 129.519 106.801 124.858C105.404 118.9 105.927 113.628 108.495 107.775C109.495 105.495 109.69 104.549 109.249 104.105C108.807 103.661 108.395 103.838 107.647 104.79C104.421 108.903 104.777 108.682 102.94 107.727C102.023 107.249 101.012 106.369 100.693 105.768C100.089 104.633 100.219 104.334 102.803 100.969L103.872 99.5755L93.8658 91.4252C88.3626 86.942 83.6139 83.1921 83.3143 83.0914C82.9447 82.9676 82.8141 87.2553 82.9088 96.348L83.0497 109.787L86.2012 109.949C89.614 110.126 90.1526 110.538 90.1526 112.97C90.1526 115.401 89.614 115.813 86.2012 115.99C81.7069 116.222 82.0322 117.302 87.0335 118.752C93.6806 120.681 98.4147 124.171 102.181 129.92C106.731 136.864 107.226 146.838 103.413 154.734C100.816 160.112 93.8846 165.976 88.1534 167.645C82.6485 169.247 82.7868 169.135 82.7868 172.045C82.7868 174.497 82.6852 174.691 81.1256 175.238C79.2494 175.895 79.4227 175.896 77.1179 175.227ZM75.5029 159.926C75.6531 157.761 75.8153 157.514 77.3808 157.065C78.4333 156.763 79.7564 156.763 80.8089 157.065C82.3915 157.519 82.5426 157.759 82.7868 160.191C83.03 162.626 83.1504 162.815 84.3685 162.687C86.9353 162.418 92.1184 159.395 94.6119 156.715C98.4813 152.552 99.8735 148.986 99.8855 143.202C99.8914 140.576 99.585 137.527 99.2051 136.426C96.6204 128.931 87.4313 126.819 83.456 132.805C81.0872 136.371 82.3967 141.884 86.0646 143.792C87.6797 144.632 91.579 144.62 93.4646 143.77C94.2815 143.401 94.3865 143.688 94.3865 146.276C94.3865 149.076 94.3182 149.222 92.7262 149.78C88.9379 151.108 83.2323 149.823 80.9822 147.132C80.272 146.283 79.59 145.589 79.4671 145.589C79.3433 145.589 78.4128 146.376 77.3979 147.339C74.4589 150.126 70.1081 151.033 65.8417 149.747L63.8033 149.133V146.243C63.8033 143.674 63.9057 143.403 64.726 143.804C65.2339 144.051 67.1161 144.256 68.9104 144.258C71.8093 144.262 72.3539 144.087 73.7999 142.693C77.0385 139.571 77.0351 134.288 73.7948 131.243C68.9121 126.655 60.8967 130.45 59.0427 138.228C57.1331 146.231 60.3265 154.965 66.7986 159.444C69.42 161.258 74.4128 163.221 74.9754 162.657C75.1742 162.459 75.4115 161.229 75.5029 159.926ZM33.5222 137.134C39.1561 135.142 44.1685 130.37 45.3789 125.847C46.364 122.169 45.5957 119.179 42.9939 116.562C40.9836 114.539 40.4757 114.296 38.2726 114.296C34.0335 114.296 30.8692 116.887 30.2239 120.886C29.7817 123.629 31.681 127.203 34.2649 128.489L36.3101 129.507L34.1419 131.183C32.9494 132.105 31.6554 132.86 31.267 132.86C30.8777 132.86 29.5102 131.886 28.2264 130.696C25.3369 128.016 23.9891 124.752 24.4312 121.503L24.7505 119.164L22.1436 118.804C18.1461 118.251 14.205 114.947 12.6565 110.852C12.1537 109.522 12.2826 109.232 14.0931 107.622C15.1875 106.649 16.2229 105.844 16.3945 105.832C16.5661 105.82 16.9818 106.731 17.3164 107.859C18.1393 110.618 21.4504 112.97 24.5123 112.97C28.6677 112.97 32.1658 109.432 32.1658 105.23C32.1658 100.625 28.2751 97.3194 22.8657 97.3288C13.0995 97.345 4.63853 108.793 6.37478 119.64C6.96804 123.344 8.12725 126.494 8.8972 126.494C9.1789 126.494 10.1298 125.886 11.0082 125.142C12.5455 123.841 12.6676 123.821 14.2323 124.636C15.1269 125.101 16.2605 126.329 16.7513 127.364L17.6442 129.247L15.6766 131.06C14.5951 132.057 13.7099 132.965 13.7099 133.076C13.7099 133.671 19.4615 136.864 21.5563 137.431C25.2533 138.434 30.1931 138.311 33.5222 137.133V137.134ZM139.575 136.343C141.373 135.528 143.271 134.385 143.794 133.803C144.718 132.774 144.698 132.706 143.03 131.305C141.045 129.636 140.875 128.263 142.412 126.298C144.44 123.705 145.391 123.548 147.71 125.423L149.781 127.097L150.954 124.542C151.918 122.44 152.127 121.045 152.127 116.683C152.127 111.937 151.969 111.057 150.638 108.329C148.401 103.747 144.494 99.7249 141.006 98.412C134.786 96.0714 129.469 97.5379 127.153 102.234C125.513 105.563 125.91 107.815 128.619 110.539C132.076 114.018 136.53 113.908 139.708 110.267C140.593 109.254 141.317 107.836 141.317 107.117C141.317 105.422 141.719 105.468 144.097 107.439C146.343 109.302 146.449 109.867 145.06 112.593C143.291 116.062 139.597 118.537 135.971 118.683L133.849 118.768L134.184 121.015C134.692 124.419 133.56 127.43 130.679 130.34C129.307 131.726 127.804 132.86 127.338 132.86C126.872 132.86 125.551 132.1 124.402 131.171L122.314 129.483L123.774 128.852C126.338 127.744 127.735 125.728 128.021 122.715C128.354 119.225 127.12 116.731 124.358 115.313C120.279 113.22 116.422 114.345 114.118 118.299C110.948 123.74 113.981 131.127 121.109 135.329C124.846 137.531 127.477 138.169 132.089 137.99C135.333 137.863 137.063 137.483 139.575 136.343Z" fill="#91A7BC"/>
</svg>
