<svg width="157" height="54" viewBox="0 0 157 54" fill="none" xmlns="http://www.w3.org/2000/svg">
<path d="M13.7744 45.899H5.74456C4.72315 45.899 3.74355 45.4932 3.02131 44.771C2.29906 44.0487 1.89333 43.0692 1.89333 42.0477V27.1563L0.134611 24.2037C0.0464871 24.0551 0 23.8855 0 23.7127C0 23.5399 0.0464871 23.3703 0.134611 23.2217L1.89333 20.2691V5.35841C1.88909 4.84996 1.98556 4.34571 2.17721 3.87475C2.36885 3.40379 2.6519 2.97544 3.00994 2.61441C3.36799 2.25339 3.79393 1.96684 4.26329 1.77129C4.73264 1.57575 5.23609 1.47508 5.74456 1.4751H13.7872V3.40071H5.74456C5.48896 3.40067 5.23594 3.45151 5.0002 3.55029C4.76446 3.64906 4.55073 3.79378 4.37149 3.976C4.19226 4.15822 4.05108 4.3743 3.95622 4.61164C3.86136 4.84899 3.81468 5.10285 3.81894 5.35841V20.513C3.81767 20.6855 3.76882 20.8543 3.67775 21.0008L2.0795 23.6902L3.67775 26.3733C3.76882 26.5198 3.81767 26.6886 3.81894 26.8611V42.0221C3.81894 42.5328 4.02181 43.0226 4.38293 43.3837C4.74405 43.7448 5.23385 43.9477 5.74456 43.9477H13.7872L13.7744 45.899Z" fill="#F4F6F8"/>
<path d="M45.8229 45.899H37.7803V43.9734H45.8229C46.3336 43.9734 46.8234 43.7705 47.1845 43.4094C47.5456 43.0482 47.7485 42.5585 47.7485 42.0477V26.8803C47.7506 26.7088 47.7971 26.5408 47.8833 26.3925L49.488 23.7095L47.8833 21.0201C47.7971 20.8718 47.7506 20.7037 47.7485 20.5322V5.35841C47.7527 5.10285 47.7061 4.84899 47.6113 4.61164C47.5164 4.3743 47.3752 4.15822 47.196 3.976C47.0168 3.79378 46.803 3.64906 46.5673 3.55029C46.3315 3.45151 46.0785 3.40067 45.8229 3.40071H37.7803V1.4751H45.8229C46.3313 1.47508 46.8348 1.57575 47.3041 1.77129C47.7735 1.96684 48.1995 2.25339 48.5575 2.61441C48.9156 2.97544 49.1986 3.40379 49.3902 3.87475C49.5819 4.34571 49.6783 4.84996 49.6741 5.35841V20.2434L51.4329 23.196C51.521 23.3446 51.5675 23.5142 51.5675 23.687C51.5675 23.8598 51.521 24.0294 51.4329 24.1781L49.6741 27.1307V42.0221C49.6741 43.0435 49.2684 44.0231 48.5461 44.7453C47.8239 45.4675 46.8443 45.8733 45.8229 45.8733" fill="#F4F6F8"/>
<path d="M40.0905 25.3717C39.4892 25.3057 38.8823 25.4305 38.3559 25.7285C37.8295 26.0265 37.4101 26.4826 37.1573 27.0322C36.9046 27.5818 36.8312 28.197 36.9475 28.7906C37.0638 29.3843 37.3639 29.9263 37.8054 30.3398C36.9016 32.5158 35.4267 34.4072 33.5364 35.8139C31.6461 37.2206 29.4108 38.0903 27.0669 38.3311V26.0393C28.6866 25.8345 30.2406 25.2729 31.617 24.3949C32.9933 23.5169 34.1577 22.3445 35.0261 20.9621C35.5777 20.9511 36.1146 20.7826 36.5737 20.4767C37.0328 20.1707 37.3949 19.7399 37.6173 19.2351C37.8398 18.7302 37.9133 18.1723 37.8293 17.6271C37.7453 17.0818 37.5072 16.5719 37.1432 16.1574C36.7791 15.7429 36.3042 15.4411 35.7743 15.2875C35.2444 15.1339 34.6817 15.1348 34.1523 15.2903C33.623 15.4458 33.1492 15.7493 32.7865 16.1651C32.4239 16.5809 32.1876 17.0916 32.1056 17.6372C32.0449 18.0266 32.0655 18.4244 32.166 18.8055C32.2665 19.1866 32.4448 19.5428 32.6897 19.8516C32.0469 20.803 31.2167 21.613 30.2499 22.2322C29.283 22.8514 28.1999 23.2666 27.0669 23.4525V11.4367C27.6523 11.1471 28.1226 10.668 28.4013 10.0772C28.68 9.48651 28.7507 8.8189 28.602 8.1829C28.4533 7.5469 28.0938 6.97989 27.5821 6.57401C27.0703 6.16814 26.4363 5.94727 25.7832 5.94727C25.13 5.94727 24.4961 6.16814 23.9843 6.57401C23.4726 6.97989 23.1131 7.5469 22.9644 8.1829C22.8157 8.8189 22.8864 9.48651 23.1651 10.0772C23.4438 10.668 23.914 11.1471 24.4994 11.4367V23.4525C23.3639 23.269 22.2781 22.8548 21.3089 22.2355C20.3396 21.6162 19.5074 20.8049 18.8638 19.8516C19.1087 19.5428 19.287 19.1866 19.3875 18.8055C19.488 18.4244 19.5086 18.0266 19.4479 17.6372C19.3659 17.0919 19.1298 16.5814 18.7675 16.1658C18.4052 15.7501 17.9316 15.4466 17.4026 15.2909C16.8737 15.1352 16.3112 15.1338 15.7815 15.287C15.2518 15.4401 14.7768 15.7413 14.4124 16.1552C14.0481 16.5691 13.8095 17.0784 13.7248 17.6233C13.6401 18.1681 13.7128 18.7259 13.9343 19.2308C14.1558 19.7358 14.5169 20.167 14.9752 20.4737C15.4334 20.7804 15.9697 20.9498 16.521 20.9621C17.3914 22.3468 18.5588 23.5207 19.9387 24.3988C21.3186 25.2769 22.8764 25.8372 24.4994 26.0393V38.3311C22.1521 38.0936 19.9128 37.2254 18.0189 35.8185C16.125 34.4116 14.647 32.5185 13.7417 30.3398C14.2161 29.8916 14.5253 29.2961 14.6188 28.6502C14.7122 28.0042 14.5847 27.3455 14.2568 26.7812C13.9288 26.2168 13.4198 25.7798 12.8122 25.5411C12.2047 25.3025 11.5344 25.2761 10.91 25.4664C10.2856 25.6566 9.7439 26.0523 9.37268 26.5892C9.00146 27.126 8.82254 27.7726 8.86503 28.424C8.90752 29.0753 9.1689 29.6931 9.60672 30.1772C10.0445 30.6614 10.6331 30.9833 11.2769 31.0908C12.3494 33.7955 14.1551 36.1475 16.4909 37.8824C18.8268 39.6172 21.6002 40.6662 24.4994 40.9114V53.4087H27.0669V40.9114C29.9639 40.6639 32.7346 39.6139 35.068 37.8791C37.4013 36.1444 39.2051 33.7937 40.2767 31.0908C40.9639 30.9726 41.5852 30.6098 42.0258 30.0693C42.4665 29.5288 42.6966 28.8472 42.674 28.1502C42.6513 27.4533 42.3773 26.788 41.9024 26.2773C41.4276 25.7666 40.784 25.445 40.0905 25.3717Z" fill="#F4F6F8"/>
<path d="M75.6505 4.51759H73.083C72.8261 4.05383 72.4433 3.67215 71.9788 3.41661C71.5143 3.16107 70.9869 3.04209 70.4577 3.07339C68.4486 3.07339 67.0558 4.50475 67.0558 6.73204C67.0558 8.95933 68.4679 10.4228 70.554 10.4228C71.3073 10.4666 72.0499 10.2277 72.6364 9.75283C73.2229 9.27796 73.611 8.60129 73.7249 7.85531H69.8737V6.1351H75.9329V8.06071C75.6751 9.31267 74.9869 10.4348 73.9879 11.2321C72.9889 12.0295 71.7421 12.4517 70.4641 12.4254C68.9473 12.4254 67.4927 11.8229 66.4202 10.7504C65.3476 9.67784 64.7451 8.22317 64.7451 6.70638C64.7451 5.18958 65.3476 3.73492 66.4202 2.66238C67.4927 1.58985 68.9473 0.987305 70.4641 0.987305C72.961 0.987305 74.9572 2.27105 75.6761 4.49834" fill="#F4F6F8"/>
<path d="M79.8413 12.3482H77.5947V3.45832H79.8413V4.83833C80.1202 4.36801 80.5194 3.9804 80.9977 3.71532C81.476 3.45023 82.0162 3.31722 82.5629 3.32993V5.69844H81.9723C80.6437 5.69844 79.8413 6.21194 79.8413 7.92573V12.3482Z" fill="#F4F6F8"/>
<path d="M87.9545 12.496C85.3871 12.496 83.5 10.6987 83.5 7.90661C83.5 5.11447 85.3293 3.31723 87.9545 3.31723C88.5394 3.2866 89.1243 3.37946 89.6709 3.58977C90.2175 3.80007 90.7137 4.1231 91.1272 4.53784C91.5408 4.95258 91.8624 5.44974 92.0711 5.99698C92.2798 6.54421 92.3709 7.12926 92.3386 7.71405C92.3396 8.00412 92.3181 8.29381 92.2744 8.58056H85.7786C85.781 8.85613 85.8384 9.12845 85.9474 9.38159C86.0563 9.63473 86.2146 9.86361 86.413 10.0549C86.6114 10.2461 86.8459 10.3959 87.1029 10.4954C87.3599 10.5949 87.6342 10.6422 87.9096 10.6346C88.2806 10.6575 88.6497 10.5665 88.9675 10.3738C89.2853 10.181 89.5365 9.89578 89.6876 9.55622H92.1139C91.8484 10.4403 91.2946 11.21 90.5408 11.7428C89.787 12.2756 88.8765 12.5407 87.9545 12.496ZM85.7914 7.07218H90.0086C90.0023 6.80459 89.9418 6.54104 89.8306 6.29754C89.7195 6.05404 89.5601 5.83564 89.362 5.65559C89.164 5.47554 88.9314 5.33759 88.6785 5.25009C88.4255 5.16259 88.1574 5.12738 87.8904 5.14657C87.3603 5.1371 86.8469 5.33167 86.4563 5.69007C86.0656 6.04846 85.8276 6.54327 85.7914 7.07218Z" fill="#F4F6F8"/>
<path d="M97.8588 12.4961C95.2913 12.4961 93.3657 10.6989 93.3657 7.90676C93.3657 5.11462 95.1951 3.31739 97.8588 3.31739C98.4432 3.28769 99.0273 3.38124 99.5731 3.59196C100.119 3.80268 100.614 4.12584 101.027 4.54048C101.44 4.95513 101.761 5.45197 101.969 5.99874C102.178 6.54551 102.269 7.12999 102.236 7.71421C102.241 8.00438 102.219 8.29433 102.172 8.58072H95.6764C95.6806 8.85578 95.7391 9.1273 95.8487 9.37965C95.9582 9.632 96.1166 9.86019 96.3146 10.0511C96.5127 10.242 96.7465 10.3919 97.0027 10.492C97.2589 10.5922 97.5325 10.6407 97.8075 10.6347C98.1792 10.6572 98.5489 10.566 98.8676 10.3734C99.1863 10.1808 99.4389 9.89589 99.5918 9.55637H102.025C101.759 10.4393 101.207 11.2083 100.454 11.7409C99.7016 12.2736 98.7926 12.5394 97.8717 12.4961H97.8588ZM95.7086 7.07234H99.9256C99.9194 6.80474 99.8588 6.5412 99.7477 6.2977C99.6365 6.0542 99.4771 5.8358 99.2791 5.65575C99.081 5.4757 98.8485 5.33775 98.5955 5.25025C98.3425 5.16275 98.0745 5.12753 97.8075 5.14672C97.2774 5.13726 96.764 5.33183 96.3733 5.69022C95.9827 6.04862 95.7447 6.54343 95.7086 7.07234Z" fill="#F4F6F8"/>
<path d="M110.1 7.43804C110.1 6.01309 109.317 5.24285 108.129 5.24285C106.942 5.24285 106.126 6.01309 106.126 7.43804V12.3483H103.88V3.45845H106.126V4.56888C106.447 4.17045 106.855 3.85178 107.32 3.63794C107.784 3.4241 108.292 3.32092 108.803 3.3365C110.87 3.3365 112.346 4.67799 112.346 7.13636V12.3483H110.1V7.43804Z" fill="#F4F6F8"/>
<path d="M69.135 33.0037C66.8114 33.0037 65.0142 31.7841 64.9821 29.6659H67.3634C67.3684 29.8784 67.4174 30.0876 67.5075 30.2801C67.5976 30.4726 67.7266 30.6444 67.8866 30.7844C68.0465 30.9244 68.2338 31.0296 68.4365 31.0935C68.6393 31.1573 68.8531 31.1782 69.0644 31.1551C70.1235 31.1551 70.7461 30.5966 70.7461 29.7943C70.7461 27.368 64.9692 28.8315 64.9692 24.7684C64.9692 22.7465 66.606 21.5591 68.9168 21.5591C71.2275 21.5591 72.768 22.7337 72.922 24.7684H70.4572C70.4197 24.3793 70.2302 24.0207 69.9296 23.7707C69.6291 23.5206 69.242 23.3994 68.8525 23.4334C67.9667 23.4013 67.3121 23.8377 67.3121 24.7492C67.3121 26.9957 73.0504 25.7441 73.0504 29.6916C73.0504 31.4567 71.6382 33.0486 69.09 33.0486" fill="#F4F6F8"/>
<path d="M78.9883 33.036C78.0826 33.0271 77.1998 32.7504 76.451 32.2408C75.7022 31.7311 75.1209 31.0113 74.7804 30.1719C74.4399 29.3326 74.3555 28.4113 74.5376 27.524C74.7197 26.6367 75.1603 25.8232 75.8039 25.1858C76.4475 24.5485 77.2653 24.1158 78.1543 23.9424C79.0433 23.7689 79.9638 23.8624 80.7997 24.211C81.6357 24.5597 82.3498 25.1479 82.8521 25.9016C83.3545 26.6553 83.6225 27.5408 83.6226 28.4466C83.6435 29.0587 83.5377 29.6686 83.3116 30.2379C83.0855 30.8072 82.7441 31.3235 82.3089 31.7545C81.8737 32.1855 81.354 32.5219 80.7826 32.7424C80.2111 32.9629 79.6002 33.0629 78.9883 33.036ZM78.9883 31.1103C80.1758 31.1103 81.3119 30.2438 81.3119 28.4787C81.3119 26.7135 80.2079 25.847 79.0204 25.847C77.833 25.847 76.761 26.6943 76.761 28.4787C76.761 30.2631 77.788 31.1103 78.9883 31.1103Z" fill="#F4F6F8"/>
<path d="M85.5225 25.847H84.5083V23.9984H85.5225V23.5491C85.5225 21.3667 86.7549 20.3397 89.2582 20.4232V22.3167C88.167 22.2846 87.8011 22.6376 87.8011 23.6325V23.9984H89.3545V25.847H87.8011V32.9076H85.5225V25.847Z" fill="#F4F6F8"/>
<path d="M91.1704 25.847H90.1113V23.9984H91.1704V21.8032H93.4298V23.9984H95.4196V25.847H93.4298V30.1475C93.4298 30.7381 93.6673 30.9948 94.3734 30.9948H95.4196V32.8883H94.0075C92.3066 32.8883 91.1704 32.1694 91.1704 30.1283V25.847Z" fill="#F4F6F8"/>
<path d="M96.0493 23.9985H98.3278L99.8936 30.7703L101.595 23.9985H103.97L105.639 30.7574L107.211 23.9985H109.361L106.762 32.8884H104.342L102.718 26.6816L101.1 32.8884H98.6613L96.0493 23.9985Z" fill="#F4F6F8"/>
<path d="M114.066 23.8569C114.633 23.838 115.195 23.9565 115.706 24.2025C116.217 24.4484 116.661 24.8143 116.999 25.269V23.9853H119.265V32.8752H116.999V31.5915C116.663 32.0552 116.218 32.4294 115.703 32.6812C115.188 32.933 114.619 33.0547 114.047 33.0357C111.8 33.0357 110.009 31.1871 110.009 28.4142C110.009 25.6413 111.8 23.8569 114.066 23.8569ZM114.644 25.8275C114.317 25.8299 113.995 25.8997 113.697 26.0325C113.399 26.1653 113.131 26.3584 112.911 26.5994C112.691 26.8405 112.524 27.1244 112.418 27.4334C112.313 27.7424 112.273 28.0698 112.301 28.395C112.301 30.0767 113.437 31.0395 114.644 31.0395C114.974 31.0355 115.3 30.9633 115.601 30.8272C115.902 30.6911 116.172 30.4942 116.393 30.2488C116.614 30.0034 116.783 29.7148 116.887 29.4013C116.991 29.0878 117.029 28.7561 116.999 28.4271C116.999 26.7389 115.876 25.8082 114.644 25.8082" fill="#F4F6F8"/>
<path d="M123.707 32.8881H121.467V23.9983H123.707V25.3783C123.988 24.9083 124.389 24.5212 124.868 24.2563C125.347 23.9913 125.888 23.858 126.435 23.8699V26.2384H125.845C124.51 26.2384 123.707 26.7519 123.707 28.4657V32.8881Z" fill="#F4F6F8"/>
<path d="M131.827 33.036C129.26 33.036 127.373 31.2388 127.373 28.4466C127.373 25.6545 129.196 23.8573 131.827 23.8573C132.412 23.8266 132.997 23.9195 133.543 24.1298C134.09 24.3401 134.586 24.6631 135 25.0779C135.413 25.4926 135.735 25.9898 135.944 26.537C136.152 27.0843 136.243 27.6693 136.211 28.2541C136.212 28.5442 136.191 28.8338 136.147 29.1206H129.626C129.63 29.3962 129.688 29.6683 129.798 29.921C129.908 30.1738 130.067 30.4023 130.266 30.5933C130.465 30.7843 130.699 30.934 130.956 31.0338C131.213 31.1335 131.487 31.1814 131.763 31.1746C132.134 31.1975 132.503 31.1065 132.821 30.9138C133.139 30.7211 133.39 30.4358 133.541 30.0963H135.967C135.702 30.9803 135.148 31.7501 134.394 32.2828C133.64 32.8156 132.73 33.0808 131.808 33.036H131.827ZM129.645 27.6122H133.862C133.856 27.3446 133.795 27.0811 133.684 26.8376C133.573 26.5941 133.413 26.3757 133.215 26.1956C133.017 26.0156 132.785 25.8776 132.532 25.7901C132.279 25.7026 132.011 25.6674 131.744 25.6866C131.214 25.6771 130.7 25.8717 130.31 26.2301C129.919 26.5885 129.681 27.0833 129.645 27.6122Z" fill="#F4F6F8"/>
<path d="M65.2715 42.2339H72.1841V44.0439H67.518V46.9131H71.0928V48.6975H67.518V53.4281H65.2715V42.2339Z" fill="#F4F6F8"/>
<path d="M77.7241 53.576C76.8184 53.5671 75.9355 53.2905 75.1867 52.7808C74.438 52.2712 73.8567 51.5513 73.5162 50.712C73.1758 49.8726 73.0913 48.9513 73.2734 48.064C73.4556 47.1768 73.8961 46.3632 74.5397 45.7259C75.1833 45.0885 76.0011 44.6559 76.8901 44.4824C77.7791 44.3089 78.6996 44.4024 79.5356 44.7511C80.3716 45.0997 81.0856 45.6879 81.588 46.4416C82.0903 47.1953 82.3584 48.0809 82.3584 48.9866C82.3794 49.5988 82.2735 50.2087 82.0474 50.7779C81.8214 51.3472 81.48 51.8636 81.0448 52.2946C80.6095 52.7256 80.0899 53.0619 79.5184 53.2824C78.947 53.503 78.3361 53.6029 77.7241 53.576ZM77.7241 51.6504C78.9116 51.6504 80.0477 50.7839 80.0477 49.0187C80.0477 47.2536 78.9372 46.3871 77.7562 46.3871C76.5751 46.3871 75.4904 47.2343 75.4904 49.0187C75.4904 50.8031 76.5174 51.6504 77.7241 51.6504Z" fill="#F4F6F8"/>
<path d="M92.3965 53.428H90.1307V52.3047C89.8168 52.7029 89.4144 53.0223 88.9552 53.2374C88.4961 53.4525 87.993 53.5573 87.4862 53.5435C85.4193 53.5435 83.9238 52.1956 83.9238 49.7565V44.5381H86.1704V49.4356C86.1704 50.8605 86.9598 51.6308 88.1409 51.6308C89.3219 51.6308 90.1307 50.8605 90.1307 49.4356V44.5381H92.3965V53.428Z" fill="#F4F6F8"/>
<path d="M100.844 48.5177C100.844 47.0928 100.054 46.3225 98.8733 46.3225C97.6922 46.3225 96.8642 47.0928 96.8642 48.5177V53.428H94.6177V44.5381H96.8642V45.6486C97.1857 45.2496 97.5953 44.9307 98.0608 44.7169C98.5264 44.503 99.0352 44.4001 99.5473 44.4162C101.614 44.4162 103.09 45.7577 103.09 48.216V53.428H100.844V48.5177Z" fill="#F4F6F8"/>
<path d="M108.726 44.3971C109.283 44.3903 109.834 44.5111 110.337 44.7503C110.84 44.9896 111.281 45.3408 111.627 45.7772V41.5601H113.906V53.4282H111.653V52.1124C111.332 52.5857 110.895 52.9688 110.384 53.225C109.872 53.4812 109.304 53.602 108.732 53.5759C106.473 53.5759 104.676 51.7273 104.676 48.9544C104.676 46.1815 106.473 44.3971 108.752 44.3971H108.726ZM109.31 46.3677C108.984 46.371 108.662 46.4414 108.365 46.5746C108.067 46.7078 107.8 46.9008 107.58 47.1417C107.36 47.3825 107.192 47.6661 107.087 47.9746C106.982 48.2832 106.941 48.6101 106.967 48.9351C106.938 49.2645 106.977 49.5964 107.08 49.9104C107.184 50.2244 107.35 50.514 107.57 50.7615C107.789 51.009 108.056 51.2092 108.356 51.3498C108.655 51.4905 108.98 51.5687 109.31 51.5797C110.549 51.5797 111.666 50.649 111.666 48.9673C111.666 47.2856 110.549 46.3484 109.31 46.3484" fill="#F4F6F8"/>
<path d="M119.586 44.397C120.153 44.378 120.716 44.4966 121.227 44.7425C121.737 44.9884 122.181 45.3544 122.52 45.8091V44.5253H124.786V53.4153H122.52V52.1315C122.183 52.5953 121.738 52.9695 121.223 53.2212C120.709 53.473 120.14 53.5947 119.567 53.5757C117.327 53.5757 115.53 51.7271 115.53 48.9543C115.53 46.1814 117.327 44.397 119.586 44.397ZM120.164 46.3675C119.838 46.3699 119.515 46.4397 119.217 46.5725C118.919 46.7054 118.652 46.8984 118.432 47.1395C118.212 47.3805 118.044 47.6645 117.939 47.9735C117.834 48.2824 117.794 48.6098 117.821 48.935C117.821 50.6167 118.957 51.5795 120.164 51.5795C120.494 51.5756 120.82 51.5033 121.122 51.3672C121.423 51.2311 121.692 51.0342 121.914 50.7888C122.135 50.5434 122.303 50.2549 122.407 49.9414C122.512 49.6278 122.55 49.2961 122.52 48.9671C122.52 47.279 121.396 46.3483 120.164 46.3483" fill="#F4F6F8"/>
<path d="M127.34 46.3871H126.281V44.5385H127.34V42.3433H129.625V44.5385H131.615V46.3871H129.625V50.6876C129.625 51.2781 129.863 51.5349 130.569 51.5349H131.615V53.4284H130.203C128.502 53.4284 127.366 52.7095 127.366 50.6683L127.34 46.3871Z" fill="#F4F6F8"/>
<path d="M132.97 42.1697C132.95 41.8934 133.015 41.6178 133.154 41.3785C133.293 41.1393 133.502 40.9475 133.751 40.8282C134.001 40.7088 134.281 40.6674 134.555 40.7092C134.829 40.7511 135.084 40.8743 135.286 41.0629C135.489 41.2515 135.63 41.4968 135.692 41.7668C135.753 42.0367 135.732 42.319 135.631 42.5768C135.53 42.8346 135.354 43.0561 135.125 43.2124C134.897 43.3688 134.627 43.4527 134.35 43.4534C134.174 43.462 133.999 43.4354 133.834 43.3752C133.669 43.3149 133.518 43.2222 133.389 43.1026C133.26 42.9829 133.157 42.8388 133.085 42.6785C133.013 42.5183 132.974 42.3453 132.97 42.1697ZM133.214 44.5382H135.46V53.4281H133.214V44.5382Z" fill="#F4F6F8"/>
<path d="M141.616 53.5759C140.71 53.5658 139.828 53.2881 139.08 52.7776C138.332 52.2672 137.752 51.547 137.412 50.7076C137.073 49.8681 136.989 48.947 137.172 48.0601C137.355 47.1733 137.796 46.3604 138.44 45.7237C139.084 45.087 139.902 44.6549 140.79 44.482C141.679 44.309 142.599 44.4028 143.435 44.7517C144.271 45.1005 144.984 45.6887 145.486 46.4422C145.988 47.1958 146.256 48.0811 146.256 48.9866C146.276 49.599 146.17 50.2091 145.943 50.7783C145.716 51.3476 145.374 51.8639 144.938 52.2948C144.503 52.7257 143.983 53.0619 143.411 53.2824C142.839 53.5029 142.228 53.6028 141.616 53.5759ZM141.616 51.6503C142.803 51.6503 143.946 50.7838 143.946 49.0186C143.946 47.2535 142.835 46.387 141.648 46.387C140.46 46.387 139.388 47.2342 139.388 49.0186C139.388 50.803 140.415 51.6503 141.616 51.6503Z" fill="#F4F6F8"/>
<path d="M154.132 48.5177C154.132 47.0928 153.349 46.3225 152.161 46.3225C150.974 46.3225 150.152 47.0928 150.152 48.5177V53.428H147.912V44.5381H150.165V45.6486C150.487 45.2496 150.896 44.9307 151.362 44.7169C151.827 44.503 152.336 44.4001 152.848 44.4162C154.915 44.4162 156.391 45.7577 156.391 48.216V53.428H154.145L154.132 48.5177Z" fill="#F4F6F8"/>
</svg>
