<svg width="347" height="68" viewBox="0 0 347 68" fill="none" xmlns="http://www.w3.org/2000/svg">
<path d="M21.2 67.7H9.1C5.9 67.7 3.2 65.1 3.2 61.8V39.4L0.6 35C0.3 34.5 0.3 34 0.6 33.5L3.2 29.1V6.5C3.2 3.3 5.8 0.599998 9.1 0.599998H21.2V3.5H9.1C7.5 3.5 6.2 4.8 6.2 6.4V29.3C6.2 29.6 6.1 29.8 6 30L3.6 34L6 38C6.1 38.2 6.2 38.5 6.2 38.7V61.6C6.2 63.2 7.5 64.5 9.1 64.5H21.2V67.7ZM69.6 67.7H57.5V64.8H69.6C71.2 64.8 72.5 63.5 72.5 61.9V39C72.5 38.7 72.6 38.5 72.7 38.3L75.1 34.3L72.7 30.3C72.6 30.1 72.5 29.8 72.5 29.6V6.5C72.5 4.9 71.2 3.6 69.6 3.6H57.5V0.700001H69.6C72.8 0.700001 75.5 3.3 75.5 6.6V29L78.2 33.4C78.5 33.9 78.5 34.4 78.2 34.9L75.5 39.3V61.8C75.4 65 72.8 67.7 69.6 67.7Z" fill="#AECC53"/>
<path d="M55.8 16.9L55.5 16.6C53.5 14.8 51.3 13.3 48.8 12.2C48.7 12.2 48.6 12.1 48.5 12.1C45.7 10.9 42.6 10.3 39.4 10.3C37 10.3 33.5 10.6 31.1 13.2C28.3 16.2 27.8 21.2 30.1 25.3C32.7 30 36.6 33.1 41.2 34.1C41.9 34.3 42.7 34.4 43.5 34.5C45.4 34.8 47.2 35.1 48.7 35.9C49.3 36.3 50 36.8 50.5 37.4C50 38.2 49.9 39.2 50.3 40.2C51 41.9 52.9 42.7 54.6 42C56.3 41.3 57.1 39.4 56.4 37.7C55.8 36.3 54.4 35.5 52.9 35.7C52.1 34.8 51.1 34 50.1 33.4C48.1 32.3 46 31.9 43.9 31.6C43.2 31.5 42.5 31.4 41.8 31.2C37 30.2 34.2 26.7 32.7 23.9C31.4 21.5 31 17.7 33.3 15.2C34.5 13.9 36.5 13.3 39.5 13.3C40.1 13.3 40.7 13.3 41.3 13.4C39.9 14.6 39.1 16.3 39.2 18.1C39.2 20.4 40.5 22.6 42.9 24.6C46.7 27.7 49.5 28.3 51.3 28.3C52 28.3 52.6 28.2 53.1 28.1C55.3 27.8 57.2 26.2 58 24.3C59.6 27.2 60.5 30.6 60.5 34.2C60.5 40.2 57.9 46 53.3 50C52.7 50.5 52.6 51.4 53.2 52C53.5 52.3 53.9 52.5 54.3 52.5C54.6 52.5 55 52.4 55.3 52.1C60.5 47.6 63.5 41 63.5 34.1C63.2 27.4 60.3 21.3 55.8 16.9ZM55.3 22.5C55.1 23.8 53.9 25 52.4 25.2C51.3 25.4 49 25.8 44.6 22.2C42.8 20.8 42 19.4 41.9 17.9C41.9 16.6 42.6 15.4 43.8 14.9C44.9 14.4 46.2 14.3 47.4 14.7C49.7 15.7 51.8 17.1 53.6 18.8C54.9 20.3 55.4 21.5 55.3 22.5Z" fill="white"/>
<path d="M40.5 41.9C38.8 41.5 37.2 41.2 36 40.6C32.4 38.9 30.1 37.3 29 35.5C28.4 34.6 27.9 33.7 27.5 32.7C28.3 32 28.7 31 28.5 29.9C28.3 28.1 26.6 26.8 24.8 27.1C23 27.4 21.7 29 22 30.8C22.2 32.3 23.3 33.3 24.7 33.6C25.2 34.9 25.8 36.1 26.5 37.2C28.4 40.2 32.1 42.1 34.7 43.3C36.2 44 38.1 44.4 39.8 44.8C43.2 45.5 46.3 46.2 47.7 48.7C48.2 49.7 48.3 51.2 47.8 52.1C46.5 54.8 42.7 55.1 39.2 55.1C27.7 55.1 18.3 45.7 18.3 34.2C18.3 28.1 21 22.3 25.6 18.3C26.2 17.8 26.3 16.9 25.8 16.3C25.3 15.7 24.4 15.6 23.8 16.1C18.5 20.6 15.4 27.2 15.4 34.2C15.4 47.3 26.1 58 39.2 58C41.9 58 48.1 58 50.4 53.4C51.3 51.6 51.2 49.2 50.2 47.3C48.4 43.6 44.2 42.7 40.5 41.9ZM110.2 15.8H107.3C106.7 14.7 105.7 14.2 104.4 14.2C102.2 14.2 100.6 15.8 100.6 18.3C100.6 20.8 102.2 22.4 104.5 22.4C106.4 22.4 107.7 21.3 108 19.5H103.7V17.6H110.4V19.8C109.9 22.3 107.6 24.7 104.3 24.7C100.7 24.7 97.9 22.1 97.9 18.3C97.9 14.6 100.6 11.9 104.3 11.9C107.2 11.9 109.4 13.3 110.2 15.8ZM114.9 24.5H112.4V14.6H114.9V16.1C115.5 15.1 116.6 14.4 117.9 14.4V17H117.2C115.7 17 114.8 17.6 114.8 19.5V24.5H114.9ZM123.9 24.6C121 24.6 118.9 22.6 118.9 19.5C118.9 16.4 120.9 14.4 123.9 14.4C126.8 14.4 128.8 16.3 128.8 19.3C128.8 19.6 128.8 19.9 128.7 20.3H121.5C121.6 21.8 122.6 22.6 123.9 22.6C125 22.6 125.6 22.1 125.9 21.4H128.6C128 23.2 126.4 24.6 123.9 24.6ZM121.5 18.6H126.2C126.2 17.3 125.1 16.5 123.8 16.5C122.7 16.5 121.7 17.2 121.5 18.6ZM134.9 24.6C132 24.6 129.9 22.6 129.9 19.5C129.9 16.4 131.9 14.4 134.9 14.4C137.8 14.4 139.8 16.3 139.8 19.3C139.8 19.6 139.8 19.9 139.7 20.3H132.5C132.6 21.8 133.6 22.6 134.9 22.6C136 22.6 136.6 22.1 136.9 21.4H139.6C139 23.2 137.4 24.6 134.9 24.6ZM132.5 18.6H137.2C137.2 17.3 136.1 16.5 134.8 16.5C133.7 16.5 132.7 17.2 132.5 18.6ZM148.5 19C148.5 17.4 147.6 16.6 146.3 16.6C144.9 16.6 144.1 17.5 144.1 19V24.5H141.6V14.6H144.1V15.8C144.7 15 145.8 14.4 147.1 14.4C149.4 14.4 151 15.9 151 18.6V24.4H148.5V19ZM162 24.6C159.4 24.6 157.4 23.2 157.4 20.9H160.1C160.2 21.9 160.8 22.6 162 22.6C163.2 22.6 163.9 22 163.9 21.1C163.9 18.4 157.5 20 157.5 15.5C157.5 13.3 159.3 11.9 161.9 11.9C164.5 11.9 166.2 13.2 166.4 15.4H163.7C163.6 14.6 163 13.9 161.9 13.9C160.9 13.9 160.2 14.3 160.2 15.4C160.2 17.9 166.6 16.5 166.6 20.9C166.4 22.8 164.8 24.6 162 24.6ZM172.9 24.6C170 24.6 167.9 22.6 167.9 19.5C167.9 16.4 170.1 14.4 173 14.4C175.9 14.4 178.1 16.4 178.1 19.5C178.1 22.6 175.8 24.6 172.9 24.6ZM172.9 22.5C174.2 22.5 175.5 21.5 175.5 19.6C175.5 17.6 174.3 16.7 172.9 16.7C171.5 16.7 170.4 17.6 170.4 19.6C170.4 21.5 171.6 22.5 172.9 22.5ZM180.2 16.6H179V14.5H180.1V14C180.1 11.6 181.5 10.5 184.3 10.5V12.6C183.1 12.6 182.7 13 182.7 14.1V14.5H184.4V16.6H182.7V24.4H180.2V16.6ZM186.4 16.6H185.2V14.5H186.4V12.1H188.9V14.5H191.1V16.6H189V21.4C189 22.1 189.3 22.3 190.1 22.3H191.3V24.4H189.7C187.8 24.4 186.5 23.6 186.5 21.3V16.6H186.4ZM191.9 14.6H194.4L196.1 22.1L198 14.6H200.6L202.5 22.1L204.2 14.6H206.6L203.7 24.5H201L199.2 17.6L197.4 24.5H194.7L191.9 14.6ZM211.9 14.4C213.5 14.4 214.6 15.1 215.2 16V14.6H217.7V24.5H215.2V23C214.6 23.9 213.5 24.6 211.9 24.6C209.4 24.6 207.4 22.5 207.4 19.5C207.4 16.4 209.4 14.4 211.9 14.4ZM212.5 16.6C211.2 16.6 209.9 17.6 209.9 19.5C209.9 21.4 211.2 22.4 212.5 22.4C213.9 22.4 215.1 21.4 215.1 19.5C215.2 17.7 213.9 16.6 212.5 16.6ZM222.6 24.5H220.1V14.6H222.6V16.1C223.2 15.1 224.3 14.4 225.6 14.4V17H225C223.5 17 222.6 17.6 222.6 19.5V24.5ZM231.6 24.6C228.7 24.6 226.6 22.6 226.6 19.5C226.6 16.4 228.6 14.4 231.6 14.4C234.5 14.4 236.5 16.3 236.5 19.3C236.5 19.6 236.5 19.9 236.4 20.3H229.2C229.3 21.8 230.3 22.6 231.6 22.6C232.7 22.6 233.3 22.1 233.6 21.4H236.3C235.7 23.2 234.1 24.6 231.6 24.6ZM229.2 18.6H233.9C233.9 17.3 232.8 16.5 231.5 16.5C230.4 16.5 229.4 17.2 229.2 18.6ZM242.6 12H250.3V14H245.1V17.2H249.1V19.2H245.1V24.5H242.6V12ZM256.4 24.6C253.5 24.6 251.4 22.6 251.4 19.5C251.4 16.4 253.6 14.4 256.5 14.4C259.4 14.4 261.6 16.4 261.6 19.5C261.6 22.6 259.3 24.6 256.4 24.6ZM256.4 22.5C257.7 22.5 259 21.5 259 19.6C259 17.6 257.8 16.7 256.4 16.7C255 16.7 253.9 17.6 253.9 19.6C253.9 21.5 255.1 22.5 256.4 22.5ZM272.7 24.5H270.2V23.3C269.6 24.1 268.5 24.7 267.3 24.7C265 24.7 263.3 23.2 263.3 20.5V14.7H265.8V20C265.8 21.6 266.7 22.4 268 22.4C269.4 22.4 270.2 21.5 270.2 20V14.6H272.7V24.5ZM282.1 19C282.1 17.4 281.2 16.6 279.9 16.6C278.5 16.6 277.7 17.5 277.7 19V24.5H275.2V14.6H277.7V15.8C278.3 15 279.4 14.4 280.7 14.4C283 14.4 284.6 15.9 284.6 18.6V24.4H282.1V19ZM290.9 14.4C292.2 14.4 293.4 15 294.1 15.9V11.2H296.6V24.4H294.1V23C293.5 23.9 292.4 24.6 290.9 24.6C288.4 24.6 286.4 22.5 286.4 19.5C286.3 16.4 288.3 14.4 290.9 14.4ZM291.5 16.6C290.2 16.6 288.9 17.6 288.9 19.5C288.9 21.4 290.2 22.4 291.5 22.4C292.9 22.4 294.1 21.4 294.1 19.5C294.1 17.7 292.9 16.6 291.5 16.6ZM303 14.4C304.6 14.4 305.7 15.1 306.3 16V14.6H308.8V24.5H306.3V23C305.7 23.9 304.6 24.6 303 24.6C300.5 24.6 298.5 22.5 298.5 19.5C298.4 16.4 300.4 14.4 303 14.4ZM303.6 16.6C302.3 16.6 301 17.6 301 19.5C301 21.4 302.3 22.4 303.6 22.4C305 22.4 306.2 21.4 306.2 19.5C306.2 17.7 305 16.6 303.6 16.6ZM311.6 16.6H310.4V14.5H311.6V12.1H314.1V14.5H316.3V16.6H314.1V21.4C314.1 22.1 314.4 22.3 315.2 22.3H316.4V24.4H314.8C312.9 24.4 311.6 23.6 311.6 21.3V16.6ZM317.8 12C317.8 11.2 318.4 10.5 319.3 10.5C320.2 10.5 320.8 11.1 320.8 12C320.8 12.8 320.1 13.5 319.3 13.5C318.5 13.4 317.8 12.8 317.8 12ZM318.1 14.6H320.6V24.5H318.1V14.6ZM327.4 24.6C324.5 24.6 322.4 22.6 322.4 19.5C322.4 16.4 324.6 14.4 327.5 14.4C330.4 14.4 332.6 16.4 332.6 19.5C332.6 22.6 330.3 24.6 327.4 24.6ZM327.4 22.5C328.7 22.5 330 21.5 330 19.6C330 17.6 328.8 16.7 327.4 16.7C326.1 16.7 324.9 17.6 324.9 19.6C325 21.5 326.1 22.5 327.4 22.5ZM341.4 19C341.4 17.4 340.5 16.6 339.2 16.6C337.8 16.6 337 17.5 337 19V24.5H334.5V14.6H337V15.8C337.6 15 338.7 14.4 340 14.4C342.3 14.4 343.9 15.9 343.9 18.6V24.4H341.4V19ZM114.2 44.1H110.4C109.7 42.7 108.3 42 106.6 42C103.7 42 101.7 44.1 101.7 47.3C101.7 50.6 103.8 52.7 106.8 52.7C109.3 52.7 110.9 51.3 111.4 48.9H105.8V46.4H114.6V49.2C113.9 52.5 111 55.5 106.6 55.5C101.9 55.5 98.3 52.1 98.3 47.2C98.3 42.3 101.9 38.9 106.6 38.9C110.2 39 113.1 40.8 114.2 44.1ZM120.3 39.2V52.9H125.7V55.5H117V39.2H120.3ZM135.3 55.6C130.7 55.6 126.9 52.1 126.9 47.2C126.9 42.3 130.7 38.9 135.3 38.9C139.9 38.9 143.6 42.4 143.6 47.2C143.6 52.2 139.9 55.6 135.3 55.6ZM135.3 52.7C138.2 52.7 140.3 50.6 140.3 47.3C140.3 44 138.3 41.9 135.3 41.9C132.3 41.9 130.3 44 130.3 47.3C130.3 50.6 132.3 52.7 135.3 52.7ZM153 55.4H146V39.2H152.7C156.1 39.2 158 41 158 43.4C158 45.4 156.8 46.6 155.2 47.1C157 47.4 158.3 49.1 158.3 51C158.4 53.6 156.4 55.4 153 55.4ZM152.3 41.8H149.3V45.9H152.3C153.8 45.9 154.7 45.2 154.7 43.9C154.7 42.6 153.8 41.8 152.3 41.8ZM152.5 48.4H149.3V52.8H152.6C154.2 52.8 155.1 52 155.1 50.7C155.1 49.2 154.1 48.4 152.5 48.4ZM171 52.3H164.5L163.4 55.4H160L165.9 39.1H169.7L175.6 55.4H172.1L171 52.3ZM167.8 42.9L165.4 49.7H170.1L167.8 42.9ZM181 39.2V52.9H186.4V55.5H177.8V39.2H181ZM199.6 55.6C196.2 55.6 193.6 53.8 193.6 50.7H197.1C197.2 52 198.1 52.9 199.6 52.9C201.1 52.9 202 52.1 202 50.9C202 47.4 193.6 49.5 193.6 43.6C193.6 40.7 196 38.9 199.3 38.9C202.6 38.9 204.9 40.6 205.1 43.5H201.5C201.4 42.4 200.6 41.6 199.2 41.6C197.9 41.6 197 42.2 197 43.5C197 46.8 205.3 44.9 205.3 50.7C205.4 53.3 203.3 55.6 199.6 55.6ZM208.1 39.2H211.4V49.3C211.4 51.5 212.6 52.7 214.7 52.7C216.8 52.7 218 51.5 218 49.3V39.2H221.3V49.3C221.3 53.6 218.2 55.7 214.7 55.7C211.1 55.7 208.2 53.6 208.2 49.3V39.2H208.1ZM224.4 39.2H228.1L233.3 51.3L238.5 39.2H242.2V55.5H238.9V44.9L234.5 55.5H232L227.6 44.9V55.5H224.3V39.2H224.4ZM245.4 39.2H249.1L254.3 51.3L259.5 39.2H263.2V55.5H259.9V44.9L255.5 55.5H253L248.6 44.9V55.5H245.3V39.2H245.4ZM266.4 39.2H269.7V55.5H266.4V39.2ZM272 39.2H283.9V41.8H279.6V55.4H276.3V41.8H272V39.2ZM293.5 51.8C294.9 50.6 296.1 49.6 297 48.8C297.9 48 298.6 47.2 299.2 46.3C299.8 45.4 300.1 44.6 300.1 43.7C300.1 42.9 299.9 42.3 299.6 41.9C299.2 41.5 298.7 41.2 297.9 41.2C297.1 41.2 296.6 41.5 296.2 42C295.8 42.5 295.6 43.2 295.6 44.1H292.5C292.6 42.3 293.1 40.9 294.1 40C295.1 39.1 296.4 38.6 298 38.6C299.7 38.6 301 39.1 302 40C302.9 40.9 303.4 42.1 303.4 43.6C303.4 44.8 303.1 45.9 302.4 47C301.8 48.1 301 49 300.2 49.8C299.4 50.6 298.3 51.5 297 52.7H303.7V55.3H292.5V52.9L293.5 51.8ZM306.9 40.8C307.8 39.3 309.4 38.6 311.6 38.6C313.8 38.6 315.4 39.3 316.3 40.8C317.2 42.3 317.7 44.3 317.7 46.9C317.7 49.5 317.2 51.6 316.3 53.1C315.4 54.6 313.8 55.3 311.6 55.3C309.4 55.3 307.8 54.6 306.9 53.1C306 51.6 305.5 49.5 305.5 46.9C305.5 44.3 306 42.3 306.9 40.8ZM314.4 44.1C314.3 43.3 314 42.7 313.5 42.2C313.1 41.7 312.4 41.5 311.6 41.5C310.8 41.5 310.1 41.7 309.7 42.2C309.3 42.7 309 43.3 308.8 44.1C308.7 44.9 308.6 45.8 308.6 46.9C308.6 48 308.7 49 308.8 49.8C308.9 50.6 309.2 51.2 309.7 51.7C310.1 52.2 310.8 52.4 311.6 52.4C312.4 52.4 313.1 52.2 313.5 51.7C313.9 51.2 314.2 50.6 314.4 49.8C314.5 49 314.6 48.1 314.6 46.9C314.6 45.8 314.5 44.9 314.4 44.1ZM321.1 51.8C322.5 50.6 323.7 49.6 324.6 48.8C325.5 48 326.2 47.2 326.8 46.3C327.4 45.4 327.7 44.6 327.7 43.7C327.7 42.9 327.5 42.3 327.2 41.9C326.8 41.5 326.3 41.2 325.5 41.2C324.7 41.2 324.2 41.5 323.8 42C323.4 42.5 323.2 43.2 323.2 44.1H320.1C320.2 42.3 320.7 40.9 321.7 40C322.7 39.1 324 38.6 325.6 38.6C327.3 38.6 328.6 39.1 329.6 40C330.5 40.9 331 42.1 331 43.6C331 44.8 330.7 45.9 330 47C329.4 48.1 328.6 49 327.8 49.8C327 50.6 325.9 51.5 324.6 52.7H331.3V55.3H320.1V52.9L321.1 51.8ZM333 52.2V49.7L340.4 39.1H344.1V49.4H346.1V52.2H344.1V55.4H340.9V52.2H333ZM341.1 42.5L336.5 49.4H341.1V42.5Z" fill="white"/>
</svg>
