<svg width="533" height="530" viewBox="0 0 533 530" fill="none" xmlns="http://www.w3.org/2000/svg">
<path d="M527.839 214.693C525.573 208.402 523.1 202.62 520.721 197.027C516.19 186.408 511.904 176.394 509.487 164.15C507.543 154.343 504.276 144.896 499.5 135.26C495.516 127.21 490.399 118.859 483.394 108.958C457.358 72.151 421.976 42.3538 381.081 22.7788C371.49 18.1874 361.596 13.6904 351.722 10.1004C351.608 9.98702 351.438 9.93033 351.287 9.94923C342.206 6.66153 333.124 4.16741 324.326 3.05262C293.286 -0.839717 262.927 -1.00977 234.058 2.54246C204.189 6.22695 176.095 13.8793 150.569 25.3107C123.834 37.2711 99.8744 53.4073 79.3701 73.228C57.7142 94.1634 39.7777 119.369 26.0138 148.184C19.9154 160.957 17.6686 173.522 15.2708 186.843C13.9869 194.004 12.6653 201.41 10.6828 208.893L10.0597 211.236C4.48999 232.152 -0.758791 251.916 0.0908329 273.475C0.71389 289.385 2.80963 305.389 6.30252 321.034C9.79542 336.66 14.6855 352.021 20.8783 366.721C27.1089 381.516 34.7743 395.857 43.6482 409.367C52.4465 422.744 62.5287 435.404 73.6116 447.024C84.6944 458.645 96.8724 469.301 109.806 478.73C117.075 484.02 124.627 488.952 132.387 493.468C132.424 493.487 132.443 493.505 132.481 493.524C138.636 497.114 144.923 500.44 151.305 503.501C175.623 515.14 201.905 522.925 229.451 526.609C241.629 528.253 253.864 529.066 266.117 529.066C281.109 529.066 296.1 527.837 310.977 525.4C315.811 524.606 320.456 523.718 324.911 522.755C324.93 522.755 324.949 522.755 324.968 522.736C348.361 517.653 366.769 510.057 383.403 498.796C391.182 493.524 399.791 488.857 408.137 484.323C420.938 477.369 434.135 470.208 445.105 460.553L445.124 460.534C446.313 459.495 447.465 458.418 448.598 457.322C460.7 445.513 471.594 433.042 480.997 420.288C490.871 406.873 499.405 392.683 506.372 378.115C514.51 361.091 520.853 343.159 525.234 324.794C529.633 306.352 532.068 287.476 532.446 268.695C532.465 267.788 532.484 266.862 532.503 265.917C532.842 249.819 533.277 229.79 527.839 214.693ZM11.0982 211.5L11.7212 209.157C13.7226 201.637 15.0442 194.212 16.3281 187.031C18.707 173.786 20.9538 161.278 26.9956 148.637C40.7028 119.955 58.5827 94.8437 80.1065 74.0216C100.516 54.2765 124.362 38.2348 150.984 26.3121C163.256 20.8137 176.133 16.2034 189.519 12.4811C189.632 12.5378 189.765 12.5567 189.897 12.5189C209.079 7.54958 229.112 6.45368 247.822 9.34459C267.061 12.3111 284.507 19.4722 298.29 30.0344C321.418 47.7578 333.842 74.2861 334.201 106.766C334.427 126.663 329.877 146.804 320.663 166.587C312.45 184.235 300.688 201.392 285.678 217.603C270.29 234.212 246.652 244.321 223.806 254.108C208.796 260.532 193.295 267.164 180.343 275.573C167.939 283.641 159.008 297.056 150.361 310.037C146.207 316.291 142.28 322.186 137.956 327.571C132.406 334.506 126.666 341.667 119.68 347.373C102.82 361.128 78.6904 365.285 58.1862 357.954C40.684 351.7 26.8445 339.928 17.0644 322.98C8.47378 308.11 3.11172 289.498 1.0915 267.693C1.0915 267.637 1.07262 267.561 1.03486 267.505C1.29919 248.402 6.07596 230.433 11.0982 211.5ZM21.879 366.306C15.705 351.662 10.8338 336.357 7.35983 320.807C4.32007 307.146 2.33761 293.22 1.46911 279.314C4.13126 296.395 9.0402 311.246 16.1582 323.565C26.0704 340.741 40.0987 352.663 57.8463 359.012C64.6811 361.45 71.9123 362.64 79.1436 362.64C93.9837 362.64 108.862 357.652 120.379 348.242C127.459 342.46 133.236 335.261 138.825 328.27C143.167 322.847 147.283 316.65 151.286 310.66C159.858 297.774 168.732 284.434 180.947 276.498C193.805 268.147 209.268 261.534 224.24 255.128C247.199 245.303 270.951 235.138 286.489 218.359C301.575 202.072 313.413 184.821 321.664 167.06C330.934 147.107 335.522 126.833 335.296 106.766C334.918 73.9271 322.362 47.0964 298.951 29.1842C285.017 18.5086 267.382 11.2908 247.973 8.28648C235.267 6.32142 221.937 6.18916 208.702 7.83301C217.028 6.11358 225.505 4.69647 234.153 3.63836C262.927 0.08613 293.211 0.256183 324.156 4.14852C332.917 5.24442 341.942 7.75743 351.004 11.0262C357.82 20.9082 363.428 32.0751 367.657 44.2433C371.735 56.0148 374.567 68.7499 376.04 82.0897C378.891 107.843 376.701 135.713 369.715 162.695C362.805 189.356 351.401 214.448 336.693 235.232C329.084 246.002 320.625 255.582 311.563 263.707C302.123 272.172 291.965 279.106 281.392 284.302C274.727 287.59 267.628 290.367 260.755 293.069C247.728 298.19 234.247 303.48 223.164 312.38C208.796 323.887 202.377 338.455 195.58 353.854C192.483 360.883 189.255 368.157 185.233 375.129C177.624 388.261 166.372 401.167 153.552 411.464C139.637 422.631 124.476 430.34 109.711 433.76C100.29 435.933 91.0949 436.368 82.3721 435.045C72.9696 433.609 64.058 430.113 55.8828 424.653C51.9179 419.494 48.1418 414.185 44.5733 408.781C35.7184 395.328 28.0906 381.044 21.879 366.306ZM134.879 493.676C146.018 493.959 155.874 492.145 164.993 488.177C173.641 484.417 181.382 478.786 188.651 470.964C202.131 456.472 211.874 436.538 221.314 417.246C231.962 395.479 242.97 372.957 259.264 358.71C267.118 351.832 274.425 347.921 281.599 346.731C289.17 345.483 299.045 347.6 304.029 355.158C310.109 364.34 306.559 377.321 303.123 389.886C300.725 398.672 298.233 407.742 299.215 415.262C300.744 426.977 304.011 438.578 308.957 449.764C313.885 460.931 320.267 471.172 327.894 480.185C334.521 488.007 342.527 494.072 351.08 497.719C357.65 500.534 364.447 501.933 371.376 501.933C373.245 501.933 375.133 501.819 377.022 501.63C362.03 510.794 345.34 517.219 324.76 521.697C311.072 520.752 293.683 515.839 285.583 507.015C278.805 499.627 278.692 491.673 278.579 483.265C278.503 477.483 278.427 471.493 276.143 465.447C273.519 458.456 267.363 452.995 260.113 451.2C252.863 449.405 244.877 451.389 239.307 456.377C233.907 461.195 231.188 468.035 228.64 475.196C228.394 475.914 228.13 476.632 227.884 477.35C225.203 485.003 222.409 492.92 217.84 499.684C214.592 504.465 209.91 508.98 205.001 512.079C199.261 515.688 193.484 517.256 188.292 516.614C188.235 516.614 188.179 516.614 188.122 516.614C175.604 512.835 163.445 508.149 151.758 502.537C146.056 499.798 140.411 496.831 134.879 493.676ZM310.77 524.323C283.846 528.744 256.545 529.16 229.584 525.532C216.801 523.813 204.284 521.205 192.106 517.748C196.448 517.445 201.036 515.82 205.586 512.967C210.628 509.793 215.423 505.164 218.746 500.27C223.41 493.392 226.204 485.419 228.923 477.691C229.168 476.973 229.433 476.255 229.678 475.537C232.17 468.508 234.832 461.8 240.043 457.152C245.349 452.409 252.958 450.52 259.868 452.22C266.778 453.921 272.631 459.117 275.142 465.787C277.351 471.663 277.427 477.539 277.502 483.227C277.616 491.862 277.729 500.024 284.79 507.696C288.717 511.985 295.042 515.688 303.067 518.409C308.693 520.317 314.999 521.697 321.173 522.396C317.793 523.114 314.338 523.737 310.77 524.323ZM407.589 483.378C399.225 487.913 390.578 492.617 382.761 497.908C381.591 498.702 380.42 499.457 379.249 500.213C369.753 501.687 360.426 500.497 351.514 496.699C343.131 493.109 335.258 487.157 328.744 479.467C321.192 470.529 314.867 460.383 309.977 449.311C305.087 438.238 301.839 426.731 300.329 415.111C299.385 407.799 301.726 399.239 304.199 390.151C307.692 377.359 311.317 364.133 304.973 354.534C300.404 347.637 290.964 344.047 281.448 345.635C274.066 346.863 266.571 350.868 258.565 357.86C242.101 372.276 231.056 394.875 220.351 416.736C210.948 435.952 201.244 455.829 187.876 470.189C180.702 477.898 173.074 483.453 164.578 487.157C155.062 491.295 144.697 493.033 132.878 492.485C125.174 487.988 117.679 483.094 110.447 477.842C97.5521 468.451 85.4308 457.832 74.4046 446.268C68.6082 440.184 63.0762 433.817 57.8652 427.204C65.4552 431.814 73.6116 434.799 82.2022 436.122C85.5629 436.632 88.9803 436.897 92.4543 436.897C98.1563 436.897 104.028 436.216 109.957 434.837C124.872 431.379 140.184 423.595 154.231 412.333C167.165 401.96 178.493 388.96 186.177 375.696C190.255 368.667 193.465 361.374 196.58 354.307C203.321 339.021 209.702 324.586 223.863 313.249C234.813 304.463 248.219 299.191 261.171 294.108C268.062 291.406 275.18 288.61 281.883 285.303C292.55 280.051 302.783 273.078 312.299 264.538C321.437 256.357 329.934 246.701 337.599 235.875C352.364 214.977 363.843 189.771 370.772 162.978C377.796 135.864 379.986 107.862 377.135 81.9763C375.643 68.5421 372.811 55.7314 368.695 43.8843C364.617 32.1317 359.255 21.305 352.779 11.6687C362.144 15.1642 371.508 19.4155 380.609 23.7802C390.88 28.6929 400.792 34.248 410.289 40.4077C410.308 40.4455 410.327 40.5022 410.346 40.5399C425.148 64.0262 427.697 98.5282 428.339 122.43C429.377 161.486 422.561 193.191 406.268 225.218C399.961 237.632 392.825 249.706 385.933 261.383C377.569 275.554 368.903 290.216 361.86 305.275C353.95 322.167 348.89 337.888 346.378 353.381C344.056 367.704 344.188 382.083 346.794 394.988C349.815 410.009 355.932 422.385 365.014 431.776C374.51 441.62 387.217 449.537 401.774 454.658C413.499 458.796 425.809 460.912 437.741 460.912C439.573 460.912 441.404 460.855 443.217 460.761C432.511 469.849 419.88 476.708 407.589 483.378ZM480.109 419.665C470.744 432.381 459.888 444.795 447.824 456.566C446.747 457.605 445.652 458.626 444.538 459.627C430.642 460.61 415.972 458.55 402.114 453.675C387.708 448.611 375.152 440.789 365.769 431.058C356.857 421.819 350.815 409.612 347.832 394.799C345.265 382.026 345.132 367.779 347.436 353.589C349.928 338.209 354.969 322.564 362.823 305.767C369.847 290.745 378.494 276.121 386.858 261.949C393.769 250.254 400.905 238.161 407.23 225.728C423.619 193.512 430.472 161.656 429.434 122.411C428.811 98.9816 426.338 65.4055 412.366 41.7681C437.76 58.5467 460.134 79.5955 478.353 103.913C478.353 103.989 478.353 104.064 478.391 104.121C488.605 131.443 490.909 160.446 485.245 190.357C482.62 204.207 478.278 218.17 472.33 231.85C466.591 245.057 459.341 258.038 450.769 270.471C448.56 273.683 446.238 276.933 443.783 280.372C427.791 302.743 409.647 328.1 413.706 355.687C414.801 363.169 417.558 370.425 421.655 376.679C425.922 383.198 431.53 388.45 437.911 391.87C443.67 394.969 450.051 396.67 456.206 398.332C460.927 399.598 466.629 400.335 472.5 400.335C480.751 400.335 489.323 398.899 495.931 395.498C491.135 403.774 485.849 411.842 480.109 419.665ZM531.408 265.898C531.389 266.843 531.37 267.769 531.351 268.676C530.973 287.382 528.557 306.182 524.176 324.548C519.815 342.838 513.49 360.713 505.39 377.642C502.766 383.141 499.915 388.564 496.856 393.93C496.724 393.911 496.592 393.911 496.479 393.987C485.415 400.241 467.988 400.392 456.49 397.312C450.391 395.668 444.066 393.986 438.421 390.944C432.209 387.6 426.715 382.48 422.561 376.112C418.559 369.971 415.859 362.867 414.783 355.554C410.78 328.403 428.792 303.235 444.67 281.033C447.125 277.594 449.447 274.344 451.675 271.113C460.285 258.624 467.573 245.568 473.35 232.303C479.335 218.548 483.696 204.509 486.34 190.565C491.815 161.599 489.87 133.465 480.562 106.861C481.223 107.768 481.865 108.675 482.507 109.582C489.474 119.426 494.572 127.74 498.518 135.732C503.257 145.293 506.485 154.646 508.411 164.358C510.847 176.696 515.151 186.767 519.721 197.443C522.099 203.017 524.573 208.798 526.82 215.052C532.182 229.961 531.747 249.895 531.408 265.898Z" fill="#AECC53"/>
<path d="M82.9762 249.479C87.6775 258.983 94.0402 266.692 101.894 272.436C108.805 277.481 115.13 279.956 121.115 279.956C122.38 279.956 123.626 279.843 124.853 279.616C136.521 277.538 145.036 265.974 154.194 252.219C165.786 234.779 174.868 227.523 194.692 219.833C217.217 211.104 237.664 197.197 252.297 180.702C260.491 171.462 266.721 161.561 270.837 151.264C275.331 140.002 277.276 128.269 276.596 116.422C276.048 106.766 272.952 96.9977 267.911 88.8918C262.511 80.238 255.167 73.7759 246.651 70.167C238.967 66.9171 229.98 65.6701 218.368 66.1991C191.218 67.4651 164.295 77.6872 140.467 95.7695C129.233 104.291 118.962 114.381 109.938 125.718C100.969 136.998 93.436 149.28 87.583 162.204C78.1239 183.026 73.9702 202.62 75.2163 220.438C75.9338 230.603 78.6148 240.655 82.9762 249.479ZM88.5648 162.638C94.3989 149.79 101.876 137.603 110.787 126.379C119.737 115.118 129.951 105.104 141.128 96.6198C164.767 78.6697 191.501 68.5421 218.425 67.2761C220.143 67.2005 221.786 67.1628 223.391 67.1628C232.491 67.1628 239.836 68.4665 246.236 71.1685C254.543 74.6829 261.718 80.9938 267.005 89.4586C271.951 97.4134 274.991 106.993 275.52 116.459C276.181 128.155 274.274 139.719 269.837 150.848C265.777 161.032 259.603 170.82 251.485 179.965C236.966 196.347 216.65 210.14 194.296 218.813C183.893 222.856 176.907 226.597 170.922 231.321C164.767 236.215 159.48 242.28 153.287 251.595C144.281 265.143 135.917 276.517 124.664 278.539C117.886 279.748 110.655 277.462 102.518 271.529C94.8143 265.898 88.546 258.322 83.9391 248.969C79.6344 240.277 76.9911 230.357 76.2925 220.305C75.0653 202.714 79.2001 183.29 88.5648 162.638Z" fill="#AECC53"/>
<path d="M128.29 200.239C130.329 201.203 132.745 201.694 135.521 201.694C138.542 201.694 141.997 201.127 145.848 199.974C151.89 198.179 158.97 194.967 166.844 190.433C180.626 182.516 193.276 172.634 197.241 169.081C202.471 164.414 208.286 158.822 211.099 151.585C212.497 147.976 212.931 143.951 212.346 140.229C211.704 136.167 209.872 132.784 207.097 130.46C203.982 127.853 199.866 126.606 194.862 126.776C191.011 126.908 186.706 127.853 181.703 129.629C164.729 135.713 149.096 144.65 135.275 156.214C129.045 161.429 120.7 169.554 120.209 179.87C119.661 190.584 122.399 197.424 128.29 200.239ZM121.266 179.946C121.493 175.203 123.267 167.683 135.955 157.064C149.681 145.576 165.201 136.696 182.061 130.668C186.97 128.911 191.162 128.004 194.9 127.872C195.183 127.853 195.485 127.853 195.768 127.853C200.092 127.853 203.679 129.006 206.398 131.292C208.985 133.465 210.665 136.601 211.288 140.399C211.855 143.932 211.439 147.749 210.099 151.188C207.38 158.198 201.678 163.678 196.543 168.269C192.597 171.783 180.022 181.609 166.315 189.488C154.307 196.384 138.032 203.678 128.762 199.256C123.305 196.649 120.775 190.149 121.266 179.946Z" fill="#AECC53"/>
</svg>
