<svg width="1722" height="1230" viewBox="0 0 1722 1230" fill="none" xmlns="http://www.w3.org/2000/svg">
<g clip-path="url(#clip0_28_587)">
<path d="M639.3 1077.7C635.9 1070 632.3 1062.4 628.4 1055C616.2 1031.5 597.4 1005.2 568.6 1002.9C538.1 1000.5 516.8 1027.8 502.1 1056.3C503.6 1058.7 543.8 1141.2 544.3 1143.3C597.4 1143.8 658.8 1144.3 666.1 1143.4C657.1 1122 648.8 1098.9 639.3 1077.7Z" fill="#0A385A"/>
<path d="M363.8 231.2C347.2 251.1 337.2 276.8 337.2 304.8C337.2 368.2 388.6 419.7 452.1 419.7C458.5 419.7 464.8 419.2 471 418.2" stroke="#618AA6" stroke-width="2.4" stroke-miterlimit="10"/>
<path d="M566.9 304.8C566.9 241.4 515.5 189.9 452 189.9" stroke="#618AA6" stroke-width="2.4" stroke-miterlimit="10"/>
<path d="M355.2 174.7C315.5 204.3 289.9 251.5 289.9 304.8C289.9 394.3 362.5 466.9 452 466.9C494.9 466.9 534 450.2 563 423" stroke="#618AA6" stroke-width="4.8" stroke-miterlimit="10"/>
<path d="M609.8 342.2C612.6 330.2 614.1 317.7 614.1 304.8C614.1 215.3 541.5 142.7 452 142.7C443 142.7 434.1 143.4 425.4 144.9" stroke="#618AA6" stroke-width="4.8" stroke-miterlimit="10"/>
<path d="M452 291V1039.8" stroke="#A9C753" stroke-width="7.2" stroke-linecap="round" stroke-linejoin="round"/>
<path d="M452 323.7C462.438 323.7 470.9 315.238 470.9 304.8C470.9 294.362 462.438 285.9 452 285.9C441.562 285.9 433.1 294.362 433.1 304.8C433.1 315.238 441.562 323.7 452 323.7Z" fill="#A9C753"/>
<path d="M450.8 306.2C437.4 313.8 425.6 323 414.2 332.6C402.9 342.3 392.3 352.5 382.2 363.3C372.1 374.1 362.6 385.4 353.7 397.2C344.9 409.1 336.6 421.6 329.9 435.5C343.4 427.9 355.2 418.7 366.5 409.1C377.8 399.4 388.4 389.2 398.4 378.4C408.5 367.6 418 356.3 426.8 344.4C435.6 332.5 443.9 320 450.6 306.1L450.8 306.2Z" stroke="#A8C653" stroke-width="5.3" stroke-linecap="round" stroke-linejoin="round"/>
<path d="M450.6 307C450.1 291.6 447.6 276.8 444.4 262.3C441.1 247.8 437 233.6 432.2 219.7C427.4 205.8 421.9 192.1 415.5 178.7C409.1 165.3 402 152.2 392.8 139.7C393.2 155.1 395.8 169.9 399 184.4C402.3 198.9 406.4 213.1 411.2 227C416 240.9 421.6 254.6 427.9 268C434.3 281.4 441.4 294.5 450.6 307Z" stroke="#A8C653" stroke-width="5.3" stroke-linecap="round" stroke-linejoin="round"/>
<path d="M449.6 302C460.7 312.7 472.8 321.5 485.2 329.6C497.6 337.7 510.5 345 523.7 351.6C536.9 358.2 550.4 364.2 564.3 369.3C578.2 374.4 592.5 378.9 607.8 381.3C596.7 370.5 584.6 361.8 572.2 353.6C559.8 345.5 546.9 338.2 533.7 331.6C520.5 325 507 319.1 493.1 313.9C479.2 308.8 464.9 304.3 449.7 301.8L449.6 302Z" stroke="#A8C653" stroke-width="5.3" stroke-linecap="round" stroke-linejoin="round"/>
<path d="M378.1 727.8V924.7H123.6V728.3L378.1 727.7M381.1 724.8L120.6 725.4V927.8H381.1V724.9V724.8Z" fill="#618AA6"/>
<path d="M381.1 698.8H120.6V729H381.1V698.8Z" fill="#0A385A"/>
<path d="M367.805 705.534L354.299 719.04L357.481 722.222L370.987 708.716L367.805 705.534Z" fill="#C8D3DD"/>
<path d="M357.481 705.534L354.299 708.716L367.805 722.222L370.987 719.04L357.481 705.534Z" fill="#C8D3DD"/>
<path d="M335.1 708.1V720.2H321.6V708.1H335.1ZM337.2 706H319.5V722.2H337.2V706Z" fill="#C8D3DD"/>
<path d="M302.3 718.7H284.6V722.3H302.3V718.7Z" fill="#C8D3DD"/>
<path d="M182.9 793.2C198.9 759.7 232.6 747.9 267.2 752.2C272.6 752.9 278.4 755.4 283.2 757.8C294.7 763.3 304.7 771.7 312.1 782.1C315.6 787 318.3 791.8 319.5 797.7C320.7 803.6 322.9 806.9 324.7 812C326.3 816.5 326.1 822.5 326 827.2C325.8 837.9 323.2 848.5 318.6 858.1C314.6 866.6 309 873.9 302.3 880.5C297.1 885.6 289.8 888.2 283.9 892.2C278 896.2 270.9 898.5 263.5 899.7C248.3 902.2 232.3 900.2 218.4 893.5C201.9 885.6 188.7 871.7 181.6 854.9C178.1 846.6 176.1 837.6 175.7 828.6C175.5 822.3 177.1 816.4 178.7 810.4C180.3 804.5 180.4 798.8 183 793.3L182.9 793.2Z" stroke="#ADCB53" stroke-width="2.3" stroke-linecap="round" stroke-linejoin="round"/>
<path d="M316 862.9C312.9 864.7 307.9 864.8 304.6 863.9C302.8 863.4 301.1 862.9 299.5 862.1C295.8 860.1 293.3 856.1 292.7 852C291.4 843.1 298.4 834.9 303.2 828C312.8 814.1 317.1 797 311 780.8" stroke="#ADCB53" stroke-width="2.3" stroke-linecap="round" stroke-linejoin="round"/>
<path d="M301.3 881.4C293.4 882 284.4 879 278.8 873.3C273.3 867.7 272.4 858.7 273.6 851.3C275.8 837.6 284.4 827.2 290.5 815.1C295.3 805.6 297 796.5 296.8 785.9C296.6 775.3 295.8 769.1 291.7 762.7" stroke="#ADCB53" stroke-width="2.3" stroke-linecap="round" stroke-linejoin="round"/>
<path d="M229.1 754.7C248.2 749.8 269.9 758.3 270.2 781.5C270.3 793.5 264.4 804.4 256.4 813C249.1 820.8 235.8 823.4 226.6 829.4C221.5 832.7 218.5 839.3 214.6 844.1C213 846.1 211.4 848.1 209.4 849.7C204.6 853.6 197.7 854.8 191.8 852.7C181.2 848.9 176.6 838.5 175.5 827" stroke="#ADCB53" stroke-width="2.3" stroke-linecap="round" stroke-linejoin="round"/>
<path d="M253.6 784.2C253.3 778.8 250.2 773.4 245.2 771.3C242.7 770.3 240 770.1 237.3 770.2C221.3 770.9 207 782.7 200.4 797.3C198.1 802.4 196.5 808.1 196.9 813.7C197.3 819.3 199.8 825 204.4 828.3C211.5 833.4 215.3 828.2 219 822.6C222.4 817.6 225 815.5 230.5 813.4C242.2 808.8 254.4 798.2 253.6 784.3V784.2Z" stroke="#ADCB53" stroke-width="2.3" stroke-linecap="round" stroke-linejoin="round"/>
<path d="M231.2 799C232.8 797.6 234.3 796.1 235.1 794.1C235.9 792.1 235.6 789.6 234 788.3C232.1 786.7 229.3 787.3 227 788.1C222.2 789.8 217.8 792.4 213.9 795.6C211.8 797.3 209.8 799.5 209.7 802.2C209 816.3 228.5 801.5 231.3 799H231.2Z" stroke="#ADCB53" stroke-width="2.3" stroke-linecap="round" stroke-linejoin="round"/>
<path d="M191.1 871.5C204.4 880.4 221.2 869.1 228 857.5C231.6 851.3 232.8 844.5 238.7 839.8C243.5 836 249.7 834.6 255.2 831.9C280 819.7 290.9 777.3 274.9 754.3" stroke="#ADCB53" stroke-width="2.3" stroke-linecap="round" stroke-linejoin="round"/>
<path d="M282.8 892.9C277.2 893.8 272 891.3 268.3 887C264 881.9 261.1 875.3 260.2 868.7C259.3 862.1 264.5 856.1 261.5 851.6C260.1 849.6 257.4 848.7 255 849.1C252.6 849.5 250.4 850.9 248.6 852.5C235.8 863.7 235 891.7 212.9 890.6" stroke="#ADCB53" stroke-width="2.3" stroke-linecap="round" stroke-linejoin="round"/>
<path d="M267.4 899C263.7 898.7 258.6 897.4 256.2 894.8C252.9 891.2 255.1 887.1 253.5 883C252.8 881.1 251.1 879.6 249.1 879.1C247.1 878.6 244.9 879.1 243.3 880.5C241.8 881.9 241 883.8 240.3 885.8C239.5 888.2 238.7 890.7 237.2 892.8C235.4 895.4 232 898.1 228.7 897.7" stroke="#ADCB53" stroke-width="2.3" stroke-linecap="round" stroke-linejoin="round"/>
<path d="M398.3 601.1C398.4 613.4 388.5 623.4 376.2 623.5C363.9 623.6 353.9 613.7 353.8 601.4C353.7 589.1 375.8 568.2 375.8 568.2C375.8 568.2 398.2 588.7 398.3 601V601.1Z" stroke="#ADCB53" stroke-width="2.7" stroke-linecap="round" stroke-linejoin="round"/>
<path d="M376 595.6L376.3 643.6" stroke="#ADCB53" stroke-width="2.7" stroke-linecap="round" stroke-linejoin="round"/>
<path d="M336.2 601.1C336.3 613.4 326.4 623.4 314.1 623.5C301.8 623.6 291.8 613.7 291.7 601.4C291.6 589.1 313.7 568.2 313.7 568.2C313.7 568.2 336.1 588.7 336.2 601V601.1Z" stroke="#ADCB53" stroke-width="2.7" stroke-linecap="round" stroke-linejoin="round"/>
<path d="M313.9 595.6L314.2 643.6" stroke="#ADCB53" stroke-width="2.7" stroke-linecap="round" stroke-linejoin="round"/>
<path d="M399 1141.4L447.8 1050.8C458.3 1028.8 489.7 1028.8 500.2 1050.8L543.5 1141.4" stroke="#ADCB53" stroke-width="3.8" stroke-linecap="round" stroke-linejoin="round"/>
<path d="M436.3 1142.1C443.2 1127.1 456.9 1102.4 463.8 1087.4C466.5 1081.5 469.3 1075.5 473.6 1070.8C479.9 1063.9 489 1062 497.7 1065.2C500.2 1066.1 507.9 1068.9 510.9 1073.9" stroke="#ADCB53" stroke-width="3.8" stroke-linecap="round" stroke-linejoin="round"/>
<path d="M221.9 1141.3L543.1 1142.5" stroke="#ADCB53" stroke-width="3.8" stroke-linecap="round" stroke-linejoin="round"/>
<path d="M253.4 1138.3V1094.2" stroke="#ADCB53" stroke-width="3.3" stroke-linecap="round" stroke-linejoin="round"/>
<path d="M254.082 1100.78C257.462 1100.23 259.759 1097.05 259.211 1093.67C258.664 1090.29 255.48 1087.99 252.1 1088.54C248.719 1089.09 246.423 1092.27 246.971 1095.65C247.518 1099.03 250.702 1101.33 254.082 1100.78Z" fill="#ADCB53"/>
<path d="M278.4 1139.3V1069.3" stroke="#ADCB53" stroke-width="3.3" stroke-linecap="round" stroke-linejoin="round"/>
<path d="M302.1 1041.4C302.5 1041 302.9 1040.6 303.3 1040.2C305 1038.1 304.9 1035 303 1033.1L299 1029.1C287.8 1017.9 269.5 1017.9 258.3 1029.1L254.3 1033.1C252.4 1035 252.2 1038.1 254 1040.2C254.4 1040.6 254.7 1041.1 255 1041.6C257.7 1045.4 262 1047.1 265.4 1050.3C269.9 1054.6 271.8 1061.4 277.4 1064.4C284.3 1068.2 288.3 1062.9 291.5 1057C293.6 1053.2 295.2 1049.1 297.7 1045.5C298.9 1043.7 300.7 1042.7 302.2 1041.3L302.1 1041.4Z" fill="white"/>
<path d="M279.7 1072.4C274.9 1071.1 269.8 1070.4 264.8 1070.5C259.8 1070.6 255.5 1071.9 250.9 1071.8C250.5 1071.8 250 1071.8 249.6 1071.8C247.5 1071.9 245.6 1070.4 245.3 1068.3L244.6 1064C242.7 1051.8 251.1 1040.3 263.2 1038.4L267.5 1037.7C269.6 1037.4 271.6 1038.7 272.1 1040.7C272.2 1041.1 272.3 1041.6 272.5 1042C274.2 1046.8 276 1051.6 277.4 1056.5C278.8 1061.5 279.3 1066.5 279.8 1071.6" fill="#C8D3DD"/>
<path d="M279.5 1072.3C281.3 1072.3 283.6 1070.9 285.4 1070.5C287.2 1070.1 290.1 1069.6 292.5 1069.5C296.5 1069.4 300.5 1069.9 304.3 1071.2C307.2 1072.1 311.4 1072.3 312 1068.3L312.7 1064C314.6 1051.8 306.2 1040.3 294.1 1038.4L289.8 1037.7C287.7 1037.4 285.7 1038.7 285.2 1040.7C284.7 1042.7 285 1041.6 284.8 1042L278.7 1059.9C278.1 1061.8 277.4 1063.6 277.2 1065.6C277 1067.6 277.2 1069.6 278 1071.4C278.2 1071.7 278.4 1072.1 278.7 1072.3C279 1072.5 279.2 1072.3 279.5 1072.3Z" fill="#C8D3DD"/>
<path d="M284.9 1071.8C284.9 1068.5 282.2 1068.8 278.9 1068.8C275.6 1068.8 272.9 1068.5 272.9 1071.8C272.9 1075.1 275.6 1080.8 278.9 1080.8C282.2 1080.8 284.9 1075.1 284.9 1071.8Z" fill="#ADCB53"/>
<path d="M316.4 1141.3C321.4 1113.3 341 1088.3 361.4 1088.3C381.8 1088.3 399.4 1124.3 404.9 1141.8" stroke="#ADCB53" stroke-width="3" stroke-linecap="round" stroke-linejoin="round"/>
<path d="M452.4 1179.2C449.9 1173.5 447.2 1167.9 444.3 1162.4C435.3 1145 421.4 1111.6 400.1 1109.9C366.2 1107.2 347.8 1168 337.9 1193.1C335.3 1199.7 332.9 1206.4 330.8 1213.2C329.3 1217.8 325.6 1224.3 325.5 1228.8C344.4 1228.6 363.4 1228.3 382.3 1228.1C397 1227.9 411.6 1227.7 426.3 1227.6C431.1 1227.6 470.8 1224.5 472.2 1227.9C465.5 1212.1 459.4 1195 452.4 1179.3V1179.2Z" fill="#0A385A"/>
<path d="M355.8 1227.7C355.8 1228.2 277.6 1228.2 277.6 1227.7C277.6 1201.3 295.7 1168.7 317.3 1168.7C338.9 1168.7 355.8 1201.2 355.8 1227.7Z" fill="#C8D3DD"/>
<path d="M646.5 1228.3H232.9" stroke="#ADCB53" stroke-width="3.7" stroke-linecap="round" stroke-linejoin="round"/>
<path d="M601.8 1225.8V1178.2" stroke="#ADCB53" stroke-width="3.7" stroke-linecap="round" stroke-linejoin="round"/>
<path d="M608.8 1178.5C608.8 1174.6 605.7 1171.5 601.8 1171.5C597.9 1171.5 594.8 1174.6 594.8 1178.5C594.8 1182.4 597.9 1185.5 601.8 1185.5C605.7 1185.5 608.8 1182.4 608.8 1178.5Z" fill="#ADCB53"/>
<path d="M633.6 1223.3V1156.9" stroke="#ADCB53" stroke-width="3.2" stroke-linecap="round" stroke-linejoin="round"/>
<path d="M639.6 1157.2C639.6 1153.9 636.9 1151.2 633.6 1151.2C630.3 1151.2 627.6 1153.9 627.6 1157.2C627.6 1160.5 630.3 1163.2 633.6 1163.2C636.9 1163.2 639.6 1160.5 639.6 1157.2Z" fill="#ADCB53"/>
<path d="M655.5 814.7C655.5 864.8 614.9 905.4 564.8 905.4C514.7 905.4 474.1 864.8 474.1 814.7C474.1 764.6 515.4 706.3 542.3 661.3C552.5 644.3 577.1 644.3 587.3 661.3C614.2 706.2 655.5 780.9 655.5 814.7Z" stroke="#618AA6" stroke-width="5.9" stroke-linecap="round" stroke-linejoin="round"/>
<path d="M600 762.1C596.7 778.5 582.2 790.9 564.8 790.9C547.4 790.9 532.9 778.4 529.6 762.1" stroke="#C8D3DD" stroke-width="4.9" stroke-linecap="round" stroke-linejoin="round"/>
<path d="M592.6 761.7C593 757.6 596.7 754.7 600.7 755.1C604.8 755.5 607.7 759.2 607.3 763.2C606.9 767.2 603.2 770.2 599.2 769.8C595.1 769.4 592.2 765.7 592.6 761.7Z" fill="#C8D3DD"/>
<path d="M537.1 761.7C536.7 757.6 533 754.7 529 755.1C525 755.5 522 759.2 522.4 763.2C522.8 767.2 526.5 770.2 530.5 769.8C534.6 769.4 537.5 765.7 537.1 761.7Z" fill="#C8D3DD"/>
<path d="M617.7 811C614.2 837 591.8 857.3 564.9 857.3C538 857.3 515.5 837.1 512.1 811" stroke="#C8D3DD" stroke-width="4.9" stroke-linecap="round" stroke-linejoin="round"/>
<path d="M610.2 810.8C610.5 806.7 614.1 803.7 618.2 804C622.3 804.3 625.3 807.9 625 812C624.7 816.1 621.1 819.1 617 818.8C612.9 818.5 609.9 814.9 610.2 810.8Z" fill="#C8D3DD"/>
<path d="M519.5 810.8C519.2 806.7 515.6 803.7 511.5 804C507.4 804.3 504.4 807.9 504.7 812C505 816.1 508.6 819.1 512.7 818.8C516.8 818.5 519.8 814.9 519.5 810.8Z" fill="#C8D3DD"/>
<path d="M564.9 722.3V1223.6" stroke="#C8D3DD" stroke-width="4.9" stroke-linecap="round" stroke-linejoin="round"/>
<path d="M557.5 722.7C557.5 718.6 560.8 715.3 564.9 715.3C569 715.3 572.3 718.6 572.3 722.7C572.3 726.8 569 730.1 564.9 730.1C560.8 730.1 557.5 726.8 557.5 722.7Z" fill="#C8D3DD"/>
<path d="M165 142.7V198" stroke="#265D84" stroke-width="7" stroke-linecap="round" stroke-linejoin="round"/>
<path d="M157.1 197.6C157.1 202 160.6 205.5 165 205.5C169.4 205.5 172.9 202 172.9 197.6C172.9 193.2 169.4 189.7 165 189.7C160.6 189.7 157.1 193.2 157.1 197.6Z" fill="#265D84"/>
<path d="M215.1 142.7V233.7" stroke="#265D84" stroke-width="7" stroke-linecap="round" stroke-linejoin="round"/>
<path d="M207.2 233.3C207.2 237.7 210.7 241.2 215.1 241.2C219.5 241.2 223 237.7 223 233.3C223 228.9 219.5 225.4 215.1 225.4C210.7 225.4 207.2 228.9 207.2 233.3Z" fill="#265D84"/>
<path d="M265.5 142.7V198" stroke="#265D84" stroke-width="7" stroke-linecap="round" stroke-linejoin="round"/>
<path d="M257.6 197.6C257.6 202 261.1 205.5 265.5 205.5C269.9 205.5 273.4 202 273.4 197.6C273.4 193.2 269.9 189.7 265.5 189.7C261.1 189.7 257.6 193.2 257.6 197.6Z" fill="#265D84"/>
<path d="M215.3 8.19995C243.7 8.19995 267.1 30.4 268.5 58.7C268.5 60.3 269.9 61.5 271.5 61.5H280.5C301.5 61.5 318.6 78.6 318.6 99.6C318.6 120.6 301.5 137.7 280.5 137.7H150C129 137.7 111.9 120.6 111.9 99.6C111.9 78.6 129 61.5 150 61.5H159C160.6 61.5 161.9 60.2 162 58.7C163.4 30.4 186.8 8.19995 215.2 8.19995M215.3 5.19995C185.2 5.19995 160.6 28.7999 159.1 58.5999H150.1C127.5 58.5999 109 77.1 109 99.7C109 122.3 127.5 140.8 150.1 140.8H280.6C303.2 140.8 321.7 122.3 321.7 99.7C321.7 77.1 303.2 58.5999 280.6 58.5999H271.6C270.1 28.8999 245.5 5.19995 215.4 5.19995H215.3Z" fill="#618AA6"/>
<path d="M178.2 52.8999C182.9 39.3999 193.2 28.3999 206.3 22.8999" stroke="#618AA6" stroke-width="3" stroke-linecap="round" stroke-linejoin="round"/>
<path d="M123.3 98.0999C123.3 81.0999 134.9 69.7999 151.7 69.7999" stroke="#618AA6" stroke-width="3" stroke-linecap="round" stroke-linejoin="round"/>
<path d="M6.90002 1228.3H174.7" stroke="#ADCB53" stroke-width="3.7" stroke-linecap="round" stroke-linejoin="round"/>
<path d="M133.5 1226.8V1176.9" stroke="#ADCB53" stroke-width="5" stroke-linecap="round" stroke-linejoin="round"/>
<path d="M142.8 1177.3C142.8 1172.2 138.6 1168 133.5 1168C128.4 1168 124.2 1172.2 124.2 1177.3C124.2 1182.4 128.4 1186.6 133.5 1186.6C138.6 1186.6 142.8 1182.4 142.8 1177.3Z" fill="#ADCB53"/>
<path d="M100.8 1226.4V1134.3" stroke="#ADCB53" stroke-width="5" stroke-linecap="round" stroke-linejoin="round"/>
<path d="M101.984 1144.02C107.054 1143.2 110.499 1138.42 109.677 1133.35C108.856 1128.28 104.08 1124.84 99.0101 1125.66C93.9399 1126.48 90.4954 1131.25 91.3166 1136.32C92.1378 1141.39 96.9137 1144.84 101.984 1144.02Z" fill="#ADCB53"/>
<path d="M71.9 1171.4C72 1186.7 59.7 1199.2 44.4 1199.3C29.1 1199.4 16.6 1187.1 16.5 1171.8C16.4 1156.5 43.9 1130.5 43.9 1130.5C43.9 1130.5 71.8 1156.1 71.9 1171.4Z" stroke="#C8D3DD" stroke-width="3" stroke-miterlimit="10"/>
<path d="M44.1 1164.4L44.5 1227.7" stroke="#C8D3DD" stroke-width="3" stroke-miterlimit="10"/>
</g>
<path d="M792.258 1198.51C776.162 1198.51 761.189 1187.83 756.51 1171.53C720.762 1048.02 686.512 899.396 704.105 732.969C706.164 712.541 724.505 697.735 745.093 699.797C765.494 701.858 780.28 720.225 778.221 740.841C762.125 894.523 794.317 1034.34 828.193 1150.91C833.995 1170.59 822.578 1191.39 802.739 1197.01C799.37 1197.95 795.814 1198.51 792.445 1198.51H792.258Z" fill="#A4C94D"/>
<path d="M761.376 1219.88C757.633 1219.88 754.077 1218.57 751.082 1215.94C744.719 1210.32 744.157 1200.58 749.772 1194.2L774.103 1166.84C779.718 1160.47 789.451 1159.91 795.814 1165.53C802.178 1171.15 802.739 1180.9 797.124 1187.27L772.793 1214.63C769.799 1218.01 765.494 1219.88 761.189 1219.88H761.376Z" fill="#A4C94D"/>
<path d="M800.119 1228.69C798.996 1228.69 798.06 1228.69 796.937 1228.31C788.515 1226.63 783.274 1218.38 784.959 1210.13L792.445 1174.34C794.13 1165.9 802.365 1160.66 810.6 1162.34C819.022 1164.03 824.263 1172.28 822.578 1180.52L815.092 1216.32C813.595 1223.63 807.231 1228.69 799.932 1228.69H800.119Z" fill="#A4C94D"/>
<path d="M740.414 1188.39C734.799 1188.39 729.372 1185.39 726.751 1179.96C722.821 1172.46 725.816 1163.09 733.302 1159.16L765.868 1142.29C773.355 1138.35 782.713 1141.35 786.643 1148.85C790.574 1156.34 787.579 1165.72 780.093 1169.65L747.526 1186.52C745.28 1187.64 742.847 1188.21 740.414 1188.21V1188.39Z" fill="#A4C94D"/>
<path d="M939.742 1198.51C936.373 1198.51 932.817 1197.95 929.448 1197.01C909.796 1191.2 898.379 1170.59 903.994 1150.91C937.683 1034.34 970.062 894.523 953.966 740.841C951.907 720.413 966.693 702.046 987.094 699.797C1007.49 697.548 1025.84 712.541 1028.08 732.969C1045.68 899.396 1011.43 1048.02 975.677 1171.53C970.998 1187.83 956.025 1198.51 939.929 1198.51H939.742Z" fill="#A4C94D"/>
<path d="M970.624 1219.88C966.319 1219.88 962.201 1218.19 959.02 1214.63L934.688 1187.27C929.074 1180.9 929.635 1171.15 935.999 1165.53C942.362 1159.91 952.095 1160.47 957.709 1166.84L982.04 1194.2C987.655 1200.58 987.094 1210.32 980.73 1215.94C977.736 1218.57 974.18 1219.88 970.436 1219.88H970.624Z" fill="#A4C94D"/>
<path d="M931.881 1228.69C924.769 1228.69 918.218 1223.63 916.721 1216.32L909.234 1180.52C907.55 1172.09 912.791 1164.03 921.213 1162.34C929.635 1160.66 937.683 1165.9 939.368 1174.34L946.854 1210.13C948.538 1218.57 943.298 1226.63 934.876 1228.31C933.753 1228.31 932.817 1228.69 931.694 1228.69H931.881Z" fill="#A4C94D"/>
<path d="M991.586 1188.39C989.153 1188.39 986.72 1187.83 984.474 1186.71L951.907 1169.84C944.421 1165.9 941.426 1156.53 945.357 1149.04C949.287 1141.54 958.645 1138.54 966.132 1142.48L998.698 1159.34C1006.18 1163.28 1009.18 1172.65 1005.25 1180.15C1002.44 1185.39 997.201 1188.58 991.586 1188.58V1188.39Z" fill="#A4C94D"/>
<path d="M1131.02 506.57C1131.02 437.975 1075.43 380.625 1007.12 382.499C973.805 383.436 965.757 389.809 957.148 392.995C941.426 398.805 914.662 407.238 866 407.051C838.3 407.051 812.659 404.802 792.258 399.367C771.857 393.932 779.344 394.494 777.098 393.37C761.563 386.248 744.157 382.312 726.003 382.312C657.501 382.312 602.101 437.975 602.101 506.382C602.101 574.789 602.101 508.631 602.101 509.756V512.754V518.939C602.476 565.981 607.342 608.337 615.764 646.195C650.202 827.053 741.537 878.593 859.075 881.779H872.925C990.463 878.593 1081.8 827.053 1116.24 646.195C1124.47 609.649 1129.15 568.792 1129.9 523.624C1130.65 518.002 1131.02 512.192 1131.02 506.382V506.57Z" fill="#8BB52D"/>
<path d="M1031.26 652.005C1029.58 644.696 1026.4 638.886 1022.09 634.201C1009.37 616.396 986.532 604.026 960.143 602.527H954.902C941.988 602.527 929.261 604.026 916.908 606.838C903.245 609.836 885.278 623.518 865.813 623.518C846.348 623.518 828.755 609.836 815.092 606.838C802.739 604.026 790.012 602.527 777.098 602.527H771.857C745.655 604.026 722.821 616.396 709.907 634.201C706.351 637.949 703.73 642.26 701.859 647.695C699.987 653.13 699.051 659.502 699.051 666.811V669.997C699.051 694.549 702.42 716.664 707.661 736.53C729.372 830.989 787.205 857.977 861.508 859.664H870.118C944.421 857.977 1002.07 831.176 1023.96 736.53C1029.39 716.664 1032.39 694.549 1032.57 669.997V666.811C1032.57 661.189 1032.01 656.316 1031.08 651.818L1031.26 652.005Z" fill="white"/>
<path d="M904.181 725.66C899.876 725.285 896.133 728.284 895.759 732.595C895.759 735.031 896.507 737.468 898.192 738.967C893.326 750.774 882.283 759.021 869.556 760.332V727.347C878.353 726.223 886.214 721.162 890.893 713.853C894.636 713.853 897.818 711.042 898.379 707.293C898.941 702.983 896.133 699.047 891.828 698.485C887.524 697.923 883.593 700.734 883.032 705.044C882.657 707.293 883.406 709.355 884.529 711.042C881.16 716.102 875.545 719.663 869.556 720.6V688.364C872.176 687.052 873.861 684.429 873.861 681.43C873.861 678.431 870.305 673.746 866.187 673.746C862.07 673.746 858.514 677.307 858.514 681.43C858.514 685.553 860.198 687.052 862.818 688.364V720.6C856.642 719.663 851.214 716.102 847.845 711.042C849.155 709.355 849.717 707.293 849.343 705.044C848.781 700.734 844.664 697.923 840.546 698.485C836.241 699.047 833.434 703.17 833.995 707.293C834.557 711.042 837.739 713.853 841.482 713.853C846.161 721.35 854.022 726.41 862.818 727.347V760.332C849.904 759.021 838.862 750.774 833.995 738.967C835.68 737.28 836.616 735.031 836.428 732.595C836.054 728.284 832.124 725.285 828.006 725.66C823.701 726.035 820.707 729.971 821.081 734.094C821.455 737.655 824.076 740.279 827.445 740.841C833.247 755.46 846.91 765.768 862.818 767.08V800.44H869.743V767.08C885.652 765.768 899.315 755.46 905.117 740.841C908.486 740.279 911.106 737.655 911.48 734.094C911.855 729.783 908.86 726.035 904.555 725.66H904.181Z" fill="#1A3C5B"/>
<path d="M866 626.142C860.572 626.142 855.332 625.205 850.091 623.518L796.75 606.088C794.691 605.338 793.568 603.277 794.317 601.215C795.066 599.154 797.124 598.029 799.183 598.779L852.524 616.209C861.321 619.02 870.679 619.02 879.289 616.209L932.63 598.779C934.689 598.029 936.935 599.154 937.496 601.215C938.245 603.277 937.122 605.526 935.063 606.088L881.722 623.518C876.481 625.205 871.241 626.142 865.813 626.142H866Z" fill="#3C3C3B"/>
<path d="M900.812 561.483L886.962 547.801L905.117 554.736C910.919 557.36 905.678 565.606 900.812 561.295V561.483Z" fill="#3C3C3B"/>
<path d="M826.883 554.923L845.038 547.989L831.188 561.67C826.509 565.981 821.081 557.734 826.883 555.111V554.923Z" fill="#3C3C3B"/>
<path d="M865.813 468.899C875.323 468.899 883.032 466.885 883.032 464.401C883.032 461.916 875.323 459.903 865.813 459.903C856.303 459.903 848.594 461.916 848.594 464.401C848.594 466.885 856.303 468.899 865.813 468.899Z" fill="white"/>
<path d="M836.99 447.346C846.5 447.346 854.209 445.332 854.209 442.848C854.209 440.363 846.5 438.35 836.99 438.35C827.48 438.35 819.771 440.363 819.771 442.848C819.771 445.332 827.48 447.346 836.99 447.346Z" fill="white"/>
<path d="M888.647 447.346C898.156 447.346 905.866 445.332 905.866 442.848C905.866 440.363 898.156 438.35 888.647 438.35C879.137 438.35 871.428 440.363 871.428 442.848C871.428 445.332 879.137 447.346 888.647 447.346Z" fill="white"/>
<path d="M999.634 768.204C988.217 768.204 976.987 767.267 965.945 765.205C943.672 761.082 928.887 739.716 933.004 717.226C937.122 694.924 958.458 680.118 980.918 684.241C1019.1 691.175 1057.28 675.245 1069.07 661.376C1083.86 644.134 1109.87 642.26 1127.09 657.066C1144.31 671.871 1146.18 697.922 1131.4 715.165C1102.95 748.15 1051.29 768.204 999.821 768.204H999.634Z" fill="#A4C94D"/>
<path d="M942.549 719.663H925.518C920.09 719.663 915.785 715.352 915.785 709.917C915.785 704.482 920.09 700.172 925.518 700.172H942.549C947.977 700.172 952.282 704.482 952.282 709.917C952.282 715.352 947.977 719.663 942.549 719.663Z" fill="#A4C94D"/>
<path d="M932.068 755.647C928.512 755.647 925.143 753.773 923.272 750.399C920.838 745.526 922.71 739.717 927.389 737.093L942.549 729.221C947.416 726.785 953.218 728.659 955.838 733.344C958.271 738.217 956.399 744.027 951.72 746.651L936.56 754.523C935.063 755.272 933.566 755.647 932.068 755.647Z" fill="#A4C94D"/>
<path d="M959.768 782.448C958.084 782.448 956.399 782.073 954.902 781.136C950.223 778.512 948.539 772.514 951.159 767.829L959.581 753.023C962.201 748.338 968.191 746.651 972.87 749.275C977.549 751.899 979.233 757.896 976.613 762.581L968.191 777.387C966.319 780.573 963.137 782.26 959.581 782.26L959.768 782.448Z" fill="#A4C94D"/>
<path d="M732.366 768.204C680.897 768.204 629.053 748.15 600.791 715.165C586.005 697.922 587.877 671.871 605.096 657.066C622.315 642.26 648.33 644.134 663.116 661.376C674.907 675.058 713.088 691.175 751.27 684.241C773.542 680.118 795.066 694.924 799.183 717.226C803.301 739.529 788.515 761.082 766.243 765.205C755.2 767.267 743.97 768.204 732.553 768.204H732.366Z" fill="#A4C94D"/>
<path d="M806.67 719.663H789.638C784.21 719.663 779.905 715.352 779.905 709.917C779.905 704.482 784.21 700.172 789.638 700.172H806.67C812.097 700.172 816.402 704.482 816.402 709.917C816.402 715.352 812.097 719.663 806.67 719.663Z" fill="#A4C94D"/>
<path d="M799.932 755.647C798.434 755.647 796.937 755.272 795.44 754.523L780.28 746.651C775.413 744.215 773.542 738.217 776.162 733.344C778.595 728.472 784.584 726.597 789.451 729.221L804.611 737.093C809.477 739.529 811.349 745.527 808.728 750.399C807.044 753.773 803.488 755.647 799.932 755.647Z" fill="#A4C94D"/>
<path d="M772.232 782.448C768.863 782.448 765.494 780.574 763.622 777.575L755.2 762.769C752.58 758.083 754.077 752.086 758.943 749.462C763.622 746.838 769.611 748.338 772.232 753.211L780.654 768.017C783.274 772.702 781.777 778.699 776.911 781.323C775.414 782.26 773.729 782.635 772.045 782.635L772.232 782.448Z" fill="#A4C94D"/>
<path d="M931.881 516.878L929.074 515.94C887.524 501.697 841.669 501.884 800.306 516.878L793.007 496.636C839.049 480.144 889.77 479.769 935.999 495.699L938.806 496.636L931.881 516.878Z" fill="#0A385A"/>
<path d="M718.703 590.72C767.699 590.72 807.418 550.947 807.418 501.884C807.418 452.821 767.699 413.048 718.703 413.048C669.708 413.048 629.989 452.821 629.989 501.884C629.989 550.947 669.708 590.72 718.703 590.72Z" fill="white"/>
<path d="M718.703 601.403C663.865 601.403 619.32 556.797 619.32 501.884C619.32 446.971 663.865 402.366 718.703 402.366C773.542 402.366 818.087 446.971 818.087 501.884C818.087 556.797 773.542 601.403 718.703 601.403ZM718.703 423.731C675.656 423.731 640.844 458.778 640.844 501.697C640.844 544.615 675.843 579.662 718.703 579.662C761.564 579.662 796.563 544.615 796.563 501.697C796.563 458.778 761.564 423.731 718.703 423.731Z" fill="#0A385A"/>
<path d="M1013.11 590.72C1062.11 590.72 1101.82 550.947 1101.82 501.884C1101.82 452.821 1062.11 413.048 1013.11 413.048C964.114 413.048 924.395 452.821 924.395 501.884C924.395 550.947 964.114 590.72 1013.11 590.72Z" fill="white"/>
<path d="M1013.11 601.403C958.271 601.403 913.726 556.797 913.726 501.884C913.726 446.971 958.271 402.366 1013.11 402.366C1067.95 402.366 1112.49 446.971 1112.49 501.884C1112.49 556.797 1067.95 601.403 1013.11 601.403ZM1013.11 423.731C970.062 423.731 935.25 458.778 935.25 501.697C935.25 544.615 970.249 579.662 1013.11 579.662C1055.97 579.662 1090.97 544.615 1090.97 501.697C1090.97 458.778 1055.97 423.731 1013.11 423.731Z" fill="#0A385A"/>
<path d="M718.703 534.87C736.896 534.87 751.644 520.101 751.644 501.884C751.644 483.667 736.896 468.899 718.703 468.899C700.511 468.899 685.763 483.667 685.763 501.884C685.763 520.101 700.511 534.87 718.703 534.87Z" fill="#060300"/>
<path d="M1013.11 534.87C1031.3 534.87 1046.05 520.101 1046.05 501.884C1046.05 483.667 1031.3 468.899 1013.11 468.899C994.917 468.899 980.169 483.667 980.169 501.884C980.169 520.101 994.917 534.87 1013.11 534.87Z" fill="#060300"/>
<path d="M694.372 521.563C702.538 521.563 709.158 514.934 709.158 506.757C709.158 498.58 702.538 491.951 694.372 491.951C686.206 491.951 679.587 498.58 679.587 506.757C679.587 514.934 686.206 521.563 694.372 521.563Z" fill="white"/>
<path d="M982.041 521.563C990.207 521.563 996.826 514.934 996.826 506.757C996.826 498.58 990.207 491.951 982.041 491.951C973.875 491.951 967.255 498.58 967.255 506.757C967.255 514.934 973.875 521.563 982.041 521.563Z" fill="white"/>
<g clip-path="url(#clip1_28_587)">
<path d="M1051.5 1228.4H1124.5" stroke="#ADCB53" stroke-width="3.7" stroke-linecap="round" stroke-linejoin="round"/>
<path d="M1096.2 1225.9V1178.3" stroke="#ADCB53" stroke-width="3.7" stroke-linecap="round" stroke-linejoin="round"/>
<path d="M1103.2 1178.6C1103.2 1174.7 1100.1 1171.6 1096.2 1171.6C1092.3 1171.6 1089.2 1174.7 1089.2 1178.6C1089.2 1182.5 1092.3 1185.6 1096.2 1185.6C1100.1 1185.6 1103.2 1182.5 1103.2 1178.6Z" fill="#ADCB53"/>
<path d="M1064.3 1227.4V1157" stroke="#ADCB53" stroke-width="3.2" stroke-linecap="round" stroke-linejoin="round"/>
<path d="M1070.3 1157.3C1070.3 1154 1067.6 1151.3 1064.3 1151.3C1061 1151.3 1058.3 1154 1058.3 1157.3C1058.3 1160.6 1061 1163.3 1064.3 1163.3C1067.6 1163.3 1070.3 1160.6 1070.3 1157.3Z" fill="#ADCB53"/>
<path d="M1257.7 517.2C1296 517.4 1362.7 515.7 1418.4 434.1C1437.3 406.4 1450.9 364.5 1449 330.8C1447.6 306.7 1441.6 271.2 1413.2 263.1C1391 256.7 1366.2 265.8 1352.3 283.2C1342.2 295.9 1333.2 325.7 1309.2 316C1272.3 301.1 1324 259.1 1338.1 249C1353.2 238.3 1361.8 227.7 1372.9 213.4C1389.3 192.1 1400.3 154.2 1389.8 128.7C1374 90.0999 1322.4 107 1311 139.4C1309.6 143.4 1306.8 147.4 1302.5 148.5C1298.4 149.5 1294.1 147.4 1291.5 144.2C1289 141 1288 137 1287.6 133C1284.5 102.5 1317.2 84.8999 1321 55.6999C1325.1 24.2999 1297.7 7.8999 1267 1.8999H1260.9C1230.2 7.5999 1202.6 23.5999 1206.3 55.0999C1209.8 84.3999 1242.2 102.3 1238.8 132.8C1238.4 136.8 1237.3 140.8 1234.7 144C1232.1 147.1 1227.7 149.2 1223.7 148.2C1219.4 147.1 1216.7 143.1 1215.3 139.1C1204.2 106.6 1152.8 89.0999 1136.6 127.5C1120.4 165.9 1136.4 191 1152.6 212.4C1163.5 226.9 1172.1 237.5 1187 248.4C1201 258.6 1252.2 301.2 1215.2 315.7C1191.1 325.1 1182.4 295.2 1172.4 282.4C1158.8 264.9 1134 255.5 1111.8 261.7C1083.4 269.5 1076.9 304.9 1075.3 329C1073 362.7 1084.8 405.6 1104.7 432.6C1165.5 514.9 1226.2 517.3 1264.5 517.5" fill="#0A385A"/>
<path d="M1263.6 73.7L1258.9 1021.9" stroke="#265D84" stroke-width="6.4" stroke-linecap="round" stroke-linejoin="round"/>
<path d="M1253.9 74.1C1253.9 68.8 1258.3 64.4 1263.6 64.5C1268.9 64.5 1273.3 68.9 1273.2 74.2C1273.2 79.5 1268.8 83.9 1263.5 83.8C1258.2 83.8 1253.8 79.4 1253.9 74.1Z" fill="#265D84"/>
<path d="M1337.2 171.7C1332.4 208.5 1300.6 237.1 1262.6 236.9C1224.6 236.7 1193.1 207.7 1188.7 170.9" stroke="#265D84" stroke-width="6.4" stroke-linecap="round" stroke-linejoin="round"/>
<path d="M1327.5 171.5C1327.9 166.2 1332.5 162.2 1337.9 162.5C1343.3 162.8 1347.2 167.5 1346.9 172.9C1346.5 178.2 1341.9 182.2 1336.5 181.9C1331.1 181.6 1327.2 176.9 1327.5 171.5Z" fill="#265D84"/>
<path d="M1198.6 170.8C1198.3 165.5 1193.7 161.4 1188.3 161.7C1182.9 162 1178.9 166.6 1179.2 172C1179.5 177.3 1184.1 181.4 1189.5 181.1C1194.8 180.8 1198.9 176.2 1198.6 170.8Z" fill="#265D84"/>
<path d="M1387.4 325.2C1381.8 382.1 1327.2 426.9 1261.6 426.5C1196 426.1 1141.9 380.7 1136.9 323.8" stroke="#265D84" stroke-width="6.4" stroke-linecap="round" stroke-linejoin="round"/>
<path d="M1377.7 325.1C1378 319.8 1382.6 315.7 1387.9 316C1393.2 316.3 1397.3 320.9 1397 326.2C1396.7 331.5 1392.1 335.6 1386.8 335.3C1381.5 335 1377.4 330.4 1377.7 325.1Z" fill="#265D84"/>
<path d="M1146.7 323.8C1146.4 318.5 1141.9 314.3 1136.6 314.6C1131.3 314.9 1127.1 319.4 1127.4 324.7C1127.7 330 1132.2 334.2 1137.5 333.9C1142.8 333.6 1147 329.1 1146.7 323.8Z" fill="#265D84"/>
<path d="M1581.7 1225.3V1174.9" stroke="#ADCB53" stroke-width="5" stroke-linecap="round" stroke-linejoin="round"/>
<path d="M1591 1175.4C1591 1170.2 1586.8 1166 1581.6 1166C1576.4 1166 1572.2 1170.2 1572.2 1175.4C1572.2 1180.6 1576.4 1184.8 1581.6 1184.8C1586.8 1184.8 1591 1180.6 1591 1175.4Z" fill="#ADCB53"/>
<path d="M1614.6 1224.8V1132.1" stroke="#ADCB53" stroke-width="5" stroke-linecap="round" stroke-linejoin="round"/>
<path d="M1623.32 1136.18C1625.3 1131.38 1623.03 1125.88 1618.23 1123.9C1613.43 1121.91 1607.93 1124.19 1605.95 1128.98C1603.96 1133.78 1606.24 1139.28 1611.03 1141.27C1615.83 1143.25 1621.33 1140.97 1623.32 1136.18Z" fill="#ADCB53"/>
<path d="M1550.5 1006.5C1554.3 1013.5 1556.5 1021.6 1556.6 1030.1C1556.9 1058 1522.5 1089.3 1506.5 1089.3C1484.9 1089.3 1454.9 1059 1454.9 1030.7C1454.9 1019.1 1458.8 1008.4 1465.4 999.8C1468.5 995.7 1469.3 990.3 1467.3 985.6C1465.3 980.9 1464.1 975.3 1464.1 969.6C1464.1 960 1467.4 951.1 1472.9 944C1476.4 939.6 1477 933.6 1474.4 928.5C1472 923.7 1470.6 918.3 1470.6 912.6C1470.6 893.2 1491.9 854.4 1505.8 854.4C1517.9 854.4 1541 893.2 1541 912.6C1541 918.3 1539.6 923.7 1537.2 928.5C1534.6 933.5 1535.3 939.5 1538.7 944C1544.2 951.1 1547.5 959.9 1547.5 969.6C1547.5 975.3 1546.4 980.7 1544.3 985.6C1542.2 990.5 1543.1 995.7 1546.2 999.8C1547.8 1001.9 1549.3 1004.1 1550.5 1006.5Z" stroke="#ADCB53" stroke-width="3.5" stroke-linecap="round" stroke-linejoin="round"/>
<path d="M1505.8 899.4V1224.9" stroke="#ADCB53" stroke-width="3.5" stroke-linecap="round" stroke-linejoin="round"/>
<path d="M1067.9 532.4C1067.9 601.1 1123.6 656.8 1192.3 656.8C1261 656.8 1316.7 601.1 1316.7 532.4C1316.7 486 1260 383.6 1223.2 321.9C1209.2 298.5 1175.4 298.5 1161.4 321.9C1124.6 383.6 1067.9 486 1067.9 532.4Z" fill="#11283C" stroke="#A9C753" stroke-width="5.5" stroke-linecap="round" stroke-linejoin="round"/>
<path d="M1143.9 458.9C1147.9 482 1168.2 499.7 1192.4 499.7C1216.6 499.7 1236.9 482 1240.9 458.9" stroke="#618AA6" stroke-width="5.9" stroke-linecap="round" stroke-linejoin="round"/>
<path d="M1146.02 467.927C1150.74 466.768 1153.62 462.002 1152.46 457.282C1151.3 452.562 1146.54 449.676 1141.82 450.835C1137.1 451.995 1134.21 456.761 1135.37 461.48C1136.53 466.2 1141.3 469.087 1146.02 467.927Z" fill="#618AA6"/>
<path d="M1249.5 460.1C1250 455.2 1246.4 450.9 1241.5 450.5C1236.6 450 1232.3 453.6 1231.9 458.5C1231.4 463.4 1235 467.7 1239.9 468.1C1244.8 468.6 1249.1 465 1249.5 460.1Z" fill="#618AA6"/>
<path d="M1119.7 526C1123.9 562.3 1155 590.7 1192.3 590.7C1229.6 590.7 1260.8 562.3 1265 525.9" stroke="#618AA6" stroke-width="5.9" stroke-linecap="round" stroke-linejoin="round"/>
<path d="M1110.9 527C1110.6 522.1 1114.3 517.9 1119.2 517.6C1124.1 517.3 1128.3 521 1128.6 525.9C1128.9 530.8 1125.2 535 1120.3 535.3C1115.4 535.6 1111.2 531.9 1110.9 527Z" fill="#618AA6"/>
<path d="M1273.7 527C1274 522.1 1270.3 517.9 1265.4 517.6C1260.5 517.3 1256.3 521 1256 525.9C1255.7 530.8 1259.4 535 1264.3 535.3C1269.2 535.6 1273.4 531.9 1273.7 527Z" fill="#618AA6"/>
<path d="M1192.3 404.3V975.9" stroke="#618AA6" stroke-width="5.9" stroke-linecap="round" stroke-linejoin="round"/>
<path d="M1183.5 404.7C1183.5 399.8 1187.5 395.9 1192.3 395.9C1197.1 395.9 1201.1 399.9 1201.1 404.7C1201.1 409.5 1197.1 413.5 1192.3 413.5C1187.5 413.5 1183.5 409.5 1183.5 404.7Z" fill="#618AA6"/>
<path d="M1554 1227.8H1719.5" stroke="#ADCB53" stroke-width="4.4" stroke-linecap="round" stroke-linejoin="round"/>
<path d="M1451.8 1227.8H1269.6" stroke="#ADCB53" stroke-width="4.4" stroke-linecap="round" stroke-linejoin="round"/>
<path d="M1495.7 1225.2C1481.4 1125.4 1401.6 972.3 1343 972.3C1298.6 972.3 1269.3 1024.2 1254.3 1059.5C1231.8 1112.3 1213.8 1169 1208.2 1226.3" fill="#0A385A"/>
<path d="M1438.7 733.9V691.2H1396" stroke="#C3C3C3" stroke-width="5.1" stroke-linejoin="round"/>
<path d="M1299.8 787.4V830.1H1342.6" stroke="#C3C3C3" stroke-width="5.1" stroke-linejoin="round"/>
<path d="M1342.6 691.2H1299.8V733.9" stroke="#C3C3C3" stroke-width="5.1" stroke-linejoin="round"/>
<path d="M1396 830.1H1438.7V787.4" stroke="#C3C3C3" stroke-width="5.1" stroke-linejoin="round"/>
<path d="M1343.8 762.1C1343.7 774.4 1353.6 784.4 1365.8 784.5C1378.1 784.6 1388.1 774.7 1388.2 762.5C1388.3 750.2 1366.2 729.3 1366.2 729.3C1366.2 729.3 1343.8 749.8 1343.7 762.1H1343.8Z" stroke="#ADCB53" stroke-width="2.5" stroke-linecap="round" stroke-linejoin="round"/>
<path d="M1366 759.3L1365.7 807.3" stroke="#ADCB53" stroke-width="2.5" stroke-linecap="round" stroke-linejoin="round"/>
<path d="M1438.7 872H1299.8" stroke="#AECC53" stroke-width="3.2" stroke-miterlimit="10"/>
<path d="M1438.7 900.9H1299.8" stroke="#AECC53" stroke-width="3.2" stroke-miterlimit="10"/>
<path d="M1438.7 927.9H1299.8" stroke="#AECC53" stroke-width="3.2" stroke-miterlimit="10"/>
<path d="M1329.7 1175L1355.2 1121.4C1367.2 1096.1 1403.2 1096.1 1415.2 1121.4L1459.8 1227.9" stroke="#C8D3DD" stroke-width="3" stroke-miterlimit="10"/>
<path d="M1350 1214.6C1357.9 1197.5 1365.7 1180.3 1373.6 1163.2C1376.7 1156.5 1379.9 1149.6 1384.9 1144.1C1392.1 1136.2 1402.5 1134 1412.5 1137.6C1415.4 1138.7 1423.8 1143.5 1426.9 1148.8" stroke="#C8D3DD" stroke-width="3" stroke-miterlimit="10"/>
<path d="M1282.7 1225.2L1304.3 1179.3C1309.9 1167.5 1326.6 1167.5 1332.2 1179.3L1354.1 1225.2" stroke="#C8D3DD" stroke-width="3" stroke-linecap="round" stroke-linejoin="round"/>
<path d="M1449 1203.4C1443.6 1193.3 1437.3 1182.2 1424.5 1182.4C1417.3 1182.5 1410.5 1186.1 1405.3 1191.1C1394.7 1201.2 1390.5 1214 1384.8 1226.9" stroke="#C8D3DD" stroke-width="3" stroke-miterlimit="10"/>
<path d="M1459.5 1227.9C1459.6 1228.3 1386.4 1226.7 1386.6 1226.3C1392.5 1208.9 1403.5 1182.9 1422.6 1182.9C1441.7 1182.9 1452.6 1205.9 1459.6 1227.9H1459.5Z" fill="#C8D3DD"/>
<path d="M1523.9 1227.8H1245.5" stroke="#A9C753" stroke-width="4.4" stroke-linecap="round" stroke-linejoin="round"/>
<path d="M1124 1227.8H1258.2V1004.8H1124V1227.8Z" fill="#11283C" stroke="white" stroke-width="4.4" stroke-linecap="round" stroke-linejoin="round"/>
<path d="M1137.7 1069.9H1244.4V1027.1H1137.7V1069.9Z" stroke="#ADCB53" stroke-width="4.4" stroke-linecap="round" stroke-linejoin="round"/>
<path d="M1137.7 1137.5H1244.4V1094.7H1137.7V1137.5Z" stroke="#ADCB53" stroke-width="4.4" stroke-linecap="round" stroke-linejoin="round"/>
<path d="M1137.7 1205.1H1244.4V1162.3H1137.7V1205.1Z" stroke="#ADCB53" stroke-width="4.4" stroke-linecap="round" stroke-linejoin="round"/>
<path d="M1164.2 1004.9H1219.4V981H1164.2V1004.9Z" stroke="white" stroke-width="4.4" stroke-linecap="round" stroke-linejoin="round"/>
<path d="M1679 1225.4V1155.4" stroke="#ADCB53" stroke-width="3.3" stroke-linecap="round" stroke-linejoin="round"/>
<path d="M1702.7 1127.5C1703.1 1127.1 1703.5 1126.7 1703.9 1126.3C1705.6 1124.2 1705.5 1121.1 1703.6 1119.2L1699.6 1115.2C1688.4 1104 1670.1 1104 1658.9 1115.2L1654.9 1119.2C1653 1121.1 1652.8 1124.2 1654.6 1126.3C1655 1126.7 1655.3 1127.2 1655.6 1127.7C1658.3 1131.5 1662.6 1133.2 1666 1136.4C1670.5 1140.7 1672.4 1147.5 1678 1150.5C1684.9 1154.3 1688.9 1149 1692.1 1143.1C1694.2 1139.3 1695.8 1135.2 1698.3 1131.6C1699.5 1129.8 1701.3 1128.8 1702.8 1127.4L1702.7 1127.5Z" fill="white"/>
<path d="M1680.3 1158.5C1675.5 1157.2 1670.4 1156.5 1665.4 1156.6C1660.4 1156.7 1656.1 1158 1651.5 1157.9C1651.1 1157.9 1650.6 1157.9 1650.2 1157.9C1648.1 1158 1646.2 1156.5 1645.9 1154.4L1645.2 1150.1C1643.3 1137.9 1651.7 1126.4 1663.8 1124.5L1668.1 1123.8C1670.2 1123.5 1672.2 1124.8 1672.7 1126.8C1673.2 1128.8 1672.9 1127.7 1673.1 1128.1C1674.8 1132.9 1676.6 1137.7 1678 1142.6C1679.4 1147.6 1679.9 1152.6 1680.4 1157.7" fill="#C8D3DD"/>
<path d="M1680 1158.5C1681.8 1158.5 1684.1 1157.1 1685.9 1156.7C1687.7 1156.3 1690.6 1155.8 1693 1155.7C1697 1155.6 1701 1156.1 1704.8 1157.4C1708.6 1158.7 1711.9 1158.5 1712.5 1154.5L1713.2 1150.2C1715.1 1138 1706.7 1126.5 1694.6 1124.6L1690.3 1123.9C1688.2 1123.6 1686.2 1124.9 1685.7 1126.9C1685.2 1128.9 1685.5 1127.8 1685.3 1128.2L1679.2 1146.1C1678.6 1148 1677.9 1149.8 1677.7 1151.8C1677.5 1153.8 1677.7 1155.8 1678.5 1157.6C1678.7 1157.9 1678.9 1158.3 1679.2 1158.5C1679.5 1158.7 1679.7 1158.5 1680 1158.5Z" fill="#C8D3DD"/>
<path d="M1685.5 1157.9C1685.5 1154.6 1682.8 1154.9 1679.5 1154.9C1676.2 1154.9 1673.5 1154.6 1673.5 1157.9C1673.5 1161.2 1676.2 1166.9 1679.5 1166.9C1682.8 1166.9 1685.5 1161.2 1685.5 1157.9Z" fill="#ADCB53"/>
</g>
<defs>
<clipPath id="clip0_28_587">
<rect width="673" height="1226" fill="white" transform="translate(0 4)"/>
</clipPath>
<clipPath id="clip1_28_587">
<rect width="673" height="1230" fill="white" transform="translate(1049)"/>
</clipPath>
</defs>
</svg>
