<svg width="749" height="535" viewBox="0 0 749 535" fill="none" xmlns="http://www.w3.org/2000/svg">
<path d="M110.453 454C109.527 454 108.774 453.235 108.774 452.295V46.0797C108.774 45.1397 109.527 44.3751 110.453 44.3751C111.378 44.3751 112.131 45.1397 112.131 46.0797V452.295C112.131 453.235 111.383 454 110.453 454Z" fill="#1A3C5B"/>
<path d="M81.6608 89.465H38.5739C29.0166 89.465 21.1953 97.2902 21.1953 106.852C21.1953 107.006 21.2145 107.155 21.2193 107.308C21.2097 107.462 21.1953 107.61 21.1953 107.764V129.589C21.1953 134.104 24.3747 138.139 28.8344 138.835C34.4547 139.713 39.346 135.332 39.346 129.867V128.798C39.346 126.283 41.384 124.249 43.892 124.249C46.4048 124.249 48.4381 126.288 48.4381 128.798V144.151C48.4381 149.145 52.5238 153.228 57.5158 153.228C62.5079 153.228 66.5888 149.14 66.5888 144.151V128.798C66.5888 126.283 68.6268 124.249 71.1348 124.249H81.656C91.2133 124.249 99.0346 116.424 99.0346 106.862C99.0394 97.2903 91.218 89.465 81.6608 89.465Z" fill="#1A3C5B"/>
<path d="M60.4655 74.0784H17.3786C8.26731 74.0784 0.752881 81.1888 0.0671359 90.1319C0.0287725 90.4294 0 90.7269 0 91.0339V91.4657V119.615C0 123.021 2.43128 126.068 5.80246 126.514C9.88816 127.056 13.408 123.851 13.408 119.864V112.653C13.408 110.503 15.1871 108.843 17.3354 108.848C17.3498 108.848 17.3642 108.848 17.3786 108.848H60.4655C70.0227 108.848 77.8441 101.023 77.8441 91.4609C77.8441 81.9037 70.0227 74.0784 60.4655 74.0784Z" fill="#ADCB53"/>
<path d="M110.452 176.689H102.789C83.061 176.689 67.0107 160.631 67.0107 140.893V125.559C67.0107 124.633 67.7636 123.88 68.6891 123.88C69.6147 123.88 70.3675 124.633 70.3675 125.559V140.893C70.3675 158.779 84.9121 173.331 102.789 173.331H110.452C111.378 173.331 112.131 174.084 112.131 175.01C112.131 175.936 111.383 176.689 110.452 176.689Z" fill="#1A3C5B"/>
<path d="M73.274 164.33H65.611C53.5553 164.33 33.3809 164.33 30.1968 139.012C30.0817 138.091 30.7338 137.251 31.6546 137.136C32.5753 137.021 33.4145 137.674 33.5296 138.595C34.7572 148.368 38.7518 154.711 45.7339 157.992C51.5987 160.746 58.485 160.977 65.611 160.977H73.274C74.1995 160.977 74.9524 161.73 74.9524 162.656C74.9524 163.582 74.2043 164.33 73.274 164.33Z" fill="#1A3C5B"/>
<path d="M152.921 128.889H145.258C144.332 128.889 143.579 128.135 143.579 127.21C143.579 126.284 144.332 125.53 145.258 125.53H152.921C160.047 125.53 166.933 125.3 172.798 122.546C179.78 119.264 183.774 112.922 185.002 103.148C185.117 102.227 185.956 101.575 186.877 101.69C187.798 101.805 188.45 102.645 188.335 103.566C185.151 128.889 164.976 128.889 152.921 128.889Z" fill="#1A3C5B"/>
<path d="M110.477 107.155C109.824 107.155 109.201 106.771 108.933 106.133C108.568 105.279 108.966 104.295 109.82 103.93C121.871 98.8064 129.658 87.0805 129.658 74.0496V58.7158C129.658 57.7898 130.411 57.0365 131.337 57.0365C132.262 57.0365 133.015 57.7898 133.015 58.7158V74.0496C133.015 88.4287 124.427 101.373 111.134 107.02C110.918 107.111 110.697 107.155 110.477 107.155Z" fill="#1A3C5B"/>
<path d="M118.116 141.713H110.453C109.527 141.713 108.774 140.96 108.774 140.034C108.774 139.108 109.527 138.355 110.453 138.355H118.116C135.993 138.355 150.538 123.803 150.538 105.917V90.583C150.538 89.657 151.291 88.9037 152.216 88.9037C153.142 88.9037 153.895 89.657 153.895 90.583V105.917C153.899 125.655 137.849 141.713 118.116 141.713Z" fill="#1A3C5B"/>
<path d="M176.021 70.4417H197.562C207.119 70.4417 214.941 78.2669 214.941 87.829C214.941 87.9825 214.922 88.1313 214.917 88.2848C214.926 88.4383 214.941 88.587 214.941 88.7406V110.566C214.941 115.081 211.761 119.116 207.302 119.811C201.681 120.689 196.79 116.309 196.79 110.844V109.774C196.79 107.26 194.752 105.226 192.244 105.226C189.731 105.226 176.021 105.226 176.021 105.226C166.464 105.226 158.642 97.4006 158.642 87.8386C158.638 78.2669 166.459 70.4417 176.021 70.4417Z" fill="#1A3C5B"/>
<path d="M65.5103 79.7494H42.5738C38.3011 79.7494 34.8101 76.2518 34.8101 71.9817V69.0887C34.8101 64.8138 38.3059 61.321 42.5738 61.321H65.5103C69.7831 61.321 73.2741 64.8186 73.2741 69.0887V71.9817C73.2789 76.2566 69.7831 79.7494 65.5103 79.7494Z" fill="#ADCB53"/>
<path d="M159.29 58.7158H108.276C102.407 58.7158 97.6064 53.9131 97.6064 48.0406V44.068C97.6064 38.1955 102.407 33.3929 108.276 33.3929H159.29C165.16 33.3929 169.96 38.1955 169.96 44.068V48.0406C169.96 53.9131 165.155 58.7158 159.29 58.7158Z" fill="#1A3C5B"/>
<path d="M154.121 9.49489H145.954V7.69571C145.954 3.46403 142.492 0 138.262 0H97.2661C93.0365 0 89.5742 3.46403 89.5742 7.69571V9.49489H83.8581C74.5502 9.49489 66.9351 17.1138 66.9351 26.4264V32.726C66.9351 42.0385 74.5502 49.6575 83.8581 49.6575H154.121C163.429 49.6575 171.044 42.0385 171.044 32.726V26.4264C171.039 17.1138 163.424 9.49489 154.121 9.49489Z" fill="#ADCB53"/>
<path d="M201.02 96.8201C201.02 88.0977 193.889 80.9633 185.171 80.9633H155.031C146.313 80.9633 139.183 88.0977 139.183 96.8201C139.183 105.543 146.313 112.677 155.031 112.677H185.171C185.228 112.677 185.291 112.677 185.348 112.677C186.959 112.658 188.384 113.56 189.161 114.97C190.383 117.192 192.901 118.612 195.682 118.185C198.804 117.705 201.024 114.874 201.024 111.717V99.9147C201.024 99.4973 200.981 99.0895 200.904 98.6913C200.967 98.0771 201.02 97.4534 201.02 96.8201Z" fill="#ADCB53"/>
<path d="M31.928 26.2441C28.763 26.2441 26.1831 23.6677 26.1831 20.4963C26.1831 17.3297 28.7582 14.7485 31.928 14.7485C35.0978 14.7485 37.6729 17.3249 37.6729 20.4963C37.6729 23.6677 35.0978 26.2441 31.928 26.2441ZM31.928 18.0878C30.5997 18.0878 29.5207 19.1673 29.5207 20.4963C29.5207 21.8253 30.5997 22.9048 31.928 22.9048C33.2564 22.9048 34.3353 21.8253 34.3353 20.4963C34.3401 19.1673 33.2564 18.0878 31.928 18.0878Z" fill="#ADCB53"/>
<path d="M199.767 40.8966C193.432 40.8966 188.282 35.739 188.282 29.4059C188.282 23.0727 193.437 17.9151 199.767 17.9151C206.097 17.9151 211.252 23.0727 211.252 29.4059C211.252 35.739 206.097 40.8966 199.767 40.8966ZM199.767 24.584C197.111 24.584 194.948 26.7479 194.948 29.4059C194.948 32.0639 197.111 34.2277 199.767 34.2277C202.424 34.2277 204.587 32.0639 204.587 29.4059C204.582 26.7479 202.424 24.584 199.767 24.584Z" fill="#ADCB53"/>
<path d="M246.686 416.679C245.861 416.679 245.036 416.52 244.23 416.146C238.802 413.613 239.286 406.997 239.67 401.681C239.833 399.469 239.982 397.382 239.732 395.803C239.128 391.984 239.833 389.11 242.245 385.555C244.058 382.892 246.705 380.575 250.575 378.272C251.308 377.835 252.148 377.437 253.035 377.02C255.078 376.055 257.192 375.058 258.195 373.484C259.269 371.8 260.65 370.36 262.3 369.209C265.09 367.261 268.361 366.325 271.751 366.508C273.439 366.599 274.979 365.735 275.77 364.253C276.734 362.454 278.072 360.947 279.755 359.772C287.744 354.197 301.617 354.489 309.448 360.395C311.122 361.657 312.714 363.85 311.678 365.874C311.141 366.92 310.072 367.472 309.108 367.909C308.628 368.125 308.129 368.341 307.621 368.561C305.056 369.67 302.145 370.927 300.466 373.004C299.713 373.935 299.143 374.947 298.591 375.931C297.603 377.682 296.587 379.491 294.51 380.94C292.827 382.115 290.947 382.854 288.929 383.132C287.265 383.363 285.922 384.509 285.423 386.126C284.421 389.369 282.412 392.119 279.621 394.062C277.971 395.213 276.144 396.014 274.192 396.437C272.725 396.758 271.526 397.857 271.066 399.315C269.838 403.187 267.421 406.464 264.083 408.791C262.563 409.851 261.24 410.154 259.844 410.47C259.35 410.581 258.842 410.7 258.305 410.854C256.823 411.281 255.452 412.327 254.128 413.339C253.644 413.709 253.145 414.088 252.656 414.433C251.049 415.561 248.882 416.679 246.686 416.679ZM270.936 367.933C268.136 367.933 265.45 368.777 263.124 370.399C261.628 371.44 260.381 372.74 259.408 374.266C258.185 376.185 255.773 377.327 253.649 378.33C252.795 378.733 251.989 379.116 251.308 379.519C247.626 381.712 245.122 383.89 243.434 386.371C241.219 389.628 240.6 392.123 241.152 395.583C241.43 397.324 241.272 399.493 241.104 401.791C240.73 406.92 240.303 412.735 244.835 414.846C247.285 415.988 250.273 414.342 251.836 413.263C252.301 412.941 252.766 412.586 253.255 412.212C254.684 411.118 256.166 409.986 257.907 409.487C258.482 409.324 259.01 409.204 259.523 409.084C260.837 408.786 261.969 408.527 263.259 407.625C266.332 405.48 268.558 402.458 269.694 398.893C270.313 396.95 271.919 395.477 273.885 395.045C275.65 394.661 277.3 393.937 278.796 392.896C281.323 391.135 283.136 388.65 284.047 385.713C284.704 383.593 286.54 382.024 288.727 381.717C290.521 381.467 292.189 380.81 293.686 379.769C295.493 378.507 296.39 376.919 297.335 375.23C297.915 374.199 298.515 373.134 299.344 372.107C301.248 369.751 304.331 368.422 307.05 367.247C307.554 367.031 308.043 366.82 308.518 366.604C309.29 366.254 310.072 365.86 310.398 365.227C311.069 363.912 309.573 362.295 308.585 361.552C301.2 355.981 288.113 355.708 280.58 360.962C279.084 362.003 277.894 363.341 277.041 364.939C276 366.887 273.885 368.072 271.675 367.952C271.43 367.938 271.185 367.933 270.936 367.933Z" fill="#ADCB53"/>
<path d="M240.193 437.554C240.188 437.554 240.183 437.554 240.178 437.554C239.78 437.544 239.464 437.218 239.473 436.82C239.761 422.335 244.676 407.452 252.618 397.012C262.865 383.535 276.499 372.884 292.05 366.21C292.415 366.052 292.837 366.22 292.995 366.589C293.153 366.954 292.981 367.376 292.616 367.534C277.295 374.112 263.858 384.61 253.764 397.885C246 408.095 241.195 422.661 240.912 436.853C240.902 437.242 240.581 437.554 240.193 437.554Z" fill="#ADCB53"/>
<path d="M214.351 399.747C211.574 399.747 207.373 397.314 203.657 393.548C201.408 391.269 196.19 385.248 196.272 378.497C196.31 375.523 197.073 372.577 198.487 369.976C198.943 369.137 199.47 368.326 200.056 367.568C200.981 366.364 201.197 364.752 200.617 363.365C199.849 361.523 199.461 359.565 199.461 357.55C199.461 354.144 200.564 350.929 202.65 348.247C203.69 346.913 203.863 345.157 203.101 343.66C202.175 341.842 201.705 339.88 201.705 337.826C201.705 333.93 204.088 328.571 206.318 324.853C207.431 322.996 211.315 316.946 214.6 316.946C220.139 316.946 227.495 331.272 227.495 337.826C227.495 339.88 227.025 341.842 226.099 343.66C225.337 345.157 225.51 346.913 226.55 348.247C228.636 350.929 229.739 354.144 229.739 357.55C229.739 359.565 229.351 361.518 228.583 363.365C228.008 364.752 228.224 366.369 229.154 367.578C231.624 370.802 232.928 374.654 232.928 378.728C232.933 389.153 222.124 399.747 214.351 399.747ZM199.749 370.663C198.449 373.057 197.739 375.772 197.711 378.512C197.658 382.82 200.267 388.059 204.683 392.536C208.093 395.99 211.977 398.308 214.355 398.308C221.438 398.308 231.499 388.179 231.499 378.723C231.499 374.971 230.295 371.421 228.022 368.451C226.78 366.834 226.493 364.67 227.265 362.809C227.96 361.139 228.31 359.368 228.31 357.55C228.31 354.47 227.313 351.558 225.423 349.135C224.061 347.384 223.826 344.98 224.824 343.008C225.644 341.391 226.061 339.649 226.061 337.826C226.061 330.922 218.671 318.385 214.605 318.385C211.181 318.385 203.149 330.941 203.149 337.826C203.149 339.649 203.566 341.396 204.386 343.008C205.388 344.975 205.153 347.384 203.786 349.135C201.897 351.558 200.9 354.47 200.9 357.55C200.9 359.373 201.25 361.144 201.945 362.809C202.722 364.67 202.434 366.829 201.197 368.441C200.655 369.137 200.171 369.885 199.749 370.663Z" fill="#ADCB53"/>
<path d="M214.6 430.64C214.202 430.64 213.881 430.319 213.881 429.921V333.182C213.881 332.784 214.202 332.462 214.6 332.462C214.998 332.462 215.32 332.784 215.32 333.182V429.921C215.32 430.319 214.998 430.64 214.6 430.64Z" fill="#ADCB53"/>
<path d="M289.596 469.627C288.929 470.486 287.85 471.1 286.781 471.57C283.769 472.885 280.456 473.489 277.171 474.051C265.547 476.042 253.256 477.568 242.107 473.993C239.181 473.053 233.767 471.004 233.82 467.847C233.883 464.417 236.333 460.08 237.671 456.927C239.541 452.523 241.704 448.205 244.274 444.098C248.077 438.024 254.383 428.966 263.231 428.966C272.045 428.966 278.336 437.962 282.134 444.016C284.676 448.066 286.819 452.321 288.675 456.664C290.027 459.825 292.07 466.427 289.596 469.627Z" fill="#C8D3DD"/>
<path d="M180.61 471.95C180.183 472.501 179.488 472.9 178.797 473.202C176.86 474.046 174.721 474.44 172.606 474.8C165.121 476.081 157.208 477.064 150.025 474.761C148.14 474.157 144.654 472.837 144.687 470.803C144.726 468.596 146.308 465.799 147.166 463.769C148.37 460.934 149.761 458.151 151.42 455.507C153.87 451.592 157.932 445.763 163.629 445.763C169.307 445.763 173.359 451.559 175.805 455.455C177.44 458.065 178.821 460.804 180.015 463.601C180.888 465.636 182.202 469.887 180.61 471.95Z" fill="#C8D3DD"/>
<path d="M69.4379 352.939C45.5471 352.939 26.1064 333.494 26.1064 309.586V273.108C26.1064 267.692 30.4943 263.302 35.9083 263.302C41.3223 263.302 45.7101 267.692 45.7101 273.108V309.586C45.7101 322.679 56.356 333.326 69.4379 333.326C74.8519 333.326 79.2397 337.716 79.2397 343.133C79.2397 348.549 74.8519 352.939 69.4379 352.939Z" fill="#ADCB53"/>
<path d="M69.4381 423.827C64.024 423.827 59.6362 419.437 59.6362 414.021V227.193C59.6362 221.776 64.024 217.386 69.4381 217.386C74.8521 217.386 79.2399 221.776 79.2399 227.193V414.021C79.2399 419.437 74.8521 423.827 69.4381 423.827Z" fill="#ADCB53"/>
<path d="M69.4379 343.756C50.6063 343.756 35.2897 328.427 35.2897 309.591V277.546C35.2897 277.206 35.5678 276.927 35.9083 276.927C36.2488 276.927 36.5269 277.206 36.5269 277.546V309.591C36.5269 327.746 51.292 342.518 69.4379 342.518C69.7783 342.518 70.0565 342.797 70.0565 343.137C70.0565 343.478 69.7831 343.756 69.4379 343.756Z" fill="#11283C"/>
<path d="M31.2418 277.777C31.2418 275.195 33.3326 273.104 35.9126 273.104C38.4925 273.104 40.5785 275.195 40.5785 277.777C40.5785 280.358 38.4877 282.445 35.9126 282.445C33.3326 282.45 31.2418 280.358 31.2418 277.777Z" fill="#11283C"/>
<path d="M69.4383 397.204C69.0978 397.204 68.8197 396.926 68.8197 396.585V231.631C68.8197 231.291 69.0978 231.012 69.4383 231.012C69.7788 231.012 70.0569 231.291 70.0569 231.631V396.585C70.0617 396.926 69.7836 397.204 69.4383 397.204Z" fill="#11283C"/>
<path d="M73.9749 232.953C74.5677 230.441 73.0131 227.924 70.5027 227.331C67.9922 226.738 65.4766 228.293 64.8838 230.805C64.291 233.317 65.8455 235.834 68.356 236.427C70.8664 237.02 73.3821 235.465 73.9749 232.953Z" fill="#11283C"/>
<path d="M96.5457 461.035C94.0137 452.49 91.2084 444.069 88.1393 435.808C82.6438 421.011 76.6159 397.631 62.6181 392.128C49.0231 386.783 38.8999 405.034 33.4476 417.221C27.0601 431.499 21.507 446.363 16.8554 461.668C13.8007 471.719 9.88285 493.334 9.13477 503.822" fill="#11283C"/>
<path d="M9.13567 504.613C9.11649 504.613 9.09731 504.613 9.07813 504.613C8.64175 504.579 8.31086 504.2 8.33963 503.764C9.1069 493.065 13.0919 471.307 16.0938 461.433C20.7358 446.161 26.3321 431.178 32.7244 416.894C42.1617 395.798 52.3184 387.22 62.9115 391.384C75.1878 396.211 81.4123 414.14 86.4091 428.544C87.2675 431.019 88.0827 433.361 88.8883 435.529C91.9526 443.786 94.7867 452.288 97.3139 460.809C97.4386 461.231 97.1988 461.673 96.7768 461.797C96.3548 461.922 95.9136 461.682 95.7889 461.26C93.2761 452.773 90.4516 444.304 87.3969 436.081C86.5865 433.898 85.7713 431.547 84.9081 429.062C80.0168 414.966 73.9266 397.42 62.3313 392.862C52.6733 389.062 43.2023 397.367 34.1774 417.542C27.8138 431.763 22.2416 446.689 17.6188 461.893C14.6408 471.686 10.6894 493.261 9.92692 503.874C9.89815 504.292 9.54808 504.613 9.13567 504.613Z" fill="#C8D3DD"/>
<path d="M47.1676 504.853C46.7264 504.853 46.3716 504.498 46.3716 504.057V426.001C46.3716 425.559 46.7264 425.204 47.1676 425.204C47.6088 425.204 47.9637 425.559 47.9637 426.001V504.057C47.9637 504.498 47.6088 504.853 47.1676 504.853Z" fill="#C8D3DD"/>
<path d="M51.9478 426.241C51.9478 423.597 49.8043 421.452 47.1668 421.452C44.5293 421.452 42.3857 423.597 42.3857 426.241C42.3857 428.884 44.5293 431.024 47.1668 431.024C49.8043 431.024 51.9478 428.884 51.9478 426.241Z" fill="#C8D3DD"/>
<path d="M69.7876 505.333C69.3464 505.333 68.9916 504.978 68.9916 504.536V458.228C68.9916 457.786 69.3464 457.431 69.7876 457.431C70.2288 457.431 70.5837 457.786 70.5837 458.228V504.536C70.5837 504.978 70.224 505.333 69.7876 505.333Z" fill="#C8D3DD"/>
<path d="M74.5688 458.463C74.5688 455.819 72.4253 453.675 69.7878 453.675C67.1455 453.675 65.002 455.819 65.002 458.463C65.002 461.106 67.1455 463.246 69.7878 463.246C72.4301 463.251 74.5688 461.106 74.5688 458.463Z" fill="#C8D3DD"/>
<path d="M58.3025 504.853C57.8613 504.853 57.5065 504.498 57.5065 504.057V442.87C57.5065 442.429 57.8613 442.073 58.3025 442.073C58.7437 442.073 59.0986 442.429 59.0986 442.87V504.057C59.0938 504.498 58.7389 504.853 58.3025 504.853Z" fill="#C8D3DD"/>
<path d="M63.084 443.11C63.084 440.466 60.9404 438.322 58.3029 438.322C55.6654 438.322 53.5171 440.466 53.5171 443.11C53.5171 445.754 55.6606 447.893 58.3029 447.893C60.9452 447.893 63.084 445.754 63.084 443.11Z" fill="#C8D3DD"/>
<path d="M259.734 487.595C258.708 482.423 255.955 476.56 254.622 472.688C252.09 465.314 249.285 458.05 246.216 450.916C240.72 438.149 234.693 417.969 220.695 413.219C207.1 408.604 196.977 424.36 191.524 434.877C186.518 444.53 182.034 454.5 178.087 464.709C178.648 464.633 179.234 464.642 179.814 464.748C190.733 466.787 199.921 475.015 206.428 483.598C212.274 491.304 216.643 500.808 216.321 510.577C231.504 510.514 254.454 507.693 259.586 494.485C260.329 492.585 260.247 490.176 259.734 487.595Z" fill="#1A3C5B"/>
<path d="M149.095 429.388C132.493 429.388 118.984 415.873 118.984 399.262C118.984 393.361 122.826 379.894 141.134 349.231C142.827 346.4 145.8 344.706 149.095 344.706C152.389 344.706 155.362 346.395 157.055 349.231C175.364 379.894 179.205 393.361 179.205 399.262C179.205 415.873 165.697 429.388 149.095 429.388ZM149.095 346.299C146.366 346.299 143.901 347.7 142.501 350.046C134.311 363.759 120.572 388.391 120.572 399.262C120.572 414.999 133.366 427.8 149.095 427.8C164.824 427.8 177.618 414.999 177.618 399.262C177.618 388.395 163.879 363.763 155.689 350.046C154.288 347.7 151.823 346.299 149.095 346.299Z" fill="#C8D3DD"/>
<path d="M149.099 392.349C143.215 392.349 138.108 388.156 136.952 382.379C136.866 381.947 137.144 381.53 137.576 381.443C138.007 381.357 138.424 381.635 138.511 382.067C139.518 387.105 143.968 390.761 149.099 390.761C154.225 390.761 158.68 387.105 159.687 382.067C159.774 381.635 160.191 381.357 160.622 381.443C161.054 381.53 161.332 381.947 161.246 382.379C160.09 388.156 154.983 392.349 149.099 392.349Z" fill="#C8D3DD"/>
<path d="M158.062 382.086C158.201 380.772 159.376 379.817 160.69 379.956C162.004 380.095 162.958 381.271 162.819 382.585C162.68 383.9 161.505 384.855 160.191 384.715C158.877 384.581 157.923 383.401 158.062 382.086Z" fill="#C8D3DD"/>
<path d="M140.136 382.086C139.997 380.772 138.822 379.817 137.508 379.956C136.194 380.095 135.24 381.271 135.379 382.585C135.518 383.9 136.693 384.855 138.007 384.715C139.321 384.581 140.275 383.401 140.136 382.086Z" fill="#C8D3DD"/>
<path d="M149.098 413.819C140.097 413.819 132.415 407.088 131.231 398.159C131.173 397.722 131.48 397.324 131.912 397.267C132.348 397.209 132.746 397.516 132.803 397.948C133.887 406.09 140.893 412.226 149.098 412.226C157.303 412.226 164.309 406.09 165.393 397.948C165.451 397.511 165.849 397.204 166.285 397.267C166.721 397.324 167.028 397.722 166.966 398.159C165.782 407.083 158.099 413.819 149.098 413.819Z" fill="#C8D3DD"/>
<path d="M163.759 397.981C163.859 396.662 165.01 395.678 166.329 395.784C167.648 395.885 168.631 397.036 168.525 398.356C168.424 399.675 167.274 400.659 165.955 400.553C164.641 400.452 163.658 399.301 163.759 397.981Z" fill="#C8D3DD"/>
<path d="M134.439 397.981C134.339 396.662 133.188 395.678 131.869 395.784C130.55 395.885 129.567 397.036 129.673 398.356C129.773 399.675 130.924 400.659 132.243 400.553C133.557 400.452 134.54 399.301 134.439 397.981Z" fill="#C8D3DD"/>
<path d="M149.104 462.445C148.663 462.445 148.308 462.09 148.308 461.648V369.348C148.308 368.907 148.663 368.551 149.104 368.551C149.545 368.551 149.9 368.907 149.9 369.348V461.648C149.9 462.09 149.545 462.445 149.104 462.445Z" fill="#C8D3DD"/>
<path d="M146.711 369.468C146.711 368.149 147.78 367.074 149.104 367.074C150.423 367.074 151.497 368.144 151.497 369.468C151.497 370.787 150.427 371.862 149.104 371.862C147.785 371.862 146.711 370.787 146.711 369.468Z" fill="#C8D3DD"/>
<path d="M148.352 456.841C145.355 449.836 142.41 444.631 135.912 439.022C133.668 437.084 131.366 435.112 128.499 433.893C123.526 431.782 117.93 432.876 113.964 435.889C106.349 441.67 101.851 449.899 98.4218 457.868C96.096 463.27 90.845 472.396 92.4659 478.858C98.5944 471.369 108.243 466.01 117.795 470.28C123.722 472.928 130.086 478.297 132.915 484.621C133.141 484.86 133.342 485.12 133.5 485.412C134.172 486.636 134.79 487.893 135.356 489.169C144.156 488.037 153.209 485.527 156.259 480.715C156.945 479.636 157.319 478.503 157.449 477.333C158.216 470.486 150.721 462.378 148.352 456.841Z" fill="#1A3C5B"/>
<path d="M139.345 489.86C138.976 489.86 138.66 489.577 138.631 489.202C137.988 481.646 140.232 473.931 144.942 467.483C146.246 465.698 148.917 463.788 152.164 464.259C152.557 464.316 152.83 464.681 152.773 465.074C152.715 465.468 152.351 465.741 151.957 465.684C149.344 465.3 147.171 466.873 146.102 468.332C141.594 474.502 139.451 481.867 140.06 489.082C140.093 489.481 139.801 489.826 139.403 489.86C139.384 489.86 139.365 489.86 139.345 489.86Z" fill="#11283C"/>
<path d="M127.506 493.612C127.113 493.612 126.792 493.29 126.787 492.897C126.701 479.904 131.189 467.967 139.758 458.367C140.756 457.249 142.54 456.112 144.098 455.608C145.47 455.167 146.995 455.215 148.63 455.757C149.009 455.882 149.21 456.29 149.086 456.669C148.961 457.048 148.553 457.249 148.174 457.124C146.817 456.673 145.628 456.625 144.544 456.976C143.23 457.403 141.672 458.386 140.837 459.322C132.508 468.653 128.149 480.259 128.23 492.887C128.225 493.285 127.904 493.612 127.506 493.612Z" fill="#11283C"/>
<path d="M116.098 492.758C116.084 492.758 116.065 492.758 116.05 492.758C115.652 492.734 115.355 492.388 115.379 491.995C116.352 477.093 122.466 463.078 133.055 451.468C135.366 448.934 139.514 446.185 143.6 446.785C143.993 446.842 144.266 447.207 144.209 447.6C144.151 447.994 143.787 448.267 143.394 448.21C140.094 447.73 136.354 449.99 134.119 452.441C123.752 463.808 117.767 477.52 116.813 492.091C116.789 492.465 116.472 492.758 116.098 492.758Z" fill="#11283C"/>
<path d="M180.231 339.175C182.832 339.175 184.94 337.065 184.94 334.463C184.94 331.861 182.832 329.752 180.231 329.752C177.63 329.752 175.522 331.861 175.522 334.463C175.522 337.065 177.63 339.175 180.231 339.175Z" fill="#C8D3DD"/>
<path d="M180.231 317.723C184.749 317.723 188.412 314.059 188.412 309.538C188.412 305.018 184.749 301.353 180.231 301.353C175.713 301.353 172.05 305.018 172.05 309.538C172.05 314.059 175.713 317.723 180.231 317.723Z" fill="#C8D3DD"/>
<path d="M233.321 521.161C232.885 521.161 232.53 520.806 232.53 520.369V469.464C232.53 469.028 232.885 468.673 233.321 468.673C233.757 468.673 234.112 469.028 234.112 469.464V520.369C234.112 520.806 233.757 521.161 233.321 521.161Z" fill="#ADCB53"/>
<path d="M236.299 469.613C236.299 467.967 234.966 466.634 233.321 466.634C231.676 466.634 230.343 467.967 230.343 469.613C230.343 471.259 231.676 472.593 233.321 472.593C234.966 472.593 236.299 471.264 236.299 469.613Z" fill="#ADCB53"/>
<path d="M199.273 521.161C198.837 521.161 198.482 520.806 198.482 520.369V499.211C198.482 498.774 198.837 498.419 199.273 498.419C199.71 498.419 200.064 498.774 200.064 499.211V520.369C200.064 520.806 199.71 521.161 199.273 521.161Z" fill="#ADCB53"/>
<path d="M202.251 499.36C202.251 497.714 200.918 496.38 199.273 496.38C197.628 496.38 196.295 497.714 196.295 499.36C196.295 501.005 197.628 502.339 199.273 502.339C200.918 502.339 202.251 501.01 202.251 499.36Z" fill="#ADCB53"/>
<path d="M248.667 521.641C248.231 521.641 247.876 521.286 247.876 520.849V490.143C247.876 489.706 248.231 489.351 248.667 489.351C249.104 489.351 249.458 489.706 249.458 490.143V520.849C249.458 521.286 249.104 521.641 248.667 521.641Z" fill="#ADCB53"/>
<path d="M207.427 518.762C206.991 518.762 206.636 518.407 206.636 517.97V487.264C206.636 486.828 206.991 486.473 207.427 486.473C207.863 486.473 208.218 486.828 208.218 487.264V517.97C208.218 518.407 207.863 518.762 207.427 518.762Z" fill="#ADCB53"/>
<path d="M218.806 473.912C219.003 473.734 219.19 473.542 219.367 473.331C220.182 472.338 220.125 470.856 219.199 469.925L217.305 468.03C211.934 462.656 203.139 462.656 197.768 468.03L195.874 469.925C194.949 470.851 194.891 472.333 195.706 473.331C195.879 473.542 196.047 473.763 196.2 473.984C197.485 475.817 199.552 476.623 201.173 478.167C203.322 480.216 204.247 483.483 206.947 484.952C210.27 486.76 212.164 484.242 213.699 481.425C214.696 479.597 215.473 477.645 216.658 475.927C217.238 475.078 218.072 474.579 218.806 473.912Z" fill="white"/>
<path d="M208.031 488.747C205.71 488.104 203.293 487.806 200.886 487.859C198.627 487.907 196.445 488.545 194.206 488.502C193.995 488.497 193.779 488.502 193.568 488.516C192.571 488.574 191.664 487.859 191.506 486.852L191.185 484.793C190.269 478.954 194.292 473.427 200.128 472.511L202.185 472.189C203.192 472.031 204.151 472.674 204.401 473.643C204.454 473.85 204.516 474.051 204.583 474.253C205.379 476.575 206.281 478.858 206.957 481.219C207.643 483.623 207.873 486.012 208.089 488.488" fill="#C8D3DD"/>
<path d="M207.925 488.742C208.808 488.775 209.901 488.094 210.774 487.878C211.886 487.605 213.032 487.446 214.179 487.413C216.097 487.351 218.029 487.619 219.852 488.219C221.223 488.67 223.261 488.732 223.558 486.852L223.88 484.793C224.796 478.954 220.772 473.427 214.936 472.511L212.879 472.189C211.872 472.031 210.913 472.674 210.664 473.643C210.611 473.849 210.548 474.051 210.481 474.253L207.532 482.85C207.23 483.747 206.928 484.63 206.813 485.566C206.698 486.501 206.774 487.494 207.201 488.339C207.283 488.502 207.379 488.66 207.523 488.771C207.666 488.881 207.758 488.809 207.925 488.742Z" fill="#C8D3DD"/>
<path d="M210.544 488.464C210.544 486.875 209.254 487.024 207.666 487.024C206.079 487.024 204.789 486.875 204.789 488.464C204.789 490.052 206.079 492.782 207.666 492.782C209.254 492.782 210.544 490.052 210.544 488.464Z" fill="#ADCB53"/>
<path d="M250.187 496.25C248.623 495.636 246.969 495.253 245.295 495.109C243.722 494.974 242.164 495.257 240.615 495.065C240.466 495.046 240.322 495.037 240.174 495.027C239.478 494.993 238.903 494.432 238.865 493.722L238.793 492.268C238.586 488.152 241.78 484.616 245.895 484.405L247.348 484.333C248.057 484.299 248.676 484.812 248.777 485.503C248.801 485.652 248.825 485.796 248.858 485.94C249.242 487.61 249.697 489.26 249.995 490.944C250.297 492.662 250.283 494.336 250.249 496.068" fill="white"/>
<path d="M249.314 495.891C249.928 495.843 250.628 495.281 251.218 495.061C251.966 494.782 252.747 494.581 253.539 494.461C254.862 494.259 256.219 494.288 257.533 494.557C258.521 494.758 259.936 494.634 259.989 493.305L260.046 491.851C260.204 487.734 256.967 484.232 252.853 484.074L251.4 484.016C250.69 483.987 250.081 484.51 249.985 485.201C249.966 485.35 249.937 485.494 249.909 485.638L248.566 491.832C248.432 492.479 248.293 493.113 248.288 493.775C248.283 494.437 248.417 495.113 248.782 495.665C248.849 495.771 248.93 495.871 249.041 495.939C249.146 496.006 249.204 495.953 249.314 495.891Z" fill="white"/>
<path d="M251.692 495.051C251.692 493.463 250.403 493.612 248.815 493.612C247.228 493.612 245.938 493.463 245.938 495.051C245.938 496.639 247.228 499.369 248.815 499.369C250.407 499.369 251.692 496.639 251.692 495.051Z" fill="#ADCB53"/>
<path d="M146.942 520.417C146.548 520.417 146.213 520.129 146.155 519.731C145.167 512.376 143.091 505.155 139.993 498.28C135.385 488.056 129.045 479.684 121.152 473.403C113.335 467.18 104.31 467.756 96.3932 474.977C87.6847 482.922 80.5443 499.043 77.2882 518.109C77.2163 518.541 76.8086 518.829 76.3723 518.757C75.9407 518.685 75.653 518.273 75.7249 517.841C79.0337 498.443 86.3611 481.982 95.3238 473.806C103.874 466.005 113.647 465.405 122.135 472.165C130.225 478.604 136.718 487.173 141.432 497.627C144.597 504.647 146.712 512.011 147.723 519.52C147.781 519.952 147.479 520.355 147.042 520.412C147.009 520.412 146.975 520.417 146.942 520.417Z" fill="#ADCB53"/>
<path d="M130.278 520.907C129.861 520.907 129.511 520.58 129.487 520.158C129.204 514.876 129.669 509.588 130.872 504.436C131.505 501.734 132.867 498.27 135.793 497.1C138.958 495.833 141.504 498.174 142.837 500.789C143.034 501.178 142.88 501.658 142.492 501.854C142.103 502.051 141.624 501.898 141.427 501.509C140.938 500.545 139.121 497.474 136.387 498.573C133.975 499.537 132.867 502.891 132.421 504.8C131.251 509.804 130.801 514.943 131.074 520.076C131.098 520.513 130.762 520.887 130.326 520.911C130.302 520.907 130.292 520.907 130.278 520.907Z" fill="#ADCB53"/>
<path d="M120.524 520.12C120.111 520.12 119.766 519.803 119.733 519.386C119.263 513.12 119.545 506.801 120.572 500.607C120.97 498.189 121.507 495.632 122.73 493.314C124.101 490.704 126.158 488.848 128.518 488.09C131.635 487.082 136.43 488.737 138.19 491.424C138.43 491.789 138.329 492.283 137.96 492.523C137.595 492.763 137.102 492.662 136.862 492.292C135.485 490.196 131.448 488.809 129.002 489.596C127.07 490.22 125.29 491.841 124.13 494.048C123.017 496.164 122.514 498.573 122.135 500.861C121.133 506.935 120.855 513.125 121.315 519.266C121.349 519.702 121.022 520.081 120.581 520.115C120.562 520.115 120.543 520.12 120.524 520.12Z" fill="#ADCB53"/>
<path d="M107.562 520.101C107.13 520.101 106.78 519.755 106.77 519.323C106.598 511.762 107.576 504.877 109.945 497.004L110.209 496.116C111.993 490.143 114.688 481.113 120.452 477.961C125.108 475.414 128.8 479.065 131.246 481.483C131.558 481.79 131.558 482.294 131.251 482.606C130.944 482.917 130.441 482.917 130.129 482.61C127.232 479.741 124.561 477.52 121.214 479.353C116.025 482.193 113.441 490.843 111.734 496.572L111.47 497.46C109.154 505.165 108.195 511.896 108.362 519.29C108.372 519.726 108.027 520.091 107.59 520.101C107.571 520.101 107.566 520.101 107.562 520.101Z" fill="#ADCB53"/>
<path d="M270.246 521.641H147.004C146.567 521.641 146.212 521.286 146.212 520.849C146.212 520.412 146.567 520.057 147.004 520.057H270.246C270.682 520.057 271.037 520.412 271.037 520.849C271.037 521.286 270.682 521.641 270.246 521.641Z" fill="#ADCB53"/>
<path d="M47.2593 503.577H0.26416V504.536H47.2593V503.577Z" fill="#C8D3DD"/>
<path d="M37.9083 510.054H13.9312V511.013H37.9083V510.054Z" fill="#C8D3DD"/>
<path d="M710.015 118.374H738.135C738.586 115.85 738.835 113.254 738.835 110.596C738.835 108.605 738.538 106.283 737.991 103.736H710.015C706.989 103.736 704.529 101.269 704.529 98.2468C704.529 95.2194 706.994 92.7581 710.015 92.7581H734.764C733.133 88.1714 731.086 83.22 728.798 78.12H710.015C706.989 78.12 704.529 75.6539 704.529 72.6312C704.529 69.6038 706.994 67.1425 710.015 67.1425H723.624C721.198 62.2008 718.646 57.259 716.114 52.5044H710.005C706.979 52.5044 704.519 50.0383 704.519 47.0157C704.519 43.9882 706.984 41.5269 710.005 41.5269H710.125C701.8 26.5673 694.909 15.4316 694.909 15.4316C694.909 15.4316 688.018 26.5673 679.693 41.5174H679.813C682.839 41.5174 685.299 43.9834 685.299 47.0061C685.299 50.0335 682.834 52.4948 679.813 52.4948H673.704C672.606 54.5578 671.507 56.6593 670.414 58.7703C671.488 58.8375 672.553 59.2741 673.373 60.0274C673.474 60.1185 673.565 60.2145 673.651 60.3152C673.68 60.344 673.708 60.368 673.737 60.392C674.471 61.1261 675.205 61.8601 675.943 62.599C677.108 63.7649 699.532 149.248 701.086 154.079C715.937 151.978 728.405 142.44 734.596 129.351H710.015C706.989 129.351 704.529 126.885 704.529 123.862C704.529 120.84 706.994 118.374 710.015 118.374Z" fill="#ADCB53"/>
<path d="M693.03 446.66C692.104 446.66 691.352 445.907 691.352 444.981V246.831C691.352 245.905 692.104 245.151 693.03 245.151C693.955 245.151 694.708 245.905 694.708 246.831V444.981C694.708 445.907 693.96 446.66 693.03 446.66Z" fill="#1A3C5B"/>
<path d="M662.013 260.596H640.093C628.575 260.596 617.493 257.088 608.036 250.458C598.8 243.981 591.779 235.023 587.747 224.559C584.222 215.448 583.795 204.994 586.538 195.115L620.868 71.5373C624.734 57.6188 636.559 48.6229 650.993 48.6229H650.998C665.428 48.6229 677.248 57.6093 681.123 71.5229C690.632 105.669 700.65 141.605 707.843 167.407L715.559 195.091C718.321 204.994 717.894 215.472 714.365 224.598C710.322 235.052 703.302 243.995 694.066 250.467C684.604 257.098 673.522 260.596 662.013 260.596ZM650.998 52.7011H650.993C638.439 52.7059 628.153 60.5263 624.791 72.636L590.461 196.214C587.948 205.253 588.332 214.8 591.545 223.096C599.26 243.093 618.773 256.522 640.098 256.522H662.018C683.334 256.522 702.846 243.103 710.572 223.129C713.789 214.82 714.168 205.248 711.641 196.19L703.925 168.506C696.732 142.703 686.714 106.768 677.205 72.6216C673.834 60.5215 663.548 52.7011 650.998 52.7011Z" fill="#1A3C5B"/>
<path d="M651.06 166.294C641.661 166.294 633.063 160.738 629.155 152.136C628.771 151.292 629.145 150.298 629.989 149.915C630.833 149.531 631.826 149.905 632.209 150.749C635.576 158.152 642.975 162.941 651.06 162.941C659.145 162.941 666.544 158.152 669.911 150.749C670.295 149.905 671.292 149.531 672.131 149.915C672.975 150.298 673.349 151.296 672.966 152.136C669.057 160.734 660.454 166.294 651.06 166.294Z" fill="#1A3C5B"/>
<path d="M665.263 149.857C666.294 146.527 669.829 144.661 673.157 145.693C676.485 146.724 678.35 150.26 677.319 153.59C676.288 156.919 672.754 158.786 669.426 157.754C666.098 156.723 664.232 153.187 665.263 149.857Z" fill="#1A3C5B"/>
<path d="M636.855 149.857C635.824 146.527 632.29 144.661 628.962 145.693C625.634 146.724 623.769 150.26 624.8 153.59C625.831 156.919 629.365 158.786 632.693 157.754C636.021 156.723 637.886 153.187 636.855 149.857Z" fill="#1A3C5B"/>
<path d="M651.06 209.811C635.681 209.811 621.895 199.476 617.535 184.68C617.272 183.792 617.78 182.857 618.672 182.593C619.559 182.329 620.494 182.837 620.758 183.73C624.7 197.106 637.158 206.447 651.06 206.447C664.962 206.447 677.425 197.106 681.362 183.725C681.626 182.837 682.556 182.329 683.448 182.588C684.336 182.852 684.844 183.783 684.585 184.675C680.226 199.476 666.439 209.811 651.06 209.811Z" fill="#1A3C5B"/>
<path d="M676.697 183.25C677.392 179.834 680.725 177.627 684.139 178.323C687.554 179.018 689.76 182.353 689.064 185.769C688.369 189.185 685.036 191.392 681.622 190.696C678.207 190 676.002 186.666 676.697 183.25Z" fill="#1A3C5B"/>
<path d="M625.423 183.25C624.728 179.834 621.395 177.627 617.981 178.323C614.566 179.018 612.36 182.353 613.056 185.769C613.751 189.185 617.084 191.392 620.498 190.696C623.913 190 626.119 186.666 625.423 183.25Z" fill="#1A3C5B"/>
<path d="M651.06 456.496C650.135 456.496 649.382 455.742 649.382 454.816V116.67C649.382 115.744 650.135 114.991 651.06 114.991C651.986 114.991 652.739 115.744 652.739 116.67V454.816C652.739 455.742 651.986 456.496 651.06 456.496Z" fill="#1A3C5B"/>
<path d="M651.06 122.538C647.924 122.538 645.373 119.986 645.373 116.848C645.373 113.71 647.924 111.158 651.06 111.158C654.197 111.158 656.748 113.71 656.748 116.848C656.748 119.986 654.197 122.538 651.06 122.538ZM651.06 115.231C650.168 115.231 649.444 115.956 649.444 116.848C649.444 117.74 650.168 118.465 651.06 118.465C651.952 118.465 652.676 117.74 652.676 116.848C652.676 115.956 651.952 115.231 651.06 115.231Z" fill="#1A3C5B"/>
<path d="M677.023 523.703C676.591 523.703 676.236 523.358 676.226 522.926C675.79 502.564 680.024 479.871 688.157 459.024C690.867 452.072 694.866 443.287 701.762 437.016C706.294 432.895 715.424 427.987 722.004 431.345C734.122 437.535 738.802 454.217 741.267 466.23C744.254 480.787 747.271 496.346 748.436 512.385C748.469 512.822 748.139 513.206 747.702 513.235C747.271 513.268 746.882 512.937 746.853 512.501C745.698 496.557 742.691 481.06 739.713 466.552C737.315 454.859 732.793 438.643 721.284 432.766C715.419 429.772 707.037 434.373 702.831 438.197C696.18 444.242 692.286 452.816 689.639 459.605C681.583 480.259 677.387 502.737 677.819 522.893C677.828 523.334 677.478 523.694 677.042 523.703C677.032 523.703 677.027 523.703 677.023 523.703Z" fill="#C8D3DD"/>
<path d="M677.291 413.095C654.589 413.095 636.117 394.613 636.117 371.9V337.073C636.117 331.925 640.284 327.756 645.43 327.756C650.575 327.756 654.743 331.925 654.743 337.073V371.9C654.743 384.341 664.856 394.46 677.291 394.46C689.725 394.46 699.839 384.341 699.839 371.9V337.236C699.839 332.088 704.006 327.919 709.151 327.919C714.297 327.919 718.464 332.088 718.464 337.236V371.9C718.464 394.618 699.992 413.095 677.291 413.095Z" fill="#ADCB53"/>
<path d="M677.291 530.176C672.146 530.176 667.979 526.006 667.979 520.858V293.609C667.979 288.461 672.146 284.292 677.291 284.292C682.437 284.292 686.604 288.461 686.604 293.609V520.858C686.604 526.006 682.432 530.176 677.291 530.176Z" fill="#ADCB53"/>
<path d="M677.291 404.401C659.381 404.401 644.812 389.82 644.812 371.905V341.516C644.812 341.175 645.09 340.897 645.431 340.897C645.771 340.897 646.049 341.175 646.049 341.516V371.905C646.049 389.139 660.061 403.163 677.291 403.163C694.521 403.163 708.534 389.144 708.534 371.905V341.679C708.534 341.338 708.812 341.06 709.152 341.06C709.493 341.06 709.771 341.338 709.771 341.679V371.905C709.771 389.82 695.202 404.401 677.291 404.401Z" fill="#11283C"/>
<path d="M704.481 341.909C704.481 339.328 706.572 337.236 709.152 337.236C711.732 337.236 713.818 339.328 713.818 341.909C713.818 344.49 711.727 346.577 709.152 346.577C706.572 346.582 704.481 344.49 704.481 341.909Z" fill="#11283C"/>
<path d="M650.096 341.746C650.096 339.165 648.006 337.073 645.426 337.073C642.846 337.073 640.755 339.165 640.755 341.746C640.755 344.327 642.846 346.414 645.426 346.414C648.006 346.414 650.096 344.322 650.096 341.746Z" fill="#11283C"/>
<path d="M677.291 521.482C676.951 521.482 676.673 521.204 676.673 520.863V298.052C676.673 297.712 676.951 297.433 677.291 297.433C677.632 297.433 677.91 297.712 677.91 298.052V520.863C677.91 521.204 677.632 521.482 677.291 521.482Z" fill="#11283C"/>
<path d="M681.622 300.054C682.609 297.669 681.478 294.935 679.094 293.948C676.711 292.96 673.979 294.092 672.992 296.477C672.004 298.861 673.136 301.595 675.519 302.583C677.903 303.57 680.635 302.438 681.622 300.054Z" fill="#11283C"/>
<path d="M712.974 524.462C712.533 524.462 712.178 524.107 712.178 523.665V451.631C712.178 451.189 712.533 450.834 712.974 450.834C713.415 450.834 713.77 451.189 713.77 451.631V523.665C713.77 524.107 713.415 524.462 712.974 524.462Z" fill="#C8D3DD"/>
<path d="M717.76 451.87C717.76 449.227 715.616 447.082 712.979 447.082C710.336 447.082 708.193 449.227 708.193 451.87C708.193 454.514 710.336 456.654 712.979 456.654C715.616 456.654 717.76 454.509 717.76 451.87Z" fill="#C8D3DD"/>
<path d="M701.983 522.931C701.542 522.931 701.188 522.576 701.188 522.135V473.288C701.188 472.846 701.542 472.491 701.983 472.491C702.425 472.491 702.78 472.846 702.78 473.288V522.135C702.775 522.576 702.42 522.931 701.983 522.931Z" fill="#C8D3DD"/>
<path d="M706.764 473.528C706.764 470.884 704.621 468.74 701.978 468.74C699.336 468.74 697.197 470.884 697.197 473.528C697.197 476.171 699.341 478.311 701.978 478.311C704.616 478.311 706.764 476.171 706.764 473.528Z" fill="#C8D3DD"/>
<path d="M725.082 524.462C724.641 524.462 724.286 524.107 724.286 523.665V465.611C724.286 465.17 724.641 464.815 725.082 464.815C725.523 464.815 725.878 465.17 725.878 465.611V523.665C725.878 524.107 725.523 524.462 725.082 524.462Z" fill="#C8D3DD"/>
<path d="M729.868 465.851C729.868 463.208 727.724 461.063 725.087 461.063C722.449 461.063 720.306 463.208 720.306 465.851C720.306 468.495 722.449 470.635 725.087 470.635C727.724 470.635 729.868 468.495 729.868 465.851Z" fill="#C8D3DD"/>
<path d="M569.836 425.482C566.34 425.482 561.041 422.407 556.341 417.643C547.801 408.997 546.961 401.455 546.995 398.615C547.043 394.858 548.007 391.135 549.791 387.848C550.366 386.788 551.033 385.761 551.771 384.802C552.97 383.238 553.253 381.146 552.5 379.342C551.532 377.015 551.042 374.544 551.042 372.006C551.042 367.707 552.433 363.648 555.066 360.266C556.413 358.534 556.639 356.25 555.651 354.311C554.485 352.018 553.896 349.542 553.896 346.956C553.896 342.039 556.912 335.25 559.736 330.543C561.142 328.202 566.042 320.559 570.152 320.559C577.134 320.559 586.409 338.671 586.409 346.956C586.409 349.542 585.819 352.018 584.653 354.311C583.666 356.255 583.891 358.538 585.239 360.266C587.871 363.648 589.262 367.707 589.262 372.006C589.262 374.544 588.773 377.015 587.804 379.342C587.056 381.146 587.339 383.242 588.543 384.811C591.664 388.885 593.314 393.754 593.314 398.898C593.314 412.087 579.652 425.482 569.836 425.482ZM551.181 388.606C549.517 391.667 548.621 395.131 548.578 398.634C548.51 404.137 551.834 410.825 557.463 416.53C561.813 420.934 566.786 423.894 569.831 423.894C578.875 423.894 591.727 410.969 591.727 398.898C591.727 394.105 590.192 389.571 587.281 385.776C585.732 383.756 585.373 381.055 586.337 378.732C587.224 376.597 587.675 374.338 587.675 372.006C587.675 368.067 586.399 364.344 583.982 361.24C582.28 359.052 581.987 356.048 583.234 353.592C584.284 351.524 584.817 349.293 584.817 346.956C584.817 338.148 575.355 322.147 570.143 322.147C565.342 322.147 555.469 338.843 555.469 346.956C555.469 349.293 556.001 351.524 557.051 353.592C558.303 356.053 558.005 359.052 556.303 361.24C553.891 364.339 552.61 368.062 552.61 372.006C552.61 374.338 553.061 376.597 553.948 378.732C554.917 381.059 554.557 383.756 553.013 385.766C552.342 386.663 551.719 387.618 551.181 388.606Z" fill="#ADCB53"/>
<path d="M570.151 464.714C569.715 464.714 569.36 464.359 569.36 463.923V341.065C569.36 340.628 569.715 340.273 570.151 340.273C570.588 340.273 570.942 340.628 570.942 341.065V463.923C570.942 464.359 570.588 464.714 570.151 464.714Z" fill="#ADCB53"/>
<path d="M606.141 427.061C605.705 427.061 605.35 426.706 605.35 426.269V342.907C605.35 342.47 605.705 342.115 606.141 342.115C606.578 342.115 606.933 342.47 606.933 342.907V426.269C606.933 426.706 606.578 427.061 606.141 427.061Z" fill="#ADCB53"/>
<path d="M610.909 343.142C610.909 340.508 608.775 338.373 606.142 338.373C603.509 338.373 601.375 340.508 601.375 343.142C601.375 345.776 603.509 347.911 606.142 347.911C608.775 347.916 610.909 345.776 610.909 343.142Z" fill="#ADCB53"/>
<path d="M621.122 440.015C620.686 440.015 620.331 439.66 620.331 439.223V356.888C620.331 356.451 620.686 356.096 621.122 356.096C621.559 356.096 621.914 356.451 621.914 356.888V439.223C621.918 439.66 621.564 440.015 621.122 440.015Z" fill="#ADCB53"/>
<path d="M625.894 357.128C625.894 354.494 623.76 352.359 621.127 352.359C618.494 352.359 616.36 354.494 616.36 357.128C616.36 359.762 618.494 361.897 621.127 361.897C623.76 361.897 625.894 359.762 625.894 357.128Z" fill="#ADCB53"/>
<path d="M653.242 502.248C651.995 503.86 649.971 505.011 647.967 505.884C642.323 508.346 636.108 509.483 629.951 510.538C608.16 514.266 585.123 517.13 564.22 510.428C558.734 508.667 548.582 504.824 548.687 498.908C548.802 492.479 553.396 484.342 555.904 478.436C559.41 470.184 563.462 462.09 568.281 454.389C575.407 442.999 587.233 426.025 603.815 426.025C620.336 426.025 632.132 442.889 639.254 454.236C644.02 461.826 648.034 469.81 651.516 477.947C654.052 483.872 657.884 496.25 653.242 502.248Z" fill="#1A3C5B"/>
<path d="M615.243 516.651C614.322 506.954 623.242 495.468 626.062 487.624C629.629 477.697 633.13 470.328 640.865 462.378C643.536 459.633 646.274 456.841 649.689 455.114C655.601 452.125 662.262 453.67 666.981 457.94C676.039 466.134 681.391 477.788 685.477 489.082C688.704 498.002 696.655 514.084 690.896 523.008C685.673 532.148 669.187 533.789 660.047 534.403C648.873 535.151 622.743 532.872 616.658 521.449C615.847 519.918 615.401 518.311 615.243 516.651Z" fill="#11283C"/>
<path d="M693.807 525.536C693.37 525.536 693.015 525.181 693.015 524.745C693.001 512.217 688.8 500.592 684.734 489.351C681.156 479.463 675.848 467.027 666.454 458.525C661.644 454.173 655.357 453.137 650.053 455.819C646.72 457.503 644.035 460.262 641.441 462.929C633.72 470.86 628.814 481.305 624.067 491.405C623.616 492.364 623.17 493.314 622.719 494.264C618.552 503.068 615.531 512.606 613.987 521.852C613.915 522.283 613.507 522.576 613.076 522.504C612.644 522.432 612.352 522.024 612.423 521.592C613.992 512.208 617.056 502.526 621.285 493.588C621.731 492.642 622.182 491.692 622.628 490.733C627.428 480.513 632.396 469.949 640.299 461.826C642.86 459.197 645.761 456.212 649.334 454.409C655.237 451.424 662.205 452.552 667.513 457.354C677.171 466.086 682.585 478.757 686.22 488.814C690.33 500.185 694.583 511.939 694.598 524.745C694.598 525.181 694.243 525.536 693.807 525.536Z" fill="#ADCB53"/>
<path d="M635.816 522.926C635.437 522.926 635.101 522.653 635.034 522.269C633.72 514.765 631.49 508.178 628.752 503.711C627.472 501.624 624.878 499.379 621.784 499.916C621.31 499.997 620.893 500.127 620.509 500.305C620.111 500.492 619.641 500.319 619.454 499.921C619.267 499.522 619.44 499.052 619.838 498.865C620.341 498.63 620.907 498.457 621.511 498.352C625.386 497.675 628.56 500.367 630.105 502.876C632.948 507.506 635.255 514.295 636.598 521.991C636.674 522.423 636.387 522.835 635.955 522.907C635.907 522.926 635.859 522.926 635.816 522.926Z" fill="#ADCB53"/>
<path d="M649.147 522.538C648.782 522.538 648.452 522.283 648.37 521.909C645.987 510.644 641.239 500.209 634.252 490.891C633.288 489.605 632.133 488.185 630.579 487.586C629.299 487.091 627.898 487.159 626.302 487.792C625.894 487.955 625.434 487.753 625.27 487.346C625.107 486.938 625.309 486.477 625.716 486.314C627.678 485.537 629.505 485.465 631.15 486.103C633.005 486.818 634.348 488.368 635.523 489.936C642.649 499.441 647.492 510.087 649.924 521.578C650.015 522.005 649.741 522.427 649.315 522.518C649.252 522.533 649.2 522.538 649.147 522.538Z" fill="#ADCB53"/>
<path d="M662.185 521.65C661.821 521.65 661.495 521.396 661.413 521.026C658.248 506.546 651.885 492.767 642.999 481.171C640.332 477.688 635.882 474.478 631.974 475.154C631.542 475.231 631.13 474.938 631.058 474.507C630.981 474.075 631.274 473.667 631.706 473.59C636.582 472.746 641.517 476.627 644.26 480.206C653.28 491.985 659.749 505.98 662.962 520.69C663.058 521.117 662.785 521.54 662.358 521.636C662.295 521.645 662.238 521.65 662.185 521.65Z" fill="#ADCB53"/>
<path d="M604.434 309.989C606.59 309.989 608.338 308.241 608.338 306.084C608.338 303.927 606.59 302.178 604.434 302.178C602.278 302.178 600.531 303.927 600.531 306.084C600.531 308.241 602.278 309.989 604.434 309.989Z" fill="#ADCB53"/>
<path d="M604.434 292.204C608.179 292.204 611.215 289.166 611.215 285.42C611.215 281.673 608.179 278.635 604.434 278.635C600.689 278.635 597.653 281.673 597.653 285.42C597.653 289.166 600.689 292.204 604.434 292.204Z" fill="#ADCB53"/>
<path d="M613.369 522.538H569.251C568.814 522.538 568.459 522.183 568.459 521.746C568.459 521.309 568.814 520.954 569.251 520.954H613.369C613.805 520.954 614.16 521.309 614.16 521.746C614.16 522.183 613.805 522.538 613.369 522.538Z" fill="#ADCB53"/>
<path d="M576.443 521.098C576.007 521.098 575.652 520.743 575.652 520.307V489.601C575.652 489.164 576.007 488.809 576.443 488.809C576.879 488.809 577.234 489.164 577.234 489.601V520.307C577.234 520.743 576.879 521.098 576.443 521.098Z" fill="#ADCB53"/>
<path d="M587.822 476.248C588.018 476.071 588.205 475.879 588.383 475.668C589.198 474.674 589.14 473.192 588.215 472.261L586.321 470.366C580.95 464.992 572.155 464.992 566.784 470.366L564.89 472.261C563.964 473.187 563.907 474.67 564.722 475.668C564.895 475.879 565.062 476.099 565.216 476.32C566.501 478.153 568.568 478.959 570.189 480.504C572.337 482.552 573.263 485.82 575.962 487.288C579.286 489.097 581.18 486.578 582.714 483.762C583.712 481.934 584.489 479.981 585.673 478.263C586.253 477.414 587.088 476.915 587.822 476.248Z" fill="white"/>
<path d="M577.047 491.083C574.726 490.44 572.309 490.143 569.901 490.195C567.643 490.243 565.461 490.882 563.221 490.838C563.01 490.834 562.795 490.838 562.584 490.853C561.586 490.91 560.68 490.195 560.522 489.188L560.2 487.13C559.284 481.291 563.308 475.764 569.144 474.847L571.201 474.526C572.208 474.367 573.167 475.01 573.416 475.98C573.469 476.186 573.532 476.387 573.599 476.589C574.395 478.911 575.296 481.195 575.972 483.555C576.658 485.959 576.888 488.348 577.104 490.824" fill="#C8D3DD"/>
<path d="M576.941 491.078C577.823 491.112 578.917 490.431 579.789 490.215C580.902 489.941 582.048 489.783 583.194 489.749C585.112 489.687 587.045 489.956 588.867 490.555C590.239 491.006 592.277 491.069 592.574 489.188L592.895 487.13C593.811 481.291 589.788 475.764 583.952 474.847L581.895 474.526C580.888 474.367 579.929 475.01 579.679 475.98C579.626 476.186 579.564 476.387 579.497 476.589L576.548 485.187C576.246 486.084 575.944 486.967 575.828 487.902C575.713 488.843 575.79 489.831 576.217 490.675C576.298 490.838 576.394 490.997 576.538 491.107C576.682 491.213 576.773 491.145 576.941 491.078Z" fill="#C8D3DD"/>
<path d="M579.56 490.8C579.56 489.212 578.27 489.361 576.682 489.361C575.095 489.361 573.805 489.212 573.805 490.8C573.805 492.388 575.095 495.118 576.682 495.118C578.27 495.118 579.56 492.388 579.56 490.8Z" fill="#ADCB53"/>
<path d="M581.601 79.6957C584.002 80.2714 586.408 80.847 588.821 81.411C585.755 83.134 582.693 84.8686 579.62 86.5954" fill="#ADCB53"/>
<path d="M572.581 83.3156C572.581 93.8157 564.067 102.334 553.572 102.334C543.077 102.334 534.563 93.8157 534.563 83.3156C534.563 82.9138 572.581 82.9138 572.581 83.3156Z" fill="#1A3C5B"/>
<path d="M572.045 87.99C564.592 94.5343 553.256 93.8041 546.707 86.352C540.158 78.8999 540.896 67.5537 548.344 61.0017C548.63 60.7506 572.33 87.7428 572.045 87.99Z" fill="#AECC53"/>
<path d="M571.825 91.5751C577.447 91.5751 582.003 87.0165 582.003 81.3917C582.003 75.7669 577.443 71.2083 571.825 71.2083C566.203 71.2083 561.647 75.7669 561.647 81.3917C561.643 87.0165 566.203 91.5751 571.825 91.5751Z" fill="#11283C"/>
<path d="M571.825 92.4443C565.732 92.4443 560.778 87.4878 560.778 81.3917C560.778 75.2956 565.732 70.3391 571.825 70.3391C577.918 70.3391 582.872 75.2956 582.872 81.3917C582.872 87.4878 577.914 92.4443 571.825 92.4443ZM571.825 72.0737C566.689 72.0737 562.512 76.2537 562.512 81.3917C562.512 86.5298 566.689 90.7097 571.825 90.7097C576.96 90.7097 581.138 86.5298 581.138 81.3917C581.138 76.2537 576.957 72.0737 571.825 72.0737Z" fill="#ADCB53"/>
<path d="M601.791 397.202C605.244 397.202 608.509 398.867 610.528 401.659L615.453 408.463C615.866 409.034 616.029 409.724 615.918 410.42C615.808 411.116 615.434 411.72 614.863 412.133L593.649 427.505C593.078 427.918 592.498 428.004 592.114 428.004C591.26 428.004 590.479 427.606 589.98 426.915L585.055 420.112C581.569 415.3 582.653 408.544 587.462 405.061L595.485 399.251C597.336 397.912 599.513 397.202 601.791 397.202ZM601.791 393.623C598.876 393.623 595.931 394.511 593.385 396.353L585.362 402.163C578.941 406.812 577.507 415.794 582.154 422.213L587.079 429.017C588.292 430.696 590.186 431.583 592.109 431.583C593.37 431.583 594.646 431.2 595.744 430.403L616.959 415.031C619.736 413.021 620.354 409.139 618.345 406.361L613.42 399.558C610.619 395.681 606.236 393.623 601.791 393.623Z" fill="#C8D3DD"/>
<path d="M649.06 435.076L628.521 434.059L637.392 427.63C641.272 424.818 642.14 419.392 639.33 415.511L628.372 400.369C625.562 396.487 620.139 395.619 616.259 398.43L582.595 422.818L603.729 452.017L650.848 439.74L649.06 435.076Z" fill="#C8D3DD"/>
<path d="M428.519 422.707H412.982C383.126 422.707 358.703 398.267 358.703 368.401V344.205C358.703 329.159 371.008 316.848 386.046 316.848H455.46C470.498 316.848 482.803 329.159 482.803 344.205V368.401C482.798 398.272 458.371 422.707 428.519 422.707Z" fill="#AECC53"/>
<path d="M473.52 401.774C473.414 401.774 473.309 401.736 473.227 401.654C462.649 391.056 442.498 384.473 420.636 384.473C398.98 384.473 378.921 390.965 368.284 401.415C368.121 401.573 367.862 401.573 367.704 401.41C367.546 401.247 367.546 400.988 367.709 400.829C378.494 390.236 398.774 383.653 420.636 383.653C442.709 383.653 463.085 390.332 473.812 401.074C473.971 401.232 473.971 401.496 473.812 401.654C473.731 401.736 473.625 401.774 473.52 401.774Z" fill="#11283C"/>
<path d="M420.635 343.774C397.31 343.774 376.407 336.538 366.083 324.889C365.934 324.721 365.948 324.457 366.116 324.309C366.284 324.16 366.548 324.174 366.696 324.342C376.867 335.819 397.536 342.948 420.63 342.948C443.553 342.948 464.154 335.895 474.387 324.544C474.541 324.376 474.8 324.362 474.967 324.515C475.135 324.669 475.15 324.928 474.996 325.096C464.619 336.615 443.783 343.774 420.635 343.774Z" fill="#11283C"/>
<path d="M394.951 518.707C392.342 518.707 390.227 516.591 390.227 513.981V427.232C390.227 424.622 392.342 422.506 394.951 422.506C397.559 422.506 399.674 424.622 399.674 427.232V513.981C399.679 516.591 397.564 518.707 394.951 518.707Z" fill="white"/>
<path d="M394.951 436.276C388.17 436.276 382.622 430.724 382.622 423.94V412.43C382.622 409.715 384.842 407.498 387.552 407.498H402.346C405.06 407.498 407.275 409.72 407.275 412.43V423.94C407.28 430.724 401.732 436.276 394.951 436.276Z" fill="#AECC53"/>
<path d="M445.289 518.913C442.68 518.913 440.565 516.798 440.565 514.187V427.438C440.565 424.828 442.68 422.712 445.289 422.712C447.898 422.712 450.012 424.828 450.012 427.438V514.187C450.017 516.798 447.902 518.913 445.289 518.913Z" fill="white"/>
<path d="M445.816 436.276C439.036 436.276 433.487 430.724 433.487 423.94V412.43C433.487 409.715 435.708 407.498 438.417 407.498H453.211C455.925 407.498 458.141 409.72 458.141 412.43V423.94C458.145 430.724 452.597 436.276 445.816 436.276Z" fill="#AECC53"/>
<path d="M432.69 387.362H408.809C391.575 387.362 377.605 373.386 377.605 356.142V349.353C377.605 340.377 384.88 333.098 393.852 333.098H447.647C456.62 333.098 463.894 340.377 463.894 349.353V356.142C463.894 373.381 449.925 387.362 432.69 387.362Z" fill="white"/>
<path d="M432.691 388.595H408.81C390.923 388.595 376.369 374.033 376.369 356.137V349.349C376.369 339.705 384.209 331.86 393.848 331.86H447.648C457.287 331.86 465.127 339.705 465.127 349.349V356.137C465.127 374.033 450.578 388.595 432.691 388.595ZM393.848 334.327C385.566 334.327 378.833 341.068 378.833 349.349V356.137C378.833 372.671 392.28 386.124 408.805 386.124H432.686C449.211 386.124 462.657 372.671 462.657 356.137V349.349C462.657 341.063 455.92 334.327 447.643 334.327H393.848Z" fill="#1A3C5B"/>
<path d="M420.577 375.017C416.348 375.017 412.502 372.68 410.545 368.924L412.368 367.974C413.969 371.049 417.115 372.959 420.577 372.959C424.303 372.959 427.646 370.742 429.099 367.307L430.993 368.108C429.214 372.306 425.128 375.017 420.577 375.017Z" fill="#1A3C5B"/>
<path d="M398.558 363.512C402.642 363.512 405.952 360.199 405.952 356.114C405.952 352.028 402.642 348.715 398.558 348.715C394.474 348.715 391.163 352.028 391.163 356.114C391.163 360.199 394.474 363.512 398.558 363.512Z" fill="#1A3C5B"/>
<path d="M396.338 356.31L390.343 359.04V353.585L396.338 356.31Z" fill="white"/>
<path d="M442.939 363.512C447.023 363.512 450.334 360.199 450.334 356.114C450.334 352.028 447.023 348.715 442.939 348.715C438.856 348.715 435.545 352.028 435.545 356.114C435.545 360.199 438.856 363.512 442.939 363.512Z" fill="#1A3C5B"/>
<path d="M441.539 356.31L435.545 359.04V353.585L441.539 356.31Z" fill="white"/>
<path d="M465.17 320.749H442.253C439.764 320.749 437.731 318.715 437.731 316.224C437.731 313.734 439.764 311.7 442.253 311.7H465.17C467.659 311.7 469.692 313.734 469.692 316.224C469.697 318.715 467.659 320.749 465.17 320.749Z" fill="#AECC53"/>
<path d="M453.714 302.647C452.717 302.647 451.906 301.836 451.906 300.838V280.322C451.906 279.324 452.717 278.513 453.714 278.513C454.712 278.513 455.522 279.324 455.522 280.322V300.838C455.522 301.836 454.712 302.647 453.714 302.647Z" fill="white"/>
<path d="M453.714 283.34C456.211 283.34 458.236 281.315 458.236 278.816C458.236 276.317 456.211 274.291 453.714 274.291C451.217 274.291 449.192 276.317 449.192 278.816C449.192 281.315 451.217 283.34 453.714 283.34Z" fill="#AECC53"/>
<path d="M454.702 315.922H452.726C450.607 315.922 448.89 314.204 448.89 312.084V294.418C448.89 292.298 450.607 290.58 452.726 290.58H454.702C456.822 290.58 458.538 292.298 458.538 294.418V312.084C458.538 314.204 456.822 315.922 454.702 315.922Z" fill="#AECC53"/>
<path d="M404.518 524.258H386.847V497.328C386.847 492.444 390.803 488.49 395.68 488.49C400.557 488.49 404.513 492.448 404.513 497.328V524.258H404.518Z" fill="#AECC53"/>
<path d="M405.022 524.258H404.202C404.202 518.477 400.423 513.775 395.776 513.775C391.13 513.775 387.351 518.477 387.351 524.258H386.531C386.531 518.026 390.679 512.954 395.776 512.954C400.874 512.954 405.022 518.026 405.022 524.258Z" fill="#11283C"/>
<path d="M454.607 524.258H436.936V497.328C436.936 492.444 440.892 488.49 445.769 488.49C450.65 488.49 454.602 492.449 454.602 497.328V524.258H454.607Z" fill="#AECC53"/>
<path d="M455.105 524.258H454.285C454.285 518.477 450.507 513.775 445.86 513.775C441.213 513.775 437.434 518.477 437.434 524.258H436.614C436.614 518.026 440.762 512.954 445.86 512.954C450.957 512.954 455.105 518.026 455.105 524.258Z" fill="#11283C"/>
<path d="M339.478 465.058C336.869 465.058 334.754 462.942 334.754 460.332V366.179C334.754 356.771 342.403 349.118 351.807 349.118C354.416 349.118 356.53 351.234 356.53 353.844C356.53 356.454 354.416 358.57 351.807 358.57C347.616 358.57 344.206 361.981 344.206 366.175V460.322C344.206 462.937 342.087 465.058 339.478 465.058Z" fill="white"/>
<path d="M358.996 369.264C354.929 369.264 351.601 365.935 351.601 361.866V346.244C351.601 342.176 354.929 338.846 358.996 338.846C363.062 338.846 366.39 342.176 366.39 346.244V361.866C366.395 365.93 363.067 369.264 358.996 369.264Z" fill="#AECC53"/>
<path d="M345.64 486.024C337.368 486.024 330.64 479.293 330.64 471.017C330.64 462.74 337.368 456.009 345.64 456.009C353.567 456.009 360.146 462.208 360.612 470.119C360.717 471.933 359.336 473.488 357.523 473.598C355.711 473.708 354.157 472.322 354.047 470.508C353.783 466.065 350.09 462.587 345.635 462.587C340.989 462.587 337.21 466.368 337.21 471.017C337.21 475.666 340.989 479.446 345.635 479.446C347.453 479.446 348.925 480.919 348.925 482.738C348.925 484.556 347.458 486.024 345.64 486.024Z" fill="white"/>
<path d="M339.684 471.636C333.81 471.636 329 466.823 329 460.946V435.043C329 429.165 333.81 424.353 339.684 424.353C345.559 424.353 350.368 429.165 350.368 435.043V460.946C350.368 466.823 345.559 471.636 339.684 471.636Z" fill="#AECC53"/>
<path d="M350.368 450.664H329V451.485H350.368V450.664Z" fill="#11283C"/>
<path d="M565.154 372.589C563.701 372.589 562.268 371.922 561.342 370.66C561.074 370.301 545.647 349.771 524.475 347.079C513.704 345.707 503.063 349.219 492.854 357.519C490.83 359.165 487.852 358.858 486.207 356.828C484.563 354.804 484.87 351.824 486.898 350.179C499.213 340.17 512.28 335.977 525.736 337.709C551.032 340.967 568.243 364.087 568.962 365.071C570.506 367.177 570.051 370.138 567.945 371.678C567.106 372.292 566.128 372.589 565.154 372.589Z" fill="white"/>
<path d="M482.683 369.264C486.75 369.264 490.078 365.935 490.078 361.866V346.244C490.078 342.176 486.75 338.846 482.683 338.846C478.617 338.846 475.289 342.176 475.289 346.244V361.866C475.289 365.93 478.617 369.264 482.683 369.264Z" fill="#AECC53"/>
<path d="M359.109 369.667C358.985 369.667 358.86 369.61 358.778 369.495C358.649 369.312 358.692 369.063 358.874 368.933C362.255 366.544 363.636 362.236 363.636 354.05C363.636 346.268 361.622 340.856 358.117 339.201C357.915 339.105 357.829 338.865 357.925 338.664C358.021 338.462 358.261 338.376 358.462 338.472C360.697 339.523 364.447 342.948 364.447 354.05C364.447 362.528 362.97 367.033 359.344 369.591C359.272 369.643 359.191 369.667 359.109 369.667Z" fill="#11283C"/>
<path d="M482.386 369.667C482.304 369.667 482.223 369.643 482.156 369.595C478.53 367.038 477.053 362.533 477.053 354.055C477.053 342.953 480.803 339.532 483.038 338.477C483.239 338.381 483.479 338.467 483.575 338.669C483.671 338.87 483.585 339.11 483.383 339.206C479.873 340.856 477.859 346.268 477.859 354.055C477.859 362.236 479.24 366.549 482.621 368.938C482.803 369.068 482.846 369.317 482.717 369.499C482.64 369.605 482.515 369.667 482.386 369.667Z" fill="#11283C"/>
<path d="M594.724 408.779C593.769 408.779 592.82 408.367 592.163 407.575L578.213 390.691C577.043 389.276 577.244 387.184 578.654 386.018C580.069 384.848 582.16 385.049 583.325 386.46L597.275 403.343C598.445 404.759 598.244 406.85 596.834 408.016C596.215 408.53 595.467 408.779 594.724 408.779Z" fill="white"/>
<path d="M587.957 397.984C583.358 401.731 576.529 401.031 572.779 396.43L556.278 376.149C552.533 371.548 553.233 364.716 557.832 360.964C562.431 357.217 569.259 357.918 573.009 362.519L589.511 382.799C593.261 387.405 592.56 394.237 587.957 397.984Z" fill="#AECC53"/>
<path d="M582.979 374.747L566.25 388.378L566.774 389.022L583.503 375.391L582.979 374.747Z" fill="#11283C"/>
<path d="M656.656 438.948C663.801 441.337 670.52 445.564 675.828 451.403C676.552 452.19 676.5 453.418 675.708 454.138C674.922 454.853 673.704 454.795 672.989 454.008C669.033 447.843 663.427 442.556 656.656 438.948Z" fill="#CCCBCB"/>
<path d="M678.428 447.694C682.633 449.729 686.58 452.435 689.999 455.779C693.428 459.113 696.319 463.057 698.578 467.375C699.072 468.315 698.707 469.481 697.768 469.971C696.828 470.465 695.662 470.1 695.173 469.16C692.099 460.466 686.23 452.804 678.428 447.694Z" fill="#CCCBCB"/>
<path d="M652.993 435.877C661.365 434.232 670.381 435.129 678.624 438.43C679.617 438.818 680.106 439.946 679.708 440.939C679.286 442.028 677.948 442.479 676.946 441.884C669.911 437.744 661.519 435.508 652.993 435.877Z" fill="#CCCBCB"/>
</svg>
