<svg width="307" height="308" viewBox="0 0 307 308" fill="none" xmlns="http://www.w3.org/2000/svg">
<path d="M297.8 196.6C302.1 183.2 305.6 169.2 304.9 155.2C303.9 136.2 295.4 118.6 286.7 101.7C270.7 70.6001 246.8 46.6001 222.5 21.7001C202.8 1.40009 163.9 -0.199912 137.6 1.70009C134.4 1.90009 131.2 2.20009 128.1 2.50009C118.3 3.40009 108.6 4.90009 99.6 8.80009C85.2 15.0001 73.4 28.4001 61.8 38.6001C49.2 49.7001 38.8 60.4001 30.1 75.0001C20.3 91.3001 3.20003 114.9 2.50003 134.7C1.60003 159.6 1.50003 178.6 10 202C19.1 227 31.9 254.2 53 271.5C64 280.6 79.5 286.1 92.1 292.6C116.8 305.4 143 309.9 170.4 305C199.1 299.9 220.8 287.5 246 274.3C278.5 257.4 287.1 229.9 297.8 196.6Z" fill="#1A3C5B"/>
<path d="M104.3 221.7C103.7 215.6 98.2 211.1 92 211.8C85.9 212.4 81.4 217.9 82.1 224.1C84.4 246.2 83.4 267.3 80.6 287.1C84.5 288.9 88.4 290.7 92.1 292.6C95.3 294.2 98.5 295.7 101.7 297.1C105.5 273.7 107.1 248.5 104.3 221.7Z" fill="#A4C94D"/>
<path d="M130.8 195.6C133.3 184.6 134.7 172.4 134.9 158.9C135.1 157.2 135.3 155.5 135.3 153.8C135.3 133.4 118.7 116.7 98.1 116.7C77.5 116.7 85.8 118.3 80.5 121.1C80.3 121.1 80.1 121.1 79.9 121.1C73.4 122.9 65 123.9 55.7 123.9C46.4 123.9 38 122.8 31.6 121.1C26.3 118.2 20.2 116.5 13.8 116.5C7.40001 116.5 8.90001 116.7 6.60001 117.2C4.30001 123.1 2.80001 129 2.60001 134.6C1.70001 159.5 1.60001 178.5 10.1 201.9C18.2 224.3 29.4 248.4 46.7 265.6C49 265.8 51.3 265.9 53.7 266H57.9C93.1 265 120.5 249.6 130.9 195.5H130.8V195.6Z" fill="#8BB52D"/>
<path d="M84.8 138H113.8C122.1 138 128.8 144.7 128.8 153C128.8 161.3 122.1 168 113.8 168H84.8C76.5 168 69.8 161.3 69.8 153C69.8 144.7 76.5 138 84.8 138Z" fill="white" stroke="#265D84" stroke-width="4" stroke-miterlimit="10"/>
<path d="M41.5 153H69.5" stroke="#265D84" stroke-width="4" stroke-miterlimit="10"/>
<path d="M105.7 202.9V201.9C105.7 200.2 105.5 198.7 105.2 197.4C104.7 195.3 103.7 193.6 102.4 192.2C98.6 186.9 91.7 183.1 83.9 182.7H82.3C78.5 182.7 74.6 183.2 70.9 184C66.8 184.9 61.4 189 55.6 189C49.8 189 44.5 184.9 40.4 184C36.7 183.2 32.9 182.7 29 182.7H27.4C19.5 183.1 12.7 186.9 8.90002 192.2C8.40002 192.8 7.90002 193.4 7.40002 194.2C8.20002 196.8 9.00002 199.4 10 202C17 221.1 26.1 241.5 39.4 257.8C44.1 258.9 49.1 259.5 54.4 259.6H57C79.3 259.1 96.6 251 103.1 222.8C104.7 216.9 105.6 210.2 105.7 202.9Z" fill="#EAF1D4"/>
<path d="M55.7 189.8C54.1 189.8 52.5 189.5 50.9 189L34.9 183.8C34.3 183.6 33.9 182.9 34.1 182.3C34.3 181.7 35 181.3 35.6 181.5L51.6 186.7C54.2 187.6 57 187.6 59.6 186.7L75.6 181.5C76.2 181.3 76.9 181.6 77.1 182.3C77.3 182.9 77.1 183.6 76.3 183.8L60.3 189C58.7 189.5 57.1 189.8 55.5 189.8H55.7Z" fill="#3C3C3B"/>
<path d="M66.1 170.4L61.9 166.3L67.3 168.4C69 169.2 67.5 171.6 66 170.4H66.1Z" fill="#3C3C3B"/>
<path d="M44 168.4L49.4 166.3L45.2 170.4C43.8 171.7 42.2 169.2 43.9 168.4H44Z" fill="#3C3C3B"/>
<path d="M55.6 142.6C58.4719 142.6 60.8 142.018 60.8 141.3C60.8 140.582 58.4719 140 55.6 140C52.7281 140 50.4 140.582 50.4 141.3C50.4 142.018 52.7281 142.6 55.6 142.6Z" fill="white"/>
<path d="M47 136.2C49.8719 136.2 52.2 135.618 52.2 134.9C52.2 134.182 49.8719 133.6 47 133.6C44.1281 133.6 41.8 134.182 41.8 134.9C41.8 135.618 44.1281 136.2 47 136.2Z" fill="white"/>
<path d="M62.5 136.2C65.3719 136.2 67.7 135.618 67.7 134.9C67.7 134.182 65.3719 133.6 62.5 133.6C59.6281 133.6 57.3 134.182 57.3 134.9C57.3 135.618 59.6281 136.2 62.5 136.2Z" fill="white"/>
<path d="M99.9 162.4C105.368 162.4 109.8 157.968 109.8 152.5C109.8 147.032 105.368 142.6 99.9 142.6C94.4324 142.6 90 147.032 90 152.5C90 157.968 94.4324 162.4 99.9 162.4Z" fill="#060300"/>
<path d="M90.5 158.4C92.93 158.4 94.9 156.43 94.9 154C94.9 151.57 92.93 149.6 90.5 149.6C88.0699 149.6 86.1 151.57 86.1 154C86.1 156.43 88.0699 158.4 90.5 158.4Z" fill="white"/>
<path d="M47.8 197.8H8.59998C9.09998 199.2 9.49998 200.6 9.99998 202C14.5 214.4 19.9 227.3 26.8 239.2C38.9 236.3 47.8 225.4 47.8 212.5V197.8Z" fill="#1A3C5B"/>
<path d="M47.8 197.9C47.8 194.1 33.8 191.1 16.5 191.1C-0.80001 191.1 9.79999 191.2 6.69999 191.4C7.59999 194.8 8.69999 198.3 9.99999 202C10.3 202.9 10.6 203.7 11 204.6C12.8 204.6 14.7 204.7 16.5 204.7C33.8 204.7 47.8 201.7 47.8 197.9Z" fill="#11283C"/>
<path d="M46.2 157.8C46.8 156 48.2 154.7 50 154.3C51.9 153.9 53.7 153.1 55.4 151.9C58.3 149.9 60.2 147.1 61.2 144C62.2 140.9 63.5 140.6 65.5 140.3C67.4 140 69.3 139.3 71 138.1C74.2 135.8 74.9 132.7 77.1 129.9C79.3 127.1 83.3 125.8 86.4 124.3C87.3 123.9 88.3 123.4 88.7 122.5C89.6 120.8 88.1 118.8 86.6 117.7C78.7 111.7 64.6 111.3 56.3 117.1C54.6 118.3 53.3 119.8 52.4 121.5C51.4 123.3 49.5 124.4 47.5 124.3C44.3 124.1 40.9 125 38.1 127C36.4 128.2 35 129.6 34 131.3C32.3 133.9 28.3 135.1 25.8 136.6C22.6 138.5 19.5 140.8 17.3 144C15 147.4 14.2 150.2 14.8 154.2C15.7 160.1 11.7 171.5 19.1 175C21.7 176.2 24.8 175 27.2 173.3C29.1 172 31.1 170.1 33.3 169.4C35.5 168.7 37.1 168.7 39.1 167.3C42.6 164.9 44.9 161.5 46.1 157.8H46.2Z" fill="#11283C"/>
<path d="M69.2 124C53.1 130.9 38.8 142.1 28.2 156.1C19.5 167.5 15.3 185.3 15 199.5" stroke="white" stroke-width="1.5" stroke-linecap="round" stroke-linejoin="round"/>
<path d="M6.90002 167.1C11.7 177.4 14.7 189.5 14.9 199.5" stroke="white" stroke-width="1.5" stroke-linecap="round" stroke-linejoin="round"/>
<path d="M2.20001 158.2C2.30001 163.4 2.60001 168.5 3.20001 173.5C5.10001 174.3 7.20001 174.7 9.00001 173.8C12.2 172.3 8.10001 165.5 2.20001 158.1V158.2Z" fill="#265D84"/>
<path d="M36.5 130.5C35.9 129.4 35.2 128.3 34.4 127.3C32.9 125.3 32.6 122.8 33.5 120.5C34.5 118.2 35 117.5 35 112.9C35 108.3 33.4 104.1 30.8 100.7C29.2 98.6 28.9 95.7 30.1 93.3C31.2 91 31.9 88.4 31.9 85.7C31.9 83 31 79.5 29.5 76C19.6 92.3 3.2 115.3 2.5 134.7C2.1 145.3 1.9 154.9 2.4 164.1C6.6 167.7 11.3 170 15.4 170C23 170 39.5 155 39.3 141.7C39.3 137.6 38.2 133.8 36.4 130.4H36.5V130.5Z" fill="#265D84"/>
<path d="M15 102.3V199.5" stroke="white" stroke-width="1.5" stroke-linecap="round" stroke-linejoin="round"/>
<path d="M21.2 207.1C18.1 207.7 15 207.7 12 207.4C15.1 215.5 18.6 223.8 22.7 231.8C23.7 231.7 24.7 231.5 25.6 231.4C32.3 230.1 36.7 223.7 35.5 217C34.2 210.3 27.8 205.9 21.1 207.1H21.2Z" fill="#A4C94D"/>
<path d="M37.9 217.8H32.8C31.2 217.8 29.9 216.5 29.9 214.9C29.9 213.3 31.2 212 32.8 212H37.9C39.5 212 40.8 213.3 40.8 214.9C40.8 216.5 39.5 217.8 37.9 217.8Z" fill="#A4C94D"/>
<path d="M35.9 228.5C35.4 228.5 35 228.4 34.6 228.2L30 225.8C28.6 225.1 28 223.3 28.7 221.8C29.4 220.4 31.2 219.8 32.7 220.5L37.3 222.9C38.7 223.6 39.3 225.4 38.6 226.9C38.1 227.9 37.1 228.5 36 228.5H35.9Z" fill="#A4C94D"/>
<path d="M27.6 236.6C26.6 236.6 25.6 236.1 25 235.1L22.5 230.6C21.7 229.2 22.2 227.4 23.6 226.6C25 225.8 26.8 226.3 27.6 227.7L30.1 232.2C30.9 233.6 30.4 235.4 29 236.2C28.5 236.5 28 236.6 27.6 236.6Z" fill="#A4C94D"/>
<path d="M95.7 232.3C92.3 232.3 88.9 232 85.6 231.4C78.9 230.2 74.5 223.7 75.7 217C76.9 210.3 83.4 205.9 90.1 207.1C101.5 209.2 113 204.4 116.5 200.3C120.9 195.1 128.7 194.6 133.9 199C139.1 203.4 139.6 211.2 135.2 216.4C126.7 226.3 111.2 232.3 95.7 232.3Z" fill="#A4C94D"/>
<path d="M78.6 217.8H73.5C71.9 217.8 70.6 216.5 70.6 214.9C70.6 213.3 71.9 212 73.5 212H78.6C80.2 212 81.5 213.3 81.5 214.9C81.5 216.5 80.2 217.8 78.6 217.8Z" fill="#A4C94D"/>
<path d="M75.5 228.5C74.4 228.5 73.4 227.9 72.9 226.9C72.4 225.9 72.7 223.7 74.2 222.9L78.8 220.5C80.2 219.8 82 220.3 82.8 221.8C83.5 223.2 83 225 81.5 225.8L76.9 228.2C76.5 228.4 76 228.5 75.6 228.5H75.5Z" fill="#A4C94D"/>
<path d="M83.8 236.6C83.3 236.6 82.8 236.5 82.4 236.2C81 235.4 80.5 233.6 81.3 232.2L83.8 227.7C84.6 226.3 86.4 225.8 87.8 226.6C89.2 227.4 89.7 229.2 88.9 230.6L86.4 235.1C85.9 236.1 84.9 236.6 83.8 236.6Z" fill="#A4C94D"/>
<path d="M213.4 211.8C207.3 211.2 201.8 215.6 201.1 221.7C198.4 247.8 199.9 272.4 203.4 295.2C210.6 292.3 217.5 289 224.5 285.4C221.9 266 221 245.5 223.2 224C223.8 217.9 219.4 212.4 213.3 211.7L213.4 211.8Z" fill="#A4C94D"/>
<path d="M304.9 155.2C304.2 141.8 299.7 129 294.1 116.8H292C271.4 116.8 279.7 118.4 274.4 121.2C274.2 121.2 274 121.2 273.8 121.2C267.3 123 258.9 124 249.6 124C240.3 124 231.9 122.9 225.5 121.2C220.2 118.3 214.1 116.6 207.7 116.6C187.2 116.6 170.5 133.2 170.5 153.8V157.5C170.5 171.6 172.1 184.2 174.6 195.6C184.9 249.8 212.3 265.2 247.6 266.1H251.8C254.4 266.1 257 265.9 259.6 265.6C281.2 248.6 288.8 224.7 297.8 196.6C302.1 183.2 305.6 169.2 304.9 155.2Z" fill="#8BB52D"/>
<path d="M299.2 197.5C298.7 195.3 297.7 193.6 296.4 192.2C292.6 186.9 285.7 183.1 277.9 182.7H276.3C272.5 182.7 268.6 183.2 264.9 184C260.8 184.9 255.4 189 249.6 189C243.8 189 238.5 184.9 234.4 184C230.7 183.2 226.9 182.7 223 182.7H221.4C213.5 183.1 206.7 186.9 202.9 192.2C201.9 193.3 201 194.6 200.5 196.2C200 197.8 199.7 199.7 199.7 201.9V202.9C199.7 210.2 200.7 216.9 202.3 222.8C208.8 251.1 226.2 259.1 248.4 259.6H251C273.3 259.1 290.6 251 297.1 222.8C298.7 216.9 299.6 210.2 299.7 202.9V201.9C299.7 200.2 299.5 198.7 299.2 197.4V197.5Z" fill="white"/>
<path d="M249.7 189.8C248.1 189.8 246.5 189.5 244.9 189L228.9 183.8C228.3 183.6 227.9 182.9 228.1 182.3C228.3 181.7 229 181.3 229.6 181.5L245.6 186.7C248.2 187.6 251 187.6 253.6 186.7L269.6 181.5C270.2 181.3 270.9 181.6 271.1 182.3C271.3 182.9 271 183.6 270.3 183.8L254.3 189C252.7 189.5 251.1 189.8 249.5 189.8H249.7Z" fill="#3C3C3B"/>
<path d="M260.1 170.4L255.9 166.3L261.3 168.4C263 169.2 261.5 171.6 260 170.4H260.1Z" fill="#3C3C3B"/>
<path d="M238 168.4L243.4 166.3L239.2 170.4C237.8 171.7 236.2 169.2 237.9 168.4H238Z" fill="#3C3C3B"/>
<path d="M249.6 142.6C252.472 142.6 254.8 142.018 254.8 141.3C254.8 140.582 252.472 140 249.6 140C246.728 140 244.4 140.582 244.4 141.3C244.4 142.018 246.728 142.6 249.6 142.6Z" fill="white"/>
<path d="M241 136.2C243.872 136.2 246.2 135.618 246.2 134.9C246.2 134.182 243.872 133.6 241 133.6C238.128 133.6 235.8 134.182 235.8 134.9C235.8 135.618 238.128 136.2 241 136.2Z" fill="white"/>
<path d="M256.5 136.2C259.372 136.2 261.7 135.618 261.7 134.9C261.7 134.182 259.372 133.6 256.5 133.6C253.628 133.6 251.3 134.182 251.3 134.9C251.3 135.618 253.628 136.2 256.5 136.2Z" fill="white"/>
<path d="M269.4 157.1L268.6 156.8C256.1 152.5 242.4 152.6 230 157.1L227.8 151C241.6 146.1 256.8 146 270.7 150.7L271.5 151L269.4 157.1Z" fill="#1A3C5B"/>
<path d="M205.5 179.1C220.191 179.1 232.1 167.191 232.1 152.5C232.1 137.809 220.191 125.9 205.5 125.9C190.809 125.9 178.9 137.809 178.9 152.5C178.9 167.191 190.809 179.1 205.5 179.1Z" fill="white"/>
<path d="M205.5 182.3C189.1 182.3 175.7 168.9 175.7 152.5C175.7 136.1 189.1 122.7 205.5 122.7C221.9 122.7 235.3 136.1 235.3 152.5C235.3 168.9 221.9 182.3 205.5 182.3ZM205.5 129.2C192.6 129.2 182.1 139.7 182.1 152.6C182.1 165.5 192.6 176 205.5 176C218.4 176 228.9 165.5 228.9 152.6C228.9 139.7 218.4 129.2 205.5 129.2Z" fill="#1A3C5B"/>
<path d="M267.3 152.5C267.3 167.2 279.2 179.1 293.9 179.1C308.6 179.1 300.1 178.5 302.9 177.5C304.4 170.1 305.2 162.7 304.9 155.2C304.4 145.2 301.8 135.6 298.1 126.2C296.7 126 295.3 125.9 293.9 125.9C279.2 125.9 267.3 137.8 267.3 152.5Z" fill="white"/>
<path d="M293.9 176C281 176 270.5 165.5 270.5 152.6C270.5 139.7 281 129.2 293.9 129.2C306.8 129.2 297.7 129.4 299.5 129.9C298.7 127.5 297.7 125.2 296.8 122.9C295.9 122.9 294.9 122.9 293.9 122.9C277.5 122.9 264.1 136.3 264.1 152.7C264.1 169.1 277.5 182.5 293.9 182.5C310.3 182.5 299.5 182.1 302.2 181.3C302.8 178.9 303.3 176.5 303.7 174.1C300.7 175.5 297.4 176.2 294 176.2L293.9 176Z" fill="#1A3C5B"/>
<path d="M205.5 162.4C210.968 162.4 215.4 157.967 215.4 152.5C215.4 147.032 210.968 142.6 205.5 142.6C200.032 142.6 195.6 147.032 195.6 152.5C195.6 157.967 200.032 162.4 205.5 162.4Z" fill="#060300"/>
<path d="M293.9 162.4C299.368 162.4 303.8 157.967 303.8 152.5C303.8 147.032 299.368 142.6 293.9 142.6C288.432 142.6 284 147.032 284 152.5C284 157.967 288.432 162.4 293.9 162.4Z" fill="#060300"/>
<path d="M198.2 158.4C200.63 158.4 202.6 156.43 202.6 154C202.6 151.57 200.63 149.6 198.2 149.6C195.77 149.6 193.8 151.57 193.8 154C193.8 156.43 195.77 158.4 198.2 158.4Z" fill="white"/>
<path d="M284.5 158.4C286.93 158.4 288.9 156.43 288.9 154C288.9 151.57 286.93 149.6 284.5 149.6C282.07 149.6 280.1 151.57 280.1 154C280.1 156.43 282.07 158.4 284.5 158.4Z" fill="white"/>
<path d="M209.6 232.3C194.2 232.3 178.6 226.3 170.1 216.4C165.7 211.2 166.2 203.5 171.4 199C176.6 194.6 184.3 195.1 188.8 200.3C192.4 204.4 203.8 209.2 215.2 207.1C221.9 205.9 228.3 210.3 229.6 217C230.8 223.7 226.4 230.1 219.7 231.4C216.4 232 213 232.3 209.6 232.3Z" fill="#A4C94D"/>
<path d="M231.9 217.8H226.8C225.2 217.8 223.9 216.5 223.9 214.9C223.9 213.3 225.2 212 226.8 212H231.9C233.5 212 234.8 213.3 234.8 214.9C234.8 216.5 233.5 217.8 231.9 217.8Z" fill="#A4C94D"/>
<path d="M229.9 228.5C229.4 228.5 229 228.4 228.6 228.2L224 225.8C222.6 225.1 222 223.3 222.7 221.8C223.4 220.4 225.2 219.8 226.7 220.5L231.3 222.9C232.7 223.6 233.3 225.4 232.6 226.9C232.1 227.9 231.1 228.5 230 228.5H229.9Z" fill="#A4C94D"/>
<path d="M221.6 236.6C220.6 236.6 219.6 236.1 219 235.1L216.5 230.6C215.7 229.2 216.2 227.4 217.6 226.6C219 225.8 220.8 226.3 221.6 227.7L224.1 232.2C224.9 233.6 224.4 235.4 223 236.2C222.5 236.5 222 236.6 221.6 236.6Z" fill="#A4C94D"/>
<path d="M275.8 207.9C284.526 207.9 291.6 203.199 291.6 197.4C291.6 191.601 284.526 186.9 275.8 186.9C267.074 186.9 260 191.601 260 197.4C260 203.199 267.074 207.9 275.8 207.9Z" fill="#A4C94D"/>
<path d="M304.9 155.2C304.4 145 301.6 135.1 297.9 125.6C297.6 125.9 297.4 126.2 297.1 126.5C295.1 129 293.4 134.7 288.7 132.9C281.6 130 291.6 121.9 294.3 119.9C294.6 119.7 294.9 119.4 295.2 119.2C292.6 113.3 289.7 107.4 286.7 101.7C286.4 101.2 286.2 100.7 285.9 100.2C285.7 100.2 285.5 99.9 285.3 99.7C284.8 99.1 284.6 98.4 284.5 97.7C280.4 90.1 275.8 83 270.8 76.2C269.3 77.8 268.4 79.9 268.7 82.5C269.4 88.2 275.7 91.6 275 97.5C275 98.3 274.7 99.1 274.2 99.7C273.7 100.3 272.9 100.7 272.1 100.5C271.3 100.3 270.7 99.5 270.5 98.7C268.4 92.4 258.4 89 255.3 96.5C253.2 101.4 255.3 108.8 258.4 112.9C260.5 115.7 262.2 117.8 265.1 119.9C267.8 121.9 277.7 130.1 270.6 132.9C265.9 134.7 264.2 128.9 262.3 126.4C259.7 123 254.9 121.2 250.6 122.4C245.1 123.9 243.9 130.8 243.5 135.4C243 141.9 245.3 150.2 249.2 155.5C260.7 170.9 272 171.9 279.5 171.9C287 171.9 295.7 171.3 304.9 161.9V155.3V155.2Z" fill="#265D84"/>
<path d="M279.9 89.5L279 216" stroke="#A6C453" stroke-width="1.6" stroke-linecap="round" stroke-linejoin="round"/>
<path d="M291.6 111.5C288.9 115.2 284.6 117.6 279.7 117.6C272.5 117.6 266.6 112.3 265.5 105.4" stroke="#A6C453" stroke-width="1.6" stroke-linecap="round" stroke-linejoin="round"/>
<path d="M268 105.2C267.9 103.8 266.7 102.8 265.3 102.9C263.9 102.9 262.9 104.2 263 105.6C263.1 107 264.3 108 265.7 107.9C267.1 107.8 268.1 106.6 268 105.2Z" fill="#A6C453"/>
<path d="M302.3 140.5C298.7 148.6 289.8 154.3 279.5 154.2C267 154.2 256.7 145.6 255.4 134.9" stroke="#A6C453" stroke-width="1.6" stroke-linecap="round" stroke-linejoin="round"/>
<path d="M258 134.9C258 133.5 256.7 132.5 255.4 132.6C254 132.6 253 133.9 253.1 135.2C253.1 136.6 254.4 137.6 255.7 137.5C257.1 137.5 258.1 136.2 258 134.9Z" fill="#A6C453"/>
<path d="M296.1 192.9H256.9V218.9C256.9 229.7 265.7 238.5 276.5 238.5C287.3 238.5 280.4 238.2 282.2 237.6C287.8 226.8 291.9 214.8 296.1 201.8V192.8V192.9Z" fill="#1A3C5B"/>
<path d="M284.1 207.1C277.4 205.9 270.9 210.3 269.7 217C268.5 223.7 272.9 230.2 279.6 231.4C281.4 231.7 283.1 231.9 284.9 232.1C288.4 224.4 291.4 216.1 294.3 207.3C291 207.7 287.5 207.7 284.1 207.1Z" fill="#A4C94D"/>
<path d="M272.6 217.8H267.5C265.9 217.8 264.6 216.5 264.6 214.9C264.6 213.3 265.9 212 267.5 212H272.6C274.2 212 275.5 213.3 275.5 214.9C275.5 216.5 274.2 217.8 272.6 217.8Z" fill="#A4C94D"/>
<path d="M269.5 228.5C268.4 228.5 267.4 227.9 266.9 226.9C266.2 225.5 266.7 223.7 268.2 222.9L272.8 220.5C274.2 219.8 276 220.3 276.8 221.8C277.5 223.2 277 225 275.5 225.8L270.9 228.2C270.5 228.4 270 228.5 269.6 228.5H269.5Z" fill="#A4C94D"/>
<path d="M277.8 236.6C277.3 236.6 276.8 236.5 276.4 236.2C275 235.4 274.5 233.6 275.3 232.2L277.8 227.7C278.6 226.3 280.4 225.8 281.8 226.6C283.2 227.4 283.7 229.2 282.9 230.6L280.4 235.1C279.9 236.1 278.9 236.6 277.8 236.6Z" fill="#A4C94D"/>
<path d="M193.4 88.2C193.4 110.2 175.6 128.1 153.5 128.1C131.4 128.1 113.6 110.3 113.6 88.2C113.6 66.1 131.8 40.5 143.6 20.8C148.1 13.3 158.9 13.3 163.4 20.8C175.2 40.6 193.4 73.4 193.4 88.2Z" stroke="#ADCB53" stroke-width="2" stroke-linecap="round" stroke-linejoin="round"/>
<path d="M169 64.9001C167.6 72.2001 161.2 77.8001 153.5 77.8001C145.8 77.8001 139.4 72.2001 138 64.9001" stroke="#C8D3DD" stroke-width="2" stroke-linecap="round" stroke-linejoin="round"/>
<path d="M166 64.7C166.2 63 167.6 61.8 169.3 62C171 62.2 172.2 63.6 172 65.3C171.8 67 170.4 68.2 168.7 68C167 67.8 165.8 66.4 166 64.7Z" fill="#C8D3DD"/>
<path d="M141 64.7C140.8 63 139.4 61.8 137.7 62C136 62.2 134.8 63.6 135 65.3C135.2 67 136.6 68.2 138.3 68C140 67.8 141.2 66.4 141 64.7Z" fill="#C8D3DD"/>
<path d="M176.8 86.3999C175.4 97.9999 165.5 107 153.5 107C141.6 107 131.7 97.9999 130.2 86.3999" stroke="#C8D3DD" stroke-width="2" stroke-linecap="round" stroke-linejoin="round"/>
<path d="M173.7 86.3C173.8 84.6 175.3 83.4 176.9 83.5C178.6 83.5 179.8 85.1 179.7 86.7C179.6 88.4 178.1 89.6 176.5 89.5C174.8 89.5 173.6 87.9 173.7 86.3Z" fill="#C8D3DD"/>
<path d="M133.3 86.3C133.2 84.6 131.7 83.4 130.1 83.5C128.4 83.5 127.2 85.1 127.3 86.7C127.3 88.4 128.9 89.6 130.5 89.5C132.2 89.5 133.4 87.9 133.3 86.3Z" fill="#C8D3DD"/>
<path d="M153.5 47.3999V236" stroke="#C8D3DD" stroke-width="2" stroke-linecap="round" stroke-linejoin="round"/>
<path d="M150.5 47.5C150.5 45.8 151.8 44.5 153.5 44.5C155.2 44.5 156.5 45.8 156.5 47.5C156.5 49.2 155.2 50.5 153.5 50.5C151.8 50.5 150.5 49.2 150.5 47.5Z" fill="#C8D3DD"/>
<path d="M128.1 305.1V245.8H178.1V303.4" stroke="white" stroke-width="1.6" stroke-linecap="round" stroke-linejoin="round"/>
<path d="M172.9 254.2H133.1V270.1H172.9V254.2Z" stroke="#ADCB53" stroke-width="1.6" stroke-linecap="round" stroke-linejoin="round"/>
<path d="M172.9 279.4H133.1V295.3H172.9V279.4Z" stroke="#ADCB53" stroke-width="1.6" stroke-linecap="round" stroke-linejoin="round"/>
<path d="M163.6 236.9H143V245.8H163.6V236.9Z" stroke="white" stroke-width="1.6" stroke-linecap="round" stroke-linejoin="round"/>
</svg>
