<svg width="306" height="309" viewBox="0 0 306 309" fill="none" xmlns="http://www.w3.org/2000/svg">
<path d="M297.3 197.1C301.6 183.7 305.1 169.7 304.4 155.7C303.4 136.7 294.9 119.1 286.2 102.2C270.2 71.1001 246.3 47.1001 222 22.2001C202.3 1.90009 163.4 0.300088 137.1 2.20009C133.9 2.40009 130.7 2.70009 127.6 3.00009C117.8 3.90009 108.1 5.40009 99.1 9.30009C84.7 15.5001 72.9 28.9001 61.3 39.1001C48.7 50.2001 38.3 60.9001 29.6 75.5001C19.8 91.8001 2.7 115.4 2 135.2C1.1 160.1 1 179.1 9.5 202.5C18.6 227.5 31.4 254.7 52.5 272C63.5 281.1 79 286.6 91.6 293.1C116.3 305.9 142.5 310.4 169.9 305.5C198.6 300.4 220.3 288 245.5 274.8C278 257.9 286.6 230.4 297.3 197.1Z" fill="#1A3C5B"/>
<path d="M166.4 110H106.3V25.9L212.6 25.7V41.9" stroke="#618AA6" stroke-width="1.2" stroke-linecap="round" stroke-linejoin="round"/>
<path d="M213.6 14.8999H105.3V27.3999H213.6V14.8999Z" fill="#618AA6"/>
<path d="M208.098 17.6619L202.512 23.248L203.856 24.5915L209.442 19.0054L208.098 17.6619Z" fill="#C8D3DD"/>
<path d="M203.856 17.6619L202.512 19.0054L208.098 24.5915L209.442 23.248L203.856 17.6619Z" fill="#C8D3DD"/>
<path d="M194.5 18.7999V23.7999H188.9V18.7999H194.5ZM195.4 17.8999H188V24.5999H195.4V17.8999Z" fill="#C8D3DD"/>
<path d="M180.9 23.1001H173.5V24.6001H180.9V23.1001Z" fill="#C8D3DD"/>
<path d="M113.7 42.8999H166.7" stroke="#11283C" stroke-miterlimit="10"/>
<path d="M113.7 53.2H166.7" stroke="#11283C" stroke-miterlimit="10"/>
<path d="M113.7 64.5999H166.7" stroke="#11283C" stroke-miterlimit="10"/>
<path d="M113.7 76H166.7" stroke="#11283C" stroke-miterlimit="10"/>
<path d="M113.7 87.3999H166.7" stroke="#11283C" stroke-miterlimit="10"/>
<path d="M273.4 53.9V135.7H167.6V54.2L273.4 54M274.6 52.7L166.3 52.9V137H274.6V52.7Z" fill="#618AA6"/>
<path d="M274.6 41.8999H166.3V54.3999H274.6V41.8999Z" fill="#8BB52D"/>
<path d="M269.053 44.5494L263.467 50.1355L264.81 51.479L270.396 45.8929L269.053 44.5494Z" fill="#11283C"/>
<path d="M264.81 44.5493L263.467 45.8928L269.053 51.479L270.396 50.1355L264.81 44.5493Z" fill="#11283C"/>
<path d="M255.5 45.7999V50.7999H249.9V45.7999H255.5ZM256.4 44.8999H249V51.5999H256.4V44.8999Z" fill="#11283C"/>
<path d="M241.9 50.0999H234.5V51.5999H241.9V50.0999Z" fill="#11283C"/>
<path d="M213.4 76.8C213.4 80.7 216.6 83.9 220.5 83.9C224.4 83.9 227.6 80.7 227.6 76.8C227.6 72.9 224.4 68.3 222.3 64.8C220.2 61.3 219.6 63.5 218.8 64.8C216.7 68.3 213.5 74.1 213.5 76.8H213.4Z" stroke="#ADCB53" stroke-width="1.2" stroke-linecap="round" stroke-linejoin="round"/>
<path d="M220.5 73.0999V87.4999" stroke="#ADCB53" stroke-width="1.2" stroke-linecap="round" stroke-linejoin="round"/>
<path d="M218.7 73.1999C218.7 72.1999 219.5 71.3999 220.5 71.3999C221.5 71.3999 222.3 72.1999 222.3 73.1999C222.3 74.1999 221.5 74.9999 220.5 74.9999C219.5 74.9999 218.7 74.1999 218.7 73.1999Z" fill="#ADCB53"/>
<path d="M208.3 73L201.6 77.9L208.3 82.9" stroke="#ADCB53" stroke-width="1.2" stroke-linecap="round" stroke-linejoin="round"/>
<path d="M232.7 73L239.4 77.9L232.7 82.9" stroke="#ADCB53" stroke-width="1.2" stroke-linecap="round" stroke-linejoin="round"/>
<path d="M176.7 96.3999H264.2" stroke="#ADCB53" stroke-width="1.5" stroke-linecap="round" stroke-linejoin="round"/>
<path d="M234.5 106.4H264.2" stroke="#ADCB53" stroke-width="1.5" stroke-linecap="round" stroke-linejoin="round"/>
<path d="M176.7 106.4H217.4" stroke="#ADCB53" stroke-width="1.5" stroke-linecap="round" stroke-linejoin="round"/>
<path d="M176.7 116.4H264.2" stroke="#ADCB53" stroke-width="1.5" stroke-linecap="round" stroke-linejoin="round"/>
<path d="M168.9 121.5C162.1 121.5 155.8 123.2 150.3 126.2H150C143.3 128 134.6 129.1 125.1 129.1C115.6 129.1 106.8 128 100.1 126.2H99.8C94.3 123.2 88 121.5 81.2 121.5C59.8 121.5 42.5 138.8 42.5 160.2V162.2C42.5 162.2 44.1 191.9 46.8 203.7C52.2 231.9 88.6 246 125 245.9C161.4 245.9 197.9 231.9 203.2 203.7C205.9 191.9 207.5 178.7 207.5 164.1V160.2C207.5 138.8 190.2 121.5 168.8 121.5H168.9Z" fill="#8BB52D"/>
<path d="M27.5 241.9C34.3 253.3 42.4 263.8 52.4 272C63.4 281.1 78.9 286.6 91.5 293.1C116.2 305.9 142.4 310.4 169.8 305.5C198.5 300.4 220.2 288 245.4 274.8C261.7 266.3 272 255.1 279.6 241.8H27.5V241.9Z" fill="#0D4B76"/>
<path d="M176.5 205.6C176 203.3 175 201.5 173.6 200.1C169.6 194.5 162.5 190.7 154.3 190.2H152.6C148.6 190.2 144.6 190.7 140.8 191.5C136.5 192.5 130.9 196.7 124.9 196.7C118.9 196.7 113.3 192.5 109.1 191.5C105.2 190.6 101.3 190.2 97.3 190.2H95.6C87.4 190.7 80.3 194.5 76.3 200.1C75.2 201.2 74.4 202.6 73.8 204.3C73.2 206 72.9 208 72.9 210.3V211.3C72.9 218.9 73.9 225.8 75.6 232C82.4 261.4 100.4 269.8 123.6 270.3H126.4C149.5 269.8 167.6 261.4 174.4 232C176.1 225.8 177 218.9 177.1 211.3V210.3C177.1 208.6 176.9 207 176.6 205.6H176.5Z" fill="#EAF1D4"/>
<path d="M125 197.5C123.3 197.5 121.7 197.2 120.1 196.7L103.5 191.3C102.9 191.1 102.5 190.4 102.7 189.8C102.9 189.2 103.6 188.8 104.2 189L120.8 194.4C123.5 195.3 126.4 195.3 129.2 194.4L145.8 189C146.4 188.8 147.1 189.1 147.3 189.8C147.5 190.4 147.2 191.1 146.5 191.3L129.9 196.7C128.3 197.2 126.6 197.5 125 197.5Z" fill="#3C3C3B"/>
<path d="M135.9 177.4L131.6 173.2L137.2 175.4C139 176.2 137.4 178.8 135.9 177.5V177.4Z" fill="#3C3C3B"/>
<path d="M112.8 175.3L118.4 173.1L114.1 177.3C112.6 178.6 111 176 112.8 175.2V175.3Z" fill="#3C3C3B"/>
<path d="M145.5 163.4L144.6 163.1C131.6 158.6 117.4 158.7 104.4 163.4L102.1 157.1C116.4 152 132.3 151.9 146.7 156.8L147.6 157.1L145.4 163.4H145.5Z" fill="#1A3C5B"/>
<path d="M79 186.4C94.2983 186.4 106.7 173.998 106.7 158.7C106.7 143.402 94.2983 131 79 131C63.7017 131 51.3 143.402 51.3 158.7C51.3 173.998 63.7017 186.4 79 186.4Z" fill="white"/>
<path d="M79 189.7C61.9 189.7 48 175.8 48 158.7C48 141.6 61.9 127.7 79 127.7C96.1 127.7 110 141.6 110 158.7C110 175.8 96.1 189.7 79 189.7ZM79 134.4C65.6 134.4 54.7 145.3 54.7 158.7C54.7 172.1 65.6 183 79 183C92.4 183 103.3 172.1 103.3 158.7C103.3 145.3 92.4 134.4 79 134.4Z" fill="#1A3C5B"/>
<path d="M171 186.4C186.298 186.4 198.7 173.998 198.7 158.7C198.7 143.402 186.298 131 171 131C155.702 131 143.3 143.402 143.3 158.7C143.3 173.998 155.702 186.4 171 186.4Z" fill="white"/>
<path d="M171 189.7C153.9 189.7 140 175.8 140 158.7C140 141.6 153.9 127.7 171 127.7C188.1 127.7 202 141.6 202 158.7C202 175.8 188.1 189.7 171 189.7ZM171 134.4C157.6 134.4 146.7 145.3 146.7 158.7C146.7 172.1 157.6 183 171 183C184.4 183 195.3 172.1 195.3 158.7C195.3 145.3 184.4 134.4 171 134.4Z" fill="#1A3C5B"/>
<path d="M85.3 169C90.9885 169 95.6 164.388 95.6 158.7C95.6 153.011 90.9885 148.4 85.3 148.4C79.6115 148.4 75 153.011 75 158.7C75 164.388 79.6115 169 85.3 169Z" fill="#060300"/>
<path d="M177.2 169C182.889 169 187.5 164.388 187.5 158.7C187.5 153.011 182.889 148.4 177.2 148.4C171.511 148.4 166.9 153.011 166.9 158.7C166.9 164.388 171.511 169 177.2 169Z" fill="#060300"/>
<path d="M77.7 164.9C80.2405 164.9 82.3 162.84 82.3 160.3C82.3 157.759 80.2405 155.7 77.7 155.7C75.1595 155.7 73.1 157.759 73.1 160.3C73.1 162.84 75.1595 164.9 77.7 164.9Z" fill="white"/>
<path d="M167.4 164.9C169.94 164.9 172 162.84 172 160.3C172 157.759 169.94 155.7 167.4 155.7C164.859 155.7 162.8 157.759 162.8 160.3C162.8 162.84 164.859 164.9 167.4 164.9Z" fill="white"/>
<path d="M124.9 148.5C127.882 148.5 130.3 147.873 130.3 147.1C130.3 146.327 127.882 145.7 124.9 145.7C121.918 145.7 119.5 146.327 119.5 147.1C119.5 147.873 121.918 148.5 124.9 148.5Z" fill="#EAF1D4"/>
<path d="M116 141.8C118.982 141.8 121.4 141.173 121.4 140.4C121.4 139.627 118.982 139 116 139C113.018 139 110.6 139.627 110.6 140.4C110.6 141.173 113.018 141.8 116 141.8Z" fill="#EAF1D4"/>
<path d="M132.1 141.8C135.082 141.8 137.5 141.173 137.5 140.4C137.5 139.627 135.082 139 132.1 139C129.118 139 126.7 139.627 126.7 140.4C126.7 141.173 129.118 141.8 132.1 141.8Z" fill="#EAF1D4"/>
<path d="M166.3 248.9C160.8 248.9 155.7 245.3 154 239.8C151.9 233 155.8 225.9 162.5 223.8C174.1 220.3 182.4 210.4 183.7 204.9C185.3 198 192.3 193.8 199.2 195.4C206.1 197 210.3 204 208.7 210.9C204.9 227 188.6 242.8 170 248.4C168.8 248.8 167.5 249 166.3 249V248.9Z" fill="#A4C94D"/>
<path d="M149.6 238.9C148.5 238.7 147.6 237.8 147.3 236.7C146.9 235.1 147.8 233.4 149.5 233L154.7 231.6C156.3 231.2 158 232.1 158.4 233.8C158.8 235.4 157.9 237.1 156.2 237.5L151 238.9C150.5 239 150 239 149.6 238.9Z" fill="#A4C94D"/>
<path d="M154.5 249.1C153.9 249 153.3 248.7 152.9 248.2C151.8 247 151.9 245 153.1 243.9L157 240.3C158.2 239.2 160.2 239.3 161.3 240.5C162.4 241.7 162.3 243.7 161.1 244.8L157.2 248.4C156.4 249.1 155.4 249.3 154.5 249.1Z" fill="#A4C94D"/>
<path d="M165 255H164.9C163.3 254.6 162.3 252.9 162.7 251.3L164.1 246.1C164.5 244.5 166.2 243.5 167.8 243.9C169.4 244.3 170.4 246 170 247.6L168.6 252.8C168.2 254.4 166.6 255.4 165 255Z" fill="#A4C94D"/>
<path d="M83.7 248.9C82.5 248.9 81.2 248.7 80 248.3C61.5 242.6 45.2 226.9 41.4 210.8C39.8 203.9 44 197 50.9 195.4C57.8 193.8 64.7 198 66.3 204.9C67.6 210.4 75.9 220.3 87.4 223.8C94.2 225.9 98 233 95.9 239.8C94.2 245.3 89.1 248.9 83.6 248.9H83.7Z" fill="#A4C94D"/>
<path d="M100.1 239.4C99.6 239.5 99.2 239.6 98.7 239.4L93.5 238.4C91.8 238.1 90.8 236.5 91.1 234.8C91.4 233.1 93 232.1 94.7 232.4L99.9 233.4C101.6 233.7 102.6 235.3 102.3 237C102.1 238.2 101.2 239 100.1 239.3V239.4Z" fill="#A4C94D"/>
<path d="M95.9 249.9C95 250.2 93.9 249.9 93.1 249.3L88.9 246C87.6 244.9 87.4 243 88.4 241.7C89.5 240.4 91.4 240.2 92.7 241.2L96.9 244.5C98.2 245.6 98.4 247.5 97.4 248.8C97 249.3 96.4 249.7 95.9 249.8V249.9Z" fill="#A4C94D"/>
<path d="M85.8 256.4C84.2 256.9 82.6 256 82.1 254.4L80.4 249.3C79.9 247.7 80.7 246 82.3 245.4C83.9 244.9 85.6 245.7 86.2 247.3L87.9 252.4C88.4 254 87.6 255.7 86 256.3H85.8V256.4Z" fill="#A4C94D"/>
<path d="M159.1 281.1H90.9C84.4 281.1 79.1 275.8 79.1 269.3V230.3C79.1 223.8 84.4 218.5 90.9 218.5H159.1C165.6 218.5 170.9 223.8 170.9 230.3V269.3C170.9 275.8 165.6 281.1 159.1 281.1Z" fill="#11283C"/>
<g opacity="0.2">
<path d="M170.9 267.7L138.5 218.4H134.7L170.9 272.4V267.7Z" fill="#060300"/>
</g>
<g opacity="0.2">
<path d="M147.2 218.4L170.9 254.4V243.1L154.7 218.4H147.2Z" fill="#060300"/>
</g>
<path d="M117.8 260.8H113C111.7 260.8 110.7 259.8 110.7 258.5V249.6L109.6 247.8V247.2L110.7 245.4V236.5C110.7 235.2 111.7 234.2 113 234.2H117.8V235.4H113C112.4 235.4 111.8 235.9 111.8 236.6V246L110.8 247.6L111.8 249.2V258.6C111.8 259.2 112.3 259.8 113 259.8H117.8V261V260.8Z" fill="#A4C94D"/>
<path d="M137 260.8H132.2V259.6H137C137.6 259.6 138.2 259.1 138.2 258.4V249L139.2 247.4L138.2 245.8V236.4C138.2 235.8 137.7 235.2 137 235.2H132.2V234H137C138.3 234 139.3 235 139.3 236.3V245.2L140.4 247C140.5 247.2 140.5 247.4 140.4 247.6L139.3 249.4V258.3C139.3 259.6 138.3 260.6 137 260.6V260.8Z" fill="#A4C94D"/>
<path d="M133.6 248.5C132.6 248.5 131.8 249.1 131.7 250.1C131.7 250.7 131.9 251.2 132.2 251.5C131.1 254.1 128.6 256 125.8 256.3V248.9C127.8 248.7 129.5 247.5 130.6 245.9C131.4 245.9 132.2 245.3 132.3 244.4C132.4 243.5 131.8 242.6 130.8 242.4C129.9 242.3 129 242.9 128.8 243.9C128.8 244.4 128.8 244.9 129.2 245.2C128.4 246.3 127.2 247.1 125.8 247.4V240.2C126.4 239.9 126.8 239.3 126.8 238.7C126.8 238.1 126 237 125.1 237C124.2 237 123.4 237.8 123.4 238.7C123.4 239.6 123.8 240 124.4 240.3V247.5C123 247.3 121.8 246.5 121 245.3C121.3 244.9 121.4 244.5 121.4 244C121.4 243.1 120.4 242.4 119.4 242.5C118.5 242.6 117.8 243.5 117.9 244.5C117.9 245.3 118.8 246 119.6 246C120.6 247.7 122.4 248.8 124.4 249V256.4C121.5 256.1 119 254.2 117.9 251.6C118.3 251.2 118.5 250.7 118.4 250.2C118.4 249.2 117.4 248.6 116.5 248.6C115.6 248.6 114.9 249.6 114.9 250.5C114.9 251.4 115.6 251.9 116.3 252C117.6 255.3 120.7 257.6 124.2 257.9V265.4H125.7V257.9C129.3 257.6 132.3 255.3 133.6 252C134.4 251.9 135 251.3 135 250.5C135 249.7 134.4 248.7 133.4 248.6H133.6V248.5Z" fill="white"/>
<path d="M238.5 221.1C238 221.1 237.5 220.7 237.5 220.1V197.7C237.5 197.2 237.9 196.7 238.5 196.7C239.1 196.7 239.5 197.1 239.5 197.7V220.1C239.5 220.6 239.1 221.1 238.5 221.1Z" fill="#A6C453"/>
<path d="M242.2 197.9C242.2 195.9 240.6 194.3 238.6 194.3C236.6 194.3 235 195.9 235 197.9C235 199.9 236.6 201.5 238.6 201.5C240.6 201.5 242.2 199.9 242.2 197.9Z" fill="#A6C453"/>
<path d="M248.7 221.5C248.2 221.5 247.7 221.1 247.7 220.5V183.3C247.7 182.8 248.1 182.3 248.7 182.3C249.3 182.3 249.7 182.7 249.7 183.3V220.5C249.7 221 249.3 221.5 248.7 221.5Z" fill="#A6C453"/>
<path d="M262.3 167.1C262.5 166.9 262.8 166.7 263 166.4C264 165.2 263.9 163.4 262.8 162.3L260.5 160C254 153.5 243.3 153.5 236.8 160L234.5 162.3C233.4 163.4 233.3 165.2 234.3 166.4C234.5 166.7 234.7 166.9 234.9 167.2C236.5 169.4 239 170.4 240.9 172.3C243.5 174.8 244.6 178.7 247.9 180.5C251.9 182.7 254.2 179.6 256.1 176.2C257.3 174 258.3 171.6 259.7 169.5C260.4 168.5 261.4 167.9 262.3 167.1Z" fill="#A4C94D"/>
<path d="M249.2 185.1C246.4 184.3 243.5 184 240.5 184C237.5 184 235.1 184.8 232.4 184.8H231.6C230.4 184.8 229.3 184 229.1 182.8L228.7 180.3C227.6 173.2 232.5 166.5 239.6 165.4L242.1 165C243.3 164.8 244.5 165.6 244.8 166.8C245.1 168 244.9 167.3 245 167.5C246 170.3 247.1 173.1 247.9 176C248.7 178.9 249 181.8 249.3 184.8" fill="white"/>
<path d="M249 185.1C250.1 185.1 251.4 184.3 252.5 184.1C253.9 183.8 255.2 183.6 256.6 183.5C258.9 183.5 261.3 183.7 263.5 184.5C265.2 185 267.6 185.1 268 182.8L268.4 180.3C269.5 173.2 264.6 166.5 257.5 165.4L255 165C253.8 164.8 252.6 165.6 252.3 166.8C252.3 167 252.2 167.3 252.1 167.5L248.5 177.9C248.1 179 247.8 180.1 247.6 181.2C247.5 182.3 247.6 183.5 248.1 184.6C248.1 184.8 248.3 185 248.5 185.1C248.7 185.2 248.8 185.1 249 185.1Z" fill="white"/>
<path d="M252.2 184.7C252.2 182.8 250.6 183 248.7 183C246.8 183 245.2 182.8 245.2 184.7C245.2 186.6 246.8 189.9 248.7 189.9C250.6 189.9 252.2 186.6 252.2 184.7Z" fill="#A4C94D"/>
<path d="M244.9 237.4C254.454 237.4 262.2 232.251 262.2 225.9C262.2 219.549 254.454 214.4 244.9 214.4C235.345 214.4 227.6 219.549 227.6 225.9C227.6 232.251 235.345 237.4 244.9 237.4Z" fill="#A4C94D"/>
<path d="M224.3 220.9H267.1V230.8C267.1 237.2 261.9 242.3 255.6 242.3H235.8C229.4 242.3 224.3 237.1 224.3 230.8V220.9Z" fill="white"/>
</svg>
