<svg width="403" height="431" viewBox="0 0 403 431" fill="none" xmlns="http://www.w3.org/2000/svg">
<path d="M393.005 284.016C398.746 266.181 403.384 247.643 402.427 228.945C401.125 203.736 389.829 180.254 378.281 157.808C357.018 116.492 325.257 84.6115 292.951 51.4418C266.811 24.5977 215.103 22.4182 180.166 24.9033C175.953 25.209 171.714 25.5146 167.488 25.9C154.478 27.1093 141.534 29.116 129.601 34.2589C110.451 42.5115 94.7965 60.2791 79.3545 73.8739C62.6367 88.585 48.7894 102.897 37.2677 122.18C24.231 144.027 1.53311 175.456 0.563001 201.689C-0.672892 234.713 -0.832361 259.962 10.5166 291.125C22.5964 324.308 39.6597 360.495 67.6467 383.472C82.318 395.512 102.81 402.861 119.621 411.552C152.418 428.495 187.223 434.529 223.701 428.057C261.894 421.279 290.626 404.801 324.221 387.259C367.357 364.734 378.773 328.189 393.005 284.016Z" fill="#1A3C5B"/>
<mask id="mask0_75_1115" style="mask-type:alpha" maskUnits="userSpaceOnUse" x="0" y="24" width="403" height="407">
<path d="M393.005 284.016C398.746 266.182 403.384 247.643 402.427 228.945C401.125 203.736 389.829 180.254 378.28 157.808C357.018 116.492 325.257 84.6117 292.951 51.4419C266.811 24.5978 215.103 22.4184 180.166 24.9034C175.953 25.2091 171.714 25.5147 167.488 25.9001C154.478 27.1094 141.534 29.1161 129.6 34.259C110.451 42.5116 94.796 60.2792 79.354 73.874C62.6362 88.5851 48.7889 102.898 37.2672 122.18C24.2305 144.028 1.53262 175.456 0.562513 201.689C-0.67338 234.713 -0.83285 259.962 10.5161 291.125C22.596 324.308 39.6592 360.495 67.6462 383.472C82.3175 395.512 102.809 402.861 119.62 411.552C152.418 428.495 187.222 434.529 223.701 428.057C261.894 421.279 290.625 404.801 324.22 387.259C367.357 364.734 378.772 328.189 393.005 284.016Z" fill="#1A3C5B"/>
</mask>
<g mask="url(#mask0_75_1115)">
<path d="M199.58 449.121C153.387 449.121 115.605 411.327 115.605 365.147V348.23C115.605 324.96 134.636 305.93 157.905 305.93H194.503H241.255C264.524 305.93 283.554 324.96 283.554 348.23V365.147C283.554 411.34 245.773 449.121 199.58 449.121Z" fill="#AECC53"/>
<path d="M266.252 416.615C266.132 416.615 266.013 416.576 265.906 416.496C250.677 404.549 225.826 397.413 199.434 397.413C173.161 397.413 148.377 404.496 133.147 416.35C132.908 416.536 132.563 416.496 132.363 416.257C132.177 416.017 132.217 415.659 132.456 415.473C147.885 403.473 172.922 396.296 199.434 396.296C226.079 396.296 251.182 403.526 266.597 415.619C266.837 415.805 266.876 416.164 266.69 416.403C266.584 416.536 266.411 416.615 266.252 416.615Z" fill="#11283C"/>
<path d="M199.434 342.343C169.626 342.343 142.078 333.346 127.539 318.847C127.327 318.635 127.327 318.276 127.539 318.063C127.752 317.851 128.111 317.851 128.323 318.063C142.662 332.349 169.905 341.226 199.434 341.226C229.095 341.226 256.404 332.296 270.69 317.904C270.903 317.691 271.262 317.691 271.474 317.904C271.687 318.116 271.7 318.475 271.474 318.688C256.976 333.279 229.374 342.343 199.434 342.343Z" fill="#11283C"/>
<path d="M164.671 467.474C155.488 467.474 147.979 459.965 147.979 450.782V435.208C147.979 431.54 150.983 428.536 154.651 428.536H174.677C178.345 428.536 181.349 431.54 181.349 435.208V450.782C181.349 459.965 173.84 467.474 164.671 467.474Z" fill="#AECC53"/>
<path d="M233.509 467.474C224.326 467.474 216.817 459.965 216.817 450.782V435.208C216.817 431.54 219.821 428.536 223.489 428.536H243.515C247.183 428.536 250.186 431.54 250.186 435.208V450.782C250.186 459.965 242.678 467.474 233.509 467.474Z" fill="#AECC53"/>
<path d="M209.707 401.307H189.468C162.81 401.307 141.188 379.699 141.188 353.027C141.188 339.14 152.444 327.897 166.318 327.897H182.584H232.844C246.731 327.897 257.974 339.153 257.974 353.027C257.974 379.699 236.365 401.307 209.707 401.307Z" fill="white"/>
<path d="M209.707 402.981H189.468C161.932 402.981 139.527 380.576 139.527 353.041C139.527 338.263 151.554 326.236 166.331 326.236H232.857C247.634 326.236 259.661 338.263 259.661 353.041C259.648 380.576 237.242 402.981 209.707 402.981ZM166.318 329.572C153.374 329.572 142.849 340.097 142.849 353.041C142.849 378.742 163.753 399.646 189.454 399.646H209.694C235.395 399.646 256.299 378.742 256.299 353.041C256.299 340.097 245.774 329.572 232.83 329.572H166.318Z" fill="#1A3C5B"/>
<path d="M169.548 368.894C175.074 368.894 179.555 364.414 179.555 358.887C179.555 353.36 175.074 348.88 169.548 348.88C164.021 348.88 159.541 353.36 159.541 358.887C159.541 364.414 164.021 368.894 169.548 368.894Z" fill="#1A3C5B"/>
<path d="M229.613 369.053C235.14 369.053 239.62 364.573 239.62 359.047C239.62 353.52 235.14 349.04 229.613 349.04C224.087 349.04 219.606 353.52 219.606 359.047C219.606 364.573 224.087 369.053 229.613 369.053Z" fill="#1A3C5B"/>
<path d="M259.701 311.206H228.698C225.335 311.206 222.571 308.455 222.571 305.08C222.571 303.791 222.983 302.582 223.661 301.598C224.764 300.004 226.611 298.967 228.684 298.967H259.701C263.063 298.967 265.828 301.718 265.828 305.093C265.828 308.442 263.077 311.206 259.701 311.206Z" fill="#AECC53"/>
<path d="M244.193 286.714C242.837 286.714 241.748 285.611 241.748 284.269V256.521C241.748 255.166 242.837 254.076 244.193 254.076C245.548 254.076 246.638 255.179 246.638 256.521V284.269C246.651 285.625 245.548 286.714 244.193 286.714Z" fill="white"/>
<path d="M244.193 260.601C247.576 260.601 250.319 257.858 250.319 254.475C250.319 251.091 247.576 248.348 244.193 248.348C240.809 248.348 238.066 251.091 238.066 254.475C238.066 257.858 240.809 260.601 244.193 260.601Z" fill="#AECC53"/>
<path d="M244.193 304.668C240.592 304.668 237.668 301.744 237.668 298.143V286.475V276.92C237.668 273.318 240.592 270.395 244.193 270.395C247.794 270.395 250.718 273.318 250.718 276.92V298.143C250.731 301.744 247.808 304.668 244.193 304.668Z" fill="#AECC53"/>
<path d="M89.5864 506.409C86.0515 506.409 83.1943 503.552 83.1943 500.017V372.654C83.1943 359.923 93.5466 349.571 106.278 349.571C109.813 349.571 112.67 352.428 112.67 355.963C112.67 359.498 109.813 362.355 106.278 362.355C100.603 362.355 95.9918 366.966 95.9918 372.641V500.004C95.9785 503.539 93.1213 506.409 89.5864 506.409Z" fill="white"/>
<path d="M116.006 376.827C110.504 376.827 105.999 372.322 105.999 366.821V345.691C105.999 342.993 107.075 340.535 108.83 338.727C110.65 336.854 113.202 335.671 116.006 335.671C121.507 335.671 126.013 340.176 126.013 345.678V366.807C126.013 372.322 121.507 376.827 116.006 376.827Z" fill="#AECC53"/>
<path d="M309.828 506.41C306.293 506.41 303.436 503.553 303.436 500.018V372.654C303.436 366.98 298.824 362.369 293.15 362.369C289.615 362.369 286.758 359.511 286.758 355.976C286.758 352.442 289.615 349.584 293.15 349.584C305.881 349.584 316.233 359.937 316.233 372.668V500.031C316.22 503.539 313.363 506.41 309.828 506.41Z" fill="white"/>
<path d="M283.41 376.827C288.911 376.827 293.416 372.322 293.416 366.821V345.691C293.416 342.315 291.715 339.312 289.137 337.491C287.516 336.349 285.536 335.671 283.41 335.671C277.908 335.671 273.403 340.176 273.403 345.678V366.807C273.403 372.322 277.908 376.827 283.41 376.827Z" fill="#AECC53"/>
<path d="M116.165 377.373C115.992 377.373 115.819 377.293 115.713 377.147C115.54 376.907 115.593 376.562 115.846 376.389C120.417 373.16 122.291 367.326 122.291 356.256C122.291 345.492 121.959 338.276 117.48 336.176C117.201 336.043 117.095 335.724 117.215 335.445C117.347 335.166 117.666 335.06 117.946 335.18C123.022 337.572 123.381 344.734 123.381 356.256C123.381 367.725 121.374 373.811 116.47 377.28C116.377 377.346 116.271 377.373 116.165 377.373Z" fill="#11283C"/>
<path d="M283.011 377.372C282.905 377.372 282.798 377.346 282.692 377.266C277.788 373.798 275.782 367.711 275.782 356.243C275.782 344.721 276.154 337.558 281.217 335.166C281.496 335.033 281.815 335.153 281.948 335.432C282.081 335.711 281.961 336.03 281.682 336.163C277.204 338.276 276.871 345.478 276.871 356.243C276.871 367.312 278.732 373.146 283.317 376.376C283.569 376.548 283.622 376.894 283.45 377.133C283.343 377.293 283.171 377.372 283.011 377.372Z" fill="#11283C"/>
<path d="M169.295 358.077C171.864 358.077 173.946 355.994 173.946 353.425C173.946 350.857 171.864 348.774 169.295 348.774C166.726 348.774 164.644 350.857 164.644 353.425C164.644 355.994 166.726 358.077 169.295 358.077Z" fill="white"/>
<path d="M229.096 358.077C231.665 358.077 233.747 355.994 233.747 353.425C233.747 350.857 231.665 348.774 229.096 348.774C226.527 348.774 224.445 350.857 224.445 353.425C224.445 355.994 226.527 358.077 229.096 358.077Z" fill="white"/>
<path d="M199.581 384.721C194.784 384.721 190.877 381.718 190.877 378.01C190.877 374.303 194.784 371.299 199.581 371.299C204.379 371.299 208.286 374.303 208.286 378.01C208.286 381.718 204.379 384.721 199.581 384.721ZM199.581 374.09C196.379 374.09 193.668 375.884 193.668 378.01C193.668 380.137 196.379 381.931 199.581 381.931C202.784 381.931 205.495 380.137 205.495 378.01C205.495 375.884 202.797 374.09 199.581 374.09Z" fill="#1A3C5B"/>
</g>
<path d="M194.545 284.985C167.129 284.985 144.71 262.567 144.71 235.151V216.546C144.71 189.144 167.129 166.712 194.545 166.712C221.947 166.712 244.379 189.131 244.379 216.546V235.151C244.379 262.567 221.96 284.985 194.545 284.985Z" fill="#11283C"/>
<path d="M194.544 286.314C185.627 286.314 176.843 283.962 169.122 279.51C168.484 279.138 168.272 278.328 168.63 277.69C169.002 277.052 169.813 276.839 170.451 277.198C177.773 281.424 186.106 283.657 194.544 283.657C202.983 283.657 211.328 281.424 218.637 277.198C219.275 276.826 220.086 277.052 220.458 277.69C220.83 278.328 220.604 279.138 219.966 279.51C212.245 283.962 203.461 286.314 194.544 286.314Z" fill="#ADCB53"/>
<path d="M153.162 190.194C152.909 190.194 152.643 190.127 152.418 189.968C151.806 189.556 151.647 188.732 152.059 188.121C161.64 173.888 177.521 165.383 194.544 165.383C211.501 165.383 227.355 173.835 236.937 187.988C237.349 188.599 237.189 189.423 236.578 189.835C235.967 190.247 235.143 190.088 234.731 189.476C225.654 176.054 210.624 168.041 194.544 168.041C178.398 168.041 163.341 176.107 154.265 189.609C154.012 189.981 153.587 190.194 153.162 190.194Z" fill="#ADCB53"/>
<path d="M94.1319 393.638C93.0289 393.638 92.1385 392.747 92.1385 391.644C92.1385 380.933 92.4043 369.943 92.6568 359.312C93.2283 335.258 93.8263 310.394 91.4608 286.527C89.1618 263.258 84.4176 239.271 65.5469 221.437C64.1914 220.161 62.7961 218.898 61.3874 217.649C56.311 213.104 51.0484 208.413 47.7527 202.181C37.7194 183.19 37.9055 158.911 38.0915 135.416C38.158 126.392 38.2244 117.861 37.7327 109.741C37.6663 108.638 38.5035 107.695 39.5932 107.628C40.6696 107.575 41.6397 108.399 41.7062 109.489C42.2112 117.741 42.1447 126.339 42.0783 135.429C41.9055 158.419 41.7194 182.207 51.2877 200.294C54.2511 205.888 59.0087 210.141 64.0453 214.646C65.4805 215.922 66.9024 217.197 68.2845 218.513C88.1119 237.251 93.0555 262.075 95.4343 286.115C97.8263 310.235 97.2283 335.218 96.6436 359.391C96.3911 369.996 96.1253 380.973 96.1253 391.631C96.1253 392.734 95.2349 393.638 94.1319 393.638Z" fill="#ADCB53"/>
<path d="M43.6091 116.348C47.1189 114.153 48.185 109.529 45.9902 106.019C43.7955 102.509 39.1711 101.443 35.6612 103.638C32.1514 105.833 31.0853 110.457 33.2801 113.967C35.4748 117.477 40.0992 118.543 43.6091 116.348Z" fill="#ADCB53"/>
<path d="M90.9162 210.367C90.0258 210.367 89.1354 210.313 88.245 210.22C81.8662 209.529 76.3645 206.38 72.7499 201.343C66.2116 192.24 64.298 180.665 63.0089 170.539C61.3743 157.608 60.5903 144.625 60.6169 130.857C60.6169 129.754 61.5072 128.864 62.6102 128.864C63.7132 128.864 64.6036 129.768 64.6036 130.857C64.5637 144.452 65.3345 157.263 66.9558 170.034C68.1784 179.682 69.9857 190.672 75.9791 199.018C78.916 203.111 83.4211 205.675 88.657 206.247C94.3846 206.871 100.338 204.971 104.591 201.157C114.504 192.253 114.717 177.967 114.916 165.356C115.262 142.818 106.93 122.751 91.461 108.851C79.9659 98.5249 80.936 75.0429 81.7068 56.1856C81.7732 54.5377 81.8397 52.9164 81.8928 51.3616C81.9327 50.2586 82.8629 49.3815 83.9526 49.4347C85.0556 49.4745 85.9194 50.3915 85.8796 51.4945C85.8264 53.0626 85.76 54.6839 85.6935 56.345C84.9493 74.3784 84.0324 96.8106 94.1321 105.887C110.478 120.572 119.275 141.715 118.916 165.423C118.704 178.845 118.478 194.061 107.275 204.134C102.77 208.174 96.9362 210.367 90.9162 210.367Z" fill="#ADCB53"/>
<path d="M65.385 136.506C68.3356 135.005 69.5112 131.397 68.0108 128.446C66.5103 125.496 62.902 124.32 59.9514 125.821C57.0008 127.321 55.8252 130.929 57.3257 133.88C58.8262 136.83 62.4345 138.006 65.385 136.506Z" fill="#ADCB53"/>
<path d="M94.3454 52.1057C94.4252 46.3117 89.7873 41.5541 83.9932 41.4744C78.1991 41.3947 73.4416 46.0326 73.3619 51.8267C73.2821 57.6207 77.92 62.3783 83.7141 62.458C89.5082 62.5244 94.2657 57.8998 94.3454 52.1057Z" fill="#ADCB53"/>
<path d="M94.8488 346.86C93.892 346.86 93.0415 346.155 92.882 345.185C89.8255 326.129 87.2474 315.059 69.6791 309.052C68.5761 308.68 67.4598 308.321 66.3435 307.976C63.4598 307.072 60.483 306.142 57.679 304.72C37.7452 294.62 37.3067 275.417 36.8947 256.839L36.8814 256.334C36.8549 255.231 37.732 254.327 38.835 254.301C38.8482 254.301 38.8615 254.301 38.8748 254.301C39.9512 254.301 40.8416 255.165 40.8682 256.254L40.8815 256.759C41.2935 274.965 41.6788 292.148 59.4863 301.172C61.998 302.447 64.6957 303.285 67.5396 304.175C68.6824 304.534 69.8386 304.893 70.9682 305.278C91.6594 312.348 94.0515 327.272 96.8156 344.548C96.9884 345.637 96.2442 346.661 95.1677 346.833C95.0481 346.86 94.9418 346.86 94.8488 346.86Z" fill="#ADCB53"/>
<path d="M31.3928 256.892C31.2732 252.759 34.5291 249.303 38.662 249.184C42.7949 249.064 46.2501 252.32 46.3697 256.453C46.4893 260.586 43.2335 264.041 39.1006 264.161C34.9676 264.28 31.5124 261.025 31.3928 256.892Z" fill="#ADCB53"/>
<path d="M151.94 163.283C138.052 163.283 128.112 151.708 125.574 139.907C125.202 138.166 124.856 136.465 124.511 134.778C121.441 119.787 119.022 107.933 105.162 98.6443C104.245 98.033 104.006 96.7971 104.617 95.8802C105.228 94.9632 106.464 94.724 107.381 95.3353C122.597 105.541 125.295 118.724 128.418 133.98C128.763 135.641 129.109 137.342 129.481 139.07C131.833 150.034 141.468 160.798 154.69 159.123C163.74 157.98 173.149 150.206 172.405 131.841C172.365 130.738 173.215 129.807 174.319 129.768C175.422 129.714 176.352 130.578 176.392 131.681C176.923 144.864 171.687 160.997 155.195 163.084C154.079 163.216 153.003 163.283 151.94 163.283Z" fill="#ADCB53"/>
<path d="M305.973 393.637C304.87 393.637 303.98 392.747 303.98 391.644C303.98 380.973 303.714 370.009 303.461 359.404C302.89 335.231 302.292 310.235 304.671 286.128C307.063 262.008 309.521 237.064 329.163 218.526C330.545 217.224 331.98 215.948 333.402 214.659C338.438 210.154 343.209 205.901 346.159 200.307C355.728 182.207 355.542 158.432 355.369 135.442C355.302 126.339 355.236 117.754 355.741 109.502C355.807 108.399 356.764 107.588 357.854 107.641C358.957 107.708 359.794 108.651 359.714 109.754C359.209 117.861 359.276 126.392 359.356 135.429C359.542 158.911 359.728 183.203 349.694 202.194C346.399 208.413 341.149 213.117 336.06 217.662C334.651 218.911 333.256 220.174 331.9 221.45C313.348 238.965 310.956 263.151 308.644 286.54C306.279 310.407 306.877 335.285 307.448 359.325C307.701 369.956 307.966 380.946 307.966 391.657C307.966 392.734 307.076 393.637 305.973 393.637Z" fill="#ADCB53"/>
<path d="M362.826 115.558C365.894 112.78 366.129 108.04 363.35 104.972C360.572 101.904 355.833 101.669 352.764 104.447C349.696 107.226 349.461 111.965 352.24 115.033C355.018 118.101 359.758 118.336 362.826 115.558Z" fill="#ADCB53"/>
<path d="M303.051 212.839C299.569 212.839 296.14 211.749 292.898 209.596C280.858 201.583 278.904 180.639 278.545 163.297C278.054 139.363 286.851 118.034 303.316 103.243C313.376 94.1929 312.486 73.0897 311.755 56.1327C311.689 54.5646 311.622 53.023 311.569 51.5214C311.529 50.4184 312.393 49.5014 313.483 49.4616C314.586 49.4217 315.503 50.2722 315.556 51.3752C315.609 52.8636 315.675 54.4051 315.742 55.9732C316.499 73.7674 317.443 95.9072 305.974 106.22C290.386 120.226 282.067 140.479 282.532 163.23C282.732 172.851 283.25 198.407 295.104 206.3C299.649 209.33 304.233 209.702 309.137 207.47C317.27 203.749 330.998 186.938 333.137 170.074C335.277 153.237 335.024 146.247 334.666 135.682C334.533 131.987 334.4 127.814 334.333 122.632C334.32 121.529 335.197 120.625 336.3 120.612C337.377 120.612 338.307 121.476 338.32 122.579C338.387 127.708 338.533 131.881 338.652 135.549C339.024 146.313 339.264 153.423 337.098 170.579C335.529 182.911 324.513 204.838 310.798 211.098C308.22 212.254 305.615 212.839 303.051 212.839Z" fill="#ADCB53"/>
<path d="M330.4 122.977C330.347 119.668 332.978 116.93 336.287 116.877C339.596 116.824 342.334 119.455 342.387 122.764C342.44 126.073 339.809 128.811 336.5 128.864C333.178 128.917 330.453 126.286 330.4 122.977Z" fill="#ADCB53"/>
<path d="M324.101 51.8137C324.021 46.0197 319.25 41.395 313.456 41.4748C307.662 41.5545 303.037 46.3253 303.117 52.1194C303.197 57.9135 307.968 62.5381 313.762 62.4584C319.543 62.3653 324.181 57.6078 324.101 51.8137Z" fill="#ADCB53"/>
<path d="M305.27 346.859C305.163 346.859 305.057 346.846 304.951 346.833C303.861 346.66 303.117 345.637 303.303 344.547C303.609 342.647 303.874 340.799 304.14 339.019C306.386 323.67 308.153 311.55 326.493 305.278C327.622 304.892 328.778 304.533 329.921 304.175C332.778 303.284 335.463 302.434 337.974 301.171C355.782 292.148 356.167 274.965 356.579 256.759L356.592 256.254C356.619 255.164 357.509 254.3 358.586 254.3C358.599 254.3 358.612 254.3 358.626 254.3C359.729 254.327 360.593 255.244 360.579 256.334L360.566 256.839C360.154 275.417 359.715 294.62 339.782 304.719C336.978 306.141 334.001 307.072 331.117 307.975C330.001 308.321 328.885 308.68 327.782 309.052C311.742 314.54 310.28 324.507 308.074 339.603C307.808 341.411 307.542 343.271 307.237 345.198C307.077 346.168 306.227 346.859 305.27 346.859Z" fill="#ADCB53"/>
<path d="M351.078 256.453C351.198 252.32 354.653 249.064 358.786 249.184C362.919 249.304 366.174 252.759 366.055 256.892C365.935 261.025 362.48 264.281 358.347 264.161C354.214 264.041 350.958 260.586 351.078 256.453Z" fill="#ADCB53"/>
<path d="M196.538 35.149C206.079 35.149 213.814 27.4143 213.814 17.8731C213.814 8.33186 206.079 0.597168 196.538 0.597168C186.996 0.597168 179.262 8.33186 179.262 17.8731C179.262 27.4143 186.996 35.149 196.538 35.149Z" fill="#ADCB53"/>
<path d="M174.61 133.489C173.507 133.489 172.617 132.599 172.617 131.496C172.617 129.542 172.697 127.562 172.79 125.476C173.361 112.293 173.999 97.369 151.607 85.7809C149.972 84.9304 148.271 84.2393 146.464 83.5084C144.218 82.5915 141.906 81.6479 139.713 80.3855C122.278 70.2724 118.836 45.714 117.759 23.0161C117.706 21.9131 118.557 20.9829 119.66 20.9297C120.776 20.8766 121.693 21.7271 121.746 22.8301C122.769 44.4516 125.945 67.7873 141.72 76.9303C143.673 78.0599 145.759 78.9104 147.979 79.814C149.786 80.5449 151.66 81.3024 153.454 82.2459C178.105 94.9903 177.374 111.987 176.79 125.648C176.697 127.695 176.617 129.635 176.617 131.496C176.604 132.599 175.713 133.489 174.61 133.489Z" fill="#ADCB53"/>
<path d="M131.801 24.2947C132.23 17.6885 127.222 11.9853 120.616 11.5563C114.01 11.1273 108.306 16.135 107.877 22.7412C107.448 29.3475 112.456 35.0506 119.062 35.4796C125.668 35.9086 131.372 30.9009 131.801 24.2947Z" fill="#ADCB53"/>
<path d="M218.199 134.818C217.096 134.818 216.206 133.927 216.206 132.824C216.206 130.206 216.126 127.655 216.046 125.196C215.515 108.97 215.063 94.9503 239.648 82.2458C241.442 81.3156 243.316 80.5581 245.123 79.8139C247.342 78.9102 249.429 78.0597 251.382 76.9302C267.156 67.7739 270.332 44.4381 271.356 22.83C271.409 21.727 272.326 20.8765 273.442 20.9296C274.545 20.9828 275.396 21.913 275.342 23.016C274.266 45.7139 270.811 70.2723 253.389 80.3853C251.196 81.6611 248.884 82.6046 246.638 83.5083C244.831 84.2392 243.129 84.9302 241.495 85.7807C219.143 97.3423 219.528 108.97 220.046 125.064C220.126 127.562 220.206 130.14 220.206 132.824C220.192 133.927 219.302 134.818 218.199 134.818Z" fill="#ADCB53"/>
<path d="M261.269 22.9627C261.575 16.3447 267.183 11.2284 273.801 11.534C280.419 11.8397 285.535 17.4477 285.23 24.0657C284.924 30.6837 279.316 35.8 272.698 35.4944C266.067 35.1887 260.964 29.5807 261.269 22.9627Z" fill="#ADCB53"/>
<path d="M146.703 132.16C152.207 132.16 156.67 127.698 156.67 122.193C156.67 116.689 152.207 112.226 146.703 112.226C141.198 112.226 136.736 116.689 136.736 122.193C136.736 127.698 141.198 132.16 146.703 132.16Z" fill="white"/>
<path d="M377.935 237.145C381.972 237.145 385.244 233.872 385.244 229.836C385.244 225.799 381.972 222.527 377.935 222.527C373.898 222.527 370.626 225.799 370.626 229.836C370.626 233.872 373.898 237.145 377.935 237.145Z" fill="white"/>
<path d="M31.0874 225.184C35.124 225.184 38.3964 221.912 38.3964 217.875C38.3964 213.839 35.124 210.566 31.0874 210.566C27.0507 210.566 23.7783 213.839 23.7783 217.875C23.7783 221.912 27.0507 225.184 31.0874 225.184Z" fill="white"/>
<path d="M247.037 134.818C240.445 134.818 235.077 129.449 235.077 122.857C235.077 116.266 240.445 110.897 247.037 110.897C253.628 110.897 258.997 116.266 258.997 122.857C258.997 129.449 253.628 134.818 247.037 134.818ZM247.037 114.884C242.638 114.884 239.063 118.459 239.063 122.857C239.063 127.256 242.638 130.831 247.037 130.831C251.436 130.831 255.01 127.256 255.01 122.857C255.01 118.459 251.436 114.884 247.037 114.884Z" fill="white"/>
<path d="M196.537 134.818C195.434 134.818 194.544 133.927 194.544 132.824V17.873C194.544 16.77 195.434 15.8796 196.537 15.8796C197.64 15.8796 198.531 16.77 198.531 17.873V132.824C198.531 133.927 197.64 134.818 196.537 134.818Z" fill="#ADCB53"/>
<path d="M117.082 263.177C120.524 264.001 123.965 264.825 127.434 265.636C123.049 268.108 118.65 270.593 114.238 273.065" fill="#374151"/>
<path d="M117.082 263.177C120.524 264.001 123.965 264.825 127.434 265.636C123.049 268.108 118.65 270.593 114.238 273.065" fill="#ADCB53"/>
<path d="M104.165 268.374C104.165 283.417 91.9658 295.616 76.9225 295.616C61.8791 295.616 49.6797 283.417 49.6797 268.374C49.6664 267.789 104.165 267.789 104.165 268.374Z" fill="#C8D3DD"/>
<path d="M103.395 275.071C92.7106 284.44 76.4712 283.404 67.0758 272.719C57.6936 262.035 58.7435 245.795 69.4279 236.4C69.8266 236.054 103.807 274.713 103.395 275.071Z" fill="#AECC53"/>
<path d="M103.076 280.201C111.129 280.201 117.667 273.663 117.667 265.61C117.667 257.557 111.129 251.018 103.076 251.018C95.0226 251.018 88.4844 257.557 88.4844 265.61C88.4844 273.676 95.0226 280.201 103.076 280.201Z" fill="white"/>
<path d="M103.076 281.451C94.3451 281.451 87.2354 274.341 87.2354 265.61C87.2354 256.879 94.3451 249.769 103.076 249.769C111.807 249.769 118.917 256.879 118.917 265.61C118.903 274.341 111.807 281.451 103.076 281.451ZM103.076 252.268C95.7138 252.268 89.7337 258.248 89.7337 265.61C89.7337 272.972 95.7271 278.952 103.076 278.952C110.425 278.952 116.418 272.972 116.418 265.61C116.418 258.248 110.438 252.268 103.076 252.268Z" fill="#ADCB53"/>
<path d="M117.361 270.287L124.112 279.005L113.587 275.762L117.361 270.287Z" fill="#ADCB53"/>
<path d="M109.494 264.719H108.165C108.165 263.444 107.115 262.394 105.839 262.394C104.563 262.394 103.513 263.444 103.513 264.719H102.185C102.185 262.7 103.819 261.065 105.839 261.065C107.859 261.065 109.494 262.7 109.494 264.719Z" fill="#11283C"/>
<path d="M70.955 306.248C70.5829 306.248 70.2905 305.955 70.2905 305.583V294.952C70.2905 294.58 70.5829 294.287 70.955 294.287C71.3271 294.287 71.6194 294.58 71.6194 294.952V305.583C71.6194 305.955 71.3271 306.248 70.955 306.248Z" fill="white"/>
<path d="M76.2704 307.577C75.8983 307.577 75.606 307.285 75.606 306.913V296.281C75.606 295.909 75.8983 295.617 76.2704 295.617C76.6425 295.617 76.9349 295.909 76.9349 296.281V306.913C76.9349 307.285 76.6425 307.577 76.2704 307.577Z" fill="white"/>
<path d="M275.994 264.507C272.552 265.331 269.111 266.154 265.642 266.965C270.041 269.437 274.426 271.922 278.838 274.394" fill="#374151"/>
<path d="M275.994 264.507C272.552 265.331 269.111 266.154 265.642 266.965C270.041 269.437 274.426 271.922 278.838 274.394" fill="#ADCB53"/>
<path d="M288.924 269.703C288.924 284.746 301.124 296.946 316.167 296.946C331.21 296.946 343.41 284.746 343.41 269.703C343.41 269.118 288.924 269.118 288.924 269.703Z" fill="#11283C"/>
<path d="M289.696 271.616C298.958 279.749 313.071 278.846 321.218 269.583C329.364 260.321 328.447 246.208 319.184 238.061C318.825 237.742 289.337 271.298 289.696 271.616Z" fill="white"/>
<path d="M292.845 272.865C300.673 284.719 316.633 288.002 328.5 280.174C340.367 272.347 343.637 256.387 335.809 244.52C335.49 244.054 292.54 272.414 292.845 272.865Z" fill="#AECC53"/>
<path d="M290.001 281.53C281.947 281.53 275.409 274.992 275.409 266.938C275.409 258.885 281.947 252.347 290.001 252.347C298.054 252.347 304.592 258.885 304.592 266.938C304.592 275.005 298.067 281.53 290.001 281.53Z" fill="white"/>
<path d="M290.001 282.779C281.27 282.779 274.16 275.67 274.16 266.939C274.16 258.208 281.27 251.098 290.001 251.098C298.732 251.098 305.842 258.208 305.842 266.939C305.842 275.67 298.732 282.779 290.001 282.779ZM290.001 253.596C282.639 253.596 276.659 259.576 276.659 266.939C276.659 274.301 282.652 280.281 290.001 280.281C297.35 280.281 303.343 274.301 303.343 266.939C303.356 259.576 297.363 253.596 290.001 253.596Z" fill="#ADCB53"/>
<path d="M279.489 277.092L268.964 280.335L275.715 271.617L279.489 277.092Z" fill="#ADCB53"/>
<path d="M290.892 266.048H289.563C289.563 264.773 288.513 263.723 287.238 263.723C285.962 263.723 284.912 264.773 284.912 266.048H283.583C283.583 264.028 285.218 262.394 287.238 262.394C289.257 262.394 290.892 264.028 290.892 266.048Z" fill="#11283C"/>
<path d="M322.121 307.577C321.749 307.577 321.457 307.285 321.457 306.913V296.281C321.457 295.909 321.749 295.617 322.121 295.617C322.494 295.617 322.786 295.909 322.786 296.281V306.913C322.786 307.285 322.494 307.577 322.121 307.577Z" fill="white"/>
<path d="M316.805 308.906C316.433 308.906 316.141 308.614 316.141 308.242V297.61C316.141 297.238 316.433 296.946 316.805 296.946C317.177 296.946 317.47 297.238 317.47 297.61V308.242C317.47 308.614 317.177 308.906 316.805 308.906Z" fill="white"/>
<path d="M181.256 270.407C180.857 270.407 180.551 270.088 180.551 269.703V259.071C180.551 258.686 180.87 258.367 181.256 258.367C181.641 258.367 181.96 258.686 181.96 259.071V269.703C181.973 270.088 181.654 270.407 181.256 270.407Z" fill="white"/>
<path d="M186.571 270.407C186.172 270.407 185.867 270.088 185.867 269.703V259.071C185.867 258.686 186.186 258.367 186.571 258.367C186.956 258.367 187.275 258.686 187.275 259.071V269.703C187.289 270.088 186.97 270.407 186.571 270.407Z" fill="white"/>
<path d="M142.411 227.297C138.969 228.121 135.528 228.945 132.059 229.756C136.445 232.227 140.843 234.712 145.255 237.184" fill="#374151"/>
<path d="M142.411 227.297C138.969 228.121 135.528 228.945 132.059 229.756C136.445 232.227 140.843 234.712 145.255 237.184" fill="#ADCB53"/>
<path d="M155.342 232.493C155.342 247.536 167.541 259.736 182.585 259.736C197.628 259.736 209.827 247.536 209.827 232.493C209.827 231.908 155.342 231.908 155.342 232.493Z" fill="#AECC53"/>
<path d="M169.322 232.107C161.322 232.174 155.342 232.293 155.342 232.493C155.342 247.536 167.541 259.735 182.585 259.735C183.528 259.735 184.472 259.682 185.389 259.589C182.332 249.171 177.588 239.483 169.322 232.107Z" fill="white"/>
<path d="M156.113 239.191C166.797 248.559 183.036 247.523 192.432 236.838C201.814 226.154 200.764 209.915 190.08 200.519C189.668 200.174 155.701 238.832 156.113 239.191Z" fill="#1A3C5B"/>
<path d="M156.419 244.32C148.365 244.32 141.827 237.782 141.827 229.729C141.827 221.676 148.365 215.137 156.419 215.137C164.472 215.137 171.01 221.676 171.01 229.729C171.01 237.795 164.485 244.32 156.419 244.32Z" fill="white"/>
<path d="M156.418 245.57C147.687 245.57 140.591 238.46 140.591 229.729C140.591 220.998 147.687 213.888 156.418 213.888C165.149 213.888 172.259 220.998 172.259 229.729C172.259 238.46 165.149 245.57 156.418 245.57ZM156.418 216.387C149.056 216.387 143.076 222.367 143.076 229.729C143.076 237.091 149.056 243.071 156.418 243.071C163.78 243.071 169.761 237.091 169.761 229.729C169.774 222.367 163.78 216.387 156.418 216.387Z" fill="#ADCB53"/>
<path d="M145.92 239.882L135.381 243.124L142.132 234.407L145.92 239.882Z" fill="#ADCB53"/>
<path d="M157.309 228.838H155.98C155.98 227.562 154.93 226.513 153.654 226.513C152.378 226.513 151.328 227.562 151.328 228.838H150C150 226.818 151.634 225.184 153.654 225.184C155.674 225.184 157.309 226.818 157.309 228.838Z" fill="#11283C"/>
<path d="M242.532 164.426C241.11 164.426 239.661 164.306 238.213 164.054C231.847 162.964 226.08 158.712 221.947 152.067C218.359 146.286 216.312 139.083 216.472 132.771C216.498 131.668 217.415 130.818 218.518 130.831C219.621 130.858 220.485 131.774 220.458 132.877C220.179 144.226 227.674 158.207 238.89 160.134C250.611 162.14 262.186 154.233 264.166 142.884C267.475 123.867 270.891 104.213 292.658 95.0831C293.668 94.6578 294.838 95.1362 295.263 96.1462C295.688 97.1562 295.21 98.3256 294.2 98.7509C274.439 107.03 271.223 125.595 268.1 143.562C266 155.629 254.798 164.426 242.532 164.426Z" fill="#ADCB53"/>
</svg>
