<svg width="326" height="306" viewBox="0 0 326 306" fill="none" xmlns="http://www.w3.org/2000/svg">
<path d="M206.2 10.4998C193 5.49984 179.2 1.39984 165.1 1.49984C146.1 1.49984 128 9.29984 110.7 17.1998C78.8 31.6998 53.7 54.4998 27.6 77.6998C6.4 96.2998 3 135.2 3.6 161.5C3.6 164.7 3.8 167.9 3.9 171.1C4.3 180.9 5.4 190.7 8.8 199.9C14.3 214.6 27.2 227 36.8 239.1C47.3 252.2 57.6 263.1 71.7 272.5C87.7 283.1 110.5 301.3 130.3 303C155.1 305.1 174.1 306.1 198 298.7C223.4 290.8 251.3 279.2 269.5 259C279.1 248.4 285.3 233.2 292.5 220.9C306.4 196.8 312.2 170.8 308.6 143.1C304.9 114.1 293.5 91.8998 281.4 65.9998C266 32.6998 238.9 22.7998 206.1 10.5998L206.2 10.4998Z" fill="#1A3C5B"/>
<path d="M158.6 189.8C182.901 189.8 202.6 183.621 202.6 176C202.6 168.378 182.901 162.2 158.6 162.2C134.3 162.2 114.6 168.378 114.6 176C114.6 183.621 134.3 189.8 158.6 189.8Z" fill="#11283C"/>
<g style="mix-blend-mode:multiply" opacity="0.5">
<path d="M158.6 175.2C142.4 175.2 129.3 179.3 129.3 184.4C129.3 189.5 129.6 185.9 130.1 186.6C137.8 188.6 147.7 189.9 158.6 189.9C169.5 189.9 179.4 188.7 187.1 186.6C187.6 185.9 187.9 185.2 187.9 184.4C187.9 179.3 174.8 175.2 158.6 175.2Z" fill="#11283C"/>
</g>
<path d="M199.1 7.8999C188.1 4.1999 176.7 1.3999 165.1 1.3999C158.2 1.3999 151.5 2.4999 144.8 4.0999C149.8 15.5999 151.7 37.3999 143.1 56.5999C137.3 69.5999 143.1 84.7999 156.1 90.5999C169.1 96.3999 184.3 90.5999 190.1 77.5999C193 71.1999 195.2 64.3999 196.9 57.4999C200.9 41.0999 201.5 23.7999 198.9 7.8999H199.1Z" fill="#A4C94D"/>
<path d="M159.1 85.1L156.6 95.5C155.8 98.8 152.5 100.8 149.2 100C145.9 99.2 143.9 95.9 144.7 92.6L147.2 82.2C148 78.9 151.3 76.9 154.6 77.7C157.9 78.5 159.9 81.8 159.1 85.1Z" fill="#A4C94D"/>
<path d="M179.4 96.7998C178.9 98.9998 177.2 100.8 174.9 101.3C171.6 102.1 168.3 100.1 167.5 96.7998L165 86.3998C164.2 83.0998 166.2 79.7998 169.5 78.9998C172.8 78.1998 176.1 80.1998 176.9 83.4998L179.4 93.8998C179.6 94.8998 179.6 95.8998 179.4 96.7998Z" fill="#A4C94D"/>
<path d="M199.8 83.8999C199.6 84.8999 199.1 85.8999 198.3 86.6999C196 89.1999 192.1 89.2999 189.6 86.9999L181.8 79.5999C179.3 77.2999 179.2 73.3999 181.5 70.8999C183.8 68.3999 187.7 68.2999 190.2 70.5999L198 77.9999C199.7 79.5999 200.3 81.7999 199.8 83.8999Z" fill="#A4C94D"/>
<path d="M278.4 171C279 169.1 280.5 167.7 282.4 167.3C284.4 166.9 286.3 166 288.1 164.8C291.1 162.7 293.2 159.7 294.2 156.5C295.2 153.3 296.6 153 298.7 152.7C300.7 152.4 302.7 151.7 304.5 150.4C307.9 148 308.5 144.7 310.9 141.8C313.2 138.9 317.4 137.5 320.7 136C321.7 135.6 322.7 135.1 323.1 134.1C324 132.3 322.5 130.3 320.9 129.1C312.6 122.8 297.8 122.4 289.2 128.4C287.4 129.6 286 131.3 285.1 133C284.2 134.7 282.1 136 279.9 135.9C276.5 135.7 273 136.6 270 138.7C267 140.8 266.8 141.5 265.7 143.2C264 145.9 259.7 147.1 257.1 148.7C253.7 150.7 250.4 153.2 248.2 156.5C245.7 160.1 244.9 163.1 245.6 167.2C246.6 173.4 242.3 185.3 250.1 189C252.8 190.3 256.1 189 258.6 187.2C260.6 185.8 262.6 183.8 265 183.2C267.3 182.5 269 182.5 271.1 181C274.7 178.5 277.2 174.9 278.5 171H278.4Z" stroke="#ADCB53" stroke-width="1.6" stroke-linecap="round" stroke-linejoin="round"/>
<path d="M302.6 135.6C285.7 142.9 270.7 154.6 259.6 169.2C250.5 181.1 245.6 197.6 245.3 212.5" stroke="#ADCB53" stroke-width="1.6" stroke-linecap="round" stroke-linejoin="round"/>
<path d="M204.1 138.4C202.6 141.1 201.8 144.1 201.8 147.4C201.7 158 214.8 170 220.9 170C227 170 240.5 158.5 240.5 147.7C240.5 136.9 239 139.2 236.5 135.9C235.3 134.3 235 132.3 235.8 130.5C236.6 128.7 237 126.6 237 124.4C237 120.7 235.8 117.4 233.7 114.7C232.4 113 232.2 110.7 233.1 108.8C234 107 234.5 104.9 234.5 102.7C234.5 95.3 226.4 80.5 221.1 80.5C215.8 80.5 207.7 95.3 207.7 102.7C207.7 110.1 208.2 106.9 209.1 108.8C210.1 110.7 209.8 113 208.5 114.7C206.4 117.4 205.2 120.8 205.2 124.4C205.2 128 205.6 128.6 206.4 130.5C207.1 132.3 206.9 134.4 205.7 135.9C204.5 137.4 204.5 137.6 204 138.4" stroke="#ADCB53" stroke-width="1.6" stroke-linecap="round" stroke-linejoin="round"/>
<path d="M221.1 97.6001V203.9" stroke="#ADCB53" stroke-width="1.6" stroke-linecap="round" stroke-linejoin="round"/>
<path d="M278.6 247.5C277.9 248.4 276.1 251.5 264.9 253.4C253.7 255.3 238.6 256.3 226.3 252.3C223.1 251.3 217.1 249 217.2 245.5C217.2 241.7 219 237 220.4 233.5C222.5 228.7 224.8 223.9 227.7 219.4C231.9 212.7 239.8 202.8 249.5 202.8C259.2 202.8 266.1 212.7 270.3 219.3C274.5 225.9 275.4 228.4 277.5 233.2C279 236.7 281.2 243.9 278.5 247.4L278.6 247.5Z" fill="#C8D3DD"/>
<path d="M262.4 262.3C260.7 255.1 259.8 250.8 256.9 244C250.9 230 244.2 207.8 228.8 202.6C213.9 197.5 202.7 214.8 196.7 226.4C191.2 237 188.3 248 183.9 259.2C177.4 284.2 266 277.6 262.3 262.4L262.4 262.3Z" fill="#11283C"/>
<path d="M106 141.7C106 170.1 83 193.1 54.6 193.1C26.2 193.1 3.20001 170.1 3.20001 141.7C3.20001 113.3 26.6 80.1999 41.8 54.7999C47.6 45.0999 61.5 45.0999 67.3 54.7999C82.5 80.2999 105.9 122.6 105.9 141.7H106Z" stroke="#C8D3DD" stroke-width="2.8" stroke-linecap="round" stroke-linejoin="round"/>
<path d="M74.5 111.9C72.6 121.2 64.4 128.2 54.6 128.2C44.8 128.2 36.5 121.1 34.7 111.9" stroke="#C8D3DD" stroke-width="2.8" stroke-linecap="round" stroke-linejoin="round"/>
<path d="M70.3001 111.7C70.5001 109.4 72.6 107.7 74.9 108C77.2 108.2 78.9 110.3 78.6 112.6C78.4 114.9 76.3 116.6 74 116.3C71.7 116.1 70.0001 114 70.3001 111.7Z" fill="#C8D3DD"/>
<path d="M38.9 111.7C38.7 109.4 36.6 107.7 34.3 108C32 108.2 30.3 110.3 30.6 112.6C30.8 114.9 32.9 116.6 35.2 116.3C37.5 116.1 39.2 114 38.9 111.7Z" fill="#C8D3DD"/>
<path d="M84.5001 139.6C82.5001 154.3 69.8001 165.8 54.6001 165.8C39.3001 165.8 26.6001 154.3 24.7001 139.6" stroke="#C8D3DD" stroke-width="2.8" stroke-linecap="round" stroke-linejoin="round"/>
<path d="M80.3 139.5C80.5 137.2 82.5 135.5 84.8 135.6C87.1 135.8 88.8 137.8 88.7 140.1C88.5 142.4 86.5 144.1 84.2 144C81.9 143.8 80.2 141.8 80.3 139.5Z" fill="#C8D3DD"/>
<path d="M28.9 139.5C28.7 137.2 26.7 135.5 24.4 135.6C22.1 135.8 20.4 137.8 20.5 140.1C20.7 142.4 22.7 144.1 25 144C27.3 143.8 29 141.8 28.9 139.5Z" fill="#C8D3DD"/>
<path d="M54.6 89.2998V256" stroke="#C8D3DD" stroke-width="2.8" stroke-linecap="round" stroke-linejoin="round"/>
<path d="M50.4 89.4998C50.4 87.1998 52.3 85.2998 54.6 85.2998C56.9 85.2998 58.8 87.1998 58.8 89.4998C58.8 91.7998 56.9 93.6998 54.6 93.6998C52.3 93.6998 50.4 91.7998 50.4 89.4998Z" fill="#C8D3DD"/>
<path d="M164 286.4V221.4" stroke="#ADCB53" stroke-width="2" stroke-linecap="round" stroke-linejoin="round"/>
<path d="M167.8 221.6C167.8 219.5 166.1 217.8 164 217.8C161.9 217.8 160.2 219.5 160.2 221.6C160.2 223.7 161.9 225.4 164 225.4C166.1 225.4 167.8 223.7 167.8 221.6Z" fill="#ADCB53"/>
<path d="M120.5 286.4V259.4" stroke="#ADCB53" stroke-width="2" stroke-linecap="round" stroke-linejoin="round"/>
<path d="M124.3 259.6C124.3 257.5 122.6 255.8 120.5 255.8C118.4 255.8 116.7 257.5 116.7 259.6C116.7 261.7 118.4 263.4 120.5 263.4C122.6 263.4 124.3 261.7 124.3 259.6Z" fill="#ADCB53"/>
<path d="M183.6 287V255.1" stroke="#ADCB53" stroke-width="2" stroke-linecap="round" stroke-linejoin="round"/>
<path d="M191.2 255.4C191.2 251.2 187.8 247.8 183.6 247.8C179.4 247.8 176 251.2 176 255.4C176 259.6 179.4 263 183.6 263C187.8 263 191.2 259.6 191.2 255.4Z" fill="#ADCB53"/>
<path d="M130.9 285.2V246" stroke="#ADCB53" stroke-width="2" stroke-linecap="round" stroke-linejoin="round"/>
<path d="M145.5 228.9C145.8 228.7 146 228.4 146.2 228.2C147.2 226.9 147.2 225 146 223.8L143.6 221.4C136.7 214.5 125.5 214.5 118.6 221.4L116.2 223.8C115 225 114.9 226.9 116 228.2C117.1 229.5 116.4 228.7 116.6 229C118.2 231.3 120.9 232.4 123 234.3C125.7 236.9 126.9 241.1 130.4 243C133.9 244.9 137.1 242.1 139 238.5C140.3 236.2 141.3 233.7 142.8 231.5C143.5 230.4 144.6 229.8 145.5 228.9Z" fill="white"/>
<path d="M131.7 247.9C128.7 247.1 125.6 246.7 122.6 246.8C119.7 246.8 116.9 247.7 114.1 247.6C113.8 247.6 113.6 247.6 113.3 247.6C112 247.6 110.9 246.8 110.7 245.5L110.3 242.9C109.1 235.4 114.3 228.4 121.7 227.2L124.3 226.8C125.6 226.6 126.8 227.4 127.1 228.7C127.4 230 127.2 229.2 127.3 229.5C128.3 232.5 129.5 235.4 130.3 238.4C131.2 241.5 131.5 244.5 131.7 247.7" fill="#C8D3DD"/>
<path d="M131.5 247.9C132.6 247.9 134 247.1 135.1 246.8C136.2 246.5 138 246.3 139.5 246.2C142 246.2 144.4 246.5 146.7 247.2C148.5 247.8 151.1 247.9 151.4 245.5L151.8 242.9C153 235.4 147.8 228.4 140.4 227.2L137.8 226.8C136.5 226.6 135.3 227.4 135 228.7C134.7 230 134.9 229.2 134.8 229.5L131 240.5C130.6 241.6 130.2 242.8 130.1 244C130 245.2 130.1 246.5 130.6 247.5C130.7 247.7 130.8 247.9 131 248.1C131.2 248.3 131.3 248.1 131.5 248.1V247.9Z" fill="#C8D3DD"/>
<path d="M134.9 247.5C134.9 245.5 133.3 245.7 131.2 245.7C129.1 245.7 127.5 245.5 127.5 247.5C127.5 249.5 129.1 253 131.2 253C133.3 253 134.9 249.5 134.9 247.5Z" fill="#ADCB53"/>
<path d="M211.2 287H106.2" stroke="#ADCB53" stroke-width="2" stroke-linecap="round" stroke-linejoin="round"/>
<path d="M176.2 141.9C176.2 153.3 167.1 162.5 158.6 162.5C150.1 162.5 141 153.3 141 141.9C141 130.5 158.6 117.5 158.6 117.5C158.6 117.5 176.2 130.5 176.2 141.9Z" fill="#618AA6"/>
<path d="M176.2 141.9C176.2 153.3 167.1 162.5 158.6 162.5C150.1 162.5 141 153.3 141 141.9C141 130.5 158.6 117.5 158.6 117.5C158.6 117.5 176.2 130.5 176.2 141.9Z" stroke="white" stroke-width="0.8" stroke-miterlimit="10" stroke-linecap="round"/>
<path d="M170.7 141.9C170.7 153.3 164.4 162.5 158.6 162.5C152.8 162.5 146.5 153.3 146.5 141.9C146.5 130.5 158.6 117.5 158.6 117.5C158.6 117.5 170.7 130.5 170.7 141.9Z" stroke="white" stroke-miterlimit="10" stroke-linecap="round"/>
<path d="M164.6 138.1C164.6 149.5 161.5 162.5 158.7 162.5C155.9 162.5 152.8 149.5 152.8 138.1C152.8 126.7 158.7 117.5 158.7 117.5C158.7 117.5 164.6 126.7 164.6 138.1Z" stroke="white" stroke-miterlimit="10" stroke-linecap="round"/>
</svg>
