<svg width="212" height="293" viewBox="0 0 212 293" fill="none" xmlns="http://www.w3.org/2000/svg">
<path d="M145.1 291.4C140.1 291.4 135.2 290.9 130.3 289.8C123.4 288.3 119.1 281.5 120.6 274.7C122.1 267.8 128.9 263.5 135.7 265C158.2 269.9 181 255.6 184.8 240.4C188.3 226.6 174.1 213.8 147 206C140.3 204.1 136.4 197 138.3 190.3C140.2 183.6 147.3 179.7 154 181.6C216.2 199.4 212.2 235.9 209.5 246.6C205.9 260.8 195.2 273.8 180.2 282.2C169.3 288.3 157.2 291.4 145.1 291.4Z" fill="#A4C94D"/>
<path d="M127.1 279.7H126.5L114.1 278.3C111.2 278 109.1 275.4 109.5 272.5C109.8 269.6 112.4 267.5 115.3 267.9L127.7 269.3C130.6 269.6 132.7 272.2 132.3 275.1C132 277.8 129.7 279.8 127.1 279.8V279.7Z" fill="#A4C94D"/>
<path d="M132.6 274.6C131.5 274.6 130.4 274.3 129.5 273.6L119.5 266.2C117.2 264.5 116.7 261.2 118.4 258.8C120.1 256.5 123.4 256 125.8 257.7L135.8 265.1C138.1 266.8 138.6 270.1 136.9 272.5C135.9 273.9 134.3 274.6 132.7 274.6H132.6Z" fill="#A4C94D"/>
<path d="M116.5 291C114.2 291 112 289.4 111.4 287C110.8 284.6 112.4 281.3 115.2 280.6L127.3 277.5C130.1 276.8 133 278.5 133.7 281.3C134.4 284.1 132.7 287 129.9 287.7L117.8 290.8C117.4 290.9 116.9 291 116.5 291Z" fill="#A4C94D"/>
<path d="M66.9 291.4C54.8 291.4 42.7 288.3 31.8 282.2C16.8 273.8 6.10001 260.8 2.50001 246.6C-0.199993 235.8 -4.19999 199.4 58 181.6C64.7 179.7 71.8 183.6 73.7 190.3C75.6 197 71.7 204.1 65 206C37.8 213.8 23.7 226.6 27.2 240.4C31 255.6 53.8 269.9 76.3 265C83.2 263.5 89.9 267.8 91.4 274.7C92.9 281.6 88.6 288.3 81.7 289.8C76.8 290.9 71.9 291.4 66.9 291.4Z" fill="#A4C94D"/>
<path d="M84.9 279.7C82.3 279.7 80 277.7 79.7 275C79.4 272.1 81.4 269.5 84.3 269.2L96.7 267.8C99.6 267.5 102.2 269.5 102.5 272.4C102.8 275.3 100.8 277.9 97.9 278.2L85.5 279.6H84.9V279.7Z" fill="#A4C94D"/>
<path d="M79.4 274.6C77.8 274.6 76.2 273.9 75.2 272.5C73.5 270.2 74 266.9 76.3 265.1L86.3 257.7C88.6 256 91.9 256.5 93.7 258.8C95.4 261.1 94.9 264.4 92.6 266.2L82.6 273.6C81.7 274.3 80.6 274.6 79.5 274.6H79.4Z" fill="#A4C94D"/>
<path d="M95.5001 291C95.1001 291 94.6001 291 94.2001 290.8L82.1001 287.7C79.3001 287 77.6001 284.1 78.3001 281.3C79.0001 278.5 81.9 276.8 84.7 277.5L96.8001 280.6C99.6001 281.3 101.3 284.2 100.6 287C99.9001 289.8 97.8001 291 95.5001 291Z" fill="#A4C94D"/>
<path d="M196.5 122C196.5 100.9 181.1 83.4001 160.8 80.2001C140.5 77.0001 148 78.2001 142.1 80.5001C136.2 82.8001 137.6 82.7001 134.1 84.5001C133.9 84.5001 133.7 84.5001 133.5 84.7001C126.1 86.7001 116.5 87.9001 106 87.9001C95.5 87.9001 85.9 86.7001 78.5 84.7001C72.5 81.4001 65.5 79.5001 58.2 79.5001C34.8 79.5001 15.9 98.4001 15.9 121.8C15.9 145.2 15.9 122.6 15.9 122.9V123.9V126C16 142 17.7 156.5 20.6 169.4C32.3 231.1 63.6 248.6 103.7 249.7H108.5C148.6 248.6 179.8 231.1 191.6 169.4C194.4 156.9 196 143 196.2 127.6C196.5 125.7 196.6 123.7 196.6 121.7H196.4V121.9L196.5 122Z" fill="#8BB52D"/>
<path d="M107.3 243.4H55.7V174.8H156.3V243.4H107.3Z" fill="white"/>
<path d="M107.3 211.4L55.7 174.8H156.3L107.3 211.4Z" fill="#CEE098"/>
<path d="M106 162.7C104.2 162.7 102.4 162.4 100.6 161.8L82.4 155.9C81.7 155.7 81.3 154.9 81.5 154.2C81.7 153.5 82.5 153.1 83.2 153.3L101.4 159.2C104.4 160.2 107.6 160.2 110.6 159.2L128.8 153.3C129.5 153.1 130.3 153.5 130.5 154.2C130.7 154.9 130.3 155.7 129.6 155.9L111.4 161.8C109.6 162.4 107.8 162.7 106 162.7Z" fill="#3C3C3B"/>
<path d="M117.9 140.7L113.2 136.1L119.4 138.5C121.4 139.4 119.6 142.2 118 140.7H117.9Z" fill="#3C3C3B"/>
<path d="M92.6 138.5L98.8 136.1L94.1 140.7C92.5 142.1 90.7 139.3 92.7 138.5H92.6Z" fill="#3C3C3B"/>
<path d="M128.5 125.4L127.6 125.1C113.4 120.2 97.8 120.3 83.6 125.4L81.1 118.5C96.8 112.9 114.1 112.8 129.9 118.2L130.8 118.5L128.4 125.4H128.5Z" fill="#11283C"/>
<path d="M55.7 150.6C72.4342 150.6 86 137.034 86 120.3C86 103.566 72.4342 90 55.7 90C38.9658 90 25.4 103.566 25.4 120.3C25.4 137.034 38.9658 150.6 55.7 150.6Z" fill="white"/>
<path d="M55.7 154.2C37 154.2 21.8 139 21.8 120.3C21.8 101.6 37 86.3999 55.7 86.3999C74.4 86.3999 89.6 101.6 89.6 120.3C89.6 139 74.4 154.2 55.7 154.2ZM55.7 93.6999C41 93.6999 29.1 105.6 29.1 120.3C29.1 135 41 146.9 55.7 146.9C70.4 146.9 82.3 135 82.3 120.3C82.3 105.6 70.4 93.6999 55.7 93.6999Z" fill="#11283C"/>
<path d="M156.3 150.6C173.034 150.6 186.6 137.034 186.6 120.3C186.6 103.566 173.034 90 156.3 90C139.566 90 126 103.566 126 120.3C126 137.034 139.566 150.6 156.3 150.6Z" fill="white"/>
<path d="M156.3 154.2C137.6 154.2 122.4 139 122.4 120.3C122.4 101.6 137.6 86.3999 156.3 86.3999C175 86.3999 190.2 101.6 190.2 120.3C190.2 139 175 154.2 156.3 154.2ZM156.3 93.6999C141.6 93.6999 129.7 105.6 129.7 120.3C129.7 135 141.6 146.9 156.3 146.9C171 146.9 182.9 135 182.9 120.3C182.9 105.6 171 93.6999 156.3 93.6999Z" fill="#11283C"/>
<path d="M55.7 131.5C61.8856 131.5 66.9 126.485 66.9 120.3C66.9 114.114 61.8856 109.1 55.7 109.1C49.5144 109.1 44.5 114.114 44.5 120.3C44.5 126.485 49.5144 131.5 55.7 131.5Z" fill="#060300"/>
<path d="M156.3 131.5C162.486 131.5 167.5 126.485 167.5 120.3C167.5 114.114 162.486 109.1 156.3 109.1C150.114 109.1 145.1 114.114 145.1 120.3C145.1 126.485 150.114 131.5 156.3 131.5Z" fill="#060300"/>
<path d="M47.4 127C50.1614 127 52.4 124.761 52.4 122C52.4 119.239 50.1614 117 47.4 117C44.6385 117 42.4 119.239 42.4 122C42.4 124.761 44.6385 127 47.4 127Z" fill="white"/>
<path d="M145.6 127C148.361 127 150.6 124.761 150.6 122C150.6 119.239 148.361 117 145.6 117C142.839 117 140.6 119.239 140.6 122C140.6 124.761 142.839 127 145.6 127Z" fill="white"/>
<path d="M105.9 109.1C109.158 109.1 111.8 108.429 111.8 107.6C111.8 106.772 109.158 106.1 105.9 106.1C102.642 106.1 100 106.772 100 107.6C100 108.429 102.642 109.1 105.9 109.1Z" fill="#EAF1D4"/>
<path d="M96.1 101.7C99.3585 101.7 102 101.028 102 100.2C102 99.3715 99.3585 98.7 96.1 98.7C92.8415 98.7 90.2 99.3715 90.2 100.2C90.2 101.028 92.8415 101.7 96.1 101.7Z" fill="#EAF1D4"/>
<path d="M113.7 101.7C116.958 101.7 119.6 101.028 119.6 100.2C119.6 99.3715 116.958 98.7 113.7 98.7C110.442 98.7 107.8 99.3715 107.8 100.2C107.8 101.028 110.442 101.7 113.7 101.7Z" fill="#EAF1D4"/>
<path d="M151.2 219C145.2 219 139.6 215.1 137.8 209C135.5 201.6 139.7 193.7 147.1 191.5C159.8 187.7 168.8 176.8 170.3 170.8C172.1 163.3 179.7 158.6 187.2 160.4C194.7 162.2 199.4 169.8 197.6 177.3C193.4 194.9 175.6 212.2 155.3 218.4C153.9 218.8 152.6 219 151.2 219Z" fill="#A4C94D"/>
<path d="M134.4 211.3C133.2 211.3 132 210.6 131.4 209.5C130.6 207.9 131.2 205.8 132.8 205L138 202.3C139.6 201.5 141.7 202.1 142.5 203.7C143.3 205.3 142.7 207.4 141.1 208.2L135.9 210.9C135.4 211.2 134.9 211.3 134.4 211.3Z" fill="#A4C94D"/>
<path d="M142 221.1C141.3 221.1 140.7 220.9 140.1 220.5C138.6 219.4 138.2 217.3 139.3 215.8L142.7 211C143.8 209.5 145.9 209.1 147.4 210.2C148.9 211.3 149.3 213.4 148.2 214.9L144.8 219.7C144.1 220.6 143.1 221.1 142.1 221.1H142Z" fill="#A4C94D"/>
<path d="M154.6 224.9H154.5C152.7 224.9 151.2 223.3 151.3 221.4L151.5 215.6C151.5 213.8 153.1 212.3 155 212.4C156.8 212.4 158.3 214 158.2 215.9L158 221.7C158 223.5 156.4 224.9 154.7 224.9H154.6Z" fill="#A4C94D"/>
<path d="M60.7 219C59.3 219 58 218.8 56.6 218.4C36.3 212.2 18.5 194.9 14.3 177.3C12.5 169.8 17.2 162.2 24.7 160.4C32.2 158.6 39.8 163.3 41.6 170.8C43 176.8 52.1 187.7 64.8 191.5C72.2 193.8 76.4 201.6 74.1 209C72.3 215.1 66.7 218.9 60.7 218.9V219Z" fill="#A4C94D"/>
<path d="M77.6 211.3C77.1 211.3 76.6 211.2 76.1 210.9L70.9 208.2C69.3 207.4 68.6 205.3 69.5 203.7C70.3 202.1 72.4 201.4 74 202.3L79.2 205C80.8 205.8 81.5 207.9 80.6 209.5C80 210.6 78.8 211.3 77.6 211.3Z" fill="#A4C94D"/>
<path d="M69.9 221.1C68.9 221.1 67.8 220.6 67.2 219.7L63.8 214.9C62.7 213.4 63.1 211.3 64.6 210.2C66.1 209.1 68.2 209.5 69.3 211L72.7 215.8C73.8 217.3 73.4 219.4 71.9 220.5C71.3 220.9 70.6 221.1 70 221.1H69.9Z" fill="#A4C94D"/>
<path d="M57.3 224.9C55.5 224.9 54 223.5 54 221.7L53.8 215.9C53.8 214.1 55.2 212.5 57 212.4C58.8 212.4 60.4 213.8 60.5 215.6L60.7 221.4C60.7 223.2 59.3 224.8 57.5 224.9H57.3Z" fill="#A4C94D"/>
<path d="M98.1 67.5999C97.6 67.5999 97.1 67.1999 97.1 66.5999V44.2C97.1 43.7 97.5 43.2 98.1 43.2C98.7 43.2 99.1 43.6 99.1 44.2V66.5999C99.1 67.0999 98.7 67.5999 98.1 67.5999Z" fill="#A6C453"/>
<path d="M101.7 44.4999C101.7 42.4999 100.1 40.8999 98.1 40.8999C96.1 40.8999 94.5 42.4999 94.5 44.4999C94.5 46.4999 96.1 48.0999 98.1 48.0999C100.1 48.0999 101.7 46.4999 101.7 44.4999Z" fill="#A6C453"/>
<path d="M108.3 68C107.8 68 107.3 67.6 107.3 67V29.8C107.3 29.3 107.7 28.8 108.3 28.8C108.9 28.8 109.3 29.2 109.3 29.8V67C109.3 67.5 108.9 68 108.3 68Z" fill="#A6C453"/>
<path d="M121.8 13.6C122 13.4 122.3 13.2 122.5 12.9C123.5 11.7 123.4 9.9 122.3 8.8L120 6.5C113.5 0 102.8 0 96.3 6.5L94 8.8C92.9 9.9 92.8 11.7 93.8 12.9C94 13.2 94.2 13.4 94.4 13.7C96 15.9 98.5 16.9 100.4 18.8C103 21.3 104.1 25.2 107.4 27C111.4 29.2 113.7 26.1 115.6 22.7C116.8 20.5 117.8 18.1 119.2 16C119.9 15 120.9 14.4 121.8 13.6Z" fill="#A4C94D"/>
<path d="M108.7 31.6001C105.9 30.8001 103 30.5001 100 30.5001C97 30.5001 94.6 31.3001 91.9 31.3001H91.1C89.9 31.3001 88.8 30.5001 88.6 29.3001L88.2 26.8001C87.1 19.7001 92 13.0001 99.1 11.9001L101.6 11.5001C102.8 11.3001 104 12.1001 104.3 13.3001C104.6 14.5001 104.3 13.8001 104.5 14.0001C105.5 16.8001 106.6 19.6001 107.4 22.5001C108.2 25.4001 108.5 28.3001 108.8 31.3001" fill="white"/>
<path d="M108.6 31.6001C109.7 31.6001 111 30.8001 112.1 30.6001C113.5 30.3001 114.8 30.1001 116.2 30.0001C118.5 30.0001 120.9 30.2001 123.1 31.0001C124.8 31.5001 127.2 31.6001 127.6 29.3001L128 26.8001C129.1 19.7001 124.2 13.0001 117.1 11.9001L114.6 11.5001C113.4 11.3001 112.2 12.1001 111.9 13.3001C111.9 13.5001 111.9 13.8001 111.7 14.0001L108.1 24.4001C107.7 25.5001 107.4 26.6001 107.2 27.7001C107.2 28.8001 107.2 30.0001 107.7 31.1001C107.7 31.3001 107.9 31.5001 108.1 31.6001C108.3 31.7001 108.4 31.6001 108.6 31.6001Z" fill="white"/>
<path d="M111.8 31.3C111.8 29.4 110.2 29.6 108.3 29.6C106.4 29.6 104.8 29.4 104.8 31.3C104.8 33.2 106.4 36.5 108.3 36.5C110.2 36.5 111.8 33.2 111.8 31.3Z" fill="#A4C94D"/>
<path d="M104.5 83.8999C114.055 83.8999 121.8 78.7512 121.8 72.3999C121.8 66.0486 114.055 60.8999 104.5 60.8999C94.9455 60.8999 87.2 66.0486 87.2 72.3999C87.2 78.7512 94.9455 83.8999 104.5 83.8999Z" fill="#A4C94D"/>
<path d="M83.9 67.5H126.7V77.4C126.7 83.8 121.5 88.9 115.2 88.9H95.4C89 88.9 83.9 83.7 83.9 77.4V67.5Z" fill="white"/>
<path d="M106 224.4C113.18 224.4 119 218.58 119 211.4C119 204.22 113.18 198.4 106 198.4C98.8203 198.4 93 204.22 93 211.4C93 218.58 98.8203 224.4 106 224.4Z" fill="#8BB52D"/>
<path d="M111.5 209.8C110.9 209.8 110.3 210.2 110.3 210.8C110.3 211.4 110.3 211.5 110.6 211.7C109.9 213.4 108.3 214.6 106.5 214.8V210.1C107.8 209.9 108.9 209.2 109.6 208.2C110.1 208.2 110.6 207.8 110.7 207.3C110.7 206.7 110.4 206.1 109.8 206C109.2 206 108.6 206.3 108.5 206.9C108.5 207.2 108.5 207.5 108.7 207.8C108.2 208.5 107.4 209 106.5 209.2V204.6C106.9 204.4 107.1 204 107.1 203.6C107.1 203.2 106.6 202.5 106 202.5C105.4 202.5 104.9 203 104.9 203.6C104.9 204.2 105.2 204.4 105.5 204.6V209.2C104.6 209.1 103.8 208.6 103.3 207.8C103.5 207.6 103.6 207.3 103.5 206.9C103.5 206.3 102.8 205.9 102.2 206C101.6 206 101.2 206.7 101.3 207.3C101.3 207.8 101.8 208.2 102.4 208.2C103.1 209.3 104.2 210 105.5 210.1V214.8C103.7 214.6 102.1 213.4 101.4 211.7C101.6 211.5 101.8 211.1 101.7 210.8C101.7 210.2 101.1 209.7 100.5 209.8C99.9 209.8 99.4 210.4 99.5 211C99.5 211.5 99.9 211.9 100.4 212C101.2 214.1 103.2 215.6 105.5 215.8V220.6H106.5V215.8C108.8 215.6 110.7 214.1 111.6 212C112.1 212 112.5 211.5 112.5 211C112.5 210.5 112.1 209.8 111.5 209.8Z" fill="#11283C"/>
</svg>
