<svg width="95" height="81" viewBox="0 0 95 81" fill="none" xmlns="http://www.w3.org/2000/svg">
<path d="M25.9 80.5H11.4C7.50001 80.5 4.40001 77.4 4.40001 73.5V46.7L1.20001 41.4C0.900006 40.9 0.900006 40.2 1.20001 39.6L4.40001 34.3V7.5C4.40001 3.6 7.50001 0.5 11.4 0.5H25.9V4H11.4C9.50001 4 7.90001 5.6 7.90001 7.5V34.8C7.90001 35.1 7.80001 35.4 7.70001 35.7L4.8 40.5L7.70001 45.3C7.90001 45.6 7.90001 45.9 7.90001 46.2V73.5C7.90001 75.4 9.50001 77 11.4 77H25.9V80.5Z" fill="#AECC53"/>
<path d="M83.6 80.5H69.1V77H83.6C85.5 77 87.1 75.4 87.1 73.5V46.2C87.1 45.9 87.2 45.6 87.3 45.3L90.2 40.5L87.3 35.7C87.1 35.4 87.1 35.1 87.1 34.8V7.5C87.1 5.6 85.5 4 83.6 4H69.1V0.5H83.6C87.5 0.5 90.6 3.6 90.6 7.5V34.3L93.8 39.6C94.1 40.1 94.1 40.8 93.8 41.4L90.6 46.7V73.5C90.6 77.4 87.4 80.5 83.6 80.5Z" fill="#AECC53"/>
<path d="M67.1 19.9C67 19.8 66.9 19.6 66.8 19.5C64.4 17.3 61.7 15.6 58.8 14.3C58.7 14.3 58.6 14.2 58.5 14.2C55.1 12.8 51.5 12 47.6 12C44.7 12 40.5 12.4 37.7 15.4C34.3 19 33.8 25 36.4 29.8C39.5 35.4 44.1 39.1 49.6 40.3C50.5 40.5 51.4 40.6 52.3 40.8C54.6 41.2 56.7 41.5 58.5 42.5C59.3 42.9 60 43.5 60.7 44.2C60.2 45.2 60 46.4 60.5 47.5C61.3 49.5 63.6 50.5 65.6 49.7C67.6 48.9 68.6 46.6 67.8 44.6C67.1 42.9 65.4 42 63.6 42.2C62.6 41.1 61.5 40.1 60.3 39.4C58 38.1 55.4 37.7 52.9 37.3C52 37.2 51.2 37 50.4 36.9C44.7 35.7 41.4 31.5 39.5 28.1C37.9 25.2 37.5 20.7 40.2 17.7C41.7 16.1 44 15.4 47.6 15.4C48.3 15.4 49.1 15.4 49.8 15.5C48.2 16.9 47.2 18.9 47.2 21.1C47.2 23.9 48.7 26.5 51.6 28.9C56.2 32.6 59.4 33.4 61.6 33.4C62.5 33.4 63.2 33.3 63.7 33.2C66.3 32.8 68.5 30.9 69.5 28.6C71.4 32.1 72.5 36.2 72.5 40.4C72.5 47.6 69.4 54.5 63.9 59.2C63.2 59.8 63.1 60.9 63.7 61.6C64 62 64.5 62.2 65 62.2C65.4 62.2 65.8 62.1 66.1 61.8C72.3 56.4 75.8 48.6 75.8 40.4C76 32.4 72.6 25.1 67.1 19.9ZM66.5 26.6C66.3 28.1 64.8 29.6 63 29.8C61.7 30 58.9 30.5 53.7 26.3C51.6 24.6 50.5 22.9 50.5 21.2C50.5 19.7 51.4 18.3 52.8 17.6C54.2 17 55.7 16.9 57.1 17.4C59.9 18.6 62.4 20.2 64.6 22.2C66.1 24 66.7 25.3 66.5 26.6Z"  class="logo-icon-globe"/>
<path d="M49 49.8C47 49.4 45.1 48.9 43.6 48.2C39.3 46.2 36.6 44.2 35.2 42.1C34.5 41 33.9 39.9 33.4 38.7C34.3 37.9 34.8 36.6 34.6 35.3C34.3 33.2 32.4 31.6 30.2 31.9C28.1 32.2 26.5 34.1 26.8 36.3C27 38 28.3 39.3 30 39.6C30.6 41.1 31.3 42.5 32.2 43.9C34.5 47.4 38.9 49.8 42 51.2C43.8 52 46 52.5 48.1 53C52.1 53.9 55.9 54.7 57.5 57.7C58.1 58.9 58.2 60.7 57.7 61.8C56.1 65 51.6 65.4 47.4 65.4C33.6 65.4 22.4 54.2 22.4 40.4C22.4 33.1 25.6 26.1 31.2 21.4C31.9 20.8 32 19.7 31.4 19C30.8 18.3 29.7 18.2 29 18.8C22.7 24.2 19 32.1 19 40.5C19 56.2 31.8 69 47.5 69C50.7 69 58.2 69 60.9 63.5C61.9 61.4 61.8 58.4 60.7 56.3C58.3 51.8 53.3 50.7 49 49.8Z"  class="logo-icon-globe"/>

<style>
        .logo-icon-globe { fill: #004B76; }
        @media (prefers-color-scheme: dark) {
            .logo-icon-globe { fill: #FFF; }
        }
    </style>
</svg>
