<svg width="22" height="13" viewBox="0 0 22 13" fill="none" xmlns="http://www.w3.org/2000/svg">
<path d="M19.599 0.0800781H2.67896C1.51571 0.0800781 0.563965 1.04316 0.563965 2.22026V10.781C0.563965 11.9581 1.51571 12.9211 2.67896 12.9211L6.91888 12.9212C7.751 12.9212 8.50612 12.4272 8.84783 11.6595L9.76521 9.59786C10.0254 9.01265 10.5583 8.64046 11.1409 8.64046C11.7236 8.64046 12.2563 9.01265 12.5167 9.59786L13.4337 11.6588C13.7758 12.4272 14.5309 12.9212 15.3637 12.9212L19.599 12.9211C20.7622 12.9211 21.714 11.9581 21.714 10.781V2.22026C21.714 1.04316 20.7622 0.0800781 19.599 0.0800781ZM5.85146 8.10575C4.68227 8.10575 3.73646 7.14835 3.73646 5.96557C3.73646 4.78279 4.68227 3.85549 5.85146 3.85549C7.02066 3.85549 7.96646 4.81255 7.96646 5.96557C7.96646 7.11859 7.02132 8.10575 5.85146 8.10575ZM16.4265 8.10575C15.2573 8.10575 14.3115 7.14835 14.3115 5.96557C14.3115 4.78279 15.2573 3.85549 16.4265 3.85549C17.5957 3.85549 18.5415 4.81255 18.5415 5.96557C18.5415 7.11859 17.5963 8.10575 16.4265 8.10575Z" fill="#AECC53"/>
</svg>
