<svg width="151" height="160" viewBox="0 0 151 160" fill="none" xmlns="http://www.w3.org/2000/svg">
<g clip-path="url(#clip0_75_1806)">
<path d="M71.5903 159.597H79.2603C94.4503 159.597 106.76 147.268 106.76 132.054V117.371H44.0903V132.054C44.0903 147.268 56.4003 159.597 71.5903 159.597Z" fill="#C8D3DD"/>
<path d="M75.43 124.222C58.1214 124.222 44.09 121.154 44.09 117.371C44.09 113.587 58.1214 110.52 75.43 110.52C92.7386 110.52 106.77 113.587 106.77 117.371C106.77 121.154 92.7386 124.222 75.43 124.222Z" fill="#1A3C5B"/>
<path d="M59.2501 56.3849C57.8701 58.9289 57.0701 61.8435 57.0301 64.9384C56.9101 75.0443 69.3601 86.3921 75.1601 86.3921C82.9901 86.3921 93.8101 75.4249 93.8101 65.1687C93.8101 60.9621 92.4001 57.076 90.0201 53.9711C88.8901 52.4988 88.6201 50.5357 89.3301 48.823C90.0701 47.0402 90.4801 45.0872 90.4801 43.0339C90.4801 39.5485 89.3001 36.3334 87.3101 33.7794C86.0601 32.1668 85.8401 30.0034 86.7601 28.1806C87.6401 26.4479 88.1301 24.4948 88.1301 22.4215C88.1301 15.3905 80.4101 1.34839 75.4201 1.34839C71.0301 1.34839 62.7101 15.3905 62.7101 22.4215C62.7101 24.4948 63.2101 26.4479 64.0801 28.1806C65.0001 30.0034 64.7801 32.1668 63.5301 33.7794C61.5401 36.3334 60.3601 39.5485 60.3601 43.0339C60.3601 45.0872 60.7701 47.0402 61.5101 48.823C62.2201 50.5357 61.9501 52.4888 60.8301 53.9611C60.2401 54.7223 59.7101 55.5336 59.2501 56.3849Z" fill="#1A3C5B"/>
<path d="M90.6103 53.5104C89.6403 52.2484 89.4103 50.5557 90.0203 49.1034C90.8203 47.1804 91.2303 45.1372 91.2303 43.0239C91.2303 39.4683 90.0803 36.103 87.9003 33.2986C86.8203 31.9064 86.6403 30.0635 87.4303 28.501C88.4003 26.598 88.8803 24.5448 88.8803 22.4015C88.8803 15.5707 81.2003 0.597168 75.4103 0.597168C75.0003 0.597168 75.1503 85.6309 75.1503 85.6309C74.7403 85.6309 74.7403 87.1332 75.1503 87.1332C83.2603 87.1332 94.5503 76.0658 94.5503 65.1587C94.5503 60.912 93.1903 56.8757 90.6103 53.5104Z" fill="#ADCB53"/>
<path d="M75.4102 119.424C75.8202 119.424 76.1602 119.084 76.1602 118.673V17.5639C76.1602 17.1433 75.8202 16.8127 75.4102 16.8127C75.0002 16.8127 74.6602 17.1533 74.6602 17.5639V118.663C74.6602 119.084 75.0002 119.424 75.4102 119.424Z" fill="white"/>
<path d="M107.4 79.4512C107.96 77.6784 109.41 76.3363 111.22 75.9357C113.1 75.525 114.94 74.7438 116.62 73.5719C119.48 71.5788 121.43 68.7644 122.39 65.6695C122.99 63.7164 124.64 62.3042 126.66 62.0138C128.58 61.7433 130.46 61.0322 132.16 59.8504C135.38 57.5968 135.99 54.4619 138.22 51.6975C140.45 48.9432 144.4 47.5711 147.52 46.1588C148.43 45.7482 149.39 45.2674 149.84 44.376C150.7 42.6834 149.25 40.7303 147.73 39.5885C139.83 33.6291 125.79 33.2485 117.61 38.9575C115.91 40.1394 114.59 41.6718 113.68 43.3745C112.72 45.1773 110.82 46.239 108.78 46.1288C105.55 45.9585 102.24 46.8199 99.3802 48.823C97.7002 49.9949 96.3302 51.4472 95.3002 53.0797C93.6602 55.6638 89.6202 56.8256 87.1002 58.328C83.8602 60.251 80.7802 62.5646 78.6402 65.7096C76.3102 69.135 75.5102 71.9394 76.1402 75.8756C77.0702 81.7348 73.0202 93.1227 80.4102 96.5681C83.0202 97.79 86.1002 96.488 88.4702 94.8454C90.3802 93.5233 92.3102 91.6604 94.5902 90.9993C96.7502 90.3784 98.3902 90.3483 100.4 88.9461C103.84 86.5523 106.21 83.177 107.4 79.4512Z" fill="#1A3C5B"/>
<path d="M75.8702 119.634C76.2802 119.634 76.6102 119.304 76.6202 118.893C76.9202 104.07 81.9302 88.8459 90.0402 78.1691C100.58 64.2973 114.61 53.32 130.61 46.4492C130.99 46.289 131.17 45.8383 131 45.4577C130.83 45.0771 130.4 44.8968 130.01 45.0671C113.77 52.048 99.5402 63.1755 88.8402 77.2577C80.5502 88.1748 75.4202 103.729 75.1202 118.863C75.1102 119.274 75.4402 119.624 75.8602 119.634H75.8702Z" fill="white"/>
<path d="M43.4606 79.4512C42.9006 77.6784 41.4506 76.3363 39.6406 75.9357C37.7606 75.525 35.9206 74.7438 34.2406 73.5719C31.3806 71.5788 29.4306 68.7644 28.4706 65.6695C27.8706 63.7164 26.2206 62.3042 24.2006 62.0138C22.2806 61.7433 20.4006 61.0322 18.7006 59.8504C15.4806 57.5968 14.8706 54.4619 12.6406 51.6975C10.4106 48.9432 6.46056 47.5711 3.34057 46.1588C2.43056 45.7482 1.47056 45.2674 1.02056 44.376C0.160561 42.6834 1.61056 40.7303 3.13056 39.5885C11.0306 33.6291 25.0706 33.2485 33.2506 38.9575C34.9506 40.1394 36.2706 41.6718 37.1806 43.3745C38.1406 45.1773 40.0406 46.239 42.0806 46.1288C45.3106 45.9585 48.6206 46.8199 51.4806 48.823C53.1606 49.9949 54.5306 51.4472 55.5606 53.0797C57.2006 55.6638 61.2406 56.8256 63.7606 58.328C67.0006 60.251 70.0806 62.5646 72.2206 65.7096C74.5506 69.135 75.3506 71.9394 74.7206 75.8756C73.7906 81.7348 77.8406 93.1227 70.4506 96.5681C67.8406 97.79 64.7606 96.488 62.3906 94.8454C60.4806 93.5233 58.5506 91.6604 56.2706 90.9993C54.1106 90.3784 52.4706 90.3483 50.4606 88.9461C47.0106 86.5523 44.6406 83.177 43.4606 79.4512Z" fill="#ADCB53"/>
<path d="M68.2004 97.8101C69.0604 97.8101 69.9204 97.6498 70.7604 97.2492C76.4304 94.605 75.9204 87.6842 75.5204 82.1354C75.3504 79.8218 75.1904 77.6384 75.4504 75.9958C76.0804 71.9995 75.3504 69.0048 72.8304 65.2889C70.9404 62.5046 68.1704 60.0908 64.1304 57.677C63.3604 57.2162 62.4904 56.8056 61.5604 56.3649C59.4304 55.3533 57.2204 54.3117 56.1704 52.6691C55.0504 50.9063 53.6104 49.404 51.8804 48.2021C48.9704 46.1689 45.5604 45.1973 42.0104 45.3776C40.2404 45.4878 38.6404 44.5664 37.8104 43.0239C36.8104 41.141 35.4104 39.5685 33.6504 38.3366C25.3104 32.5174 10.8204 32.8179 2.6504 38.9876C0.900398 40.3097 -0.759605 42.6033 0.320396 44.7166C0.880394 45.8083 1.95039 46.3692 3.00039 46.8399C3.50039 47.0703 4.02039 47.2906 4.55039 47.521C7.23039 48.6828 10.2704 49.9949 12.0204 52.1683C12.8104 53.1398 13.4004 54.2015 13.9804 55.2231C15.0104 57.056 16.0704 58.949 18.2404 60.4614C20.0004 61.6833 21.9604 62.4545 24.0704 62.755C25.8104 62.9953 27.2104 64.1972 27.7304 65.8799C28.7804 69.2752 30.8704 72.1397 33.7904 74.1729C35.5204 75.3748 37.4204 76.2161 39.4604 76.6568C40.9904 76.9873 42.2404 78.1391 42.7304 79.6615C44.0104 83.7079 46.5404 87.1333 50.0204 89.5671C51.6104 90.6789 52.9904 90.9893 54.4504 91.3199C54.9604 91.4401 55.4904 91.5602 56.0604 91.7205C57.6104 92.1612 59.0404 93.2629 60.4204 94.3146C60.9404 94.7152 61.4504 95.1058 61.9604 95.4564C63.6504 96.6382 65.9104 97.8101 68.2004 97.8101ZM42.8904 46.87C45.8204 46.87 48.6204 47.7514 51.0404 49.444C52.6004 50.5357 53.9104 51.8979 54.9204 53.4804C56.2004 55.4935 58.7104 56.6754 60.9304 57.7271C61.8204 58.1477 62.6604 58.5483 63.3704 58.969C67.2204 61.2626 69.8304 63.5362 71.5904 66.1303C73.9004 69.5356 74.5504 72.1397 73.9704 75.7554C73.6804 77.5783 73.8504 79.8418 74.0204 82.2456C74.4104 87.604 74.8504 93.6836 70.1204 95.887C67.5604 97.0789 64.4404 95.3562 62.8104 94.2344C62.3204 93.8939 61.8304 93.5133 61.3304 93.1327C59.8404 91.9909 58.2904 90.8091 56.4704 90.2882C55.8804 90.118 55.3204 89.9878 54.7804 89.8676C53.4104 89.5571 52.2304 89.2867 50.8804 88.3452C47.6704 86.1017 45.3504 82.9467 44.1604 79.2208C43.5204 77.1876 41.8404 75.6452 39.7804 75.2045C37.9404 74.8039 36.2104 74.0427 34.6504 72.961C32.0104 71.1181 30.1204 68.524 29.1704 65.4492C28.4804 63.2357 26.5704 61.5931 24.2804 61.2726C22.4104 61.0122 20.6704 60.3211 19.1104 59.2394C17.2204 57.9173 16.2904 56.2547 15.3004 54.502C14.6904 53.4203 14.0704 52.3085 13.2004 51.2368C11.2104 48.773 7.99039 47.3808 5.16039 46.1589C4.64039 45.9285 4.12039 45.7082 3.63039 45.4878C2.82039 45.1172 2.0104 44.7066 1.6704 44.0455C0.970398 42.6734 2.5304 40.9807 3.5604 40.2095C11.2704 34.3904 24.9304 34.0999 32.8004 39.5885C34.3604 40.6802 35.6104 42.0825 36.5004 43.7451C37.5904 45.7783 39.7804 47.0302 42.1004 46.89C42.3704 46.88 42.6304 46.87 42.8904 46.87Z" fill="#ADCB53"/>
<path d="M74.9802 119.634C74.9902 119.634 74.9902 119.634 75.0002 119.634C75.4102 119.624 75.7402 119.284 75.7402 118.863C75.4402 103.729 70.3102 88.175 62.0202 77.2578C51.3202 63.1757 37.0902 52.0482 20.8502 45.0672C20.4702 44.9069 20.0302 45.0772 19.8602 45.4578C19.7002 45.8384 19.8702 46.2791 20.2502 46.4494C36.2502 53.3302 50.2702 64.2974 60.8102 78.1692C68.9102 88.846 73.9302 104.07 74.2302 118.893C74.2402 119.304 74.5802 119.634 74.9802 119.634Z" fill="white"/>
</g>
<defs>
<clipPath id="clip0_75_1806">
<rect width="150.1" height="159" fill="white" transform="matrix(-1 0 0 1 150.1 0.597168)"/>
</clipPath>
</defs>
</svg>
