<svg width="1185" height="644" viewBox="0 0 1185 644" fill="none" xmlns="http://www.w3.org/2000/svg">
<path d="M110.453 564.268C109.527 564.268 108.774 563.35 108.774 562.222V74.7114C108.774 73.5833 109.527 72.6656 110.453 72.6656C111.378 72.6656 112.131 73.5833 112.131 74.7114V562.222C112.131 563.35 111.383 564.268 110.453 564.268Z" fill="#1A3C5B"/>
<path d="M81.6608 117.756H38.5739C29.0166 117.756 21.1953 125.581 21.1953 135.143C21.1953 135.296 21.2145 135.445 21.2193 135.599C21.2097 135.752 21.1953 135.901 21.1953 136.054V157.88C21.1953 162.395 24.3747 166.429 28.8344 167.125C34.4547 168.003 39.346 163.623 39.346 158.158V157.088C39.346 154.574 41.384 152.54 43.892 152.54C46.4048 152.54 48.4381 154.579 48.4381 157.088V172.441C48.4381 177.436 52.5238 181.519 57.5158 181.519C62.5079 181.519 66.5888 177.431 66.5888 172.441V157.088C66.5888 154.574 68.6268 152.54 71.1348 152.54H81.656C91.2132 152.54 99.0346 144.715 99.0346 135.152C99.0394 125.581 91.218 117.756 81.6608 117.756Z" fill="#1A3C5B"/>
<path d="M60.4655 102.369H17.3786C8.26731 102.369 0.752881 109.479 0.0671359 118.422C0.0287725 118.72 0 119.017 0 119.324V119.756V147.905C0 151.312 2.43128 154.358 5.80246 154.804C9.88816 155.347 13.408 152.142 13.408 148.155V140.943C13.408 138.794 15.1871 137.134 17.3354 137.139C17.3498 137.139 17.3642 137.139 17.3786 137.139H60.4655C70.0227 137.139 77.8441 129.314 77.8441 119.751C77.8441 110.194 70.0227 102.369 60.4655 102.369Z" fill="#ADCB53"/>
<path d="M110.452 204.98H102.789C83.061 204.98 67.0107 188.922 67.0107 169.183V153.85C67.0107 152.924 67.7636 152.17 68.6891 152.17C69.6147 152.17 70.3675 152.924 70.3675 153.85V169.183C70.3675 187.07 84.9121 201.622 102.789 201.622H110.452C111.378 201.622 112.131 202.375 112.131 203.301C112.131 204.227 111.383 204.98 110.452 204.98Z" fill="#1A3C5B"/>
<path d="M73.274 192.621H65.611C53.5553 192.621 33.3809 192.621 30.1968 167.303C30.0817 166.381 30.7338 165.542 31.6546 165.427C32.5753 165.312 33.4145 165.964 33.5296 166.885C34.7572 176.658 38.7518 183.001 45.7339 186.283C51.5987 189.037 58.485 189.267 65.611 189.267H73.274C74.1995 189.267 74.9524 190.02 74.9524 190.946C74.9524 191.872 74.2043 192.621 73.274 192.621Z" fill="#1A3C5B"/>
<path d="M152.921 157.179H145.257C144.332 157.179 143.579 156.426 143.579 155.5C143.579 154.574 144.332 153.821 145.257 153.821H152.921C160.047 153.821 166.933 153.591 172.798 150.837C179.78 147.555 183.774 141.212 185.002 131.439C185.117 130.518 185.956 129.865 186.877 129.98C187.798 130.096 188.45 130.935 188.335 131.856C185.151 157.179 164.976 157.179 152.921 157.179Z" fill="#1A3C5B"/>
<path d="M110.477 135.445C109.824 135.445 109.201 135.061 108.933 134.423C108.568 133.569 108.966 132.586 109.82 132.221C121.871 127.097 129.658 115.371 129.658 102.34V87.0063C129.658 86.0803 130.411 85.3271 131.337 85.3271C132.262 85.3271 133.015 86.0803 133.015 87.0063V102.34C133.015 116.719 124.427 129.664 111.134 135.311C110.918 135.402 110.697 135.445 110.477 135.445Z" fill="#1A3C5B"/>
<path d="M118.116 170.004H110.453C109.527 170.004 108.774 169.251 108.774 168.325C108.774 167.399 109.527 166.645 110.453 166.645H118.116C135.993 166.645 150.538 152.094 150.538 134.207V118.874C150.538 117.948 151.291 117.194 152.216 117.194C153.142 117.194 153.895 117.948 153.895 118.874V134.207C153.899 153.946 137.849 170.004 118.116 170.004Z" fill="#1A3C5B"/>
<path d="M176.021 98.7322H197.562C207.12 98.7322 214.941 106.557 214.941 116.12C214.941 116.273 214.922 116.422 214.917 116.575C214.926 116.729 214.941 116.878 214.941 117.031V138.856C214.941 143.371 211.761 147.406 207.302 148.102C201.682 148.98 196.79 144.599 196.79 139.135V138.065C196.79 135.551 194.752 133.516 192.244 133.516C189.731 133.516 176.021 133.516 176.021 133.516C166.464 133.516 158.643 125.691 158.643 116.129C158.638 106.557 166.459 98.7322 176.021 98.7322Z" fill="#1A3C5B"/>
<path d="M65.5103 108.04H42.5738C38.3011 108.04 34.8101 104.542 34.8101 100.272V97.3792C34.8101 93.1044 38.3059 89.6115 42.5738 89.6115H65.5103C69.7831 89.6115 73.2741 93.1091 73.2741 97.3792V100.272C73.2789 104.547 69.7831 108.04 65.5103 108.04Z" fill="#ADCB53"/>
<path d="M159.29 87.0063H108.276C102.407 87.0063 97.6064 82.2037 97.6064 76.3312V72.3586C97.6064 66.486 102.407 61.6834 108.276 61.6834H159.29C165.16 61.6834 169.96 66.486 169.96 72.3586V76.3312C169.96 82.2037 165.155 87.0063 159.29 87.0063Z" fill="#1A3C5B"/>
<path d="M154.121 37.7855H145.954V35.9863C145.954 31.7546 142.492 28.2906 138.262 28.2906H97.2661C93.0365 28.2906 89.5742 31.7546 89.5742 35.9863V37.7855H83.8581C74.5502 37.7855 66.9351 45.4044 66.9351 54.717V61.0165C66.9351 70.3291 74.5502 77.948 83.8581 77.948H154.121C163.429 77.948 171.044 70.3291 171.044 61.0165V54.717C171.039 45.4044 163.424 37.7855 154.121 37.7855Z" fill="#ADCB53"/>
<path d="M201.02 125.111C201.02 116.388 193.889 109.254 185.171 109.254H155.031C146.313 109.254 139.183 116.388 139.183 125.111C139.183 133.833 146.313 140.967 155.031 140.967H185.171C185.228 140.967 185.291 140.967 185.348 140.967C186.959 140.948 188.384 141.85 189.161 143.261C190.383 145.482 192.901 146.902 195.682 146.475C198.804 145.996 201.024 143.165 201.024 140.008V128.205C201.024 127.788 200.981 127.38 200.904 126.982C200.967 126.368 201.02 125.744 201.02 125.111Z" fill="#ADCB53"/>
<path d="M31.928 54.5347C28.763 54.5347 26.1831 51.9582 26.1831 48.7869C26.1831 45.6203 28.7582 43.0391 31.928 43.0391C35.0978 43.0391 37.6729 45.6155 37.6729 48.7869C37.6729 51.9582 35.0978 54.5347 31.928 54.5347ZM31.928 46.3783C30.5997 46.3783 29.5207 47.4579 29.5207 48.7869C29.5207 50.1159 30.5997 51.1954 31.928 51.1954C33.2564 51.1954 34.3353 50.1159 34.3353 48.7869C34.3401 47.4579 33.2564 46.3783 31.928 46.3783Z" fill="#ADCB53"/>
<path d="M199.767 69.1872C193.432 69.1872 188.282 64.0295 188.282 57.6964C188.282 51.3633 193.437 46.2056 199.767 46.2056C206.097 46.2056 211.252 51.3633 211.252 57.6964C211.252 64.0295 206.097 69.1872 199.767 69.1872ZM199.767 52.8746C197.111 52.8746 194.948 55.0384 194.948 57.6964C194.948 60.3544 197.111 62.5182 199.767 62.5182C202.424 62.5182 204.587 60.3544 204.587 57.6964C204.582 55.0384 202.424 52.8746 199.767 52.8746Z" fill="#ADCB53"/>
<path d="M246.686 525.969C245.861 525.969 245.036 525.811 244.23 525.437C238.802 522.903 239.286 516.287 239.67 510.971C239.833 508.759 239.982 506.672 239.732 505.094C239.128 501.275 239.833 498.401 242.245 494.846C244.058 492.183 246.705 489.866 250.575 487.563C251.308 487.126 252.148 486.728 253.035 486.31C255.078 485.346 257.192 484.348 258.195 482.774C259.269 481.09 260.65 479.651 262.3 478.5C265.09 476.552 268.361 475.616 271.751 475.798C273.439 475.889 274.979 475.026 275.77 473.543C276.734 471.744 278.072 470.238 279.755 469.062C287.744 463.487 301.617 463.78 309.448 469.686C311.122 470.948 312.714 473.14 311.678 475.165C311.141 476.211 310.072 476.763 309.108 477.199C308.628 477.415 308.129 477.631 307.621 477.852C305.056 478.96 302.145 480.217 300.466 482.295C299.713 483.225 299.143 484.238 298.591 485.221C297.603 486.972 296.587 488.781 294.51 490.23C292.827 491.406 290.947 492.145 288.929 492.423C287.265 492.653 285.922 493.8 285.423 495.417C284.421 498.66 282.412 501.409 279.621 503.352C277.971 504.504 276.144 505.305 274.192 505.727C272.725 506.049 271.526 507.147 271.066 508.606C269.838 512.478 267.421 515.755 264.083 518.082C262.563 519.142 261.24 519.444 259.844 519.761C259.35 519.871 258.842 519.991 258.305 520.145C256.823 520.572 255.452 521.618 254.128 522.63C253.644 522.999 253.145 523.378 252.656 523.724C251.049 524.851 248.882 525.969 246.686 525.969ZM270.936 477.223C268.136 477.223 265.45 478.068 263.124 479.689C261.628 480.73 260.381 482.031 259.408 483.556C258.185 485.476 255.773 486.617 253.649 487.62C252.795 488.023 251.989 488.407 251.308 488.81C247.626 491.003 245.122 493.181 243.434 495.661C241.219 498.919 240.6 501.414 241.152 504.873C241.43 506.615 241.272 508.783 241.104 511.082C240.73 516.21 240.303 522.025 244.835 524.136C247.285 525.278 250.273 523.633 251.836 522.553C252.301 522.232 252.766 521.877 253.255 521.502C254.684 520.408 256.166 519.276 257.907 518.777C258.482 518.614 259.01 518.494 259.523 518.374C260.837 518.077 261.969 517.818 263.259 516.916C266.332 514.771 268.558 511.748 269.694 508.184C270.313 506.241 271.919 504.768 273.885 504.336C275.65 503.952 277.3 503.227 278.796 502.186C281.323 500.426 283.136 497.94 284.047 495.004C284.704 492.883 286.54 491.314 288.727 491.007C290.521 490.758 292.189 490.101 293.686 489.06C295.493 487.798 296.39 486.21 297.335 484.521C297.915 483.489 298.515 482.424 299.344 481.397C301.248 479.042 304.331 477.713 307.05 476.537C307.554 476.321 308.043 476.11 308.518 475.894C309.29 475.544 310.072 475.151 310.398 474.517C311.069 473.203 309.573 471.586 308.585 470.842C301.2 465.272 288.113 464.998 280.58 470.252C279.084 471.293 277.894 472.632 277.041 474.229C276 476.177 273.885 477.362 271.675 477.242C271.43 477.228 271.185 477.223 270.936 477.223Z" fill="#ADCB53"/>
<path d="M240.193 546.844C240.188 546.844 240.183 546.844 240.178 546.844C239.78 546.835 239.464 546.509 239.473 546.11C239.761 531.626 244.676 516.743 252.618 506.303C262.865 492.826 276.499 482.175 292.05 475.501C292.415 475.342 292.837 475.51 292.995 475.88C293.153 476.245 292.981 476.667 292.616 476.825C277.295 483.403 263.858 493.9 253.764 507.176C246 517.386 241.195 531.952 240.912 546.144C240.902 546.533 240.581 546.844 240.193 546.844Z" fill="#ADCB53"/>
<path d="M214.351 509.038C211.574 509.038 207.373 506.605 203.657 502.839C201.408 500.56 196.19 494.539 196.272 487.788C196.31 484.813 197.073 481.867 198.487 479.267C198.943 478.427 199.47 477.617 200.056 476.859C200.981 475.654 201.197 474.042 200.617 472.656C199.849 470.813 199.461 468.856 199.461 466.841C199.461 463.434 200.564 460.22 202.65 457.538C203.69 456.204 203.863 454.448 203.101 452.951C202.175 451.133 201.705 449.17 201.705 447.117C201.705 443.221 204.088 437.862 206.318 434.143C207.431 432.287 211.315 426.237 214.6 426.237C220.139 426.237 227.495 440.563 227.495 447.117C227.495 449.17 227.025 451.133 226.099 452.951C225.337 454.448 225.51 456.204 226.55 457.538C228.636 460.22 229.739 463.434 229.739 466.841C229.739 468.856 229.351 470.808 228.583 472.656C228.008 474.042 228.224 475.659 229.154 476.868C231.624 480.092 232.928 483.945 232.928 488.018C232.933 498.444 222.124 509.038 214.351 509.038ZM199.749 479.953C198.449 482.347 197.739 485.063 197.711 487.802C197.658 492.111 200.267 497.35 204.683 501.826C208.093 505.281 211.977 507.598 214.355 507.598C221.438 507.598 231.499 497.47 231.499 488.013C231.499 484.262 230.295 480.711 228.022 477.741C226.78 476.124 226.493 473.961 227.265 472.099C227.96 470.429 228.31 468.659 228.31 466.841C228.31 463.76 227.313 460.848 225.423 458.425C224.061 456.674 223.826 454.27 224.824 452.298C225.644 450.682 226.061 448.94 226.061 447.117C226.061 440.213 218.671 427.676 214.605 427.676C211.181 427.676 203.149 440.232 203.149 447.117C203.149 448.94 203.566 450.686 204.386 452.298C205.388 454.266 205.153 456.674 203.786 458.425C201.897 460.848 200.9 463.76 200.9 466.841C200.9 468.664 201.25 470.434 201.945 472.099C202.722 473.961 202.434 476.12 201.197 477.732C200.655 478.427 200.171 479.176 199.749 479.953Z" fill="#ADCB53"/>
<path d="M214.6 539.931C214.202 539.931 213.881 539.609 213.881 539.211V442.473C213.881 442.074 214.202 441.753 214.6 441.753C214.998 441.753 215.319 442.074 215.319 442.473V539.211C215.319 539.609 214.998 539.931 214.6 539.931Z" fill="#ADCB53"/>
<path d="M289.596 578.918C288.929 579.777 287.85 580.391 286.781 580.861C283.769 582.175 280.456 582.78 277.171 583.341C265.547 585.332 253.256 586.858 242.107 583.284C239.181 582.343 233.767 580.295 233.82 577.138C233.883 573.707 236.333 569.37 237.671 566.218C239.541 561.814 241.704 557.495 244.274 553.389C248.077 547.315 254.383 538.256 263.231 538.256C272.045 538.256 278.336 547.252 282.134 553.307C284.676 557.356 286.819 561.612 288.675 565.954C290.027 569.116 292.07 575.718 289.596 578.918Z" fill="#C8D3DD"/>
<path d="M180.61 581.24C180.183 581.792 179.488 582.19 178.797 582.492C176.86 583.337 174.721 583.73 172.606 584.09C165.121 585.371 157.208 586.355 150.025 584.052C148.14 583.447 144.654 582.128 144.687 580.093C144.726 577.886 146.308 575.089 147.166 573.06C148.37 570.224 149.761 567.442 151.42 564.798C153.87 560.883 157.932 555.054 163.629 555.054C169.307 555.054 173.359 560.849 175.805 564.745C177.44 567.355 178.821 570.095 180.015 572.892C180.888 574.926 182.202 579.177 180.61 581.24Z" fill="#C8D3DD"/>
<path d="M69.4379 462.23C45.5471 462.23 26.1064 442.784 26.1064 418.877V382.399C26.1064 376.982 30.4943 372.592 35.9083 372.592C41.3223 372.592 45.7101 376.982 45.7101 382.399V418.877C45.7101 431.97 56.356 442.616 69.4379 442.616C74.8519 442.616 79.2397 447.006 79.2397 452.423C79.2397 457.84 74.8519 462.23 69.4379 462.23Z" fill="#ADCB53"/>
<path d="M69.4381 533.118C64.024 533.118 59.6362 528.728 59.6362 523.311V336.484C59.6362 331.067 64.024 326.677 69.4381 326.677C74.8521 326.677 79.2399 331.067 79.2399 336.484V523.311C79.2399 528.728 74.8521 533.118 69.4381 533.118Z" fill="#ADCB53"/>
<path d="M69.4377 453.047C50.6061 453.047 35.2896 437.718 35.2896 418.882V386.837C35.2896 386.496 35.5677 386.218 35.9082 386.218C36.2486 386.218 36.5268 386.496 36.5268 386.837V418.882C36.5268 437.037 51.2919 451.809 69.4377 451.809C69.7782 451.809 70.0564 452.087 70.0564 452.428C70.0564 452.769 69.783 453.047 69.4377 453.047Z" fill="#11283C"/>
<path d="M31.2417 387.067C31.2417 384.486 33.3325 382.394 35.9124 382.394C38.4924 382.394 40.5784 384.486 40.5784 387.067C40.5784 389.648 38.4876 391.736 35.9124 391.736C33.3325 391.74 31.2417 389.648 31.2417 387.067Z" fill="#11283C"/>
<path d="M69.4384 506.495C69.098 506.495 68.8198 506.216 68.8198 505.876V340.922C68.8198 340.581 69.098 340.303 69.4384 340.303C69.7789 340.303 70.057 340.581 70.057 340.922V505.876C70.0618 506.216 69.7837 506.495 69.4384 506.495Z" fill="#11283C"/>
<path d="M73.975 342.243C74.5678 339.732 73.0132 337.215 70.5028 336.622C67.9923 336.029 65.4767 337.584 64.8839 340.096C64.2911 342.607 65.8457 345.124 68.3561 345.717C70.8665 346.31 73.3822 344.755 73.975 342.243Z" fill="#11283C"/>
<path d="M96.5457 570.325C94.0137 561.78 91.2084 553.36 88.1393 545.098C82.6438 530.302 76.6159 506.922 62.6181 501.419C49.0231 496.074 38.8999 514.325 33.4476 526.511C27.0601 540.79 21.507 555.653 16.8554 570.958C13.8007 581.01 9.88285 602.624 9.13477 613.112" fill="#11283C"/>
<path d="M9.13567 613.904C9.11649 613.904 9.09731 613.904 9.07813 613.904C8.64175 613.87 8.31086 613.491 8.33963 613.054C9.1069 602.355 13.0919 580.597 16.0938 570.723C20.7358 555.452 26.3321 540.468 32.7243 526.185C42.1617 505.089 52.3184 496.51 62.9115 500.675C75.1878 505.502 81.4123 523.431 86.4091 537.834C87.2675 540.31 88.0827 542.651 88.8883 544.82C91.9526 553.077 94.7867 561.578 97.3139 570.099C97.4386 570.522 97.1988 570.963 96.7768 571.088C96.3548 571.213 95.9136 570.973 95.7889 570.55C93.2761 562.063 90.4516 553.595 87.3969 545.371C86.5865 543.188 85.7713 540.838 84.9081 538.352C80.0168 524.256 73.9266 506.711 62.3313 502.153C52.6733 498.353 43.2023 506.658 34.1774 526.833C27.8138 541.053 22.2416 555.979 17.6188 571.184C14.6408 580.976 10.6894 602.552 9.92692 613.165C9.89815 613.582 9.54808 613.904 9.13567 613.904Z" fill="#C8D3DD"/>
<path d="M47.1676 614.143C46.7264 614.143 46.3716 613.788 46.3716 613.347V535.291C46.3716 534.85 46.7264 534.495 47.1676 534.495C47.6088 534.495 47.9637 534.85 47.9637 535.291V613.347C47.9637 613.788 47.6088 614.143 47.1676 614.143Z" fill="#C8D3DD"/>
<path d="M51.9478 535.531C51.9478 532.888 49.8043 530.743 47.1668 530.743C44.5293 530.743 42.3857 532.888 42.3857 535.531C42.3857 538.175 44.5293 540.315 47.1668 540.315C49.8043 540.315 51.9478 538.175 51.9478 535.531Z" fill="#C8D3DD"/>
<path d="M69.7877 614.623C69.3466 614.623 68.9917 614.268 68.9917 613.827V567.518C68.9917 567.077 69.3466 566.722 69.7877 566.722C70.2289 566.722 70.5838 567.077 70.5838 567.518V613.827C70.5838 614.268 70.2241 614.623 69.7877 614.623Z" fill="#C8D3DD"/>
<path d="M74.5688 567.753C74.5688 565.11 72.4253 562.965 69.7878 562.965C67.1455 562.965 65.002 565.11 65.002 567.753C65.002 570.397 67.1455 572.537 69.7878 572.537C72.4301 572.542 74.5688 570.397 74.5688 567.753Z" fill="#C8D3DD"/>
<path d="M58.3024 614.144C57.8612 614.144 57.5063 613.789 57.5063 613.347V552.16C57.5063 551.719 57.8612 551.364 58.3024 551.364C58.7436 551.364 59.0984 551.719 59.0984 552.16V613.347C59.0936 613.789 58.7388 614.144 58.3024 614.144Z" fill="#C8D3DD"/>
<path d="M63.084 552.4C63.084 549.757 60.9404 547.612 58.3029 547.612C55.6654 547.612 53.5171 549.757 53.5171 552.4C53.5171 555.044 55.6606 557.184 58.3029 557.184C60.9452 557.184 63.084 555.044 63.084 552.4Z" fill="#C8D3DD"/>
<path d="M259.734 596.886C258.708 591.714 255.955 585.851 254.622 581.979C252.09 574.605 249.285 567.341 246.216 560.206C240.72 547.439 234.693 527.26 220.695 522.51C207.1 517.894 196.977 533.65 191.524 544.167C186.518 553.82 182.034 563.79 178.087 574C178.648 573.923 179.234 573.933 179.814 574.038C190.733 576.077 199.921 584.306 206.428 592.889C212.274 600.594 216.643 610.099 216.321 619.867C231.504 619.805 254.454 616.984 259.586 603.775C260.329 601.875 260.247 599.467 259.734 596.886Z" fill="#1A3C5B"/>
<path d="M149.095 538.679C132.493 538.679 118.984 525.163 118.984 508.553C118.984 502.652 122.826 489.184 141.134 458.521C142.827 455.691 145.8 453.997 149.095 453.997C152.389 453.997 155.362 455.686 157.055 458.521C175.364 489.184 179.205 502.652 179.205 508.553C179.205 525.163 165.697 538.679 149.095 538.679ZM149.095 455.59C146.366 455.59 143.901 456.991 142.501 459.337C134.311 473.049 120.572 497.681 120.572 508.553C120.572 524.29 133.366 537.09 149.095 537.09C164.824 537.09 177.618 524.29 177.618 508.553C177.618 497.686 163.879 473.054 155.689 459.337C154.288 456.991 151.823 455.59 149.095 455.59Z" fill="#C8D3DD"/>
<path d="M149.099 501.639C143.215 501.639 138.108 497.446 136.952 491.67C136.866 491.238 137.144 490.82 137.576 490.734C138.007 490.648 138.424 490.926 138.511 491.358C139.518 496.395 143.968 500.051 149.099 500.051C154.225 500.051 158.68 496.395 159.687 491.358C159.774 490.926 160.191 490.648 160.622 490.734C161.054 490.82 161.332 491.238 161.246 491.67C160.09 497.446 154.983 501.639 149.099 501.639Z" fill="#C8D3DD"/>
<path d="M158.062 491.377C158.201 490.062 159.376 489.107 160.69 489.247C162.004 489.386 162.958 490.561 162.819 491.876C162.68 493.19 161.505 494.145 160.191 494.006C158.877 493.872 157.923 492.691 158.062 491.377Z" fill="#C8D3DD"/>
<path d="M140.136 491.377C139.997 490.062 138.822 489.107 137.508 489.247C136.194 489.386 135.24 490.561 135.379 491.876C135.518 493.19 136.693 494.145 138.007 494.006C139.321 493.872 140.275 492.691 140.136 491.377Z" fill="#C8D3DD"/>
<path d="M149.098 523.11C140.097 523.11 132.415 516.378 131.231 507.45C131.173 507.013 131.48 506.615 131.912 506.557C132.348 506.5 132.746 506.807 132.803 507.238C133.887 515.38 140.893 521.517 149.098 521.517C157.303 521.517 164.309 515.38 165.393 507.238C165.451 506.802 165.849 506.495 166.285 506.557C166.721 506.615 167.028 507.013 166.966 507.45C165.782 516.373 158.099 523.11 149.098 523.11Z" fill="#C8D3DD"/>
<path d="M163.759 507.272C163.859 505.953 165.01 504.969 166.329 505.075C167.648 505.175 168.631 506.327 168.525 507.646C168.424 508.966 167.274 509.949 165.955 509.844C164.641 509.743 163.658 508.591 163.759 507.272Z" fill="#C8D3DD"/>
<path d="M134.439 507.272C134.339 505.953 133.188 504.969 131.869 505.075C130.55 505.175 129.567 506.327 129.673 507.646C129.773 508.966 130.924 509.949 132.243 509.844C133.557 509.743 134.54 508.591 134.439 507.272Z" fill="#C8D3DD"/>
<path d="M149.104 571.735C148.663 571.735 148.308 571.38 148.308 570.939V478.638C148.308 478.197 148.663 477.842 149.104 477.842C149.545 477.842 149.9 478.197 149.9 478.638V570.939C149.9 571.38 149.545 571.735 149.104 571.735Z" fill="#C8D3DD"/>
<path d="M146.711 478.759C146.711 477.439 147.78 476.364 149.104 476.364C150.423 476.364 151.497 477.434 151.497 478.759C151.497 480.078 150.427 481.153 149.104 481.153C147.785 481.153 146.711 480.078 146.711 478.759Z" fill="#C8D3DD"/>
<path d="M148.352 566.132C145.355 559.127 142.41 553.921 135.912 548.313C133.668 546.374 131.366 544.402 128.499 543.184C123.526 541.073 117.93 542.167 113.964 545.18C106.349 550.961 101.851 559.189 98.4218 567.158C96.096 572.561 90.845 581.686 92.4659 588.149C98.5944 580.659 108.243 575.3 117.795 579.57C123.722 582.219 130.086 587.588 132.915 593.911C133.141 594.151 133.342 594.41 133.5 594.703C134.172 595.926 134.79 597.183 135.356 598.459C144.156 597.327 153.209 594.818 156.259 590.006C156.945 588.926 157.319 587.794 157.449 586.623C158.216 579.777 150.721 571.668 148.352 566.132Z" fill="#1A3C5B"/>
<path d="M139.345 599.15C138.976 599.15 138.66 598.867 138.631 598.493C137.988 590.936 140.232 583.222 144.942 576.773C146.246 574.988 148.917 573.079 152.164 573.549C152.557 573.607 152.83 573.971 152.773 574.365C152.715 574.758 152.351 575.032 151.957 574.974C149.344 574.59 147.171 576.164 146.102 577.622C141.594 583.792 139.451 591.157 140.06 598.373C140.093 598.771 139.801 599.117 139.403 599.15C139.384 599.15 139.365 599.15 139.345 599.15Z" fill="#11283C"/>
<path d="M127.506 602.902C127.113 602.902 126.792 602.581 126.787 602.187C126.701 589.195 131.189 577.258 139.758 567.657C140.756 566.54 142.54 565.403 144.098 564.899C145.47 564.457 146.995 564.505 148.63 565.047C149.009 565.172 149.21 565.58 149.086 565.959C148.961 566.338 148.553 566.54 148.174 566.415C146.817 565.964 145.628 565.916 144.544 566.266C143.23 566.693 141.672 567.677 140.837 568.612C132.508 577.944 128.149 589.55 128.23 602.178C128.225 602.576 127.904 602.902 127.506 602.902Z" fill="#11283C"/>
<path d="M116.098 602.048C116.084 602.048 116.065 602.048 116.05 602.048C115.652 602.024 115.355 601.679 115.379 601.285C116.352 586.383 122.466 572.369 133.055 560.758C135.366 558.225 139.514 555.476 143.6 556.075C143.993 556.133 144.266 556.498 144.209 556.891C144.151 557.284 143.787 557.558 143.394 557.5C140.094 557.021 136.354 559.28 134.119 561.732C123.752 573.098 117.767 586.81 116.813 601.381C116.789 601.755 116.472 602.048 116.098 602.048Z" fill="#11283C"/>
<path d="M180.231 448.465C182.832 448.465 184.94 446.356 184.94 443.754C184.94 441.152 182.832 439.042 180.231 439.042C177.63 439.042 175.522 441.152 175.522 443.754C175.522 446.356 177.63 448.465 180.231 448.465Z" fill="#C8D3DD"/>
<path d="M180.231 427.014C184.749 427.014 188.412 423.349 188.412 418.829C188.412 414.308 184.749 410.644 180.231 410.644C175.713 410.644 172.05 414.308 172.05 418.829C172.05 423.349 175.713 427.014 180.231 427.014Z" fill="#C8D3DD"/>
<path d="M440.327 629.492H291.309C289.835 629.492 288.637 629.137 288.637 628.7C288.637 628.264 289.835 627.909 291.309 627.909H440.327C441.801 627.909 443 628.264 443 628.7C443 629.137 441.801 629.492 440.327 629.492Z" fill="#ADCB53"/>
<path d="M233.321 630.451C232.885 630.451 232.53 630.096 232.53 629.66V578.755C232.53 578.318 232.885 577.963 233.321 577.963C233.757 577.963 234.112 578.318 234.112 578.755V629.66C234.112 630.096 233.757 630.451 233.321 630.451Z" fill="#ADCB53"/>
<path d="M236.299 578.904C236.299 577.258 234.966 575.924 233.321 575.924C231.676 575.924 230.343 577.258 230.343 578.904C230.343 580.549 231.676 581.883 233.321 581.883C234.966 581.883 236.299 580.554 236.299 578.904Z" fill="#ADCB53"/>
<path d="M199.273 630.451C198.837 630.451 198.482 630.096 198.482 629.66V608.501C198.482 608.065 198.837 607.71 199.273 607.71C199.71 607.71 200.064 608.065 200.064 608.501V629.66C200.064 630.096 199.71 630.451 199.273 630.451Z" fill="#ADCB53"/>
<path d="M202.251 608.65C202.251 607.004 200.918 605.671 199.273 605.671C197.628 605.671 196.295 607.004 196.295 608.65C196.295 610.296 197.628 611.629 199.273 611.629C200.918 611.629 202.251 610.301 202.251 608.65Z" fill="#ADCB53"/>
<path d="M248.667 630.931C248.231 630.931 247.876 630.576 247.876 630.139V599.433C247.876 598.997 248.231 598.642 248.667 598.642C249.104 598.642 249.458 598.997 249.458 599.433V630.139C249.458 630.576 249.104 630.931 248.667 630.931Z" fill="#ADCB53"/>
<path d="M207.427 628.052C206.991 628.052 206.636 627.697 206.636 627.261V596.555C206.636 596.118 206.991 595.763 207.427 595.763C207.863 595.763 208.218 596.118 208.218 596.555V627.261C208.218 627.697 207.863 628.052 207.427 628.052Z" fill="#ADCB53"/>
<path d="M218.806 583.202C219.003 583.025 219.19 582.833 219.367 582.622C220.182 581.629 220.125 580.146 219.199 579.215L217.305 577.32C211.934 571.947 203.139 571.947 197.768 577.32L195.874 579.215C194.949 580.141 194.891 581.624 195.706 582.622C195.879 582.833 196.047 583.054 196.2 583.274C197.485 585.107 199.552 585.913 201.173 587.458C203.322 589.507 204.247 592.774 206.947 594.242C210.27 596.051 212.164 593.532 213.699 590.716C214.696 588.888 215.473 586.935 216.658 585.217C217.238 584.368 218.072 583.869 218.806 583.202Z" fill="white"/>
<path d="M208.031 598.037C205.71 597.394 203.293 597.097 200.886 597.15C198.627 597.198 196.445 597.836 194.206 597.793C193.995 597.788 193.779 597.793 193.568 597.807C192.571 597.865 191.664 597.15 191.506 596.142L191.185 594.084C190.269 588.245 194.292 582.718 200.128 581.801L202.185 581.48C203.192 581.322 204.151 581.965 204.401 582.934C204.454 583.14 204.516 583.342 204.583 583.543C205.379 585.865 206.281 588.149 206.957 590.509C207.643 592.913 207.873 595.302 208.089 597.778" fill="#C8D3DD"/>
<path d="M207.925 598.032C208.808 598.066 209.901 597.385 210.774 597.169C211.886 596.895 213.032 596.737 214.179 596.703C216.097 596.641 218.029 596.91 219.852 597.509C221.223 597.96 223.261 598.023 223.558 596.142L223.88 594.084C224.796 588.245 220.772 582.718 214.936 581.801L212.879 581.48C211.872 581.322 210.913 581.965 210.664 582.934C210.611 583.14 210.548 583.342 210.481 583.543L207.532 592.141C207.23 593.038 206.928 593.921 206.813 594.856C206.698 595.792 206.774 596.785 207.201 597.629C207.283 597.793 207.379 597.951 207.523 598.061C207.666 598.172 207.758 598.1 207.925 598.032Z" fill="#C8D3DD"/>
<path d="M210.544 597.754C210.544 596.166 209.254 596.315 207.666 596.315C206.079 596.315 204.789 596.166 204.789 597.754C204.789 599.342 206.079 602.072 207.666 602.072C209.254 602.072 210.544 599.342 210.544 597.754Z" fill="#ADCB53"/>
<path d="M308.609 629.492C308.172 629.492 307.817 629.137 307.817 628.7V598.474C307.817 598.037 308.172 597.682 308.609 597.682C309.045 597.682 309.4 598.037 309.4 598.474V628.7C309.4 629.137 309.045 629.492 308.609 629.492Z" fill="#ADCB53"/>
<path d="M309.98 597.035C308.416 596.42 306.762 596.037 305.088 595.893C303.515 595.758 301.957 596.041 300.408 595.85C300.259 595.83 300.115 595.821 299.967 595.811C299.271 595.778 298.696 595.216 298.658 594.506L298.586 593.052C298.379 588.936 301.573 585.4 305.688 585.189L307.141 585.117C307.85 585.078 308.469 585.597 308.57 586.287C308.594 586.436 308.618 586.58 308.651 586.724C309.035 588.394 309.49 590.044 309.788 591.728C310.085 593.446 310.075 595.12 310.042 596.852" fill="white"/>
<path d="M309.103 596.675C309.716 596.627 310.416 596.065 311.006 595.845C311.754 595.566 312.536 595.365 313.327 595.245C314.651 595.043 316.008 595.072 317.322 595.341C318.31 595.542 319.724 595.418 319.777 594.089L319.835 592.635C319.993 588.518 316.756 585.016 312.642 584.858L311.189 584.8C310.479 584.771 309.87 585.294 309.774 585.985C309.755 586.134 309.726 586.278 309.697 586.422L308.354 592.616C308.22 593.263 308.081 593.897 308.076 594.559C308.072 595.221 308.206 595.897 308.57 596.449C308.637 596.555 308.719 596.656 308.829 596.723C308.935 596.79 308.992 596.737 309.103 596.675Z" fill="white"/>
<path d="M311.485 595.835C311.485 594.247 310.195 594.396 308.608 594.396C307.021 594.396 305.731 594.247 305.731 595.835C305.731 597.423 307.021 600.153 308.608 600.153C310.195 600.153 311.485 597.423 311.485 595.835Z" fill="#ADCB53"/>
<path d="M250.187 605.541C248.623 604.927 246.969 604.543 245.295 604.399C243.722 604.265 242.164 604.548 240.615 604.356C240.466 604.337 240.322 604.327 240.174 604.318C239.478 604.284 238.903 603.723 238.865 603.013L238.793 601.559C238.586 597.442 241.78 593.906 245.895 593.695L247.348 593.623C248.057 593.59 248.676 594.103 248.777 594.794C248.801 594.943 248.825 595.086 248.858 595.23C249.242 596.9 249.697 598.551 249.995 600.235C250.297 601.952 250.283 603.627 250.249 605.359" fill="white"/>
<path d="M249.314 605.181C249.928 605.133 250.628 604.572 251.218 604.351C251.966 604.073 252.747 603.871 253.539 603.751C254.862 603.55 256.219 603.579 257.533 603.847C258.521 604.049 259.936 603.924 259.989 602.595L260.046 601.141C260.204 597.025 256.967 593.522 252.853 593.364L251.4 593.307C250.69 593.278 250.081 593.801 249.985 594.492C249.966 594.64 249.937 594.784 249.909 594.928L248.566 601.122C248.432 601.77 248.293 602.403 248.288 603.065C248.283 603.727 248.417 604.404 248.782 604.956C248.849 605.061 248.93 605.162 249.041 605.229C249.146 605.296 249.204 605.244 249.314 605.181Z" fill="white"/>
<path d="M251.692 604.341C251.692 602.753 250.403 602.902 248.815 602.902C247.228 602.902 245.938 602.753 245.938 604.341C245.938 605.93 247.228 608.66 248.815 608.66C250.407 608.66 251.692 605.93 251.692 604.341Z" fill="#ADCB53"/>
<path d="M146.942 629.708C146.548 629.708 146.213 629.42 146.155 629.022C145.167 621.666 143.091 614.446 139.993 607.571C135.385 597.346 129.045 588.974 121.152 582.694C113.335 576.471 104.31 577.047 96.3932 584.267C87.6847 592.213 80.5443 608.333 77.2882 627.4C77.2163 627.832 76.8086 628.12 76.3723 628.048C75.9407 627.976 75.653 627.563 75.7249 627.131C79.0337 607.734 86.3611 591.272 95.3238 583.097C103.874 575.296 113.647 574.696 122.135 581.456C130.225 587.895 136.718 596.464 141.432 606.918C144.597 613.937 146.712 621.302 147.723 628.81C147.781 629.242 147.479 629.645 147.042 629.703C147.009 629.703 146.975 629.708 146.942 629.708Z" fill="#ADCB53"/>
<path d="M130.278 630.197C129.861 630.197 129.511 629.871 129.487 629.449C129.204 624.166 129.669 618.879 130.872 613.726C131.505 611.025 132.867 607.561 135.793 606.39C138.958 605.124 141.504 607.465 142.837 610.08C143.034 610.468 142.88 610.948 142.492 611.145C142.103 611.342 141.624 611.188 141.427 610.799C140.938 609.835 139.121 606.765 136.387 607.863C133.975 608.828 132.867 612.181 132.421 614.091C131.251 619.095 130.801 624.233 131.074 629.367C131.098 629.804 130.762 630.178 130.326 630.202C130.302 630.197 130.292 630.197 130.278 630.197Z" fill="#ADCB53"/>
<path d="M120.524 629.41C120.111 629.41 119.766 629.094 119.733 628.676C119.263 622.41 119.545 616.092 120.572 609.898C120.97 607.479 121.507 604.922 122.73 602.605C124.101 599.995 126.158 598.138 128.518 597.38C131.635 596.373 136.43 598.028 138.19 600.715C138.43 601.079 138.329 601.573 137.96 601.813C137.595 602.053 137.102 601.952 136.862 601.583C135.485 599.486 131.448 598.1 129.002 598.887C127.07 599.51 125.29 601.132 124.13 603.339C123.017 605.455 122.514 607.863 122.135 610.152C121.133 616.226 120.855 622.415 121.315 628.556C121.349 628.993 121.022 629.372 120.581 629.406C120.562 629.406 120.543 629.41 120.524 629.41Z" fill="#ADCB53"/>
<path d="M107.562 629.391C107.13 629.391 106.78 629.046 106.77 628.614C106.598 621.052 107.576 614.168 109.945 606.294L110.209 605.407C111.993 599.433 114.688 590.404 120.452 587.252C125.108 584.704 128.8 588.355 131.246 590.773C131.558 591.08 131.558 591.584 131.251 591.896C130.944 592.208 130.441 592.208 130.129 591.901C127.232 589.032 124.561 586.81 121.214 588.643C116.025 591.483 113.441 600.134 111.734 605.862L111.47 606.75C109.154 614.455 108.195 621.187 108.362 628.58C108.372 629.017 108.027 629.381 107.59 629.391C107.571 629.391 107.566 629.391 107.562 629.391Z" fill="#ADCB53"/>
<path d="M270.246 630.931H147.004C146.567 630.931 146.212 630.576 146.212 630.139C146.212 629.703 146.567 629.348 147.004 629.348H270.246C270.682 629.348 271.037 629.703 271.037 630.139C271.037 630.576 270.682 630.931 270.246 630.931Z" fill="#ADCB53"/>
<path d="M47.2593 612.867H0.26416V613.827H47.2593V612.867Z" fill="#C8D3DD"/>
<path d="M37.9083 619.344H13.9312V620.304H37.9083V619.344Z" fill="#C8D3DD"/>
<path d="M442.228 628.924C441.835 628.924 441.499 628.636 441.441 628.238C440.454 620.883 438.377 613.662 435.279 606.787C430.671 596.563 424.331 588.191 416.438 581.91C408.622 575.687 399.597 576.263 391.679 583.484C382.971 591.429 375.83 607.55 372.574 626.616C372.502 627.048 372.095 627.336 371.658 627.264C371.227 627.192 370.939 626.779 371.011 626.348C374.32 606.95 381.647 590.489 390.61 582.313C399.16 574.512 408.933 573.912 417.421 580.672C425.511 587.111 432.004 595.68 436.718 606.134C439.883 613.154 441.998 620.518 443.009 628.027C443.067 628.459 442.765 628.862 442.329 628.919C442.295 628.919 442.261 628.924 442.228 628.924Z" fill="#ADCB53"/>
<path d="M425.564 629.414C425.147 629.414 424.797 629.087 424.773 628.665C424.49 623.383 424.955 618.095 426.159 612.943C426.792 610.241 428.153 606.777 431.079 605.607C434.244 604.34 436.79 606.681 438.123 609.296C438.32 609.685 438.166 610.165 437.778 610.361C437.389 610.558 436.91 610.405 436.713 610.016C436.224 609.052 434.407 605.981 431.673 607.08C429.261 608.044 428.153 611.398 427.708 613.307C426.537 618.311 426.087 623.45 426.36 628.583C426.384 629.02 426.048 629.394 425.612 629.418C425.588 629.414 425.578 629.414 425.564 629.414Z" fill="#ADCB53"/>
<path d="M415.81 628.627C415.397 628.627 415.052 628.31 415.019 627.893C414.549 621.627 414.832 615.308 415.858 609.114C416.256 606.696 416.793 604.139 418.016 601.821C419.387 599.211 421.445 597.355 423.804 596.597C426.921 595.589 431.716 597.244 433.476 599.931C433.716 600.296 433.615 600.79 433.246 601.03C432.882 601.27 432.388 601.169 432.148 600.799C430.772 598.703 426.734 597.316 424.288 598.103C422.356 598.727 420.577 600.348 419.416 602.555C418.304 604.671 417.8 607.08 417.421 609.368C416.419 615.442 416.141 621.632 416.601 627.773C416.635 628.209 416.309 628.588 415.867 628.622C415.848 628.622 415.829 628.627 415.81 628.627Z" fill="#ADCB53"/>
<path d="M402.848 628.607C402.416 628.607 402.066 628.262 402.056 627.83C401.884 620.269 402.862 613.384 405.231 605.511L405.495 604.623C407.279 598.65 409.974 589.62 415.738 586.468C420.394 583.921 424.087 587.572 426.532 589.99C426.844 590.297 426.844 590.801 426.537 591.113C426.23 591.424 425.727 591.424 425.415 591.117C422.518 588.248 419.847 586.027 416.5 587.86C411.312 590.7 408.727 599.35 407.02 605.079L406.756 605.967C404.44 613.672 403.481 620.403 403.649 627.797C403.658 628.233 403.313 628.598 402.876 628.607C402.857 628.607 402.852 628.607 402.848 628.607Z" fill="#ADCB53"/>
<path d="M675.389 635.734C674.948 635.734 674.593 635.379 674.593 634.937V551.589C674.593 551.148 674.948 550.793 675.389 550.793C675.83 550.793 676.185 551.148 676.185 551.589V634.937C676.18 635.379 675.825 635.734 675.389 635.734Z" fill="#C8D3DD"/>
<path d="M680.169 551.829C680.169 549.186 678.026 547.041 675.384 547.041C672.741 547.041 670.603 549.186 670.603 551.829C670.603 554.473 672.746 556.613 675.384 556.613C678.021 556.613 680.169 554.468 680.169 551.829Z" fill="#C8D3DD"/>
<path d="M661.515 635.734C661.074 635.734 660.719 635.379 660.719 634.937V565.57C660.719 565.129 661.074 564.774 661.515 564.774C661.956 564.774 662.311 565.129 662.311 565.57V634.937C662.311 635.379 661.951 635.734 661.515 635.734Z" fill="#C8D3DD"/>
<path d="M666.297 565.81C666.297 563.167 664.153 561.022 661.511 561.022C658.869 561.022 656.725 563.167 656.725 565.81C656.725 568.454 658.869 570.594 661.511 570.594C664.158 570.598 666.297 568.454 666.297 565.81Z" fill="#C8D3DD"/>
<path d="M690.369 635.494C689.928 635.494 689.573 635.139 689.573 634.698V565.57C689.573 565.129 689.928 564.774 690.369 564.774C690.81 564.774 691.165 565.129 691.165 565.57V634.698C691.165 635.139 690.81 635.494 690.369 635.494Z" fill="#C8D3DD"/>
<path d="M695.155 565.81C695.155 563.167 693.011 561.022 690.374 561.022C687.736 561.022 685.588 563.167 685.588 565.81C685.588 568.454 687.731 570.594 690.374 570.594C693.016 570.594 695.155 568.454 695.155 565.81Z" fill="#C8D3DD"/>
<path d="M700.645 635.307C700.612 635.307 700.574 635.307 700.54 635.297C700.108 635.24 699.801 634.841 699.859 634.405C700.866 626.896 702.986 619.532 706.151 612.512C710.864 602.053 717.357 593.489 725.447 587.05C733.935 580.295 743.708 580.89 752.259 588.691C757.486 593.46 761.111 599.361 764.612 605.066C766.923 608.828 769.306 612.719 772.131 616.231H874.657C875.093 616.231 875.448 616.586 875.448 617.022C875.448 617.459 875.093 617.814 874.657 617.814H771.752C771.512 617.814 771.287 617.708 771.138 617.521C768.146 613.851 765.662 609.802 763.259 605.891C759.816 600.278 756.253 594.472 751.189 589.857C743.272 582.636 734.247 582.061 726.43 588.283C718.537 594.564 712.202 602.936 707.589 613.16C704.487 620.04 702.415 627.256 701.427 634.611C701.374 635.014 701.034 635.307 700.645 635.307Z" fill="#ADCB53"/>
<path d="M717.31 635.796C717.295 635.796 717.281 635.796 717.266 635.796C716.83 635.772 716.494 635.398 716.518 634.961C716.792 629.828 716.341 624.689 715.171 619.685C714.725 617.776 713.617 614.427 711.205 613.458C708.472 612.364 706.654 615.429 706.165 616.394C705.968 616.782 705.489 616.941 705.1 616.739C704.712 616.542 704.554 616.063 704.755 615.674C706.083 613.059 708.635 610.718 711.8 611.985C714.725 613.155 716.092 616.619 716.72 619.32C717.923 624.473 718.389 629.761 718.106 635.043C718.077 635.47 717.727 635.796 717.31 635.796Z" fill="#ADCB53"/>
<path d="M727.059 635.009C727.04 635.009 727.02 635.009 727.001 635.009C726.565 634.976 726.239 634.597 726.268 634.16C726.728 628.024 726.45 621.83 725.448 615.756C725.069 613.467 724.565 611.059 723.453 608.943C722.292 606.736 720.513 605.114 718.58 604.49C716.135 603.703 712.092 605.09 710.721 607.187C710.481 607.551 709.987 607.657 709.623 607.417C709.258 607.177 709.153 606.683 709.392 606.318C711.152 603.632 715.948 601.981 719.065 602.984C721.424 603.742 723.481 605.599 724.853 608.209C726.071 610.526 726.613 613.083 727.011 615.501C728.032 621.7 728.315 628.019 727.85 634.28C727.816 634.693 727.471 635.009 727.059 635.009Z" fill="#ADCB53"/>
<path d="M740.026 634.99C740.021 634.99 740.011 634.99 740.006 634.99C739.57 634.981 739.22 634.616 739.234 634.179C739.402 626.791 738.443 620.059 736.127 612.349L735.863 611.462C734.156 605.738 731.571 597.087 726.383 594.242C723.031 592.409 720.364 594.631 717.468 597.5C717.156 597.807 716.653 597.807 716.346 597.495C716.039 597.183 716.039 596.68 716.351 596.372C718.791 593.954 722.484 590.298 727.145 592.851C732.904 596.008 735.604 605.033 737.388 611.006L737.652 611.893C740.021 619.767 740.999 626.652 740.826 634.213C740.807 634.645 740.452 634.99 740.026 634.99Z" fill="#ADCB53"/>
<path d="M777.804 634.697C771.019 635.225 753.348 635.307 753.348 635.177C753.348 630.379 755.856 624.622 756.671 621.604C757.707 617.766 759.375 614.158 760.733 610.435C763.202 603.646 766.943 596.535 773.138 596.046C780.355 595.475 784.873 605.32 787.568 612.824C788.934 616.629 790.407 620.457 791.073 624.464C791.639 627.875 793.629 634.702 793.629 634.702C793.629 634.702 781.54 634.405 777.804 634.697Z" fill="#C8D3DD"/>
<path d="M778.791 506.202C782.244 506.202 785.509 507.867 787.528 510.659L792.453 517.463C792.866 518.034 793.029 518.724 792.918 519.42C792.808 520.116 792.434 520.72 791.863 521.133L770.649 536.505C770.078 536.918 769.498 537.004 769.114 537.004C768.26 537.004 767.479 536.606 766.98 535.915L762.055 529.112C758.569 524.3 759.653 517.544 764.462 514.061L772.485 508.251C774.336 506.912 776.513 506.202 778.791 506.202ZM778.791 502.623C775.876 502.623 772.931 503.511 770.385 505.353L762.362 511.163C755.941 515.812 754.507 524.794 759.154 531.213L764.079 538.017C765.292 539.696 767.186 540.583 769.109 540.583C770.37 540.583 771.646 540.2 772.744 539.403L793.959 524.031C796.736 522.021 797.354 518.139 795.345 515.361L790.42 508.558C787.619 504.681 783.236 502.623 778.791 502.623Z" fill="#C8D3DD"/>
<path d="M826.06 544.076L805.521 543.059L814.392 536.63C818.272 533.818 819.14 528.392 816.33 524.511L805.372 509.369C802.562 505.487 797.139 504.619 793.259 507.43L759.595 531.818L780.729 561.017L827.848 548.74L826.06 544.076Z" fill="#C8D3DD"/>
<path d="M605.519 531.707H589.982C560.126 531.707 535.703 507.267 535.703 477.401V453.205C535.703 438.159 548.008 425.848 563.046 425.848H632.46C647.498 425.848 659.803 438.159 659.803 453.205V477.401C659.798 507.272 635.371 531.707 605.519 531.707Z" fill="#AECC53"/>
<path d="M650.52 510.774C650.414 510.774 650.309 510.736 650.227 510.654C639.649 500.056 619.498 493.473 597.636 493.473C575.98 493.473 555.921 499.965 545.284 510.415C545.121 510.573 544.862 510.573 544.704 510.41C544.546 510.247 544.546 509.988 544.709 509.829C555.494 499.236 575.774 492.653 597.636 492.653C619.709 492.653 640.085 499.332 650.812 510.074C650.971 510.232 650.971 510.496 650.812 510.654C650.731 510.736 650.625 510.774 650.52 510.774Z" fill="#11283C"/>
<path d="M597.635 452.774C574.31 452.774 553.407 445.538 543.083 433.889C542.934 433.721 542.948 433.457 543.116 433.309C543.284 433.16 543.548 433.174 543.696 433.342C553.867 444.819 574.536 451.948 597.63 451.948C620.553 451.948 641.154 444.895 651.387 433.544C651.541 433.376 651.8 433.362 651.967 433.515C652.135 433.669 652.15 433.928 651.996 434.096C641.619 445.615 620.783 452.774 597.635 452.774Z" fill="#11283C"/>
<path d="M571.951 627.707C569.342 627.707 567.227 625.591 567.227 622.981V536.232C567.227 533.622 569.342 531.506 571.951 531.506C574.559 531.506 576.674 533.622 576.674 536.232V622.981C576.679 625.591 574.564 627.707 571.951 627.707Z" fill="white"/>
<path d="M571.951 545.276C565.17 545.276 559.622 539.724 559.622 532.94V521.43C559.622 518.715 561.842 516.498 564.552 516.498H579.346C582.06 516.498 584.275 518.72 584.275 521.43V532.94C584.28 539.724 578.732 545.276 571.951 545.276Z" fill="#AECC53"/>
<path d="M622.289 627.913C619.68 627.913 617.565 625.798 617.565 623.188V536.438C617.565 533.828 619.68 531.712 622.289 531.712C624.898 531.712 627.012 533.828 627.012 536.438V623.188C627.017 625.798 624.902 627.913 622.289 627.913Z" fill="white"/>
<path d="M622.816 545.276C616.036 545.276 610.487 539.724 610.487 532.94V521.43C610.487 518.715 612.708 516.498 615.417 516.498H630.211C632.925 516.498 635.141 518.72 635.141 521.43V532.94C635.145 539.724 629.597 545.276 622.816 545.276Z" fill="#AECC53"/>
<path d="M609.69 496.362H585.809C568.575 496.362 554.605 482.386 554.605 465.142V458.353C554.605 449.377 561.88 442.098 570.852 442.098H624.647C633.62 442.098 640.894 449.377 640.894 458.353V465.142C640.894 482.381 626.925 496.362 609.69 496.362Z" fill="white"/>
<path d="M609.691 497.595H585.81C567.923 497.595 553.369 483.033 553.369 465.137V458.349C553.369 448.705 561.209 440.86 570.848 440.86H624.648C634.287 440.86 642.127 448.705 642.127 458.349V465.137C642.127 483.033 627.578 497.595 609.691 497.595ZM570.848 443.327C562.566 443.327 555.833 450.068 555.833 458.349V465.137C555.833 481.671 569.28 495.124 585.805 495.124H609.686C626.211 495.124 639.657 481.671 639.657 465.137V458.349C639.657 450.063 632.92 443.327 624.643 443.327H570.848Z" fill="#1A3C5B"/>
<path d="M597.577 484.017C593.348 484.017 589.502 481.68 587.545 477.924L589.368 476.974C590.969 480.049 594.115 481.959 597.577 481.959C601.303 481.959 604.646 479.742 606.099 476.307L607.993 477.108C606.214 481.306 602.128 484.017 597.577 484.017Z" fill="#1A3C5B"/>
<path d="M575.558 472.512C579.642 472.512 582.952 469.199 582.952 465.114C582.952 461.028 579.642 457.715 575.558 457.715C571.474 457.715 568.163 461.028 568.163 465.114C568.163 469.199 571.474 472.512 575.558 472.512Z" fill="#1A3C5B"/>
<path d="M573.338 465.31L567.343 468.04V462.585L573.338 465.31Z" fill="white"/>
<path d="M619.939 472.512C624.023 472.512 627.334 469.199 627.334 465.114C627.334 461.028 624.023 457.715 619.939 457.715C615.856 457.715 612.545 461.028 612.545 465.114C612.545 469.199 615.856 472.512 619.939 472.512Z" fill="#1A3C5B"/>
<path d="M618.539 465.31L612.545 468.04V462.585L618.539 465.31Z" fill="white"/>
<path d="M642.17 429.749H619.253C616.764 429.749 614.731 427.715 614.731 425.224C614.731 422.734 616.764 420.7 619.253 420.7H642.17C644.659 420.7 646.692 422.734 646.692 425.224C646.697 427.715 644.659 429.749 642.17 429.749Z" fill="#AECC53"/>
<path d="M630.714 411.647C629.717 411.647 628.906 410.836 628.906 409.838V389.322C628.906 388.324 629.717 387.513 630.714 387.513C631.712 387.513 632.522 388.324 632.522 389.322V409.838C632.522 410.836 631.712 411.647 630.714 411.647Z" fill="white"/>
<path d="M630.714 392.34C633.211 392.34 635.236 390.315 635.236 387.816C635.236 385.317 633.211 383.291 630.714 383.291C628.217 383.291 626.192 385.317 626.192 387.816C626.192 390.315 628.217 392.34 630.714 392.34Z" fill="#AECC53"/>
<path d="M631.702 424.922H629.726C627.607 424.922 625.89 423.204 625.89 421.084V403.418C625.89 401.298 627.607 399.58 629.726 399.58H631.702C633.822 399.58 635.538 401.298 635.538 403.418V421.084C635.538 423.204 633.822 424.922 631.702 424.922Z" fill="#AECC53"/>
<path d="M581.518 633.258H563.847V606.328C563.847 601.444 567.803 597.49 572.68 597.49C577.557 597.49 581.513 601.448 581.513 606.328V633.258H581.518Z" fill="#AECC53"/>
<path d="M582.022 633.258H581.202C581.202 627.477 577.423 622.775 572.776 622.775C568.13 622.775 564.351 627.477 564.351 633.258H563.531C563.531 627.026 567.679 621.954 572.776 621.954C577.874 621.954 582.022 627.026 582.022 633.258Z" fill="#11283C"/>
<path d="M631.607 633.258H613.936V606.328C613.936 601.444 617.892 597.49 622.769 597.49C627.65 597.49 631.602 601.449 631.602 606.328V633.258H631.607Z" fill="#AECC53"/>
<path d="M632.105 633.258H631.285C631.285 627.477 627.507 622.775 622.86 622.775C618.213 622.775 614.434 627.477 614.434 633.258H613.614C613.614 627.026 617.762 621.954 622.86 621.954C627.957 621.954 632.105 627.026 632.105 633.258Z" fill="#11283C"/>
<path d="M516.478 574.058C513.869 574.058 511.754 571.942 511.754 569.332V475.179C511.754 465.771 519.403 458.118 528.807 458.118C531.416 458.118 533.53 460.234 533.53 462.844C533.53 465.454 531.416 467.57 528.807 467.57C524.616 467.57 521.206 470.981 521.206 475.175V569.322C521.206 571.937 519.087 574.058 516.478 574.058Z" fill="white"/>
<path d="M535.996 478.264C531.929 478.264 528.601 474.935 528.601 470.866V455.244C528.601 451.176 531.929 447.846 535.996 447.846C540.062 447.846 543.39 451.176 543.39 455.244V470.866C543.395 474.93 540.067 478.264 535.996 478.264Z" fill="#AECC53"/>
<path d="M522.64 595.024C514.368 595.024 507.64 588.293 507.64 580.017C507.64 571.74 514.368 565.009 522.64 565.009C530.567 565.009 537.146 571.208 537.612 579.119C537.717 580.933 536.336 582.488 534.523 582.598C532.711 582.708 531.157 581.322 531.047 579.508C530.783 575.065 527.09 571.587 522.635 571.587C517.989 571.587 514.21 575.368 514.21 580.017C514.21 584.666 517.989 588.446 522.635 588.446C524.453 588.446 525.925 589.919 525.925 591.738C525.925 593.556 524.458 595.024 522.64 595.024Z" fill="white"/>
<path d="M516.684 580.636C510.81 580.636 506 575.823 506 569.946V544.043C506 538.165 510.81 533.353 516.684 533.353C522.559 533.353 527.368 538.165 527.368 544.043V569.946C527.368 575.823 522.559 580.636 516.684 580.636Z" fill="#AECC53"/>
<path d="M527.368 559.664H506V560.485H527.368V559.664Z" fill="#11283C"/>
<path d="M742.154 481.589C740.701 481.589 739.268 480.922 738.342 479.66C738.074 479.301 722.647 458.771 701.475 456.079C690.704 454.707 680.063 458.219 669.854 466.519C667.83 468.165 664.852 467.858 663.207 465.828C661.563 463.804 661.87 460.824 663.898 459.179C676.213 449.17 689.28 444.977 702.736 446.709C728.032 449.967 745.243 473.087 745.962 474.071C747.506 476.177 747.051 479.138 744.945 480.678C744.106 481.292 743.128 481.589 742.154 481.589Z" fill="white"/>
<path d="M659.683 478.264C663.75 478.264 667.078 474.935 667.078 470.866V455.244C667.078 451.176 663.75 447.846 659.683 447.846C655.617 447.846 652.289 451.176 652.289 455.244V470.866C652.289 474.93 655.617 478.264 659.683 478.264Z" fill="#AECC53"/>
<path d="M536.109 478.667C535.985 478.667 535.86 478.61 535.778 478.495C535.649 478.312 535.692 478.063 535.874 477.933C539.255 475.544 540.636 471.236 540.636 463.05C540.636 455.268 538.622 449.856 535.117 448.201C534.915 448.105 534.829 447.865 534.925 447.664C535.021 447.462 535.261 447.376 535.462 447.472C537.697 448.523 541.447 451.948 541.447 463.05C541.447 471.528 539.97 476.033 536.344 478.591C536.272 478.643 536.191 478.667 536.109 478.667Z" fill="#11283C"/>
<path d="M659.386 478.667C659.304 478.667 659.223 478.643 659.156 478.595C655.53 476.038 654.053 471.533 654.053 463.055C654.053 451.953 657.803 448.532 660.038 447.477C660.239 447.381 660.479 447.467 660.575 447.669C660.671 447.87 660.585 448.11 660.383 448.206C656.873 449.856 654.859 455.268 654.859 463.055C654.859 471.236 656.24 475.549 659.621 477.938C659.803 478.068 659.846 478.317 659.717 478.499C659.64 478.605 659.515 478.667 659.386 478.667Z" fill="#11283C"/>
<path d="M771.724 517.779C770.769 517.779 769.82 517.367 769.163 516.575L755.213 499.691C754.043 498.276 754.244 496.184 755.654 495.018C757.069 493.848 759.16 494.049 760.325 495.46L774.275 512.343C775.445 513.759 775.244 515.85 773.834 517.016C773.215 517.53 772.467 517.779 771.724 517.779Z" fill="white"/>
<path d="M764.957 506.984C760.358 510.731 753.529 510.031 749.779 505.43L733.278 485.149C729.533 480.548 730.233 473.716 734.832 469.964C739.431 466.217 746.259 466.918 750.009 471.519L766.511 491.799C770.261 496.405 769.56 503.237 764.957 506.984Z" fill="#AECC53"/>
<path d="M759.979 483.747L743.25 497.378L743.774 498.022L760.503 484.391L759.979 483.747Z" fill="#11283C"/>
<path d="M833.656 547.948C840.801 550.337 847.52 554.564 852.828 560.403C853.552 561.19 853.5 562.418 852.708 563.138C851.922 563.853 850.704 563.795 849.989 563.008C846.033 556.843 840.427 551.556 833.656 547.948Z" fill="#CCCBCB"/>
<path d="M855.428 556.694C859.633 558.729 863.58 561.435 866.999 564.779C870.428 568.113 873.319 572.057 875.578 576.375C876.072 577.315 875.707 578.481 874.768 578.971C873.828 579.465 872.662 579.1 872.173 578.16C869.099 569.466 863.23 561.804 855.428 556.694Z" fill="#CCCBCB"/>
<path d="M829.993 544.877C838.365 543.232 847.381 544.129 855.624 547.43C856.617 547.818 857.106 548.946 856.708 549.939C856.286 551.028 854.948 551.479 853.946 550.884C846.911 546.744 838.519 544.508 829.993 544.877Z" fill="#CCCBCB"/>
<path d="M886.9 635.734H661.515C661.074 635.734 660.719 635.379 660.719 634.937C660.719 634.496 661.074 634.141 661.515 634.141H886.9C887.341 634.141 887.696 634.496 887.696 634.937C887.696 635.379 887.336 635.734 886.9 635.734Z" fill="#C8D3DD"/>
<path d="M839.905 617.497C839.469 617.497 839.114 617.142 839.114 616.706V565.801C839.114 565.364 839.469 565.009 839.905 565.009C840.342 565.009 840.697 565.364 840.697 565.801V616.706C840.697 617.142 840.342 617.497 839.905 617.497Z" fill="#ADCB53"/>
<path d="M842.883 565.95C842.883 564.304 841.55 562.97 839.905 562.97C838.26 562.97 836.927 564.304 836.927 565.95C836.927 567.595 838.26 568.929 839.905 568.929C841.55 568.929 842.883 567.6 842.883 565.95Z" fill="#ADCB53"/>
<path d="M805.858 617.497C805.421 617.497 805.066 617.142 805.066 616.706V595.547C805.066 595.11 805.421 594.755 805.858 594.755C806.294 594.755 806.649 595.11 806.649 595.547V616.706C806.649 617.142 806.294 617.497 805.858 617.497Z" fill="#ADCB53"/>
<path d="M808.835 595.696C808.835 594.05 807.502 592.716 805.857 592.716C804.213 592.716 802.879 594.05 802.879 595.696C802.879 597.342 804.213 598.675 805.857 598.675C807.502 598.675 808.835 597.346 808.835 595.696Z" fill="#ADCB53"/>
<path d="M855.249 617.977C854.813 617.977 854.458 617.622 854.458 617.185V586.479C854.458 586.043 854.813 585.688 855.249 585.688C855.686 585.688 856.04 586.043 856.04 586.479V617.185C856.04 617.622 855.686 617.977 855.249 617.977Z" fill="#ADCB53"/>
<path d="M824.08 617.497C823.643 617.497 823.289 617.142 823.289 616.706V586.479C823.289 586.043 823.643 585.688 824.08 585.688C824.516 585.688 824.871 586.043 824.871 586.479V616.706C824.871 617.142 824.516 617.497 824.08 617.497Z" fill="#ADCB53"/>
<path d="M825.451 585.04C823.888 584.426 822.233 584.042 820.56 583.898C818.987 583.764 817.428 584.047 815.88 583.855C815.731 583.836 815.587 583.826 815.438 583.816C814.743 583.783 814.168 583.222 814.129 582.511L814.057 581.058C813.851 576.941 817.045 573.405 821.159 573.194L822.612 573.122C823.322 573.084 823.941 573.602 824.041 574.293C824.065 574.441 824.089 574.585 824.123 574.729C824.507 576.399 824.962 578.049 825.259 579.733C825.557 581.451 825.547 583.126 825.514 584.858" fill="white"/>
<path d="M824.574 584.68C825.188 584.632 825.888 584.071 826.478 583.85C827.226 583.572 828.008 583.37 828.799 583.25C830.123 583.049 831.48 583.078 832.794 583.346C833.781 583.548 835.196 583.423 835.249 582.094L835.306 580.64C835.465 576.524 832.228 573.021 828.113 572.863L826.66 572.805C825.951 572.777 825.341 573.3 825.246 573.991C825.226 574.139 825.198 574.283 825.169 574.427L823.826 580.621C823.692 581.269 823.553 581.902 823.548 582.564C823.543 583.226 823.677 583.903 824.042 584.455C824.109 584.56 824.191 584.661 824.301 584.728C824.411 584.795 824.464 584.742 824.574 584.68Z" fill="white"/>
<path d="M826.957 583.841C826.957 582.252 825.667 582.401 824.079 582.401C822.492 582.401 821.202 582.252 821.202 583.841C821.202 585.429 822.492 588.159 824.079 588.159C825.667 588.159 826.957 585.429 826.957 583.841Z" fill="#ADCB53"/>
<path d="M856.77 592.587C855.206 591.973 853.552 591.589 851.878 591.445C850.305 591.311 848.747 591.594 847.198 591.402C847.049 591.383 846.905 591.373 846.757 591.363C846.061 591.33 845.486 590.768 845.448 590.058L845.376 588.605C845.169 584.488 848.363 580.952 852.478 580.741L853.931 580.669C854.64 580.635 855.259 581.149 855.36 581.84C855.384 581.988 855.408 582.132 855.441 582.276C855.825 583.946 856.28 585.596 856.578 587.28C856.875 588.998 856.866 590.673 856.832 592.405" fill="white"/>
<path d="M855.896 592.227C856.51 592.179 857.21 591.618 857.8 591.397C858.548 591.119 859.33 590.917 860.121 590.797C861.445 590.596 862.802 590.625 864.116 590.893C865.104 591.095 866.518 590.97 866.571 589.641L866.629 588.187C866.787 584.071 863.55 580.568 859.435 580.41L857.982 580.352C857.273 580.324 856.664 580.847 856.568 581.538C856.549 581.686 856.52 581.83 856.491 581.974L855.148 588.168C855.014 588.816 854.875 589.449 854.87 590.111C854.865 590.773 855 591.45 855.364 592.002C855.431 592.107 855.513 592.208 855.623 592.275C855.729 592.342 855.786 592.289 855.896 592.227Z" fill="white"/>
<path d="M858.275 591.387C858.275 589.799 856.985 589.948 855.398 589.948C853.811 589.948 852.521 589.799 852.521 591.387C852.521 592.976 853.811 595.705 855.398 595.705C856.985 595.705 858.275 592.976 858.275 591.387Z" fill="#ADCB53"/>
<path d="M381.955 564.174C381.541 564.174 381.203 563.836 381.203 563.422V485.1C381.203 484.686 381.541 484.348 381.955 484.348C382.37 484.348 382.707 484.686 382.707 485.1V563.422C382.692 563.836 382.37 564.174 381.955 564.174Z" fill="#11283C"/>
<path d="M381.956 489.815C384.431 489.815 386.438 487.807 386.438 485.331C386.438 482.854 384.431 480.846 381.956 480.846C379.48 480.846 377.473 482.854 377.473 485.331C377.473 487.807 379.48 489.815 381.956 489.815Z" fill="#11283C"/>
<path d="M395.771 577.888C395.356 577.888 395.019 577.55 395.019 577.136V499.782C395.019 499.367 395.356 499.029 395.771 499.029C396.185 499.029 396.523 499.367 396.523 499.782V577.136C396.508 577.55 396.185 577.888 395.771 577.888Z" fill="#11283C"/>
<path d="M395.771 504.496C398.246 504.496 400.253 502.489 400.253 500.012C400.253 497.536 398.246 495.528 395.771 495.528C393.295 495.528 391.289 497.536 391.289 500.012C391.289 502.489 393.295 504.496 395.771 504.496Z" fill="#11283C"/>
<path d="M349.075 590.327C345.79 590.327 340.816 587.44 336.395 582.971C333.724 580.269 327.523 573.112 327.615 565.096C327.661 561.564 328.567 558.062 330.24 554.975C330.777 553.977 331.406 553.01 332.097 552.119C333.218 550.645 333.494 548.679 332.788 546.99C331.882 544.809 331.422 542.49 331.422 540.094C331.422 536.055 332.727 532.247 335.198 529.068C336.472 527.44 336.672 525.29 335.751 523.478C334.661 521.328 334.093 518.994 334.093 516.567C334.093 508.674 343.687 491.765 349.367 491.765C355.921 491.765 364.64 508.781 364.64 516.567C364.64 518.994 364.088 521.328 362.983 523.478C362.062 525.305 362.261 527.44 363.535 529.068C366.007 532.247 367.311 536.055 367.311 540.094C367.311 542.475 366.851 544.794 365.945 546.99C365.239 548.679 365.5 550.645 366.636 552.134C369.568 555.958 371.118 560.535 371.118 565.372C371.134 577.75 358.301 590.327 349.075 590.327ZM331.56 555.682C329.994 558.554 329.15 561.809 329.119 565.096C329.058 570.271 332.174 576.552 337.47 581.912C341.553 586.058 346.235 588.838 349.09 588.838C357.594 588.838 369.66 576.69 369.66 565.357C369.66 560.857 368.217 556.588 365.485 553.025C364.026 551.121 363.689 548.587 364.594 546.406C365.423 544.394 365.853 542.275 365.853 540.079C365.853 536.378 364.656 532.876 362.384 529.959C360.787 527.901 360.511 525.09 361.678 522.771C362.66 520.821 363.167 518.732 363.167 516.536C363.167 508.259 354.279 493.224 349.382 493.224C344.869 493.224 335.597 508.904 335.597 516.536C335.597 518.732 336.104 520.821 337.086 522.771C338.268 525.075 337.992 527.901 336.38 529.959C334.108 532.876 332.911 536.378 332.911 540.079C332.911 542.275 333.325 544.394 334.169 546.406C335.075 548.587 334.737 551.121 333.294 553.01C332.65 553.87 332.066 554.76 331.56 555.682Z" fill="#ADCB53"/>
<path d="M349.382 629.196C348.968 629.196 348.63 628.858 348.63 628.444V511.008C348.63 510.593 348.968 510.255 349.382 510.255C349.797 510.255 350.134 510.593 350.134 511.008V628.459C350.119 628.858 349.797 629.196 349.382 629.196Z" fill="#ADCB53"/>
<path d="M1146.01 227.374H1174.14C1174.59 224.85 1174.84 222.254 1174.84 219.596C1174.84 217.605 1174.54 215.283 1173.99 212.736H1146.01C1142.99 212.736 1140.53 210.269 1140.53 207.247C1140.53 204.219 1142.99 201.758 1146.01 201.758H1170.76C1169.13 197.171 1167.09 192.22 1164.8 187.12H1146.01C1142.99 187.12 1140.53 184.654 1140.53 181.631C1140.53 178.604 1142.99 176.143 1146.01 176.143H1159.62C1157.2 171.201 1154.65 166.259 1152.11 161.504H1146.01C1142.98 161.504 1140.52 159.038 1140.52 156.016C1140.52 152.988 1142.98 150.527 1146.01 150.527H1146.12C1137.8 135.567 1130.91 124.432 1130.91 124.432C1130.91 124.432 1124.02 135.567 1115.69 150.517H1115.81C1118.84 150.517 1121.3 152.983 1121.3 156.006C1121.3 159.033 1118.83 161.495 1115.81 161.495H1109.7C1108.61 163.558 1107.51 165.659 1106.41 167.77C1107.49 167.838 1108.55 168.274 1109.37 169.027C1109.47 169.119 1109.56 169.214 1109.65 169.315C1109.68 169.344 1109.71 169.368 1109.74 169.392C1110.47 170.126 1111.2 170.86 1111.94 171.599C1113.11 172.765 1135.53 258.248 1137.09 263.079C1151.94 260.978 1164.41 251.44 1170.6 238.351H1146.01C1142.99 238.351 1140.53 235.885 1140.53 232.862C1140.53 229.84 1142.99 227.374 1146.01 227.374Z" fill="#ADCB53"/>
<path d="M1129.03 555.66C1128.1 555.66 1127.35 554.907 1127.35 553.981V355.831C1127.35 354.905 1128.1 354.151 1129.03 354.151C1129.96 354.151 1130.71 354.905 1130.71 355.831V553.981C1130.71 554.907 1129.96 555.66 1129.03 555.66Z" fill="#1A3C5B"/>
<path d="M1098.01 369.596H1076.09C1064.57 369.596 1053.49 366.088 1044.04 359.458C1034.8 352.981 1027.78 344.023 1023.75 333.559C1020.22 324.448 1019.8 313.994 1022.54 304.115L1056.87 180.537C1060.73 166.619 1072.56 157.623 1086.99 157.623H1087C1101.43 157.623 1113.25 166.609 1117.12 180.523C1126.63 214.669 1136.65 250.605 1143.84 276.407L1151.56 304.091C1154.32 313.994 1153.89 324.472 1150.36 333.598C1146.32 344.052 1139.3 352.995 1130.07 359.467C1120.6 366.098 1109.52 369.596 1098.01 369.596ZM1087 161.701H1086.99C1074.44 161.706 1064.15 169.526 1060.79 181.636L1026.46 305.214C1023.95 314.253 1024.33 323.8 1027.54 332.096C1035.26 352.093 1054.77 365.522 1076.1 365.522H1098.02C1119.33 365.522 1138.85 352.103 1146.57 332.129C1149.79 323.82 1150.17 314.248 1147.64 305.19L1139.93 277.506C1132.73 251.703 1122.71 215.768 1113.21 181.622C1109.83 169.522 1099.55 161.701 1087 161.701Z" fill="#1A3C5B"/>
<path d="M1087.06 275.294C1077.66 275.294 1069.06 269.738 1065.15 261.136C1064.77 260.292 1065.15 259.298 1065.99 258.915C1066.83 258.531 1067.83 258.905 1068.21 259.749C1071.58 267.152 1078.98 271.941 1087.06 271.941C1095.15 271.941 1102.54 267.152 1105.91 259.749C1106.29 258.905 1107.29 258.531 1108.13 258.915C1108.98 259.298 1109.35 260.296 1108.97 261.136C1105.06 269.734 1096.45 275.294 1087.06 275.294Z" fill="#1A3C5B"/>
<path d="M1101.26 258.857C1102.29 255.527 1105.83 253.661 1109.16 254.693C1112.48 255.724 1114.35 259.26 1113.32 262.59C1112.29 265.919 1108.75 267.786 1105.43 266.754C1102.1 265.723 1100.23 262.187 1101.26 258.857Z" fill="#1A3C5B"/>
<path d="M1072.86 258.857C1071.82 255.527 1068.29 253.661 1064.96 254.693C1061.63 255.724 1059.77 259.26 1060.8 262.59C1061.83 265.919 1065.36 267.786 1068.69 266.754C1072.02 265.723 1073.89 262.187 1072.86 258.857Z" fill="#1A3C5B"/>
<path d="M1087.06 318.811C1071.68 318.811 1057.89 308.476 1053.54 293.68C1053.27 292.792 1053.78 291.857 1054.67 291.593C1055.56 291.329 1056.49 291.837 1056.76 292.73C1060.7 306.106 1073.16 315.447 1087.06 315.447C1100.96 315.447 1113.43 306.106 1117.36 292.725C1117.63 291.837 1118.56 291.329 1119.45 291.588C1120.34 291.852 1120.84 292.783 1120.59 293.675C1116.23 308.476 1102.44 318.811 1087.06 318.811Z" fill="#1A3C5B"/>
<path d="M1112.7 292.25C1113.39 288.834 1116.73 286.627 1120.14 287.323C1123.55 288.018 1125.76 291.353 1125.06 294.769C1124.37 298.185 1121.04 300.392 1117.62 299.696C1114.21 299 1112 295.666 1112.7 292.25Z" fill="#1A3C5B"/>
<path d="M1061.42 292.25C1060.73 288.834 1057.4 286.627 1053.98 287.323C1050.57 288.018 1048.36 291.353 1049.06 294.769C1049.75 298.185 1053.08 300.392 1056.5 299.696C1059.91 299 1062.12 295.666 1061.42 292.25Z" fill="#1A3C5B"/>
<path d="M1087.06 565.496C1086.13 565.496 1085.38 564.742 1085.38 563.816V225.67C1085.38 224.744 1086.13 223.991 1087.06 223.991C1087.99 223.991 1088.74 224.744 1088.74 225.67V563.816C1088.74 564.742 1087.99 565.496 1087.06 565.496Z" fill="#1A3C5B"/>
<path d="M1087.06 231.538C1083.92 231.538 1081.37 228.986 1081.37 225.848C1081.37 222.71 1083.92 220.158 1087.06 220.158C1090.2 220.158 1092.75 222.71 1092.75 225.848C1092.75 228.986 1090.2 231.538 1087.06 231.538ZM1087.06 224.231C1086.17 224.231 1085.44 224.956 1085.44 225.848C1085.44 226.74 1086.17 227.465 1087.06 227.465C1087.95 227.465 1088.68 226.74 1088.68 225.848C1088.68 224.956 1087.95 224.231 1087.06 224.231Z" fill="#1A3C5B"/>
<path d="M1113.02 632.703C1112.59 632.703 1112.24 632.358 1112.23 631.926C1111.79 611.564 1116.02 588.871 1124.16 568.024C1126.87 561.072 1130.87 552.287 1137.76 546.016C1142.29 541.895 1151.42 536.987 1158 540.345C1170.12 546.535 1174.8 563.217 1177.27 575.23C1180.25 589.787 1183.27 605.346 1184.44 621.385C1184.47 621.822 1184.14 622.206 1183.7 622.235C1183.27 622.268 1182.88 621.937 1182.85 621.501C1181.7 605.557 1178.69 590.06 1175.71 575.552C1173.32 563.859 1168.79 547.643 1157.28 541.766C1151.42 538.772 1143.04 543.373 1138.83 547.197C1132.18 553.242 1128.29 561.816 1125.64 568.605C1117.58 589.259 1113.39 611.737 1113.82 631.893C1113.83 632.334 1113.48 632.694 1113.04 632.703C1113.03 632.703 1113.03 632.703 1113.02 632.703Z" fill="#C8D3DD"/>
<path d="M1113.29 522.095C1090.59 522.095 1072.12 503.613 1072.12 480.9V446.073C1072.12 440.925 1076.28 436.756 1081.43 436.756C1086.58 436.756 1090.74 440.925 1090.74 446.073V480.9C1090.74 493.341 1100.86 503.46 1113.29 503.46C1125.73 503.46 1135.84 493.341 1135.84 480.9V446.236C1135.84 441.088 1140.01 436.919 1145.15 436.919C1150.3 436.919 1154.46 441.088 1154.46 446.236V480.9C1154.46 503.618 1135.99 522.095 1113.29 522.095Z" fill="#ADCB53"/>
<path d="M1113.29 639.176C1108.15 639.176 1103.98 635.006 1103.98 629.858V402.609C1103.98 397.461 1108.15 393.292 1113.29 393.292C1118.44 393.292 1122.6 397.461 1122.6 402.609V629.858C1122.6 635.006 1118.43 639.176 1113.29 639.176Z" fill="#ADCB53"/>
<path d="M1113.29 513.401C1095.38 513.401 1080.81 498.82 1080.81 480.905V450.516C1080.81 450.175 1081.09 449.897 1081.43 449.897C1081.77 449.897 1082.05 450.175 1082.05 450.516V480.905C1082.05 498.139 1096.06 512.163 1113.29 512.163C1130.52 512.163 1144.53 498.144 1144.53 480.905V450.679C1144.53 450.338 1144.81 450.06 1145.15 450.06C1145.49 450.06 1145.77 450.338 1145.77 450.679V480.905C1145.77 498.82 1131.2 513.401 1113.29 513.401Z" fill="#11283C"/>
<path d="M1140.48 450.909C1140.48 448.328 1142.57 446.236 1145.15 446.236C1147.73 446.236 1149.82 448.328 1149.82 450.909C1149.82 453.49 1147.73 455.577 1145.15 455.577C1142.57 455.582 1140.48 453.49 1140.48 450.909Z" fill="#11283C"/>
<path d="M1086.1 450.746C1086.1 448.165 1084.01 446.073 1081.43 446.073C1078.85 446.073 1076.75 448.165 1076.75 450.746C1076.75 453.327 1078.85 455.414 1081.43 455.414C1084.01 455.414 1086.1 453.322 1086.1 450.746Z" fill="#11283C"/>
<path d="M1113.29 630.482C1112.95 630.482 1112.67 630.204 1112.67 629.863V407.052C1112.67 406.712 1112.95 406.433 1113.29 406.433C1113.63 406.433 1113.91 406.712 1113.91 407.052V629.863C1113.91 630.204 1113.63 630.482 1113.29 630.482Z" fill="#11283C"/>
<path d="M1117.62 409.054C1118.61 406.669 1117.48 403.935 1115.09 402.948C1112.71 401.96 1109.98 403.092 1108.99 405.477C1108 407.861 1109.14 410.595 1111.52 411.583C1113.9 412.57 1116.64 411.438 1117.62 409.054Z" fill="#11283C"/>
<path d="M1148.97 633.462C1148.53 633.462 1148.18 633.107 1148.18 632.665V560.631C1148.18 560.189 1148.53 559.834 1148.97 559.834C1149.41 559.834 1149.77 560.189 1149.77 560.631V632.665C1149.77 633.107 1149.41 633.462 1148.97 633.462Z" fill="#C8D3DD"/>
<path d="M1153.76 560.87C1153.76 558.227 1151.62 556.082 1148.98 556.082C1146.34 556.082 1144.19 558.227 1144.19 560.87C1144.19 563.514 1146.34 565.654 1148.98 565.654C1151.62 565.654 1153.76 563.509 1153.76 560.87Z" fill="#C8D3DD"/>
<path d="M1137.98 631.931C1137.54 631.931 1137.19 631.576 1137.19 631.135V582.288C1137.19 581.846 1137.54 581.491 1137.98 581.491C1138.42 581.491 1138.78 581.846 1138.78 582.288V631.135C1138.77 631.576 1138.42 631.931 1137.98 631.931Z" fill="#C8D3DD"/>
<path d="M1142.76 582.528C1142.76 579.884 1140.62 577.74 1137.98 577.74C1135.34 577.74 1133.2 579.884 1133.2 582.528C1133.2 585.171 1135.34 587.311 1137.98 587.311C1140.62 587.311 1142.76 585.171 1142.76 582.528Z" fill="#C8D3DD"/>
<path d="M1161.08 633.462C1160.64 633.462 1160.29 633.107 1160.29 632.665V574.611C1160.29 574.17 1160.64 573.815 1161.08 573.815C1161.52 573.815 1161.88 574.17 1161.88 574.611V632.665C1161.88 633.107 1161.52 633.462 1161.08 633.462Z" fill="#C8D3DD"/>
<path d="M1165.87 574.851C1165.87 572.208 1163.72 570.063 1161.09 570.063C1158.45 570.063 1156.31 572.208 1156.31 574.851C1156.31 577.495 1158.45 579.635 1161.09 579.635C1163.72 579.635 1165.87 577.495 1165.87 574.851Z" fill="#C8D3DD"/>
<path d="M1005.84 534.482C1002.34 534.482 997.041 531.407 992.341 526.643C983.801 517.997 982.961 510.455 982.995 507.615C983.043 503.858 984.007 500.135 985.791 496.848C986.366 495.788 987.033 494.761 987.771 493.802C988.97 492.238 989.253 490.146 988.5 488.342C987.532 486.015 987.042 483.544 987.042 481.006C987.042 476.707 988.433 472.648 991.066 469.266C992.413 467.534 992.639 465.25 991.651 463.312C990.485 461.018 989.896 458.542 989.896 455.956C989.896 451.039 992.912 444.25 995.736 439.543C997.142 437.202 1002.04 429.559 1006.15 429.559C1013.13 429.559 1022.41 447.671 1022.41 455.956C1022.41 458.542 1021.82 461.018 1020.65 463.312C1019.67 465.255 1019.89 467.538 1021.24 469.266C1023.87 472.648 1025.26 476.707 1025.26 481.006C1025.26 483.544 1024.77 486.015 1023.8 488.342C1023.06 490.146 1023.34 492.242 1024.54 493.811C1027.66 497.885 1029.31 502.754 1029.31 507.898C1029.31 521.087 1015.65 534.482 1005.84 534.482ZM987.181 497.606C985.517 500.667 984.621 504.131 984.578 507.634C984.51 513.137 987.834 519.825 993.463 525.53C997.813 529.934 1002.79 532.894 1005.83 532.894C1014.87 532.894 1027.73 519.969 1027.73 507.898C1027.73 503.105 1026.19 498.571 1023.28 494.776C1021.73 492.756 1021.37 490.055 1022.34 487.732C1023.22 485.597 1023.67 483.338 1023.67 481.006C1023.67 477.067 1022.4 473.344 1019.98 470.24C1018.28 468.052 1017.99 465.048 1019.23 462.592C1020.28 460.524 1020.82 458.293 1020.82 455.956C1020.82 447.148 1011.36 431.147 1006.14 431.147C1001.34 431.147 991.469 447.843 991.469 455.956C991.469 458.293 992.001 460.524 993.051 462.592C994.303 465.053 994.005 468.052 992.303 470.24C989.891 473.339 988.61 477.062 988.61 481.006C988.61 483.338 989.061 485.597 989.948 487.732C990.917 490.059 990.557 492.756 989.013 494.766C988.342 495.663 987.719 496.618 987.181 497.606Z" fill="#ADCB53"/>
<path d="M1006.15 573.714C1005.71 573.714 1005.36 573.359 1005.36 572.923V450.065C1005.36 449.628 1005.71 449.273 1006.15 449.273C1006.59 449.273 1006.94 449.628 1006.94 450.065V572.923C1006.94 573.359 1006.59 573.714 1006.15 573.714Z" fill="#ADCB53"/>
<path d="M1042.14 536.061C1041.7 536.061 1041.35 535.706 1041.35 535.269V451.907C1041.35 451.47 1041.7 451.115 1042.14 451.115C1042.58 451.115 1042.93 451.47 1042.93 451.907V535.269C1042.93 535.706 1042.58 536.061 1042.14 536.061Z" fill="#ADCB53"/>
<path d="M1046.91 452.142C1046.91 449.508 1044.77 447.373 1042.14 447.373C1039.51 447.373 1037.38 449.508 1037.38 452.142C1037.38 454.776 1039.51 456.911 1042.14 456.911C1044.77 456.916 1046.91 454.776 1046.91 452.142Z" fill="#ADCB53"/>
<path d="M1057.12 549.015C1056.69 549.015 1056.33 548.66 1056.33 548.223V465.888C1056.33 465.451 1056.69 465.096 1057.12 465.096C1057.56 465.096 1057.91 465.451 1057.91 465.888V548.223C1057.92 548.66 1057.56 549.015 1057.12 549.015Z" fill="#ADCB53"/>
<path d="M1061.89 466.128C1061.89 463.494 1059.76 461.359 1057.13 461.359C1054.49 461.359 1052.36 463.494 1052.36 466.128C1052.36 468.762 1054.49 470.897 1057.13 470.897C1059.76 470.897 1061.89 468.762 1061.89 466.128Z" fill="#ADCB53"/>
<path d="M1089.24 611.248C1088 612.86 1085.97 614.011 1083.97 614.884C1078.32 617.346 1072.11 618.483 1065.95 619.538C1044.16 623.266 1021.12 626.13 1000.22 619.428C994.734 617.667 984.582 613.824 984.687 607.908C984.802 601.479 989.396 593.342 991.904 587.436C995.41 579.184 999.462 571.09 1004.28 563.389C1011.41 551.999 1023.23 535.025 1039.82 535.025C1056.34 535.025 1068.13 551.889 1075.25 563.236C1080.02 570.826 1084.03 578.81 1087.52 586.947C1090.05 592.872 1093.88 605.25 1089.24 611.248Z" fill="#1A3C5B"/>
<path d="M1051.24 625.651C1050.32 615.954 1059.24 604.468 1062.06 596.624C1065.63 586.697 1069.13 579.328 1076.87 571.378C1079.54 568.633 1082.27 565.841 1085.69 564.114C1091.6 561.125 1098.26 562.67 1102.98 566.94C1112.04 575.134 1117.39 586.788 1121.48 598.082C1124.7 607.002 1132.65 623.084 1126.9 632.008C1121.67 641.148 1105.19 642.789 1096.05 643.403C1084.87 644.151 1058.74 641.872 1052.66 630.449C1051.85 628.918 1051.4 627.311 1051.24 625.651Z" fill="#11283C"/>
<path d="M1129.81 634.536C1129.37 634.536 1129.02 634.181 1129.02 633.745C1129 621.217 1124.8 609.592 1120.73 598.351C1117.16 588.463 1111.85 576.027 1102.45 567.525C1097.64 563.173 1091.36 562.137 1086.05 564.819C1082.72 566.503 1080.03 569.262 1077.44 571.929C1069.72 579.86 1064.81 590.305 1060.07 600.405C1059.62 601.364 1059.17 602.314 1058.72 603.264C1054.55 612.068 1051.53 621.606 1049.99 630.852C1049.91 631.283 1049.51 631.576 1049.08 631.504C1048.64 631.432 1048.35 631.024 1048.42 630.592C1049.99 621.208 1053.06 611.526 1057.29 602.588C1057.73 601.642 1058.18 600.692 1058.63 599.733C1063.43 589.513 1068.4 578.949 1076.3 570.826C1078.86 568.197 1081.76 565.212 1085.33 563.409C1091.24 560.424 1098.2 561.552 1103.51 566.354C1113.17 575.086 1118.59 587.757 1122.22 597.814C1126.33 609.185 1130.58 620.939 1130.6 633.745C1130.6 634.181 1130.24 634.536 1129.81 634.536Z" fill="#ADCB53"/>
<path d="M1071.82 631.926C1071.44 631.926 1071.1 631.653 1071.03 631.269C1069.72 623.765 1067.49 617.178 1064.75 612.711C1063.47 610.624 1060.88 608.379 1057.78 608.916C1057.31 608.997 1056.89 609.127 1056.51 609.305C1056.11 609.492 1055.64 609.319 1055.45 608.921C1055.27 608.522 1055.44 608.052 1055.84 607.865C1056.34 607.63 1056.91 607.457 1057.51 607.352C1061.39 606.675 1064.56 609.367 1066.1 611.876C1068.95 616.506 1071.25 623.295 1072.6 630.991C1072.67 631.423 1072.39 631.835 1071.95 631.907C1071.91 631.926 1071.86 631.926 1071.82 631.926Z" fill="#ADCB53"/>
<path d="M1085.15 631.538C1084.78 631.538 1084.45 631.283 1084.37 630.909C1081.99 619.644 1077.24 609.209 1070.25 599.891C1069.29 598.605 1068.13 597.185 1066.58 596.586C1065.3 596.091 1063.9 596.159 1062.3 596.792C1061.89 596.955 1061.43 596.753 1061.27 596.346C1061.11 595.938 1061.31 595.477 1061.72 595.314C1063.68 594.537 1065.5 594.465 1067.15 595.103C1069.01 595.818 1070.35 597.368 1071.52 598.936C1078.65 608.441 1083.49 619.087 1085.92 630.578C1086.01 631.005 1085.74 631.427 1085.31 631.518C1085.25 631.533 1085.2 631.538 1085.15 631.538Z" fill="#ADCB53"/>
<path d="M1098.19 630.65C1097.82 630.65 1097.49 630.396 1097.41 630.026C1094.25 615.546 1087.88 601.767 1079 590.171C1076.33 586.688 1071.88 583.478 1067.97 584.154C1067.54 584.231 1067.13 583.938 1067.06 583.507C1066.98 583.075 1067.27 582.667 1067.71 582.59C1072.58 581.746 1077.52 585.627 1080.26 589.206C1089.28 600.985 1095.75 614.98 1098.96 629.69C1099.06 630.117 1098.78 630.54 1098.36 630.636C1098.3 630.645 1098.24 630.65 1098.19 630.65Z" fill="#ADCB53"/>
<path d="M1040.43 418.989C1042.59 418.989 1044.34 417.241 1044.34 415.084C1044.34 412.927 1042.59 411.178 1040.43 411.178C1038.28 411.178 1036.53 412.927 1036.53 415.084C1036.53 417.241 1038.28 418.989 1040.43 418.989Z" fill="#ADCB53"/>
<path d="M1040.43 401.204C1044.18 401.204 1047.21 398.166 1047.21 394.42C1047.21 390.673 1044.18 387.635 1040.43 387.635C1036.69 387.635 1033.65 390.673 1033.65 394.42C1033.65 398.166 1036.69 401.204 1040.43 401.204Z" fill="#ADCB53"/>
<path d="M1049.37 631.538H1005.25C1004.81 631.538 1004.46 631.183 1004.46 630.746C1004.46 630.309 1004.81 629.954 1005.25 629.954H1049.37C1049.81 629.954 1050.16 630.309 1050.16 630.746C1050.16 631.183 1049.81 631.538 1049.37 631.538Z" fill="#ADCB53"/>
<path d="M1012.44 630.098C1012.01 630.098 1011.65 629.743 1011.65 629.307V598.601C1011.65 598.164 1012.01 597.809 1012.44 597.809C1012.88 597.809 1013.23 598.164 1013.23 598.601V629.307C1013.23 629.743 1012.88 630.098 1012.44 630.098Z" fill="#ADCB53"/>
<path d="M1023.82 585.248C1024.02 585.071 1024.21 584.879 1024.38 584.668C1025.2 583.674 1025.14 582.192 1024.21 581.261L1022.32 579.366C1016.95 573.992 1008.15 573.992 1002.78 579.366L1000.89 581.261C999.964 582.187 999.907 583.67 1000.72 584.668C1000.89 584.879 1001.06 585.099 1001.22 585.32C1002.5 587.153 1004.57 587.959 1006.19 589.504C1008.34 591.552 1009.26 594.82 1011.96 596.288C1015.29 598.097 1017.18 595.578 1018.71 592.762C1019.71 590.934 1020.49 588.981 1021.67 587.263C1022.25 586.414 1023.09 585.915 1023.82 585.248Z" fill="white"/>
<path d="M1013.05 600.083C1010.73 599.44 1008.31 599.143 1005.9 599.195C1003.64 599.243 1001.46 599.882 999.221 599.838C999.01 599.834 998.795 599.838 998.584 599.853C997.586 599.91 996.68 599.195 996.522 598.188L996.2 596.13C995.284 590.291 999.308 584.764 1005.14 583.847L1007.2 583.526C1008.21 583.367 1009.17 584.01 1009.42 584.98C1009.47 585.186 1009.53 585.387 1009.6 585.589C1010.39 587.911 1011.3 590.195 1011.97 592.555C1012.66 594.959 1012.89 597.348 1013.1 599.824" fill="#C8D3DD"/>
<path d="M1012.94 600.078C1013.82 600.112 1014.92 599.431 1015.79 599.215C1016.9 598.941 1018.05 598.783 1019.19 598.749C1021.11 598.687 1023.04 598.956 1024.87 599.555C1026.24 600.006 1028.28 600.069 1028.57 598.188L1028.9 596.13C1029.81 590.291 1025.79 584.764 1019.95 583.847L1017.89 583.526C1016.89 583.367 1015.93 584.01 1015.68 584.98C1015.63 585.186 1015.56 585.387 1015.5 585.589L1012.55 594.187C1012.25 595.084 1011.94 595.967 1011.83 596.902C1011.71 597.843 1011.79 598.831 1012.22 599.675C1012.3 599.838 1012.39 599.997 1012.54 600.107C1012.68 600.213 1012.77 600.145 1012.94 600.078Z" fill="#C8D3DD"/>
<path d="M1015.56 599.8C1015.56 598.212 1014.27 598.361 1012.68 598.361C1011.1 598.361 1009.81 598.212 1009.81 599.8C1009.81 601.388 1011.1 604.118 1012.68 604.118C1014.27 604.118 1015.56 601.388 1015.56 599.8Z" fill="#ADCB53"/>
<path d="M1022.42 23.2188C1025.4 23.9337 1028.39 24.6486 1031.38 25.349C1027.58 27.4889 1023.77 29.6431 1019.96 31.7877" fill="#ADCB53"/>
<path d="M1011.22 27.7144C1011.22 40.7549 1000.64 51.3341 987.608 51.3341C974.574 51.3341 964 40.7549 964 27.7144C964 27.2154 1011.22 27.2154 1011.22 27.7144Z" fill="#1A3C5B"/>
<path d="M1010.55 33.5198C1001.29 41.6473 987.215 40.7405 979.082 31.4855C970.949 22.2305 971.865 8.13927 981.115 0.00216247C981.47 -0.309696 1010.9 33.2127 1010.55 33.5198Z" fill="#AECC53"/>
<path d="M1010.28 37.9722C1017.26 37.9722 1022.92 32.3107 1022.92 25.3251C1022.92 18.3395 1017.25 12.678 1010.28 12.678C1003.29 12.678 997.636 18.3395 997.636 25.3251C997.631 32.3107 1003.29 37.9722 1010.28 37.9722Z" fill="#11283C"/>
<path d="M1010.28 39.0517C1002.71 39.0517 996.557 32.8961 996.557 25.3251C996.557 17.7541 1002.71 11.5985 1010.28 11.5985C1017.84 11.5985 1024 17.7541 1024 25.3251C1024 32.8961 1017.84 39.0517 1010.28 39.0517ZM1010.28 13.7527C1003.9 13.7527 998.71 18.944 998.71 25.3251C998.71 31.7062 1003.9 36.8974 1010.28 36.8974C1016.65 36.8974 1021.84 31.7062 1021.84 25.3251C1021.84 18.944 1016.65 13.7527 1010.28 13.7527Z" fill="#ADCB53"/>
</svg>
