<svg width="595" height="520" viewBox="0 0 595 520" fill="none" xmlns="http://www.w3.org/2000/svg">
<path d="M110.453 419C109.527 419 108.774 418.517 108.774 417.924V161.451C108.774 160.858 109.527 160.375 110.453 160.375C111.378 160.375 112.131 160.858 112.131 161.451V417.924C112.131 418.517 111.383 419 110.453 419Z" fill="#1A3C5B"/>
<path d="M81.6608 205.465H38.5739C29.0166 205.465 21.1953 213.29 21.1953 222.852C21.1953 223.006 21.2145 223.155 21.2193 223.308C21.2097 223.462 21.1953 223.61 21.1953 223.764V245.589C21.1953 250.104 24.3747 254.139 28.8344 254.835C34.4547 255.713 39.346 251.332 39.346 245.867V244.798C39.346 242.283 41.384 240.249 43.892 240.249C46.4048 240.249 48.4381 242.288 48.4381 244.798V260.151C48.4381 265.145 52.5238 269.228 57.5158 269.228C62.5079 269.228 66.5888 265.14 66.5888 260.151V244.798C66.5888 242.283 68.6268 240.249 71.1348 240.249H81.656C91.2133 240.249 99.0346 232.424 99.0346 222.862C99.0394 213.29 91.218 205.465 81.6608 205.465Z" fill="#1A3C5B"/>
<path d="M60.4655 190.078H17.3786C8.26731 190.078 0.752881 197.189 0.0671359 206.132C0.0287725 206.429 0 206.727 0 207.034V207.466V235.615C0 239.021 2.43128 242.068 5.80246 242.514C9.88816 243.056 13.408 239.851 13.408 235.864V228.653C13.408 226.503 15.1871 224.843 17.3354 224.848C17.3498 224.848 17.3642 224.848 17.3786 224.848H60.4655C70.0227 224.848 77.8441 217.023 77.8441 207.461C77.8441 197.904 70.0227 190.078 60.4655 190.078Z" fill="#ADCB53"/>
<path d="M110.452 292.689H102.789C83.061 292.689 67.0107 276.631 67.0107 256.893V241.559C67.0107 240.633 67.7636 239.88 68.6891 239.88C69.6147 239.88 70.3675 240.633 70.3675 241.559V256.893C70.3675 274.779 84.9121 289.331 102.789 289.331H110.452C111.378 289.331 112.131 290.084 112.131 291.01C112.131 291.936 111.383 292.689 110.452 292.689Z" fill="#1A3C5B"/>
<path d="M73.274 280.33H65.611C53.5553 280.33 33.3809 280.33 30.1968 255.012C30.0817 254.091 30.7338 253.251 31.6546 253.136C32.5753 253.021 33.4145 253.674 33.5296 254.595C34.7572 264.368 38.7518 270.711 45.7339 273.992C51.5987 276.746 58.485 276.977 65.611 276.977H73.274C74.1995 276.977 74.9524 277.73 74.9524 278.656C74.9524 279.582 74.2043 280.33 73.274 280.33Z" fill="#1A3C5B"/>
<path d="M152.921 244.889H145.258C144.332 244.889 143.579 244.136 143.579 243.21C143.579 242.284 144.332 241.53 145.258 241.53H152.921C160.047 241.53 166.933 241.3 172.798 238.546C179.78 235.264 183.774 228.922 185.002 219.148C185.117 218.227 185.956 217.575 186.877 217.69C187.798 217.805 188.45 218.645 188.335 219.566C185.151 244.889 164.976 244.889 152.921 244.889Z" fill="#1A3C5B"/>
<path d="M110.477 223.155C109.824 223.155 109.201 222.771 108.933 222.133C108.568 221.279 108.966 220.295 109.82 219.93C121.871 214.806 129.658 203.08 129.658 190.05V174.716C129.658 173.79 130.411 173.036 131.337 173.036C132.262 173.036 133.015 173.79 133.015 174.716V190.05C133.015 204.429 124.427 217.373 111.134 223.02C110.918 223.111 110.697 223.155 110.477 223.155Z" fill="#1A3C5B"/>
<path d="M118.116 257.713H110.453C109.527 257.713 108.774 256.96 108.774 256.034C108.774 255.108 109.527 254.355 110.453 254.355H118.116C135.993 254.355 150.538 239.803 150.538 221.917V206.583C150.538 205.657 151.291 204.904 152.216 204.904C153.142 204.904 153.895 205.657 153.895 206.583V221.917C153.899 241.655 137.849 257.713 118.116 257.713Z" fill="#1A3C5B"/>
<path d="M176.021 186.442H197.562C207.119 186.442 214.941 194.267 214.941 203.829C214.941 203.982 214.922 204.131 214.917 204.285C214.926 204.438 214.941 204.587 214.941 204.741V226.566C214.941 231.081 211.761 235.116 207.302 235.811C201.681 236.689 196.79 232.309 196.79 226.844V225.774C196.79 223.26 194.752 221.226 192.244 221.226C189.731 221.226 176.021 221.226 176.021 221.226C166.464 221.226 158.642 213.401 158.642 203.839C158.638 194.267 166.459 186.442 176.021 186.442Z" fill="#1A3C5B"/>
<path d="M65.5103 195.749H42.5738C38.3011 195.749 34.8101 192.252 34.8101 187.982V185.089C34.8101 180.814 38.3059 177.321 42.5738 177.321H65.5103C69.7831 177.321 73.2741 180.819 73.2741 185.089V187.982C73.2789 192.257 69.7831 195.749 65.5103 195.749Z" fill="#ADCB53"/>
<path d="M159.29 174.716H108.276C102.407 174.716 97.6064 169.913 97.6064 164.041V160.068C97.6064 154.195 102.407 149.393 108.276 149.393H159.29C165.16 149.393 169.96 154.195 169.96 160.068V164.041C169.96 169.913 165.155 174.716 159.29 174.716Z" fill="#1A3C5B"/>
<path d="M154.121 125.495H145.954V123.696C145.954 119.464 142.492 116 138.262 116H97.2661C93.0365 116 89.5742 119.464 89.5742 123.696V125.495H83.8581C74.5502 125.495 66.9351 133.114 66.9351 142.426V148.726C66.9351 158.039 74.5502 165.657 83.8581 165.657H154.121C163.429 165.657 171.044 158.039 171.044 148.726V142.426C171.039 133.114 163.424 125.495 154.121 125.495Z" fill="#ADCB53"/>
<path d="M201.02 212.82C201.02 204.098 193.889 196.963 185.171 196.963H155.031C146.313 196.963 139.183 204.098 139.183 212.82C139.183 221.543 146.313 228.677 155.031 228.677H185.171C185.228 228.677 185.291 228.677 185.348 228.677C186.959 228.658 188.384 229.56 189.161 230.97C190.383 233.192 192.901 234.612 195.682 234.185C198.804 233.705 201.024 230.874 201.024 227.717V215.915C201.024 215.497 200.981 215.089 200.904 214.691C200.967 214.077 201.02 213.453 201.02 212.82Z" fill="#ADCB53"/>
<path d="M31.928 142.244C28.763 142.244 26.1831 139.668 26.1831 136.496C26.1831 133.33 28.7582 130.749 31.928 130.749C35.0978 130.749 37.6729 133.325 37.6729 136.496C37.6729 139.668 35.0978 142.244 31.928 142.244ZM31.928 134.088C30.5997 134.088 29.5207 135.167 29.5207 136.496C29.5207 137.825 30.5997 138.905 31.928 138.905C33.2564 138.905 34.3353 137.825 34.3353 136.496C34.3401 135.167 33.2564 134.088 31.928 134.088Z" fill="#ADCB53"/>
<path d="M199.767 156.897C193.432 156.897 188.282 151.739 188.282 145.406C188.282 139.073 193.437 133.915 199.767 133.915C206.097 133.915 211.252 139.073 211.252 145.406C211.252 151.739 206.097 156.897 199.767 156.897ZM199.767 140.584C197.111 140.584 194.948 142.748 194.948 145.406C194.948 148.064 197.111 150.228 199.767 150.228C202.424 150.228 204.587 148.064 204.587 145.406C204.582 142.748 202.424 140.584 199.767 140.584Z" fill="#ADCB53"/>
<path d="M246.686 401.679C245.861 401.679 245.036 401.52 244.23 401.146C238.802 398.613 239.286 391.997 239.67 386.681C239.833 384.469 239.982 382.382 239.732 380.803C239.128 376.984 239.833 374.11 242.245 370.555C244.058 367.892 246.705 365.575 250.575 363.272C251.308 362.835 252.148 362.437 253.035 362.02C255.078 361.055 257.192 360.058 258.195 358.484C259.269 356.8 260.65 355.36 262.3 354.209C265.09 352.261 268.361 351.325 271.751 351.508C273.439 351.599 274.979 350.735 275.77 349.253C276.734 347.454 278.072 345.947 279.755 344.772C287.744 339.197 301.617 339.489 309.448 345.395C311.122 346.657 312.714 348.85 311.678 350.874C311.141 351.92 310.072 352.472 309.108 352.909C308.628 353.125 308.129 353.341 307.621 353.561C305.056 354.67 302.145 355.927 300.466 358.004C299.713 358.935 299.143 359.947 298.591 360.931C297.603 362.682 296.587 364.491 294.51 365.94C292.827 367.115 290.947 367.854 288.929 368.132C287.265 368.363 285.922 369.509 285.423 371.126C284.421 374.369 282.412 377.119 279.621 379.062C277.971 380.213 276.144 381.014 274.192 381.437C272.725 381.758 271.526 382.857 271.066 384.315C269.838 388.187 267.421 391.464 264.083 393.791C262.563 394.851 261.24 395.154 259.844 395.47C259.35 395.581 258.842 395.701 258.305 395.854C256.823 396.281 255.452 397.327 254.128 398.339C253.644 398.709 253.145 399.088 252.656 399.433C251.049 400.561 248.882 401.679 246.686 401.679ZM270.936 352.933C268.136 352.933 265.45 353.777 263.124 355.399C261.628 356.44 260.381 357.74 259.408 359.266C258.185 361.185 255.773 362.327 253.649 363.33C252.795 363.733 251.989 364.116 251.308 364.519C247.626 366.712 245.122 368.89 243.434 371.371C241.219 374.629 240.6 377.123 241.152 380.583C241.43 382.324 241.272 384.493 241.104 386.791C240.73 391.92 240.303 397.735 244.835 399.846C247.285 400.988 250.273 399.342 251.836 398.263C252.301 397.941 252.766 397.586 253.255 397.212C254.684 396.118 256.166 394.986 257.907 394.487C258.482 394.324 259.01 394.204 259.523 394.084C260.837 393.786 261.969 393.527 263.259 392.625C266.332 390.481 268.558 387.458 269.694 383.893C270.313 381.95 271.919 380.477 273.885 380.045C275.65 379.661 277.3 378.937 278.796 377.896C281.323 376.135 283.136 373.65 284.047 370.714C284.704 368.593 286.54 367.024 288.727 366.717C290.521 366.467 292.189 365.81 293.686 364.769C295.493 363.507 296.39 361.919 297.335 360.23C297.915 359.199 298.515 358.134 299.344 357.107C301.248 354.751 304.331 353.422 307.05 352.247C307.554 352.031 308.043 351.82 308.518 351.604C309.29 351.254 310.072 350.86 310.398 350.227C311.069 348.912 309.573 347.295 308.585 346.552C301.2 340.981 288.113 340.708 280.58 345.962C279.084 347.003 277.894 348.341 277.041 349.939C276 351.887 273.885 353.072 271.675 352.952C271.43 352.938 271.185 352.933 270.936 352.933Z" fill="#ADCB53"/>
<path d="M240.193 422.554C240.188 422.554 240.183 422.554 240.178 422.554C239.78 422.544 239.464 422.218 239.473 421.82C239.761 407.335 244.676 392.452 252.618 382.012C262.865 368.535 276.499 357.884 292.05 351.21C292.415 351.052 292.837 351.22 292.995 351.589C293.153 351.954 292.981 352.376 292.616 352.535C277.295 359.112 263.858 369.61 253.764 382.886C246 393.095 241.195 407.661 240.912 421.853C240.902 422.242 240.581 422.554 240.193 422.554Z" fill="#ADCB53"/>
<path d="M214.351 384.747C211.574 384.747 207.373 382.315 203.657 378.548C201.408 376.269 196.19 370.248 196.272 363.497C196.31 360.523 197.073 357.577 198.487 354.977C198.943 354.137 199.47 353.326 200.056 352.568C200.981 351.364 201.197 349.752 200.617 348.365C199.849 346.523 199.461 344.565 199.461 342.55C199.461 339.144 200.564 335.929 202.65 333.247C203.69 331.913 203.863 330.157 203.101 328.66C202.175 326.842 201.705 324.88 201.705 322.826C201.705 318.93 204.088 313.571 206.318 309.853C207.431 307.996 211.315 301.946 214.6 301.946C220.139 301.946 227.495 316.272 227.495 322.826C227.495 324.88 227.025 326.842 226.099 328.66C225.337 330.157 225.51 331.913 226.55 333.247C228.636 335.929 229.739 339.144 229.739 342.55C229.739 344.565 229.351 346.518 228.583 348.365C228.008 349.752 228.224 351.369 229.154 352.578C231.624 355.802 232.928 359.654 232.928 363.728C232.933 374.153 222.124 384.747 214.351 384.747ZM199.749 355.663C198.449 358.057 197.739 360.772 197.711 363.512C197.658 367.82 200.267 373.06 204.683 377.536C208.093 380.99 211.977 383.308 214.355 383.308C221.438 383.308 231.499 373.179 231.499 363.723C231.499 359.971 230.295 356.421 228.022 353.451C226.78 351.834 226.493 349.67 227.265 347.809C227.96 346.139 228.31 344.369 228.31 342.55C228.31 339.47 227.313 336.558 225.423 334.135C224.061 332.384 223.826 329.98 224.824 328.008C225.644 326.391 226.061 324.649 226.061 322.826C226.061 315.922 218.671 303.386 214.605 303.386C211.181 303.386 203.149 315.941 203.149 322.826C203.149 324.649 203.566 326.396 204.386 328.008C205.388 329.975 205.153 332.384 203.786 334.135C201.897 336.558 200.9 339.47 200.9 342.55C200.9 344.373 201.25 346.144 201.945 347.809C202.722 349.67 202.434 351.829 201.197 353.441C200.655 354.137 200.171 354.885 199.749 355.663Z" fill="#ADCB53"/>
<path d="M214.6 415.64C214.202 415.64 213.881 415.319 213.881 414.921V318.182C213.881 317.784 214.202 317.462 214.6 317.462C214.998 317.462 215.32 317.784 215.32 318.182V414.921C215.32 415.319 214.998 415.64 214.6 415.64Z" fill="#ADCB53"/>
<path d="M289.596 454.627C288.929 455.486 287.85 456.1 286.781 456.57C283.769 457.885 280.456 458.489 277.171 459.051C265.547 461.042 253.256 462.568 242.107 458.993C239.181 458.053 233.767 456.004 233.82 452.847C233.883 449.417 236.333 445.08 237.671 441.927C239.541 437.523 241.704 433.205 244.274 429.098C248.077 423.024 254.383 413.966 263.231 413.966C272.045 413.966 278.336 422.962 282.134 429.016C284.676 433.066 286.819 437.321 288.675 441.664C290.027 444.825 292.07 451.427 289.596 454.627Z" fill="#C8D3DD"/>
<path d="M180.61 456.95C180.183 457.501 179.488 457.9 178.797 458.202C176.86 459.046 174.721 459.44 172.606 459.8C165.121 461.081 157.208 462.064 150.025 459.761C148.14 459.157 144.654 457.837 144.687 455.803C144.726 453.596 146.308 450.799 147.166 448.769C148.37 445.934 149.761 443.151 151.42 440.507C153.87 436.592 157.932 430.763 163.629 430.763C169.307 430.763 173.359 436.559 175.805 440.455C177.44 443.065 178.821 445.804 180.015 448.601C180.888 450.636 182.202 454.887 180.61 456.95Z" fill="#C8D3DD"/>
<path d="M69.4379 337.939C45.5471 337.939 26.1064 318.494 26.1064 294.586V258.108C26.1064 252.692 30.4943 248.302 35.9083 248.302C41.3223 248.302 45.7101 252.692 45.7101 258.108V294.586C45.7101 307.68 56.356 318.326 69.4379 318.326C74.8519 318.326 79.2397 322.716 79.2397 328.133C79.2397 333.549 74.8519 337.939 69.4379 337.939Z" fill="#ADCB53"/>
<path d="M69.4381 408.827C64.024 408.827 59.6362 404.437 59.6362 399.021V212.193C59.6362 206.776 64.024 202.386 69.4381 202.386C74.8521 202.386 79.2399 206.776 79.2399 212.193V399.021C79.2399 404.437 74.8521 408.827 69.4381 408.827Z" fill="#ADCB53"/>
<path d="M69.4379 328.756C50.6063 328.756 35.2897 313.427 35.2897 294.591V262.546C35.2897 262.206 35.5678 261.927 35.9083 261.927C36.2488 261.927 36.5269 262.206 36.5269 262.546V294.591C36.5269 312.746 51.292 327.519 69.4379 327.519C69.7783 327.519 70.0565 327.797 70.0565 328.137C70.0565 328.478 69.7831 328.756 69.4379 328.756Z" fill="#11283C"/>
<path d="M31.2418 262.777C31.2418 260.195 33.3326 258.104 35.9126 258.104C38.4925 258.104 40.5785 260.195 40.5785 262.777C40.5785 265.358 38.4877 267.445 35.9126 267.445C33.3326 267.45 31.2418 265.358 31.2418 262.777Z" fill="#11283C"/>
<path d="M69.4383 382.204C69.0978 382.204 68.8197 381.926 68.8197 381.585V216.631C68.8197 216.291 69.0978 216.012 69.4383 216.012C69.7788 216.012 70.0569 216.291 70.0569 216.631V381.585C70.0617 381.926 69.7836 382.204 69.4383 382.204Z" fill="#11283C"/>
<path d="M73.9749 217.953C74.5677 215.441 73.0131 212.924 70.5027 212.331C67.9922 211.738 65.4766 213.293 64.8838 215.805C64.291 218.317 65.8455 220.834 68.356 221.427C70.8664 222.02 73.3821 220.465 73.9749 217.953Z" fill="#11283C"/>
<path d="M96.5457 446.035C94.0137 437.49 91.2084 429.069 88.1393 420.808C82.6438 406.011 76.6159 382.631 62.6181 377.128C49.0231 371.783 38.8999 390.034 33.4476 402.221C27.0601 416.499 21.507 431.363 16.8554 446.668C13.8007 456.719 9.88285 478.334 9.13477 488.822" fill="#11283C"/>
<path d="M9.13567 489.613C9.11649 489.613 9.09731 489.613 9.07813 489.613C8.64175 489.579 8.31086 489.2 8.33963 488.764C9.1069 478.065 13.0919 456.307 16.0938 446.433C20.7358 431.161 26.3321 416.178 32.7244 401.894C42.1617 380.798 52.3184 372.22 62.9115 376.384C75.1878 381.211 81.4123 399.14 86.4091 413.544C87.2675 416.019 88.0827 418.361 88.8883 420.529C91.9526 428.786 94.7867 437.288 97.3139 445.809C97.4386 446.231 97.1988 446.673 96.7768 446.797C96.3548 446.922 95.9136 446.682 95.7889 446.26C93.2761 437.773 90.4516 429.304 87.3969 421.081C86.5865 418.898 85.7713 416.547 84.9081 414.062C80.0168 399.966 73.9266 382.42 62.3313 377.862C52.6733 374.062 43.2023 382.367 34.1774 402.542C27.8138 416.763 22.2416 431.689 17.6188 446.893C14.6408 456.686 10.6894 478.261 9.92692 488.874C9.89815 489.292 9.54808 489.613 9.13567 489.613Z" fill="#C8D3DD"/>
<path d="M47.1676 489.853C46.7264 489.853 46.3716 489.498 46.3716 489.057V411.001C46.3716 410.559 46.7264 410.204 47.1676 410.204C47.6088 410.204 47.9637 410.559 47.9637 411.001V489.057C47.9637 489.498 47.6088 489.853 47.1676 489.853Z" fill="#C8D3DD"/>
<path d="M51.9478 411.241C51.9478 408.597 49.8043 406.452 47.1668 406.452C44.5293 406.452 42.3857 408.597 42.3857 411.241C42.3857 413.884 44.5293 416.024 47.1668 416.024C49.8043 416.024 51.9478 413.884 51.9478 411.241Z" fill="#C8D3DD"/>
<path d="M69.7876 490.333C69.3464 490.333 68.9916 489.978 68.9916 489.536V443.228C68.9916 442.786 69.3464 442.431 69.7876 442.431C70.2288 442.431 70.5837 442.786 70.5837 443.228V489.536C70.5837 489.978 70.224 490.333 69.7876 490.333Z" fill="#C8D3DD"/>
<path d="M74.5688 443.463C74.5688 440.819 72.4253 438.675 69.7878 438.675C67.1455 438.675 65.002 440.819 65.002 443.463C65.002 446.106 67.1455 448.246 69.7878 448.246C72.4301 448.251 74.5688 446.106 74.5688 443.463Z" fill="#C8D3DD"/>
<path d="M58.3025 489.853C57.8613 489.853 57.5065 489.498 57.5065 489.057V427.87C57.5065 427.429 57.8613 427.073 58.3025 427.073C58.7437 427.073 59.0986 427.429 59.0986 427.87V489.057C59.0938 489.498 58.7389 489.853 58.3025 489.853Z" fill="#C8D3DD"/>
<path d="M63.084 428.11C63.084 425.466 60.9404 423.322 58.3029 423.322C55.6654 423.322 53.5171 425.466 53.5171 428.11C53.5171 430.754 55.6606 432.893 58.3029 432.893C60.9452 432.893 63.084 430.754 63.084 428.11Z" fill="#C8D3DD"/>
<path d="M259.734 472.595C258.708 467.423 255.955 461.56 254.622 457.688C252.09 450.314 249.285 443.05 246.216 435.916C240.72 423.149 234.693 402.969 220.695 398.219C207.1 393.604 196.977 409.36 191.524 419.877C186.518 429.53 182.034 439.5 178.087 449.709C178.648 449.633 179.234 449.642 179.814 449.748C190.733 451.787 199.921 460.015 206.428 468.598C212.274 476.304 216.643 485.808 216.321 495.577C231.504 495.514 254.454 492.693 259.586 479.485C260.329 477.585 260.247 475.176 259.734 472.595Z" fill="#1A3C5B"/>
<path d="M149.095 414.388C132.493 414.388 118.984 400.873 118.984 384.262C118.984 378.361 122.826 364.894 141.134 334.231C142.827 331.4 145.8 329.706 149.095 329.706C152.389 329.706 155.362 331.395 157.055 334.231C175.364 364.894 179.205 378.361 179.205 384.262C179.205 400.873 165.697 414.388 149.095 414.388ZM149.095 331.299C146.366 331.299 143.901 332.7 142.501 335.046C134.311 348.759 120.572 373.391 120.572 384.262C120.572 399.999 133.366 412.8 149.095 412.8C164.824 412.8 177.618 399.999 177.618 384.262C177.618 373.395 163.879 348.763 155.689 335.046C154.288 332.7 151.823 331.299 149.095 331.299Z" fill="#C8D3DD"/>
<path d="M149.099 377.349C143.215 377.349 138.108 373.156 136.952 367.379C136.866 366.947 137.144 366.53 137.576 366.443C138.007 366.357 138.424 366.635 138.511 367.067C139.518 372.105 143.968 375.761 149.099 375.761C154.225 375.761 158.68 372.105 159.687 367.067C159.774 366.635 160.191 366.357 160.622 366.443C161.054 366.53 161.332 366.947 161.246 367.379C160.09 373.156 154.983 377.349 149.099 377.349Z" fill="#C8D3DD"/>
<path d="M158.062 367.086C158.201 365.772 159.376 364.817 160.69 364.956C162.004 365.095 162.958 366.271 162.819 367.585C162.68 368.9 161.505 369.855 160.191 369.716C158.877 369.581 157.923 368.401 158.062 367.086Z" fill="#C8D3DD"/>
<path d="M140.136 367.086C139.997 365.772 138.822 364.817 137.508 364.956C136.194 365.095 135.24 366.271 135.379 367.585C135.518 368.9 136.693 369.855 138.007 369.716C139.321 369.581 140.275 368.401 140.136 367.086Z" fill="#C8D3DD"/>
<path d="M149.098 398.819C140.097 398.819 132.415 392.088 131.231 383.159C131.173 382.722 131.48 382.324 131.912 382.267C132.348 382.209 132.746 382.516 132.803 382.948C133.887 391.09 140.893 397.226 149.098 397.226C157.303 397.226 164.309 391.09 165.393 382.948C165.451 382.511 165.849 382.204 166.285 382.267C166.721 382.324 167.028 382.722 166.966 383.159C165.782 392.083 158.099 398.819 149.098 398.819Z" fill="#C8D3DD"/>
<path d="M163.759 382.981C163.859 381.662 165.01 380.678 166.329 380.784C167.648 380.885 168.631 382.036 168.525 383.356C168.424 384.675 167.274 385.659 165.955 385.553C164.641 385.452 163.658 384.301 163.759 382.981Z" fill="#C8D3DD"/>
<path d="M134.439 382.981C134.339 381.662 133.188 380.678 131.869 380.784C130.55 380.885 129.567 382.036 129.673 383.356C129.773 384.675 130.924 385.659 132.243 385.553C133.557 385.452 134.54 384.301 134.439 382.981Z" fill="#C8D3DD"/>
<path d="M149.104 447.445C148.663 447.445 148.308 447.09 148.308 446.649V354.348C148.308 353.907 148.663 353.552 149.104 353.552C149.545 353.552 149.9 353.907 149.9 354.348V446.649C149.9 447.09 149.545 447.445 149.104 447.445Z" fill="#C8D3DD"/>
<path d="M146.711 354.468C146.711 353.149 147.78 352.074 149.104 352.074C150.423 352.074 151.497 353.144 151.497 354.468C151.497 355.787 150.427 356.862 149.104 356.862C147.785 356.862 146.711 355.787 146.711 354.468Z" fill="#C8D3DD"/>
<path d="M148.352 441.841C145.355 434.836 142.41 429.631 135.912 424.022C133.668 422.084 131.366 420.112 128.499 418.893C123.526 416.782 117.93 417.876 113.964 420.889C106.349 426.67 101.851 434.899 98.4218 442.868C96.096 448.27 90.845 457.396 92.4659 463.858C98.5944 456.369 108.243 451.01 117.795 455.28C123.722 457.928 130.086 463.297 132.915 469.621C133.141 469.86 133.342 470.12 133.5 470.412C134.172 471.636 134.79 472.893 135.356 474.169C144.156 473.037 153.209 470.527 156.259 465.715C156.945 464.636 157.319 463.503 157.449 462.333C158.216 455.486 150.721 447.378 148.352 441.841Z" fill="#1A3C5B"/>
<path d="M139.345 474.86C138.976 474.86 138.66 474.577 138.631 474.202C137.988 466.646 140.232 458.931 144.942 452.483C146.246 450.698 148.917 448.788 152.164 449.259C152.557 449.316 152.83 449.681 152.773 450.074C152.715 450.468 152.351 450.741 151.957 450.684C149.344 450.3 147.171 451.873 146.102 453.332C141.594 459.502 139.451 466.867 140.06 474.082C140.093 474.481 139.801 474.826 139.403 474.86C139.384 474.86 139.365 474.86 139.345 474.86Z" fill="#11283C"/>
<path d="M127.506 478.612C127.113 478.612 126.792 478.29 126.787 477.897C126.701 464.904 131.189 452.967 139.758 443.367C140.756 442.249 142.54 441.112 144.098 440.608C145.47 440.167 146.995 440.215 148.63 440.757C149.009 440.882 149.21 441.29 149.086 441.669C148.961 442.048 148.553 442.249 148.174 442.124C146.817 441.673 145.628 441.625 144.544 441.976C143.23 442.403 141.672 443.386 140.837 444.322C132.508 453.653 128.149 465.259 128.23 477.887C128.225 478.285 127.904 478.612 127.506 478.612Z" fill="#11283C"/>
<path d="M116.098 477.758C116.084 477.758 116.065 477.758 116.05 477.758C115.652 477.734 115.355 477.388 115.379 476.995C116.352 462.093 122.466 448.078 133.055 436.468C135.366 433.934 139.514 431.185 143.6 431.785C143.993 431.842 144.266 432.207 144.209 432.6C144.151 432.994 143.787 433.267 143.394 433.21C140.094 432.73 136.354 434.99 134.119 437.441C123.752 448.808 117.767 462.52 116.813 477.091C116.789 477.465 116.472 477.758 116.098 477.758Z" fill="#11283C"/>
<path d="M180.231 324.175C182.832 324.175 184.94 322.065 184.94 319.463C184.94 316.861 182.832 314.752 180.231 314.752C177.63 314.752 175.522 316.861 175.522 319.463C175.522 322.065 177.63 324.175 180.231 324.175Z" fill="#C8D3DD"/>
<path d="M180.231 302.723C184.749 302.723 188.412 299.059 188.412 294.538C188.412 290.018 184.749 286.353 180.231 286.353C175.713 286.353 172.05 290.018 172.05 294.538C172.05 299.059 175.713 302.723 180.231 302.723Z" fill="#C8D3DD"/>
<path d="M233.321 506.161C232.885 506.161 232.53 505.806 232.53 505.369V454.464C232.53 454.028 232.885 453.673 233.321 453.673C233.757 453.673 234.112 454.028 234.112 454.464V505.369C234.112 505.806 233.757 506.161 233.321 506.161Z" fill="#ADCB53"/>
<path d="M236.299 454.613C236.299 452.967 234.966 451.634 233.321 451.634C231.676 451.634 230.343 452.967 230.343 454.613C230.343 456.259 231.676 457.593 233.321 457.593C234.966 457.593 236.299 456.264 236.299 454.613Z" fill="#ADCB53"/>
<path d="M199.273 506.161C198.837 506.161 198.482 505.806 198.482 505.369V484.211C198.482 483.774 198.837 483.419 199.273 483.419C199.71 483.419 200.064 483.774 200.064 484.211V505.369C200.064 505.806 199.71 506.161 199.273 506.161Z" fill="#ADCB53"/>
<path d="M202.251 484.36C202.251 482.714 200.918 481.38 199.273 481.38C197.628 481.38 196.295 482.714 196.295 484.36C196.295 486.005 197.628 487.339 199.273 487.339C200.918 487.339 202.251 486.01 202.251 484.36Z" fill="#ADCB53"/>
<path d="M248.667 506.641C248.231 506.641 247.876 506.286 247.876 505.849V475.143C247.876 474.706 248.231 474.351 248.667 474.351C249.104 474.351 249.458 474.706 249.458 475.143V505.849C249.458 506.286 249.104 506.641 248.667 506.641Z" fill="#ADCB53"/>
<path d="M207.427 503.762C206.991 503.762 206.636 503.407 206.636 502.97V472.264C206.636 471.828 206.991 471.473 207.427 471.473C207.863 471.473 208.218 471.828 208.218 472.264V502.97C208.218 503.407 207.863 503.762 207.427 503.762Z" fill="#ADCB53"/>
<path d="M218.806 458.912C219.003 458.734 219.19 458.542 219.367 458.331C220.182 457.338 220.125 455.856 219.199 454.925L217.305 453.03C211.934 447.656 203.139 447.656 197.768 453.03L195.874 454.925C194.949 455.851 194.891 457.333 195.706 458.331C195.879 458.542 196.047 458.763 196.2 458.984C197.485 460.817 199.552 461.623 201.173 463.167C203.322 465.216 204.247 468.483 206.947 469.952C210.27 471.76 212.164 469.242 213.699 466.425C214.696 464.597 215.473 462.645 216.658 460.927C217.238 460.078 218.072 459.579 218.806 458.912Z" fill="white"/>
<path d="M208.031 473.747C205.71 473.104 203.293 472.806 200.886 472.859C198.627 472.907 196.445 473.545 194.206 473.502C193.995 473.497 193.779 473.502 193.568 473.516C192.571 473.574 191.664 472.859 191.506 471.852L191.185 469.793C190.269 463.954 194.292 458.427 200.128 457.511L202.185 457.189C203.192 457.031 204.151 457.674 204.401 458.643C204.454 458.85 204.516 459.051 204.583 459.253C205.379 461.575 206.281 463.858 206.957 466.219C207.643 468.623 207.873 471.012 208.089 473.488" fill="#C8D3DD"/>
<path d="M207.925 473.742C208.808 473.775 209.901 473.094 210.774 472.878C211.886 472.605 213.032 472.446 214.179 472.413C216.097 472.351 218.029 472.619 219.852 473.219C221.223 473.67 223.261 473.732 223.558 471.852L223.88 469.793C224.796 463.954 220.772 458.427 214.936 457.511L212.879 457.189C211.872 457.031 210.913 457.674 210.664 458.643C210.611 458.849 210.548 459.051 210.481 459.253L207.532 467.85C207.23 468.747 206.928 469.63 206.813 470.566C206.698 471.501 206.774 472.494 207.201 473.339C207.283 473.502 207.379 473.66 207.523 473.771C207.666 473.881 207.758 473.809 207.925 473.742Z" fill="#C8D3DD"/>
<path d="M210.544 473.464C210.544 471.875 209.254 472.024 207.666 472.024C206.079 472.024 204.789 471.875 204.789 473.464C204.789 475.052 206.079 477.782 207.666 477.782C209.254 477.782 210.544 475.052 210.544 473.464Z" fill="#ADCB53"/>
<path d="M250.187 481.25C248.623 480.636 246.969 480.253 245.295 480.109C243.722 479.974 242.164 480.257 240.615 480.065C240.466 480.046 240.322 480.037 240.174 480.027C239.478 479.993 238.903 479.432 238.865 478.722L238.793 477.268C238.586 473.152 241.78 469.616 245.895 469.405L247.348 469.333C248.057 469.299 248.676 469.812 248.777 470.503C248.801 470.652 248.825 470.796 248.858 470.94C249.242 472.61 249.697 474.26 249.995 475.944C250.297 477.662 250.283 479.336 250.249 481.068" fill="white"/>
<path d="M249.314 480.891C249.928 480.843 250.628 480.281 251.218 480.061C251.966 479.782 252.747 479.581 253.539 479.461C254.862 479.259 256.219 479.288 257.533 479.557C258.521 479.758 259.936 479.634 259.989 478.305L260.046 476.851C260.204 472.734 256.967 469.232 252.853 469.074L251.4 469.016C250.69 468.987 250.081 469.51 249.985 470.201C249.966 470.35 249.937 470.494 249.909 470.638L248.566 476.832C248.432 477.479 248.293 478.113 248.288 478.775C248.283 479.437 248.417 480.113 248.782 480.665C248.849 480.771 248.93 480.871 249.041 480.939C249.146 481.006 249.204 480.953 249.314 480.891Z" fill="white"/>
<path d="M251.692 480.051C251.692 478.463 250.403 478.612 248.815 478.612C247.228 478.612 245.938 478.463 245.938 480.051C245.938 481.639 247.228 484.369 248.815 484.369C250.407 484.369 251.692 481.639 251.692 480.051Z" fill="#ADCB53"/>
<path d="M146.942 505.417C146.548 505.417 146.213 505.129 146.155 504.731C145.167 497.376 143.091 490.155 139.993 483.28C135.385 473.056 129.045 464.684 121.152 458.403C113.335 452.18 104.31 452.756 96.3932 459.977C87.6847 467.922 80.5443 484.043 77.2882 503.109C77.2163 503.541 76.8086 503.829 76.3723 503.757C75.9407 503.685 75.653 503.273 75.7249 502.841C79.0337 483.443 86.3611 466.982 95.3238 458.806C103.874 451.005 113.647 450.405 122.135 457.165C130.225 463.604 136.718 472.173 141.432 482.627C144.597 489.647 146.712 497.011 147.723 504.52C147.781 504.952 147.479 505.355 147.042 505.412C147.009 505.412 146.975 505.417 146.942 505.417Z" fill="#ADCB53"/>
<path d="M130.278 505.907C129.861 505.907 129.511 505.58 129.487 505.158C129.204 499.876 129.669 494.588 130.872 489.436C131.505 486.734 132.867 483.27 135.793 482.1C138.958 480.833 141.504 483.174 142.837 485.789C143.034 486.178 142.88 486.658 142.492 486.854C142.103 487.051 141.624 486.898 141.427 486.509C140.938 485.545 139.121 482.474 136.387 483.573C133.975 484.537 132.867 487.891 132.421 489.8C131.251 494.804 130.801 499.943 131.074 505.076C131.098 505.513 130.762 505.887 130.326 505.911C130.302 505.907 130.292 505.907 130.278 505.907Z" fill="#ADCB53"/>
<path d="M120.524 505.12C120.111 505.12 119.766 504.803 119.733 504.386C119.263 498.12 119.545 491.801 120.572 485.607C120.97 483.189 121.507 480.632 122.73 478.314C124.101 475.704 126.158 473.848 128.518 473.09C131.635 472.082 136.43 473.737 138.19 476.424C138.43 476.789 138.329 477.283 137.96 477.523C137.595 477.763 137.102 477.662 136.862 477.292C135.485 475.196 131.448 473.809 129.002 474.596C127.07 475.22 125.29 476.841 124.13 479.048C123.017 481.164 122.514 483.573 122.135 485.861C121.133 491.935 120.855 498.125 121.315 504.266C121.349 504.702 121.022 505.081 120.581 505.115C120.562 505.115 120.543 505.12 120.524 505.12Z" fill="#ADCB53"/>
<path d="M107.562 505.101C107.13 505.101 106.78 504.755 106.77 504.323C106.598 496.762 107.576 489.877 109.945 482.004L110.209 481.116C111.993 475.143 114.688 466.113 120.452 462.961C125.108 460.414 128.8 464.065 131.246 466.483C131.558 466.79 131.558 467.294 131.251 467.606C130.944 467.917 130.441 467.917 130.129 467.61C127.232 464.741 124.561 462.52 121.214 464.353C116.025 467.193 113.441 475.843 111.734 481.572L111.47 482.46C109.154 490.165 108.195 496.896 108.362 504.29C108.372 504.726 108.027 505.091 107.59 505.101C107.571 505.101 107.566 505.101 107.562 505.101Z" fill="#ADCB53"/>
<path d="M270.246 506.641H147.004C146.567 506.641 146.212 506.286 146.212 505.849C146.212 505.412 146.567 505.057 147.004 505.057H270.246C270.682 505.057 271.037 505.412 271.037 505.849C271.037 506.286 270.682 506.641 270.246 506.641Z" fill="#ADCB53"/>
<path d="M47.2593 488.577H0.26416V489.536H47.2593V488.577Z" fill="#C8D3DD"/>
<path d="M37.9083 495.054H13.9312V496.013H37.9083V495.054Z" fill="#C8D3DD"/>
<path d="M556.451 103.374H584.572C585.022 100.85 585.272 98.2544 585.272 95.5964C585.272 93.6053 584.975 91.2832 584.428 88.7355H556.451C553.425 88.7355 550.965 86.2695 550.965 83.2468C550.965 80.2194 553.43 77.7581 556.451 77.7581H581.2C579.57 73.1714 577.522 68.22 575.235 63.12H556.451C553.425 63.12 550.965 60.6539 550.965 57.6312C550.965 54.6038 553.43 52.1425 556.451 52.1425H570.061C567.634 47.2008 565.083 42.259 562.551 37.5044H556.442C553.416 37.5044 550.956 35.0383 550.956 32.0157C550.956 28.9882 553.421 26.5269 556.442 26.5269H556.562C548.237 11.5673 541.346 0.43158 541.346 0.43158C541.346 0.43158 534.455 11.5673 526.13 26.5174H526.25C529.276 26.5174 531.736 28.9834 531.736 32.0061C531.736 35.0335 529.271 37.4948 526.25 37.4948H520.14C519.042 39.5578 517.944 41.6593 516.851 43.7703C517.925 43.8375 518.989 44.2741 519.81 45.0274C519.91 45.1185 520.001 45.2145 520.088 45.3152C520.116 45.344 520.145 45.368 520.174 45.392C520.908 46.1261 521.641 46.8601 522.38 47.599C523.545 48.7649 545.969 134.248 547.522 139.079C562.374 136.978 574.842 127.44 581.033 114.351H556.451C553.425 114.351 550.965 111.885 550.965 108.862C550.965 105.84 553.43 103.374 556.451 103.374Z" fill="#ADCB53"/>
<path d="M539.467 431.66C538.541 431.66 537.788 430.907 537.788 429.981V231.831C537.788 230.905 538.541 230.151 539.467 230.151C540.392 230.151 541.145 230.905 541.145 231.831V429.981C541.145 430.907 540.397 431.66 539.467 431.66Z" fill="#1A3C5B"/>
<path d="M508.45 245.596H486.53C475.011 245.596 463.929 242.088 454.473 235.458C445.237 228.981 438.216 220.023 434.183 209.559C430.659 200.448 430.232 189.994 432.975 180.115L467.305 56.5373C471.17 42.6188 482.996 33.6229 497.43 33.6229H497.435C511.864 33.6229 523.685 42.6093 527.56 56.5229C537.069 90.6691 547.087 126.605 554.28 152.407L561.996 180.091C564.758 189.994 564.331 200.472 560.802 209.598C556.759 220.052 549.738 228.995 540.502 235.467C531.041 242.098 519.959 245.596 508.45 245.596ZM497.435 37.7011H497.43C484.876 37.7059 474.589 45.5263 471.228 57.636L436.897 181.214C434.385 190.253 434.768 199.8 437.981 208.096C445.697 228.093 465.21 241.522 486.535 241.522H508.455C529.77 241.522 549.283 228.103 557.008 208.129C560.226 199.82 560.605 190.248 558.078 181.19L550.362 153.506C543.169 127.703 533.151 91.7678 523.642 57.6216C520.271 45.5215 509.984 37.7011 497.435 37.7011Z" fill="#1A3C5B"/>
<path d="M497.497 151.294C488.098 151.294 479.5 145.738 475.591 137.136C475.208 136.292 475.582 135.298 476.426 134.915C477.27 134.531 478.262 134.905 478.646 135.749C482.012 143.152 489.412 147.941 497.497 147.941C505.582 147.941 512.981 143.152 516.348 135.749C516.731 134.905 517.729 134.531 518.568 134.915C519.412 135.298 519.786 136.296 519.402 137.136C515.494 145.734 506.891 151.294 497.497 151.294Z" fill="#1A3C5B"/>
<path d="M511.7 134.857C512.731 131.527 516.265 129.661 519.593 130.693C522.921 131.724 524.787 135.26 523.756 138.59C522.725 141.919 519.19 143.786 515.862 142.754C512.534 141.723 510.669 138.187 511.7 134.857Z" fill="#1A3C5B"/>
<path d="M483.292 134.857C482.261 131.527 478.727 129.661 475.399 130.693C472.071 131.724 470.205 135.26 471.236 138.59C472.267 141.919 475.801 143.786 479.129 142.754C482.457 141.723 484.323 138.187 483.292 134.857Z" fill="#1A3C5B"/>
<path d="M497.497 194.811C482.118 194.811 468.331 184.476 463.972 169.68C463.708 168.792 464.217 167.857 465.109 167.593C465.996 167.329 466.931 167.837 467.195 168.73C471.136 182.106 483.595 191.447 497.497 191.447C511.399 191.447 523.862 182.106 527.799 168.725C528.063 167.837 528.993 167.329 529.885 167.588C530.772 167.852 531.281 168.783 531.022 169.675C526.663 184.476 512.876 194.811 497.497 194.811Z" fill="#1A3C5B"/>
<path d="M523.134 168.25C523.829 164.834 527.162 162.627 530.576 163.323C533.99 164.018 536.196 167.353 535.501 170.769C534.806 174.185 531.473 176.392 528.058 175.696C524.644 175 522.438 171.666 523.134 168.25Z" fill="#1A3C5B"/>
<path d="M471.86 168.25C471.164 164.834 467.832 162.627 464.417 163.323C461.003 164.018 458.797 167.353 459.492 170.769C460.188 174.185 463.521 176.392 466.935 175.696C470.349 175 472.555 171.666 471.86 168.25Z" fill="#1A3C5B"/>
<path d="M497.497 441.496C496.571 441.496 495.818 440.742 495.818 439.816V101.67C495.818 100.744 496.571 99.9912 497.497 99.9912C498.422 99.9912 499.175 100.744 499.175 101.67V439.816C499.175 440.742 498.422 441.496 497.497 441.496Z" fill="#1A3C5B"/>
<path d="M497.497 107.538C494.361 107.538 491.81 104.986 491.81 101.848C491.81 98.7102 494.361 96.1577 497.497 96.1577C500.633 96.1577 503.184 98.7102 503.184 101.848C503.184 104.986 500.633 107.538 497.497 107.538ZM497.497 100.231C496.605 100.231 495.881 100.956 495.881 101.848C495.881 102.74 496.605 103.465 497.497 103.465C498.389 103.465 499.113 102.74 499.113 101.848C499.113 100.956 498.389 100.231 497.497 100.231Z" fill="#1A3C5B"/>
<path d="M523.459 508.703C523.028 508.703 522.673 508.358 522.663 507.926C522.227 487.564 526.461 464.871 534.594 444.024C537.304 437.072 541.303 428.287 548.199 422.016C552.73 417.895 561.861 412.987 568.44 416.345C580.558 422.535 585.239 439.217 587.703 451.23C590.691 465.787 593.707 481.346 594.873 497.385C594.906 497.822 594.575 498.206 594.139 498.235C593.707 498.268 593.319 497.937 593.29 497.501C592.134 481.557 589.128 466.06 586.15 451.552C583.752 439.859 579.23 423.643 567.721 417.766C561.856 414.772 553.474 419.373 549.268 423.197C542.617 429.242 538.723 437.816 536.076 444.605C528.02 465.259 523.824 487.737 524.255 507.893C524.265 508.334 523.915 508.694 523.478 508.703C523.469 508.703 523.464 508.703 523.459 508.703Z" fill="#C8D3DD"/>
<path d="M523.727 398.094C501.026 398.094 482.554 379.613 482.554 356.9V322.073C482.554 316.925 486.721 312.755 491.867 312.755C497.012 312.755 501.179 316.925 501.179 322.073V356.9C501.179 369.341 511.293 379.46 523.727 379.46C536.162 379.46 546.275 369.341 546.275 356.9V322.236C546.275 317.088 550.443 312.919 555.588 312.919C560.734 312.919 564.901 317.088 564.901 322.236V356.9C564.901 379.618 546.429 398.094 523.727 398.094Z" fill="#ADCB53"/>
<path d="M523.728 515.176C518.582 515.176 514.415 511.006 514.415 505.858V278.609C514.415 273.461 518.582 269.292 523.728 269.292C528.873 269.292 533.041 273.461 533.041 278.609V505.858C533.041 511.006 528.868 515.176 523.728 515.176Z" fill="#ADCB53"/>
<path d="M523.728 389.401C505.817 389.401 491.249 374.82 491.249 356.905V326.516C491.249 326.175 491.527 325.897 491.867 325.897C492.208 325.897 492.486 326.175 492.486 326.516V356.905C492.486 374.139 506.498 388.163 523.728 388.163C540.958 388.163 554.97 374.144 554.97 356.905V326.679C554.97 326.338 555.248 326.06 555.589 326.06C555.929 326.06 556.207 326.338 556.207 326.679V356.905C556.207 374.82 541.639 389.401 523.728 389.401Z" fill="#11283C"/>
<path d="M550.918 326.909C550.918 324.328 553.008 322.236 555.588 322.236C558.168 322.236 560.254 324.328 560.254 326.909C560.254 329.49 558.163 331.577 555.588 331.577C553.008 331.582 550.918 329.49 550.918 326.909Z" fill="#11283C"/>
<path d="M496.533 326.746C496.533 324.165 494.442 322.073 491.862 322.073C489.282 322.073 487.192 324.165 487.192 326.746C487.192 329.327 489.282 331.414 491.862 331.414C494.442 331.414 496.533 329.322 496.533 326.746Z" fill="#11283C"/>
<path d="M523.728 506.482C523.388 506.482 523.109 506.204 523.109 505.863V283.052C523.109 282.712 523.388 282.433 523.728 282.433C524.069 282.433 524.347 282.712 524.347 283.052V505.863C524.347 506.204 524.069 506.482 523.728 506.482Z" fill="#11283C"/>
<path d="M528.059 285.054C529.046 282.669 527.914 279.935 525.531 278.948C523.148 277.96 520.415 279.092 519.428 281.477C518.441 283.861 519.573 286.595 521.956 287.583C524.339 288.57 527.072 287.438 528.059 285.054Z" fill="#11283C"/>
<path d="M559.41 509.462C558.969 509.462 558.614 509.107 558.614 508.665V436.631C558.614 436.189 558.969 435.834 559.41 435.834C559.852 435.834 560.206 436.189 560.206 436.631V508.665C560.206 509.107 559.852 509.462 559.41 509.462Z" fill="#C8D3DD"/>
<path d="M564.196 436.87C564.196 434.227 562.053 432.082 559.415 432.082C556.773 432.082 554.63 434.227 554.63 436.87C554.63 439.514 556.773 441.654 559.415 441.654C562.053 441.654 564.196 439.509 564.196 436.87Z" fill="#C8D3DD"/>
<path d="M548.42 507.931C547.979 507.931 547.624 507.576 547.624 507.135V458.288C547.624 457.846 547.979 457.491 548.42 457.491C548.861 457.491 549.216 457.846 549.216 458.288V507.135C549.211 507.576 548.856 507.931 548.42 507.931Z" fill="#C8D3DD"/>
<path d="M553.201 458.528C553.201 455.884 551.057 453.74 548.415 453.74C545.773 453.74 543.634 455.884 543.634 458.528C543.634 461.171 545.777 463.311 548.415 463.311C551.052 463.311 553.201 461.171 553.201 458.528Z" fill="#C8D3DD"/>
<path d="M571.519 509.462C571.078 509.462 570.723 509.107 570.723 508.665V450.611C570.723 450.17 571.078 449.815 571.519 449.815C571.96 449.815 572.315 450.17 572.315 450.611V508.665C572.315 509.107 571.96 509.462 571.519 509.462Z" fill="#C8D3DD"/>
<path d="M576.304 450.851C576.304 448.208 574.161 446.063 571.523 446.063C568.886 446.063 566.742 448.208 566.742 450.851C566.742 453.495 568.886 455.635 571.523 455.635C574.161 455.635 576.304 453.495 576.304 450.851Z" fill="#C8D3DD"/>
<path d="M416.272 410.482C412.776 410.482 407.477 407.407 402.778 402.643C394.237 393.997 393.398 386.455 393.432 383.615C393.48 379.858 394.444 376.135 396.227 372.848C396.803 371.788 397.469 370.761 398.208 369.802C399.407 368.238 399.69 366.146 398.937 364.342C397.968 362.015 397.479 359.544 397.479 357.006C397.479 352.707 398.87 348.648 401.502 345.266C402.85 343.534 403.075 341.25 402.087 339.312C400.922 337.018 400.332 334.543 400.332 331.956C400.332 327.039 403.349 320.25 406.173 315.543C407.578 313.202 412.479 305.559 416.589 305.559C423.571 305.559 432.845 323.671 432.845 331.956C432.845 334.543 432.255 337.018 431.09 339.312C430.102 341.255 430.328 343.538 431.675 345.266C434.308 348.648 435.699 352.707 435.699 357.006C435.699 359.544 435.209 362.015 434.241 364.342C433.493 366.146 433.776 368.242 434.979 369.811C438.101 373.885 439.751 378.754 439.751 383.898C439.751 397.087 426.089 410.482 416.272 410.482ZM397.618 373.606C395.954 376.667 395.057 380.131 395.014 383.634C394.947 389.137 398.27 395.825 403.9 401.53C408.25 405.934 413.222 408.894 416.267 408.894C425.312 408.894 438.163 395.969 438.163 383.898C438.163 379.105 436.629 374.571 433.718 370.776C432.169 368.756 431.809 366.055 432.773 363.732C433.66 361.597 434.111 359.338 434.111 357.006C434.111 353.067 432.836 349.344 430.419 346.24C428.716 344.052 428.424 341.048 429.671 338.592C430.721 336.524 431.253 334.293 431.253 331.956C431.253 323.148 421.792 307.147 416.579 307.147C411.779 307.147 401.905 323.843 401.905 331.956C401.905 334.293 402.437 336.524 403.488 338.592C404.739 341.053 404.442 344.052 402.74 346.24C400.328 349.339 399.047 353.062 399.047 357.006C399.047 359.338 399.498 361.597 400.385 363.732C401.354 366.059 400.994 368.756 399.45 370.766C398.779 371.663 398.155 372.618 397.618 373.606Z" fill="#ADCB53"/>
<path d="M416.588 449.714C416.151 449.714 415.797 449.359 415.797 448.923V326.065C415.797 325.628 416.151 325.273 416.588 325.273C417.024 325.273 417.379 325.628 417.379 326.065V448.923C417.379 449.359 417.024 449.714 416.588 449.714Z" fill="#ADCB53"/>
<path d="M452.578 412.061C452.142 412.061 451.787 411.706 451.787 411.269V327.907C451.787 327.47 452.142 327.115 452.578 327.115C453.014 327.115 453.369 327.47 453.369 327.907V411.269C453.369 411.706 453.014 412.061 452.578 412.061Z" fill="#ADCB53"/>
<path d="M457.345 328.142C457.345 325.508 455.211 323.373 452.579 323.373C449.946 323.373 447.812 325.508 447.812 328.142C447.812 330.776 449.946 332.911 452.579 332.911C455.211 332.916 457.345 330.776 457.345 328.142Z" fill="#ADCB53"/>
<path d="M467.559 425.015C467.123 425.015 466.768 424.66 466.768 424.223V341.888C466.768 341.451 467.123 341.096 467.559 341.096C467.995 341.096 468.35 341.451 468.35 341.888V424.223C468.355 424.66 468 425.015 467.559 425.015Z" fill="#ADCB53"/>
<path d="M472.33 342.128C472.33 339.494 470.196 337.359 467.564 337.359C464.931 337.359 462.797 339.494 462.797 342.128C462.797 344.762 464.931 346.897 467.564 346.897C470.196 346.897 472.33 344.762 472.33 342.128Z" fill="#ADCB53"/>
<path d="M499.678 487.248C498.432 488.86 496.408 490.011 494.404 490.884C488.759 493.346 482.544 494.483 476.387 495.538C454.597 499.266 431.56 502.13 410.656 495.428C405.17 493.667 395.018 489.824 395.124 483.908C395.239 477.479 399.833 469.342 402.341 463.436C405.847 455.184 409.899 447.09 414.718 439.389C421.844 427.999 433.67 411.025 450.252 411.025C466.772 411.025 478.569 427.889 485.69 439.236C490.457 446.826 494.471 454.81 497.952 462.947C500.489 468.872 504.32 481.25 499.678 487.248Z" fill="#1A3C5B"/>
<path d="M461.68 501.651C460.759 491.954 469.679 480.468 472.498 472.624C476.066 462.697 479.567 455.328 487.302 447.378C489.973 444.633 492.711 441.841 496.125 440.114C502.038 437.125 508.699 438.67 513.418 442.94C522.476 451.134 527.828 462.788 531.913 474.082C535.141 483.002 543.092 499.084 537.332 508.008C532.11 517.148 515.623 518.789 506.483 519.403C495.31 520.151 469.18 517.872 463.094 506.449C462.284 504.918 461.838 503.311 461.68 501.651Z" fill="#11283C"/>
<path d="M540.243 510.536C539.807 510.536 539.452 510.181 539.452 509.745C539.438 497.217 535.237 485.592 531.17 474.351C527.593 464.463 522.284 452.027 512.89 443.525C508.08 439.173 501.794 438.137 496.49 440.819C493.157 442.503 490.472 445.262 487.877 447.929C480.157 455.86 475.251 466.305 470.503 476.405C470.053 477.364 469.607 478.314 469.156 479.264C464.989 488.068 461.968 497.606 460.423 506.852C460.351 507.283 459.944 507.576 459.512 507.504C459.081 507.432 458.788 507.024 458.86 506.592C460.428 497.208 463.493 487.526 467.722 478.588C468.168 477.642 468.619 476.692 469.065 475.733C473.865 465.513 478.833 454.949 486.736 446.826C489.297 444.197 492.198 441.212 495.771 439.409C501.674 436.424 508.641 437.552 513.95 442.354C523.608 451.086 529.022 463.757 532.657 473.814C536.767 485.185 541.02 496.939 541.034 509.745C541.034 510.181 540.68 510.536 540.243 510.536Z" fill="#ADCB53"/>
<path d="M482.253 507.926C481.874 507.926 481.538 507.653 481.471 507.269C480.157 499.765 477.927 493.178 475.189 488.711C473.908 486.624 471.314 484.379 468.221 484.916C467.746 484.997 467.329 485.127 466.946 485.305C466.547 485.492 466.078 485.319 465.891 484.921C465.704 484.522 465.876 484.052 466.274 483.865C466.778 483.63 467.344 483.457 467.948 483.352C471.823 482.675 474.997 485.367 476.541 487.876C479.385 492.506 481.691 499.295 483.034 506.991C483.111 507.423 482.823 507.835 482.392 507.907C482.344 507.926 482.296 507.926 482.253 507.926Z" fill="#ADCB53"/>
<path d="M495.584 507.538C495.219 507.538 494.888 507.283 494.807 506.909C492.423 495.644 487.676 485.209 480.689 475.891C479.725 474.605 478.569 473.185 477.016 472.586C475.735 472.091 474.335 472.159 472.738 472.792C472.331 472.955 471.87 472.753 471.707 472.346C471.544 471.938 471.746 471.477 472.153 471.314C474.114 470.537 475.941 470.465 477.586 471.103C479.442 471.818 480.785 473.368 481.96 474.936C489.086 484.441 493.929 495.087 496.36 506.578C496.451 507.005 496.178 507.427 495.751 507.518C495.689 507.533 495.636 507.538 495.584 507.538Z" fill="#ADCB53"/>
<path d="M508.622 506.65C508.257 506.65 507.931 506.396 507.85 506.026C504.685 491.546 498.321 477.767 489.435 466.171C486.769 462.688 482.319 459.478 478.411 460.154C477.979 460.231 477.567 459.938 477.495 459.507C477.418 459.075 477.711 458.667 478.142 458.59C483.019 457.746 487.954 461.627 490.697 465.206C499.717 476.985 506.186 490.98 509.399 505.69C509.495 506.117 509.221 506.54 508.794 506.636C508.732 506.645 508.675 506.65 508.622 506.65Z" fill="#ADCB53"/>
<path d="M450.871 294.989C453.027 294.989 454.774 293.241 454.774 291.084C454.774 288.927 453.027 287.178 450.871 287.178C448.715 287.178 446.967 288.927 446.967 291.084C446.967 293.241 448.715 294.989 450.871 294.989Z" fill="#ADCB53"/>
<path d="M450.871 277.204C454.616 277.204 457.651 274.166 457.651 270.42C457.651 266.673 454.616 263.635 450.871 263.635C447.126 263.635 444.09 266.673 444.09 270.42C444.09 274.166 447.126 277.204 450.871 277.204Z" fill="#ADCB53"/>
<path d="M459.805 507.538H415.687C415.251 507.538 414.896 507.183 414.896 506.746C414.896 506.309 415.251 505.954 415.687 505.954H459.805C460.242 505.954 460.596 506.309 460.596 506.746C460.596 507.183 460.242 507.538 459.805 507.538Z" fill="#ADCB53"/>
<path d="M422.88 506.098C422.443 506.098 422.089 505.743 422.089 505.307V474.601C422.089 474.164 422.443 473.809 422.88 473.809C423.316 473.809 423.671 474.164 423.671 474.601V505.307C423.671 505.743 423.316 506.098 422.88 506.098Z" fill="#ADCB53"/>
<path d="M434.258 461.248C434.455 461.071 434.642 460.879 434.819 460.668C435.634 459.674 435.577 458.192 434.651 457.261L432.757 455.366C427.386 449.992 418.592 449.992 413.221 455.366L411.326 457.261C410.401 458.187 410.343 459.67 411.159 460.668C411.331 460.879 411.499 461.099 411.653 461.32C412.938 463.153 415.005 463.959 416.625 465.504C418.774 467.552 419.699 470.82 422.399 472.288C425.722 474.097 427.617 471.578 429.151 468.762C430.148 466.934 430.925 464.981 432.11 463.263C432.69 462.414 433.524 461.915 434.258 461.248Z" fill="white"/>
<path d="M423.483 476.083C421.162 475.44 418.745 475.143 416.338 475.195C414.079 475.243 411.897 475.882 409.658 475.838C409.447 475.834 409.231 475.838 409.02 475.853C408.023 475.91 407.116 475.195 406.958 474.188L406.637 472.13C405.721 466.291 409.744 460.764 415.58 459.847L417.638 459.526C418.645 459.367 419.604 460.01 419.853 460.98C419.906 461.186 419.968 461.387 420.035 461.589C420.831 463.911 421.733 466.195 422.409 468.555C423.095 470.959 423.325 473.348 423.541 475.824" fill="#C8D3DD"/>
<path d="M423.378 476.078C424.26 476.112 425.353 475.431 426.226 475.215C427.339 474.941 428.485 474.783 429.631 474.749C431.549 474.687 433.482 474.956 435.304 475.555C436.675 476.006 438.713 476.069 439.011 474.188L439.332 472.13C440.248 466.291 436.225 460.764 430.389 459.847L428.331 459.526C427.324 459.367 426.365 460.01 426.116 460.98C426.063 461.186 426.001 461.387 425.934 461.589L422.984 470.187C422.682 471.084 422.38 471.967 422.265 472.902C422.15 473.843 422.227 474.831 422.653 475.675C422.735 475.838 422.831 475.997 422.975 476.107C423.119 476.213 423.21 476.145 423.378 476.078Z" fill="#C8D3DD"/>
<path d="M425.996 475.8C425.996 474.212 424.706 474.361 423.119 474.361C421.532 474.361 420.242 474.212 420.242 475.8C420.242 477.388 421.532 480.118 423.119 480.118C424.706 480.118 425.996 477.388 425.996 475.8Z" fill="#ADCB53"/>
<path d="M428.037 64.6957C430.439 65.2714 432.845 65.847 435.258 66.411C432.192 68.134 429.13 69.8686 426.057 71.5954" fill="#ADCB53"/>
<path d="M419.018 68.3156C419.018 78.8158 410.504 87.3341 400.009 87.3341C389.514 87.3341 381 78.8158 381 68.3156C381 67.9138 419.018 67.9138 419.018 68.3156Z" fill="#1A3C5B"/>
<path d="M418.481 72.99C411.029 79.5343 399.692 78.8041 393.144 71.352C386.595 63.8999 387.332 52.5537 394.781 46.0017C395.067 45.7506 418.767 72.7428 418.481 72.99Z" fill="#AECC53"/>
<path d="M418.262 76.5751C423.884 76.5751 428.44 72.0165 428.44 66.3917C428.44 60.7669 423.88 56.2083 418.262 56.2083C412.64 56.2083 408.083 60.7669 408.083 66.3917C408.08 72.0165 412.64 76.5751 418.262 76.5751Z" fill="#11283C"/>
<path d="M418.262 77.4443C412.168 77.4443 407.214 72.4878 407.214 66.3917C407.214 60.2956 412.168 55.3391 418.262 55.3391C424.355 55.3391 429.309 60.2956 429.309 66.3917C429.309 72.4878 424.351 77.4443 418.262 77.4443ZM418.262 57.0737C413.126 57.0737 408.948 61.2537 408.948 66.3917C408.948 71.5298 413.126 75.7098 418.262 75.7098C423.397 75.7098 427.575 71.5298 427.575 66.3917C427.575 61.2537 423.393 57.0737 418.262 57.0737Z" fill="#ADCB53"/>
<path d="M482.791 382.202C486.244 382.202 489.509 383.867 491.528 386.659L496.453 393.463C496.866 394.034 497.029 394.725 496.918 395.42C496.808 396.116 496.434 396.72 495.863 397.133L474.649 412.505C474.078 412.918 473.498 413.004 473.114 413.004C472.26 413.004 471.479 412.606 470.98 411.915L466.055 405.112C462.569 400.3 463.653 393.544 468.462 390.061L476.485 384.251C478.336 382.912 480.513 382.202 482.791 382.202ZM482.791 378.623C479.876 378.623 476.931 379.511 474.385 381.353L466.362 387.163C459.941 391.812 458.507 400.794 463.154 407.213L468.079 414.017C469.292 415.696 471.186 416.583 473.109 416.583C474.37 416.583 475.646 416.2 476.744 415.403L497.959 400.031C500.736 398.021 501.354 394.139 499.345 391.361L494.42 384.558C491.619 380.681 487.236 378.623 482.791 378.623Z" fill="#C8D3DD"/>
<path d="M530.06 420.076L509.521 419.059L518.392 412.63C522.272 409.818 523.14 404.392 520.33 400.511L509.372 385.369C506.562 381.487 501.139 380.619 497.259 383.43L463.595 407.818L484.729 437.017L531.848 424.74L530.06 420.076Z" fill="#C8D3DD"/>
<path d="M309.519 407.707H293.982C264.126 407.707 239.703 383.267 239.703 353.401V329.205C239.703 314.159 252.008 301.848 267.046 301.848H336.46C351.498 301.848 363.803 314.159 363.803 329.205V353.401C363.798 383.272 339.371 407.707 309.519 407.707Z" fill="#AECC53"/>
<path d="M354.52 386.774C354.414 386.774 354.309 386.736 354.227 386.655C343.649 376.056 323.498 369.474 301.636 369.474C279.98 369.474 259.921 375.965 249.284 386.415C249.121 386.573 248.862 386.573 248.704 386.41C248.546 386.247 248.546 385.988 248.709 385.829C259.494 375.236 279.774 368.653 301.636 368.653C323.709 368.653 344.085 375.332 354.812 386.074C354.971 386.232 354.971 386.496 354.812 386.655C354.731 386.736 354.625 386.774 354.52 386.774Z" fill="#11283C"/>
<path d="M301.635 328.774C278.31 328.774 257.407 321.538 247.083 309.889C246.934 309.721 246.948 309.458 247.116 309.309C247.284 309.16 247.548 309.174 247.696 309.342C257.867 320.819 278.536 327.948 301.63 327.948C324.553 327.948 345.154 320.896 355.387 309.544C355.541 309.376 355.8 309.362 355.967 309.515C356.135 309.669 356.15 309.928 355.996 310.096C345.619 321.615 324.783 328.774 301.635 328.774Z" fill="#11283C"/>
<path d="M275.951 503.707C273.342 503.707 271.227 501.591 271.227 498.981V412.232C271.227 409.622 273.342 407.506 275.951 407.506C278.559 407.506 280.674 409.622 280.674 412.232V498.981C280.679 501.591 278.564 503.707 275.951 503.707Z" fill="white"/>
<path d="M275.951 421.276C269.17 421.276 263.622 415.725 263.622 408.94V397.43C263.622 394.715 265.842 392.498 268.552 392.498H283.346C286.06 392.498 288.275 394.72 288.275 397.43V408.94C288.28 415.725 282.732 421.276 275.951 421.276Z" fill="#AECC53"/>
<path d="M326.289 503.913C323.68 503.913 321.565 501.798 321.565 499.187V412.438C321.565 409.828 323.68 407.712 326.289 407.712C328.898 407.712 331.012 409.828 331.012 412.438V499.187C331.017 501.798 328.902 503.913 326.289 503.913Z" fill="white"/>
<path d="M326.816 421.276C320.036 421.276 314.487 415.725 314.487 408.94V397.43C314.487 394.715 316.708 392.498 319.417 392.498H334.211C336.925 392.498 339.141 394.72 339.141 397.43V408.94C339.145 415.725 333.597 421.276 326.816 421.276Z" fill="#AECC53"/>
<path d="M313.69 372.362H289.809C272.575 372.362 258.605 358.386 258.605 341.142V334.354C258.605 325.377 265.88 318.099 274.852 318.099H328.647C337.62 318.099 344.894 325.377 344.894 334.354V341.142C344.894 358.381 330.925 372.362 313.69 372.362Z" fill="white"/>
<path d="M313.691 373.595H289.81C271.923 373.595 257.369 359.034 257.369 341.138V334.349C257.369 324.705 265.209 316.861 274.848 316.861H328.648C338.287 316.861 346.127 324.705 346.127 334.349V341.138C346.127 359.034 331.578 373.595 313.691 373.595ZM274.848 319.327C266.566 319.327 259.833 326.068 259.833 334.349V341.138C259.833 357.671 273.28 371.124 289.805 371.124H313.686C330.211 371.124 343.657 357.671 343.657 341.138V334.349C343.657 326.063 336.92 319.327 328.643 319.327H274.848Z" fill="#1A3C5B"/>
<path d="M301.577 360.017C297.348 360.017 293.502 357.68 291.545 353.924L293.368 352.974C294.969 356.049 298.115 357.959 301.577 357.959C305.303 357.959 308.646 355.742 310.099 352.307L311.993 353.108C310.214 357.306 306.128 360.017 301.577 360.017Z" fill="#1A3C5B"/>
<path d="M279.558 348.512C283.642 348.512 286.952 345.2 286.952 341.114C286.952 337.028 283.642 333.715 279.558 333.715C275.474 333.715 272.163 337.028 272.163 341.114C272.163 345.2 275.474 348.512 279.558 348.512Z" fill="#1A3C5B"/>
<path d="M277.338 341.31L271.343 344.04V338.585L277.338 341.31Z" fill="white"/>
<path d="M323.939 348.512C328.023 348.512 331.334 345.2 331.334 341.114C331.334 337.028 328.023 333.715 323.939 333.715C319.856 333.715 316.545 337.028 316.545 341.114C316.545 345.2 319.856 348.512 323.939 348.512Z" fill="#1A3C5B"/>
<path d="M322.539 341.31L316.545 344.04V338.585L322.539 341.31Z" fill="white"/>
<path d="M346.17 305.749H323.253C320.764 305.749 318.731 303.715 318.731 301.225C318.731 298.734 320.764 296.7 323.253 296.7H346.17C348.659 296.7 350.692 298.734 350.692 301.225C350.697 303.715 348.659 305.749 346.17 305.749Z" fill="#AECC53"/>
<path d="M334.714 287.647C333.717 287.647 332.906 286.836 332.906 285.838V265.322C332.906 264.324 333.717 263.514 334.714 263.514C335.712 263.514 336.522 264.324 336.522 265.322V285.838C336.522 286.836 335.712 287.647 334.714 287.647Z" fill="white"/>
<path d="M334.714 268.34C337.211 268.34 339.236 266.315 339.236 263.816C339.236 261.317 337.211 259.292 334.714 259.292C332.217 259.292 330.192 261.317 330.192 263.816C330.192 266.315 332.217 268.34 334.714 268.34Z" fill="#AECC53"/>
<path d="M335.702 300.922H333.726C331.607 300.922 329.89 299.205 329.89 297.084V279.418C329.89 277.298 331.607 275.58 333.726 275.58H335.702C337.822 275.58 339.538 277.298 339.538 279.418V297.084C339.538 299.205 337.822 300.922 335.702 300.922Z" fill="#AECC53"/>
<path d="M285.518 509.258H267.847V482.328C267.847 477.444 271.803 473.49 276.68 473.49C281.557 473.49 285.513 477.448 285.513 482.328V509.258H285.518Z" fill="#AECC53"/>
<path d="M286.022 509.258H285.202C285.202 503.477 281.423 498.775 276.776 498.775C272.13 498.775 268.351 503.477 268.351 509.258H267.531C267.531 503.026 271.679 497.954 276.776 497.954C281.874 497.954 286.022 503.026 286.022 509.258Z" fill="#11283C"/>
<path d="M335.607 509.258H317.936V482.328C317.936 477.444 321.892 473.49 326.769 473.49C331.65 473.49 335.602 477.449 335.602 482.328V509.258H335.607Z" fill="#AECC53"/>
<path d="M336.105 509.258H335.285C335.285 503.477 331.507 498.775 326.86 498.775C322.213 498.775 318.434 503.477 318.434 509.258H317.614C317.614 503.026 321.762 497.955 326.86 497.955C331.957 497.955 336.105 503.026 336.105 509.258Z" fill="#11283C"/>
<path d="M220.478 450.058C217.869 450.058 215.754 447.942 215.754 445.332V351.179C215.754 341.771 223.403 334.118 232.807 334.118C235.416 334.118 237.53 336.234 237.53 338.844C237.53 341.454 235.416 343.57 232.807 343.57C228.616 343.57 225.206 346.981 225.206 351.175V445.322C225.206 447.937 223.087 450.058 220.478 450.058Z" fill="white"/>
<path d="M239.996 354.264C235.929 354.264 232.601 350.935 232.601 346.866V331.244C232.601 327.176 235.929 323.846 239.996 323.846C244.062 323.846 247.39 327.176 247.39 331.244V346.866C247.395 350.93 244.067 354.264 239.996 354.264Z" fill="#AECC53"/>
<path d="M226.64 471.024C218.368 471.024 211.64 464.293 211.64 456.017C211.64 447.74 218.368 441.009 226.64 441.009C234.567 441.009 241.146 447.208 241.612 455.119C241.717 456.933 240.336 458.488 238.523 458.598C236.711 458.708 235.157 457.322 235.047 455.508C234.783 451.065 231.09 447.587 226.635 447.587C221.989 447.587 218.21 451.368 218.21 456.017C218.21 460.666 221.989 464.446 226.635 464.446C228.453 464.446 229.925 465.919 229.925 467.738C229.925 469.556 228.458 471.024 226.64 471.024Z" fill="white"/>
<path d="M220.684 456.636C214.81 456.636 210 451.823 210 445.946V420.043C210 414.165 214.81 409.353 220.684 409.353C226.559 409.353 231.368 414.165 231.368 420.043V445.946C231.368 451.823 226.559 456.636 220.684 456.636Z" fill="#AECC53"/>
<path d="M231.368 435.664H210V436.485H231.368V435.664Z" fill="#11283C"/>
<path d="M446.154 357.589C444.701 357.589 443.268 356.922 442.342 355.661C442.074 355.301 426.647 334.771 405.475 332.079C394.704 330.707 384.063 334.219 373.854 342.519C371.83 344.165 368.852 343.858 367.207 341.829C365.563 339.804 365.87 336.824 367.898 335.179C380.213 325.17 393.28 320.977 406.736 322.709C432.032 325.967 449.243 349.088 449.962 350.071C451.506 352.177 451.051 355.138 448.945 356.678C448.106 357.292 447.128 357.589 446.154 357.589Z" fill="white"/>
<path d="M363.683 354.264C367.75 354.264 371.078 350.935 371.078 346.866V331.244C371.078 327.176 367.75 323.846 363.683 323.846C359.617 323.846 356.289 327.176 356.289 331.244V346.866C356.289 350.93 359.617 354.264 363.683 354.264Z" fill="#AECC53"/>
<path d="M240.109 354.668C239.985 354.668 239.86 354.61 239.778 354.495C239.649 354.312 239.692 354.063 239.874 353.933C243.255 351.544 244.636 347.236 244.636 339.051C244.636 331.269 242.622 325.857 239.117 324.201C238.915 324.105 238.829 323.865 238.925 323.664C239.021 323.462 239.261 323.376 239.462 323.472C241.697 324.523 245.447 327.948 245.447 339.051C245.447 347.528 243.97 352.033 240.344 354.591C240.272 354.644 240.191 354.668 240.109 354.668Z" fill="#11283C"/>
<path d="M363.386 354.667C363.304 354.667 363.223 354.643 363.156 354.595C359.53 352.038 358.053 347.533 358.053 339.055C358.053 327.953 361.803 324.532 364.038 323.477C364.239 323.381 364.479 323.467 364.575 323.669C364.671 323.87 364.585 324.11 364.383 324.206C360.873 325.857 358.859 331.268 358.859 339.055C358.859 347.236 360.24 351.549 363.621 353.938C363.803 354.068 363.846 354.317 363.717 354.5C363.64 354.605 363.515 354.667 363.386 354.667Z" fill="#11283C"/>
<path d="M475.724 393.779C474.769 393.779 473.82 393.367 473.163 392.575L459.213 375.691C458.043 374.276 458.244 372.184 459.654 371.018C461.069 369.848 463.16 370.049 464.325 371.46L478.275 388.343C479.445 389.759 479.244 391.85 477.834 393.016C477.215 393.53 476.467 393.779 475.724 393.779Z" fill="white"/>
<path d="M468.957 382.984C464.358 386.731 457.529 386.031 453.779 381.43L437.278 361.149C433.533 356.548 434.233 349.716 438.832 345.964C443.431 342.217 450.259 342.918 454.009 347.519L470.511 367.799C474.261 372.405 473.56 379.237 468.957 382.984Z" fill="#AECC53"/>
<path d="M463.979 359.747L447.25 373.378L447.774 374.022L464.503 360.391L463.979 359.747Z" fill="#11283C"/>
<path d="M537.656 423.948C544.801 426.337 551.52 430.564 556.828 436.403C557.552 437.19 557.5 438.418 556.708 439.138C555.922 439.853 554.704 439.795 553.989 439.008C550.033 432.843 544.427 427.556 537.656 423.948Z" fill="#CCCBCB"/>
<path d="M559.428 432.694C563.633 434.729 567.58 437.435 570.999 440.779C574.428 444.113 577.319 448.057 579.578 452.375C580.072 453.315 579.707 454.481 578.768 454.971C577.828 455.465 576.662 455.1 576.173 454.16C573.099 445.466 567.23 437.804 559.428 432.694Z" fill="#CCCBCB"/>
<path d="M533.993 420.877C542.365 419.232 551.381 420.129 559.624 423.43C560.617 423.818 561.106 424.946 560.708 425.939C560.286 427.028 558.948 427.479 557.946 426.884C550.911 422.744 542.519 420.508 533.993 420.877Z" fill="#CCCBCB"/>
</svg>
