<svg width="93" height="93" viewBox="0 0 93 93" fill="none" xmlns="http://www.w3.org/2000/svg">
<path fill-rule="evenodd" clip-rule="evenodd" d="M0 92.9875H92.7575V0.22998H0V92.9875Z" fill="#91A7BC"/>
<path fill-rule="evenodd" clip-rule="evenodd" d="M81.1269 21.4104H77.9124V8.73994H80.9381V10.1581C81.3157 9.30689 82.2614 8.55059 83.4908 8.45619C85.5714 8.3618 86.9896 9.5912 86.9896 12.2382V21.4099H83.6807V11.8606C83.6807 10.7256 83.6807 9.78055 82.9233 9.5912C82.6401 9.4968 82.167 9.5912 81.7883 9.87439C81.3152 10.3475 81.1264 10.9144 81.1264 11.8606L81.1269 21.4104V21.4104ZM26.4747 9.5912C25.7184 8.9293 24.7728 8.45619 23.6383 8.45619C22.5039 8.45619 21.6526 8.9293 20.8019 9.5912C19.4781 10.7256 18.6269 12.8057 18.6269 15.0752C18.6269 17.439 19.4781 19.4242 20.8019 20.5592C21.6526 21.2211 22.5039 21.6936 23.6383 21.6936C24.7728 21.6936 25.7184 21.2211 26.4747 20.5592C27.8935 19.4242 28.6498 17.4385 28.6498 15.0752C28.6492 12.8057 27.8929 10.7256 26.4747 9.5912V9.5912ZM25.2453 15.0752C25.2453 17.439 25.2453 19.3303 24.8672 20.2754C24.5834 20.748 24.2997 21.0317 23.6378 21.0317C23.0708 21.0317 22.6921 20.748 22.5033 20.2754C22.0302 19.3298 22.0302 17.4385 22.0302 15.0752C22.0302 12.8057 22.0302 10.82 22.5033 9.87439C22.6921 9.40184 23.0708 9.11809 23.6378 9.11809C24.2997 9.11809 24.5834 9.40128 24.8672 9.87439C25.3403 10.82 25.2453 12.8057 25.2453 15.0752ZM59.4747 26.2325V29.6364H58.8128C58.4341 28.2188 57.8666 26.9894 56.3535 26.8944C55.4084 26.8006 54.5571 27.3675 54.4627 28.2182C54.3683 29.0689 54.6526 29.8252 56.3535 30.7709C58.5285 32.0003 60.2305 32.5678 60.2305 35.1204C60.2305 37.8624 57.8666 39.1862 55.8815 39.1862H52.0989V34.4579H52.7608C53.2339 36.9162 53.9902 38.4293 55.7876 38.5237C56.9215 38.5237 57.7728 37.8618 57.7728 36.6324C57.7728 35.403 57.0154 34.6467 55.219 33.6067C53.2339 32.3773 52.0045 31.621 52.0045 29.919C52.0045 27.6496 53.612 26.2314 56.1647 26.2314C57.0154 26.2325 59.4747 26.2325 59.4747 26.2325V26.2325ZM63.6349 21.4104V12.2382C63.6349 9.5912 62.2162 8.3618 60.1361 8.45619C58.7173 8.55059 57.8666 9.4968 57.4879 10.2525C57.0148 8.9293 55.9759 8.3618 54.4622 8.45619C53.2328 8.55059 52.2882 9.30745 51.9095 10.1581V8.73994H48.9782V21.4104H52.1927V11.8606C52.1927 10.9144 52.2882 10.3475 52.8546 9.87439C53.2333 9.5912 53.612 9.4968 53.8952 9.5912C54.6526 9.77999 54.6526 10.7256 54.6526 11.8606V21.4104H57.8672V11.7663C57.8672 10.9144 58.056 10.3475 58.5291 9.87439C58.9078 9.5912 59.2854 9.4968 59.5697 9.5912C60.326 9.77999 60.4204 10.7256 60.4204 11.8606V21.4104H63.6349ZM30.8243 6.09291H34.1338V21.4104H30.8243V6.09291ZM45.8586 21.4104V6.09291H42.5491V9.6856C42.2659 9.0237 41.6034 8.55115 40.6584 8.55115C38.2945 8.55115 36.4032 11.0094 36.3088 14.7914C36.2144 17.3446 37.0651 21.5992 40.3746 21.5992C41.6984 21.5992 42.4547 20.8429 42.7384 20.1816V21.411H45.8586V21.4104V21.4104ZM41.9816 9.77999C42.6435 10.7256 42.6435 12.9945 42.6435 14.7909C42.6435 16.6822 42.7379 19.1404 41.9816 20.1805C41.6978 20.5586 41.4141 20.7474 40.941 20.7474C40.2796 20.7474 39.9009 19.9911 39.7116 18.7617C39.6172 17.6267 39.6172 16.2085 39.6172 14.6959C39.6172 12.1433 39.806 9.30632 41.0354 9.30632C41.5085 9.30745 41.6978 9.4968 41.9816 9.77999V9.77999ZM73.4679 9.11809C74.3197 9.5912 74.8867 10.3475 74.8867 12.0494V21.4104H71.7654V19.9922C71.3878 21.0323 70.3478 21.6942 68.9284 21.6942C67.7934 21.6942 65.8083 21.1272 65.8083 18.1959C65.8083 15.4539 67.6058 14.8864 69.5909 14.0357C71.3872 13.2794 71.576 13.1844 71.576 12.4282V10.3481C71.576 9.49736 71.1029 9.11865 70.1584 9.11865C69.7797 9.21305 69.1178 9.40184 69.1178 9.87495C69.0234 10.4425 69.6853 10.4425 69.7797 11.2937C69.8741 12.6175 68.8335 13.0901 67.8889 12.9957C67.227 12.9957 66.4702 12.6175 66.3758 11.5775C66.2814 9.87495 68.1721 8.45675 70.8203 8.45675C72.0497 8.45619 72.806 8.73994 73.4679 9.11809V9.11809ZM71.5772 13.8458L70.5365 14.5077C69.4971 15.1696 69.3071 16.0203 69.2133 16.9659C69.1189 17.7222 69.1189 18.3841 69.2133 19.5186C69.3077 20.5586 69.9696 20.748 70.5365 20.5586C71.1996 20.2749 71.5772 19.046 71.5772 17.7217V13.8458ZM26.6641 26.8C27.5153 27.367 27.9879 28.0289 27.9879 29.7308V39.1868H24.9621V37.7686C24.5834 38.7142 23.5439 39.3756 22.1252 39.3756C20.8958 39.3756 19.005 38.903 19.005 35.9717C19.005 33.2297 20.8019 32.6622 22.6927 31.8115C24.5834 30.9602 24.7728 30.8658 24.7728 30.2039V28.1238C24.7728 27.1782 24.3002 26.8006 23.3546 26.8944C22.9759 26.8944 22.3145 27.0838 22.3145 27.5563C22.2201 28.2182 22.8815 28.2182 22.9759 29.0689C23.0708 30.2983 22.0308 30.7709 21.0857 30.7709C20.4238 30.6765 19.6669 30.2983 19.5725 29.2583C19.4781 27.6507 21.3689 26.2325 24.0165 26.2325C25.2453 26.2325 26.0022 26.4219 26.6641 26.8V26.8ZM24.7728 31.5277L23.7327 32.1896C22.6927 32.8515 22.5033 33.7022 22.4089 34.6479C22.3145 35.4042 22.3145 36.161 22.4089 37.2005C22.4089 38.3355 23.0708 38.5243 23.6383 38.2405C24.3946 37.9568 24.7728 36.8224 24.7728 35.4042V31.5277ZM49.5462 30.0146C49.5462 27.367 48.1275 26.0432 46.0474 26.2325C45.0073 26.3269 44.1561 26.8 43.683 27.4619V23.7748H40.4684V32.4739C40.4684 35.6885 38.199 38.7142 35.9301 38.6198C34.3225 38.6198 33.9444 37.3904 33.755 36.0666C33.4713 34.1753 33.4713 32.0008 33.6606 29.637C33.85 28.1244 34.2282 26.895 35.3632 26.895C36.2139 26.895 36.3088 27.4625 35.9301 27.8406C35.5514 28.3137 34.9844 28.7863 35.2682 29.8263C35.5514 30.9613 37.3483 31.1501 38.199 30.2994C38.8609 29.5431 38.7665 28.3137 38.2934 27.5574C37.7259 26.6118 36.7808 26.2336 35.3626 26.2336C33.5657 26.2336 30.1618 27.8406 30.1618 32.947C30.1618 38.431 33.6601 39.3761 35.6458 39.3761C37.9152 39.3761 39.9009 37.391 40.4679 35.7829V39.1873H43.6824V29.6359C43.6824 28.6908 43.8718 28.1233 44.3443 27.6502C44.7225 27.367 45.1956 27.272 45.4793 27.367C46.2362 27.5558 46.2362 28.5014 46.2362 29.6359V39.1862H49.5457V30.0146H49.5462ZM16.4518 5.80859V11.1982H15.7899C15.2224 8.55059 13.9936 6.56489 12.2911 6.47049C11.1566 6.3761 10.4947 7.03743 9.92722 7.98365C9.36028 9.11809 9.07653 11.4819 9.07653 14.3183C9.07653 16.9659 9.17093 18.9516 9.45468 20.3698C9.64347 21.0317 10.1166 22.0723 11.346 22.0723C12.0079 22.0723 12.4804 21.883 12.7642 21.5048C13.2367 20.9373 13.3311 19.8029 13.3311 19.0466V16.4939C13.3311 15.5483 13.0479 14.9808 12.5748 14.6976C12.1967 14.5082 11.6292 14.5082 11.3454 14.4139V13.752H16.6401V27.2731H15.9782C15.695 26.2331 15.5056 25.4768 15.0325 24.6255C14.56 23.7748 13.7087 22.8292 12.2905 22.8292C10.7779 22.7348 9.64291 23.6804 9.64291 25.0981C9.64291 26.9894 10.7779 27.4619 12.858 28.5969C14.8437 29.7314 17.3969 30.677 17.3969 33.9865C17.3969 37.2016 14.6549 39.1873 11.5348 39.1873H6.52333V32.6622H7.18523C8.03648 37.5786 10.1166 38.4299 11.5353 38.4299C13.3311 38.4299 14.1824 37.2949 14.1824 35.6879C14.088 33.6078 12.6698 32.8515 10.6835 31.8115C7.84769 30.2039 6.52333 29.4471 6.52333 26.8006C6.61772 24.5306 8.41463 23.1129 10.3998 22.5454C6.23958 22.0729 5.01017 18.2909 5.10513 14.2245C5.10513 10.1587 7.46898 5.80916 12.1017 5.80916L16.4518 5.80859V5.80859Z" fill="#11283C"/>
</svg>
