<svg width="241" height="52" viewBox="0 0 241 52" fill="none" xmlns="http://www.w3.org/2000/svg">
<path d="M100.226 10.5095V41.3483H94.8721V17.1484H94.8007L85.2349 41.3483H81.6656L71.8857 17.1484H71.8143V41.3483H66.8887V10.5095H74.5984L83.4503 33.3531H83.5931L92.9447 10.5095H100.226V10.5095ZM104.652 12.8652C104.652 12.0086 104.938 11.2947 105.58 10.7236C106.222 10.1525 106.936 9.86698 107.793 9.86698C108.721 9.86698 109.506 10.1525 110.077 10.7236C110.648 11.2947 111.005 12.0086 111.005 12.8652C111.005 13.7218 110.72 14.4357 110.077 15.0068C109.435 15.5779 108.721 15.8634 107.793 15.8634C106.865 15.8634 106.151 15.5779 105.58 15.0068C105.009 14.3643 104.652 13.6505 104.652 12.8652ZM110.434 19.2186V41.3483H105.223V19.2186H110.434ZM126.211 37.5648C126.996 37.5648 127.853 37.4221 128.781 36.9938C129.709 36.6368 130.565 36.1371 131.35 35.566V40.4203C130.494 40.92 129.566 41.2769 128.495 41.4911C127.424 41.7052 126.282 41.848 124.997 41.848C121.713 41.848 119.072 40.8486 117.073 38.7784C115.003 36.7082 114.004 34.0669 114.004 30.9259C114.004 27.3566 115.074 24.4298 117.145 22.1454C119.215 19.8611 122.142 18.7189 125.996 18.7189C126.996 18.7189 127.995 18.8616 128.923 19.0758C129.923 19.29 130.708 19.6469 131.279 19.9324V24.9295C130.494 24.3584 129.637 23.8587 128.852 23.5731C127.995 23.2876 127.139 23.0734 126.282 23.0734C124.212 23.0734 122.57 23.7159 121.285 25.0723C120 26.4286 119.429 28.2132 119.429 30.4976C119.429 32.7106 120.071 34.4952 121.285 35.7088C122.499 36.9224 124.14 37.5648 126.211 37.5648ZM146.127 18.8616C146.556 18.8616 146.913 18.8617 147.27 18.933C147.627 19.0044 147.912 19.0758 148.126 19.1472V24.4298C147.841 24.2156 147.484 24.0015 146.913 23.8587C146.342 23.7159 145.77 23.5731 144.985 23.5731C143.7 23.5731 142.63 24.1442 141.773 25.215C140.916 26.2858 140.417 27.9277 140.417 30.2121V41.3483H135.205V19.2186H140.417V22.7165H140.488C140.988 21.5029 141.701 20.5749 142.629 19.8611C143.629 19.2186 144.771 18.8616 146.127 18.8616ZM148.412 30.6404C148.412 26.9997 149.483 24.0728 151.481 21.9313C153.552 19.7897 156.407 18.7189 160.048 18.7189C163.474 18.7189 166.187 19.7183 168.114 21.7885C170.042 23.8587 171.041 26.6428 171.041 30.1407C171.041 33.71 169.97 36.5654 167.972 38.707C165.901 40.8486 163.117 41.9194 159.548 41.9194C156.121 41.9194 153.409 40.92 151.41 38.9212C149.411 36.851 148.412 34.0669 148.412 30.6404ZM153.837 30.4262C153.837 32.7106 154.337 34.4952 155.408 35.7088C156.478 36.9224 157.978 37.5648 159.905 37.5648C161.761 37.5648 163.26 36.9938 164.26 35.7088C165.259 34.4952 165.759 32.7106 165.759 30.2834C165.759 27.9277 165.259 26.143 164.26 24.8581C163.26 23.6445 161.761 23.0021 159.976 23.0021C158.049 23.0021 156.621 23.6445 155.55 24.9295C154.337 26.2858 153.837 28.0705 153.837 30.4262ZM178.822 25.0723C178.822 25.7861 179.036 26.4286 179.536 26.8569C180.036 27.2852 181.035 27.7849 182.677 28.4274C184.747 29.284 186.247 30.2121 187.032 31.2115C187.888 32.2823 188.317 33.4958 188.317 34.9949C188.317 37.0651 187.531 38.707 185.89 39.992C184.319 41.2769 182.106 41.848 179.393 41.848C178.465 41.848 177.466 41.7052 176.324 41.4911C175.182 41.2769 174.254 40.9914 173.468 40.6345V35.4946C174.396 36.1371 175.467 36.7082 176.538 37.0651C177.609 37.4221 178.608 37.6362 179.536 37.6362C180.678 37.6362 181.606 37.4935 182.106 37.1365C182.677 36.7796 182.963 36.2799 182.963 35.4946C182.963 34.7808 182.677 34.2097 182.106 33.6386C181.535 33.1389 180.393 32.5678 178.822 31.9253C176.895 31.1401 175.539 30.2121 174.753 29.2127C173.968 28.2132 173.54 26.9283 173.54 25.3578C173.54 23.359 174.325 21.7171 175.895 20.4321C177.466 19.1472 179.536 18.5047 182.035 18.5047C182.82 18.5047 183.677 18.5761 184.605 18.7903C185.533 19.0044 186.389 19.2186 187.032 19.4327V24.5012C186.318 24.0728 185.533 23.6445 184.605 23.2876C183.677 22.9307 182.749 22.7879 181.892 22.7879C180.893 22.7879 180.107 23.0021 179.608 23.359C179.108 23.8587 178.822 24.3584 178.822 25.0723ZM190.53 30.6404C190.53 26.9997 191.6 24.0728 193.599 21.9313C195.669 19.7897 198.525 18.7189 202.166 18.7189C205.592 18.7189 208.305 19.7183 210.232 21.7885C212.16 23.8587 213.159 26.6428 213.159 30.1407C213.159 33.71 212.088 36.5654 210.09 38.707C208.019 40.8486 205.235 41.9194 201.666 41.9194C198.239 41.9194 195.527 40.92 193.528 38.9212C191.6 36.851 190.53 34.0669 190.53 30.6404ZM195.955 30.4262C195.955 32.7106 196.455 34.4952 197.526 35.7088C198.596 36.9224 200.095 37.5648 202.023 37.5648C203.879 37.5648 205.378 36.9938 206.377 35.7088C207.377 34.4952 207.877 32.7106 207.877 30.2834C207.877 27.9277 207.377 26.143 206.377 24.8581C205.378 23.6445 203.879 23.0021 202.094 23.0021C200.167 23.0021 198.739 23.6445 197.668 24.9295C196.526 26.2858 195.955 28.0705 195.955 30.4262ZM230.506 23.5018H222.725V41.3483H217.442V23.5018H213.73V19.2186H217.442V16.149C217.442 13.8646 218.228 11.9372 219.727 10.4381C221.226 8.93896 223.153 8.2251 225.509 8.2251C226.151 8.2251 226.723 8.29648 227.222 8.29648C227.722 8.29648 228.15 8.43926 228.507 8.58203V13.0794C228.364 13.008 228.007 12.8652 227.579 12.7224C227.151 12.5797 226.651 12.5083 226.08 12.5083C225.009 12.5083 224.153 12.8652 223.582 13.5077C223.01 14.1502 222.725 15.221 222.725 16.5059V19.1472H230.506V14.1502L235.717 12.5797V19.1472H241V23.4304H235.717V33.7814C235.717 35.1377 236.003 36.0657 236.431 36.6368C236.931 37.2079 237.716 37.4935 238.787 37.4935C239.072 37.4935 239.429 37.4221 239.858 37.2793C240.286 37.1365 240.643 36.9938 240.928 36.7796V41.0628C240.571 41.2769 240.072 41.4197 239.287 41.5625C238.501 41.7053 237.787 41.7766 237.002 41.7766C234.789 41.7766 233.147 41.2055 232.076 40.0634C231.006 38.9212 230.435 37.1365 230.435 34.7808L230.506 23.5018Z" fill="#91A7BC"/>
<path d="M24.4141 0.22998H0V24.6441H24.4141V0.22998Z" fill="#91A7BC"/>
<path d="M51.3985 0.22998H26.9844V24.6441H51.3985V0.22998Z" fill="#91A7BC"/>
<path d="M24.4141 27.2139H0V51.628H24.4141V27.2139Z" fill="#91A7BC"/>
<path d="M51.3985 27.2139H26.9844V51.628H51.3985V27.2139Z" fill="#91A7BC"/>
</svg>
