<svg width="278" height="54" viewBox="0 0 278 54" fill="none" xmlns="http://www.w3.org/2000/svg">
<path d="M88.7098 12.1701H86.3924C85.9321 11.3239 85.0923 10.8725 84.0264 10.8725C82.2258 10.8725 80.9742 12.154 80.9742 14.1528C80.9742 16.1919 82.2419 17.4573 84.1153 17.4573C85.6737 17.4573 86.6669 16.5627 86.9657 15.1442H83.5097V13.6048H88.9521V15.3618C88.5483 17.4009 86.7234 19.2707 84.0426 19.2707C81.1195 19.2707 78.8989 17.1591 78.8989 14.1528C78.8989 11.1466 81.1195 9.0188 84.0264 9.0188C86.2712 9.0188 88.0558 10.1552 88.7098 12.1701Z" fill="white"/>
<path d="M92.4645 19.1821H90.4458V11.2191H92.4645V12.4522C92.9651 11.6301 93.8049 11.0982 94.9112 11.0982V13.2098H94.3782C93.1832 13.2098 92.4645 13.6693 92.4645 15.2087V19.1821Z" fill="white"/>
<path d="M99.7561 19.311C97.4386 19.311 95.751 17.6991 95.751 15.2006C95.751 12.686 97.3902 11.0901 99.7561 11.0901C102.057 11.0901 103.689 12.6537 103.689 15.0313C103.689 15.2893 103.672 15.5472 103.632 15.8051H97.802C97.8989 16.9818 98.7064 17.6427 99.7157 17.6427C100.58 17.6427 101.056 17.2075 101.315 16.6755H103.487C103.051 18.1504 101.726 19.311 99.7561 19.311ZM97.8101 14.4591H101.597C101.573 13.4113 100.733 12.7504 99.6996 12.7504C98.7306 12.7424 97.9635 13.363 97.8101 14.4591Z" fill="white"/>
<path d="M108.638 19.311C106.321 19.311 104.633 17.6991 104.633 15.2006C104.633 12.686 106.272 11.0901 108.638 11.0901C110.94 11.0901 112.571 12.6537 112.571 15.0313C112.571 15.2893 112.555 15.5472 112.514 15.8051H106.684C106.781 16.9818 107.589 17.6427 108.598 17.6427C109.462 17.6427 109.938 17.2075 110.197 16.6755H112.369C111.941 18.1504 110.617 19.311 108.638 19.311ZM106.692 14.4591H110.479C110.455 13.4113 109.615 12.7504 108.582 12.7504C107.621 12.7424 106.854 13.363 106.692 14.4591Z" fill="white"/>
<path d="M119.628 14.7895C119.628 13.5081 118.926 12.823 117.86 12.823C116.77 12.823 116.059 13.5161 116.059 14.7895V19.1901H114.041V11.2272H116.059V12.2185C116.576 11.5415 117.44 11.1143 118.466 11.1143C120.323 11.1143 121.647 12.3233 121.647 14.5236V19.1982H119.628V14.7895Z" fill="white"/>
<path d="M130.457 19.2869C128.365 19.2869 126.758 18.1907 126.726 16.2967H128.89C128.947 17.1027 129.48 17.6346 130.416 17.6346C131.369 17.6346 131.926 17.1349 131.926 16.4095C131.926 14.2415 126.742 15.5472 126.758 11.9122C126.758 10.0988 128.228 9.01074 130.303 9.01074C132.362 9.01074 133.775 10.0585 133.905 11.8719H131.684C131.644 11.211 131.111 10.6952 130.247 10.6791C129.455 10.6469 128.866 11.0418 128.866 11.8558C128.866 13.8707 134.026 12.7504 134.026 16.2806C134.018 17.8603 132.75 19.2869 130.457 19.2869Z" fill="white"/>
<path d="M139.307 19.311C137.005 19.311 135.261 17.6991 135.261 15.2006C135.261 12.686 137.062 11.0901 139.363 11.0901C141.665 11.0901 143.465 12.686 143.465 15.2006C143.465 17.7072 141.624 19.311 139.307 19.311ZM139.307 17.5621C140.373 17.5621 141.398 16.7884 141.398 15.2006C141.398 13.6048 140.405 12.8391 139.339 12.8391C138.273 12.8391 137.304 13.6048 137.304 15.2006C137.304 16.7884 138.225 17.5621 139.307 17.5621Z" fill="white"/>
<path d="M145.169 12.8713H144.265V11.2191H145.169V10.8161C145.169 8.85761 146.275 7.95492 148.528 8.01134V9.71193C147.551 9.6797 147.22 10.0021 147.22 10.8887V11.2191H148.617V12.8713H147.22V19.1821H145.177V12.8713H145.169Z" fill="white"/>
<path d="M150.232 12.8713H149.279V11.2191H150.232V9.25253H152.267V11.2191H154.052V12.8713H152.267V16.7239C152.267 17.2558 152.485 17.4815 153.115 17.4815H154.052V19.1821H152.784C151.258 19.1821 150.232 18.5373 150.232 16.7078V12.8713Z" fill="white"/>
<path d="M154.617 11.2191H156.66L158.073 17.288L159.599 11.2191H161.731L163.224 17.2719L164.638 11.2191H166.567L164.234 19.1821H162.062L160.608 13.6209L159.155 19.1821H156.966L154.617 11.2191Z" fill="white"/>
<path d="M170.79 11.0901C172.074 11.0901 172.954 11.6946 173.431 12.3555V11.2191H175.466V19.1821H173.431V18.0215C172.954 18.7146 172.05 19.3191 170.782 19.3191C168.763 19.3191 167.148 17.6669 167.148 15.1764C167.148 12.686 168.755 11.0901 170.79 11.0901ZM171.307 12.8633C170.225 12.8633 169.208 13.6693 169.208 15.1764C169.208 16.6836 170.233 17.546 171.307 17.546C172.413 17.546 173.423 16.7158 173.423 15.2006C173.423 13.6934 172.413 12.8633 171.307 12.8633Z" fill="white"/>
<path d="M179.446 19.1821H177.428V11.2191H179.446V12.4522C179.947 11.6301 180.787 11.0982 181.893 11.0982V13.2098H181.36C180.165 13.2098 179.446 13.6693 179.446 15.2087V19.1821Z" fill="white"/>
<path d="M186.73 19.311C184.413 19.311 182.725 17.6991 182.725 15.2006C182.725 12.686 184.364 11.0901 186.73 11.0901C189.032 11.0901 190.663 12.6537 190.663 15.0313C190.663 15.2893 190.647 15.5472 190.606 15.8051H184.776C184.873 16.9818 185.68 17.6427 186.69 17.6427C187.554 17.6427 188.03 17.2075 188.289 16.6755H190.461C190.033 18.1504 188.709 19.311 186.73 19.311ZM184.784 14.4591H188.571C188.547 13.4113 187.707 12.7504 186.674 12.7504C185.713 12.7424 184.946 13.363 184.784 14.4591Z" fill="white"/>
<path d="M195.564 9.14774H201.773V10.7758H197.583V13.3468H200.796V14.9427H197.583V19.1821H195.564V9.14774Z" fill="white"/>
<path d="M206.739 19.311C204.438 19.311 202.694 17.6991 202.694 15.2006C202.694 12.686 204.495 11.0901 206.796 11.0901C209.097 11.0901 210.898 12.686 210.898 15.2006C210.898 17.7072 209.057 19.311 206.739 19.311ZM206.739 17.5621C207.805 17.5621 208.831 16.7884 208.831 15.2006C208.831 13.6048 207.838 12.8391 206.772 12.8391C205.706 12.8391 204.737 13.6048 204.737 15.2006C204.737 16.7884 205.657 17.5621 206.739 17.5621Z" fill="white"/>
<path d="M219.918 19.1821H217.883V18.1746C217.382 18.8516 216.502 19.2788 215.509 19.2788C213.651 19.2788 212.311 18.0698 212.311 15.8857V11.211H214.33V15.5955C214.33 16.877 215.032 17.5621 216.098 17.5621C217.196 17.5621 217.883 16.8689 217.883 15.5955V11.211H219.918V19.1821Z" fill="white"/>
<path d="M227.492 14.7895C227.492 13.5081 226.79 12.823 225.724 12.823C224.634 12.823 223.923 13.5161 223.923 14.7895V19.1901H221.904V11.2272H223.923V12.2185C224.44 11.5415 225.304 11.1143 226.329 11.1143C228.187 11.1143 229.511 12.3233 229.511 14.5236V19.1982H227.492V14.7895Z" fill="white"/>
<path d="M234.566 11.0901C235.615 11.0901 236.625 11.5818 237.174 12.3233V8.54327H239.217V19.1821H237.174V18.0054C236.697 18.7388 235.809 19.311 234.549 19.311C232.515 19.311 230.908 17.6588 230.908 15.1683C230.908 12.6779 232.515 11.0901 234.566 11.0901ZM235.066 12.8633C233.984 12.8633 232.967 13.6692 232.967 15.1764C232.967 16.6836 233.992 17.546 235.066 17.546C236.172 17.546 237.182 16.7158 237.182 15.2006C237.19 13.6934 236.181 12.8633 235.066 12.8633Z" fill="white"/>
<path d="M244.312 11.0901C245.596 11.0901 246.476 11.6946 246.952 12.3555V11.2191H248.987V19.1821H246.952V18.0215C246.476 18.7146 245.571 19.3191 244.304 19.3191C242.285 19.3191 240.67 17.6669 240.67 15.1764C240.67 12.686 242.285 11.0901 244.312 11.0901ZM244.837 12.8633C243.755 12.8633 242.737 13.6693 242.737 15.1764C242.737 16.6836 243.763 17.546 244.837 17.546C245.943 17.546 246.952 16.7158 246.952 15.2006C246.952 13.6934 245.943 12.8633 244.837 12.8633Z" fill="white"/>
<path d="M251.272 12.8713H250.319V11.2191H251.272V9.25253H253.307V11.2191H255.092V12.8713H253.307V16.7239C253.307 17.2558 253.525 17.4815 254.155 17.4815H255.092V19.1821H253.824C252.298 19.1821 251.272 18.5373 251.272 16.7078V12.8713Z" fill="white"/>
<path d="M256.327 9.09133C256.327 8.43043 256.844 7.91461 257.563 7.91461C258.265 7.91461 258.798 8.43043 258.798 9.09133C258.798 9.75222 258.265 10.268 257.563 10.268C256.844 10.268 256.327 9.75222 256.327 9.09133ZM256.545 11.2191H258.564V19.1821H256.545V11.2191Z" fill="white"/>
<path d="M264.087 19.311C261.786 19.311 260.042 17.6991 260.042 15.2006C260.042 12.686 261.842 11.0901 264.144 11.0901C266.445 11.0901 268.246 12.686 268.246 15.2006C268.254 17.7072 266.413 19.311 264.087 19.311ZM264.087 17.5621C265.153 17.5621 266.178 16.7884 266.178 15.2006C266.178 13.6048 265.185 12.8391 264.119 12.8391C263.053 12.8391 262.084 13.6048 262.084 15.2006C262.084 16.7884 263.013 17.5621 264.087 17.5621Z" fill="white"/>
<path d="M275.327 14.7895C275.327 13.5081 274.625 12.823 273.559 12.823C272.469 12.823 271.758 13.5161 271.758 14.7895V19.1901H269.739V11.2272H271.758V12.2185C272.275 11.5415 273.139 11.1143 274.164 11.1143C276.021 11.1143 277.346 12.3233 277.346 14.5236V19.1982H275.327V14.7895Z" fill="white"/>
<path d="M91.8751 34.9791H88.8389C88.2333 33.8669 87.1432 33.2866 85.7544 33.2866C83.3965 33.2866 81.7654 34.963 81.7654 37.5743C81.7654 40.2421 83.4207 41.8943 85.8674 41.8943C87.9023 41.8943 89.2023 40.7257 89.598 38.8719H85.0761V36.857H92.1981V39.154C91.6732 41.8218 89.275 44.2639 85.7786 44.2639C81.9592 44.2639 79.0522 41.4994 79.0522 37.5743C79.0522 33.6493 81.9511 30.8606 85.7544 30.8606C88.6936 30.8606 91.0353 32.3436 91.8751 34.9791Z" fill="white"/>
<path d="M96.7928 31.0298V42.0636H101.121V44.151H94.1523V31.0298H96.7928Z" fill="white"/>
<path d="M108.905 44.28C105.199 44.28 102.163 41.4994 102.163 37.5501C102.163 33.6251 105.199 30.8364 108.905 30.8364C112.652 30.8364 115.631 33.617 115.631 37.5501C115.631 41.4994 112.636 44.28 108.905 44.28ZM108.905 41.9346C111.279 41.9346 112.918 40.2259 112.918 37.5582C112.918 34.8904 111.279 33.214 108.905 33.214C106.515 33.214 104.876 34.8904 104.876 37.5582C104.876 40.2259 106.515 41.9346 108.905 41.9346Z" fill="white"/>
<path d="M123.254 44.151H117.585V31.0298H123.012C125.757 31.0298 127.283 32.4564 127.283 34.4149C127.283 36.0107 126.322 37.0101 125.039 37.4212C126.524 37.6872 127.582 39.0573 127.582 40.5967C127.59 42.6842 125.991 44.151 123.254 44.151ZM122.632 33.1576H120.218V36.446H122.632C123.876 36.446 124.594 35.8818 124.594 34.8098C124.594 33.754 123.876 33.1576 122.632 33.1576ZM122.826 38.477H120.226V42.0152H122.883C124.166 42.0152 124.917 41.3946 124.917 40.2824C124.917 39.154 124.102 38.477 122.826 38.477Z" fill="white"/>
<path d="M137.756 41.6525H132.524L131.66 44.151H128.89L133.614 31.0137H136.682L141.406 44.151H138.62L137.756 41.6525ZM135.14 34.0603L133.234 39.5489H137.038L135.14 34.0603Z" fill="white"/>
<path d="M145.823 31.0298V42.0636H150.151V44.151H143.183V31.0298H145.823Z" fill="white"/>
<path d="M160.85 44.28C158.121 44.28 156.014 42.8534 155.973 40.371H158.799C158.872 41.4268 159.575 42.12 160.794 42.12C162.037 42.12 162.772 41.4591 162.772 40.5242C162.772 37.6871 155.989 39.3958 156.014 34.6406C156.014 32.271 157.935 30.8445 160.648 30.8445C163.345 30.8445 165.186 32.2146 165.356 34.5842H162.457C162.401 33.7218 161.706 33.0448 160.576 33.0206C159.542 32.9803 158.767 33.488 158.767 34.56C158.767 37.1955 165.509 35.7286 165.509 40.3468C165.501 42.4262 163.846 44.28 160.85 44.28Z" fill="white"/>
<path d="M167.746 31.0298H170.379V39.154C170.379 40.9594 171.356 41.8943 173.035 41.8943C174.731 41.8943 175.708 40.9513 175.708 39.154V31.0298H178.365V39.1298C178.365 42.5875 175.878 44.28 172.995 44.28C170.112 44.28 167.738 42.5875 167.738 39.1298V31.0298H167.746Z" fill="white"/>
<path d="M180.908 31.0298H183.904L188.087 40.7901L192.269 31.0298H195.241V44.151H192.601V35.6158L189.08 44.151H187.085L183.549 35.6158V44.151H180.908V31.0298Z" fill="white"/>
<path d="M197.841 31.0298H200.837L205.019 40.7901L209.202 31.0298H212.174V44.151H209.533V35.6158L206.013 44.151H204.018L200.481 35.6158V44.151H197.841V31.0298Z" fill="white"/>
<path d="M214.774 31.0298H217.414V44.151H214.774V31.0298Z" fill="white"/>
<path d="M219.312 31.0298H228.953V33.1576H225.449V44.151H222.816V33.1576H219.312V31.0298Z" fill="white"/>
<path d="M234.912 42.0072C238.021 39.3716 241.275 36.9537 241.275 34.431C241.275 33.206 240.726 32.3839 239.426 32.3839C238.167 32.3839 237.464 33.2866 237.448 34.7292H234.888C234.985 31.594 236.996 30.1433 239.467 30.1433C242.422 30.1433 243.908 31.8922 243.908 34.2779C243.908 37.4534 240.839 39.9358 238.651 41.7815H244.207V43.9657H234.904V42.0072H234.912Z" fill="white"/>
<path d="M250.957 30.1836C254.841 30.1836 256.044 33.1495 256.044 37.123C256.044 41.1286 254.841 44.1188 250.957 44.1188C247.081 44.1188 245.87 41.1286 245.87 37.123C245.87 33.1576 247.081 30.1836 250.957 30.1836ZM250.957 32.6257C248.737 32.6257 248.47 34.7695 248.47 37.1149C248.47 39.557 248.737 41.6606 250.957 41.6606C253.178 41.6606 253.444 39.557 253.444 37.1149C253.444 34.7695 253.178 32.6257 250.957 32.6257Z" fill="white"/>
<path d="M257.886 42.0072C260.994 39.3716 264.249 36.9537 264.249 34.431C264.249 33.206 263.699 32.3839 262.399 32.3839C261.14 32.3839 260.437 33.2866 260.421 34.7292H257.861C257.958 31.594 259.969 30.1433 262.44 30.1433C265.395 30.1433 266.881 31.8922 266.881 34.2779C266.881 37.4534 263.812 39.9358 261.624 41.7815H267.18V43.9657H257.877V42.0072H257.886Z" fill="white"/>
<path d="M268.698 42.0072C271.806 39.3716 275.061 36.9537 275.061 34.431C275.061 33.206 274.511 32.3839 273.211 32.3839C271.952 32.3839 271.249 33.2866 271.233 34.7292H268.673C268.77 31.594 270.781 30.1433 273.252 30.1433C276.207 30.1433 277.693 31.8922 277.693 34.2779C277.693 37.4534 274.624 39.9358 272.436 41.7815H277.992V43.9657H268.689V42.0072H268.698Z" fill="white"/>
<path d="M16.8197 54H7.03297C4.42481 54 2.3092 51.8803 2.3092 49.2851V31.183L0.169375 27.5964C-0.0486457 27.2257 -0.0486457 26.7663 0.169375 26.3955L2.3092 22.809V4.71493C2.30113 2.1197 4.42481 0 7.03297 0H16.8277V2.34537H7.03297C5.71678 2.34537 4.6509 3.40925 4.6509 4.72299V23.1475C4.6509 23.357 4.59438 23.5666 4.48133 23.7439L2.5353 27L4.48133 30.2642C4.5863 30.4496 4.6509 30.651 4.6509 30.8606V49.2851C4.6509 50.5988 5.71678 51.6627 7.03297 51.6627H16.8277V54H16.8197Z" fill="#AECC53"/>
<path d="M55.8534 54H46.0586V51.6546H55.8534C57.1695 51.6546 58.2354 50.5907 58.2354 49.277V30.8606C58.2354 30.651 58.292 30.4415 58.405 30.2642L60.351 27L58.405 23.7358C58.3 23.5504 58.2354 23.349 58.2354 23.1394V4.71493C58.2354 3.40119 57.1695 2.33731 55.8534 2.33731H46.0586V0H55.8534C58.4615 0 60.5771 2.1197 60.5771 4.71493V22.817L62.717 26.4036C62.935 26.7743 62.935 27.2337 62.717 27.6045L60.5771 31.191V49.2931C60.5771 51.8803 58.4534 54 55.8534 54Z" fill="#AECC53"/>
<path d="M44.7264 13.1212C44.6457 13.0325 44.5649 12.9439 44.4923 12.8633L44.4761 12.8794C42.8854 11.4125 41.0443 10.2116 39.0337 9.34925L39.0417 9.33313C38.9691 9.3009 38.8964 9.28478 38.8237 9.2606C36.5547 8.31761 34.0596 7.79373 31.4514 7.79373C29.4892 7.79373 26.663 8.03552 24.7251 10.1149C22.4399 12.5731 22.0927 16.5707 23.8772 19.843C25.9444 23.631 29.1178 26.1457 32.7999 26.9194C33.3974 27.0484 34.0031 27.1451 34.6248 27.2418C36.1671 27.4836 37.6206 27.7173 38.8237 28.4024C39.3486 28.7006 39.8412 29.1036 40.3014 29.5791C39.93 30.2481 39.8412 31.0701 40.148 31.8278C40.689 33.1818 42.2313 33.8427 43.5879 33.3027C44.9444 32.7627 45.6066 31.2233 45.0656 29.8693C44.6053 28.7248 43.4264 28.08 42.2555 28.2412C41.5772 27.4755 40.8101 26.8307 39.9946 26.3713C38.4119 25.4687 36.6758 25.1946 34.9963 24.9287C34.4229 24.84 33.8496 24.7433 33.2925 24.6304C29.4408 23.8164 27.1718 20.9713 25.9444 18.7227C24.8704 16.7561 24.5717 13.7257 26.4531 11.7027C27.4463 10.6307 29.037 10.131 31.4595 10.131C31.9601 10.131 32.4527 10.1552 32.9372 10.1955C31.839 11.1304 31.1849 12.5248 31.2092 14.0078C31.2334 15.8776 32.2427 17.6346 34.2211 19.2385C37.3137 21.7531 39.5182 22.2528 40.9959 22.2528C41.5772 22.2528 42.0456 22.1803 42.417 22.1158C44.1612 21.8418 45.6954 20.5845 46.3495 19.0128C47.6334 21.3904 48.3601 24.1066 48.3601 26.9919C48.3601 31.86 46.2526 36.4943 42.5704 39.7021C42.086 40.1292 42.0294 40.8627 42.4574 41.3543C42.6916 41.6203 43.0146 41.7573 43.3375 41.7573C43.6121 41.7573 43.8866 41.6606 44.1127 41.4672C48.3036 37.8161 50.7018 32.537 50.7018 26.9919C50.6856 21.5436 48.3924 16.6191 44.7264 13.1212ZM44.2985 17.6346C44.1531 18.6582 43.1276 19.6334 41.9406 19.8269C41.0362 19.9719 39.1629 20.2701 35.6745 17.4331C34.2453 16.2645 33.5428 15.1361 33.5266 13.9836C33.5105 12.9519 34.1161 12.009 35.0609 11.5818C35.9895 11.1707 36.9988 11.1224 37.9436 11.4367C39.825 12.2185 41.5288 13.3388 42.9903 14.709C44.0158 15.8534 44.4277 16.7722 44.2985 17.6346Z" fill="white"/>
<path d="M32.4203 33.2463C31.0476 32.9481 29.7556 32.666 28.7463 32.1985C25.8555 30.8606 23.9983 29.5227 23.0697 28.1122C22.6013 27.3869 22.2057 26.6293 21.8827 25.8394C22.4883 25.2833 22.8355 24.4531 22.7224 23.5746C22.5448 22.1319 21.2205 21.1003 19.7671 21.2857C18.3136 21.471 17.2881 22.7848 17.4738 24.2355C17.6192 25.4042 18.5155 26.2907 19.6136 26.4922C20.0012 27.5078 20.5019 28.4749 21.0994 29.4018C22.6578 31.7875 25.6455 33.3591 27.7531 34.3343C28.9885 34.9066 30.4743 35.229 31.9035 35.5433C34.6167 36.1397 37.1844 36.6958 38.2584 38.7107C38.6864 39.5167 38.7429 40.7176 38.3714 41.4591C37.3136 43.5949 34.2614 43.8851 31.419 43.8851C22.1168 43.869 14.5346 36.3009 14.5346 27C14.5346 22.0594 16.6986 17.3767 20.4696 14.169C20.9621 13.7499 21.0187 13.0084 20.5988 12.5167C20.1789 12.0251 19.436 11.9687 18.9434 12.3878C14.6476 16.0469 12.1929 21.3743 12.1929 27C12.1929 37.5905 20.8249 46.2143 31.4432 46.2143C33.5992 46.2143 38.6541 46.2143 40.4951 42.4827C41.1976 41.0722 41.133 39.0654 40.3417 37.5985C38.759 34.6325 35.3918 33.8991 32.4203 33.2463Z" fill="white"/>
</svg>
