<svg width="409" height="431" viewBox="0 0 409 431" fill="none" xmlns="http://www.w3.org/2000/svg">
<path d="M398.362 281.954C404.182 263.869 408.883 245.07 407.913 226.109C406.593 200.545 395.143 176.733 383.437 153.972C361.885 112.074 329.691 79.7454 296.944 46.1091C270.448 18.8874 218.035 16.6774 182.622 19.1974C178.352 19.5073 174.055 19.8173 169.771 20.2081C156.584 21.4344 143.463 23.4693 131.367 28.6846C111.956 37.0532 96.0883 55.0707 80.4358 68.8567C63.4901 83.7747 49.454 98.2885 37.7752 117.842C24.5608 139.997 1.55351 171.868 0.570181 198.47C-0.68256 231.958 -0.844203 257.562 10.6595 289.164C22.904 322.813 40.1999 359.509 68.5684 382.809C83.4396 395.018 104.211 402.47 121.251 411.284C154.496 428.466 189.774 434.584 226.75 428.021C265.464 421.148 294.587 404.438 328.64 386.65C372.365 363.821 383.936 326.748 398.362 281.954Z" fill="#1A3C5B"/>
<path d="M361.508 256.902C353.412 256.902 342.151 245.865 342.151 234.99C342.151 230.745 343.511 226.729 346.084 223.374C347.081 222.08 347.31 220.355 346.69 218.859C345.896 216.946 345.492 214.911 345.492 212.808C345.492 209.264 346.637 205.922 348.805 203.133C349.923 201.704 350.098 199.817 349.29 198.227C348.334 196.341 347.849 194.292 347.849 192.163C347.849 185.331 355.5 170.399 361.252 170.399C366.236 170.399 374.655 185.236 374.655 192.163C374.655 194.292 374.17 196.341 373.2 198.227C372.392 199.831 372.567 201.704 373.685 203.133C375.854 205.922 376.999 209.264 376.999 212.808C376.999 214.911 376.595 216.946 375.8 218.859C375.18 220.341 375.409 222.066 376.406 223.36C377.012 224.155 377.564 224.991 378.036 225.867C379.504 228.575 380.312 231.648 380.339 234.747C380.42 241.782 374.978 248.062 372.634 250.434C368.755 254.369 364.39 256.902 361.508 256.902ZM361.238 171.72C356.941 171.72 349.142 184.913 349.142 192.176C349.142 194.104 349.587 195.936 350.449 197.648C351.486 199.669 351.243 202.149 349.829 203.955C347.835 206.515 346.785 209.574 346.785 212.835C346.785 214.749 347.148 216.622 347.889 218.387C348.684 220.301 348.388 222.525 347.108 224.196C344.71 227.322 343.444 231.068 343.444 235.017C343.444 244.962 354.045 255.622 361.494 255.622C364.013 255.622 368.108 253.183 371.691 249.544C376.339 244.841 379.073 239.329 379.019 234.788C378.979 231.904 378.238 229.047 376.877 226.527C376.433 225.718 375.921 224.923 375.355 224.196C374.089 222.538 373.793 220.315 374.587 218.401C375.315 216.649 375.692 214.776 375.692 212.849C375.692 209.601 374.641 206.529 372.648 203.968C371.247 202.162 371.004 199.696 372.028 197.661C372.89 195.963 373.335 194.117 373.335 192.19C373.335 185.479 365.199 171.72 361.238 171.72Z" fill="#ADCB53"/>
<path d="M361.239 289.258C360.875 289.258 360.579 288.962 360.579 288.598V187.312C360.579 186.948 360.875 186.652 361.239 186.652C361.602 186.652 361.899 186.948 361.899 187.312V288.598C361.899 288.962 361.602 289.258 361.239 289.258Z" fill="#ADCB53"/>
<path d="M327.266 281.118C326.902 281.118 326.605 280.822 326.605 280.458V211.73C326.605 211.366 326.902 211.07 327.266 211.07C327.629 211.07 327.926 211.366 327.926 211.73V280.458C327.926 280.822 327.629 281.118 327.266 281.118Z" fill="#11283C"/>
<path d="M327.265 215.867C329.438 215.867 331.199 214.106 331.199 211.932C331.199 209.759 329.438 207.997 327.265 207.997C325.093 207.997 323.332 209.759 323.332 211.932C323.332 214.106 325.093 215.867 327.265 215.867Z" fill="#11283C"/>
<path d="M315.142 293.153C314.779 293.153 314.482 292.856 314.482 292.492V224.613C314.482 224.25 314.779 223.953 315.142 223.953C315.506 223.953 315.803 224.25 315.803 224.613V292.492C315.803 292.856 315.506 293.153 315.142 293.153Z" fill="#11283C"/>
<path d="M315.143 228.751C317.316 228.751 319.077 226.989 319.077 224.816C319.077 222.642 317.316 220.881 315.143 220.881C312.971 220.881 311.21 222.642 311.21 224.816C311.21 226.989 312.971 228.751 315.143 228.751Z" fill="#11283C"/>
<path d="M295.422 326.937C296.445 328.271 298.116 329.215 299.773 329.942C304.42 331.977 309.552 332.907 314.63 333.783C332.6 336.856 351.593 339.214 368.821 333.689C373.347 332.233 381.713 329.066 381.632 324.188C381.537 318.892 377.752 312.181 375.678 307.316C372.782 300.511 369.441 293.84 365.481 287.493C359.608 278.1 349.855 264.112 336.183 264.112C322.564 264.112 312.839 278.019 306.966 287.372C303.032 293.624 299.732 300.214 296.85 306.912C294.762 311.79 291.596 321.992 295.422 326.937Z" fill="#11283C"/>
<path d="M326.753 332.072C327.508 324.08 320.153 314.607 317.836 308.138C314.9 299.958 312.003 293.88 305.632 287.318C303.436 285.054 301.173 282.749 298.358 281.334C293.482 278.868 287.986 280.148 284.106 283.666C276.63 290.417 272.226 300.026 268.858 309.337C266.204 316.695 259.644 329.956 264.386 337.3C268.696 344.833 282.288 346.195 289.818 346.693C299.032 347.313 320.571 345.426 325.595 336.02C326.255 334.767 326.632 333.433 326.753 332.072Z" fill="#11283C"/>
<path d="M335.348 338.176C327.185 338.176 325.043 329.525 323.157 321.897C322.389 318.798 321.662 315.86 320.598 313.609L319.493 311.251C315.573 302.923 311.532 294.312 305.174 287.776C303.032 285.579 300.823 283.302 298.075 281.914C293.697 279.704 288.525 280.553 284.551 284.151C276.805 291.158 272.428 301.413 269.478 309.567C269.356 309.903 268.979 310.079 268.642 309.957C268.306 309.836 268.131 309.459 268.252 309.122C271.256 300.834 275.714 290.39 283.675 283.18C288.053 279.218 293.792 278.289 298.668 280.755C301.618 282.237 304.002 284.703 306.117 286.873C312.637 293.57 316.732 302.276 320.692 310.712L321.796 313.057C322.914 315.429 323.655 318.42 324.45 321.587C326.309 329.107 328.235 336.869 335.374 336.869C335.738 336.869 336.035 337.165 336.035 337.529C336.035 337.893 335.711 338.176 335.348 338.176Z" fill="#ADCB53"/>
<path d="M309.795 337.246C309.754 337.246 309.714 337.246 309.687 337.233C309.337 337.165 309.094 336.828 309.162 336.478C310.266 330.131 312.179 324.538 314.523 320.725C315.789 318.663 318.402 316.439 321.608 316.992C322.107 317.072 322.578 317.221 322.982 317.409C323.305 317.558 323.454 317.948 323.292 318.285C323.144 318.609 322.753 318.757 322.416 318.595C322.107 318.447 321.756 318.339 321.366 318.272C318.82 317.841 316.678 319.673 315.614 321.398C313.351 325.077 311.519 330.508 310.428 336.694C310.387 337.017 310.105 337.246 309.795 337.246Z" fill="#ADCB53"/>
<path d="M298.803 336.923C298.762 336.923 298.708 336.923 298.668 336.91C298.318 336.829 298.089 336.492 298.17 336.128C300.177 326.654 304.164 317.881 310.037 310.038C311.007 308.745 312.111 307.464 313.647 306.885C315.007 306.359 316.503 306.427 318.119 307.06C318.456 307.195 318.618 307.572 318.483 307.909C318.348 308.246 317.971 308.408 317.634 308.273C316.314 307.747 315.169 307.694 314.105 308.098C312.825 308.596 311.869 309.769 311.074 310.82C305.309 318.501 301.402 327.113 299.436 336.398C299.382 336.708 299.113 336.923 298.803 336.923Z" fill="#ADCB53"/>
<path d="M288.053 336.195C288.013 336.195 287.959 336.195 287.918 336.182C287.568 336.101 287.339 335.751 287.42 335.4C290.074 323.272 295.394 311.736 302.844 302.02C305.107 299.069 309.175 295.875 313.189 296.562C313.539 296.63 313.781 296.966 313.728 297.317C313.66 297.667 313.323 297.91 312.973 297.856C309.754 297.29 306.076 299.945 303.881 302.815C296.553 312.37 291.313 323.743 288.7 335.67C288.632 335.98 288.35 336.195 288.053 336.195Z" fill="#ADCB53"/>
<path d="M335.348 338.176C334.984 338.176 334.688 337.88 334.688 337.516C334.688 337.152 334.984 336.856 335.348 336.856L366.572 336.842C366.936 336.842 367.232 337.138 367.232 337.502C367.232 337.866 366.936 338.163 366.572 338.163L335.348 338.176Z" fill="#ADCB53"/>
<path d="M345.275 335.737C344.912 335.737 344.615 335.44 344.615 335.077V312.464C344.615 312.1 344.912 311.803 345.275 311.803C345.639 311.803 345.935 312.1 345.935 312.464V335.09C345.935 335.44 345.639 335.737 345.275 335.737Z" fill="#ADCB53"/>
<path d="M343.943 310.389C341.572 310.389 340.198 307.855 339.524 306.629C339.228 306.09 338.959 305.551 338.703 304.998C338.204 303.987 337.733 303.031 337.127 302.155C336.857 301.764 336.48 301.454 336.076 301.13C335.86 300.969 335.658 300.794 335.456 300.605C335.268 300.43 335.093 300.255 334.931 300.052C334.042 298.961 334.123 297.33 335.12 296.346L336.682 294.783C341.383 290.08 349.034 290.08 353.749 294.783L355.312 296.346C356.308 297.344 356.389 298.974 355.5 300.052C355.365 300.214 355.244 300.376 355.123 300.551C354.423 301.562 353.48 302.209 352.577 302.842C351.984 303.246 351.432 303.637 350.934 304.109C350.274 304.742 349.748 305.537 349.21 306.373C348.374 307.666 347.499 309 346.031 309.796C345.236 310.213 344.562 310.389 343.943 310.389ZM345.195 292.6C342.447 292.6 339.713 293.651 337.612 295.74L336.049 297.303C335.537 297.815 335.497 298.651 335.955 299.203C336.076 299.352 336.211 299.486 336.345 299.608C336.52 299.769 336.709 299.918 336.898 300.079C337.356 300.443 337.827 300.834 338.218 301.386C338.878 302.343 339.39 303.394 339.888 304.405C340.144 304.931 340.413 305.456 340.683 305.982C342.286 308.933 343.512 309.62 345.33 308.623C346.502 307.99 347.243 306.844 348.024 305.645C348.59 304.769 349.169 303.88 349.95 303.138C350.53 302.586 351.149 302.155 351.742 301.737C352.591 301.144 353.385 300.591 353.951 299.783C354.086 299.581 354.234 299.392 354.396 299.203C354.854 298.651 354.813 297.815 354.301 297.303L352.739 295.74C350.678 293.638 347.93 292.6 345.195 292.6Z" fill="white"/>
<path d="M344.778 312.343C346.691 311.817 348.684 311.574 350.664 311.615C352.523 311.655 354.328 312.181 356.174 312.14C356.349 312.14 356.524 312.14 356.699 312.154C357.521 312.208 358.275 311.615 358.396 310.779L358.666 309.081C359.42 304.27 356.106 299.716 351.297 298.961L349.6 298.691C348.765 298.557 347.984 299.096 347.768 299.891C347.728 300.066 347.674 300.228 347.62 300.389C346.96 302.303 346.219 304.19 345.667 306.13C345.101 308.111 344.912 310.079 344.737 312.127" fill="#C8D3DD"/>
<path d="M344.872 312.329C344.145 312.356 343.242 311.79 342.528 311.615C341.612 311.386 340.67 311.264 339.727 311.224C338.151 311.17 336.548 311.399 335.052 311.884C333.921 312.262 332.237 312.302 331.995 310.752L331.725 309.054C330.971 304.243 334.285 299.688 339.093 298.934L340.791 298.664C341.626 298.529 342.407 299.068 342.623 299.864C342.663 300.039 342.717 300.2 342.771 300.362L345.196 307.451C345.438 308.192 345.694 308.919 345.788 309.688C345.883 310.456 345.815 311.278 345.465 311.979C345.398 312.113 345.317 312.248 345.196 312.342C345.088 312.45 345.007 312.396 344.872 312.329Z" fill="#C8D3DD"/>
<path d="M342.716 312.1C342.716 310.793 343.78 310.914 345.087 310.914C346.394 310.914 347.458 310.793 347.458 312.1C347.458 313.407 346.394 315.658 345.087 315.658C343.767 315.671 342.716 313.421 342.716 312.1Z" fill="#ADCB53"/>
<path d="M80.0175 281.118C79.6538 281.118 79.3574 280.822 79.3574 280.458V211.73C79.3574 211.366 79.6538 211.07 80.0175 211.07C80.3812 211.07 80.6775 211.366 80.6775 211.73V280.458C80.664 280.822 80.3812 281.118 80.0175 281.118Z" fill="#11283C"/>
<path d="M80.0173 215.867C82.1896 215.867 83.9507 214.106 83.9507 211.932C83.9507 209.759 82.1896 207.997 80.0173 207.997C77.845 207.997 76.084 209.759 76.084 211.932C76.084 214.106 77.845 215.867 80.0173 215.867Z" fill="#11283C"/>
<path d="M92.1415 293.153C91.7778 293.153 91.4814 292.856 91.4814 292.492V224.613C91.4814 224.25 91.7778 223.953 92.1415 223.953C92.5052 223.953 92.8015 224.25 92.8015 224.613V292.492C92.7881 292.856 92.5052 293.153 92.1415 293.153Z" fill="#11283C"/>
<path d="M92.1414 228.75C94.3137 228.75 96.0747 226.989 96.0747 224.815C96.0747 222.642 94.3137 220.88 92.1414 220.88C89.969 220.88 88.208 222.642 88.208 224.815C88.208 226.989 89.969 228.75 92.1414 228.75Z" fill="#11283C"/>
<path d="M111.862 326.937C110.838 328.271 109.168 329.214 107.511 329.942C102.864 331.977 97.7317 332.907 92.6534 333.783C74.684 336.855 55.6908 339.214 38.4622 333.689C33.9362 332.233 25.5711 329.066 25.6519 324.188C25.7462 318.892 29.5314 312.181 31.6058 307.316C34.502 300.51 37.8426 293.84 41.8029 287.493C47.6759 278.1 57.4285 264.112 71.1008 264.112C84.7193 264.112 94.4449 278.019 100.318 287.371C104.251 293.624 107.552 300.214 110.434 306.912C112.522 311.79 115.688 321.991 111.862 326.937Z" fill="#11283C"/>
<path d="M80.5306 332.071C79.7763 324.08 87.1311 314.606 89.448 308.138C92.3845 299.958 95.2806 293.88 101.652 287.317C103.848 285.053 106.111 282.749 108.926 281.334C113.802 278.868 119.298 280.148 123.178 283.665C130.654 290.417 135.058 300.025 138.426 309.337C141.08 316.695 147.64 329.956 142.898 337.3C138.588 344.833 124.996 346.194 117.466 346.693C108.253 347.313 86.7135 345.426 81.689 336.02C81.029 334.767 80.6518 333.432 80.5306 332.071Z" fill="#11283C"/>
<path d="M97.4897 337.246C97.1799 337.246 96.897 337.017 96.8431 336.707C95.7655 330.521 93.9201 325.091 91.6571 321.412C90.6064 319.687 88.4646 317.841 85.9052 318.285C85.5146 318.353 85.1644 318.46 84.8545 318.609C84.5313 318.77 84.1406 318.622 83.979 318.299C83.8308 317.975 83.9655 317.584 84.2888 317.423C84.7064 317.234 85.1644 317.086 85.6628 317.005C88.8687 316.439 91.4819 318.663 92.7482 320.738C95.092 324.552 96.9913 330.158 98.1093 336.491C98.1767 336.842 97.9342 337.192 97.584 337.246C97.5705 337.246 97.5301 337.246 97.4897 337.246Z" fill="#C8D3DD"/>
<path d="M108.482 336.923C108.185 336.923 107.902 336.707 107.848 336.411C105.882 327.126 101.962 318.515 96.21 310.833C95.4153 309.769 94.4589 308.61 93.1792 308.111C92.1285 307.707 90.9701 307.761 89.65 308.286C89.3132 308.421 88.9361 308.259 88.8014 307.922C88.6667 307.585 88.8283 307.208 89.1651 307.073C90.7815 306.44 92.2902 306.373 93.6372 306.898C95.1728 307.491 96.2774 308.771 97.2473 310.052C103.12 317.881 107.121 326.668 109.128 336.141C109.209 336.492 108.98 336.842 108.63 336.923C108.576 336.923 108.522 336.923 108.482 336.923Z" fill="#C8D3DD"/>
<path d="M119.231 336.195C118.934 336.195 118.665 335.979 118.598 335.683C115.984 323.743 110.744 312.383 103.417 302.828C101.221 299.958 97.557 297.317 94.3242 297.869C93.9739 297.937 93.6372 297.694 93.5698 297.33C93.5025 296.98 93.7449 296.629 94.1086 296.575C98.1228 295.902 102.204 299.082 104.454 302.033C111.889 311.749 117.224 323.285 119.877 335.413C119.958 335.764 119.729 336.114 119.379 336.195C119.325 336.195 119.271 336.195 119.231 336.195Z" fill="#C8D3DD"/>
<path d="M71.9362 338.176C66.3865 338.176 60.8367 338.163 55.2869 338.136C49.7371 338.122 44.1874 338.095 38.6376 338.095C38.2739 338.095 37.9775 337.799 37.9775 337.435C37.9775 337.071 38.2739 336.775 38.6376 336.775C44.1874 336.775 49.7371 336.788 55.3004 336.815C60.8502 336.829 66.3999 336.856 71.9497 336.856C79.089 336.856 81.0152 329.08 82.8741 321.574C83.6554 318.407 84.3963 315.402 85.5278 313.043L86.6324 310.699C90.5926 302.276 94.6876 293.557 101.207 286.859C103.416 284.582 105.706 282.237 108.656 280.741C113.519 278.275 119.271 279.205 123.649 283.167C131.61 290.363 136.068 300.807 139.072 309.108C139.194 309.445 139.018 309.823 138.682 309.944C138.345 310.065 137.968 309.89 137.847 309.553C134.897 301.4 130.519 291.145 122.773 284.137C118.813 280.553 113.627 279.704 109.249 281.9C106.501 283.288 104.292 285.566 102.15 287.762C95.7922 294.298 91.7376 302.909 87.8312 311.238L86.7267 313.596C85.6625 315.846 84.9351 318.784 84.1673 321.884C82.241 329.538 80.0993 338.176 71.9362 338.176Z" fill="#C8D3DD"/>
<path d="M51.1649 304.068C48.2823 304.068 43.9179 301.535 40.0384 297.613C37.6946 295.241 32.2526 288.962 32.3334 281.927C32.3738 278.828 33.1686 275.755 34.6368 273.046C35.1083 272.17 35.6606 271.321 36.2667 270.54C37.2501 269.246 37.4925 267.521 36.8729 266.039C36.0782 264.125 35.6741 262.09 35.6741 259.988C35.6741 256.444 36.819 253.102 38.9878 250.312C40.1058 248.884 40.2809 246.997 39.4727 245.407C38.5163 243.52 38.0179 241.472 38.0179 239.343C38.0179 232.416 46.4368 217.579 51.4209 217.579C57.1727 217.579 64.8238 232.51 64.8238 239.343C64.8238 241.472 64.3389 243.52 63.369 245.407C62.5608 247.011 62.7359 248.884 63.854 250.312C66.0227 253.102 67.1677 256.444 67.1677 259.988C67.1677 262.077 66.7636 264.112 65.9688 266.039C65.3492 267.521 65.5782 269.246 66.575 270.553C69.1478 273.909 70.5083 277.925 70.5083 282.17C70.5218 293.031 59.2606 304.068 51.1649 304.068ZM35.7953 273.666C34.4213 276.186 33.6804 279.043 33.6535 281.927C33.5996 286.469 36.3341 291.98 40.9814 296.683C44.5645 300.322 48.6729 302.761 51.1784 302.761C58.641 302.761 69.2286 292.102 69.2286 282.156C69.2286 278.208 67.9624 274.461 65.5647 271.335C64.285 269.664 63.9887 267.44 64.7834 265.527C65.5108 263.761 65.888 261.902 65.888 259.975C65.888 256.727 64.8373 253.654 62.8437 251.094C61.4428 249.288 61.2003 246.822 62.2241 244.787C63.0862 243.076 63.5307 241.243 63.5307 239.316C63.5307 232.052 55.7314 218.859 51.4343 218.859C47.4741 218.859 39.338 232.618 39.338 239.316C39.338 241.243 39.7825 243.076 40.6446 244.787C41.6818 246.808 41.4394 249.288 40.025 251.094C38.0314 253.654 36.9807 256.727 36.9807 259.975C36.9807 261.902 37.3444 263.761 38.0852 265.527C38.88 267.44 38.5836 269.664 37.3174 271.321C36.7517 272.076 36.2398 272.858 35.7953 273.666Z" fill="#ADCB53"/>
<path d="M51.4345 338.176C51.0708 338.176 50.7744 337.88 50.7744 337.516V234.464C50.7744 234.1 51.0708 233.804 51.4345 233.804C51.7982 233.804 52.0945 234.1 52.0945 234.464V337.529C52.081 337.88 51.7982 338.176 51.4345 338.176Z" fill="#ADCB53"/>
<path d="M203.542 157.475C200.861 157.475 198.019 157.287 194.948 156.923C178.675 154.969 163.211 148.069 151.398 137.517C137.012 124.661 127.852 107.048 125.616 87.8984C124.511 78.4247 125.104 68.9241 127.394 59.693C128.943 53.467 132.203 48.0362 135.368 42.794L135.732 42.1875C136.89 40.2605 137.874 38.293 138.817 36.3794C140.595 32.7812 142.279 29.3853 145.094 26.2319C168.627 -0.140801 204.767 -6.35327 241.77 9.61588C246.876 11.826 251.779 15.8688 256.318 19.9251C266.327 28.8597 273.924 40.247 278.289 52.8471C280.04 57.9006 281.75 63.9918 281.158 70.7838C280.848 74.3819 281.225 77.5353 281.643 80.8773C281.858 82.6562 282.087 84.5024 282.208 86.4834C282.518 91.2809 280.74 96.9543 279.299 101.509L279.056 102.291C275.756 112.87 270.072 122.882 262.623 131.21C256.426 138.151 248.708 144.121 239.683 148.945C235.412 151.222 230.59 152.274 225.916 153.298C223.208 153.891 220.393 154.497 217.793 155.346C213.321 156.775 208.728 157.475 203.542 157.475ZM146.091 27.1482C143.397 30.1669 141.753 33.482 140.016 36.9993C139.059 38.9263 138.076 40.9343 136.877 42.9018L136.513 43.5082C133.253 48.8986 130.182 54.0061 128.687 60.0299C126.437 69.1127 125.845 78.4382 126.936 87.7501C129.132 106.563 138.13 123.893 152.274 136.52C163.885 146.883 179.093 153.662 195.096 155.589C203.919 156.653 210.789 156.182 217.362 154.052C220.029 153.19 222.858 152.57 225.606 151.977C230.186 150.98 234.928 149.942 239.022 147.759C247.913 143.016 255.497 137.153 261.585 130.321C268.9 122.128 274.49 112.29 277.736 101.887L277.979 101.105C279.38 96.6578 281.117 91.1192 280.821 86.5642C280.7 84.6237 280.471 82.8044 280.255 81.0391C279.838 77.6296 279.447 74.4088 279.77 70.6625C280.336 64.1401 278.76 58.4666 276.968 53.2918C272.685 40.9073 265.209 29.7222 255.375 20.9358C250.917 16.9603 246.121 12.9849 241.191 10.8557C204.781 -4.85743 169.219 1.23376 146.091 27.1482Z" fill="white"/>
<path d="M255.671 135.644C252.237 135.644 248.546 134.364 246.134 132.909C244.505 131.925 242.821 130.901 241.406 129.513C238.281 126.453 236.746 121.602 237.392 116.872C238.537 108.544 245.811 102.816 252.237 97.7494C253.193 96.9948 254.122 96.2536 255.011 95.5394C269.788 83.4783 277.561 67.2396 276.335 50.9875C276.308 50.6101 276.591 50.3002 276.955 50.2598C277.332 50.2463 277.655 50.5158 277.682 50.8797C278.935 67.5765 270.987 84.2329 255.86 96.577C254.971 97.3047 254.028 98.0459 253.058 98.8006C246.835 103.706 239.776 109.258 238.712 117.047C238.12 121.36 239.507 125.766 242.336 128.542C243.642 129.822 245.259 130.806 246.821 131.75C249.731 133.515 254.5 134.863 258.002 134.027C258.366 133.933 258.729 134.162 258.81 134.526C258.891 134.889 258.675 135.253 258.312 135.334C257.477 135.55 256.587 135.644 255.671 135.644Z" fill="white"/>
<path d="M237.446 149.376C237.406 149.376 237.352 149.376 237.311 149.363C228.771 147.543 221.349 142.045 217.456 134.674C214.061 128.232 214.493 119.23 218.614 110.565C223.06 101.199 230.374 94.3399 237.432 87.6962C240.329 84.9741 243.333 82.1576 246.107 79.1794C253.274 71.5384 257.759 63.2237 260.642 52.2003C262.447 45.3275 264.575 35.2878 262.366 27.5795C262.258 27.2156 262.474 26.8518 262.824 26.744C263.188 26.6362 263.551 26.8518 263.659 27.2021C265.963 35.2204 263.78 45.5027 261.948 52.5372C258.998 63.7897 254.419 72.2796 247.104 80.0957C244.289 83.1009 241.272 85.9309 238.362 88.6665C231.061 95.5258 224.178 102.008 219.84 111.131C215.907 119.405 215.462 127.976 218.655 134.04C222.305 140.967 229.566 146.331 237.594 148.042C237.958 148.123 238.187 148.473 238.106 148.837C238.039 149.161 237.756 149.376 237.446 149.376Z" fill="white"/>
<path d="M148.407 92.7633C144.313 92.7633 140.218 91.5235 136.89 89.1113C125.993 81.2277 125.952 67.9134 127.838 58.1298C127.906 57.7659 128.269 57.5368 128.633 57.5907C128.997 57.6581 129.239 58.0085 129.172 58.3858C127.353 67.7786 127.367 80.5539 137.685 88.0197C142.723 91.6582 149.687 92.4533 155.412 90.0141C157.796 89.0034 159.992 87.4672 162.093 85.9713C163.737 84.8124 165.313 83.4782 166.997 82.0633C170.539 79.0716 174.203 75.9855 178.46 74.6918C182.838 73.3712 187.795 72.7648 192.577 72.1853C199.77 71.3094 207.219 70.393 212.823 67.024C221.053 62.0782 231.654 53.3727 235.372 40.0314C238.147 30.0187 236.14 20.518 229.687 13.2544C222.184 4.80493 209.644 0.519538 197.736 2.36576C197.372 2.41966 197.022 2.1771 196.968 1.79977C196.914 1.43591 197.17 1.08553 197.534 1.03163C209.873 -0.868497 222.885 3.56513 230.698 12.3515C237.46 19.9655 239.575 29.9109 236.665 40.3818C232.839 54.1543 221.955 63.1024 213.51 68.1694C207.65 71.6867 200.066 72.6165 192.725 73.506C187.997 74.0854 183.107 74.6784 178.837 75.9721C174.836 77.1849 171.28 80.1766 167.845 83.074C166.215 84.4485 164.531 85.8635 162.848 87.0494C160.679 88.5722 158.429 90.1489 155.91 91.227C153.553 92.2781 150.98 92.7633 148.407 92.7633Z" fill="white"/>
<path d="M163.279 72.3471C163.036 72.3471 162.794 72.3336 162.551 72.3066C160.302 72.0641 158.254 70.7299 156.301 68.1964C152.826 63.7089 151.573 57.2404 152.933 50.9067C154.065 45.6914 156.88 40.4357 161.312 35.2609C172.977 21.6636 191.176 15.0333 206.599 18.7393C209.994 19.5613 212.499 20.6798 214.466 22.2835C218.763 25.7738 220.703 32.2153 219.315 38.3065C216.069 52.4429 200.874 59.976 187.269 61.1754C181.167 61.7145 178.069 62.9812 173.476 66.8758C169.906 69.854 166.673 72.3471 163.279 72.3471ZM197.79 19.0627C185.033 19.0627 171.576 25.356 162.322 36.1369C158.039 41.1365 155.318 46.19 154.24 51.1896C152.96 57.1461 154.119 63.1833 157.352 67.3744C159.062 69.598 160.813 70.7704 162.672 70.9725C165.811 71.3094 169.017 68.8433 172.573 65.8381C177.369 61.7818 180.763 60.3803 187.121 59.8278C200.255 58.6823 214.883 51.4861 217.982 37.9966C219.261 32.3905 217.51 26.5015 213.604 23.3211C211.799 21.8522 209.468 20.8146 206.276 20.0464C203.528 19.3861 200.672 19.0627 197.79 19.0627Z" fill="white"/>
<path d="M174.984 51.5668C172.829 51.5668 170.957 51.149 169.731 50.0574C168.128 48.629 167.872 46.2841 168.963 43.1038C170.014 40.0447 173.166 38.3602 175.442 37.363C180.359 35.2068 185.559 33.9535 190.906 33.6301C194.638 33.401 197.183 34.2635 198.463 36.1771C199.958 38.4006 199.191 41.3115 197.844 43.0634C196.389 44.9635 194.233 46.0955 192.321 47.0118C192.186 47.0657 182.056 51.5668 174.984 51.5668ZM192.051 34.9238C191.715 34.9238 191.351 34.9373 190.987 34.9642C185.801 35.2742 180.75 36.5005 175.981 38.5893C173.934 39.4922 171.118 40.9746 170.243 43.535C169.34 46.1629 169.475 48.0091 170.633 49.0467C174.419 52.4292 188.185 47.4835 191.741 45.7855C193.52 44.9365 195.513 43.8989 196.779 42.2278C197.87 40.7994 198.423 38.5084 197.345 36.9048C196.456 35.5976 194.678 34.9238 192.051 34.9238Z" fill="white"/>
<path d="M147.155 114.864C146.656 114.864 146.158 114.85 145.66 114.824C139.477 114.487 134.237 111.94 130.505 107.493C130.263 107.21 130.303 106.778 130.586 106.549C130.869 106.307 131.3 106.347 131.529 106.63C135.072 110.862 139.84 113.166 145.727 113.489C155.601 114.028 165.757 108.786 171.442 103.342C173.139 101.725 174.621 99.946 176.076 98.221C179.16 94.5555 182.339 90.7553 187.458 88.6395C191.391 87.0089 195.661 86.6181 199.81 86.2408C201.952 86.0387 204.175 85.8365 206.303 85.4592C219.342 83.1548 232.247 73.1555 240.841 58.6957C249.529 44.0742 252.142 27.7142 247.845 14.8985C247.724 14.5481 247.913 14.1708 248.263 14.0495C248.613 13.9282 249.004 14.1169 249.112 14.4672C253.53 27.6334 250.876 44.4245 241.986 59.3695C233.19 74.1662 219.935 84.4081 206.518 86.7798C204.336 87.1706 202.087 87.3728 199.905 87.5749C195.863 87.9523 191.688 88.3296 187.956 89.8793C183.147 91.8738 180.211 95.3776 177.086 99.0835C175.618 100.835 174.095 102.641 172.358 104.312C166.781 109.676 156.948 114.864 147.155 114.864Z" fill="white"/>
<path d="M216.648 155.831C216.621 155.831 216.594 155.831 216.568 155.831C210.708 155.076 205.643 151.128 203.016 145.252C200.12 138.757 199.123 131.318 200.201 124.297C200.551 121.993 202.033 119.594 203.447 117.263C205.387 114.096 207.394 110.834 206.492 107.964C205.764 105.646 203.353 104.352 201.279 104.096C199.258 103.854 196.955 104.353 194.274 105.606C188.644 108.234 183.673 113.557 178.864 118.705C170.001 128.205 160.827 138.029 146.495 133.11C146.145 132.989 145.956 132.612 146.077 132.261C146.199 131.911 146.576 131.722 146.939 131.844C160.45 136.479 168.91 127.41 177.881 117.802C182.77 112.559 187.835 107.129 193.708 104.406C196.631 103.045 199.164 102.52 201.44 102.789C204.458 103.153 207.004 105.08 207.785 107.587C208.863 111.037 206.694 114.581 204.592 117.99C203.178 120.295 201.844 122.491 201.521 124.526C200.484 131.291 201.44 138.474 204.229 144.727C206.653 150.171 211.328 153.823 216.716 154.524C217.079 154.578 217.349 154.915 217.295 155.279C217.268 155.589 216.985 155.831 216.648 155.831Z" fill="white"/>
<path d="M198.436 157.139C194.045 157.139 190.111 152.543 188.603 149.511C187.148 146.587 187.848 144.067 188.522 141.641C188.953 140.078 189.397 138.447 189.263 136.695C189.115 134.809 187.956 132.963 186.313 132.019C184.642 131.062 182.528 130.968 180.79 131.804C179.052 132.639 177.799 134.256 176.56 135.981L176.17 136.52C174.755 138.501 173.287 140.563 171.361 142.153C168.72 144.336 164.262 145.792 160.867 144.323C160.531 144.175 160.369 143.784 160.517 143.433C160.665 143.097 161.056 142.935 161.406 143.083C164.316 144.336 168.182 143.043 170.512 141.116C172.304 139.62 173.718 137.652 175.092 135.725L175.483 135.186C176.776 133.394 178.204 131.548 180.224 130.577C182.352 129.553 184.952 129.661 187 130.847C189.047 132.033 190.435 134.229 190.61 136.588C190.758 138.569 190.286 140.307 189.815 141.991C189.155 144.377 188.589 146.439 189.815 148.905C191.324 151.964 195.149 156.074 198.894 155.764C199.271 155.751 199.594 156.007 199.621 156.37C199.648 156.748 199.379 157.071 199.015 157.098C198.813 157.125 198.625 157.139 198.436 157.139Z" fill="white"/>
<path d="M203.541 341.666C156.718 341.666 118.422 303.34 118.422 256.511V239.356C118.422 215.759 137.711 196.462 161.298 196.462H181.274H198.368H245.797C269.384 196.462 288.673 215.759 288.673 239.356V256.511C288.66 303.34 250.35 341.666 203.541 341.666Z" fill="#AECC53"/>
<path d="M271.109 308.691C270.987 308.691 270.866 308.65 270.758 308.569C255.321 296.454 230.132 289.218 203.366 289.218C176.736 289.218 151.613 296.4 136.176 308.421C135.934 308.61 135.57 308.569 135.382 308.327C135.193 308.084 135.233 307.72 135.476 307.532C151.115 295.363 176.493 288.086 203.366 288.086C230.374 288.086 255.82 295.417 271.445 307.68C271.688 307.869 271.728 308.232 271.54 308.475C271.445 308.623 271.284 308.691 271.109 308.691Z" fill="#11283C"/>
<path d="M203.379 233.386C173.165 233.386 145.241 224.263 130.505 209.56C130.289 209.345 130.289 208.981 130.505 208.765C130.72 208.55 131.084 208.55 131.3 208.765C145.834 223.252 173.448 232.254 203.379 232.254C233.445 232.254 261.127 223.198 275.607 208.604C275.823 208.388 276.187 208.374 276.402 208.604C276.618 208.833 276.631 209.183 276.402 209.399C261.719 224.195 233.728 233.386 203.379 233.386Z" fill="#11283C"/>
<path d="M213.792 293.179H193.277C166.256 293.179 144.339 271.267 144.339 244.221C144.339 230.138 155.749 218.738 169.812 218.738H209.118H237.244C251.321 218.738 262.717 230.152 262.717 244.221C262.73 271.254 240.827 293.179 213.792 293.179Z" fill="white"/>
<path d="M213.792 294.864H193.277C165.366 294.864 142.655 272.143 142.655 244.221C142.655 229.235 154.846 217.04 169.825 217.04H237.257C252.236 217.04 264.427 229.235 264.427 244.221C264.414 272.143 241.716 294.864 213.792 294.864ZM169.825 220.422C156.705 220.422 146.036 231.095 146.036 244.221C146.036 270.284 167.225 291.481 193.277 291.481H213.792C239.844 291.481 261.033 270.284 261.033 244.221C261.033 231.095 250.364 220.422 237.244 220.422H169.825Z" fill="#1A3C5B"/>
<path d="M203.299 276.24C197.493 276.24 192.226 273.033 189.532 267.885L192.038 266.591C194.233 270.809 198.544 273.437 203.299 273.437C208.404 273.437 212.998 270.391 214.991 265.688L217.591 266.78C215.153 272.521 209.549 276.24 203.299 276.24Z" fill="#1A3C5B"/>
<path d="M244.518 249.126H224.312V251.943H244.518V249.126Z" fill="#1A3C5B"/>
<path d="M182.555 249.126H162.349V251.943H182.555V249.126Z" fill="#1A3C5B"/>
<path d="M264.481 201.798H233.041C229.633 201.798 226.831 199.009 226.831 195.586C226.831 192.176 229.619 189.373 233.041 189.373H264.481C267.889 189.373 270.69 192.163 270.69 195.586C270.69 199.009 267.889 201.798 264.481 201.798Z" fill="#AECC53"/>
<path d="M248.761 176.975C247.387 176.975 246.283 175.857 246.283 174.496V146.358C246.283 144.983 247.387 143.878 248.761 143.878C250.135 143.878 251.24 144.996 251.24 146.358V174.496C251.24 175.857 250.135 176.975 248.761 176.975Z" fill="white"/>
<path d="M248.761 150.495C252.191 150.495 254.971 147.713 254.971 144.282C254.971 140.851 252.191 138.07 248.761 138.07C245.331 138.07 242.551 140.851 242.551 144.282C242.551 147.713 245.331 150.495 248.761 150.495Z" fill="#AECC53"/>
<path d="M248.761 195.182C245.11 195.182 242.147 192.217 242.147 188.565V167.044C242.147 163.391 245.11 160.427 248.761 160.427C252.411 160.427 255.375 163.391 255.375 167.044V188.565C255.375 192.217 252.411 195.182 248.761 195.182Z" fill="#AECC53"/>
<path d="M212.202 394.075C192.67 394.075 169.272 392.161 153.162 390.261C138.345 388.523 126.491 378.254 124.309 365.29C122.275 353.162 129.266 341.95 143.032 335.292C145.174 334.255 148.474 333.352 155.048 331.708C158.523 330.845 162.039 332.948 162.914 336.424C163.79 339.901 161.675 343.419 158.2 344.294C155.331 345.009 149.983 346.343 148.69 346.976C140.163 351.1 136.055 356.841 137.105 363.147C138.143 369.32 144.514 376.179 154.684 377.378C171.589 379.373 196.658 381.394 216.324 381.071C219.948 381.044 222.857 383.874 222.911 387.458C222.965 391.043 220.109 393.994 216.526 394.048C215.112 394.075 213.671 394.075 212.202 394.075Z" fill="white"/>
<path d="M147.329 342.691C149.7 347.394 153.997 350.507 158.792 351.571C162.469 352.393 166.443 352.003 170.053 350.183L172.451 348.97L184.143 343.068C187.47 341.397 188.817 337.3 187.134 333.985L178.001 315.86C176.33 312.531 172.235 311.184 168.922 312.868L154.832 319.97C146.521 324.148 143.153 334.376 147.329 342.691Z" fill="#AECC53"/>
<path d="M258.176 399.775V375.518H221.254C214.559 375.518 209.131 380.949 209.131 387.647C209.131 394.344 214.559 399.775 221.254 399.775H232.3H258.176Z" fill="#AECC53"/>
<path d="M258.177 400.462C249.623 400.462 242.672 394.776 242.672 387.768C242.672 380.774 249.623 375.073 258.177 375.073V376.206C250.256 376.206 243.804 381.394 243.804 387.768C243.804 394.142 250.256 399.33 258.177 399.33V400.462Z" fill="#11283C"/>
<path d="M195.283 394.075C193.815 394.075 192.374 394.061 190.959 394.048C187.376 393.994 184.521 391.042 184.574 387.458C184.628 383.914 187.524 381.07 191.054 381.07C191.094 381.07 191.121 381.07 191.161 381.07C210.828 381.394 235.896 379.372 252.802 377.378C262.972 376.178 269.343 369.306 270.38 363.147C271.445 356.84 267.323 351.099 258.796 346.976C257.489 346.342 252.155 345.008 249.286 344.294C245.811 343.432 243.696 339.901 244.571 336.424C245.433 332.947 248.963 330.831 252.438 331.707C259.012 333.351 262.312 334.254 264.454 335.292C278.22 341.949 285.211 353.161 283.177 365.29C280.995 378.24 269.141 388.509 254.324 390.261C238.213 392.161 214.815 394.075 195.283 394.075Z" fill="white"/>
<path d="M260.157 342.69C257.786 347.393 253.489 350.506 248.693 351.571C245.016 352.393 241.042 352.002 237.432 350.183L230.751 346.814L223.342 343.081C220.015 341.41 218.668 337.313 220.352 333.998L229.485 315.873C231.155 312.544 235.25 311.197 238.564 312.881L252.654 319.983C260.965 324.147 264.346 334.376 260.157 342.69Z" fill="#AECC53"/>
<path d="M149.309 399.775V375.518H177.947H186.231C192.926 375.518 198.355 380.949 198.355 387.647C198.355 394.344 192.926 399.775 186.231 399.775H149.309Z" fill="#AECC53"/>
<path d="M149.309 400.462V399.33C157.23 399.33 163.682 394.142 163.682 387.768C163.682 381.394 157.23 376.205 149.309 376.205V375.073C157.863 375.073 164.813 380.76 164.813 387.768C164.813 394.762 157.863 400.462 149.309 400.462Z" fill="#11283C"/>
<path d="M118.826 268.357C113.25 268.357 108.683 263.788 108.683 258.209V236.782C108.683 233.696 110.084 230.92 112.266 229.047C114.044 227.537 116.334 226.621 118.826 226.621C124.403 226.621 128.969 231.189 128.969 236.769V258.196C128.969 263.788 124.403 268.357 118.826 268.357Z" fill="#AECC53"/>
<path d="M316.948 256.794C309.27 256.794 301.888 255.096 296.433 253.385C293.011 252.32 291.112 248.681 292.176 245.258C293.24 241.836 296.877 239.935 300.299 241C311.816 244.598 327.185 246.62 334.998 235.893C343.39 224.357 340.427 202.634 332.169 190.936C330.108 188.012 330.795 183.969 333.732 181.894C336.655 179.832 340.696 180.533 342.77 183.457C353.816 199.103 357.534 226.971 345.491 243.534C338.056 253.735 327.239 256.794 316.948 256.794Z" fill="white"/>
<path d="M288.499 268.356C291.88 268.356 294.897 266.672 296.742 264.111C297.941 262.44 298.642 260.406 298.642 258.209V236.782C298.642 233.494 297.066 230.57 294.628 228.71C292.917 227.403 290.789 226.635 288.499 226.635C282.922 226.635 278.355 231.203 278.355 236.782V258.209C278.355 263.788 282.922 268.356 288.499 268.356Z" fill="#AECC53"/>
<path d="M308.691 175.695C301.524 175.695 294.587 171.949 290.802 165.332C289.563 163.162 290.317 160.413 292.486 159.173C294.655 157.933 297.402 158.688 298.642 160.858C301.673 166.154 308.327 168.175 313.796 165.467C316.557 164.092 318.632 161.734 319.615 158.809C320.598 155.885 320.396 152.745 319.022 149.983C317.648 147.22 315.291 145.145 312.368 144.161C309.445 143.177 306.306 143.379 303.545 144.754C301.322 145.859 298.601 144.943 297.497 142.719C296.392 140.482 297.308 137.773 299.531 136.668C304.461 134.229 310.038 133.852 315.251 135.604C320.464 137.356 324.666 141.048 327.105 145.967C329.543 150.885 329.92 156.478 328.169 161.68C326.418 166.895 322.727 171.1 317.81 173.539C314.874 175.008 311.762 175.695 308.691 175.695Z" fill="white"/>
<path d="M315.615 150.724C322.835 147.139 331.671 150.131 335.254 157.354L351.015 189.198C352.362 191.906 352.779 194.858 352.389 197.661C351.756 202.323 348.886 206.609 344.387 208.846C337.167 212.43 328.331 209.439 324.748 202.216L308.987 170.372C305.418 163.148 308.395 154.308 315.615 150.724Z" fill="#AECC53"/>
<path d="M341.026 168.988L314.754 181.994L315.256 183.008L341.528 170.003L341.026 168.988Z" fill="#11283C"/>
<path d="M90.3362 256.794C80.0583 256.794 69.2417 253.735 61.806 243.534C49.7635 226.972 53.4948 199.103 64.527 183.457C66.588 180.533 70.6426 179.832 73.5656 181.894C76.4887 183.956 77.1891 188.012 75.1282 190.937C66.8709 202.647 63.9074 224.357 72.2994 235.893C80.1122 246.62 95.4819 244.598 106.999 241C110.42 239.936 114.057 241.836 115.122 245.259C116.186 248.682 114.286 252.32 110.865 253.385C105.396 255.096 98.0143 256.794 90.3362 256.794Z" fill="white"/>
<path d="M118.786 268.357C116.779 268.357 114.906 267.764 113.33 266.753C110.515 264.947 108.643 261.78 108.643 258.209V236.782C108.643 233.494 110.219 230.57 112.657 228.71C114.367 227.403 116.496 226.635 118.786 226.635C124.362 226.635 128.929 231.203 128.929 236.782V258.209C128.929 263.788 124.362 268.357 118.786 268.357Z" fill="#AECC53"/>
<path d="M98.5931 175.695C95.5219 175.695 92.4102 175.008 89.4872 173.553C84.557 171.113 80.8796 166.895 79.1285 161.694C77.3773 156.478 77.741 150.899 80.1926 145.967C82.6442 141.035 86.847 137.356 92.0465 135.604C97.2595 133.852 102.836 134.216 107.766 136.669C110.002 137.774 110.905 140.482 109.8 142.719C108.696 144.956 105.988 145.859 103.752 144.754C100.991 143.38 97.8522 143.178 94.9292 144.161C92.0061 145.145 89.6353 147.22 88.2748 149.983C86.9009 152.746 86.6988 155.886 87.6821 158.81C88.6655 161.734 90.7399 164.106 93.5013 165.467C98.9837 168.176 105.638 166.154 108.655 160.858C109.895 158.689 112.643 157.947 114.811 159.174C116.98 160.413 117.721 163.163 116.495 165.332C112.71 171.949 105.759 175.695 98.5931 175.695Z" fill="white"/>
<path d="M91.6696 150.724C84.4495 147.139 75.613 150.131 72.0299 157.354L60.7821 180.061L56.2561 189.185C54.9091 191.893 54.4915 194.845 54.8821 197.648C55.5152 202.31 58.3844 206.596 62.8835 208.833C70.1036 212.417 78.9401 209.426 82.5232 202.203L87.2109 192.729L98.2835 170.359C101.88 163.149 98.8897 154.309 91.6696 150.724Z" fill="#AECC53"/>
<path d="M66.2743 168.986L65.772 170L92.038 183.017L92.5403 182.003L66.2743 168.986Z" fill="#11283C"/>
<path d="M118.975 268.909C118.799 268.909 118.624 268.828 118.517 268.68C118.341 268.437 118.395 268.087 118.651 267.912C123.285 264.637 125.184 258.721 125.184 247.496C125.184 236.58 124.848 229.262 120.308 227.133C120.025 226.998 119.917 226.675 120.039 226.392C120.173 226.109 120.497 226.001 120.78 226.122C125.925 228.548 126.289 235.812 126.289 247.496C126.289 259.125 124.255 265.297 119.284 268.815C119.204 268.869 119.082 268.909 118.975 268.909Z" fill="#11283C"/>
<path d="M288.094 268.909C287.987 268.909 287.879 268.882 287.771 268.801C282.801 265.297 280.767 259.112 280.767 247.482C280.767 235.798 281.144 228.535 286.276 226.109C286.559 225.974 286.882 226.096 287.017 226.379C287.152 226.662 287.03 226.985 286.747 227.12C282.208 229.262 281.871 236.566 281.871 247.482C281.871 258.708 283.757 264.624 288.404 267.898C288.66 268.073 288.714 268.424 288.539 268.666C288.445 268.815 288.27 268.909 288.094 268.909Z" fill="#11283C"/>
<path d="M142.13 84.8528L135.395 72.7244C133.334 69.005 134.667 64.3153 138.385 62.24C145.147 58.4802 152.583 66.0807 148.865 72.7244L142.13 84.8528Z" fill="#ADCB53"/>
<path d="M104.413 111.805L97.6778 99.6763C95.6169 95.9569 96.9504 91.2672 100.668 89.1919C107.43 85.4321 114.866 93.0326 111.148 99.6763L104.413 111.805Z" fill="#ADCB53"/>
<path d="M236.422 78.1146L229.687 65.9861C227.626 62.2667 228.96 57.577 232.678 55.5017C239.44 51.7419 246.875 59.3424 243.157 65.9861L236.422 78.1146Z" fill="#ADCB53"/>
<path d="M295.692 109.11L288.957 96.9812C286.896 93.2618 288.229 88.5722 291.947 86.4968C298.709 82.737 306.145 90.3375 302.427 96.9812L295.692 109.11Z" fill="#ADCB53"/>
<path d="M186.582 123.933L179.847 111.805C177.786 108.086 179.119 103.396 182.837 101.321C189.599 97.5608 197.035 105.161 193.317 111.805L186.582 123.933Z" fill="#ADCB53"/>
<path d="M279.837 107.83C279.662 107.83 279.487 107.803 279.325 107.735C279.163 107.668 279.015 107.56 278.894 107.439C278.638 107.183 278.49 106.846 278.49 106.482C278.49 106.307 278.53 106.132 278.598 105.97C278.665 105.808 278.759 105.66 278.894 105.539C279.392 105.04 280.281 105.027 280.793 105.539C281.049 105.781 281.184 106.132 281.184 106.482C281.184 106.846 281.049 107.183 280.793 107.439C280.658 107.56 280.524 107.668 280.349 107.735C280.187 107.803 280.012 107.83 279.837 107.83Z" fill="#ADCB53"/>
<path d="M201.951 124.607C201.951 123.853 202.544 123.26 203.298 123.26C204.039 123.26 204.645 123.866 204.645 124.607C204.645 125.348 204.039 125.955 203.298 125.955C202.544 125.955 201.951 125.348 201.951 124.607ZM209.993 124.58C209.98 123.839 210.586 123.233 211.327 123.233C212.068 123.219 212.674 123.812 212.687 124.567C212.687 125.308 212.094 125.914 211.354 125.928C211.34 125.928 211.34 125.928 211.34 125.928C210.599 125.928 209.993 125.322 209.993 124.58ZM195.243 125.914C194.489 125.914 193.896 125.308 193.896 124.553C193.91 123.812 194.516 123.219 195.257 123.219C196.011 123.233 196.604 123.839 196.604 124.58C196.59 125.322 195.984 125.914 195.243 125.914ZM218.035 124.499C218.021 123.745 218.614 123.138 219.355 123.125C220.096 123.111 220.715 123.704 220.729 124.446C220.742 125.2 220.15 125.807 219.395 125.82H219.382C218.641 125.82 218.048 125.241 218.035 124.499ZM187.188 125.807C186.447 125.793 185.841 125.187 185.854 124.446C185.868 123.691 186.487 123.098 187.228 123.111C187.983 123.125 188.562 123.745 188.562 124.486C188.548 125.227 187.942 125.807 187.188 125.807ZM226.077 124.338C226.05 123.597 226.642 122.977 227.383 122.95C228.124 122.936 228.744 123.516 228.771 124.27C228.784 125.012 228.205 125.631 227.451 125.645C227.437 125.645 227.424 125.645 227.424 125.645C226.696 125.645 226.09 125.065 226.077 124.338ZM179.133 125.631C178.392 125.605 177.799 124.985 177.826 124.243C177.839 123.502 178.459 122.923 179.2 122.936C179.941 122.95 180.533 123.57 180.507 124.324C180.493 125.052 179.9 125.631 179.173 125.631C179.16 125.631 179.146 125.631 179.133 125.631ZM234.118 124.095C234.092 123.354 234.671 122.734 235.412 122.707C236.152 122.68 236.772 123.26 236.813 124.001C236.826 124.756 236.247 125.375 235.506 125.402C235.492 125.402 235.479 125.402 235.465 125.402C234.738 125.402 234.132 124.823 234.118 124.095ZM171.077 125.375C170.336 125.348 169.757 124.715 169.784 123.974C169.811 123.233 170.431 122.653 171.172 122.68C171.912 122.707 172.505 123.341 172.465 124.082C172.451 124.809 171.845 125.375 171.131 125.375C171.104 125.375 171.091 125.375 171.077 125.375ZM242.147 123.785C242.12 123.044 242.686 122.411 243.44 122.384C244.181 122.343 244.814 122.923 244.841 123.664C244.881 124.405 244.302 125.039 243.561 125.065C243.534 125.065 243.521 125.065 243.494 125.065C242.78 125.065 242.187 124.513 242.147 123.785ZM163.022 125.039C162.281 124.998 161.702 124.365 161.742 123.624C161.783 122.882 162.416 122.303 163.157 122.343C163.898 122.384 164.463 123.004 164.436 123.758C164.396 124.473 163.803 125.039 163.089 125.039C163.076 125.039 163.049 125.039 163.022 125.039ZM250.189 123.381C250.135 122.64 250.7 121.993 251.455 121.952H251.441C252.196 121.912 252.829 122.478 252.869 123.219C252.923 123.96 252.357 124.607 251.603 124.648C251.576 124.648 251.549 124.648 251.536 124.648C250.822 124.648 250.229 124.095 250.189 123.381ZM154.98 124.607C154.239 124.567 153.674 123.92 153.714 123.179C153.754 122.438 154.401 121.872 155.142 121.912C155.883 121.966 156.449 122.599 156.408 123.341C156.354 124.055 155.762 124.607 155.061 124.607C155.034 124.607 155.007 124.607 154.98 124.607ZM258.217 122.882C258.163 122.141 258.715 121.494 259.456 121.44C260.197 121.386 260.844 121.939 260.897 122.68C260.951 123.421 260.399 124.068 259.645 124.122C259.618 124.122 259.591 124.122 259.564 124.122C258.85 124.122 258.257 123.583 258.217 122.882ZM146.938 124.068C146.198 124.014 145.632 123.367 145.686 122.626C145.74 121.885 146.386 121.333 147.127 121.386C147.868 121.44 148.434 122.087 148.38 122.828C148.326 123.529 147.733 124.082 147.033 124.082C146.992 124.082 146.965 124.082 146.938 124.068ZM266.232 122.249C266.164 121.508 266.717 120.861 267.458 120.794C268.198 120.726 268.845 121.279 268.912 122.02C268.98 122.761 268.427 123.408 267.687 123.475C267.646 123.475 267.606 123.475 267.565 123.475C266.878 123.475 266.286 122.95 266.232 122.249ZM138.897 123.421C138.156 123.341 137.604 122.694 137.671 121.952C137.738 121.211 138.398 120.659 139.139 120.726C139.88 120.794 140.419 121.454 140.351 122.195C140.298 122.896 139.705 123.421 139.018 123.421C138.978 123.421 138.937 123.421 138.897 123.421ZM274.233 121.494C274.152 120.753 274.691 120.079 275.432 119.998C276.173 119.918 276.833 120.457 276.914 121.198C276.995 121.939 276.469 122.599 275.728 122.68C275.674 122.68 275.621 122.694 275.58 122.694C274.893 122.694 274.314 122.182 274.233 121.494ZM130.855 122.599C130.114 122.518 129.589 121.858 129.67 121.117C129.75 120.376 130.424 119.837 131.165 119.931C131.906 120.012 132.431 120.672 132.35 121.413C132.269 122.101 131.69 122.613 131.017 122.613C130.963 122.613 130.909 122.613 130.855 122.599ZM282.221 120.538C282.127 119.796 282.639 119.123 283.366 119.015C284.107 118.907 284.794 119.419 284.902 120.16C284.996 120.901 284.484 121.575 283.743 121.683C283.689 121.696 283.622 121.696 283.568 121.696C282.895 121.696 282.315 121.211 282.221 120.538ZM122.84 121.589C122.099 121.481 121.587 120.794 121.695 120.052C121.803 119.311 122.49 118.813 123.231 118.907V118.92C123.958 119.028 124.47 119.702 124.362 120.443C124.268 121.117 123.689 121.602 123.029 121.602C122.961 121.602 122.907 121.589 122.84 121.589ZM290.182 119.298C290.034 118.57 290.505 117.856 291.233 117.721V117.708C291.974 117.573 292.674 118.058 292.822 118.786C292.957 119.513 292.485 120.228 291.758 120.362C291.664 120.376 291.583 120.389 291.502 120.389C290.869 120.389 290.303 119.945 290.182 119.298ZM114.839 120.228C114.098 120.079 113.64 119.365 113.775 118.637C113.923 117.91 114.637 117.438 115.364 117.586C116.091 117.734 116.563 118.435 116.415 119.176C116.293 119.81 115.728 120.254 115.095 120.254C115.014 120.254 114.92 120.241 114.839 120.228ZM298.022 117.519C297.779 116.818 298.156 116.05 298.87 115.821C299.571 115.578 300.339 115.956 300.581 116.656C300.81 117.371 300.433 118.139 299.732 118.368C299.584 118.422 299.45 118.435 299.301 118.435C298.736 118.435 298.21 118.085 298.022 117.519ZM106.864 118.125C106.164 117.869 105.8 117.101 106.056 116.4C106.312 115.7 107.093 115.336 107.794 115.592C108.494 115.848 108.844 116.629 108.588 117.33C108.386 117.869 107.875 118.206 107.322 118.206C107.174 118.206 107.012 118.179 106.864 118.125ZM302.184 113.166C301.618 112.667 301.578 111.818 302.063 111.266C302.561 110.7 303.41 110.646 303.962 111.145C304.528 111.63 304.582 112.479 304.083 113.045C303.814 113.341 303.45 113.503 303.073 113.503C302.763 113.503 302.44 113.395 302.184 113.166ZM103.658 112.479C103.241 111.872 103.402 111.023 104.009 110.606C104.628 110.188 105.463 110.35 105.881 110.969C106.298 111.576 106.15 112.425 105.531 112.843C105.302 112.991 105.032 113.072 104.776 113.072C104.345 113.072 103.914 112.87 103.658 112.479ZM295.368 110.43C294.641 110.255 294.21 109.514 294.385 108.8C294.573 108.072 295.301 107.641 296.028 107.816C296.742 107.991 297.187 108.732 296.998 109.46C296.85 110.067 296.298 110.471 295.691 110.471C295.584 110.471 295.476 110.457 295.368 110.43ZM110.973 109.272C110.798 108.544 111.242 107.83 111.969 107.654C112.697 107.479 113.411 107.924 113.586 108.652C113.761 109.366 113.317 110.094 112.589 110.269C112.495 110.296 112.387 110.309 112.279 110.309C111.673 110.309 111.121 109.891 110.973 109.272ZM287.596 108.894C286.868 108.786 286.356 108.086 286.478 107.358C286.599 106.617 287.286 106.118 288.027 106.226C288.027 106.226 288.027 106.226 288.027 106.239C288.754 106.347 289.266 107.034 289.145 107.776C289.037 108.436 288.471 108.908 287.811 108.908C287.744 108.908 287.676 108.908 287.596 108.894ZM118.839 107.668C118.732 106.927 119.23 106.239 119.971 106.132C120.698 106.01 121.399 106.522 121.506 107.25C121.614 107.991 121.116 108.679 120.375 108.786H120.388C120.308 108.8 120.24 108.8 120.173 108.8C119.526 108.8 118.947 108.328 118.839 107.668Z" fill="#ADCB53"/>
<path d="M128.255 107.749C128.08 107.749 127.905 107.708 127.743 107.641C127.582 107.574 127.434 107.466 127.299 107.344C127.043 107.088 126.908 106.752 126.908 106.388C126.908 106.037 127.056 105.687 127.299 105.444C127.811 104.932 128.7 104.932 129.212 105.444C129.454 105.687 129.602 106.037 129.602 106.388C129.602 106.752 129.468 107.088 129.212 107.344C128.956 107.601 128.619 107.749 128.255 107.749Z" fill="#ADCB53"/>
</svg>
