<svg width="438" height="431" viewBox="0 0 438 431" fill="none" xmlns="http://www.w3.org/2000/svg">
<path d="M268.107 41.6133C250.618 35.0556 232.374 29.5709 213.706 29.6504C188.546 29.7564 164.619 39.9176 141.737 50.3703C99.579 69.6064 66.3503 99.7456 31.7968 130.362C3.84136 155.135 -0.756062 206.511 0.0918769 241.42C0.197869 245.633 0.303862 249.859 0.489348 254.098C1.07231 267.121 2.47671 280.091 7.03438 292.226C14.3478 311.674 31.3199 328.101 44.1317 344.118C58.0035 361.447 71.597 375.914 90.2781 388.287C111.424 402.304 141.658 426.362 167.732 428.574C200.563 431.356 225.697 432.694 257.256 422.851C290.869 412.372 327.701 397.084 351.894 370.283C364.573 356.24 372.854 336.183 382.3 319.848C400.716 287.973 408.348 253.608 403.618 216.977C398.663 178.624 383.585 149.24 367.7 114.968C347.283 70.9312 311.431 57.8554 268.107 41.6133Z" fill="#1A3C5B"/>
<path d="M163.214 179.22H144.652C125.335 179.22 107.674 167.072 100.679 148.975C97.724 141.344 97.3663 132.587 99.6716 124.307L128.753 19.7008C131.973 8.09554 141.843 0.597168 153.887 0.597168C165.93 0.597168 175.787 8.09554 179.02 19.6875C187.049 48.4755 195.489 78.7737 201.583 100.593L208.195 124.281C210.513 132.574 210.155 141.357 207.188 149.001C200.192 167.085 182.518 179.22 163.214 179.22ZM153.887 3.24677C143.062 3.24677 134.199 9.99 131.31 20.4162L102.229 125.022C100.082 132.759 100.414 140.92 103.156 148.034C109.754 165.111 126.421 176.584 144.652 176.584H163.214C181.431 176.584 198.112 165.124 204.71 148.061C207.466 140.947 207.797 132.759 205.624 125.009L199.013 101.322C192.918 79.5023 184.479 49.2041 176.45 20.4162C173.562 9.97676 164.698 3.24677 153.887 3.24677Z" fill="#C8D3DD"/>
<path d="M153.94 99.7052C145.845 99.7052 138.544 94.8829 135.312 87.4243C135.02 86.7486 135.325 85.967 136.001 85.6888C136.676 85.3973 137.458 85.702 137.736 86.3777C140.532 92.8692 146.891 97.0556 153.926 97.0556C160.948 97.0556 167.308 92.8692 170.117 86.3909C170.408 85.7153 171.19 85.4106 171.852 85.702C172.528 85.9935 172.833 86.7751 172.541 87.4508C169.335 94.8829 162.022 99.7052 153.94 99.7052Z" fill="#C8D3DD"/>
<path d="M175.274 90.0388C176.88 87.8052 176.371 84.6927 174.137 83.0869C171.903 81.4811 168.791 81.9901 167.185 84.2237C165.579 86.4573 166.088 89.5697 168.321 91.1755C170.555 92.7813 173.668 92.2724 175.274 90.0388Z" fill="#C8D3DD"/>
<path d="M141.419 85.7155C140.638 83.0791 137.855 81.5821 135.219 82.3637C132.582 83.1454 131.085 85.9274 131.867 88.5638C132.649 91.2002 135.431 92.6972 138.067 91.9155C140.704 91.1207 142.201 88.3518 141.419 85.7155Z" fill="#C8D3DD"/>
<path d="M153.94 136.534C140.784 136.534 129.111 127.671 125.534 114.98C125.335 114.278 125.746 113.549 126.448 113.35C127.15 113.152 127.879 113.562 128.078 114.264C131.324 125.817 141.963 133.885 153.927 133.885C165.904 133.885 176.53 125.817 179.776 114.264C179.974 113.562 180.703 113.152 181.405 113.35C182.107 113.549 182.518 114.278 182.319 114.98C178.769 127.671 167.096 136.534 153.94 136.534Z" fill="#C8D3DD"/>
<path d="M176.106 113.894C176.636 111.191 179.259 109.442 181.962 109.972C184.665 110.502 186.414 113.125 185.884 115.828C185.354 118.531 182.731 120.279 180.028 119.749C177.325 119.219 175.563 116.596 176.106 113.894Z" fill="#C8D3DD"/>
<path d="M131.774 113.894C131.244 111.191 128.621 109.443 125.918 109.972C123.215 110.502 121.467 113.125 121.996 115.828C122.526 118.531 125.15 120.279 127.853 119.749C130.555 119.22 132.317 116.596 131.774 113.894Z" fill="#C8D3DD"/>
<path d="M153.94 284.104C153.211 284.104 152.615 283.508 152.615 282.78V57.7887C152.615 57.06 153.211 56.4639 153.94 56.4639C154.669 56.4639 155.265 57.06 155.265 57.7887V282.78C155.265 283.508 154.669 284.104 153.94 284.104Z" fill="#C8D3DD"/>
<path d="M150.853 57.9479C150.853 56.2389 152.244 54.8611 153.94 54.8611C155.649 54.8611 157.027 56.2521 157.027 57.9479C157.027 59.6569 155.636 61.0347 153.94 61.0347C152.231 61.0347 150.853 59.6569 150.853 57.9479Z" fill="#C8D3DD"/>
<path d="M153.94 62.3593C151.502 62.3593 149.528 60.3721 149.528 57.9477C149.528 55.5233 151.516 53.5361 153.94 53.5361C156.378 53.5361 158.352 55.5233 158.352 57.9477C158.352 60.3721 156.378 62.3593 153.94 62.3593ZM153.94 56.1725C152.96 56.1725 152.178 56.9674 152.178 57.9345C152.178 58.9016 152.973 59.6965 153.94 59.6965C154.921 59.6965 155.702 58.9016 155.702 57.9345C155.702 56.9674 154.921 56.1725 153.94 56.1725Z" fill="#C8D3DD"/>
<path d="M226.916 247.129C180.862 247.129 143.195 209.452 143.195 163.415V146.55C143.195 123.353 162.168 104.382 185.367 104.382H205.015H268.465C291.664 104.382 310.637 123.353 310.637 146.55V163.415C310.637 209.452 272.97 247.129 226.916 247.129Z" fill="#AECC53"/>
<path d="M293.386 214.712C293.267 214.712 293.148 214.672 293.042 214.592C277.858 202.682 253.083 195.568 226.77 195.568C200.577 195.568 175.867 202.629 160.684 214.447C160.445 214.632 160.101 214.592 159.902 214.354C159.717 214.115 159.756 213.758 159.995 213.572C175.377 201.609 200.338 194.455 226.77 194.455C253.334 194.455 278.362 201.662 293.731 213.718C293.969 213.904 294.009 214.261 293.824 214.5C293.704 214.632 293.545 214.712 293.386 214.712Z" fill="#11283C"/>
<path d="M226.756 140.682C197.039 140.682 169.573 131.713 155.079 117.259C154.867 117.047 154.867 116.689 155.079 116.478C155.291 116.266 155.649 116.266 155.861 116.478C170.156 130.719 197.317 139.569 226.756 139.569C256.328 139.569 283.555 130.666 297.798 116.319C298.01 116.107 298.367 116.093 298.579 116.319C298.791 116.53 298.805 116.888 298.579 117.1C284.138 131.646 256.62 140.682 226.756 140.682Z" fill="#11283C"/>
<path d="M192.11 376.589C188.586 376.589 185.737 373.741 185.737 370.217V253.237C185.737 249.713 188.586 246.865 192.11 246.865C195.634 246.865 198.483 249.713 198.483 253.237V370.217C198.483 373.728 195.634 376.589 192.11 376.589Z" fill="white"/>
<path d="M192.111 265.425C182.955 265.425 175.47 257.94 175.47 248.799V241.632V233.285C175.47 229.629 178.464 226.635 182.121 226.635H202.087C205.744 226.635 208.738 229.629 208.738 233.285V248.812C208.738 252.773 207.334 256.416 205.002 259.278C201.955 263.014 197.304 265.425 192.111 265.425Z" fill="#AECC53"/>
<path d="M260.038 376.868C256.514 376.868 253.666 374.019 253.666 370.495V253.515C253.666 249.991 256.514 247.143 260.038 247.143C263.563 247.143 266.411 249.991 266.411 253.515V370.495C266.411 374.006 263.549 376.868 260.038 376.868Z" fill="white"/>
<path d="M260.741 265.425C255.561 265.425 250.923 263.027 247.863 259.291C245.518 256.417 244.1 252.76 244.1 248.786V233.259C244.1 229.603 247.094 226.609 250.751 226.609H265.285H270.704C274.361 226.609 277.355 229.603 277.355 233.259V248.786C277.368 257.94 269.883 265.425 260.741 265.425Z" fill="#AECC53"/>
<path d="M237.011 199.463H216.833C190.255 199.463 168.699 177.922 168.699 151.333C168.699 137.489 179.921 126.281 193.753 126.281H226.836H260.078C273.923 126.281 285.132 137.502 285.132 151.333C285.132 177.909 263.589 199.463 237.011 199.463Z" fill="white"/>
<path d="M237.011 201.119H216.833C189.381 201.119 167.043 178.783 167.043 151.333C167.043 136.601 179.033 124.612 193.766 124.612H260.091C274.824 124.612 286.814 136.601 286.814 151.333C286.801 178.783 264.463 201.119 237.011 201.119ZM193.753 127.937C180.848 127.937 170.355 138.43 170.355 151.333C170.355 176.955 191.196 197.794 216.82 197.794H236.998C262.622 197.794 283.462 176.955 283.462 151.333C283.462 138.43 272.969 127.937 260.065 127.937H193.753Z" fill="#1A3C5B"/>
<path d="M226.677 182.811C220.967 182.811 215.787 179.658 213.137 174.597L215.601 173.325C217.761 177.472 222 180.055 226.677 180.055C231.699 180.055 236.217 177.061 238.177 172.438L240.734 173.511C238.336 179.154 232.825 182.811 226.677 182.811Z" fill="#1A3C5B"/>
<path d="M196.974 167.297C202.483 167.297 206.95 162.831 206.95 157.321C206.95 151.812 202.483 147.345 196.974 147.345C191.464 147.345 186.997 151.812 186.997 157.321C186.997 162.831 191.464 167.297 196.974 167.297Z" fill="#1A3C5B"/>
<path d="M194.323 162.223C196.884 162.223 198.96 160.147 198.96 157.586C198.96 155.025 196.884 152.949 194.323 152.949C191.762 152.949 189.686 155.025 189.686 157.586C189.686 160.147 191.762 162.223 194.323 162.223Z" fill="white"/>
<path d="M256.858 167.297C262.368 167.297 266.835 162.831 266.835 157.321C266.835 151.812 262.368 147.345 256.858 147.345C251.348 147.345 246.882 151.812 246.882 157.321C246.882 162.831 251.348 167.297 256.858 167.297Z" fill="#1A3C5B"/>
<path d="M253.944 162.223C256.505 162.223 258.581 160.147 258.581 157.586C258.581 155.025 256.505 152.949 253.944 152.949C251.383 152.949 249.307 155.025 249.307 157.586C249.307 160.147 251.383 162.223 253.944 162.223Z" fill="white"/>
<path d="M286.855 109.628H255.932C252.58 109.628 249.824 106.886 249.824 103.521C249.824 100.169 252.566 97.4138 255.932 97.4138H260.794H286.855C290.207 97.4138 292.963 100.156 292.963 103.521C292.963 106.886 290.22 109.628 286.855 109.628Z" fill="#AECC53"/>
<path d="M271.393 85.2259C270.041 85.2259 268.955 84.1263 268.955 82.7883V55.1132C268.955 53.7619 270.041 52.6755 271.393 52.6755C272.744 52.6755 273.831 53.7751 273.831 55.1132V82.775C273.844 84.1263 272.744 85.2259 271.393 85.2259Z" fill="white"/>
<path d="M271.392 59.1934C274.766 59.1934 277.5 56.4591 277.5 53.0861C277.5 49.7131 274.766 46.9788 271.392 46.9788C268.019 46.9788 265.285 49.7131 265.285 53.0861C265.285 56.4591 268.019 59.1934 271.392 59.1934Z" fill="#AECC53"/>
<path d="M271.392 103.124C267.802 103.124 264.887 100.209 264.887 96.6192V75.4489C264.887 71.8587 267.802 68.9441 271.392 68.9441C274.983 68.9441 277.897 71.8587 277.897 75.4489V82.3511V96.6059C277.911 100.209 274.996 103.124 271.392 103.124Z" fill="#AECC53"/>
<path d="M205.015 384.074H181.167V351.339V347.762C181.167 341.177 186.506 335.838 193.091 335.838C199.676 335.838 205.015 341.177 205.015 347.762V359.963V384.074Z" fill="#AECC53"/>
<path d="M205.691 384.074H204.578C204.578 376.284 199.477 369.939 193.21 369.939C186.943 369.939 181.842 376.284 181.842 384.074H180.729C180.729 375.662 186.321 368.826 193.21 368.826C200.1 368.826 205.691 375.662 205.691 384.074Z" fill="#11283C"/>
<path d="M272.599 384.074H248.75V350.874V347.748C248.75 341.164 254.09 335.825 260.675 335.825C267.259 335.825 272.599 341.164 272.599 347.748V384.074Z" fill="#AECC53"/>
<path d="M273.274 384.074H272.161C272.161 376.284 267.06 369.938 260.794 369.938C254.527 369.938 249.426 376.284 249.426 384.074H248.313C248.313 375.661 253.904 368.825 260.794 368.825C267.683 368.825 273.274 375.661 273.274 384.074Z" fill="#11283C"/>
<path d="M363.607 226.052C362.056 226.052 360.493 225.482 359.261 224.343C356.677 221.945 356.532 217.904 358.93 215.334C366.177 207.531 370.549 191.514 364.945 179.247C359.036 166.277 343.614 159.852 320.401 160.62C316.877 160.766 313.936 157.984 313.817 154.46C313.697 150.936 316.453 147.995 319.978 147.875C336.42 147.319 365.62 149.969 376.564 173.947C384.739 191.872 378.406 213.122 368.284 224.012C367.025 225.376 365.316 226.052 363.607 226.052Z" fill="white"/>
<path d="M310.491 175.047C315.976 175.047 320.467 170.556 320.467 165.072V154.261V144.007C320.467 141.742 319.699 139.649 318.414 137.966C317.87 137.251 317.234 136.615 316.519 136.072C314.836 134.787 312.743 134.031 310.491 134.031C305.006 134.031 300.514 138.523 300.514 144.007V165.072C300.514 170.556 305.006 175.047 310.491 175.047Z" fill="#AECC53"/>
<path d="M116.604 304.03C113.08 304.03 110.231 301.181 110.231 297.657V170.689C110.231 157.997 120.552 147.677 133.245 147.677C136.769 147.677 139.617 150.525 139.617 154.049C139.617 157.573 136.769 160.421 133.245 160.421C127.587 160.421 122.99 165.018 122.99 170.675V297.644C122.977 301.168 120.128 304.03 116.604 304.03Z" fill="white"/>
<path d="M142.943 174.849C137.458 174.849 132.967 170.358 132.967 164.873V154.062V143.809C132.967 141.066 134.093 138.576 135.895 136.761C137.71 134.946 140.201 133.833 142.943 133.833C148.428 133.833 152.92 138.324 152.92 143.809V164.873C152.92 170.358 148.428 174.849 142.943 174.849Z" fill="#AECC53"/>
<path d="M124.924 332.301C113.769 332.301 104.68 323.226 104.68 312.072C104.68 300.917 113.755 291.829 124.924 291.829C135.616 291.829 144.493 300.188 145.129 310.853C145.275 313.304 143.407 315.397 140.969 315.543C138.518 315.688 136.424 313.82 136.279 311.383C135.921 305.395 130.939 300.705 124.937 300.705C118.671 300.705 113.57 305.805 113.57 312.072C113.57 318.338 118.671 323.438 124.937 323.438C127.389 323.438 129.376 325.426 129.376 327.876C129.376 330.327 127.362 332.301 124.924 332.301Z" fill="white"/>
<path d="M116.882 312.893C108.959 312.893 102.467 306.401 102.467 298.479V268.234V263.544C102.467 255.622 108.959 249.13 116.882 249.13C124.805 249.13 131.297 255.622 131.297 263.544V298.479C131.297 306.415 124.805 312.893 116.882 312.893Z" fill="#AECC53"/>
<path d="M131.297 284.622H102.467V285.734H131.297V284.622Z" fill="#11283C"/>
<path d="M143.751 175.59C143.579 175.59 143.407 175.511 143.301 175.365C143.129 175.126 143.182 174.782 143.433 174.61C147.991 171.391 149.859 165.575 149.859 154.539C149.859 143.808 149.528 136.615 145.063 134.521C144.785 134.389 144.679 134.071 144.798 133.793C144.931 133.515 145.249 133.409 145.527 133.528C150.588 135.912 150.946 143.053 150.946 154.539C150.946 165.972 148.945 172.04 144.056 175.497C143.963 175.564 143.857 175.59 143.751 175.59Z" fill="#11283C"/>
<path d="M310.094 175.59C309.988 175.59 309.882 175.564 309.776 175.484C304.887 172.04 302.886 165.959 302.886 154.526C302.886 143.04 303.257 135.899 308.305 133.515C308.583 133.382 308.901 133.501 309.034 133.78C309.166 134.058 309.047 134.376 308.769 134.508C304.304 136.615 303.973 143.795 303.973 154.526C303.973 165.562 305.828 171.377 310.398 174.597C310.65 174.769 310.703 175.113 310.531 175.352C310.425 175.511 310.253 175.59 310.094 175.59Z" fill="#11283C"/>
<path d="M310.703 270.764C309.537 270.764 308.371 270.658 307.192 270.459C301.866 269.532 297.215 266.591 294.102 262.179C292.697 260.179 293.174 257.41 295.175 255.992C297.176 254.575 299.945 255.065 301.362 257.065C303.111 259.543 305.721 261.199 308.716 261.716C311.71 262.232 314.717 261.557 317.208 259.808C322.336 256.204 323.568 249.09 319.964 243.976C316.506 239.061 309.802 237.697 304.701 240.85C302.621 242.135 299.878 241.499 298.593 239.419C297.308 237.339 297.944 234.597 300.024 233.312C309.113 227.681 321.05 230.132 327.211 238.876C333.637 248.004 331.438 260.656 322.309 267.068C318.864 269.505 314.837 270.764 310.703 270.764Z" fill="white"/>
<path d="M314.612 257.582C319.183 264.061 328.218 265.637 334.697 261.067L363.262 240.956C365.7 239.247 367.436 236.902 368.429 234.292C370.059 229.96 369.609 224.913 366.76 220.872C362.189 214.394 353.153 212.817 346.674 217.388L344.608 218.845L318.109 237.498C311.617 242.056 310.041 251.091 314.612 257.582Z" fill="#AECC53"/>
<path d="M329.45 229.525L328.54 230.166L345.137 253.738L346.047 253.097L329.45 229.525Z" fill="#11283C"/>
<path d="M100.613 392.738H208.738H240.165V360.731H100.613V392.738Z" fill="#11283C"/>
<path d="M153.476 361.751C152.628 361.751 151.939 361.062 151.939 360.214V319.225C151.939 318.377 152.628 317.688 153.476 317.688C154.324 317.688 155.013 318.377 155.013 319.225V360.214C155.013 361.062 154.324 361.751 153.476 361.751Z" fill="#ADCB53"/>
<path d="M153.476 325.293C156.667 325.293 159.253 322.707 159.253 319.517C159.253 316.327 156.667 313.74 153.476 313.74C150.286 313.74 147.7 316.327 147.7 319.517C147.7 322.707 150.286 325.293 153.476 325.293Z" fill="#ADCB53"/>
<path d="M172.462 361.805C171.614 361.805 170.925 361.116 170.925 360.268V336.938C170.925 336.09 171.614 335.401 172.462 335.401C173.31 335.401 173.999 336.09 173.999 336.938V360.268C173.999 361.116 173.31 361.805 172.462 361.805Z" fill="#ADCB53"/>
<path d="M172.463 342.992C175.653 342.992 178.24 340.406 178.24 337.216C178.24 334.026 175.653 331.44 172.463 331.44C169.273 331.44 166.687 334.026 166.687 337.216C166.687 340.406 169.273 342.992 172.463 342.992Z" fill="#ADCB53"/>
<path d="M116.088 361.805C115.24 361.805 114.551 361.116 114.551 360.268V321.398C114.551 320.55 115.24 319.862 116.088 319.862C116.936 319.862 117.625 320.55 117.625 321.398V360.268C117.625 361.116 116.936 361.805 116.088 361.805Z" fill="#ADCB53"/>
<path d="M116.087 327.453C119.277 327.453 121.864 324.867 121.864 321.677C121.864 318.486 119.277 315.9 116.087 315.9C112.897 315.9 110.311 318.486 110.311 321.677C110.311 324.867 112.897 327.453 116.087 327.453Z" fill="#ADCB53"/>
<path d="M216.184 361.804C215.336 361.804 214.647 361.115 214.647 360.267V335.97C214.647 335.122 215.336 334.434 216.184 334.434C217.032 334.434 217.721 335.122 217.721 335.97V360.267C217.721 361.115 217.032 361.804 216.184 361.804Z" fill="#ADCB53"/>
<path d="M216.184 342.025C219.374 342.025 221.96 339.439 221.96 336.249C221.96 333.058 219.374 330.472 216.184 330.472C212.993 330.472 210.407 333.058 210.407 336.249C210.407 339.439 212.993 342.025 216.184 342.025Z" fill="#ADCB53"/>
<path d="M137.67 360.824C136.822 360.824 136.133 360.135 136.133 359.287V296.068C136.133 295.22 136.822 294.531 137.67 294.531C138.518 294.531 139.207 295.22 139.207 296.068V359.287C139.207 360.135 138.518 360.824 137.67 360.824Z" fill="#ADCB53"/>
<path d="M115.611 270.194C115.226 269.85 114.869 269.479 114.524 269.068C112.947 267.147 113.053 264.272 114.855 262.471L118.525 258.801C128.939 248.388 145.991 248.388 156.404 258.801L160.074 262.471C161.876 264.272 161.982 267.147 160.406 269.068C160.074 269.479 159.743 269.903 159.438 270.34C156.948 273.89 152.933 275.454 149.793 278.448C145.633 282.409 143.831 288.741 138.598 291.59C132.159 295.1 128.489 290.212 125.508 284.754C123.573 281.217 122.063 277.428 119.771 274.102C118.658 272.46 117.028 271.492 115.611 270.194Z" fill="white"/>
<path d="M136.491 298.942C140.996 297.697 145.673 297.127 150.35 297.22C154.735 297.313 158.962 298.545 163.294 298.465C163.705 298.452 164.116 298.465 164.526 298.492C166.461 298.598 168.223 297.22 168.527 295.272L169.15 291.285C170.926 279.971 163.122 269.267 151.82 267.491L147.832 266.869C145.885 266.564 144.03 267.809 143.54 269.691C143.434 270.088 143.315 270.486 143.182 270.87C141.645 275.361 139.896 279.799 138.585 284.369C137.26 289.019 136.809 293.656 136.385 298.452" fill="#C8D3DD"/>
<path d="M136.703 298.929C134.994 298.995 132.874 297.67 131.178 297.26C129.019 296.73 126.806 296.425 124.58 296.359C120.857 296.24 117.121 296.756 113.583 297.922C110.92 298.796 106.972 298.916 106.402 295.273L105.78 291.285C104.004 279.971 111.808 269.267 123.109 267.491L127.097 266.869C129.045 266.564 130.9 267.809 131.39 269.691C131.496 270.088 131.615 270.486 131.748 270.87L137.458 287.522C138.041 289.258 138.624 290.967 138.849 292.795C139.075 294.623 138.916 296.531 138.094 298.174C137.935 298.492 137.75 298.797 137.471 299.008C137.206 299.194 137.034 299.061 136.703 298.929Z" fill="#C8D3DD"/>
<path d="M131.629 298.399C131.629 295.312 134.12 295.604 137.207 295.604C140.294 295.604 142.785 295.312 142.785 298.399C142.785 301.486 140.294 306.772 137.207 306.772C134.133 306.759 131.629 301.473 131.629 298.399Z" fill="#ADCB53"/>
<path d="M195.635 360.347C195.078 360.347 194.628 359.896 194.628 359.34V317.834C194.628 317.278 195.078 316.827 195.635 316.827C196.191 316.827 196.642 317.278 196.642 317.834V359.34C196.642 359.896 196.191 360.347 195.635 360.347Z" fill="#ADCB53"/>
<path d="M181.154 300.837C180.902 300.612 180.664 300.373 180.438 300.095C179.405 298.823 179.471 296.942 180.65 295.763L183.062 293.352C189.898 286.516 201.094 286.516 207.93 293.352L210.342 295.763C211.521 296.942 211.587 298.836 210.554 300.095C210.328 300.36 210.116 300.638 209.918 300.929C208.288 303.261 205.651 304.281 203.585 306.255C200.855 308.865 199.663 313.012 196.231 314.893C192.005 317.198 189.594 313.992 187.633 310.402C186.361 308.07 185.367 305.593 183.87 303.407C183.141 302.32 182.081 301.685 181.154 300.837Z" fill="white"/>
<path d="M194.867 319.702C197.821 318.881 200.895 318.51 203.969 318.576C206.844 318.629 209.626 319.45 212.475 319.397C212.74 319.397 213.018 319.397 213.283 319.41C214.555 319.49 215.707 318.576 215.906 317.291L216.317 314.668C217.483 307.236 212.369 300.214 204.936 299.035L202.313 298.624C201.027 298.426 199.809 299.247 199.491 300.479C199.424 300.744 199.345 300.996 199.252 301.261C198.245 304.215 197.092 307.116 196.231 310.124C195.357 313.184 195.065 316.218 194.787 319.371" fill="#C8D3DD"/>
<path d="M194.999 319.702C193.873 319.742 192.482 318.881 191.369 318.602C189.951 318.258 188.494 318.059 187.036 318.006C184.598 317.927 182.134 318.271 179.815 319.026C178.067 319.596 175.47 319.675 175.099 317.278L174.688 314.655C173.522 307.222 178.636 300.201 186.069 299.022L188.692 298.611C189.978 298.412 191.196 299.234 191.514 300.466C191.581 300.731 191.66 300.983 191.753 301.248L195.502 312.177C195.887 313.316 196.271 314.443 196.417 315.635C196.562 316.827 196.47 318.086 195.926 319.159C195.82 319.371 195.701 319.57 195.516 319.715C195.33 319.874 195.211 319.795 194.999 319.702Z" fill="#C8D3DD"/>
<path d="M191.673 319.344C191.673 317.317 193.316 317.516 195.33 317.516C197.344 317.516 198.987 317.331 198.987 319.344C198.987 321.358 197.344 324.842 195.33 324.842C193.316 324.842 191.673 321.371 191.673 319.344Z" fill="#ADCB53"/>
<path d="M240.245 364.401H100.679C98.8773 364.401 97.4199 362.943 97.4199 361.142C97.4199 359.34 98.8773 357.883 100.679 357.883H240.245C242.046 357.883 243.504 359.34 243.504 361.142C243.504 362.943 242.033 364.401 240.245 364.401Z" fill="#ADCB53"/>
<path d="M346.182 248.242C348.355 252.23 349.601 256.787 349.667 261.636C349.866 277.467 330.323 295.22 321.234 295.22C308.953 295.22 291.98 278.05 291.98 261.994C291.98 255.396 294.193 249.329 297.916 244.467C299.691 242.161 300.115 239.088 299.002 236.398C297.837 233.603 297.201 230.543 297.201 227.337C297.201 221.865 299.055 216.844 302.169 212.844C304.13 210.326 304.474 206.922 303.03 204.073C301.652 201.371 300.871 198.31 300.871 195.065C300.871 184.056 312.98 162.077 320.81 162.077C327.7 162.077 340.75 184.056 340.75 195.065C340.75 198.31 339.969 201.371 338.591 204.073C337.146 206.922 337.491 210.313 339.452 212.844C342.565 216.844 344.42 221.879 344.42 227.337C344.42 230.543 343.784 233.603 342.618 236.398C341.505 239.075 341.929 242.148 343.692 244.453C344.632 245.646 345.454 246.917 346.182 248.242Z" fill="#11283C"/>
<path d="M296.989 243.751C298.513 241.764 298.87 239.128 297.916 236.862C296.658 233.842 296.022 230.649 296.022 227.35C296.022 221.773 297.824 216.513 301.242 212.128C302.938 209.942 303.229 207.067 301.984 204.617C300.474 201.636 299.705 198.43 299.705 195.065C299.705 184.347 311.748 160.898 320.824 160.898C321.473 160.898 321.235 294.054 321.235 294.054C321.884 294.054 321.884 296.412 321.235 296.412C308.516 296.412 290.802 279.07 290.802 262.007C290.815 255.343 292.948 249.024 296.989 243.751Z" fill="#C8D3DD"/>
<path d="M320.824 340.925C320.174 340.925 319.645 340.395 319.645 339.746V187.474C319.645 186.824 320.174 186.295 320.824 186.295C321.473 186.295 322.003 186.824 322.003 187.474V339.746C322.003 340.395 321.473 340.925 320.824 340.925Z" fill="white"/>
<path d="M270.663 284.37C269.775 281.601 267.51 279.495 264.674 278.872C261.72 278.223 258.845 277.004 256.208 275.162C251.73 272.036 248.656 267.638 247.159 262.789C246.218 259.742 243.622 257.516 240.455 257.066C237.448 256.642 234.493 255.529 231.83 253.674C226.782 250.15 225.815 245.235 222.317 240.916C218.819 236.597 212.619 234.451 207.73 232.239C206.312 231.59 204.802 230.835 204.086 229.444C202.735 226.794 205.014 223.747 207.399 221.945C219.787 212.605 241.82 212.009 254.632 220.952C257.295 222.806 259.361 225.191 260.792 227.867C262.303 230.689 265.284 232.345 268.477 232.173C273.538 231.908 278.732 233.259 283.21 236.386C285.846 238.227 287.993 240.492 289.609 243.049C292.179 247.09 298.526 248.918 302.474 251.263C307.548 254.284 312.384 257.9 315.736 262.829C319.393 268.194 320.638 272.579 319.671 278.753C318.214 287.92 324.56 305.752 312.98 311.157C308.886 313.065 304.064 311.038 300.341 308.468C297.346 306.388 294.326 303.473 290.748 302.453C287.357 301.486 284.786 301.433 281.633 299.247C276.241 295.498 272.518 290.199 270.663 284.37Z" fill="#11283C"/>
<path d="M318.413 340.925C317.83 340.925 317.326 340.501 317.247 339.919C313.749 315.224 306.515 293.71 297.89 282.369C281.355 260.642 259.362 243.473 234.268 232.702C233.672 232.451 233.394 231.749 233.645 231.152C233.897 230.556 234.599 230.278 235.196 230.53C260.66 241.459 282.985 258.894 299.758 280.938C308.609 292.583 316.015 314.496 319.579 339.587C319.672 340.237 319.221 340.833 318.572 340.912C318.519 340.912 318.466 340.925 318.413 340.925Z" fill="white"/>
<path d="M370.945 284.37C371.832 281.601 374.098 279.495 376.933 278.872C379.888 278.223 382.763 277.004 385.399 275.162C389.878 272.036 392.951 267.638 394.448 262.789C395.389 259.742 397.986 257.516 401.152 257.066C404.16 256.642 407.115 255.529 409.778 253.674C414.826 250.15 415.793 245.235 419.29 240.916C422.788 236.597 428.989 234.451 433.878 232.239C435.295 231.59 436.806 230.835 437.521 229.444C438.873 226.794 436.594 223.747 434.209 221.945C421.821 212.605 399.788 212.009 386.976 220.952C384.313 222.806 382.246 225.191 380.815 227.867C379.305 230.689 376.324 232.345 373.131 232.173C368.07 231.908 362.876 233.259 358.398 236.386C355.761 238.227 353.615 240.492 351.999 243.049C349.428 247.09 343.082 248.918 339.134 251.263C334.059 254.284 329.223 257.9 325.871 262.829C322.215 268.194 320.969 272.579 321.936 278.753C323.394 287.92 317.048 305.752 328.627 311.157C332.721 313.065 337.544 311.038 341.267 308.468C344.261 306.388 347.282 303.473 350.859 302.453C354.251 301.486 356.821 301.433 359.974 299.247C365.367 295.498 369.09 290.199 370.945 284.37Z" fill="#C8D3DD"/>
<path d="M323.208 340.925C323.155 340.925 323.102 340.925 323.036 340.912C322.387 340.819 321.949 340.223 322.029 339.587C325.58 314.509 332.986 292.583 341.849 280.938C358.623 258.894 380.947 241.459 406.412 230.53C407.008 230.278 407.697 230.556 407.962 231.152C408.214 231.749 407.936 232.437 407.339 232.702C382.246 243.473 360.252 260.642 343.718 282.369C335.092 293.71 327.858 315.224 324.361 339.919C324.281 340.501 323.778 340.925 323.208 340.925Z" fill="white"/>
<path d="M323.766 396.62H319.169C302.475 396.62 288.881 383.041 288.881 366.335V339.746C288.881 339.018 289.478 338.421 290.206 338.421H352.729C353.457 338.421 354.053 339.018 354.053 339.746V366.335C354.053 383.027 340.473 396.62 323.766 396.62ZM291.531 341.071V366.335C291.531 381.57 303.932 393.97 319.169 393.97H323.766C339.002 393.97 351.404 381.57 351.404 366.335V341.071H291.531Z" fill="#ADCB53"/>
<path d="M79.0563 254.137C54.0288 254.137 33.665 233.775 33.665 208.75V170.37C33.665 164.7 38.2625 160.103 43.933 160.103C49.6036 160.103 54.2011 164.7 54.2011 170.37V208.75C54.2011 222.461 65.3568 233.603 79.0563 233.603C92.7558 233.603 103.911 222.448 103.911 208.75V170.556C103.911 164.886 108.509 160.288 114.179 160.288C119.85 160.288 124.448 164.886 124.448 170.556V208.75C124.448 233.775 104.084 254.137 79.0563 254.137Z" fill="#ADCB53"/>
<path d="M79.0561 383.133C73.3855 383.133 68.7881 378.536 68.7881 372.866V122.479C68.7881 116.808 73.3855 112.211 79.0561 112.211C84.7267 112.211 89.3241 116.808 89.3241 122.479V372.866C89.3109 378.536 84.7267 383.133 79.0561 383.133Z" fill="#ADCB53"/>
<path d="M79.0568 244.546C59.3157 244.546 43.2446 228.489 43.2446 208.736V175.245C43.2446 174.861 43.5494 174.556 43.9336 174.556C44.3178 174.556 44.6225 174.861 44.6225 175.245V208.736C44.6225 227.721 60.0709 243.168 79.0568 243.168C98.0427 243.168 113.491 227.721 113.491 208.736V175.431C113.491 175.047 113.796 174.742 114.18 174.742C114.564 174.742 114.869 175.047 114.869 175.431V208.736C114.856 228.489 98.7979 244.546 79.0568 244.546Z" fill="white"/>
<path d="M114.181 180.836C117.02 180.836 119.321 178.535 119.321 175.696C119.321 172.857 117.02 170.556 114.181 170.556C111.342 170.556 109.04 172.857 109.04 175.696C109.04 178.535 111.342 180.836 114.181 180.836Z" fill="white"/>
<path d="M49.0742 175.511C49.0742 172.662 46.7689 170.37 43.9336 170.37C41.0983 170.37 38.793 172.676 38.793 175.511C38.793 178.359 41.0983 180.651 43.9336 180.651C46.7689 180.651 49.0742 178.359 49.0742 175.511Z" fill="white"/>
<path d="M79.0566 373.555C78.6724 373.555 78.3677 373.25 78.3677 372.866V127.367C78.3677 126.983 78.6724 126.678 79.0566 126.678C79.4408 126.678 79.7456 126.983 79.7456 127.367V372.866C79.7323 373.25 79.4276 373.555 79.0566 373.555Z" fill="white"/>
<path d="M79.0566 132.759C81.8957 132.759 84.1973 130.458 84.1973 127.619C84.1973 124.78 81.8957 122.479 79.0566 122.479C76.2176 122.479 73.916 124.78 73.916 127.619C73.916 130.458 76.2176 132.759 79.0566 132.759Z" fill="white"/>
<path d="M89.1259 391.413H68.9741C60.9982 391.413 54.5459 384.948 54.5459 376.986V361.141V346.37H103.567V376.986C103.567 384.948 97.1018 391.413 89.1259 391.413Z" fill="#C8D3DD"/>
</svg>
