<svg width="275" height="300" viewBox="0 0 275 300" fill="none" xmlns="http://www.w3.org/2000/svg">
<path d="M114.67 187.959C77.106 187.959 46.4502 157.303 46.4502 119.739V106.03C46.4502 87.1404 61.886 71.7046 80.7761 71.7046H96.7516H148.456C167.346 71.7046 182.782 87.1404 182.782 106.03V119.739C182.89 157.303 152.234 187.959 114.67 187.959Z" fill="#AECC53"/>
<path d="M60.4829 160.974C72.5725 151.583 92.3261 145.538 114.562 145.538C137.014 145.538 156.768 151.691 168.858 161.19" stroke="#11283C" stroke-width="0.837" stroke-miterlimit="10" stroke-linecap="round" stroke-linejoin="round"/>
<path d="M172.743 81.7437C161.409 93.0777 139.605 100.85 114.562 100.85C89.6273 100.85 67.8228 93.1856 56.4888 81.8516" stroke="#11283C" stroke-width="0.837" stroke-miterlimit="10" stroke-linecap="round" stroke-linejoin="round"/>
<path d="M86.3896 192.925V288.238" stroke="white" stroke-width="9.6255" stroke-miterlimit="10" stroke-linecap="round" stroke-linejoin="round"/>
<path d="M86.3894 202.964C78.9413 202.964 72.7886 196.919 72.7886 189.363V176.734C72.7886 173.711 75.2713 171.336 78.1857 171.336H94.4851C97.5075 171.336 99.8823 173.819 99.8823 176.734V189.363C99.8823 192.601 98.6949 195.516 96.8598 197.89C94.3772 200.913 90.5992 202.964 86.3894 202.964Z" fill="#AECC53"/>
<path d="M141.656 193.249V288.563" stroke="white" stroke-width="9.6255" stroke-miterlimit="10" stroke-linecap="round" stroke-linejoin="round"/>
<path d="M142.303 202.964C138.094 202.964 134.316 201.021 131.833 197.998C129.89 195.624 128.811 192.709 128.811 189.471V176.841C128.811 173.819 131.293 171.444 134.208 171.444H150.507C153.529 171.444 155.904 173.927 155.904 176.841V189.471C155.796 196.811 149.751 202.964 142.303 202.964Z" fill="#AECC53"/>
<path d="M122.982 149.208H106.574C84.8779 149.208 67.3911 131.613 67.3911 110.025C67.3911 98.7987 76.5663 89.6235 87.7923 89.6235H131.077H141.872C153.098 89.6235 162.273 98.7987 162.273 110.025C162.165 131.613 144.57 149.208 122.982 149.208Z" fill="white" stroke="#1A3C5B" stroke-width="2.511" stroke-miterlimit="10" stroke-linecap="round" stroke-linejoin="round"/>
<path d="M124.925 127.62C123.198 131.721 119.204 134.528 114.562 134.528C110.244 134.528 106.466 132.045 104.523 128.483" stroke="#1A3C5B" stroke-width="2.0925" stroke-miterlimit="10"/>
<path d="M90.2744 122.978C94.7456 122.978 98.3702 119.353 98.3702 114.882C98.3702 110.411 94.7456 106.786 90.2744 106.786C85.8033 106.786 82.1787 110.411 82.1787 114.882C82.1787 119.353 85.8033 122.978 90.2744 122.978Z" fill="#1A3C5B"/>
<path d="M94.9167 119.2C97.0032 119.2 98.6947 117.508 98.6947 115.422C98.6947 113.335 97.0032 111.644 94.9167 111.644C92.8301 111.644 91.1387 113.335 91.1387 115.422C91.1387 117.508 92.8301 119.2 94.9167 119.2Z" fill="white"/>
<path d="M139.065 122.978C143.537 122.978 147.161 119.353 147.161 114.882C147.161 110.411 143.537 106.786 139.065 106.786C134.594 106.786 130.97 110.411 130.97 114.882C130.97 119.353 134.594 122.978 139.065 122.978Z" fill="#1A3C5B"/>
<path d="M143.491 119.2C145.577 119.2 147.269 117.508 147.269 115.422C147.269 113.335 145.577 111.644 143.491 111.644C141.404 111.644 139.713 113.335 139.713 115.422C139.713 117.508 141.404 119.2 143.491 119.2Z" fill="white"/>
<path d="M163.568 76.023H138.418C135.719 76.023 133.452 73.7562 133.452 71.0577C133.452 68.3591 135.719 66.0923 138.418 66.0923H163.568C166.267 66.0923 168.534 68.3591 168.534 71.0577C168.534 73.7562 166.267 76.023 163.568 76.023Z" fill="#AECC53"/>
<path d="M150.939 31.5503V54.1104" stroke="white" stroke-width="3.685" stroke-miterlimit="10" stroke-linecap="round" stroke-linejoin="round"/>
<path d="M150.939 34.8966C153.681 34.8966 155.904 32.6735 155.904 29.9312C155.904 27.1889 153.681 24.9658 150.939 24.9658C148.197 24.9658 145.974 27.1889 145.974 29.9312C145.974 32.6735 148.197 34.8966 150.939 34.8966Z" fill="#AECC53"/>
<path d="M150.939 70.6257C148.024 70.6257 145.649 68.2509 145.649 65.3364V48.0656C145.649 45.1511 148.024 42.7764 150.939 42.7764C153.853 42.7764 156.228 45.1511 156.228 48.0656V65.3364C156.228 68.2509 153.853 70.6257 150.939 70.6257Z" fill="#AECC53"/>
<path d="M96.8594 299.572H77.4297V269.996C77.4297 264.599 81.7474 260.281 87.1446 260.281C92.5417 260.281 96.8594 264.599 96.8594 269.996V279.927V299.572Z" fill="#AECC53"/>
<path d="M77.5376 299.572C77.5376 292.988 81.8553 287.591 87.2525 287.591C92.6496 287.591 96.9673 292.988 96.9673 299.572" stroke="#11283C" stroke-width="0.837" stroke-miterlimit="10"/>
<path d="M151.91 299.572H132.48V269.996C132.48 264.599 136.798 260.281 142.195 260.281C147.592 260.281 151.91 264.599 151.91 269.996V299.572Z" fill="#AECC53"/>
<path d="M132.588 299.572C132.588 292.988 136.906 287.591 142.303 287.591C147.7 287.591 152.018 292.988 152.018 299.572" stroke="#11283C" stroke-width="0.837" stroke-miterlimit="10"/>
<path d="M55.8414 204.475C52.3872 199.617 53.3587 192.925 58.2161 189.363L72.7884 178.784C76.3505 176.194 80.7762 174.898 85.0939 175.222L92.542 175.762C93.8373 175.87 94.8088 177.165 94.485 178.461L92.6499 185.693C91.5705 190.01 88.9799 193.788 85.4177 196.379L70.8454 206.957C66.0959 210.412 59.4035 209.332 55.8414 204.475Z" fill="#C8D3DD"/>
<path d="M92.5413 175.762L85.0932 175.222C80.6675 174.898 76.3498 176.194 72.7877 178.784L69.2256 181.375C72.14 179.972 75.3783 179.324 78.6166 179.54L86.0647 180.08C87.36 180.188 88.3315 181.483 88.0077 182.778L86.1726 190.01C85.0932 194.328 82.5026 198.106 78.9405 200.697C78.9405 200.697 79.5881 200.805 80.2358 200.265L85.3091 196.379C88.8712 193.788 91.4618 190.01 92.5413 185.693L94.3763 178.461C94.8081 177.165 93.9445 175.87 92.5413 175.762Z" fill="white"/>
<path d="M68.6862 195.515L39.1099 216.348" stroke="#1A3C5B" stroke-width="3" stroke-miterlimit="10" stroke-linecap="round" stroke-linejoin="round"/>
<path d="M15.2542 166.047C-12.4871 128.915 23.1341 108.406 38.8937 112.291" stroke="white" stroke-width="9.6255" stroke-miterlimit="10" stroke-linecap="round" stroke-linejoin="round"/>
<path d="M42.0244 197.135L56.2729 214.837" stroke="white" stroke-width="6.696" stroke-miterlimit="10" stroke-linecap="round" stroke-linejoin="round"/>
<path d="M46.8819 129.239C42.4562 129.239 38.7861 125.569 38.7861 121.143V103.98C38.7861 101.497 39.8656 99.2305 41.7006 97.8272C43.1038 96.6399 44.9389 95.8843 46.9898 95.8843C51.4155 95.8843 55.0855 99.5543 55.0855 103.98V121.143C54.9776 125.569 51.3075 129.239 46.8819 129.239Z" fill="#AECC53"/>
<path d="M47.3135 204.043C42.3482 208.145 34.9001 207.39 30.7983 202.316L12.8797 180.188C11.3685 178.245 10.505 175.978 10.2891 173.711C9.96527 169.933 11.4765 166.155 14.6068 163.673C19.5722 159.571 27.0203 160.326 31.1221 165.4L49.0406 187.528C53.0345 192.601 52.2789 199.941 47.3135 204.043Z" fill="#AECC53"/>
<path d="M23.8896 193.897L42.132 179.108" stroke="#11283C" stroke-width="0.837" stroke-miterlimit="10"/>
<path d="M190.662 112.292C242.258 110.565 239.668 150.936 226.067 165.616" stroke="white" stroke-width="9.6255" stroke-miterlimit="10" stroke-linecap="round" stroke-linejoin="round"/>
<path d="M182.782 129.239C187.207 129.239 190.878 125.569 190.878 121.143V103.98C190.878 101.389 189.582 99.0146 187.639 97.5034C186.236 96.424 184.617 95.8843 182.674 95.8843C178.248 95.8843 174.578 99.5543 174.578 103.98V121.143C174.686 125.569 178.356 129.239 182.782 129.239Z" fill="#AECC53"/>
<path d="M48.1776 95.8843C52.0636 97.7193 52.3874 103.332 52.3874 112.615C52.3874 121.899 50.7682 126.648 46.9902 129.347" stroke="#11283C" stroke-width="0.8205" stroke-miterlimit="10" stroke-linecap="round" stroke-linejoin="round"/>
<path d="M181.271 95.8843C177.385 97.7193 177.062 103.332 177.062 112.615C177.062 121.899 178.681 126.648 182.459 129.347" stroke="#11283C" stroke-width="0.8205" stroke-miterlimit="10" stroke-linecap="round" stroke-linejoin="round"/>
<path d="M87.3613 53.5705V35.3281" stroke="#ADCB53" stroke-width="1.4541" stroke-linecap="round" stroke-linejoin="round"/>
<path d="M90.2757 35.4359C90.2757 33.8168 88.9804 32.5215 87.3612 32.5215C85.7421 32.5215 84.4468 33.8168 84.4468 35.4359C84.4468 37.0551 85.7421 38.3504 87.3612 38.3504C88.9804 38.4583 90.2757 37.163 90.2757 35.4359Z" fill="#ADCB53"/>
<path d="M95.457 53.894V23.562" stroke="#ADCB53" stroke-width="1.4541" stroke-miterlimit="10" stroke-linecap="round" stroke-linejoin="round"/>
<path d="M106.683 10.285C106.898 10.0692 107.114 9.96122 107.222 9.74533C107.978 8.77385 107.978 7.26265 107.006 6.3991L105.171 4.56407C99.8821 -0.725133 91.1387 -0.725133 85.8495 4.56407L84.0145 6.3991C83.043 7.37059 83.043 8.77385 83.7986 9.74533C84.0145 9.96122 84.1224 10.1771 84.3383 10.393C85.6336 12.228 87.6845 12.9836 89.3037 14.4948C91.4625 16.5457 92.3261 19.784 95.0247 21.1873C98.263 23.0223 100.206 20.4317 101.717 17.7331C102.689 15.8981 103.444 13.9551 104.632 12.336C105.171 11.4724 105.927 10.9327 106.683 10.285Z" fill="white"/>
<path d="M95.9966 24.9654C93.7298 24.3177 91.3551 23.9939 88.8724 24.1018C86.6056 24.1018 84.4467 24.7495 82.2879 24.7495C82.072 24.7495 81.8561 24.7495 81.6402 24.7495C80.6687 24.8574 79.8052 24.1018 79.5893 23.1304L79.2655 21.0794C78.4019 15.2505 82.2879 9.85337 88.1168 8.88188L90.1677 8.55805C91.1392 8.45011 92.1107 8.98983 92.3266 9.96131C92.3266 10.1772 92.4345 10.3931 92.5424 10.609C93.298 12.8758 94.2695 15.1426 94.9172 17.5173C95.5648 19.8921 95.7807 22.2668 95.9966 24.7495" fill="#C8D3DD"/>
<path d="M95.8884 24.9654C96.752 24.9654 97.8314 24.3178 98.6949 24.1019C99.7744 23.778 100.962 23.6701 102.041 23.6701C103.984 23.5622 105.819 23.886 107.654 24.4257C109.057 24.8575 111 24.9654 111.324 23.0224L111.648 20.9715C112.512 15.1426 108.626 9.74546 102.797 8.77397L100.746 8.45014C99.7744 8.3422 98.8029 8.88192 98.587 9.8534C98.587 10.0693 98.4791 10.2852 98.3711 10.5011L95.4566 19.0286C95.1328 19.8921 94.809 20.7556 94.701 21.7271C94.5931 22.6986 94.7011 23.6701 95.1328 24.4257C95.2408 24.5336 95.3487 24.7495 95.4566 24.8575C95.6725 25.0734 95.7805 25.0734 95.8884 24.9654Z" fill="#C8D3DD"/>
<path d="M98.4788 24.7493C98.4788 23.1301 97.1834 23.346 95.6722 23.346C94.161 23.346 92.8657 23.2381 92.8657 24.7493C92.8657 26.3684 94.161 29.067 95.6722 29.067C97.1834 29.067 98.4788 26.2605 98.4788 24.7493Z" fill="#ADCB53"/>
<path d="M92.5424 67.7108C100.352 67.7108 106.683 63.5063 106.683 58.3197C106.683 53.1332 100.352 48.9287 92.5424 48.9287C84.7328 48.9287 78.4019 53.1332 78.4019 58.3197C78.4019 63.5063 84.7328 67.7108 92.5424 67.7108Z" fill="#ADCB53"/>
<path d="M101.501 71.7045H84.8783C79.805 71.7045 75.7031 67.6027 75.7031 62.5294V54.2178H110.677V62.5294C110.677 67.6027 106.575 71.7045 101.501 71.7045Z" fill="#11283C"/>
<path d="M197.354 183.965H189.043C172.635 183.965 159.358 170.688 159.358 154.281V138.413H227.039V154.281C226.931 170.688 213.654 183.965 197.354 183.965Z" fill="#C8D3DD"/>
<path d="M165.295 175.006C167.238 181.807 174.255 185.908 181.163 183.965C187.963 182.023 192.065 175.006 190.122 168.098C188.287 161.513 181.595 157.519 175.01 158.923" stroke="white" stroke-width="6.696" stroke-miterlimit="10" stroke-linecap="round" stroke-linejoin="round"/>
<path d="M178.896 178.028C180.623 184.289 187.1 187.959 193.36 186.232L220.778 178.568C223.153 177.92 225.096 176.625 226.607 174.898C229.089 171.983 230.061 167.99 228.982 164.104C227.254 157.843 220.778 154.173 214.517 155.9L187.1 163.564C180.839 165.291 177.169 171.768 178.896 178.028Z" fill="#AECC53"/>
<path d="M203.723 183.317L197.462 160.649" stroke="#11283C" stroke-width="0.837" stroke-miterlimit="10"/>
<path d="M193.145 145.861C211.804 145.861 226.931 142.575 226.931 138.521C226.931 134.467 211.804 131.181 193.145 131.181C174.485 131.181 159.358 134.467 159.358 138.521C159.358 142.575 174.485 145.861 193.145 145.861Z" fill="#11283C"/>
<path d="M210.631 72.7836C212.143 75.4822 213.006 78.7205 213.006 81.9588C213.114 92.861 199.729 105.059 193.468 105.059C185.049 105.059 173.391 93.2928 173.391 82.1747C173.391 77.6411 174.902 73.4313 177.493 70.0851C178.68 68.4659 179.004 66.415 178.249 64.58C177.493 62.637 177.061 60.5861 177.061 58.3193C177.061 54.5413 178.356 51.0871 180.515 48.3885C181.919 46.6614 182.134 44.2867 181.055 42.3437C180.084 40.5087 179.544 38.3498 179.544 36.191C179.544 28.635 187.855 13.5229 193.253 13.5229C198.002 13.5229 206.961 28.635 206.961 36.191C206.961 38.4578 206.422 40.5087 205.45 42.3437C204.479 44.2867 204.695 46.6614 205.99 48.3885C208.149 51.195 209.444 54.6492 209.444 58.3193C209.444 60.4781 209.012 62.637 208.257 64.58C207.501 66.415 207.825 68.5739 209.012 70.0851C209.552 70.9486 210.092 71.8121 210.631 72.7836Z" fill="#11283C"/>
<path d="M176.738 69.6536C177.817 68.2503 178.033 66.5232 177.385 64.9041C176.522 62.8532 176.09 60.5864 176.09 58.3196C176.09 54.4336 177.385 50.8715 179.652 47.8491C180.839 46.3379 181.055 44.3949 180.192 42.6678C179.112 40.6169 178.573 38.4581 178.573 36.0833C178.573 28.7432 186.884 12.5518 193.145 12.5518C193.577 12.5518 193.469 104.195 193.469 104.195C193.901 104.195 193.901 105.814 193.469 105.814C184.725 105.814 172.528 93.8328 172.528 82.175C172.528 77.6414 174.039 73.3236 176.738 69.6536Z" fill="#ADCB53"/>
<path d="M193.145 30.9019V139.924" stroke="white" stroke-width="1.5019" stroke-miterlimit="10" stroke-linecap="round" stroke-linejoin="round"/>
<path d="M158.603 97.6111C157.955 95.6682 156.444 94.2649 154.501 93.8331C152.45 93.4014 150.507 92.5378 148.672 91.2425C145.542 89.0836 143.491 86.0612 142.412 82.715C141.764 80.6641 139.929 79.0449 137.77 78.8291C135.719 78.5052 133.668 77.7496 131.833 76.4543C128.379 74.0796 127.731 70.6254 125.249 67.7109C122.874 64.6885 118.556 63.2853 115.21 61.7741C114.239 61.3423 113.159 60.8026 112.727 59.8311C111.756 57.9961 113.375 55.9452 114.994 54.6498C123.522 48.1733 138.634 47.8494 147.485 54.0022C149.32 55.2975 150.723 56.9166 151.695 58.7517C152.774 60.6946 154.825 61.882 156.984 61.6661C160.438 61.4502 164 62.4217 167.131 64.5806C168.966 65.8759 170.369 67.3871 171.556 69.1142C173.283 71.9207 177.709 73.1081 180.408 74.7272C183.862 76.7781 187.208 79.2608 189.583 82.715C192.065 86.3851 192.929 89.4075 192.281 93.7252C191.31 99.9859 195.628 112.291 187.64 116.069C184.833 117.365 181.487 115.961 178.896 114.234C176.845 112.831 174.795 110.78 172.312 110.133C169.937 109.485 168.21 109.485 166.051 107.974C162.489 105.275 159.898 101.605 158.603 97.6111Z" fill="#11283C"/>
<path d="M133.884 61.3423C151.263 68.7903 166.591 80.772 178.033 95.7761C187.316 107.974 192.389 124.921 192.713 140.141" stroke="white" stroke-width="1.5019" stroke-miterlimit="10" stroke-linecap="round" stroke-linejoin="round"/>
<path d="M227.687 97.6111C228.335 95.6682 229.846 94.2649 231.789 93.8331C233.84 93.4014 235.783 92.5378 237.618 91.2425C240.748 89.0836 242.799 86.0612 243.879 82.715C244.526 80.6641 246.361 79.0449 248.52 78.8291C250.571 78.5052 252.622 77.7496 254.457 76.4543C257.911 74.0796 258.559 70.6254 261.042 67.7109C263.416 64.6885 267.734 63.2853 271.08 61.7741C272.052 61.3423 273.131 60.8026 273.563 59.8311C274.534 57.9961 272.915 55.9452 271.296 54.6498C262.769 48.1733 247.657 47.8494 238.805 54.0022C236.97 55.2975 235.567 56.9166 234.596 58.7517C233.516 60.6946 231.465 61.882 229.306 61.6661C225.852 61.4502 222.29 62.4217 219.16 64.5806C217.325 65.8759 215.921 67.3871 214.734 69.1142C213.007 71.9207 208.581 73.1081 205.883 74.7272C202.429 76.7781 199.082 79.2608 196.708 82.715C194.225 86.3851 193.361 89.4075 194.009 93.7252C194.981 99.9859 190.663 112.291 198.651 116.069C201.457 117.365 204.803 115.961 207.394 114.234C209.445 112.831 211.496 110.78 213.978 110.133C216.353 109.485 218.08 109.485 220.239 107.974C223.801 105.275 226.392 101.605 227.687 97.6111Z" fill="#ADCB53" stroke="#ADCB53" stroke-width="1.5019" stroke-miterlimit="10" stroke-linecap="round" stroke-linejoin="round"/>
<path d="M252.406 61.3423C235.027 68.7903 219.699 80.772 208.257 95.7761C198.974 107.974 193.901 124.921 193.577 140.141" stroke="white" stroke-width="1.5019" stroke-miterlimit="10" stroke-linecap="round" stroke-linejoin="round"/>
</svg>
